<svg xmlns="http://www.w3.org/2000/svg" width="64" height="64" viewBox="0 0 64 64">
  <g fill="none" fill-rule="evenodd">
    <path fill="#22BA8E" d="M18,60 C18,60 5,49.1797017 5,42 C5,34.8202983 10.8202983,29 18,29 C25.1797017,29 31,34.8202983 31,42 C31,49.1797017 18,60 18,60 Z M18,46 C20.7614237,46 23,43.7614237 23,41 C23,38.2385763 20.7614237,36 18,36 C15.2385763,36 13,38.2385763 13,41 C13,43.7614237 15.2385763,46 18,46 Z"/>
    <path fill="#ED9111" d="M49,31 C49,31 38,21.9249111 38,15.9032258 C38,9.88154047 42.9248678,5 49,5 C55.0751322,5 60,9.88154047 60,15.9032258 C60,21.9249111 49,31 49,31 Z M49,18 C51.209139,18 53,16.209139 53,14 C53,11.790861 51.209139,10 49,10 C46.790861,10 45,11.790861 45,14 C45,16.209139 46.790861,18 49,18 Z"/>
    <path stroke="#979797" stroke-dasharray="4 5" stroke-linecap="round" stroke-linejoin="round" stroke-width="2" d="M18,62 L47.0038998,62 C48.6586002,62 50,60.6609095 50,58.9939798 L50,55.0768618 C50,53.4166827 48.6600467,52.0708416 47.0018581,52.0708416 L36.9583728,52.0708416 C35.3025448,52.0708416 33.9602309,50.7275592 33.9602309,49.07583 L33.9602309,48.0989843 C33.9602309,46.4448851 35.2984604,45.1039727 36.9512898,45.1039727 L57.9549619,45.1039727 C59.6068782,45.1039727 60.9460209,43.7606502 60.9460209,42.0977606 L60.9460209,39.0062121 C60.9460209,37.345927 59.6093453,36 57.9439629,36 L48.6740658,36"/>
  </g>
</svg>
