<?xml version="1.0" encoding="utf-8"?>
<!-- Generator: Adobe Illustrator 19.2.1, SVG Export Plug-In . SVG Version: 6.00 Build 0)  -->
<svg version="1.1" id="Layer_1" xmlns="http://www.w3.org/2000/svg" xmlns:xlink="http://www.w3.org/1999/xlink" x="0px" y="0px"
	 viewBox="0 0 64 64" style="enable-background:new 0 0 64 64;" xml:space="preserve">
<metadata><?xpacket begin="﻿" id="W5M0MpCehiHzreSzNTczkc9d"?>
<x:xmpmeta xmlns:x="adobe:ns:meta/" x:xmptk="Adobe XMP Core 5.6-c111 79.158366, 2015/09/25-01:12:00        ">
   <rdf:RDF xmlns:rdf="http://www.w3.org/1999/02/22-rdf-syntax-ns#">
      <rdf:Description rdf:about=""/>
   </rdf:RDF>
</x:xmpmeta>
                                                                                                    
                                                                                                    
                                                                                                    
                                                                                                    
                                                                                                    
                                                                                                    
                                                                                                    
                                                                                                    
                                                                                                    
                                                                                                    
                                                                                                    
                                                                                                    
                                                                                                    
                                                                                                    
                                                                                                    
                                                                                                    
                                                                                                    
                                                                                                    
                                                                                                    
                                                                                                    
                           
<?xpacket end="w"?></metadata>
<style type="text/css">
	.st0{fill:none;}
	.st1{fill:#5B554D;}
</style>
<rect class="st0" width="64" height="64"/>
<g>
	<g>
		<g id="Shape_1_copy_2_">
			<g>
				<path class="st1" d="M49,43.3h-9.4c-3.1,0-3.6-0.4-5-3.7l-0.1-0.3c-0.7-1.8-0.9-2.3-1.4-2.6c-0.2-0.2-0.6-0.2-1-0.2
					c-0.4,0-0.8,0.1-1.1,0.2c-0.5,0.3-0.7,0.8-1.4,2.6l-0.1,0.3c-1.3,3.3-1.9,3.7-5,3.7H15c-4.7,0-6.5-0.2-10.3-4
					C1.4,36,1,33.6,1,32.4l0-4.6c0-1.1,0.1-2.3,1.8-3.2C4,24,6.2,23.3,7.7,22.9c1-0.2,6.1-1.5,11.7-2c0.3,0,0.6,0.2,0.6,0.5
					c0,0.3-0.2,0.6-0.5,0.6C14,22.6,8.9,23.8,8,24.1c-1.5,0.4-3.6,1.1-4.6,1.6c-1.1,0.6-1.2,1.1-1.2,2.2v4.6c0,0.8,0.3,2.9,3.3,6
					c3.7,3.7,5.3,3.7,9.5,3.7h9.4c2.6,0,2.7,0,3.9-2.9l0.1-0.3c0.8-1.8,1.1-2.6,1.9-3.1c0.4-0.3,1-0.5,1.7-0.4
					c0.7,0,1.3,0.1,1.7,0.4c0.8,0.5,1.1,1.3,1.9,3.1l0.1,0.3c1.2,2.9,1.3,2.9,3.9,2.9H49c4.2,0,5.8,0,9.5-3.7
					c3.1-3.1,3.4-5.2,3.3-5.9l0-4.6c0-1-0.1-1.6-1.2-2.2l-0.2-0.1c-6.7-3.7-12.4-3.9-16-3.4c-0.3,0-0.6-0.2-0.7-0.5
					c0-0.3,0.2-0.6,0.5-0.7c3.8-0.5,9.7-0.3,16.7,3.6l0.2,0.1c1.7,0.9,1.8,2.1,1.8,3.2v4.6c0,1.2-0.4,3.6-3.7,6.8
					C55.5,43.1,53.7,43.3,49,43.3z"/>
			</g>
			<g>
				<path class="st1" d="M31.9,31.6c-0.8,0-1.6-0.3-2.7-0.9c-1-0.6-1.7-0.9-3.2-0.9c-1.6,0-17.1,0-17.1,0c-0.2,0-5.5-0.1-7.2-2.9
					c-0.2-0.3-0.1-0.7,0.2-0.8c0.3-0.2,0.7-0.1,0.8,0.2c1.3,2.2,6.1,2.4,6.2,2.4l0,0c0,0,15.5,0,17.1,0c1.8,0,2.6,0.4,3.8,1
					c1,0.5,1.6,0.7,2.1,0.7c0.6,0,1.1-0.2,2.2-0.7c1.1-0.6,2-1,3.8-1c1.6,0,17.1,0,17.1,0c1.3-0.1,5-0.8,6-2.4
					c0.2-0.3,0.5-0.4,0.8-0.2c0.3,0.2,0.4,0.5,0.2,0.8c-1.5,2.4-6.8,2.9-7,2.9c0,0-15.5,0-17.2,0c-1.5,0-2.2,0.3-3.2,0.9
					C33.7,31.3,32.9,31.6,31.9,31.6C32,31.6,32,31.6,31.9,31.6z"/>
			</g>
		</g>
		<g id="Shape_4_copy_4_2_">
			<path class="st1" d="M8.7,32.2L8.7,32.2c0.5,0,1.1,0,1.6,0l1.7,0c3.9,0,10.8,0,14.1,0c0.8,0,1,0.3,1.1,0.4
				c0.4,0.6,0.4,2.5-0.9,5.8l-0.1,0.3c-0.2,0.5-0.4,1-0.5,1.1c0,0-0.3,0.1-1.1,0.1h-9.4c-3.5,0-4.5-0.1-6.5-1.7c0,0,0-0.1,0-0.1
				L8.7,32.2C8.6,32.2,8.6,32.2,8.7,32.2 M8.7,31c-0.7,0-1.3,0.6-1.3,1.3v5.9c0,0.4,0.2,0.7,0.5,1c2.2,1.9,3.6,2,7.2,2h9.4
				c2.1,0,2.1-0.3,2.9-2.2c1.3-3.1,2.6-7.8-1.2-7.8c-3.9,0-12.6,0-15.9,0C9.7,31,9.2,31,8.7,31C8.7,31,8.7,31,8.7,31L8.7,31z"/>
		</g>
		<g id="Shape_4_copy_6_2_">
			<path class="st1" d="M55.3,32.2C55.4,32.2,55.4,32.2,55.3,32.2l0.1,5.9l0,0.1c-1.9,1.6-3,1.7-6.5,1.7h-9.4
				c-0.9,0-1.1-0.1-1.1-0.1c-0.1-0.1-0.3-0.6-0.5-1.1l-0.1-0.3c-1.3-3.3-1.4-5.1-0.9-5.8c0.1-0.1,0.3-0.4,1.1-0.4
				c3.4,0,10.2,0,14.1,0l1.7,0C54.2,32.2,54.8,32.2,55.3,32.2L55.3,32.2 M55.3,31C55.3,31,55.3,31,55.3,31c-0.6,0-1.1,0-1.6,0
				c-3.2,0-11.9,0-15.9,0c-3.8,0-2.5,4.7-1.2,7.8c0.8,1.9,0.8,2.2,2.9,2.2h9.4c3.6,0,5-0.1,7.2-2c0.3-0.2,0.5-0.6,0.5-1v-5.9
				C56.6,31.5,56,31,55.3,31L55.3,31z"/>
		</g>
	</g>
	<g>
		<path class="st1" d="M4.1,28.2c-0.1,0-0.2,0-0.2-0.1c-0.3-0.1-0.4-0.5-0.3-0.8c1.1-2.4,4.5-4.4,7.3-5.1c0.3-0.1,0.7,0.1,0.7,0.4
			c0.1,0.3-0.1,0.7-0.4,0.7c-2.6,0.7-5.6,2.5-6.5,4.4C4.6,28,4.4,28.2,4.1,28.2z"/>
	</g>
	<g>
		<path class="st1" d="M59.7,28.2c-0.2,0-0.5-0.1-0.6-0.4c-0.9-2.1-3.7-4.5-6.1-5.1c-0.3-0.1-0.5-0.4-0.4-0.7
			c0.1-0.3,0.4-0.5,0.7-0.4c2.7,0.7,5.8,3.4,6.8,5.8c0.1,0.3,0,0.7-0.3,0.8C59.9,28.2,59.8,28.2,59.7,28.2z"/>
	</g>
</g>
</svg>
