<?xml version="1.0" encoding="utf-8"?>
<!-- Generator: Adobe Illustrator 19.2.1, SVG Export Plug-In . SVG Version: 6.00 Build 0)  -->
<svg version="1.1" id="Layer_1" xmlns="http://www.w3.org/2000/svg" xmlns:xlink="http://www.w3.org/1999/xlink" x="0px" y="0px"
	 viewBox="0 0 64 64" style="enable-background:new 0 0 64 64;" xml:space="preserve">
<metadata><?xpacket begin="﻿" id="W5M0MpCehiHzreSzNTczkc9d"?>
<x:xmpmeta xmlns:x="adobe:ns:meta/" x:xmptk="XMP Core 5.4.0">
 <rdf:RDF xmlns:rdf="http://www.w3.org/1999/02/22-rdf-syntax-ns#">
  <rdf:Description rdf:about=""/>
 </rdf:RDF>
</x:xmpmeta>
                                                                                                    
                                                                                                    
                                                                                                    
                                                                                                    
                                                                                                    
                                                                                                    
                                                                                                    
                                                                                                    
                                                                                                    
                                                                                                    
                                                                                                    
                                                                                                    
                                                                                                    
                                                                                                    
                                                                                                    
                                                                                                    
                                                                                                    
                                                                                                    
                                                                                                    
                                                                                                    
                                                                                   
<?xpacket end="w"?></metadata>
<style type="text/css">
	.st0{fill:none;}
	.st1{fill:#5B554D;}
</style>
<rect class="st0" width="64" height="64"/>
<g>
	<g>
		<path class="st1" d="M48.8,63L48.8,63c-0.4,0-0.6-0.2-0.8-0.5L34.4,36l-9.8,9.8l0.8,8c0,0.3-0.1,0.5-0.3,0.7L20.6,59
			c-0.2,0.2-0.5,0.3-0.8,0.2c-0.3,0-0.5-0.2-0.6-0.5l-4.5-9.5l-9.5-4.5c-0.3-0.1-0.4-0.4-0.5-0.6c0-0.3,0-0.6,0.2-0.8L9.4,39
			c0.2-0.2,0.5-0.3,0.7-0.3l8,0.8l9.8-9.8L1.5,16c-0.3-0.1-0.4-0.4-0.5-0.7c0-0.3,0-0.6,0.2-0.8l5.3-5.3C6.8,9.1,7.1,9,7.4,9.1
			l33,8.1L55.3,2.3c0.8-0.9,2-1.3,3.2-1.3l0,0c1.2,0,2.3,0.5,3.2,1.3l0,0c1.8,1.8,1.8,4.6,0,6.4L46.8,23.6l8.1,33
			c0.1,0.3,0,0.6-0.2,0.8l-5.3,5.3C49.2,62.9,49,63,48.8,63z M34.6,33.7L34.6,33.7c0.4,0,0.6,0.2,0.8,0.5L49,60.6l4.1-4.1l-8.1-33
			c-0.1-0.3,0-0.6,0.2-0.8L60.4,7.5c1.1-1.1,1.1-2.8,0-3.9c-0.5-0.5-1.2-0.8-1.9-0.8l0,0c-0.7,0-1.4,0.3-1.9,0.8L41.3,18.8
			c-0.2,0.2-0.5,0.3-0.8,0.2l-33-8.1L3.4,15l26.5,13.7c0.3,0.1,0.4,0.4,0.5,0.7c0,0.3,0,0.6-0.2,0.8l-11,11
			c-0.2,0.2-0.5,0.3-0.7,0.3l-8-0.8l-3.2,3.2l8.6,4.1c0.2,0.1,0.3,0.2,0.4,0.4l4.1,8.6l3.2-3.2l-0.8-8c0-0.3,0.1-0.5,0.3-0.7l11-11
			C34.1,33.7,34.4,33.7,34.6,33.7z"/>
	</g>
</g>
</svg>
