<?xml version="1.0" encoding="utf-8"?>
<!-- Generator: Adobe Illustrator 19.2.1, SVG Export Plug-In . SVG Version: 6.00 Build 0)  -->
<svg version="1.1" id="Layer_1" xmlns="http://www.w3.org/2000/svg" xmlns:xlink="http://www.w3.org/1999/xlink" x="0px" y="0px"
	 viewBox="0 0 64 64" style="enable-background:new 0 0 64 64;" xml:space="preserve">
<metadata><?xpacket begin="﻿" id="W5M0MpCehiHzreSzNTczkc9d"?>
<x:xmpmeta xmlns:x="adobe:ns:meta/" x:xmptk="Adobe XMP Core 5.6-c111 79.158366, 2015/09/25-01:12:00        ">
   <rdf:RDF xmlns:rdf="http://www.w3.org/1999/02/22-rdf-syntax-ns#">
      <rdf:Description rdf:about=""/>
   </rdf:RDF>
</x:xmpmeta>
                                                                                                    
                                                                                                    
                                                                                                    
                                                                                                    
                                                                                                    
                                                                                                    
                                                                                                    
                                                                                                    
                                                                                                    
                                                                                                    
                                                                                                    
                                                                                                    
                                                                                                    
                                                                                                    
                                                                                                    
                                                                                                    
                                                                                                    
                                                                                                    
                                                                                                    
                                                                                                    
                           
<?xpacket end="w"?></metadata>
<style type="text/css">
	.st0{fill:none;}
	.st1{fill:#5B554D;}
</style>
<rect class="st0" width="64" height="64"/>
<g>
	<g>
		<path class="st1" d="M61.7,63H2.3C1.6,63,1,62.4,1,61.7s0.6-1.3,1.3-1.3h59.4c0.7,0,1.3,0.6,1.3,1.3S62.4,63,61.7,63z"/>
	</g>
	<g>
		<path class="st1" d="M59.8,48.1H4.2c-0.7,0-1.3-0.6-1.3-1.3s0.6-1.3,1.3-1.3h55.7c0.7,0,1.3,0.6,1.3,1.3S60.6,48.1,59.8,48.1z"/>
	</g>
	<g>
		<path class="st1" d="M58,33.3H6c-0.7,0-1.3-0.6-1.3-1.3c0-0.7,0.6-1.3,1.3-1.3h52c0.7,0,1.3,0.6,1.3,1.3
			C59.3,32.7,58.7,33.3,58,33.3z"/>
	</g>
	<g>
		<path class="st1" d="M54.3,18.5H9.7c-0.7,0-1.3-0.6-1.3-1.3s0.6-1.3,1.3-1.3h44.6c0.7,0,1.3,0.6,1.3,1.3S55,18.5,54.3,18.5z"/>
	</g>
	<g>
		<path class="st1" d="M61.7,3.7H2.3C1.6,3.7,1,3.1,1,2.3S1.6,1,2.3,1h59.4C62.4,1,63,1.6,63,2.3S62.4,3.7,61.7,3.7z"/>
	</g>
</g>
</svg>
