<?xml version="1.0" encoding="utf-8"?>
<!-- Generator: Adobe Illustrator 19.2.1, SVG Export Plug-In . SVG Version: 6.00 Build 0)  -->
<svg version="1.1" id="Layer_1" xmlns="http://www.w3.org/2000/svg" xmlns:xlink="http://www.w3.org/1999/xlink" x="0px" y="0px"
	 viewBox="0 0 64 64" style="enable-background:new 0 0 64 64;" xml:space="preserve">
<metadata><?xpacket begin="﻿" id="W5M0MpCehiHzreSzNTczkc9d"?>
<x:xmpmeta xmlns:x="adobe:ns:meta/" x:xmptk="Adobe XMP Core 5.6-c111 79.158366, 2015/09/25-01:12:00        ">
   <rdf:RDF xmlns:rdf="http://www.w3.org/1999/02/22-rdf-syntax-ns#">
      <rdf:Description rdf:about=""/>
   </rdf:RDF>
</x:xmpmeta>
                                                                                                    
                                                                                                    
                                                                                                    
                                                                                                    
                                                                                                    
                                                                                                    
                                                                                                    
                                                                                                    
                                                                                                    
                                                                                                    
                                                                                                    
                                                                                                    
                                                                                                    
                                                                                                    
                                                                                                    
                                                                                                    
                                                                                                    
                                                                                                    
                                                                                                    
                                                                                                    
                           
<?xpacket end="w"?></metadata>
<style type="text/css">
	.st0{fill:none;}
	.st1{fill:#5B554D;}
</style>
<rect class="st0" width="64" height="64"/>
<g>
	<path class="st1" d="M1.9,54.2C1.9,54.2,1.8,54.2,1.9,54.2c-0.5,0-0.9-0.4-0.9-0.9C1,26.9,24.4,24,32.9,23.8v-13
		c0-0.4,0.2-0.7,0.5-0.8c0.2-0.1,1.9-0.7,4.3,0.8L60.8,26c0,0,0,0,0,0c1.5,1,2.2,2.2,2.2,3.7c0,1.6-0.8,3.2-2.2,4.1L37.8,47.9
		c-1.8,1.3-4,1-4.1,1c-0.4-0.1-0.7-0.4-0.7-0.9V35.4C6.7,35.8,2.8,53.3,2.8,53.5C2.7,53.9,2.3,54.2,1.9,54.2z M34.7,11.6v13.1
		c0,0.5-0.4,0.9-0.9,0.9C10.7,25.6,4.6,38.7,3.2,48c3.4-5.8,11.6-14.4,30.6-14.4c0.5,0,0.9,0.4,0.9,0.9v12.7c0.6,0,1.4-0.2,2-0.7
		l23.1-14.2c0.8-0.6,1.4-1.5,1.4-2.6c0-0.9-0.4-1.6-1.4-2.3l-23-15.1C35.9,11.7,35.2,11.6,34.7,11.6z"/>
</g>
</svg>
