<?xml version="1.0" encoding="utf-8"?>
<!-- Generator: Adobe Illustrator 19.2.1, SVG Export Plug-In . SVG Version: 6.00 Build 0)  -->
<svg version="1.1" id="Layer_1" xmlns="http://www.w3.org/2000/svg" xmlns:xlink="http://www.w3.org/1999/xlink" x="0px" y="0px"
	 viewBox="0 0 64 64" style="enable-background:new 0 0 64 64;" xml:space="preserve">
<metadata><?xpacket begin="﻿" id="W5M0MpCehiHzreSzNTczkc9d"?>
<x:xmpmeta xmlns:x="adobe:ns:meta/" x:xmptk="Adobe XMP Core 5.6-c111 79.158366, 2015/09/25-01:12:00        ">
   <rdf:RDF xmlns:rdf="http://www.w3.org/1999/02/22-rdf-syntax-ns#">
      <rdf:Description rdf:about=""/>
   </rdf:RDF>
</x:xmpmeta>
                                                                                                    
                                                                                                    
                                                                                                    
                                                                                                    
                                                                                                    
                                                                                                    
                                                                                                    
                                                                                                    
                                                                                                    
                                                                                                    
                                                                                                    
                                                                                                    
                                                                                                    
                                                                                                    
                                                                                                    
                                                                                                    
                                                                                                    
                                                                                                    
                                                                                                    
                                                                                                    
                           
<?xpacket end="w"?></metadata>
<style type="text/css">
	.st0{fill:none;}
	.st1{fill:#5B554D;}
</style>
<rect class="st0" width="64" height="64"/>
<g>
	<path class="st1" d="M22.6,63c-3.2,0-6.2-1-8.8-2.8c-6.3-4.6-8.1-13.4-4-20.1l0,0c0.5-0.8,3.6-5.2,24.6-34.2
		C38.4,0.6,46-0.6,51.3,3.3c5.2,3.8,6.6,11,3.1,16.4L31.5,51.3c-1.5,2-3.5,3.3-5.9,3.7c-2.4,0.4-4.7-0.2-6.7-1.6
		c-3.8-2.8-4.8-8.3-2.2-12.2c0,0,0.1-0.2,18.1-25.2c0.3-0.4,0.9-0.5,1.3-0.2c0.4,0.3,0.5,0.9,0.2,1.3c-6.1,8.4-17.7,24.6-18,25
		c-2.1,3.2-1.3,7.6,1.7,9.9c1.5,1.1,3.4,1.6,5.3,1.3c1.9-0.3,3.6-1.3,4.7-3l22.8-31.6c2.9-4.6,1.8-10.7-2.6-13.9
		C45.7,1.4,39.3,2.5,36,7C27.8,18.3,12.1,40,11.5,41c0,0,0,0,0,0c-3.6,5.9-2.1,13.6,3.5,17.7c2.2,1.6,4.9,2.5,7.7,2.5
		c6.7,0,9.7-4.1,9.8-4.3l20.5-28.2c0.3-0.4,0.9-0.5,1.3-0.2c0.4,0.3,0.5,0.9,0.2,1.3L33.9,57.9C33.8,58.1,30.3,63,22.6,63z"/>
</g>
</svg>
