<?xml version="1.0" encoding="utf-8"?>
<!-- Generator: Adobe Illustrator 19.2.1, SVG Export Plug-In . SVG Version: 6.00 Build 0)  -->
<svg version="1.1" id="Layer_1" xmlns="http://www.w3.org/2000/svg" xmlns:xlink="http://www.w3.org/1999/xlink" x="0px" y="0px"
	 viewBox="0 0 64 64" style="enable-background:new 0 0 64 64;" xml:space="preserve">
<metadata><?xpacket begin="﻿" id="W5M0MpCehiHzreSzNTczkc9d"?>
<x:xmpmeta xmlns:x="adobe:ns:meta/" x:xmptk="Adobe XMP Core 5.6-c111 79.158366, 2015/09/25-01:12:00        ">
   <rdf:RDF xmlns:rdf="http://www.w3.org/1999/02/22-rdf-syntax-ns#">
      <rdf:Description rdf:about=""/>
   </rdf:RDF>
</x:xmpmeta>
                                                                                                    
                                                                                                    
                                                                                                    
                                                                                                    
                                                                                                    
                                                                                                    
                                                                                                    
                                                                                                    
                                                                                                    
                                                                                                    
                                                                                                    
                                                                                                    
                                                                                                    
                                                                                                    
                                                                                                    
                                                                                                    
                                                                                                    
                                                                                                    
                                                                                                    
                                                                                                    
                           
<?xpacket end="w"?></metadata>
<style type="text/css">
	.st0{fill:none;}
	.st1{fill:#5B554D;}
</style>
<rect class="st0" width="64" height="64"/>
<g>
	<g>
		<path class="st1" d="M10.1,40.6c-0.3,0-0.6-0.2-0.8-0.5c-2.7-5.7-3.9-13.6-3.8-16.4c0-4.2,1-6.9,3-8s4.8-0.5,6.8,0.2
			c0.5,0.2,0.7,0.7,0.5,1.1c-0.2,0.5-0.7,0.7-1.1,0.5c-2.3-0.8-4.2-0.9-5.3-0.3c-1.3,0.8-2.1,3.1-2.1,6.5c0,2,0.9,9.7,3.7,15.6
			c0.2,0.4,0,1-0.4,1.2C10.3,40.6,10.2,40.6,10.1,40.6z"/>
	</g>
	<g>
		<path class="st1" d="M9.5,47.9c-0.2,0-0.5-0.1-0.6-0.3C2.3,40.4,1,26.2,1,23.7c0-5.9,1.8-9.9,5.3-11.9c3.9-2.2,8.5-1,11.7,0.4
			c0.4,0.2,0.6,0.7,0.5,1.1c-0.2,0.4-0.7,0.6-1.1,0.5c-2.3-1-6.7-2.4-10.2-0.5C4.3,15,2.8,18.5,2.7,23.8c0,2.4,1.2,15.9,7.4,22.7
			c0.3,0.4,0.3,0.9-0.1,1.2C9.9,47.8,9.7,47.9,9.5,47.9z"/>
	</g>
	<g>
		<path class="st1" d="M54.1,40.3c-0.1,0-0.2,0-0.4-0.1c-0.4-0.2-0.6-0.7-0.4-1.2c2.7-5.9,3.5-13.4,3.5-15.3c0-3.4-0.8-5.7-2.1-6.5
			c-1.1-0.6-2.9-0.5-5.2,0.3c-0.5,0.2-1-0.1-1.1-0.5c-0.2-0.5,0.1-1,0.5-1.1c1.9-0.7,4.7-1.2,6.6-0.2c2,1.1,3,3.8,3,8
			c0,2.1-0.8,9.8-3.7,16C54.7,40.1,54.4,40.3,54.1,40.3z"/>
	</g>
	<g>
		<path class="st1" d="M54.7,47.7c-0.2,0-0.4-0.1-0.6-0.2c-0.4-0.3-0.4-0.9-0.1-1.2c6.1-6.9,7.3-20.2,7.2-22.5
			c0-5.3-1.5-8.7-4.4-10.3c-3.2-1.8-7.2-0.8-10,0.4c-0.4,0.2-1,0-1.1-0.5c-0.2-0.4,0-1,0.5-1.1c3.2-1.3,7.7-2.5,11.6-0.3
			c3.5,1.9,5.2,5.9,5.3,11.9c0,2.4-1.3,16.3-7.7,23.6C55.1,47.6,54.9,47.7,54.7,47.7z"/>
	</g>
	<g>
		<path class="st1" d="M25.1,10.4c-0.1,0-0.2,0-0.4-0.1c-0.4-0.2-0.6-0.7-0.4-1.2C24.6,8.4,27.6,2,32.4,2c3,0,5.6,2.4,7.8,7.1
			c0.2,0.4,0,1-0.4,1.2s-1,0-1.2-0.4c-1.9-4.1-4-6.1-6.2-6.1c-3.7,0-6.5,6.1-6.5,6.1C25.7,10.2,25.4,10.4,25.1,10.4z"/>
	</g>
	<g>
		<path class="st1" d="M39.3,62H24.9c-6.2,0-10.5-1.4-13.1-4.4c-3.4-3.8-3.6-9.6-2.7-17l1.3-10.8c1.9-14.7,7.3-21.2,17.3-21.2h8.8
			c10.1,0,15.4,6.5,17.3,21.2l1.3,10.8l0,0c0.9,7.5,0.8,13.2-2.7,17.1C49.8,60.6,45.5,62,39.3,62z M27.7,10.3
			c-9.1,0-13.8,5.9-15.6,19.7l-1.3,10.8C10,47.8,10,53.1,13,56.5c2.3,2.5,6.1,3.8,11.8,3.8h14.4c5.7,0,9.6-1.2,11.8-3.8
			c3-3.4,3.1-8.7,2.2-15.7L52.1,30c-1.8-13.8-6.5-19.7-15.6-19.7C36.5,10.3,27.7,10.3,27.7,10.3z"/>
	</g>
	<g>
		<path class="st1" d="M38.2,59.8H26c-5.8,0-9.6-1.2-11.7-3.7c-2.5-2.9-2.3-7.1-1.7-11.3l1.1-7.4c1.6-10.2,6.2-14.7,14.7-14.7h7.4
			c8.5,0,13.1,4.5,14.7,14.7l1.1,7.4c0.6,4.2,0.8,8.4-1.7,11.3C47.8,58.6,43.9,59.8,38.2,59.8z M28.4,24.5c-7.7,0-11.5,3.8-13,13.2
			l-1.1,7.4c-0.5,3.7-0.8,7.5,1.3,9.9c1.8,2,5.2,3,10.4,3h12.1c5.2,0,8.6-1,10.4-3.1c2.1-2.4,1.8-6.2,1.3-9.9l-1.1-7.4
			c-1.5-9.4-5.3-13.2-13-13.2h-7.3V24.5z"/>
	</g>
</g>
</svg>
