<?xml version="1.0" encoding="utf-8"?>
<!-- Generator: Adobe Illustrator 19.2.1, SVG Export Plug-In . SVG Version: 6.00 Build 0)  -->
<svg version="1.1" id="Layer_1" xmlns="http://www.w3.org/2000/svg" xmlns:xlink="http://www.w3.org/1999/xlink" x="0px" y="0px"
	 viewBox="0 0 64 64" style="enable-background:new 0 0 64 64;" xml:space="preserve">
<metadata><?xpacket begin="﻿" id="W5M0MpCehiHzreSzNTczkc9d"?>
<x:xmpmeta xmlns:x="adobe:ns:meta/" x:xmptk="Adobe XMP Core 5.6-c111 79.158366, 2015/09/25-01:12:00        ">
   <rdf:RDF xmlns:rdf="http://www.w3.org/1999/02/22-rdf-syntax-ns#">
      <rdf:Description rdf:about=""/>
   </rdf:RDF>
</x:xmpmeta>
                                                                                                    
                                                                                                    
                                                                                                    
                                                                                                    
                                                                                                    
                                                                                                    
                                                                                                    
                                                                                                    
                                                                                                    
                                                                                                    
                                                                                                    
                                                                                                    
                                                                                                    
                                                                                                    
                                                                                                    
                                                                                                    
                                                                                                    
                                                                                                    
                                                                                                    
                                                                                                    
                           
<?xpacket end="w"?></metadata>
<style type="text/css">
	.st0{fill:none;}
	.st1{fill:#5B554D;}
</style>
<rect class="st0" width="64" height="64"/>
<g>
	<g>
		<path class="st1" d="M55.9,2.9H8.2c-0.5,0-1-0.4-1-1s0.4-1,1-1h47.6c0.5,0,1,0.4,1,1S56.4,2.9,55.9,2.9z"/>
	</g>
	<g>
		<path class="st1" d="M8.2,10.9c-0.5,0-1-0.4-1-1V2c0-0.3,0.2-0.7,0.5-0.8C8,1,8.4,1,8.7,1.2l5,3C14.1,4.4,14.3,5,14,5.5
			s-0.9,0.6-1.3,0.3L9.2,3.7v6.2C9.2,10.4,8.7,10.9,8.2,10.9z"/>
	</g>
	<g>
		<path class="st1" d="M6.5,12c-0.3,0-0.5-0.1-0.7-0.3c-0.4-0.4-0.3-1,0.1-1.3l6.7-6.1c0.3-0.3,0.7-0.3,1-0.2
			c0.3,0.2,0.6,0.5,0.6,0.9v4.9c0,0.5-0.4,1-1,1c-0.5,0-1-0.4-1-1V7.1l-5.1,4.7C7,12,6.8,12,6.5,12z"/>
	</g>
	<g>
		<path class="st1" d="M55.8,10.9c-0.5,0-1-0.4-1-1V3.7l-3.5,2.1c-0.5,0.3-1,0.1-1.3-0.3c-0.3-0.5-0.1-1,0.3-1.3l5-3
			c0.3-0.2,0.7-0.2,1,0s0.5,0.5,0.5,0.8v7.9C56.8,10.4,56.3,10.9,55.8,10.9z"/>
	</g>
	<g>
		<path class="st1" d="M57.5,12c-0.2,0-0.5-0.1-0.6-0.3l-5-4.6v2.8c0,0.5-0.4,1-1,1s-1-0.4-1-1V5c0-0.4,0.2-0.7,0.6-0.9
			c0.3-0.2,0.7-0.1,1,0.2l6.6,6.1c0.4,0.4,0.4,1,0.1,1.3C58,11.9,57.7,12,57.5,12z"/>
	</g>
	<g>
		<path class="st1" d="M58.7,63L58.7,63H5.3c-0.3,0-0.5-0.1-0.7-0.3S4.4,62.3,4.4,62l1.2-51c0-0.5,0.4-0.9,1-0.9h51
			c0.5,0,0.9,0.4,1,0.9l1.2,51c0,0.3-0.1,0.5-0.3,0.7S58.9,63,58.7,63z M6.3,61.1h51.4L56.5,12h-49L6.3,61.1z"/>
	</g>
	<g>
		<g>
			<path class="st1" d="M18.8,22.2c-1.8,0-3.3-1.5-3.3-3.3s1.5-3.3,3.3-3.3s3.3,1.5,3.3,3.3C22.2,20.7,20.7,22.2,18.8,22.2z
				 M18.8,17.4c-0.8,0-1.4,0.6-1.4,1.4s0.6,1.4,1.4,1.4s1.4-0.6,1.4-1.4C20.3,18,19.6,17.4,18.8,17.4z"/>
		</g>
		<g>
			<path class="st1" d="M45.1,22.2c-1.8,0-3.3-1.5-3.3-3.3s1.5-3.3,3.3-3.3s3.3,1.5,3.3,3.3C48.5,20.7,47,22.2,45.1,22.2z
				 M45.1,17.4c-0.8,0-1.4,0.6-1.4,1.4s0.6,1.4,1.4,1.4c0.8,0,1.4-0.6,1.4-1.4C46.6,18,45.9,17.4,45.1,17.4z"/>
		</g>
		<g>
			<g>
				<path class="st1" d="M32,37c-7.9,0-14.4-6.4-14.4-14.3c0-1.1,0.2-2.3,0.4-3.5c0.1-0.5,0.6-0.8,1.2-0.7c0.5,0.1,0.8,0.6,0.7,1.2
					c-0.3,1-0.4,2.1-0.4,3c0,6.9,5.6,12.4,12.5,12.4s12.5-5.6,12.5-12.4c0-1-0.1-2-0.4-3c-0.1-0.5,0.2-1,0.7-1.2
					c0.5-0.1,1,0.2,1.2,0.7c0.3,1.2,0.4,2.4,0.4,3.5C46.4,30.5,39.9,37,32,37z"/>
			</g>
		</g>
	</g>
</g>
</svg>
