<?xml version="1.0" encoding="utf-8"?>
<!-- Generator: Adobe Illustrator 19.2.1, SVG Export Plug-In . SVG Version: 6.00 Build 0)  -->
<svg version="1.1" id="Layer_1" xmlns="http://www.w3.org/2000/svg" xmlns:xlink="http://www.w3.org/1999/xlink" x="0px" y="0px"
	 viewBox="0 0 64 64" style="enable-background:new 0 0 64 64;" xml:space="preserve">
<metadata><?xpacket begin="﻿" id="W5M0MpCehiHzreSzNTczkc9d"?>
<x:xmpmeta xmlns:x="adobe:ns:meta/" x:xmptk="Adobe XMP Core 5.6-c111 79.158366, 2015/09/25-01:12:00        ">
   <rdf:RDF xmlns:rdf="http://www.w3.org/1999/02/22-rdf-syntax-ns#">
      <rdf:Description rdf:about=""/>
   </rdf:RDF>
</x:xmpmeta>
                                                                                                    
                                                                                                    
                                                                                                    
                                                                                                    
                                                                                                    
                                                                                                    
                                                                                                    
                                                                                                    
                                                                                                    
                                                                                                    
                                                                                                    
                                                                                                    
                                                                                                    
                                                                                                    
                                                                                                    
                                                                                                    
                                                                                                    
                                                                                                    
                                                                                                    
                                                                                                    
                           
<?xpacket end="w"?></metadata>
<style type="text/css">
	.st0{fill:none;}
	.st1{fill:#5B554D;}
</style>
<rect class="st0" width="64" height="64"/>
<g>
	<g>
		<g>
			<path class="st1" d="M53,63H11c-0.2,0-0.5-0.1-0.6-0.3c-0.2-0.2-0.3-0.4-0.2-0.6l1.6-51.4c0-0.5,0.4-0.8,0.9-0.8h38.7
				c0.5,0,0.9,0.4,0.9,0.8l1.6,51.4c0,0.2-0.1,0.5-0.2,0.6C53.4,62.9,53.2,63,53,63z M11.9,61.3H52l-1.6-49.6h-37L11.9,61.3z"/>
		</g>
	</g>
	<circle class="st1" cx="22.6" cy="14.4" r="1.5"/>
	<circle class="st1" cx="41.2" cy="14.4" r="1.5"/>
	<g>
		<path class="st1" d="M41.3,14.6c-0.1,0-0.1,0-0.2,0c-0.5-0.1-0.8-0.6-0.6-1.1c0.2-0.7,0.3-1.4,0.3-2.1c0-4.8-3.9-8.7-8.7-8.7
			s-8.7,3.9-8.7,8.7c0,0.7,0.1,1.4,0.3,2.1c0.1,0.5-0.2,0.9-0.6,1.1c-0.5,0.1-0.9-0.2-1.1-0.6c-0.2-0.9-0.3-1.7-0.3-2.5
			C21.6,5.7,26.2,1,32,1s10.4,4.7,10.4,10.4c0,0.8-0.1,1.7-0.3,2.5C42,14.3,41.7,14.6,41.3,14.6z"/>
	</g>
</g>
</svg>
