<?xml version="1.0" encoding="utf-8"?>
<!-- Generator: Adobe Illustrator 19.2.1, SVG Export Plug-In . SVG Version: 6.00 Build 0)  -->
<svg version="1.1" id="Layer_1" xmlns="http://www.w3.org/2000/svg" xmlns:xlink="http://www.w3.org/1999/xlink" x="0px" y="0px"
	 viewBox="0 0 64 64" style="enable-background:new 0 0 64 64;" xml:space="preserve">
<metadata><?xpacket begin="﻿" id="W5M0MpCehiHzreSzNTczkc9d"?>
<x:xmpmeta xmlns:x="adobe:ns:meta/" x:xmptk="Adobe XMP Core 5.6-c111 79.158366, 2015/09/25-01:12:00        ">
   <rdf:RDF xmlns:rdf="http://www.w3.org/1999/02/22-rdf-syntax-ns#">
      <rdf:Description rdf:about=""/>
   </rdf:RDF>
</x:xmpmeta>
                                                                                                    
                                                                                                    
                                                                                                    
                                                                                                    
                                                                                                    
                                                                                                    
                                                                                                    
                                                                                                    
                                                                                                    
                                                                                                    
                                                                                                    
                                                                                                    
                                                                                                    
                                                                                                    
                                                                                                    
                                                                                                    
                                                                                                    
                                                                                                    
                                                                                                    
                                                                                                    
                           
<?xpacket end="w"?></metadata>
<style type="text/css">
	.st0{fill:none;}
	.st1{fill:#5B554D;}
</style>
<rect class="st0" width="64" height="64"/>
<g>
	<g>
		<path class="st1" d="M32,63C14.9,63,1,49.1,1,32S14.9,1,32,1s31,13.9,31,31S49.1,63,32,63z M32,2.9C15.9,2.9,2.9,15.9,2.9,32
			s13,29.1,29.1,29.1s29.1-13,29.1-29.1S48.1,2.9,32,2.9z M32,44.4c-6.9,0-12.4-5.6-12.4-12.4S25.1,19.6,32,19.6S44.4,25.1,44.4,32
			S38.9,44.4,32,44.4z M32,21.4c-5.8,0-10.6,4.7-10.6,10.6S26.2,42.6,32,42.6S42.6,37.8,42.6,32S37.8,21.4,32,21.4z"/>
	</g>
	<circle class="st1" cx="54" cy="39.5" r="1.2"/>
	<circle class="st1" cx="32.7" cy="51.1" r="1.2"/>
	<circle class="st1" cx="34.9" cy="57.4" r="1.2"/>
	<circle class="st1" cx="9.6" cy="30" r="1.2"/>
	<circle class="st1" cx="13.6" cy="14.1" r="1.2"/>
	<circle class="st1" cx="15.7" cy="19" r="1.2"/>
	<circle class="st1" cx="6.6" cy="37" r="1.2"/>
	<circle class="st1" cx="16.3" cy="30" r="1.2"/>
	<circle class="st1" cx="8.7" cy="24.2" r="1.2"/>
	<circle class="st1" cx="51.3" cy="46.2" r="1.2"/>
	<circle class="st1" cx="52.6" cy="34.8" r="1.2"/>
	<circle class="st1" cx="18" cy="37.3" r="1.2"/>
	<circle class="st1" cx="9.1" cy="20.3" r="1.2"/>
	<circle class="st1" cx="22.7" cy="50" r="1.2"/>
	<circle class="st1" cx="28.6" cy="55.9" r="1.2"/>
	<circle class="st1" cx="15.5" cy="49.7" r="1.2"/>
	<circle class="st1" cx="14.3" cy="41.8" r="1.2"/>
	<circle class="st1" cx="9.2" cy="41.8" r="1.2"/>
	<circle class="st1" cx="39.4" cy="46.8" r="1.2"/>
	<circle class="st1" cx="5.8" cy="30" r="1.2"/>
	<circle class="st1" cx="12.4" cy="35.2" r="1.2"/>
	<circle class="st1" cx="15.1" cy="26.1" r="1.2"/>
	<circle class="st1" cx="44.8" cy="54" r="1.2"/>
	<circle class="st1" cx="47.8" cy="21.9" r="1.2"/>
	<circle class="st1" cx="42" cy="8.4" r="1.2"/>
	<circle class="st1" cx="46" cy="41.6" r="1.2"/>
	
		<ellipse transform="matrix(2.901574e-02 -0.9996 0.9996 2.901574e-02 -28.7155 63.6795)" class="st1" cx="18.4" cy="46.6" rx="1.2" ry="1.2"/>
	<circle class="st1" cx="29.6" cy="16.7" r="1.2"/>
	<circle class="st1" cx="23.4" cy="56.1" r="1.2"/>
	<circle class="st1" cx="28.1" cy="47.2" r="1.2"/>
	<circle class="st1" cx="20.9" cy="20.7" r="1.2"/>
	<circle class="st1" cx="46.2" cy="49.5" r="1.2"/>
	<circle class="st1" cx="39.3" cy="52.4" r="1.2"/>
	<circle class="st1" cx="46.2" cy="35.8" r="1.2"/>
	<circle class="st1" cx="52.6" cy="25.2" r="1.2"/>
	<circle class="st1" cx="58.6" cy="34.4" r="1.2"/>
	<circle class="st1" cx="56.9" cy="44.1" r="1.2"/>
	<circle class="st1" cx="50.7" cy="50.8" r="1.2"/>
	<circle class="st1" cx="18" cy="53.3" r="1.2"/>
	<circle class="st1" cx="28.1" cy="10.9" r="1.2"/>
	<circle class="st1" cx="10.8" cy="48.1" r="1.2"/>
	<circle class="st1" cx="22.3" cy="14.9" r="1.2"/>
	<circle class="st1" cx="17.9" cy="10.2" r="1.2"/>
	<circle class="st1" cx="27.6" cy="6.4" r="1.2"/>
	<circle class="st1" cx="33.7" cy="8.7" r="1.2"/>
	<circle class="st1" cx="39.3" cy="13.8" r="1.2"/>
	<circle class="st1" cx="47.2" cy="14.1" r="1.2"/>
	<circle class="st1" cx="38.3" cy="19.2" r="1.2"/>
	<circle class="st1" cx="53" cy="19" r="1.2"/>
	<circle class="st1" cx="46.6" cy="28.4" r="1.2"/>
	<circle class="st1" cx="58" cy="27.7" r="1.2"/>
</g>
</svg>
