<?xml version="1.0" encoding="utf-8"?>
<!-- Generator: Adobe Illustrator 19.2.1, SVG Export Plug-In . SVG Version: 6.00 Build 0)  -->
<svg version="1.1" id="Layer_1" xmlns="http://www.w3.org/2000/svg" xmlns:xlink="http://www.w3.org/1999/xlink" x="0px" y="0px"
	 viewBox="0 0 64 64" style="enable-background:new 0 0 64 64;" xml:space="preserve">
<metadata><?xpacket begin="﻿" id="W5M0MpCehiHzreSzNTczkc9d"?>
<x:xmpmeta xmlns:x="adobe:ns:meta/" x:xmptk="Adobe XMP Core 5.6-c111 79.158366, 2015/09/25-01:12:00        ">
   <rdf:RDF xmlns:rdf="http://www.w3.org/1999/02/22-rdf-syntax-ns#">
      <rdf:Description rdf:about=""/>
   </rdf:RDF>
</x:xmpmeta>
                                                                                                    
                                                                                                    
                                                                                                    
                                                                                                    
                                                                                                    
                                                                                                    
                                                                                                    
                                                                                                    
                                                                                                    
                                                                                                    
                                                                                                    
                                                                                                    
                                                                                                    
                                                                                                    
                                                                                                    
                                                                                                    
                                                                                                    
                                                                                                    
                                                                                                    
                                                                                                    
                           
<?xpacket end="w"?></metadata>
<style type="text/css">
	.st0{fill:none;}
	.st1{fill:#5B554D;}
</style>
<rect class="st0" width="64" height="64"/>
<g>
	<g>
		<g>
			<path class="st1" d="M32,63C14.9,63,1,49.1,1,32C1,14.9,14.9,1,32,1c17.1,0,31,13.9,31,31C63,49.1,49.1,63,32,63z M32,2.9
				C16,2.9,2.9,15.9,2.9,32C2.9,48.1,16,61.1,32,61.1c16,0,29.1-13.1,29.1-29.1C61.1,15.9,48,2.9,32,2.9z"/>
		</g>
		<g>
			<path class="st1" d="M26,38.5c0.1,0.4-0.4,0.4-0.7,0.3c-0.4-0.1-1.2-0.5-1.6-0.6c-0.3-0.1-1.3-0.5-1.2-0.9
				c0.1-0.4,0.1-0.4,0.1-0.4s1,0.2,1.8,0.5C25.2,37.6,25.9,38.1,26,38.5z"/>
			<path class="st1" d="M19.2,38.4c-0.3-0.2,0.1-0.4,0.5-0.6c0.4-0.2,1.2-0.3,1.6-0.5c0.3-0.1,1.3-0.8,1.4-0.4c0.1,0.4,0,0.6,0,0.6
				s-0.7,0.6-1.6,0.7C20.2,38.5,19.5,38.7,19.2,38.4z"/>
			<path class="st1" d="M25.8,41.7c0.1,0.4-0.4,0.4-0.7,0.2c-0.4-0.1-1.2-0.6-1.5-0.7c-0.3-0.1-1.3-0.6-1.2-1
				c0.1-0.4,0.1-0.4,0.1-0.4s1,0.3,1.8,0.6C25.1,40.7,25.7,41.2,25.8,41.7z"/>
			<path class="st1" d="M19.1,41.2c-0.3-0.2,0.1-0.4,0.5-0.6c0.4-0.2,1.3-0.3,1.6-0.4c0.3-0.1,1.3-0.7,1.5-0.3c0.1,0.4,0,0.6,0,0.6
				s-0.7,0.5-1.6,0.7C20.1,41.4,19.4,41.5,19.1,41.2z"/>
			<path class="st1" d="M25.5,45c0.1,0.4-0.4,0.3-0.8,0.2c-0.4-0.1-1.2-0.6-1.5-0.8c-0.3-0.1-1.2-0.6-1.1-1c0.1-0.4,0.1-0.4,0.1-0.4
				s1,0.4,1.8,0.6C24.8,44,25.5,44.6,25.5,45z"/>
			<path class="st1" d="M19.2,43.7c-0.2-0.3,0.2-0.4,0.6-0.5c0.4-0.1,1.2,0,1.5,0c0.3,0,1.3-0.4,1.4,0c0.1,0.4-0.1,0.6-0.1,0.6
				s-0.7,0.4-1.6,0.3C20.1,44.1,19.4,44.1,19.2,43.7z"/>
			<path class="st1" d="M25,48.1c0,0.4-0.4,0.3-0.7,0.1c-0.3-0.2-1.1-0.7-1.4-0.9c-0.3-0.2-1.1-0.8-1-1.1c0.1-0.4,0.1-0.4,0.1-0.4
				s0.9,0.4,1.6,0.8C24.3,47.1,24.9,47.7,25,48.1z"/>
			<path class="st1" d="M18.9,46.2c-0.2-0.3,0.2-0.4,0.5-0.4c0.3,0,1.1,0.1,1.4,0.1c0.3,0,1.3-0.3,1.3,0.1c0,0.4-0.2,0.6-0.2,0.6
				s-0.7,0.3-1.5,0.2C19.8,46.7,19.2,46.6,18.9,46.2z"/>
			<path class="st1" d="M24.3,51c0,0.4-0.4,0.3-0.7,0.1c-0.3-0.2-1.1-0.7-1.4-0.9c-0.3-0.2-1.1-0.8-1-1.1c0.1-0.4,0.1-0.4,0.1-0.4
				s0.9,0.4,1.6,0.8C23.7,49.9,24.2,50.5,24.3,51z"/>
			<path class="st1" d="M18.2,49c-0.2-0.3,0.2-0.4,0.5-0.4c0.3,0,1.1,0.1,1.4,0.1c0.3,0,1.2-0.3,1.3,0.1c0,0.4-0.1,0.6-0.1,0.6
				s-0.7,0.3-1.5,0.2C19.1,49.5,18.4,49.4,18.2,49z"/>
			<path class="st1" d="M22.6,53.3c0,0.4-0.4,0.3-0.7,0.1c-0.3-0.2-1-0.8-1.3-1c-0.3-0.2-1.1-0.8-0.9-1.2c0.1-0.3,0.1-0.3,0.1-0.3
				s0.9,0.5,1.6,0.9C22,52.2,22.6,52.9,22.6,53.3z"/>
			<path class="st1" d="M17.3,50.8c-0.2-0.3,0.2-0.3,0.4-0.3c0.3,0,0.9,0.3,1.2,0.3c0.3,0,1-0.1,1.1,0.3c0,0.4-0.1,0.6-0.1,0.6
				s-0.6,0.2-1.2-0.1C18,51.3,17.4,51.2,17.3,50.8z"/>
			<path class="st1" d="M21.3,54.8c0,0.3-0.4,0.2-0.7,0.1c-0.3-0.2-0.9-0.7-1.2-0.9c-0.2-0.2-1-0.8-0.9-1.1c0.1-0.3,0.1-0.3,0.1-0.3
				s0.8,0.5,1.4,0.9C20.8,53.8,21.3,54.4,21.3,54.8z"/>
			<path class="st1" d="M16.5,52.4c-0.1-0.3,0.1-0.3,0.4-0.3c0.3,0,0.8,0.2,1.1,0.3c0.2,0,0.9-0.1,1,0.3c0,0.4-0.1,0.5-0.1,0.5
				s-0.5,0.2-1.1-0.1C17.1,52.9,16.7,52.8,16.5,52.4z"/>
			<path class="st1" d="M19.3,56.3c0,0.3-0.3,0.2-0.5,0c-0.2-0.2-0.7-0.7-0.8-0.9c-0.2-0.2-0.7-0.7-0.6-1c0.1-0.2,0.1-0.2,0.1-0.2
				s0.6,0.5,1,0.8C19,55.4,19.3,56,19.3,56.3z"/>
			<path class="st1" d="M15.7,53.8c-0.1-0.3,0.1-0.2,0.3-0.2c0.2,0,0.6,0.3,0.8,0.3c0.2,0.1,0.7,0,0.7,0.3c0,0.3-0.1,0.4-0.1,0.4
				s-0.4,0.1-0.9-0.2C16.1,54.3,15.8,54.1,15.7,53.8z"/>
			<path class="st1" d="M17.9,57.1c0,0.3-0.2,0.2-0.5,0c-0.2-0.1-0.7-0.6-0.9-0.8c-0.2-0.1-0.7-0.6-0.7-0.9c0.1-0.2,0.1-0.2,0.1-0.2
				s0.6,0.4,1,0.7C17.5,56.3,17.9,56.8,17.9,57.1z"/>
			<path class="st1" d="M16.2,57.4c0,0.2-0.1,0.1-0.3,0c-0.1-0.1-0.4-0.4-0.6-0.5c-0.1-0.1-0.5-0.5-0.5-0.6c0-0.2,0-0.2,0-0.2
				s0.4,0.3,0.7,0.5C15.9,56.8,16.2,57.2,16.2,57.4z"/>
			<path class="st1" d="M14.3,55c-0.1-0.3,0.1-0.2,0.3-0.2c0.2,0,0.6,0.2,0.8,0.3c0.2,0,0.6,0,0.7,0.3c0,0.3,0,0.4,0,0.4
				s-0.3,0.1-0.8-0.1C14.8,55.4,14.5,55.3,14.3,55z"/>
			<path class="st1" d="M13.8,55.7c-0.2-0.2,0-0.2,0.1-0.2c0.1,0,0.4,0.2,0.6,0.3c0.1,0,0.4,0,0.5,0.3c0.1,0.3,0.1,0.3,0.1,0.3
				s-0.2,0.1-0.5-0.1C14.3,56.1,14,56,13.8,55.7z"/>
			<path class="st1" d="M25.6,34.9c0.1,0.4-0.4,0.4-0.7,0.3c-0.4-0.1-1.2-0.5-1.6-0.6c-0.3-0.1-1.3-0.5-1.2-0.9
				c0.1-0.4,0.1-0.4,0.1-0.4s1,0.2,1.8,0.5C24.8,34,25.5,34.5,25.6,34.9z"/>
			<path class="st1" d="M18.8,34.9c-0.3-0.2,0.1-0.4,0.5-0.6c0.4-0.2,1.2-0.3,1.6-0.5c0.3-0.1,1.3-0.8,1.4-0.4c0.2,0.4,0,0.6,0,0.6
				s-0.7,0.6-1.6,0.8C19.8,35,19.1,35.2,18.8,34.9z"/>
			<path class="st1" d="M25.3,31.3c0.1,0.3-0.3,0.4-0.7,0.4c-0.4,0-1.3-0.3-1.6-0.4c-0.3-0.1-1.4-0.3-1.3-0.7c0-0.4,0-0.4,0-0.4
				s1,0.1,1.9,0.2C24.3,30.5,25.1,30.9,25.3,31.3z"/>
			<path class="st1" d="M18.5,32.1c-0.3-0.2,0.1-0.4,0.4-0.6c0.3-0.2,1.2-0.5,1.5-0.7c0.3-0.2,1.2-0.9,1.4-0.6
				c0.2,0.3,0.1,0.6,0.1,0.6s-0.6,0.6-1.5,0.9C19.5,32,18.9,32.3,18.5,32.1z"/>
			<path class="st1" d="M24.7,27.4c0.2,0.3-0.3,0.4-0.7,0.4c-0.4,0-1.3-0.2-1.6-0.2c-0.3,0-1.4-0.2-1.4-0.6c0-0.4,0-0.4,0-0.4
				s1,0,1.9,0.1C23.7,26.7,24.5,27.1,24.7,27.4z"/>
			<path class="st1" d="M23.9,24.2c0.2,0.3-0.2,0.5-0.6,0.5c-0.4,0-1.3-0.1-1.7-0.1c-0.3,0-1.4-0.1-1.4-0.5c0-0.4,0-0.4,0-0.4
				s1-0.1,1.9-0.1C22.8,23.6,23.7,23.8,23.9,24.2z"/>
			<path class="st1" d="M22.9,21c0.2,0.3-0.2,0.5-0.6,0.5c-0.4,0.1-1.3,0-1.7,0c-0.3,0-1.4,0-1.5-0.4c-0.1-0.4-0.1-0.4-0.1-0.4
				s1-0.1,1.9-0.3C21.8,20.5,22.7,20.7,22.9,21z"/>
			<path class="st1" d="M21.7,18.1c0.2,0.3-0.1,0.5-0.5,0.6c-0.4,0.1-1.3,0.2-1.6,0.2c-0.3,0.1-1.3,0.2-1.5-0.2
				C18,18.4,18,18.4,18,18.4s1-0.3,1.7-0.5C20.6,17.7,21.4,17.8,21.7,18.1z"/>
			<path class="st1" d="M19.8,15.6c0.2,0.2-0.1,0.4-0.3,0.5c-0.3,0.1-1,0.3-1.3,0.4c-0.3,0.1-1.1,0.3-1.2,0
				c-0.1-0.3-0.1-0.3-0.1-0.3s0.8-0.3,1.4-0.6C18.9,15.4,19.6,15.4,19.8,15.6z"/>
			<path class="st1" d="M18.5,13.7c0.2,0.2-0.1,0.4-0.4,0.5c-0.3,0.1-1,0.3-1.3,0.4c-0.3,0.1-1.1,0.3-1.2,0.1
				c-0.1-0.2-0.1-0.2-0.1-0.2s0.8-0.3,1.4-0.6C17.5,13.5,18.2,13.5,18.5,13.7z"/>
			<path class="st1" d="M17.1,12c0.2,0.1-0.1,0.3-0.3,0.4c-0.3,0.1-0.9,0.3-1.1,0.4c-0.2,0.1-0.9,0.3-1,0.2
				c-0.1-0.2-0.1-0.2-0.1-0.2s0.7-0.3,1.2-0.6C16.3,12,16.9,11.9,17.1,12z"/>
			<path class="st1" d="M15.5,10.5c0.2,0.1,0,0.3-0.3,0.4c-0.2,0.1-0.8,0.4-1,0.5c-0.2,0.1-0.9,0.4-1,0.3c-0.1-0.2-0.1-0.2-0.1-0.2
				s0.6-0.4,1.1-0.7C14.7,10.6,15.2,10.4,15.5,10.5z"/>
			<path class="st1" d="M11.3,13.6c0,0.3,0.2,0.1,0.4-0.1c0.2-0.2,0.7-0.7,0.9-0.9c0.2-0.2,0.9-0.6,0.8-0.8
				c-0.1-0.3-0.2-0.3-0.2-0.3s-0.5,0.2-1,0.8C11.7,12.9,11.3,13.3,11.3,13.6z"/>
			<path class="st1" d="M12.7,15.1c0,0.3,0.2,0.1,0.5-0.1c0.2-0.2,0.7-0.8,0.9-1c0.2-0.2,0.9-0.7,0.8-0.9c-0.1-0.3-0.3-0.3-0.3-0.3
				s-0.5,0.3-1,0.9C13.1,14.2,12.7,14.7,12.7,15.1z"/>
			<path class="st1" d="M13.7,16.9c0,0.4,0.2,0.1,0.5-0.1c0.2-0.2,0.7-0.9,0.9-1.1c0.2-0.2,0.9-0.7,0.8-1c-0.1-0.3-0.3-0.3-0.3-0.3
				s-0.5,0.3-1,1C14.1,15.9,13.8,16.4,13.7,16.9z"/>
			<path class="st1" d="M14.8,18.6c0,0.4,0.2,0.1,0.5-0.1s0.7-0.8,1-1c0.2-0.2,0.9-0.6,0.9-1c-0.1-0.3-0.3-0.3-0.3-0.3
				s-0.6,0.2-1.1,0.9C15.2,17.7,14.8,18.1,14.8,18.6z"/>
			<path class="st1" d="M15.7,21c0,0.4,0.3,0.2,0.5-0.1c0.3-0.2,0.8-0.9,1.1-1.2c0.2-0.2,1-0.7,1-1.1c-0.1-0.4-0.3-0.4-0.3-0.4
				s-0.6,0.3-1.2,1C16.2,20,15.8,20.6,15.7,21z"/>
			<path class="st1" d="M16.7,23.6c0,0.4,0.3,0.2,0.6-0.1c0.3-0.2,0.9-1,1.1-1.2c0.3-0.2,1.1-0.7,1-1.1c-0.1-0.4-0.3-0.4-0.3-0.4
				s-0.7,0.3-1.3,1.1C17.2,22.6,16.8,23.1,16.7,23.6z"/>
			<path class="st1" d="M17.6,26.4c-0.1,0.4,0.3,0.2,0.6,0c0.3-0.2,0.9-0.9,1.2-1.1c0.3-0.2,1.2-0.7,1.1-1.1
				c-0.1-0.4-0.3-0.4-0.3-0.4s-0.7,0.2-1.4,1C18.2,25.4,17.6,25.9,17.6,26.4z"/>
			<path class="st1" d="M18,28.9c-0.1,0.5,0.2,0.3,0.6,0.1c0.4-0.2,1.1-0.8,1.4-1c0.3-0.2,1.3-0.5,1.3-0.9c0-0.5-0.2-0.5-0.2-0.5
				s-0.7,0.1-1.5,0.7C18.8,27.9,18.2,28.3,18,28.9z"/>
			<path class="st1" d="M10.3,12.6c0,0.3,0.2,0,0.4-0.1c0.2-0.2,0.6-0.7,0.8-0.9c0.2-0.2,0.8-0.6,0.7-0.8c-0.1-0.2-0.2-0.2-0.2-0.2
				s-0.5,0.3-1,0.8C10.7,11.9,10.3,12.3,10.3,12.6z"/>
			<path class="st1" d="M10,11.9c0,0.2,0.2,0,0.4-0.2c0.2-0.2,0.5-0.7,0.6-0.8c0.1-0.2,0.6-0.6,0.5-0.8C11.4,10,11.2,10,11.2,10
				s-0.4,0.3-0.7,0.8C10.2,11.3,9.9,11.7,10,11.9z"/>
			<path class="st1" d="M14,9.7c0.2,0.1,0,0.2-0.2,0.4c-0.2,0.1-0.7,0.3-0.8,0.4c-0.2,0.1-0.7,0.4-0.8,0.2c-0.1-0.1-0.1-0.1-0.1-0.1
				s0.5-0.3,0.9-0.6C13.4,9.7,13.8,9.6,14,9.7z"/>
			<path class="st1" d="M12.7,9.2c0.1,0,0,0.2-0.1,0.3c-0.1,0.1-0.5,0.3-0.6,0.4c-0.1,0.1-0.5,0.4-0.6,0.3c-0.1-0.1-0.1-0.1-0.1-0.1
				s0.4-0.3,0.6-0.6C12.2,9.3,12.5,9.1,12.7,9.2z"/>
		</g>
		<g>
			<path class="st1" d="M49.2,37.4c-0.1,0.3,0.3,0.3,0.6,0.3c0.3,0,1-0.3,1.2-0.3c0.3-0.1,1-0.3,1-0.6C52,36.5,52,36.5,52,36.5
				s-0.8,0.1-1.4,0.2C49.9,36.8,49.3,37.1,49.2,37.4z"/>
			<path class="st1" d="M54.6,38.1c0.2-0.2-0.1-0.4-0.4-0.6c-0.3-0.2-1-0.4-1.2-0.6c-0.3-0.1-1-0.8-1.1-0.5c-0.1,0.3,0,0.5,0,0.5
				s0.5,0.5,1.3,0.8C53.8,38.1,54.4,38.3,54.6,38.1z"/>
			<path class="st1" d="M49.4,40c-0.1,0.3,0.3,0.3,0.6,0.3c0.3,0,1-0.3,1.2-0.3c0.3-0.1,1-0.3,0.9-0.6C52,39,52,39,52,39
				s-0.8,0.1-1.4,0.2C50,39.3,49.4,39.6,49.4,40z"/>
			<path class="st1" d="M54.7,40.6c0.2-0.2-0.1-0.4-0.4-0.6c-0.3-0.2-1-0.4-1.3-0.5c-0.3-0.1-1.1-0.7-1.2-0.4c-0.1,0.3,0,0.5,0,0.5
				s0.6,0.5,1.3,0.8C53.9,40.6,54.5,40.8,54.7,40.6z"/>
			<path class="st1" d="M49.6,42.7c0,0.3,0.3,0.3,0.6,0.3c0.3,0,0.9-0.3,1.2-0.3c0.3-0.1,1-0.3,0.9-0.6c-0.1-0.3-0.1-0.3-0.1-0.3
				s-0.8,0.1-1.4,0.2C50.1,42,49.6,42.4,49.6,42.7z"/>
			<path class="st1" d="M54.7,42.8c0.2-0.2-0.1-0.4-0.4-0.5c-0.3-0.1-0.9-0.2-1.2-0.3c-0.3-0.1-1-0.6-1.1-0.2
				c-0.1,0.3,0.1,0.5,0.1,0.5s0.6,0.4,1.3,0.6C53.9,42.9,54.5,43.1,54.7,42.8z"/>
			<path class="st1" d="M50,45.4c0,0.3,0.3,0.3,0.6,0.3c0.3-0.1,0.9-0.4,1.1-0.4c0.2-0.1,0.9-0.4,0.8-0.7c-0.1-0.3-0.1-0.3-0.1-0.3
				s-0.7,0.2-1.3,0.3C50.5,44.6,50.1,45,50,45.4z"/>
			<path class="st1" d="M54.8,45c0.1-0.3-0.2-0.4-0.4-0.5c-0.3-0.1-0.9-0.1-1.1-0.2c-0.2-0.1-1-0.5-1-0.1c0,0.3,0.1,0.5,0.1,0.5
				s0.6,0.4,1.2,0.4C54.2,45.3,54.7,45.3,54.8,45z"/>
			<path class="st1" d="M50.6,47.8c0,0.3,0.3,0.3,0.6,0.3c0.3,0,0.9-0.3,1.1-0.4c0.2-0.1,0.9-0.4,0.8-0.7c-0.1-0.3-0.1-0.3-0.1-0.3
				s-0.7,0.2-1.3,0.3C51.1,47.1,50.6,47.5,50.6,47.8z"/>
			<path class="st1" d="M55.4,47.7c0.1-0.2-0.2-0.4-0.4-0.5c-0.3-0.1-0.9-0.2-1.1-0.2c-0.2-0.1-1-0.5-1-0.2c0,0.3,0.1,0.5,0.1,0.5
				s0.6,0.4,1.2,0.5C54.7,47.9,55.2,48,55.4,47.7z"/>
			<path class="st1" d="M51.9,50.3c0,0.3,0.3,0.3,0.6,0.3c0.3-0.1,0.8-0.4,1-0.5c0.2-0.1,0.9-0.4,0.7-0.8C54.2,49,54.2,49,54.2,49
				s-0.7,0.2-1.2,0.4C52.4,49.5,51.9,49.9,51.9,50.3z"/>
			<path class="st1" d="M56.2,49.5c0.1-0.3-0.1-0.3-0.3-0.4c-0.2-0.1-0.7,0-0.9,0c-0.2,0-0.8-0.3-0.9,0c0,0.3,0.1,0.5,0.1,0.5
				s0.5,0.3,1,0.3C55.6,49.8,56,49.8,56.2,49.5z"/>
			<path class="st1" d="M53,51.9c0,0.3,0.3,0.3,0.5,0.3c0.2-0.1,0.7-0.4,0.9-0.4c0.2-0.1,0.8-0.4,0.7-0.7C55,50.7,55,50.7,55,50.7
				s-0.6,0.2-1.1,0.3C53.4,51.2,53,51.6,53,51.9z"/>
			<path class="st1" d="M54.9,50.8c0,0.3,0.1,0.5,0.1,0.5s0,0,0,0c0.2-0.2,0.3-0.4,0.4-0.6C55.2,50.6,54.9,50.6,54.9,50.8z"/>
			<path class="st1" d="M49.6,34.6c-0.1,0.3,0.3,0.3,0.6,0.3c0.3,0,1-0.3,1.2-0.4c0.3-0.1,1-0.4,1-0.7c-0.1-0.3-0.1-0.3-0.1-0.3
				s-0.8,0.2-1.4,0.3C50.2,33.9,49.6,34.3,49.6,34.6z"/>
			<path class="st1" d="M55,35c0.2-0.2-0.1-0.4-0.4-0.5c-0.3-0.2-1-0.4-1.3-0.5c-0.3-0.1-1-0.7-1.1-0.4c-0.1,0.3,0,0.5,0,0.5
				s0.5,0.5,1.3,0.7C54.1,35,54.7,35.3,55,35z"/>
			<path class="st1" d="M49.8,31.7C49.7,32,50.1,32,50.4,32c0.3,0,1-0.2,1.3-0.3c0.3,0,1.1-0.3,1.1-0.6c0-0.3,0-0.3,0-0.3
				s-0.8,0.1-1.5,0.2C50.5,31.1,49.9,31.4,49.8,31.7z"/>
			<path class="st1" d="M55.2,32.5c0.2-0.2-0.1-0.4-0.3-0.6c-0.3-0.2-0.9-0.5-1.2-0.6c-0.3-0.1-0.9-0.8-1.1-0.5
				c-0.2,0.3-0.1,0.5-0.1,0.5s0.5,0.6,1.2,0.8C54.4,32.5,54.9,32.7,55.2,32.5z"/>
			<path class="st1" d="M50.2,28.6c-0.1,0.3,0.2,0.4,0.5,0.3c0.3,0,1-0.2,1.3-0.3c0.3,0,1.1-0.2,1.1-0.6c0-0.3,0-0.3,0-0.3
				s-0.8,0.1-1.5,0.1C51,28,50.4,28.3,50.2,28.6z"/>
			<path class="st1" d="M50.9,25.9c-0.2,0.3,0.2,0.4,0.5,0.4c0.3,0,1.1-0.1,1.3-0.2c0.3,0,1.1-0.2,1.2-0.5c0-0.3,0-0.3,0-0.3
				s-0.8,0-1.5,0C51.7,25.3,51.1,25.6,50.9,25.9z"/>
			<path class="st1" d="M51.7,23.2c-0.2,0.3,0.1,0.4,0.5,0.4c0.3,0,1.1-0.1,1.3-0.1c0.3,0,1.1-0.1,1.2-0.5c0.1-0.3,0.1-0.3,0.1-0.3
				s-0.8,0-1.5,0C52.5,22.6,51.9,22.8,51.7,23.2z"/>
			<path class="st1" d="M52.7,20.5c-0.2,0.3,0.1,0.4,0.4,0.4c0.3,0,1,0,1.3,0c0.3,0,1.1,0,1.2-0.4c0.1-0.3,0.1-0.3,0.1-0.3
				s-0.8-0.1-1.4-0.2C53.5,20,52.9,20.2,52.7,20.5z"/>
			<path class="st1" d="M54.1,18.1c-0.2,0.2,0,0.4,0.3,0.4c0.2,0.1,0.8,0.1,1,0.1c0.2,0,0.9,0.1,1-0.2c0.1-0.3,0.1-0.3,0.1-0.3
				s-0.6-0.2-1.1-0.3C54.9,17.7,54.3,17.8,54.1,18.1z"/>
			<path class="st1" d="M55.2,16.1c-0.2,0.2,0.1,0.3,0.3,0.4c0.2,0,0.8,0.1,1,0.1c0.2,0,0.9,0.1,1-0.2c0.1-0.2,0.1-0.2,0.1-0.2
				S57,16,56.5,15.9C56,15.8,55.4,15.9,55.2,16.1z"/>
			<path class="st1" d="M57.5,16.1c0,0-0.1,0.1-0.2,0.3c-0.1,0.3,0.5,0.7,0.6,0.8c0.2,0.2,0.5,0.7,0.7,0.9c0,0,0.1,0.1,0.1,0.1
				C58.4,17.6,57.9,16.8,57.5,16.1z"/>
			<path class="st1" d="M58.2,20c0,0.3-0.2,0.2-0.4,0c-0.2-0.2-0.6-0.7-0.8-0.8c-0.2-0.2-0.7-0.4-0.7-0.7c0.1-0.3,0.2-0.4,0.2-0.4
				s0.4,0.1,0.9,0.6C57.8,19.2,58.1,19.6,58.2,20z"/>
			<path class="st1" d="M57.4,22.4c0,0.4-0.2,0.2-0.4,0c-0.2-0.2-0.7-0.7-0.9-0.9c-0.2-0.2-0.8-0.5-0.8-0.8c0.1-0.3,0.2-0.4,0.2-0.4
				s0.5,0.2,1,0.7C57,21.5,57.4,21.9,57.4,22.4z"/>
			<path class="st1" d="M56.6,24.9c0,0.4-0.2,0.2-0.4,0c-0.2-0.2-0.7-0.8-0.9-1c-0.2-0.2-0.9-0.5-0.8-0.9c0.1-0.4,0.2-0.4,0.2-0.4
				s0.5,0.2,1,0.8C56.2,24,56.6,24.4,56.6,24.9z"/>
			<path class="st1" d="M55.9,27.5c0.1,0.4-0.2,0.2-0.5,0c-0.2-0.2-0.8-0.8-1-0.9c-0.2-0.2-0.9-0.5-0.9-0.9c0.1-0.4,0.2-0.4,0.2-0.4
				s0.5,0.2,1.1,0.7C55.5,26.6,55.9,27,55.9,27.5z"/>
			<path class="st1" d="M55.6,29.7c0.1,0.4-0.2,0.2-0.5,0.1c-0.3-0.1-0.9-0.7-1.1-0.8c-0.2-0.2-1-0.4-1-0.8c0-0.4,0.2-0.5,0.2-0.5
				s0.6,0.1,1.2,0.6C55,28.8,55.5,29.2,55.6,29.7z"/>
		</g>
	</g>
</g>
</svg>
