<?xml version="1.0" encoding="utf-8"?>
<!-- Generator: Adobe Illustrator 19.2.1, SVG Export Plug-In . SVG Version: 6.00 Build 0)  -->
<svg version="1.1" id="Layer_1" xmlns="http://www.w3.org/2000/svg" xmlns:xlink="http://www.w3.org/1999/xlink" x="0px" y="0px"
	 viewBox="0 0 64 64" style="enable-background:new 0 0 64 64;" xml:space="preserve">
<metadata><?xpacket begin="﻿" id="W5M0MpCehiHzreSzNTczkc9d"?>
<x:xmpmeta xmlns:x="adobe:ns:meta/" x:xmptk="Adobe XMP Core 5.6-c111 79.158366, 2015/09/25-01:12:00        ">
   <rdf:RDF xmlns:rdf="http://www.w3.org/1999/02/22-rdf-syntax-ns#">
      <rdf:Description rdf:about=""/>
   </rdf:RDF>
</x:xmpmeta>
                                                                                                    
                                                                                                    
                                                                                                    
                                                                                                    
                                                                                                    
                                                                                                    
                                                                                                    
                                                                                                    
                                                                                                    
                                                                                                    
                                                                                                    
                                                                                                    
                                                                                                    
                                                                                                    
                                                                                                    
                                                                                                    
                                                                                                    
                                                                                                    
                                                                                                    
                                                                                                    
                           
<?xpacket end="w"?></metadata>
<style type="text/css">
	.st0{fill:none;}
	.st1{fill:#5B554D;}
</style>
<rect class="st0" width="64" height="64"/>
<g>
	<g>
		<g>
			<path class="st1" d="M50.2,51.3H7.8c-3.8,0-6.8-3-6.8-6.8v-25c0-3.7,3.1-6.8,6.8-6.8h42.4c3.8,0,6.8,3,6.8,6.8c0,0.1,0,0.2,0,0.2
				c0,0.1,0,0.1,0,0.2l0,24.6C57,48.3,54,51.3,50.2,51.3z M7.8,14.6c-2.7,0-4.9,2.2-4.9,4.9v25c0,2.7,2.2,4.9,4.9,4.9h42.4
				c2.7,0,4.9-2.2,4.9-4.9l0-24.6c0-0.1,0-0.2,0-0.2c0-0.1,0-0.1,0-0.2c0-2.7-2.2-4.9-4.9-4.9H7.8z"/>
		</g>
	</g>
	<g>
		<g>
			<path class="st1" d="M13.4,41.7c-0.5,0-0.9-0.4-0.9-0.9V23.3c0-0.5,0.4-0.9,0.9-0.9c0.5,0,0.9,0.4,0.9,0.9v17.5
				C14.3,41.3,13.9,41.7,13.4,41.7z"/>
		</g>
		<g>
			<g>
				<path class="st1" d="M19.7,41.7c-0.5,0-0.9-0.4-0.9-0.9V23.3c0-0.5,0.4-0.9,0.9-0.9s0.9,0.4,0.9,0.9v17.5
					C20.6,41.3,20.2,41.7,19.7,41.7z"/>
			</g>
		</g>
		<g>
			<g>
				<path class="st1" d="M26,41.7c-0.5,0-0.9-0.4-0.9-0.9V23.3c0-0.5,0.4-0.9,0.9-0.9c0.5,0,0.9,0.4,0.9,0.9v17.5
					C26.9,41.3,26.5,41.7,26,41.7z"/>
			</g>
		</g>
	</g>
	<g>
		<path class="st1" d="M59.1,42.9h-1.4c-0.5,0-0.9-0.4-0.9-0.9s0.4-0.9,0.9-0.9h1.4c1.1,0,2-0.9,2-2V25c0-1.1-0.9-2-2-2h-1.4
			c-0.5,0-0.9-0.4-0.9-0.9c0-0.5,0.4-0.9,0.9-0.9h1.4c2.1,0,3.9,1.7,3.9,3.9V39C63,41.2,61.3,42.9,59.1,42.9z"/>
	</g>
	<g>
		<path class="st1" d="M48.4,46.8H9.8c-2.1,0-3.9-1.7-3.9-3.9V21.1c0-2.2,1.7-3.9,3.9-3.9h38.6c2.1,0,3.9,1.7,3.9,3.9v21.9
			C52.3,45.1,50.5,46.8,48.4,46.8z M9.8,19.1c-1.1,0-2,0.9-2,2v21.9c0,1.1,0.9,2,2,2h38.6c1.1,0,2-0.9,2-2V21.1c0-1.1-0.9-2-2-2H9.8
			z"/>
	</g>
</g>
</svg>
