<?xml version="1.0" encoding="utf-8"?>
<!-- Generator: Adobe Illustrator 19.2.1, SVG Export Plug-In . SVG Version: 6.00 Build 0)  -->
<svg version="1.1" id="Layer_1" xmlns="http://www.w3.org/2000/svg" xmlns:xlink="http://www.w3.org/1999/xlink" x="0px" y="0px"
	 viewBox="0 0 64 64" style="enable-background:new 0 0 64 64;" xml:space="preserve">
<metadata><?xpacket begin="﻿" id="W5M0MpCehiHzreSzNTczkc9d"?>
<x:xmpmeta xmlns:x="adobe:ns:meta/" x:xmptk="Adobe XMP Core 5.6-c111 79.158366, 2015/09/25-01:12:00        ">
   <rdf:RDF xmlns:rdf="http://www.w3.org/1999/02/22-rdf-syntax-ns#">
      <rdf:Description rdf:about=""/>
   </rdf:RDF>
</x:xmpmeta>
                                                                                                    
                                                                                                    
                                                                                                    
                                                                                                    
                                                                                                    
                                                                                                    
                                                                                                    
                                                                                                    
                                                                                                    
                                                                                                    
                                                                                                    
                                                                                                    
                                                                                                    
                                                                                                    
                                                                                                    
                                                                                                    
                                                                                                    
                                                                                                    
                                                                                                    
                                                                                                    
                           
<?xpacket end="w"?></metadata>
<style type="text/css">
	.st0{fill:none;}
	.st1{fill:#5B554D;}
</style>
<rect class="st0" width="64" height="64"/>
<g>
	<g>
		<path class="st1" d="M52.7,48.6c-5.4,0-9.8-4.4-9.8-9.8s4.4-9.8,9.8-9.8s9.8,4.4,9.8,9.8S58.1,48.6,52.7,48.6z M52.7,30.3
			c-4.7,0-8.5,3.8-8.5,8.5s3.8,8.5,8.5,8.5s8.5-3.8,8.5-8.5S57.3,30.3,52.7,30.3z"/>
	</g>
	<g>
		<path class="st1" d="M62.3,35.9c-0.3,0-0.6-0.2-0.6-0.5c-1-3.7-4.7-6.3-9.1-6.3c-4.3,0-8,2.6-9.1,6.3c-0.1,0.3-0.4,0.5-0.8,0.5
			c-0.3-0.1-0.6-0.5-0.5-0.8c1.2-4.3,5.4-7.3,10.3-7.3s9.1,3,10.3,7.3C62.9,35.4,62.7,35.8,62.3,35.9C62.5,35.9,62.4,35.9,62.3,35.9
			z"/>
	</g>
	<g>
		<path class="st1" d="M28.8,36.7c-0.2,0-0.5-0.1-0.6-0.3l-9.3-16.8c-0.2-0.3-0.1-0.7,0.3-0.9c0.3-0.2,0.7-0.1,0.9,0.3l9.3,16.8
			c0.2,0.3,0.1,0.7-0.3,0.9C29,36.7,28.9,36.7,28.8,36.7z"/>
	</g>
	<g>
		<path class="st1" d="M53.4,39.4c-0.2,0-0.4-0.1-0.5-0.3l-10.3-15c-2.2-4.1-0.8-7.8-0.8-7.8c0.2-0.3,0.5-0.5,0.9-0.3
			c0.3,0.2,0.5,0.5,0.3,0.9l0,0c0,0-1.1,3.1,0.8,6.5l10.3,15c0.2,0.3,0.1,0.7-0.2,0.9C53.7,39.4,53.5,39.4,53.4,39.4z"/>
	</g>
	<g>
		<path class="st1" d="M23.5,19.5H15c-0.4,0-0.7-0.3-0.7-0.7s0.3-0.7,0.7-0.7h8.5c0.4,0,0.7,0.3,0.7,0.7S23.8,19.5,23.5,19.5z"/>
	</g>
	<g>
		<path class="st1" d="M31.3,43.6c-2.4,0-4.4-2-4.4-4.4s2-4.4,4.4-4.4s4.4,2,4.4,4.4S33.7,43.6,31.3,43.6z M31.3,36
			c-1.7,0-3.1,1.4-3.1,3.1c0,1.7,1.4,3.1,3.1,3.1s3.1-1.4,3.1-3.1C34.4,37.4,33,36,31.3,36z"/>
	</g>
	<g>
		<path class="st1" d="M11.3,48.6c-5.4,0-9.8-4.4-9.8-9.8S5.9,29,11.3,29s9.8,4.4,9.8,9.8S16.8,48.6,11.3,48.6z M11.3,30.3
			c-4.7,0-8.5,3.8-8.5,8.5s3.8,8.5,8.5,8.5s8.5-3.8,8.5-8.5S16,30.3,11.3,30.3z"/>
	</g>
	<g>
		<path class="st1" d="M11.3,42.1c-1.8,0-3.3-1.5-3.3-3.3s1.5-3.3,3.3-3.3s3.3,1.5,3.3,3.3C14.7,40.6,13.2,42.1,11.3,42.1z
			 M11.3,36.8c-1.1,0-2,0.9-2,2s0.9,2,2,2s2-0.9,2-2C13.4,37.7,12.5,36.8,11.3,36.8z"/>
	</g>
	<g>
		<path class="st1" d="M53.4,42.1c-1.8,0-3.3-1.5-3.3-3.3s1.5-3.3,3.3-3.3s3.3,1.5,3.3,3.3C56.8,40.6,55.3,42.1,53.4,42.1z
			 M53.4,36.8c-1.1,0-2,0.9-2,2s0.9,2,2,2s2-0.9,2-2S54.5,36.8,53.4,36.8z"/>
	</g>
	<g>
		<path class="st1" d="M21,35.9c-0.3,0-0.6-0.2-0.6-0.5c-1-3.7-4.7-6.3-9.1-6.3c-4.3,0-8,2.6-9.1,6.3c-0.1,0.3-0.4,0.5-0.8,0.5
			c-0.3-0.1-0.6-0.5-0.5-0.8c1.2-4.3,5.4-7.3,10.3-7.3s9.1,3,10.3,7.3C21.6,35.4,21.4,35.8,21,35.9C21.2,35.9,21.1,35.9,21,35.9z"/>
	</g>
	<g>
		<path class="st1" d="M46.1,28.1c-0.3,0-0.5-0.1-0.6-0.4s0-0.7,0.3-0.9c0,0,1-0.4,1.9-0.8c0.6-0.2,1-0.4,1.3-0.6
			c0.3-0.1,0.6-0.3,0.7-0.4v-0.2c0-0.4,0-2.3,0-3.5v-0.1h-0.1h-6.7c-0.4,0-0.7-0.3-0.7-0.7c0-0.4,0.3-0.7,0.7-0.7h6.7
			c0.4,0,0.8,0.2,1,0.4s0.4,0.7,0.4,1c0,1.5-0.1,3,0,3.3c0,0.1,0,0.2,0,0.4c-0.1,0.9-0.6,1.1-1.4,1.5c-0.3,0.2-0.8,0.4-1.3,0.6
			c-1,0.4-1.9,0.8-1.9,0.8C46.3,28.1,46.2,28.1,46.1,28.1z"/>
	</g>
	<g>
		<path class="st1" d="M27,39.8H11.3c-0.2,0-0.5-0.1-0.6-0.4c-0.1-0.2-0.1-0.5,0.1-0.7l11-14.8c0.1-0.1,0.2-0.2,0.4-0.2
			c0.4-0.1,11-2.6,20.5-0.3c0.4,0.1,0.6,0.4,0.5,0.8s-0.4,0.6-0.8,0.5c-8.5-2.1-18.1-0.1-19.7,0.3L12.6,38.5H27
			c0.4,0,0.7,0.3,0.7,0.7S27.4,39.8,27,39.8z"/>
	</g>
	<g>
		<path class="st1" d="M34.5,37.1c-0.2,0-0.4-0.1-0.5-0.2c-0.2-0.3-0.2-0.7,0.1-0.9l10.6-9.1c0.3-0.2,0.7-0.2,0.9,0.1
			c0.2,0.3,0.2,0.7-0.1,0.9L34.9,37C34.8,37,34.6,37.1,34.5,37.1z"/>
	</g>
	<g>
		<path class="st1" d="M34.6,47.2c-0.3,0-0.5-0.1-0.6-0.4L30.7,39c-0.1-0.3,0-0.7,0.3-0.9c0.3-0.1,0.7,0,0.9,0.3l3.3,7.8
			c0.1,0.3,0,0.7-0.3,0.9C34.8,47.2,34.7,47.2,34.6,47.2z"/>
	</g>
	<g>
		<path class="st1" d="M36.8,47.8h-4.4c-0.4,0-0.7-0.3-0.7-0.7s0.3-0.7,0.7-0.7h4.4c0.4,0,0.7,0.3,0.7,0.7
			C37.4,47.5,37.1,47.8,36.8,47.8z"/>
	</g>
	<g>
		<path class="st1" d="M45.9,18.1c-0.3,0-0.6-0.2-0.6-0.6c-0.1-0.8-1.1-0.9-1.2-0.9h-3.8c-0.4,0-0.7-0.3-0.7-0.7s0.3-0.7,0.7-0.7
			h3.8c0.8,0,2.2,0.4,2.5,2C46.6,17.7,46.4,18.1,45.9,18.1C46,18.1,46,18.1,45.9,18.1z"/>
	</g>
</g>
</svg>
