<?xml version="1.0" encoding="utf-8"?>
<!-- Generator: Adobe Illustrator 19.2.1, SVG Export Plug-In . SVG Version: 6.00 Build 0)  -->
<svg version="1.1" id="Layer_1" xmlns="http://www.w3.org/2000/svg" xmlns:xlink="http://www.w3.org/1999/xlink" x="0px" y="0px"
	 viewBox="0 0 64 64" style="enable-background:new 0 0 64 64;" xml:space="preserve">
<metadata><?xpacket begin="﻿" id="W5M0MpCehiHzreSzNTczkc9d"?>
<x:xmpmeta xmlns:x="adobe:ns:meta/" x:xmptk="Adobe XMP Core 5.6-c111 79.158366, 2015/09/25-01:12:00        ">
   <rdf:RDF xmlns:rdf="http://www.w3.org/1999/02/22-rdf-syntax-ns#">
      <rdf:Description rdf:about=""/>
   </rdf:RDF>
</x:xmpmeta>
                                                                                                    
                                                                                                    
                                                                                                    
                                                                                                    
                                                                                                    
                                                                                                    
                                                                                                    
                                                                                                    
                                                                                                    
                                                                                                    
                                                                                                    
                                                                                                    
                                                                                                    
                                                                                                    
                                                                                                    
                                                                                                    
                                                                                                    
                                                                                                    
                                                                                                    
                                                                                                    
                           
<?xpacket end="w"?></metadata>
<style type="text/css">
	.st0{fill:none;}
	.st1{fill:#5B554D;}
</style>
<rect class="st0" width="64" height="64"/>
<g>
	<g>
		<g>
			<path class="st1" d="M32,63C14.9,63,1,49.1,1,32C1,14.9,14.9,1,32,1c17.1,0,31,13.9,31,31C63,49.1,49.1,63,32,63z M32,2.9
				C16,2.9,2.9,15.9,2.9,32C2.9,48.1,16,61.1,32,61.1c16,0,29.1-13.1,29.1-29.1C61.1,15.9,48,2.9,32,2.9z"/>
		</g>
		<g>
			<path class="st1" d="M11.5,54.9c-0.4,0-0.8-0.3-0.9-0.8c-0.1-0.5,0.2-1,0.8-1.1l47.4-8.5c0.5-0.1,1,0.2,1.1,0.8
				c0.1,0.5-0.2,1-0.8,1.1l-47.4,8.5C11.6,54.9,11.5,54.9,11.5,54.9z"/>
		</g>
		<g>
			<path class="st1" d="M4.5,20.8c-0.4,0-0.8-0.3-0.9-0.8c-0.1-0.5,0.2-1,0.8-1.1l49-8.8c0.5-0.1,1,0.2,1.1,0.8
				c0.1,0.5-0.2,1-0.8,1.1l-49,8.8C4.6,20.8,4.6,20.8,4.5,20.8z"/>
		</g>
		<g>
			<path class="st1" d="M33.6,45.1c-2.4,0-4.7-0.7-6.8-2c-3-1.8-5-4.7-5.8-8.1c-1.6-7,2.7-14,9.7-15.7c3.4-0.8,6.9-0.2,9.8,1.6
				c3,1.8,5,4.7,5.8,8.1l0,0c0.8,3.4,0.2,6.9-1.6,9.8c-1.8,3-4.7,5-8.1,5.8C35.7,45,34.6,45.1,33.6,45.1z M33.7,21
				c-0.9,0-1.7,0.1-2.6,0.3c-6,1.4-9.7,7.4-8.3,13.4c0.7,2.9,2.5,5.4,5,6.9s5.5,2.1,8.4,1.4c2.9-0.7,5.4-2.5,6.9-5s2.1-5.5,1.4-8.4
				l0,0c-0.7-2.9-2.5-5.4-5-6.9C37.8,21.5,35.7,21,33.7,21z"/>
		</g>
		<g>
			<path class="st1" d="M32.1,37.4c0,0.2,0,0.3-0.2,0.3L30.6,38c-0.2,0-0.3,0-0.3-0.2l-1.5-8l-1.5,0.9c-0.1,0-0.1,0-0.2,0.1
				c-0.1,0-0.2,0-0.2-0.1l-0.3-1.3c0-0.1,0-0.1,0.1-0.2l2.1-1.2c0.1-0.1,0.2-0.1,0.3-0.1l0.9-0.2c0.2,0,0.3,0,0.3,0.2L32.1,37.4z"/>
			<path class="st1" d="M40.1,31.4c0.6,3.1-0.3,4.9-2.7,5.4c-2.4,0.5-3.9-0.9-4.5-4l-0.2-1c-0.6-3.1,0.3-4.9,2.7-5.4
				c2.4-0.5,3.9,0.9,4.5,4L40.1,31.4z M38,30.8c-0.4-2.1-1.2-3.1-2.3-2.8c-1.1,0.2-1.5,1.4-1.1,3.5l0.2,1c0.4,2.1,1.2,3,2.3,2.8
				c0.8-0.2,1.2-0.8,1.2-1.9c0-0.4,0-0.9-0.2-1.6L38,30.8z"/>
		</g>
	</g>
</g>
</svg>
