<?xml version="1.0" encoding="utf-8"?>
<!-- Generator: Adobe Illustrator 19.2.1, SVG Export Plug-In . SVG Version: 6.00 Build 0)  -->
<svg version="1.1" id="Layer_1" xmlns="http://www.w3.org/2000/svg" xmlns:xlink="http://www.w3.org/1999/xlink" x="0px" y="0px"
	 viewBox="0 0 64 64" style="enable-background:new 0 0 64 64;" xml:space="preserve">
<metadata><?xpacket begin="﻿" id="W5M0MpCehiHzreSzNTczkc9d"?>
<x:xmpmeta xmlns:x="adobe:ns:meta/" x:xmptk="Adobe XMP Core 5.6-c111 79.158366, 2015/09/25-01:12:00        ">
   <rdf:RDF xmlns:rdf="http://www.w3.org/1999/02/22-rdf-syntax-ns#">
      <rdf:Description rdf:about=""/>
   </rdf:RDF>
</x:xmpmeta>
                                                                                                    
                                                                                                    
                                                                                                    
                                                                                                    
                                                                                                    
                                                                                                    
                                                                                                    
                                                                                                    
                                                                                                    
                                                                                                    
                                                                                                    
                                                                                                    
                                                                                                    
                                                                                                    
                                                                                                    
                                                                                                    
                                                                                                    
                                                                                                    
                                                                                                    
                                                                                                    
                           
<?xpacket end="w"?></metadata>
<style type="text/css">
	.st0{fill:none;}
	.st1{fill:#5B554D;}
</style>
<rect class="st0" width="64" height="64"/>
<g>
	<g>
		<path class="st1" d="M32.4,56.5c-0.2,0-0.5-0.1-0.7-0.3c-0.4-0.4-0.4-1,0-1.3l11-10.9L19.2,20.3c-0.4-0.4-0.4-0.9,0-1.3
			c0.4-0.4,0.9-0.4,1.3,0l24.3,24.3c0.2,0.2,0.3,0.4,0.3,0.7c0,0.2-0.1,0.5-0.3,0.7L33.1,56.2C32.9,56.4,32.7,56.5,32.4,56.5z"/>
	</g>
	<g>
		<path class="st1" d="M19.8,45c-0.2,0-0.5-0.1-0.7-0.3c-0.4-0.4-0.4-0.9,0-1.3l23.6-23.6L31.9,8.9c-0.4-0.4-0.4-0.9,0-1.3
			c0.4-0.4,0.9-0.4,1.3,0l11.6,11.6c0.4,0.4,0.4,0.9,0,1.3L20.5,44.7C20.3,44.9,20.1,45,19.8,45z"/>
	</g>
	<g>
		<path class="st1" d="M32.1,63c-0.5,0-0.9-0.4-0.9-0.9V1.9c0-0.5,0.4-0.9,0.9-0.9C32.6,1,33,1.4,33,1.9v60.1
			C33,62.6,32.6,63,32.1,63z"/>
	</g>
</g>
</svg>
