<?xml version="1.0" encoding="utf-8"?>
<!-- Generator: Adobe Illustrator 19.2.1, SVG Export Plug-In . SVG Version: 6.00 Build 0)  -->
<svg version="1.1" id="Layer_1" xmlns="http://www.w3.org/2000/svg" xmlns:xlink="http://www.w3.org/1999/xlink" x="0px" y="0px"
	 viewBox="0 0 64 64" style="enable-background:new 0 0 64 64;" xml:space="preserve">
<metadata><?xpacket begin="﻿" id="W5M0MpCehiHzreSzNTczkc9d"?>
<x:xmpmeta xmlns:x="adobe:ns:meta/" x:xmptk="Adobe XMP Core 5.6-c111 79.158366, 2015/09/25-01:12:00        ">
   <rdf:RDF xmlns:rdf="http://www.w3.org/1999/02/22-rdf-syntax-ns#">
      <rdf:Description rdf:about=""/>
   </rdf:RDF>
</x:xmpmeta>
                                                                                                    
                                                                                                    
                                                                                                    
                                                                                                    
                                                                                                    
                                                                                                    
                                                                                                    
                                                                                                    
                                                                                                    
                                                                                                    
                                                                                                    
                                                                                                    
                                                                                                    
                                                                                                    
                                                                                                    
                                                                                                    
                                                                                                    
                                                                                                    
                                                                                                    
                                                                                                    
                           
<?xpacket end="w"?></metadata>
<style type="text/css">
	.st0{fill:none;}
	.st1{fill:#5B554D;}
</style>
<rect class="st0" width="64" height="64"/>
<g>
	<g>
		<path class="st1" d="M56.9,63.7H7.2c-1,0-1.9-0.8-1.9-1.9V31.6c0-1,0.8-1.9,1.9-1.9h49.7c1,0,1.9,0.8,1.9,1.9v30.2
			C58.7,62.9,57.9,63.7,56.9,63.7z M7.3,61.7h49.4V31.8H7.3V61.7z M56.9,31.8L56.9,31.8L56.9,31.8z"/>
	</g>
	<g>
		<g>
			<path class="st1" d="M61.1,31.8H2.9c-1,0-1.9-0.8-1.9-1.9V18.5c0-1,0.8-1.9,1.9-1.9h58.3c1,0,1.9,0.8,1.9,1.9V30
				C63,31,62.2,31.8,61.1,31.8z M3,29.8h58V18.6H3V29.8z M61.1,18.6L61.1,18.6L61.1,18.6z"/>
		</g>
	</g>
	<g>
		<g>
			<path class="st1" d="M31.8,18.2c-0.1,0-0.1,0-0.2,0C26,17,17.8,11.3,16.3,6.2l0,0c-0.7-2.1,0-3.9,1.8-5.2
				c0.7-0.5,1.5-0.8,2.3-0.8c5.2,0,10.1,11,11.8,15.4c1.1-4.1,3.6-11.1,7-11.1c0.6,0,1.1,0.2,1.7,0.5c1.1,0.7,1.6,1.5,1.6,2.5
				c0.1,2.4-2.7,5.6-9,10.4c-0.3,0.2-0.7,0.3-1.1,0.1C32.2,18.1,32,18.2,31.8,18.2z M18.2,5.6c1.2,3.7,7.1,8.3,11.9,10.1
				c-2.9-6.9-6.9-13.4-9.7-13.4c-0.4,0-0.7,0.1-1.1,0.4C18.1,3.5,17.8,4.3,18.2,5.6L18.2,5.6z M39.2,6.6c-1.1,0-2.9,2.9-4.5,7.9
				c5.1-4.1,5.9-6,5.8-6.8c0-0.1,0-0.4-0.7-0.9C39.5,6.6,39.3,6.6,39.2,6.6z"/>
		</g>
	</g>
	<g>
		<g>
			<path class="st1" d="M36.3,63.3h-9.6c-0.6,0-1-0.4-1-1V17.8c0-0.6,0.4-1,1-1h9.6c0.6,0,1,0.4,1,1v44.5
				C37.3,62.8,36.8,63.3,36.3,63.3z M27.6,61.3h7.6V18.8h-7.6V61.3z"/>
		</g>
	</g>
</g>
</svg>
