<?xml version="1.0" encoding="utf-8"?>
<!-- Generator: Adobe Illustrator 19.2.1, SVG Export Plug-In . SVG Version: 6.00 Build 0)  -->
<svg version="1.1" id="Layer_1" xmlns="http://www.w3.org/2000/svg" xmlns:xlink="http://www.w3.org/1999/xlink" x="0px" y="0px"
	 viewBox="0 0 64 64" style="enable-background:new 0 0 64 64;" xml:space="preserve">
<metadata><?xpacket begin="﻿" id="W5M0MpCehiHzreSzNTczkc9d"?>
<x:xmpmeta xmlns:x="adobe:ns:meta/" x:xmptk="Adobe XMP Core 5.6-c111 79.158366, 2015/09/25-01:12:00        ">
   <rdf:RDF xmlns:rdf="http://www.w3.org/1999/02/22-rdf-syntax-ns#">
      <rdf:Description rdf:about=""/>
   </rdf:RDF>
</x:xmpmeta>
                                                                                                    
                                                                                                    
                                                                                                    
                                                                                                    
                                                                                                    
                                                                                                    
                                                                                                    
                                                                                                    
                                                                                                    
                                                                                                    
                                                                                                    
                                                                                                    
                                                                                                    
                                                                                                    
                                                                                                    
                                                                                                    
                                                                                                    
                                                                                                    
                                                                                                    
                                                                                                    
                           
<?xpacket end="w"?></metadata>
<style type="text/css">
	.st0{fill:none;}
	.st1{fill:#5B554D;}
</style>
<rect class="st0" width="64" height="64"/>
<g>
	<g>
		<g>
			<path class="st1" d="M60.6,58.7H3.4c-1.3,0-2.4-1.1-2.4-2.4V20.2c0-1.1,0-1.1,10.4-1.1c11.2,0,30,0,41.2,0
				c10.4,0,10.4,0,10.4,1.1v36.1C63,57.6,61.9,58.7,60.6,58.7z M3,21.2v35.2c0,0.2,0.2,0.4,0.4,0.4h57.3c0.2,0,0.4-0.2,0.4-0.4V21.2
				C54.1,21.1,9.9,21.1,3,21.2z"/>
		</g>
	</g>
	<g>
		<g>
			<path class="st1" d="M32,21.3c-30.2,0-30.2,0-30.6-0.3s-0.5-0.7-0.3-1.2l5.1-13c0.4-0.9,1.2-1.5,2.2-1.5h47.3
				c1,0,1.8,0.6,2.2,1.5l0,0L63,19.9c0.2,0.4,0,0.9-0.3,1.2C62.2,21.3,62.2,21.3,32,21.3z M2,20.2L2,20.2L2,20.2z M3.4,19.3
				c8,0.1,49.1,0.1,57.1,0L56,7.5c-0.1-0.1-0.2-0.2-0.3-0.2H8.4C8.2,7.3,8.1,7.4,8,7.5L3.4,19.3z"/>
		</g>
	</g>
	<g>
		<g>
			<path class="st1" d="M24.5,36.2c-0.2,0-0.4-0.1-0.5-0.2c-0.3-0.2-0.5-0.5-0.5-0.8v-15c0-0.3,0.1-0.5,0.3-0.7
				c0.2-0.2,0.4-0.3,0.7-0.3h16.1c0.6,0,1,0.4,1,1v15c0,0.3-0.2,0.7-0.5,0.8c-0.3,0.2-0.7,0.2-1,0.1l-7.6-3.7l-7.6,3.7
				C24.8,36.2,24.7,36.2,24.5,36.2z M32.5,30.3c0.1,0,0.3,0,0.4,0.1l6.6,3.2V21.2h-14v12.4l6.6-3.2C32.2,30.4,32.4,30.3,32.5,30.3z"
				/>
		</g>
	</g>
	<g>
		<g>
			<path class="st1" d="M40.6,21.2H24.5c-0.3,0-0.6-0.1-0.8-0.4c-0.2-0.2-0.3-0.6-0.2-0.9L26.9,6c0.1-0.4,0.5-0.8,1-0.8h9.4
				c0.5,0,0.9,0.3,1,0.8l3.2,14c0.1,0.3,0,0.6-0.2,0.9C41.2,21.1,40.9,21.2,40.6,21.2z M25.8,19.2h13.5L36.4,7.3h-7.8L25.8,19.2z"/>
		</g>
	</g>
</g>
</svg>
