<?xml version="1.0" encoding="utf-8"?>
<!-- Generator: Adobe Illustrator 19.2.1, SVG Export Plug-In . SVG Version: 6.00 Build 0)  -->
<svg version="1.1" id="Layer_1" xmlns="http://www.w3.org/2000/svg" xmlns:xlink="http://www.w3.org/1999/xlink" x="0px" y="0px"
	 viewBox="0 0 64 64" style="enable-background:new 0 0 64 64;" xml:space="preserve">
<metadata><?xpacket begin="﻿" id="W5M0MpCehiHzreSzNTczkc9d"?>
<x:xmpmeta xmlns:x="adobe:ns:meta/" x:xmptk="Adobe XMP Core 5.6-c111 79.158366, 2015/09/25-01:12:00        ">
   <rdf:RDF xmlns:rdf="http://www.w3.org/1999/02/22-rdf-syntax-ns#">
      <rdf:Description rdf:about=""/>
   </rdf:RDF>
</x:xmpmeta>
                                                                                                    
                                                                                                    
                                                                                                    
                                                                                                    
                                                                                                    
                                                                                                    
                                                                                                    
                                                                                                    
                                                                                                    
                                                                                                    
                                                                                                    
                                                                                                    
                                                                                                    
                                                                                                    
                                                                                                    
                                                                                                    
                                                                                                    
                                                                                                    
                                                                                                    
                                                                                                    
                           
<?xpacket end="w"?></metadata>
<style type="text/css">
	.st0{fill:none;}
	.st1{fill:#5B554D;}
</style>
<rect class="st0" width="64" height="64"/>
<g>
	<g>
		<g>
			<g>
				<path class="st1" d="M58.5,56.8h-53c-0.5,0-0.9-0.4-0.9-0.9v-34C4.6,21.4,5,21,5.5,21h52.9c0.5,0,0.9,0.4,0.9,0.9v33.9
					C59.4,56.4,59,56.8,58.5,56.8z M6.5,54.9h51V22.8h-51V54.9z"/>
			</g>
		</g>
		<g>
			<g>
				<path class="st1" d="M60.6,22.9H3.4c-1.3,0-2.4-1.1-2.4-2.4V9.7c0-1.3,1.1-2.4,2.4-2.4h57.1c1.3,0,2.4,1.1,2.4,2.4v10.8
					C63,21.8,61.9,22.9,60.6,22.9z M3.4,9.1c-0.3,0-0.6,0.3-0.6,0.6v10.8c0,0.3,0.3,0.6,0.6,0.6h57.1c0.3,0,0.6-0.3,0.6-0.6V9.7
					c0-0.3-0.3-0.6-0.6-0.6C60.5,9.1,3.4,9.1,3.4,9.1z"/>
			</g>
		</g>
	</g>
	<path class="st1" d="M38.7,31.4H25.3c-0.8,0-1.4-0.6-1.4-1.4s0.6-1.4,1.4-1.4h13.5c0.8,0,1.4,0.6,1.4,1.4
		C40.1,30.8,39.5,31.4,38.7,31.4z"/>
</g>
</svg>
