<?xml version="1.0" encoding="utf-8"?>
<!-- Generator: Adobe Illustrator 19.2.1, SVG Export Plug-In . SVG Version: 6.00 Build 0)  -->
<svg version="1.1" id="Layer_1" xmlns="http://www.w3.org/2000/svg" xmlns:xlink="http://www.w3.org/1999/xlink" x="0px" y="0px"
	 viewBox="0 0 64 64" style="enable-background:new 0 0 64 64;" xml:space="preserve">
<metadata><?xpacket begin="﻿" id="W5M0MpCehiHzreSzNTczkc9d"?>
<x:xmpmeta xmlns:x="adobe:ns:meta/" x:xmptk="Adobe XMP Core 5.6-c111 79.158366, 2015/09/25-01:12:00        ">
   <rdf:RDF xmlns:rdf="http://www.w3.org/1999/02/22-rdf-syntax-ns#">
      <rdf:Description rdf:about=""/>
   </rdf:RDF>
</x:xmpmeta>
                                                                                                    
                                                                                                    
                                                                                                    
                                                                                                    
                                                                                                    
                                                                                                    
                                                                                                    
                                                                                                    
                                                                                                    
                                                                                                    
                                                                                                    
                                                                                                    
                                                                                                    
                                                                                                    
                                                                                                    
                                                                                                    
                                                                                                    
                                                                                                    
                                                                                                    
                                                                                                    
                           
<?xpacket end="w"?></metadata>
<style type="text/css">
	.st0{fill:none;}
	.st1{fill:#5B554D;}
</style>
<rect class="st0" width="64" height="64"/>
<g>
	<g>
		<path class="st1" d="M55.7,55.7H8c-2.5,0-4.5-2-4.5-4.5v-3.7v-0.1c0-0.5,0.4-0.8,0.8-0.8c0.5,0,0.8,0.4,0.8,0.9v0.1v3.6
			C5.2,52.8,6.4,54,8,54h47.7c1.5,0,2.8-1.3,2.8-2.8V47c0-0.5,0.4-0.8,0.8-0.8c0.5,0,0.8,0.4,0.8,0.8v4.2
			C60.2,53.7,58.1,55.7,55.7,55.7z"/>
	</g>
	<g>
		<g>
			<path class="st1" d="M41.8,46.2c-0.1,0-0.3,0-0.4,0c-0.4-0.1-0.8-0.4-0.7-0.9c0-0.4,0.4-0.8,0.8-0.8h0.7c0.4,0,0.8,0.4,0.8,0.8
				c0,0.4-0.3,0.8-0.8,0.9C42.1,46.2,42,46.2,41.8,46.2z"/>
		</g>
	</g>
	<g>
		<path class="st1" d="M58.8,47.6H5.2c-2.3,0-4.2-1.8-4.2-4v-0.9c0-2.2,1.9-4,4.2-4h0.6c0.4,0,0.7,0.3,0.8,0.7l0.1,0.4
			c0.5,2.2,0.8,3.5,2.7,3.9c2.4,0.5,3.1,0,3.9-1.9c0.6-1.3,1.5-2.1,2.5-2.4c2-0.6,4.1,0.9,6.2,2.2c1.3,0.8,2.6,1.7,3.5,1.8
			c1.1,0.1,1.5-0.4,2.2-1.5c0.5-0.8,1.1-1.7,2.1-2.3c2.3-1.2,4.9-0.5,7.7,1.9c0.4,0.3,0.7,0.7,1.1,1c1.5,1.5,2.6,2.3,4,1.9
			c0.9-0.3,1.5-1,2.1-1.9c0.7-0.9,1.5-2,2.9-2.4c2.3-0.8,3-0.4,4.2,0.9c0.2,0.2,0.5,0.5,0.8,0.8c0.2,0.2,0.3,0.3,0.5,0.5
			c0.6,0.6,1.5,1.6,2.1,1.6c0.2,0,0.4-0.2,0.6-0.4c1.3-1.6,2.1-3,2.3-4.1c0.1-0.4,0.4-0.7,0.8-0.7c2.3,0,4.1,1.8,4.1,4v0.9
			C63,45.8,61.1,47.6,58.8,47.6z M43.3,45.9h15.6c1.4,0,2.5-1,2.5-2.3v-0.9c0-1-0.8-1.9-1.8-2.2c-0.4,1.2-1.2,2.5-2.4,4
			c-0.5,0.7-1.2,1-1.9,1.1c-1.4,0.1-2.5-1.1-3.4-2.1c-0.2-0.2-0.3-0.3-0.5-0.5c-0.3-0.3-0.6-0.6-0.9-0.9c-0.9-0.9-0.9-0.9-2.4-0.4
			c-0.9,0.3-1.5,1.1-2.1,1.9C45.3,44.5,44.5,45.5,43.3,45.9z M5.1,40.4c-1.4,0-2.5,1-2.5,2.3v0.9c0,1.3,1.1,2.3,2.5,2.3h35.3
			c-1.2-0.4-2.2-1.4-3.1-2.2c-0.3-0.3-0.7-0.6-1-0.9c-2.3-1.9-4.3-2.5-5.9-1.7c-0.6,0.3-1,1-1.4,1.7c-0.7,1.2-1.6,2.6-3.8,2.3
			C24,44.9,22.6,44,21.1,43c-1.7-1.1-3.6-2.4-4.8-2c-0.6,0.2-1,0.7-1.4,1.5c-1.3,2.8-2.7,3.5-5.8,2.8C6.2,44.7,5.6,42.5,5.1,40.4z"
			/>
	</g>
	<g>
		<g>
			<path class="st1" d="M41.9,46.2c-1.8,0-3.3-1.4-4.4-2.5c-0.3-0.3-0.7-0.6-1-0.9c-2.3-1.9-4.3-2.5-5.9-1.7c-0.6,0.3-1,1-1.4,1.7
				c-0.7,1.2-1.6,2.6-3.8,2.3C24,44.9,22.6,44,21.1,43c-1.7-1.1-3.6-2.4-4.8-2c-0.6,0.2-1,0.7-1.4,1.5c-1.3,2.8-2.7,3.5-5.8,2.8
				c-3-0.6-3.5-3-4-5.2C5,39.7,4.9,39.4,4.8,39l-0.1-0.2c-0.2-0.7-0.4-1.6,0.1-2.8c0.2-0.3,0.5-0.5,0.9-0.5h52.4
				c0.3,0,0.6,0.2,0.7,0.5c0.2,0.5,0.4,1,0.7,1.6c0.6,1.6-0.2,3.9-2.5,6.8c-0.5,0.7-1.2,1-1.9,1.1c-1.4,0.1-2.5-1.1-3.4-2.1
				c-0.2-0.2-0.3-0.3-0.5-0.5c-0.3-0.3-0.6-0.6-0.9-0.9c-0.9-0.9-0.9-0.9-2.4-0.4c-0.9,0.3-1.5,1.1-2.1,1.9c-0.7,0.9-1.5,2-3,2.4
				C42.6,46.1,42.2,46.2,41.9,46.2z M32.1,39c1.7,0,3.5,0.8,5.4,2.5c0.4,0.3,0.7,0.7,1.1,1c1.5,1.5,2.6,2.3,4,1.9
				c0.9-0.3,1.5-1,2.1-1.9c0.7-0.9,1.5-2,2.9-2.4c2.3-0.8,3-0.4,4.2,0.9c0.2,0.2,0.5,0.5,0.8,0.8c0.2,0.2,0.3,0.3,0.5,0.5
				c0.6,0.6,1.5,1.6,2.1,1.6c0.2,0,0.4-0.2,0.6-0.4c2.5-3.2,2.5-4.6,2.3-5.2l0,0c-0.1-0.4-0.3-0.7-0.4-1H6.3c-0.1,0.4,0,0.8,0.1,1.2
				l0.1,0.2c0.1,0.4,0.2,0.8,0.3,1.2c0.5,2.2,0.8,3.5,2.7,3.9c2.4,0.5,3.1,0,3.9-1.9c0.6-1.3,1.5-2.1,2.5-2.4c2-0.6,4.1,0.9,6.2,2.2
				c1.3,0.8,2.6,1.7,3.5,1.8c1.1,0.1,1.5-0.4,2.2-1.5c0.5-0.8,1.1-1.7,2.1-2.3C30.5,39.2,31.3,39,32.1,39z"/>
		</g>
	</g>
	<g>
		<path class="st1" d="M58.3,37.2H5.7c-0.5,0-0.8-0.4-0.8-0.8v-4.5c0-0.5,0.4-0.8,0.8-0.8h52.7c0.5,0,0.8,0.4,0.8,0.8v4.5
			C59.2,36.9,58.8,37.2,58.3,37.2z M6.5,35.6h51v-2.9h-51V35.6z"/>
	</g>
	<g>
		<path class="st1" d="M60.3,32.7H3.7c-0.2,0-0.5-0.1-0.6-0.3c-0.2-0.2-0.2-0.4-0.2-0.7C5,18.4,17.5,8.3,32,8.3s27,10.1,29.1,23.5
			c0,0.2,0,0.5-0.2,0.7C60.8,32.6,60.6,32.7,60.3,32.7z M4.7,31h54.6c-2.4-12-14-21-27.3-21S7.1,19,4.7,31z"/>
	</g>
	<g>
		<circle class="st1" cx="14.7" cy="20.3" r="0.8"/>
		<circle class="st1" cx="10.1" cy="25.1" r="0.8"/>
		<circle class="st1" cx="29.2" cy="18.8" r="0.8"/>
		<circle class="st1" cx="20.9" cy="24.4" r="0.8"/>
		<circle class="st1" cx="21.3" cy="15.8" r="0.8"/>
		<circle class="st1" cx="31.5" cy="27.4" r="0.8"/>
		<circle class="st1" cx="16.1" cy="28.2" r="0.8"/>
		<circle class="st1" cx="36.9" cy="21.3" r="0.8"/>
		<circle class="st1" cx="28.8" cy="11.5" r="0.8"/>
		<circle class="st1" cx="40.8" cy="14.9" r="0.8"/>
		<circle class="st1" cx="34.6" cy="13.8" r="0.8"/>
		<circle class="st1" cx="45.6" cy="22.1" r="0.8"/>
		<circle class="st1" cx="46.7" cy="16.3" r="0.8"/>
		<circle class="st1" cx="55.3" cy="25.2" r="0.8"/>
		<circle class="st1" cx="43.9" cy="27.8" r="0.8"/>
		<circle class="st1" cx="50.4" cy="21.8" r="0.8"/>
	</g>
</g>
</svg>
