<?xml version="1.0" encoding="utf-8"?>
<!-- Generator: Adobe Illustrator 19.2.1, SVG Export Plug-In . SVG Version: 6.00 Build 0)  -->
<svg version="1.1" id="Layer_1" xmlns="http://www.w3.org/2000/svg" xmlns:xlink="http://www.w3.org/1999/xlink" x="0px" y="0px"
	 viewBox="0 0 64 64" style="enable-background:new 0 0 64 64;" xml:space="preserve">
<metadata><?xpacket begin="﻿" id="W5M0MpCehiHzreSzNTczkc9d"?>
<x:xmpmeta xmlns:x="adobe:ns:meta/" x:xmptk="Adobe XMP Core 5.6-c111 79.158366, 2015/09/25-01:12:00        ">
   <rdf:RDF xmlns:rdf="http://www.w3.org/1999/02/22-rdf-syntax-ns#">
      <rdf:Description rdf:about=""/>
   </rdf:RDF>
</x:xmpmeta>
                                                                                                    
                                                                                                    
                                                                                                    
                                                                                                    
                                                                                                    
                                                                                                    
                                                                                                    
                                                                                                    
                                                                                                    
                                                                                                    
                                                                                                    
                                                                                                    
                                                                                                    
                                                                                                    
                                                                                                    
                                                                                                    
                                                                                                    
                                                                                                    
                                                                                                    
                                                                                                    
                           
<?xpacket end="w"?></metadata>
<style type="text/css">
	.st0{fill:none;}
	.st1{fill:#5B554D;}
</style>
<rect class="st0" width="64" height="64"/>
<g>
	<g>
		<g>
			<path class="st1" d="M8.5,35.8c-0.2,0-0.3,0-0.5-0.1c-4-2.2-6.4-6.4-6.4-11.1c0-7.4,6.1-13.4,13.3-12.4l0,0C14.9,6,19.8,1,26,1
				c3.9,0,7.5,2.1,9.5,5.4c1.7-2.6,4.6-4.3,7.8-4.3c5.1,0,9.3,4.2,9.3,9.3c0,0.7-0.1,1.4-0.2,2.1c5.6,0.3,10.1,5.1,10.1,11
				c0,6.1-4.6,10.8-10.6,10.8c-0.5,0-1-0.4-1-1s0.4-1,1-1c4.8,0,8.6-3.9,8.6-8.9s-3.9-9.1-8.6-9.1c-0.3,0-0.5,0-0.8,0
				s-0.7-0.1-0.9-0.4c-0.2-0.3-0.3-0.6-0.1-1c0.4-0.9,0.5-1.8,0.5-2.8c0-4-3.3-7.3-7.3-7.3c-3.1,0-5.9,2-6.9,4.9
				c-0.1,0.4-0.5,0.7-0.9,0.7l0,0c-0.4,0-0.8-0.3-0.9-0.6c-1.3-3.6-4.8-6-8.6-6c-5,0-9.1,4.1-9.1,9.1c0,0.4,0,0.8,0.1,1.1
				c0,0.3-0.1,0.6-0.3,0.9s-0.6,0.3-0.9,0.2c-0.8-0.2-1.5-0.3-2.2-0.3C8,14,3.6,18.7,3.6,24.5c0,4,2.1,7.6,5.4,9.4
				c0.5,0.3,0.7,0.9,0.4,1.3C9.2,35.6,8.8,35.8,8.5,35.8z"/>
		</g>
		<g>
			<path class="st1" d="M47.9,63H13.6c-0.5,0-0.9-0.3-1-0.8L7.1,34.6c-0.1-0.3,0-0.6,0.2-0.8s0.5-0.4,0.8-0.4h45.3
				c0.3,0,0.6,0.1,0.8,0.4c0.2,0.2,0.3,0.5,0.2,0.8l-5.5,27.6C48.7,62.7,48.3,63,47.9,63z M14.4,61H47l5.1-25.7H9.3L14.4,61z"/>
		</g>
		<circle class="st1" cx="24.4" cy="16.5" r="3.5"/>
		<circle class="st1" cx="44" cy="12" r="2.7"/>
		<circle class="st1" cx="52.8" cy="29" r="2.4"/>
		<circle class="st1" cx="34.4" cy="25.3" r="3.3"/>
		<circle class="st1" cx="9.7" cy="27.5" r="2.7"/>
	</g>
	<g>
		<path class="st1" d="M19.5,63c-0.5,0-0.9-0.3-1-0.8l-5-27.6c-0.1-0.5,0.3-1,0.8-1.1s1,0.3,1.1,0.8l5,27.6c0.1,0.5-0.3,1-0.8,1.1
			C19.6,63,19.5,63,19.5,63z"/>
	</g>
	<g>
		<path class="st1" d="M25,63c-0.5,0-0.9-0.4-1-0.9l-2.6-27.6c-0.1-0.5,0.3-1,0.9-1.1s1,0.3,1.1,0.9L26,61.9
			C26.1,62.5,25.7,62.9,25,63C25.1,63,25.1,63,25,63z"/>
	</g>
	<g>
		<path class="st1" d="M30.7,63c-0.5,0-1-0.4-1-1V34.4c0-0.5,0.4-1,1-1c0.5,0,1,0.4,1,1V62C31.7,62.6,31.3,63,30.7,63z"/>
	</g>
	<g>
		<path class="st1" d="M36.2,63L36.2,63c-0.6-0.1-1-0.5-1-1.1l2.6-27.6c0.1-0.5,0.5-0.9,1.1-0.9c0.5,0.1,0.9,0.5,0.9,1.1l-2.6,27.6
			C37.2,62.6,36.7,63,36.2,63z"/>
	</g>
	<g>
		<path class="st1" d="M41.8,63c-0.1,0-0.1,0-0.2,0c-0.5-0.1-0.9-0.6-0.8-1.1L46,34.3c0.1-0.5,0.6-0.9,1.1-0.8
			c0.5,0.1,0.9,0.6,0.8,1.1l-5.2,27.6C42.7,62.7,42.3,63,41.8,63z"/>
	</g>
</g>
</svg>
