<?xml version="1.0" encoding="utf-8"?>
<!-- Generator: Adobe Illustrator 19.2.1, SVG Export Plug-In . SVG Version: 6.00 Build 0)  -->
<svg version="1.1" id="Layer_1" xmlns="http://www.w3.org/2000/svg" xmlns:xlink="http://www.w3.org/1999/xlink" x="0px" y="0px"
	 viewBox="0 0 64 64" style="enable-background:new 0 0 64 64;" xml:space="preserve">
<metadata><?xpacket begin="﻿" id="W5M0MpCehiHzreSzNTczkc9d"?>
<x:xmpmeta xmlns:x="adobe:ns:meta/" x:xmptk="Adobe XMP Core 5.6-c111 79.158366, 2015/09/25-01:12:00        ">
   <rdf:RDF xmlns:rdf="http://www.w3.org/1999/02/22-rdf-syntax-ns#">
      <rdf:Description rdf:about=""/>
   </rdf:RDF>
</x:xmpmeta>
                                                                                                    
                                                                                                    
                                                                                                    
                                                                                                    
                                                                                                    
                                                                                                    
                                                                                                    
                                                                                                    
                                                                                                    
                                                                                                    
                                                                                                    
                                                                                                    
                                                                                                    
                                                                                                    
                                                                                                    
                                                                                                    
                                                                                                    
                                                                                                    
                                                                                                    
                                                                                                    
                           
<?xpacket end="w"?></metadata>
<style type="text/css">
	.st0{fill:none;}
	.st1{fill:#5B554D;}
</style>
<rect class="st0" width="64" height="64"/>
<g>
	<g>
		<g>
			<path class="st1" d="M54.6,63H9.4c-0.5,0-0.9-0.4-0.9-0.9V1.9C8.5,1.4,8.9,1,9.4,1h45.2c0.5,0,0.9,0.4,0.9,0.9v60.3
				C55.5,62.6,55.1,63,54.6,63z M10.3,61.3h43.5V2.7H10.3V61.3z"/>
		</g>
	</g>
	<g>
		<g>
			<g>
				<path class="st1" d="M20.7,30h-6.4c-0.5,0-0.9-0.4-0.9-0.9v-6.4c0-0.5,0.4-0.9,0.9-0.9h6.4c0.5,0,0.9,0.4,0.9,0.9v6.4
					C21.6,29.6,21.2,30,20.7,30z M15.2,28.3h4.6v-4.6h-4.6C15.2,23.7,15.2,28.3,15.2,28.3z"/>
			</g>
			<g>
				<path class="st1" d="M30.4,30H24c-0.5,0-0.9-0.4-0.9-0.9v-6.4c0-0.5,0.4-0.9,0.9-0.9h6.4c0.5,0,0.9,0.4,0.9,0.9v6.4
					C31.2,29.6,30.8,30,30.4,30z M24.8,28.3h4.6v-4.6h-4.6V28.3z"/>
			</g>
			<g>
				<path class="st1" d="M40,30h-6.4c-0.5,0-0.9-0.4-0.9-0.9v-6.4c0-0.5,0.4-0.9,0.9-0.9H40c0.5,0,0.9,0.4,0.9,0.9v6.4
					C40.9,29.6,40.5,30,40,30z M34.5,28.3h4.6v-4.6h-4.6V28.3z"/>
			</g>
			<g>
				<path class="st1" d="M49.7,30h-6.4c-0.5,0-0.9-0.4-0.9-0.9v-6.4c0-0.5,0.4-0.9,0.9-0.9h6.4c0.5,0,0.9,0.4,0.9,0.9v6.4
					C50.6,29.6,50.2,30,49.7,30z M44.2,28.3h4.6v-4.6h-4.6V28.3z"/>
			</g>
			<g>
				<path class="st1" d="M49.7,39.7h-6.4c-0.5,0-0.9-0.4-0.9-0.9v-6.4c0-0.5,0.4-0.9,0.9-0.9h6.4c0.5,0,0.9,0.4,0.9,0.9v6.4
					C50.6,39.3,50.2,39.7,49.7,39.7z M44.2,37.9h4.6v-4.6h-4.6V37.9z"/>
			</g>
		</g>
		<g>
			<g>
				<path class="st1" d="M20.7,49.3h-6.4c-0.5,0-0.9-0.4-0.9-0.9V42c0-0.5,0.4-0.9,0.9-0.9h6.4c0.5,0,0.9,0.4,0.9,0.9v6.4
					C21.6,48.9,21.2,49.3,20.7,49.3z M15.2,47.6h4.6V43h-4.6C15.2,43,15.2,47.6,15.2,47.6z"/>
			</g>
			<g>
				<path class="st1" d="M30.4,49.3H24c-0.5,0-0.9-0.4-0.9-0.9V42c0-0.5,0.4-0.9,0.9-0.9h6.4c0.5,0,0.9,0.4,0.9,0.9v6.4
					C31.2,48.9,30.8,49.3,30.4,49.3z M24.8,47.6h4.6V43h-4.6V47.6z"/>
			</g>
			<g>
				<path class="st1" d="M40,49.3h-6.4c-0.5,0-0.9-0.4-0.9-0.9V42c0-0.5,0.4-0.9,0.9-0.9H40c0.5,0,0.9,0.4,0.9,0.9v6.4
					C40.9,48.9,40.5,49.3,40,49.3z M34.5,47.6h4.6V43h-4.6V47.6z"/>
			</g>
		</g>
		<g>
			<g>
				<path class="st1" d="M20.7,39.7h-6.4c-0.5,0-0.9-0.4-0.9-0.9v-6.4c0-0.5,0.4-0.9,0.9-0.9h6.4c0.5,0,0.9,0.4,0.9,0.9v6.4
					C21.6,39.3,21.2,39.7,20.7,39.7z M15.2,37.9h4.6v-4.6h-4.6C15.2,33.3,15.2,37.9,15.2,37.9z"/>
			</g>
			<g>
				<g>
					<path class="st1" d="M20.7,58.9h-6.4c-0.5,0-0.9-0.4-0.9-0.9v-6.4c0-0.5,0.4-0.9,0.9-0.9h6.4c0.5,0,0.9,0.4,0.9,0.9V58
						C21.6,58.5,21.2,58.9,20.7,58.9z M15.2,57.2h4.6v-4.6h-4.6C15.2,52.6,15.2,57.2,15.2,57.2z"/>
				</g>
				<g>
					<path class="st1" d="M30.4,58.9H24c-0.5,0-0.9-0.4-0.9-0.9v-6.4c0-0.5,0.4-0.9,0.9-0.9h6.4c0.5,0,0.9,0.4,0.9,0.9V58
						C31.2,58.5,30.8,58.9,30.4,58.9z M24.8,57.2h4.6v-4.6h-4.6V57.2z"/>
				</g>
				<g>
					<path class="st1" d="M40,58.9h-6.4c-0.5,0-0.9-0.4-0.9-0.9v-6.4c0-0.5,0.4-0.9,0.9-0.9H40c0.5,0,0.9,0.4,0.9,0.9V58
						C40.9,58.5,40.5,58.9,40,58.9z M34.5,57.2h4.6v-4.6h-4.6V57.2z"/>
				</g>
			</g>
			<g>
				<path class="st1" d="M30.4,39.7H24c-0.5,0-0.9-0.4-0.9-0.9v-6.4c0-0.5,0.4-0.9,0.9-0.9h6.4c0.5,0,0.9,0.4,0.9,0.9v6.4
					C31.2,39.3,30.8,39.7,30.4,39.7z M24.8,37.9h4.6v-4.6h-4.6V37.9z"/>
			</g>
			<g>
				<path class="st1" d="M40,39.7h-6.4c-0.5,0-0.9-0.4-0.9-0.9v-6.4c0-0.5,0.4-0.9,0.9-0.9H40c0.5,0,0.9,0.4,0.9,0.9v6.4
					C40.9,39.3,40.5,39.7,40,39.7z M34.5,37.9h4.6v-4.6h-4.6V37.9z"/>
			</g>
			<g>
				<path class="st1" d="M49.7,58.9h-6.4c-0.5,0-0.9-0.4-0.9-0.9V42c0-0.5,0.4-0.9,0.9-0.9h6.4c0.5,0,0.9,0.4,0.9,0.9v16
					C50.6,58.5,50.2,58.9,49.7,58.9z M44.2,57.2h4.6V42.9h-4.6V57.2z"/>
			</g>
		</g>
	</g>
	<g>
		<path class="st1" d="M49.7,18.8H14.3c-0.5,0-0.9-0.4-0.9-0.9V6.7c0-0.5,0.4-0.9,0.9-0.9h35.4c0.5,0,0.9,0.4,0.9,0.9V18
			C50.6,18.4,50.2,18.8,49.7,18.8z M15.2,17.1h33.6V7.6H15.2V17.1z"/>
	</g>
</g>
</svg>
