<?xml version="1.0" encoding="utf-8"?>
<!-- Generator: Adobe Illustrator 19.2.1, SVG Export Plug-In . SVG Version: 6.00 Build 0)  -->
<svg version="1.1" id="Layer_1" xmlns="http://www.w3.org/2000/svg" xmlns:xlink="http://www.w3.org/1999/xlink" x="0px" y="0px"
	 viewBox="0 0 64 64" style="enable-background:new 0 0 64 64;" xml:space="preserve">
<metadata><?xpacket begin="﻿" id="W5M0MpCehiHzreSzNTczkc9d"?>
<x:xmpmeta xmlns:x="adobe:ns:meta/" x:xmptk="Adobe XMP Core 5.6-c111 79.158366, 2015/09/25-01:12:00        ">
   <rdf:RDF xmlns:rdf="http://www.w3.org/1999/02/22-rdf-syntax-ns#">
      <rdf:Description rdf:about=""/>
   </rdf:RDF>
</x:xmpmeta>
                                                                                                    
                                                                                                    
                                                                                                    
                                                                                                    
                                                                                                    
                                                                                                    
                                                                                                    
                                                                                                    
                                                                                                    
                                                                                                    
                                                                                                    
                                                                                                    
                                                                                                    
                                                                                                    
                                                                                                    
                                                                                                    
                                                                                                    
                                                                                                    
                                                                                                    
                                                                                                    
                           
<?xpacket end="w"?></metadata>
<style type="text/css">
	.st0{fill:none;}
	.st1{fill:#5B554D;}
</style>
<rect class="st0" width="64" height="64"/>
<g>
	<g>
		<path class="st1" d="M23,5.1L23,5.1l-5.4,0c-0.5,0-1-0.4-1-1c0-0.5,0.4-1,1-1l0,0l5.4,0c0.5,0,1,0.4,1,1C24,4.6,23.6,5.1,23,5.1z"
			/>
	</g>
	<g>
		<path class="st1" d="M34.2,5.1L34.2,5.1l-5.4,0c-0.5,0-1-0.4-1-1c0-0.5,0.4-1,1-1l0,0l5.4,0c0.5,0,1,0.4,1,1
			C35.2,4.7,34.8,5.1,34.2,5.1z"/>
	</g>
	<g>
		<path class="st1" d="M45.4,5.1L45.4,5.1l-5.4,0c-0.5,0-1-0.4-1-1c0-0.5,0.4-1,1-1l0,0l5.4,0c0.5,0,1,0.4,1,1
			C46.4,4.7,46,5.1,45.4,5.1z"/>
	</g>
	<g>
		<path class="st1" d="M51.3,63C51.3,63,51.3,63,51.3,63l-38.6-0.1c-2.6,0-5.1-1-7-2.8c-1.9-1.8-2.9-4.3-2.9-6.9l0-40.3
			c0-5,3.8-9.2,8.9-9.7c0.5,0,1,0.3,1.1,0.9c0.1,0.5-0.3,1-0.9,1.1c-4.1,0.4-7.1,3.7-7.1,7.7l0,40.3c0,2.1,0.8,4,2.3,5.5
			c1.5,1.5,3.5,2.3,5.6,2.3l38.6,0.1c0,0,0,0,0,0c2.1,0,4.1-0.8,5.6-2.3c1.5-1.5,2.3-3.4,2.3-5.5l0-40.3c0-4.2-3.6-7.7-8-7.9
			c-0.5,0-1-0.5-0.9-1c0-0.5,0.4-0.9,1-0.9c0,0,0,0,0,0c5.5,0.2,9.9,4.6,9.9,9.8l0,40.3c0,2.6-1,5.1-2.9,6.9
			C56.4,62,53.9,63,51.3,63z"/>
	</g>
	<g>
		<path class="st1" d="M40.3,47H3.8c-0.5,0-1-0.4-1-1s0.4-1,1-1h36.4c0.5,0,1,0.4,1,1S40.8,47,40.3,47z"/>
	</g>
	<g>
		<path class="st1" d="M32.9,62.9c-0.3,0-0.6-0.1-0.8-0.4c-0.3-0.4-0.3-1,0.1-1.3c7.1-6.5,7.6-18.2,7.6-18.3c0-0.5,0.3-0.8,0.8-0.9
			c0,0,3.5-0.7,9.3-3.3c5.4-2.5,9.2-7.6,9.4-7.8c0.3-0.4,0.9-0.5,1.3-0.3c0.4,0.3,0.6,0.8,0.4,1.3c-2.3,4.7-7.5,11.1-16.2,20.2l0,0
			l-1.3,1.4c-3.3,3.5-6.4,6.7-9.5,8.9l-0.5,0.3C33.3,62.9,33.1,62.9,32.9,62.9z M41.7,43.7c-0.2,1.9-0.8,7-3.1,12
			c1.1-1.1,2.3-2.3,3.4-3.6l1.3-1.4c4.6-4.8,8.3-8.9,11-12.4c-1.1,0.8-2.3,1.5-3.6,2.1C46.2,42.5,43.1,43.4,41.7,43.7z M44,51.4
			L44,51.4L44,51.4z"/>
	</g>
	<g>
		<path class="st1" d="M60.2,47H49.4c-0.5,0-1-0.4-1-1s0.4-1,1-1h10.7c0.5,0,1,0.4,1,1S60.7,47,60.2,47z"/>
	</g>
	<g>
		<g>
			<path class="st1" d="M32.1,38.8c-1.9,0-3.4-0.6-4.7-1.6c-0.4-0.4-0.4-1-0.1-1.4c0.4-0.4,1-0.4,1.4-0.1c0.9,0.8,2,1.2,3.4,1.2
				c1.5,0,2.7-0.5,3.6-1.4c1-0.9,1.4-2,1.4-3.3c0-0.9-0.2-1.6-0.7-2.2c-0.5-0.6-1.1-1-1.9-1.1c-0.4-0.1-0.7-0.4-0.8-0.8
				c-0.1-0.4,0.1-0.8,0.5-1c1.9-1,2.1-2.2,2.1-2.9c0-0.9-0.3-1.6-1-2.3c-0.8-0.9-1.9-1.3-3.4-1.3c-0.8,0-1.6,0.2-2.3,0.5
				c-0.6,0.3-1.1,0.7-1.5,1.2c-0.3,0.4-0.9,0.6-1.4,0.2c-0.4-0.3-0.6-0.9-0.2-1.4c0.5-0.8,1.3-1.4,2.2-1.9c0.9-0.4,2-0.7,3.1-0.7
				c2,0,3.6,0.6,4.8,1.9c1,1.1,1.5,2.3,1.5,3.7c0,1.4-0.5,2.6-1.6,3.5c0.5,0.3,0.9,0.7,1.2,1.1c0.8,0.9,1.1,2.1,1.1,3.4
				c0,1.8-0.7,3.4-2,4.7C35.8,38.2,34.1,38.8,32.1,38.8z"/>
		</g>
		<g>
			<path class="st1" d="M34.8,28.9h-3.6c-0.5,0-1-0.4-1-1c0-0.5,0.4-1,1-1h3.6c0.5,0,1,0.4,1,1C35.7,28.4,35.3,28.9,34.8,28.9z"/>
		</g>
	</g>
	<g>
		<g>
			<path class="st1" d="M14.8,14.3c-2.3,0-4.2-1.9-4.2-4.2s1.9-4.2,4.2-4.2S19,7.8,19,10.1S17.1,14.3,14.8,14.3z M14.8,7.9
				c-1.2,0-2.3,1-2.3,2.3c0,1.2,1,2.3,2.3,2.3s2.3-1,2.3-2.3C17,8.9,16,7.9,14.8,7.9z"/>
		</g>
		<g>
			<path class="st1" d="M14.8,11.1c-0.5,0-1-0.4-1-1V2c0-0.5,0.4-1,1-1s1,0.4,1,1v8.2C15.7,10.7,15.3,11.1,14.8,11.1z"/>
		</g>
	</g>
	<g>
		<g>
			<path class="st1" d="M26,14.3c-2.3,0-4.2-1.9-4.2-4.2s1.9-4.2,4.2-4.2s4.2,1.9,4.2,4.2S28.3,14.3,26,14.3z M26,7.9
				c-1.2,0-2.3,1-2.3,2.3c0,1.2,1,2.3,2.3,2.3s2.3-1,2.3-2.3C28.2,8.9,27.2,7.9,26,7.9z"/>
		</g>
		<g>
			<path class="st1" d="M26,11.1c-0.5,0-1-0.4-1-1V2c0-0.5,0.4-1,1-1c0.5,0,1,0.4,1,1v8.2C26.9,10.7,26.5,11.1,26,11.1z"/>
		</g>
	</g>
	<g>
		<g>
			<path class="st1" d="M37.2,14.3c-2.3,0-4.2-1.9-4.2-4.2s1.9-4.2,4.2-4.2s4.2,1.9,4.2,4.2S39.5,14.3,37.2,14.3z M37.2,7.9
				c-1.2,0-2.3,1-2.3,2.3c0,1.2,1,2.3,2.3,2.3s2.3-1,2.3-2.3C39.4,8.9,38.4,7.9,37.2,7.9z"/>
		</g>
		<g>
			<path class="st1" d="M37.2,11.1c-0.5,0-1-0.4-1-1V2c0-0.5,0.4-1,1-1s1,0.4,1,1v8.2C38.1,10.7,37.7,11.1,37.2,11.1z"/>
		</g>
	</g>
	<g>
		<g>
			<path class="st1" d="M48.3,14.3c-2.3,0-4.2-1.9-4.2-4.2s1.9-4.2,4.2-4.2s4.2,1.9,4.2,4.2S50.6,14.3,48.3,14.3z M48.3,7.9
				c-1.2,0-2.3,1-2.3,2.3c0,1.2,1,2.3,2.3,2.3s2.3-1,2.3-2.3C50.6,8.9,49.6,7.9,48.3,7.9z"/>
		</g>
		<g>
			<path class="st1" d="M48.3,11.1c-0.5,0-1-0.4-1-1V2c0-0.5,0.4-1,1-1c0.5,0,1,0.4,1,1v8.2C49.3,10.7,48.9,11.1,48.3,11.1z"/>
		</g>
	</g>
</g>
</svg>
