<?xml version="1.0" encoding="utf-8"?>
<!-- Generator: Adobe Illustrator 19.2.1, SVG Export Plug-In . SVG Version: 6.00 Build 0)  -->
<svg version="1.1" id="Layer_1" xmlns="http://www.w3.org/2000/svg" xmlns:xlink="http://www.w3.org/1999/xlink" x="0px" y="0px"
	 viewBox="0 0 64 64" style="enable-background:new 0 0 64 64;" xml:space="preserve">
<metadata><?xpacket begin="﻿" id="W5M0MpCehiHzreSzNTczkc9d"?>
<x:xmpmeta xmlns:x="adobe:ns:meta/" x:xmptk="Adobe XMP Core 5.6-c111 79.158366, 2015/09/25-01:12:00        ">
   <rdf:RDF xmlns:rdf="http://www.w3.org/1999/02/22-rdf-syntax-ns#">
      <rdf:Description rdf:about=""/>
   </rdf:RDF>
</x:xmpmeta>
                                                                                                    
                                                                                                    
                                                                                                    
                                                                                                    
                                                                                                    
                                                                                                    
                                                                                                    
                                                                                                    
                                                                                                    
                                                                                                    
                                                                                                    
                                                                                                    
                                                                                                    
                                                                                                    
                                                                                                    
                                                                                                    
                                                                                                    
                                                                                                    
                                                                                                    
                                                                                                    
                           
<?xpacket end="w"?></metadata>
<style type="text/css">
	.st0{fill:none;}
	.st1{fill:#5B554D;}
</style>
<rect class="st0" width="64" height="64"/>
<g>
	<g>
		<path class="st1" d="M45.5,54.7C45.5,54.7,45.5,54.7,45.5,54.7l-27.1,0c-1.9,0-3.7-0.7-5.1-2.1c-1.4-1.3-2.1-3.1-2.1-5l0-20.2
			c0-3.7,2.8-6.7,6.5-7.1c0,0,0.1,0,0.1,0l27.7,0c4,0.1,7.2,3.3,7.2,7.2l0,20.1c0,1.9-0.8,3.7-2.1,5.1C49.3,54,47.5,54.7,45.5,54.7z
			 M17.9,22.2c-2.7,0.3-4.7,2.5-4.7,5.2l0,20.2c0,1.4,0.5,2.7,1.5,3.7c1,1,2.3,1.5,3.7,1.5l27.1,0c0,0,0,0,0,0
			c1.4,0,2.7-0.5,3.7-1.5c1-1,1.5-2.3,1.5-3.7l0-20.1c0-2.8-2.4-5.2-5.3-5.3L17.9,22.2z"/>
	</g>
	<g>
		<g>
			<path class="st1" d="M31.3,47.2c-1.8,0-3.4-0.5-4.6-1.6c-0.4-0.3-0.4-1-0.1-1.4c0.4-0.4,1-0.4,1.4-0.1c0.9,0.8,2,1.2,3.4,1.2
				c1.5,0,2.6-0.5,3.6-1.4c1-0.9,1.4-2,1.4-3.3c0-0.9-0.2-1.6-0.7-2.2c-0.5-0.6-1.1-1-1.9-1.1C33.3,37.3,33,37,33,36.6
				c-0.1-0.4,0.1-0.8,0.5-1c1.8-1,2.1-2.1,2.1-2.9c0-0.9-0.3-1.6-1-2.3c-0.8-0.9-1.9-1.3-3.3-1.3c-0.8,0-1.6,0.2-2.3,0.5
				c-0.6,0.3-1.1,0.7-1.5,1.2c-0.3,0.4-0.9,0.5-1.3,0.2c-0.4-0.3-0.5-0.9-0.2-1.3c0.5-0.8,1.3-1.4,2.2-1.8c0.9-0.4,2-0.6,3.1-0.6
				c1.9,0,3.5,0.6,4.7,1.9c1,1.1,1.5,2.3,1.5,3.6c0,1.4-0.5,2.5-1.5,3.5c0.5,0.3,0.9,0.7,1.2,1.1c0.7,0.9,1.1,2.1,1.1,3.4
				c0,1.8-0.7,3.4-2,4.7C34.9,46.6,33.3,47.2,31.3,47.2z"/>
		</g>
		<g>
			<path class="st1" d="M33.9,37.4h-3.6c-0.5,0-1-0.4-1-1s0.4-1,1-1h3.6c0.5,0,1,0.4,1,1S34.5,37.4,33.9,37.4z"/>
		</g>
	</g>
	<g>
		<g>
			<path class="st1" d="M23.1,5.7L23.1,5.7l-5.3,0c-0.5,0-1-0.4-1-1c0-0.5,0.4-1,1-1l0,0l5.3,0c0.5,0,1,0.4,1,1
				C24.1,5.3,23.7,5.7,23.1,5.7z"/>
		</g>
		<g>
			<path class="st1" d="M34.2,5.7L34.2,5.7l-5.3,0c-0.5,0-1-0.4-1-1c0-0.5,0.4-1,1-1l0,0l5.3,0c0.5,0,1,0.4,1,1
				C35.2,5.3,34.7,5.7,34.2,5.7z"/>
		</g>
		<g>
			<path class="st1" d="M45.3,5.7L45.3,5.7l-5.3,0c-0.5,0-1-0.4-1-1c0-0.5,0.4-1,1-1l0,0l5.3,0c0.5,0,1,0.4,1,1
				C46.2,5.3,45.8,5.7,45.3,5.7z"/>
		</g>
		<g>
			<path class="st1" d="M51.1,63C51.1,63,51,63,51.1,63l-38.2-0.1c-2.6,0-5-1-6.9-2.8c-1.8-1.8-2.9-4.2-2.9-6.8l0-39.9
				c0-5,3.8-9.1,8.8-9.6c0.5,0,1,0.3,1,0.9c0.1,0.5-0.3,1-0.9,1.1c-4,0.4-7,3.7-7.1,7.7l0,39.9c0,2.1,0.8,4,2.3,5.5
				c1.5,1.5,3.4,2.3,5.5,2.3L51,61.1c0,0,0,0,0,0c2.1,0,4-0.8,5.5-2.3c1.5-1.5,2.3-3.4,2.3-5.5l0-39.8c0-4.2-3.5-7.7-7.9-7.8
				c-0.5,0-0.9-0.5-0.9-1c0-0.5,0.4-0.9,1-0.9c0,0,0,0,0,0c5.4,0.2,9.8,4.5,9.8,9.7l0,39.8c0,2.6-1,5-2.9,6.8
				C56.1,62,53.7,63,51.1,63z"/>
		</g>
		<g>
			<g>
				<path class="st1" d="M15,14.9c-2.3,0-4.2-1.9-4.2-4.2s1.9-4.1,4.2-4.1s4.2,1.9,4.2,4.1S17.3,14.9,15,14.9z M15,8.5
					c-1.2,0-2.2,1-2.2,2.2c0,1.2,1,2.2,2.2,2.2s2.2-1,2.2-2.2C17.2,9.5,16.2,8.5,15,8.5z"/>
			</g>
			<g>
				<path class="st1" d="M15,11.7c-0.5,0-1-0.4-1-1V2c0-0.5,0.4-1,1-1s1,0.4,1,1v8.7C15.9,11.2,15.5,11.7,15,11.7z"/>
			</g>
		</g>
		<g>
			<g>
				<path class="st1" d="M26,14.9c-2.3,0-4.2-1.9-4.2-4.2s1.9-4.1,4.2-4.1s4.2,1.9,4.2,4.1S28.3,14.9,26,14.9z M26,8.5
					c-1.2,0-2.2,1-2.2,2.2c0,1.2,1,2.2,2.2,2.2s2.2-1,2.2-2.2C28.3,9.5,27.3,8.5,26,8.5z"/>
			</g>
			<g>
				<path class="st1" d="M26,11.7c-0.5,0-1-0.4-1-1V2c0-0.5,0.4-1,1-1c0.5,0,1,0.4,1,1v8.7C27,11.2,26.6,11.7,26,11.7z"/>
			</g>
		</g>
		<g>
			<g>
				<path class="st1" d="M37.1,14.9c-2.3,0-4.2-1.9-4.2-4.2s1.9-4.1,4.2-4.1s4.2,1.9,4.2,4.1S39.4,14.9,37.1,14.9z M37.1,8.5
					c-1.2,0-2.2,1-2.2,2.2c0,1.2,1,2.2,2.2,2.2s2.2-1,2.2-2.2C39.3,9.5,38.3,8.5,37.1,8.5z"/>
			</g>
			<g>
				<path class="st1" d="M37.1,11.7c-0.5,0-1-0.4-1-1V2c0-0.5,0.4-1,1-1s1,0.4,1,1v8.7C38.1,11.2,37.6,11.7,37.1,11.7z"/>
			</g>
		</g>
		<g>
			<g>
				<path class="st1" d="M48.2,14.9c-2.3,0-4.2-1.9-4.2-4.2s1.9-4.1,4.2-4.1s4.2,1.9,4.2,4.1S50.4,14.9,48.2,14.9z M48.2,8.5
					c-1.2,0-2.2,1-2.2,2.2c0,1.2,1,2.2,2.2,2.2s2.2-1,2.2-2.2C50.4,9.5,49.4,8.5,48.2,8.5z"/>
			</g>
			<g>
				<path class="st1" d="M48.2,11.7c-0.5,0-1-0.4-1-1V2c0-0.5,0.4-1,1-1s1,0.4,1,1v8.7C49.1,11.2,48.7,11.7,48.2,11.7z"/>
			</g>
		</g>
	</g>
</g>
</svg>
