<?xml version="1.0" encoding="utf-8"?>
<!-- Generator: Adobe Illustrator 19.2.1, SVG Export Plug-In . SVG Version: 6.00 Build 0)  -->
<svg version="1.1" id="Layer_1" xmlns="http://www.w3.org/2000/svg" xmlns:xlink="http://www.w3.org/1999/xlink" x="0px" y="0px"
	 viewBox="0 0 64 64" style="enable-background:new 0 0 64 64;" xml:space="preserve">
<metadata><?xpacket begin="﻿" id="W5M0MpCehiHzreSzNTczkc9d"?>
<x:xmpmeta xmlns:x="adobe:ns:meta/" x:xmptk="Adobe XMP Core 5.6-c111 79.158366, 2015/09/25-01:12:00        ">
   <rdf:RDF xmlns:rdf="http://www.w3.org/1999/02/22-rdf-syntax-ns#">
      <rdf:Description rdf:about=""/>
   </rdf:RDF>
</x:xmpmeta>
                                                                                                    
                                                                                                    
                                                                                                    
                                                                                                    
                                                                                                    
                                                                                                    
                                                                                                    
                                                                                                    
                                                                                                    
                                                                                                    
                                                                                                    
                                                                                                    
                                                                                                    
                                                                                                    
                                                                                                    
                                                                                                    
                                                                                                    
                                                                                                    
                                                                                                    
                                                                                                    
                           
<?xpacket end="w"?></metadata>
<style type="text/css">
	.st0{fill:none;}
	.st1{fill:#5B554D;}
</style>
<rect class="st0" width="64" height="64"/>
<g>
	<g>
		<path class="st1" d="M9.5,53.7c0.6,0.4,1.3,0.6,2,0.6s1.4-0.2,2-0.6c1.2-0.8,2.1-2.1,2.5-3.8H7C7.4,51.5,8.3,52.9,9.5,53.7z
			 M47.9,49.8c0.4,1.7,1.3,3.1,2.5,3.8c0.6,0.4,1.3,0.6,2,0.6s1.4-0.2,2.1-0.6c1.2-0.8,2.1-2.1,2.5-3.8H47.9z"/>
	</g>
	<g>
		<g>
			<path class="st1" d="M62.2,50.1H1.8c-0.5,0-0.8-0.4-0.8-0.8V33.9c0-3.1,1.8-5.9,4.5-7.2l5-11.8c1.3-3.1,4.3-5.1,7.7-5.1h27.6
				c3.4,0,6.4,2,7.7,5.1l5,11.8c2.7,1.4,4.5,4.2,4.5,7.3v15.4C63,49.7,62.6,50.1,62.2,50.1z M2.7,48.4h58.6V33.9
				c0-2.5-1.5-4.8-3.8-5.9c-0.2-0.1-0.3-0.2-0.4-0.4L52,15.5c-1-2.5-3.5-4.1-6.2-4.1H18.2c-2.7,0-5.1,1.6-6.2,4.1L6.9,27.6
				c-0.1,0.2-0.2,0.3-0.4,0.4c-2.3,1-3.8,3.3-3.8,5.9V48.4z"/>
		</g>
	</g>
	<g>
		<g>
			<path class="st1" d="M52.4,27.8H11.6c-0.3,0-0.5-0.1-0.7-0.4c-0.2-0.2-0.2-0.5-0.1-0.8l4-9.6c0.6-1.4,1.9-2.3,3.4-2.3h27.5
				c1.5,0,2.9,0.9,3.4,2.3l4,9.6c0.1,0.3,0.1,0.6-0.1,0.8C52.9,27.6,52.7,27.8,52.4,27.8z M12.8,26.1h38.3l-3.5-8.4l0,0
				c-0.3-0.8-1.1-1.3-1.9-1.3H18.3c-0.8,0-1.6,0.5-1.9,1.2L12.8,26.1z"/>
		</g>
	</g>
	<g>
		<path class="st1" d="M11.4,33.1c-1.7,0-3,1.4-3,3c0,1.7,1.4,3,3,3c1.7,0,3-1.4,3-3S13.1,33.1,11.4,33.1z M52.6,33.1
			c-1.7,0-3,1.4-3,3c0,1.7,1.4,3,3,3c1.7,0,3-1.4,3-3S54.3,33.1,52.6,33.1z"/>
	</g>
</g>
</svg>
