<?xml version="1.0" encoding="utf-8"?>
<!-- Generator: Adobe Illustrator 19.2.1, SVG Export Plug-In . SVG Version: 6.00 Build 0)  -->
<svg version="1.1" id="Layer_1" xmlns="http://www.w3.org/2000/svg" xmlns:xlink="http://www.w3.org/1999/xlink" x="0px" y="0px"
	 viewBox="0 0 64 64" style="enable-background:new 0 0 64 64;" xml:space="preserve">
<metadata><?xpacket begin="﻿" id="W5M0MpCehiHzreSzNTczkc9d"?>
<x:xmpmeta xmlns:x="adobe:ns:meta/" x:xmptk="Adobe XMP Core 5.6-c111 79.158366, 2015/09/25-01:12:00        ">
   <rdf:RDF xmlns:rdf="http://www.w3.org/1999/02/22-rdf-syntax-ns#">
      <rdf:Description rdf:about=""/>
   </rdf:RDF>
</x:xmpmeta>
                                                                                                    
                                                                                                    
                                                                                                    
                                                                                                    
                                                                                                    
                                                                                                    
                                                                                                    
                                                                                                    
                                                                                                    
                                                                                                    
                                                                                                    
                                                                                                    
                                                                                                    
                                                                                                    
                                                                                                    
                                                                                                    
                                                                                                    
                                                                                                    
                                                                                                    
                                                                                                    
                           
<?xpacket end="w"?></metadata>
<style type="text/css">
	.st0{fill:none;}
	.st1{fill:#5B554D;}
</style>
<rect class="st0" width="64" height="64"/>
<g>
	<g>
		<path class="st1" d="M62.1,50.8c-0.4,0-0.8-0.2-0.9-0.6l-8.9-27H12.7L2.8,50c-0.2,0.5-0.7,0.7-1.2,0.6c-0.5-0.2-0.7-0.7-0.6-1.2
			L11.2,22c0.1-0.4,0.5-0.6,0.9-0.6H53c0.4,0,0.8,0.3,0.9,0.6L63,49.6c0.2,0.5-0.1,1-0.6,1.2C62.2,50.8,62.1,50.8,62.1,50.8z"/>
	</g>
	<g>
		<g>
			<g>
				<path class="st1" d="M45.3,19H20c-1.2,0-2.2-1-2.2-2.2V5c0-1.2,1-2.2,2.2-2.2h25.3c1.2,0,2.2,1,2.2,2.2v11.8
					C47.4,18.1,46.5,19,45.3,19z M20,4.8c-0.2,0-0.3,0.1-0.3,0.3v11.8c0,0.2,0.1,0.3,0.3,0.3h25.3c0.2,0,0.3-0.1,0.3-0.3V5
					c0-0.2-0.1-0.3-0.3-0.3H20V4.8z"/>
			</g>
		</g>
	</g>
	<g>
		<path class="st1" d="M35.3,23.1c-0.5,0-0.9-0.4-0.9-0.9v-3.9c0-0.5,0.4-0.9,0.9-0.9s0.9,0.4,0.9,0.9v3.9
			C36.2,22.6,35.8,23.1,35.3,23.1z"/>
	</g>
	<g>
		<path class="st1" d="M30.2,23.1c-0.5,0-0.9-0.4-0.9-0.9v-3.9c0-0.5,0.4-0.9,0.9-0.9s0.9,0.4,0.9,0.9v3.9
			C31.1,22.6,30.7,23.1,30.2,23.1z"/>
	</g>
	<g>
		<g>
			<path class="st1" d="M24.5,40.1H11.3c-0.5,0-1-0.2-1.3-0.6c-0.3-0.4-0.4-0.9-0.2-1.4L13,27.3c0.3-0.9,1.1-1.5,2-1.5h10.7
				c0.5,0,1,0.2,1.3,0.6s0.5,0.8,0.4,1.3l-1,10.7l0,0C26.3,39.3,25.5,40.1,24.5,40.1z M11.6,38.2l13.9,0.1l-0.9-0.1l1-10.5H15.1
				c-0.1,0-0.2,0.1-0.3,0.2L11.6,38.2z"/>
		</g>
		<path class="st1" d="M31.7,27.6L31.7,27.6L31.7,27.6 M49.1,28.5l1.2,4H31.5l0.2-4H49.1 M49.6,26.6H30.8c-0.5,0-0.9,0.4-0.9,0.9
			l-0.3,5.9c0,0.5,0.4,0.9,0.8,0.9H52c0.5,0,0.8-0.4,0.6-0.8l-1.8-6C50.6,27,50.1,26.6,49.6,26.6L49.6,26.6z"/>
		<path class="st1" d="M33.1,38.9c0,0.2-0.2,0.4-0.4,0.4h-2.9c-0.2,0-0.4-0.2-0.4-0.4l0.1-2.2c0-0.2,0.2-0.4,0.5-0.4h2.7
			c0.2,0,0.4,0.2,0.4,0.4V38.9z"/>
		<path class="st1" d="M40.1,38.9c0,0.2-0.2,0.4-0.4,0.4h-2.9c-0.2,0-0.5-0.2-0.5-0.4l-0.1-2.2c0-0.2,0.2-0.4,0.4-0.4h2.7
			c0.2,0,0.5,0.2,0.5,0.4L40.1,38.9z"/>
		<path class="st1" d="M54.2,38.9c0.1,0.2-0.1,0.4-0.3,0.4H51c-0.2,0-0.5-0.2-0.5-0.4l-0.6-2.3c-0.1-0.2,0.1-0.4,0.3-0.4H53
			c0.2,0,0.5,0.2,0.6,0.4L54.2,38.9z"/>
		<path class="st1" d="M33.1,45.1c0,0.2-0.2,0.4-0.4,0.4h-3.2c-0.2,0-0.4-0.2-0.4-0.4l0.1-2.2c0-0.2,0.2-0.4,0.5-0.4h3
			c0.2,0,0.4,0.2,0.4,0.4V45.1z"/>
		<path class="st1" d="M40.8,45.1c0,0.2-0.2,0.4-0.4,0.4h-3.2c-0.2,0-0.5-0.2-0.5-0.4l-0.1-2.2c0-0.2,0.2-0.4,0.4-0.4h3
			c0.2,0,0.5,0.2,0.5,0.4L40.8,45.1z"/>
		<path class="st1" d="M47.2,38.9c0.1,0.2-0.1,0.4-0.4,0.4h-2.9c-0.2,0-0.5-0.2-0.5-0.4l-0.3-2.2c0-0.2,0.1-0.4,0.4-0.4h2.7
			c0.2,0,0.5,0.2,0.5,0.4L47.2,38.9z"/>
		<path class="st1" d="M48.4,45.1c0,0.2-0.1,0.4-0.4,0.4h-3.2c-0.2,0-0.5-0.2-0.5-0.4L44,42.8c0-0.2,0.1-0.4,0.4-0.4h3
			c0.2,0,0.5,0.2,0.5,0.4L48.4,45.1z"/>
		<path class="st1" d="M56.1,45.1c0.1,0.2-0.1,0.4-0.3,0.4h-3.2c-0.2,0-0.5-0.2-0.5-0.4l-0.6-2.2c-0.1-0.2,0.1-0.4,0.3-0.4h3
			c0.2,0,0.5,0.2,0.6,0.4L56.1,45.1z"/>
	</g>
	<g>
		<path class="st1" d="M59.9,61.1H4.1C2.4,61.1,1,59.7,1,58v-8.2c0-0.5,0.4-0.9,0.9-0.9H62c0.5,0,0.9,0.4,0.9,0.9V58
			C63,59.7,61.6,61.1,59.9,61.1z M2.9,50.7V58c0,0.7,0.6,1.3,1.3,1.3h55.7c0.7,0,1.3-0.6,1.3-1.3v-7.2L2.9,50.7L2.9,50.7z"/>
	</g>
	<g>
		<path class="st1" d="M36.3,55.9H25.6c-0.4,0-0.8-0.3-0.8-0.8c0-0.4,0.3-0.8,0.8-0.8h10.7c0.4,0,0.8,0.3,0.8,0.8
			C37.1,55.6,36.7,55.9,36.3,55.9z"/>
	</g>
</g>
</svg>
