<?xml version="1.0" encoding="utf-8"?>
<!-- Generator: Adobe Illustrator 19.2.1, SVG Export Plug-In . SVG Version: 6.00 Build 0)  -->
<svg version="1.1" id="Layer_1" xmlns="http://www.w3.org/2000/svg" xmlns:xlink="http://www.w3.org/1999/xlink" x="0px" y="0px"
	 viewBox="0 0 64 64" style="enable-background:new 0 0 64 64;" xml:space="preserve">
<metadata><?xpacket begin="﻿" id="W5M0MpCehiHzreSzNTczkc9d"?>
<x:xmpmeta xmlns:x="adobe:ns:meta/" x:xmptk="Adobe XMP Core 5.6-c111 79.158366, 2015/09/25-01:12:00        ">
   <rdf:RDF xmlns:rdf="http://www.w3.org/1999/02/22-rdf-syntax-ns#">
      <rdf:Description rdf:about=""/>
   </rdf:RDF>
</x:xmpmeta>
                                                                                                    
                                                                                                    
                                                                                                    
                                                                                                    
                                                                                                    
                                                                                                    
                                                                                                    
                                                                                                    
                                                                                                    
                                                                                                    
                                                                                                    
                                                                                                    
                                                                                                    
                                                                                                    
                                                                                                    
                                                                                                    
                                                                                                    
                                                                                                    
                                                                                                    
                                                                                                    
                           
<?xpacket end="w"?></metadata>
<style type="text/css">
	.st0{fill:none;}
	.st1{fill:#5B554D;}
</style>
<rect class="st0" width="64" height="64"/>
<g>
	<g>
		<g>
			<path class="st1" d="M19.8,34.8c-0.4,0-0.8-0.4-0.8-0.8v-6.8c0-0.4,0.4-0.8,0.8-0.8s0.8,0.4,0.8,0.8V34
				C20.6,34.4,20.3,34.8,19.8,34.8z"/>
		</g>
		<g>
			<path class="st1" d="M23.9,34.9c-0.4,0-0.8-0.4-0.8-0.8V24c0-0.4,0.4-0.8,0.8-0.8s0.8,0.4,0.8,0.8v10.1
				C24.7,34.5,24.3,34.9,23.9,34.9z"/>
		</g>
		<g>
			<path class="st1" d="M27.9,34.8c-0.4,0-0.8-0.4-0.8-0.8V20c0-0.4,0.4-0.8,0.8-0.8s0.8,0.4,0.8,0.8v14
				C28.7,34.5,28.4,34.8,27.9,34.8z"/>
		</g>
		<g>
			<path class="st1" d="M32,35.3c-0.4,0-0.8-0.4-0.8-0.8V23.9c0-0.4,0.4-0.8,0.8-0.8c0.4,0,0.8,0.4,0.8,0.8v10.6
				C32.8,34.9,32.4,35.3,32,35.3z"/>
		</g>
		<g>
			<path class="st1" d="M36.1,35.2c-0.4,0-0.8-0.4-0.8-0.8v-7.7c0-0.4,0.4-0.8,0.8-0.8s0.8,0.4,0.8,0.8v7.7
				C36.9,34.8,36.5,35.2,36.1,35.2z"/>
		</g>
		<g>
			<path class="st1" d="M40.1,35.2c-0.4,0-0.8-0.4-0.8-0.8v-11c0-0.4,0.4-0.8,0.8-0.8s0.8,0.4,0.8,0.8v11
				C40.9,34.9,40.6,35.2,40.1,35.2z"/>
		</g>
		<g>
			<path class="st1" d="M44.2,35.3c-0.4,0-0.8-0.4-0.8-0.8V21c0-0.4,0.4-0.8,0.8-0.8S45,20.6,45,21v13.5
				C45,34.9,44.6,35.3,44.2,35.3z"/>
		</g>
	</g>
	<g>
		<g>
			<path class="st1" d="M46,17c-0.4,0-0.8-0.4-0.8-0.8v-4.1h-4.1c-0.4,0-0.8-0.4-0.8-0.8c0-0.4,0.4-0.8,0.8-0.8l0,0h4.2
				c0.4,0,0.8,0.2,1,0.4c0.3,0.3,0.4,0.7,0.4,1v4.2C46.8,16.6,46.4,17,46,17L46,17z M45.2,12L45.2,12L45.2,12z"/>
		</g>
		<g>
			<path class="st1" d="M18,22.5c-0.2,0-0.4-0.1-0.6-0.3c-0.3-0.3-0.3-0.8,0.1-1.1l9.8-8.9c0.3-0.3,0.8-0.3,1.1,0l7.8,7.8l9-9
				c0.3-0.3,0.8-0.3,1.1,0s0.3,0.8,0,1.1l-9.6,9.6c-0.3,0.3-0.8,0.3-1.1,0l-7.8-7.8l-9.3,8.4C18.4,22.4,18.2,22.5,18,22.5z"/>
		</g>
	</g>
	<g>
		<g>
			<g>
				<path class="st1" d="M56.2,39.3H7.8C7.4,39.3,7,39,7,38.5V6.3c0-0.4,0.4-0.8,0.8-0.8h48.3c0.4,0,0.8,0.4,0.8,0.8v32.3
					C57,39,56.6,39.3,56.2,39.3z M8.6,37.7h46.7V7.1H8.6V37.7z"/>
			</g>
		</g>
		<g>
			<g>
				<path class="st1" d="M62.2,6.9H1.8C1.4,6.9,1,6.5,1,6.1s0.4-0.8,0.8-0.8h60.4c0.4,0,0.8,0.4,0.8,0.8S62.6,6.9,62.2,6.9z"/>
			</g>
			<g>
				<path class="st1" d="M62.2,39.7H1.8c-0.4,0-0.8-0.4-0.8-0.8s0.4-0.8,0.8-0.8h60.4c0.4,0,0.8,0.4,0.8,0.8S62.6,39.7,62.2,39.7z"
					/>
			</g>
		</g>
		<g>
			<g>
				<path class="st1" d="M14.5,58.7c-0.2,0-0.4-0.1-0.6-0.2c-0.3-0.3-0.3-0.8,0-1.1L26.3,45c0.3-0.3,0.8-0.3,1.1,0
					c0.3,0.3,0.3,0.8,0,1.1L15.1,58.5C14.9,58.6,14.7,58.7,14.5,58.7z"/>
			</g>
			<g>
				<path class="st1" d="M49.5,58.5c-0.2,0-0.4-0.1-0.6-0.2L36.7,46.1c-0.3-0.3-0.3-0.8,0-1.1s0.8-0.3,1.1,0L50,57.2
					c0.3,0.3,0.3,0.8,0,1.1C49.9,58.4,49.7,58.5,49.5,58.5z"/>
			</g>
		</g>
	</g>
</g>
</svg>
