<?xml version="1.0" encoding="utf-8"?>
<!-- Generator: Adobe Illustrator 19.2.1, SVG Export Plug-In . SVG Version: 6.00 Build 0)  -->
<svg version="1.1" id="Layer_1" xmlns="http://www.w3.org/2000/svg" xmlns:xlink="http://www.w3.org/1999/xlink" x="0px" y="0px"
	 viewBox="0 0 64 64" style="enable-background:new 0 0 64 64;" xml:space="preserve">
<metadata><?xpacket begin="﻿" id="W5M0MpCehiHzreSzNTczkc9d"?>
<x:xmpmeta xmlns:x="adobe:ns:meta/" x:xmptk="Adobe XMP Core 5.6-c111 79.158366, 2015/09/25-01:12:00        ">
   <rdf:RDF xmlns:rdf="http://www.w3.org/1999/02/22-rdf-syntax-ns#">
      <rdf:Description rdf:about=""/>
   </rdf:RDF>
</x:xmpmeta>
                                                                                                    
                                                                                                    
                                                                                                    
                                                                                                    
                                                                                                    
                                                                                                    
                                                                                                    
                                                                                                    
                                                                                                    
                                                                                                    
                                                                                                    
                                                                                                    
                                                                                                    
                                                                                                    
                                                                                                    
                                                                                                    
                                                                                                    
                                                                                                    
                                                                                                    
                                                                                                    
                           
<?xpacket end="w"?></metadata>
<style type="text/css">
	.st0{fill:none;}
	.st1{fill:#5B554D;}
</style>
<rect class="st0" width="64" height="64"/>
<g>
	<g>
		<g>
			<path class="st1" d="M18.2,43.8c-0.5,0-1-0.4-1-1c0-5.5,0-15.7,9.9-18.2c3.2-1.1,6.8-1.2,10.8-1.2c8.6,0,11.5-4,13.2-10
				c0.1-0.5,0.7-0.8,1.2-0.7s0.8,0.7,0.7,1.2c-1.7,5.9-4.6,11.4-15,11.4c-3.8,0-7.3,0.1-10.3,1.1c-8.5,2.2-8.5,10.7-8.5,16.3
				C19.1,43.4,18.7,43.8,18.2,43.8z"/>
		</g>
	</g>
	<g>
		<path class="st1" d="M62,54.7H10.6c-0.5,0-1-0.4-1-1v-52c0-0.5,0.4-1,1-1s1,0.4,1,1v51H62c0.5,0,1,0.4,1,1S62.6,54.7,62,54.7z"/>
	</g>
	<g>
		<path class="st1" d="M6.3,2.7H2c-0.5,0-1-0.4-1-1s0.4-1,1-1h4.4c0.5,0,1,0.4,1,1S6.9,2.7,6.3,2.7z"/>
	</g>
	<g>
		<path class="st1" d="M6.3,15.7H2c-0.5,0-1-0.4-1-1s0.4-1,1-1h4.4c0.5,0,1,0.4,1,1S6.9,15.7,6.3,15.7z"/>
	</g>
	<g>
		<path class="st1" d="M6.3,28.7H2c-0.5,0-1-0.4-1-1s0.4-1,1-1h4.4c0.5,0,1,0.4,1,1S6.9,28.7,6.3,28.7z"/>
	</g>
	<g>
		<path class="st1" d="M6.3,41.7H2c-0.5,0-1-0.4-1-1s0.4-1,1-1h4.4c0.5,0,1,0.4,1,1S6.9,41.7,6.3,41.7z"/>
	</g>
	<g>
		<path class="st1" d="M6.3,54.7H2c-0.5,0-1-0.4-1-1s0.4-1,1-1h4.4c0.5,0,1,0.4,1,1S6.9,54.7,6.3,54.7z"/>
	</g>
	<g>
		<path class="st1" d="M10.6,63.2c-0.5,0-1-0.4-1-1v-4.4c0-0.5,0.4-1,1-1s1,0.4,1,1v4.4C11.5,62.8,11.1,63.2,10.6,63.2z"/>
	</g>
	<g>
		<path class="st1" d="M23.4,63.2c-0.5,0-1-0.4-1-1v-4.4c0-0.5,0.4-1,1-1s1,0.4,1,1v4.4C24.4,62.8,24,63.2,23.4,63.2z"/>
	</g>
	<g>
		<path class="st1" d="M36.3,63.2c-0.5,0-1-0.4-1-1v-4.4c0-0.5,0.4-1,1-1s1,0.4,1,1v4.4C37.3,62.8,36.8,63.2,36.3,63.2z"/>
	</g>
	<g>
		<path class="st1" d="M49.2,63.2c-0.5,0-1-0.4-1-1v-4.4c0-0.5,0.4-1,1-1s1,0.4,1,1v4.4C50.1,62.8,49.7,63.2,49.2,63.2z"/>
	</g>
	<g>
		<path class="st1" d="M62,63.2c-0.5,0-1-0.4-1-1v-4.4c0-0.5,0.4-1,1-1s1,0.4,1,1v4.4C63,62.8,62.6,63.2,62,63.2z"/>
	</g>
	<g>
		<path class="st1" d="M56,19c-0.4,0-0.8-0.2-0.9-0.6l-2.2-6.1l0,0l-0.1-0.1l0,0l-6.1,2.2c-0.5,0.2-1.1-0.1-1.2-0.6
			c-0.2-0.5,0.1-1.1,0.6-1.2l6.1-2.2c0.5-0.2,1.1-0.2,1.6,0.1c0.5,0.2,0.9,0.6,1.1,1.1l2.2,6.1c0.2,0.5-0.1,1.1-0.6,1.2
			C56.3,18.9,56.1,19,56,19z"/>
	</g>
</g>
</svg>
