<?xml version="1.0" encoding="utf-8"?>
<!-- Generator: Adobe Illustrator 19.2.1, SVG Export Plug-In . SVG Version: 6.00 Build 0)  -->
<svg version="1.1" id="Layer_1" xmlns="http://www.w3.org/2000/svg" xmlns:xlink="http://www.w3.org/1999/xlink" x="0px" y="0px"
	 viewBox="0 0 64 64" style="enable-background:new 0 0 64 64;" xml:space="preserve">
<metadata><?xpacket begin="﻿" id="W5M0MpCehiHzreSzNTczkc9d"?>
<x:xmpmeta xmlns:x="adobe:ns:meta/" x:xmptk="Adobe XMP Core 5.6-c111 79.158366, 2015/09/25-01:12:00        ">
   <rdf:RDF xmlns:rdf="http://www.w3.org/1999/02/22-rdf-syntax-ns#">
      <rdf:Description rdf:about=""/>
   </rdf:RDF>
</x:xmpmeta>
                                                                                                    
                                                                                                    
                                                                                                    
                                                                                                    
                                                                                                    
                                                                                                    
                                                                                                    
                                                                                                    
                                                                                                    
                                                                                                    
                                                                                                    
                                                                                                    
                                                                                                    
                                                                                                    
                                                                                                    
                                                                                                    
                                                                                                    
                                                                                                    
                                                                                                    
                                                                                                    
                           
<?xpacket end="w"?></metadata>
<style type="text/css">
	.st0{fill:none;}
	.st1{fill:#5B554D;}
</style>
<rect class="st0" width="64" height="64"/>
<g>
	<g>
		<g>
			<path class="st1" d="M5.9,58.1c-0.5,0-0.9-0.4-0.9-0.9V40.9C5,40.4,5.4,40,5.9,40s0.9,0.4,0.9,0.9v16.3
				C6.8,57.7,6.4,58.1,5.9,58.1z"/>
		</g>
		<g>
			<path class="st1" d="M14.6,58.1c-0.5,0-0.9-0.4-0.9-0.9V34c0-0.5,0.4-0.9,0.9-0.9s0.9,0.4,0.9,0.9v23.2
				C15.5,57.7,15.1,58.1,14.6,58.1z"/>
		</g>
		<g>
			<path class="st1" d="M23.3,58.1c-0.5,0-0.9-0.4-0.9-0.9V25.6c0-0.5,0.4-0.9,0.9-0.9s0.9,0.4,0.9,0.9v31.6
				C24.2,57.7,23.8,58.1,23.3,58.1z"/>
		</g>
		<g>
			<path class="st1" d="M32,58.1c-0.5,0-0.9-0.4-0.9-0.9V33.9c0-0.5,0.4-0.9,0.9-0.9s0.9,0.4,0.9,0.9v23.3
				C32.9,57.7,32.5,58.1,32,58.1z"/>
		</g>
		<g>
			<path class="st1" d="M40.7,58.1c-0.5,0-0.9-0.4-0.9-0.9V39.9c0-0.5,0.4-0.9,0.9-0.9s0.9,0.4,0.9,0.9v17.4
				C41.6,57.7,41.2,58.1,40.7,58.1z"/>
		</g>
		<g>
			<path class="st1" d="M49.4,58.1c-0.5,0-0.9-0.4-0.9-0.9V32.9c0-0.5,0.4-0.9,0.9-0.9s0.9,0.4,0.9,0.9v24.3
				C50.3,57.7,49.9,58.1,49.4,58.1z"/>
		</g>
		<g>
			<path class="st1" d="M58.1,58.1c-0.5,0-0.9-0.4-0.9-0.9V27.7c0-0.5,0.4-0.9,0.9-0.9s0.9,0.4,0.9,0.9v29.5
				C59.1,57.7,58.7,58.1,58.1,58.1z"/>
		</g>
	</g>
	<g>
		<g>
			<path class="st1" d="M62.1,18.2c-0.5,0-0.9-0.4-0.9-0.9V8.4c0-0.2-0.1-0.3-0.2-0.4c-0.1-0.1-0.3-0.2-0.4-0.2h-9
				c-0.5,0-0.9-0.4-0.9-0.9S51.1,6,51.6,6l0,0h9c0.6,0,1.2,0.3,1.7,0.7c0.4,0.4,0.7,1,0.7,1.6v8.9C63,17.8,62.6,18.2,62.1,18.2
				L62.1,18.2z"/>
		</g>
		<g>
			<path class="st1" d="M1.9,30c-0.3,0-0.5-0.1-0.7-0.3c-0.3-0.4-0.3-1,0.1-1.3L22.5,9.3c0.4-0.3,0.9-0.3,1.3,0L41,26.6L60.9,6.7
				c0.4-0.4,0.9-0.4,1.3,0c0.4,0.4,0.4,0.9,0,1.3L41.6,28.6c-0.4,0.4-0.9,0.4-1.3,0L23,11.3L2.5,29.8C2.4,29.9,2.1,30,1.9,30z"/>
		</g>
	</g>
</g>
</svg>
