<?xml version="1.0" encoding="utf-8"?>
<!-- Generator: Adobe Illustrator 19.2.1, SVG Export Plug-In . SVG Version: 6.00 Build 0)  -->
<svg version="1.1" id="Layer_1" xmlns="http://www.w3.org/2000/svg" xmlns:xlink="http://www.w3.org/1999/xlink" x="0px" y="0px"
	 viewBox="0 0 64 64" style="enable-background:new 0 0 64 64;" xml:space="preserve">
<metadata><?xpacket begin="﻿" id="W5M0MpCehiHzreSzNTczkc9d"?>
<x:xmpmeta xmlns:x="adobe:ns:meta/" x:xmptk="Adobe XMP Core 5.6-c111 79.158366, 2015/09/25-01:12:00        ">
   <rdf:RDF xmlns:rdf="http://www.w3.org/1999/02/22-rdf-syntax-ns#">
      <rdf:Description rdf:about=""/>
   </rdf:RDF>
</x:xmpmeta>
                                                                                                    
                                                                                                    
                                                                                                    
                                                                                                    
                                                                                                    
                                                                                                    
                                                                                                    
                                                                                                    
                                                                                                    
                                                                                                    
                                                                                                    
                                                                                                    
                                                                                                    
                                                                                                    
                                                                                                    
                                                                                                    
                                                                                                    
                                                                                                    
                                                                                                    
                                                                                                    
                           
<?xpacket end="w"?></metadata>
<style type="text/css">
	.st0{fill:none;}
	.st1{fill:#5B554D;}
</style>
<rect class="st0" width="64" height="64"/>
<g>
	<g>
		<path class="st1" d="M601.4,348.3h-39.6c-1.2,0-2.2-1-2.2-2.3l0-20.4c0,0,0-0.1,0-0.1c0-0.4,0.1-0.7,0.3-1l6.8-11.6
			c0.2-0.3,0.6-0.5,1-0.3c0.3,0.2,0.5,0.6,0.3,1l-6.8,11.6c-0.1,0.1-0.1,0.2-0.1,0.3c0,0.1,0,0.1,0,0.2c0,0.1,0,0.2,0,0.2l0,20.2
			c0,0.5,0.3,0.8,0.8,0.8h39.6c0.4,0,0.8-0.4,0.8-0.8l0-20.2c0-0.1,0-0.1,0-0.2c0-0.1,0-0.1,0-0.2c0-0.1-0.1-0.2-0.1-0.3l-6.8-11.6
			c-0.2-0.3-0.1-0.8,0.3-1c0.3-0.2,0.8-0.1,1,0.3l6.8,11.6c0.2,0.3,0.3,0.7,0.3,1.1c0,0,0,0.1,0,0.1l0,20.4
			C603.5,347.3,602.6,348.3,601.4,348.3z"/>
	</g>
	<g>
		<path class="st1" d="M585.7,332.1h-8.2c-1.1,0-2.2-0.9-2.4-2l-0.7-2.8c-0.1-0.5-0.4-1.1-0.8-1.1h-10c-0.3,0-0.5-0.1-0.6-0.4
			c-0.1-0.2-0.1-0.5,0-0.7l5.9-10.1c0.2-0.3,0.6-0.5,1-0.3c0.3,0.2,0.5,0.6,0.3,1l-5.3,9h8.8c1,0,1.9,0.8,2.2,2.1l0.7,2.8
			c0.1,0.5,0.6,0.9,1.1,0.9h8.2c0.4,0,1-0.4,1.1-0.9l0.7-2.8c0.3-1.3,1.2-2.1,2.2-2.1h8.8l-5.3-9c-0.2-0.3-0.1-0.8,0.3-1
			c0.3-0.2,0.8-0.1,1,0.3l5.9,10.1c0.1,0.2,0.1,0.5,0,0.7c-0.1,0.2-0.4,0.4-0.6,0.4h-10c-0.4,0-0.7,0.5-0.8,1.1l-0.7,2.8
			C587.9,331.3,586.8,332.1,585.7,332.1z"/>
	</g>
</g>
<g>
	<g>
		<path class="st1" d="M581.6,322.2c-0.7,0-1.4-0.3-1.9-0.8l-8.4-8.3c-0.3-0.3-0.3-0.7,0-1c0.3-0.3,0.7-0.3,1,0l8.4,8.3
			c0.5,0.5,1.3,0.5,1.8,0l8.4-8.3c0.3-0.3,0.7-0.3,1,0s0.3,0.7,0,1l-8.4,8.3C583,321.9,582.3,322.2,581.6,322.2z"/>
	</g>
	<g>
		<path class="st1" d="M581.6,322c-0.4,0-0.7-0.3-0.7-0.7v-21.4c0-0.4,0.3-0.7,0.7-0.7s0.7,0.3,0.7,0.7v21.4
			C582.3,321.7,582,322,581.6,322z"/>
	</g>
</g>
<g>
	<g>
		<g>
			<path class="st1" d="M62,54.7H10.6c-0.5,0-1-0.4-1-1v-52c0-0.5,0.4-1,1-1s1,0.4,1,1v51H62c0.5,0,1,0.4,1,1S62.6,54.7,62,54.7z"/>
		</g>
		<g>
			<path class="st1" d="M6.3,2.7H2c-0.5,0-1-0.4-1-1s0.4-1,1-1h4.4c0.5,0,1,0.4,1,1S6.9,2.7,6.3,2.7z"/>
		</g>
		<g>
			<path class="st1" d="M6.3,15.7H2c-0.5,0-1-0.4-1-1s0.4-1,1-1h4.4c0.5,0,1,0.4,1,1S6.9,15.7,6.3,15.7z"/>
		</g>
		<g>
			<path class="st1" d="M6.3,28.7H2c-0.5,0-1-0.4-1-1s0.4-1,1-1h4.4c0.5,0,1,0.4,1,1S6.9,28.7,6.3,28.7z"/>
		</g>
		<g>
			<path class="st1" d="M6.3,41.7H2c-0.5,0-1-0.4-1-1s0.4-1,1-1h4.4c0.5,0,1,0.4,1,1S6.9,41.7,6.3,41.7z"/>
		</g>
		<g>
			<path class="st1" d="M6.3,54.7H2c-0.5,0-1-0.4-1-1s0.4-1,1-1h4.4c0.5,0,1,0.4,1,1S6.9,54.7,6.3,54.7z"/>
		</g>
		<g>
			<path class="st1" d="M10.6,63.2c-0.5,0-1-0.4-1-1v-4.4c0-0.5,0.4-1,1-1s1,0.4,1,1v4.4C11.5,62.8,11.1,63.2,10.6,63.2z"/>
		</g>
		<g>
			<path class="st1" d="M23.4,63.2c-0.5,0-1-0.4-1-1v-4.4c0-0.5,0.4-1,1-1s1,0.4,1,1v4.4C24.4,62.8,24,63.2,23.4,63.2z"/>
		</g>
		<g>
			<path class="st1" d="M36.3,63.2c-0.5,0-1-0.4-1-1v-4.4c0-0.5,0.4-1,1-1s1,0.4,1,1v4.4C37.3,62.8,36.8,63.2,36.3,63.2z"/>
		</g>
		<g>
			<path class="st1" d="M49.2,63.2c-0.5,0-1-0.4-1-1v-4.4c0-0.5,0.4-1,1-1s1,0.4,1,1v4.4C50.1,62.8,49.7,63.2,49.2,63.2z"/>
		</g>
		<g>
			<path class="st1" d="M62,63.2c-0.5,0-1-0.4-1-1v-4.4c0-0.5,0.4-1,1-1s1,0.4,1,1v4.4C63,62.8,62.6,63.2,62,63.2z"/>
		</g>
	</g>
	<g>
		<g>
			<path class="st1" d="M48.3,20.8c-0.2,0-0.5-0.1-0.6-0.2c-0.4-0.4-0.4-1-0.1-1.4l8.7-10c0.4-0.4,1-0.4,1.4-0.1
				c0.4,0.4,0.4,1,0.1,1.4l-8.7,10C48.8,20.7,48.6,20.8,48.3,20.8z"/>
		</g>
		<g>
			<path class="st1" d="M34.7,24.1c-0.5,0-0.9-0.4-1-0.9c0-0.5,0.3-1,0.9-1.1l8.5-0.8c0.5,0,1,0.3,1.1,0.9c0,0.5-0.3,1-0.9,1.1
				L34.7,24.1C34.7,24.1,34.7,24.1,34.7,24.1z"/>
		</g>
		<g>
			<path class="st1" d="M21.9,41.5c-0.2,0-0.3,0-0.5-0.1c-0.5-0.2-0.7-0.8-0.4-1.3l7.3-13.9c0.2-0.5,0.8-0.7,1.3-0.4
				c0.5,0.2,0.7,0.8,0.4,1.3L22.8,41C22.6,41.3,22.3,41.5,21.9,41.5z"/>
		</g>
		<g>
			<ellipse transform="matrix(0.9652 -0.2614 0.2614 0.9652 -10.536 6.8768)" class="st1" cx="20.6" cy="43.1" rx="2.9" ry="2.9"/>
			<path class="st1" d="M20.6,46.9c-1.7,0-3.2-1.1-3.7-2.8c-0.3-1-0.1-2,0.4-2.9c0.5-0.9,1.3-1.5,2.3-1.8c1-0.3,2-0.1,2.9,0.4
				c0.9,0.5,1.5,1.3,1.8,2.3c0.6,2-0.7,4.1-2.7,4.7C21.3,46.8,20.9,46.9,20.6,46.9z M20.6,41.2c-0.2,0-0.3,0-0.5,0.1
				c-0.5,0.1-0.9,0.4-1.1,0.9c-0.3,0.4-0.3,0.9-0.2,1.4c0.1,0.5,0.4,0.9,0.9,1.1c0.4,0.3,1,0.3,1.4,0.2c1-0.3,1.6-1.3,1.3-2.3
				c-0.1-0.5-0.4-0.9-0.9-1.1C21.2,41.2,20.9,41.2,20.6,41.2z"/>
		</g>
		<g>
			<ellipse transform="matrix(0.9652 -0.2614 0.2614 0.9652 -5.0699 8.902)" class="st1" cx="30.9" cy="23.5" rx="2.9" ry="2.9"/>
			<path class="st1" d="M30.9,27.3c-1.7,0-3.2-1.1-3.7-2.8c-0.6-2,0.7-4.1,2.7-4.7c1-0.3,2-0.1,2.9,0.4c0.9,0.5,1.5,1.3,1.8,2.3
				c0.6,2-0.7,4.1-2.7,4.7C31.6,27.3,31.3,27.3,30.9,27.3z M30.9,21.6c-0.2,0-0.3,0-0.5,0.1c-1,0.3-1.6,1.3-1.3,2.3
				c0.3,1,1.3,1.6,2.3,1.3c1-0.3,1.6-1.3,1.3-2.3l0,0c-0.1-0.5-0.4-0.9-0.9-1.1C31.6,21.7,31.3,21.6,30.9,21.6z"/>
		</g>
		<g>
			<ellipse transform="matrix(0.9652 -0.2614 0.2614 0.9652 -4.1587 12.8592)" class="st1" cx="46.3" cy="22.1" rx="2.9" ry="2.9"/>
			<path class="st1" d="M46.3,25.9c-1.7,0-3.2-1.1-3.7-2.8c-0.6-2,0.7-4.1,2.7-4.7c1-0.3,2-0.1,2.9,0.4c0.9,0.5,1.5,1.3,1.8,2.3
				c0.3,1,0.1,2-0.4,2.9c-0.5,0.9-1.3,1.5-2.3,1.8C46.9,25.8,46.6,25.9,46.3,25.9z M46.3,20.2c-0.2,0-0.3,0-0.5,0.1
				c-1,0.3-1.6,1.3-1.3,2.3c0.3,1,1.3,1.6,2.3,1.3c0.5-0.1,0.9-0.4,1.1-0.9c0.3-0.4,0.3-0.9,0.2-1.4v0c-0.1-0.5-0.4-0.9-0.9-1.1
				C46.9,20.3,46.6,20.2,46.3,20.2z"/>
		</g>
		<g>
			
				<ellipse transform="matrix(0.9652 -0.2614 0.2614 0.9652 8.022457e-02 15.6894)" class="st1" cx="59" cy="7.5" rx="2.9" ry="2.9"/>
			<path class="st1" d="M59,11.4c-1.7,0-3.2-1.1-3.7-2.8c-0.6-2,0.7-4.1,2.7-4.7c2-0.5,4.1,0.7,4.7,2.7l0,0c0.6,2-0.7,4.1-2.7,4.7
				C59.7,11.3,59.4,11.4,59,11.4z M59,5.7c-0.2,0-0.3,0-0.5,0.1C57.5,6,56.9,7,57.2,8c0.3,1,1.3,1.6,2.3,1.3c1-0.3,1.6-1.3,1.3-2.3
				l0,0C60.6,6.2,59.9,5.7,59,5.7z"/>
		</g>
	</g>
</g>
</svg>
