<?xml version="1.0" encoding="utf-8"?>
<!-- Generator: Adobe Illustrator 19.2.1, SVG Export Plug-In . SVG Version: 6.00 Build 0)  -->
<svg version="1.1" id="Layer_1" xmlns="http://www.w3.org/2000/svg" xmlns:xlink="http://www.w3.org/1999/xlink" x="0px" y="0px"
	 viewBox="0 0 64 64" style="enable-background:new 0 0 64 64;" xml:space="preserve">
<metadata><?xpacket begin="﻿" id="W5M0MpCehiHzreSzNTczkc9d"?>
<x:xmpmeta xmlns:x="adobe:ns:meta/" x:xmptk="Adobe XMP Core 5.6-c111 79.158366, 2015/09/25-01:12:00        ">
   <rdf:RDF xmlns:rdf="http://www.w3.org/1999/02/22-rdf-syntax-ns#">
      <rdf:Description rdf:about=""/>
   </rdf:RDF>
</x:xmpmeta>
                                                                                                    
                                                                                                    
                                                                                                    
                                                                                                    
                                                                                                    
                                                                                                    
                                                                                                    
                                                                                                    
                                                                                                    
                                                                                                    
                                                                                                    
                                                                                                    
                                                                                                    
                                                                                                    
                                                                                                    
                                                                                                    
                                                                                                    
                                                                                                    
                                                                                                    
                                                                                                    
                           
<?xpacket end="w"?></metadata>
<style type="text/css">
	.st0{fill:none;}
	.st1{fill:#5B554D;}
</style>
<rect class="st0" width="64" height="64"/>
<g>
	<g>
		<g>
			<path class="st1" d="M38.5,21.3c-0.3,0-0.5-0.1-0.7-0.4c-0.2-0.4-0.1-0.9,0.2-1.1l8.5-5.7c0.4-0.2,0.9-0.1,1.1,0.2
				c0.2,0.4,0.1,0.9-0.2,1.1l-8.5,5.7C38.8,21.2,38.6,21.3,38.5,21.3z"/>
		</g>
		<g>
			<path class="st1" d="M34.2,22.2L34.2,22.2L27.6,21c-0.4-0.1-0.7-0.5-0.6-0.9s0.5-0.7,0.9-0.6l6.4,1.1c0.4,0.1,0.7,0.5,0.6,0.9
				C34.9,21.9,34.5,22.2,34.2,22.2z"/>
		</g>
		<g>
			<path class="st1" d="M14.9,31.3c-0.2,0-0.4-0.1-0.5-0.2c-0.3-0.3-0.3-0.8,0-1.1l8.2-8.8c0.3-0.3,0.8-0.3,1.1,0
				c0.3,0.3,0.3,0.8,0,1.1l-8.2,8.8C15.3,31.2,15.1,31.3,14.9,31.3z"/>
		</g>
		<g>
			<circle class="st1" cx="13.4" cy="32.1" r="2.2"/>
			<path class="st1" d="M13.4,35.1c-1.6,0-3-1.3-3-3c0-1.6,1.3-3,3-3c1.6,0,3,1.3,3,3C16.3,33.7,15,35.1,13.4,35.1z M13.4,30.7
				c-0.8,0-1.4,0.6-1.4,1.4c0,0.8,0.6,1.4,1.4,1.4c0.8,0,1.4-0.6,1.4-1.4C14.7,31.3,14.1,30.7,13.4,30.7z"/>
		</g>
		<g>
			<circle class="st1" cx="24.9" cy="19.7" r="2.2"/>
			<path class="st1" d="M24.9,22.7c-1.6,0-3-1.3-3-3c0-1.6,1.3-3,3-3c1.6,0,3,1.3,3,3C27.9,21.4,26.6,22.7,24.9,22.7z M24.9,18.3
				c-0.8,0-1.4,0.6-1.4,1.4s0.6,1.4,1.4,1.4s1.4-0.6,1.4-1.4C26.3,19,25.7,18.3,24.9,18.3z"/>
		</g>
		<g>
			<circle class="st1" cx="36.5" cy="21.7" r="2.2"/>
			<path class="st1" d="M36.5,24.7c-1.6,0-3-1.3-3-3c0-1.6,1.3-3,3-3c1.6,0,3,1.3,3,3C39.5,23.4,38.2,24.7,36.5,24.7z M36.5,20.3
				c-0.8,0-1.4,0.6-1.4,1.4s0.6,1.4,1.4,1.4c0.8,0,1.4-0.6,1.4-1.4S37.3,20.3,36.5,20.3z"/>
		</g>
		<g>
			<circle class="st1" cx="48.9" cy="13.5" r="2.2"/>
			<path class="st1" d="M48.9,16.5c-1.6,0-3-1.3-3-3c0-1.6,1.3-3,3-3c1.6,0,3,1.3,3,3S50.5,16.5,48.9,16.5z M48.9,12.2
				c-0.8,0-1.4,0.6-1.4,1.4s0.6,1.4,1.4,1.4c0.8,0,1.4-0.6,1.4-1.4S49.6,12.2,48.9,12.2z"/>
		</g>
	</g>
	<g>
		<g>
			<g>
				<path class="st1" d="M56.2,39.3H7.8C7.4,39.3,7,39,7,38.5V6.3c0-0.4,0.4-0.8,0.8-0.8h48.3c0.4,0,0.8,0.4,0.8,0.8v32.3
					C57,39,56.6,39.3,56.2,39.3z M8.6,37.7h46.7V7.1H8.6V37.7z"/>
			</g>
		</g>
		<g>
			<g>
				<path class="st1" d="M62.2,6.9H1.8C1.4,6.9,1,6.5,1,6.1s0.4-0.8,0.8-0.8h60.4c0.4,0,0.8,0.4,0.8,0.8S62.6,6.9,62.2,6.9z"/>
			</g>
			<g>
				<path class="st1" d="M62.2,39.7H1.8c-0.4,0-0.8-0.4-0.8-0.8s0.4-0.8,0.8-0.8h60.4c0.4,0,0.8,0.4,0.8,0.8S62.6,39.7,62.2,39.7z"
					/>
			</g>
		</g>
		<g>
			<g>
				<path class="st1" d="M14.5,58.7c-0.2,0-0.4-0.1-0.6-0.2c-0.3-0.3-0.3-0.8,0-1.1L26.3,45c0.3-0.3,0.8-0.3,1.1,0
					c0.3,0.3,0.3,0.8,0,1.1L15.1,58.5C14.9,58.6,14.7,58.7,14.5,58.7z"/>
			</g>
			<g>
				<path class="st1" d="M49.5,58.5c-0.2,0-0.4-0.1-0.6-0.2L36.7,46.1c-0.3-0.3-0.3-0.8,0-1.1s0.8-0.3,1.1,0L50,57.2
					c0.3,0.3,0.3,0.8,0,1.1C49.9,58.4,49.7,58.5,49.5,58.5z"/>
			</g>
		</g>
	</g>
</g>
</svg>
