<?xml version="1.0" encoding="utf-8"?>
<!-- Generator: Adobe Illustrator 19.2.1, SVG Export Plug-In . SVG Version: 6.00 Build 0)  -->
<svg version="1.1" id="Layer_1" xmlns="http://www.w3.org/2000/svg" xmlns:xlink="http://www.w3.org/1999/xlink" x="0px" y="0px"
	 viewBox="0 0 64 64" style="enable-background:new 0 0 64 64;" xml:space="preserve">
<metadata><?xpacket begin="﻿" id="W5M0MpCehiHzreSzNTczkc9d"?>
<x:xmpmeta xmlns:x="adobe:ns:meta/" x:xmptk="Adobe XMP Core 5.6-c111 79.158366, 2015/09/25-01:12:00        ">
   <rdf:RDF xmlns:rdf="http://www.w3.org/1999/02/22-rdf-syntax-ns#">
      <rdf:Description rdf:about=""/>
   </rdf:RDF>
</x:xmpmeta>
                                                                                                    
                                                                                                    
                                                                                                    
                                                                                                    
                                                                                                    
                                                                                                    
                                                                                                    
                                                                                                    
                                                                                                    
                                                                                                    
                                                                                                    
                                                                                                    
                                                                                                    
                                                                                                    
                                                                                                    
                                                                                                    
                                                                                                    
                                                                                                    
                                                                                                    
                                                                                                    
                           
<?xpacket end="w"?></metadata>
<style type="text/css">
	.st0{fill:none;}
	.st1{fill:#5B554D;}
</style>
<rect class="st0" width="64" height="64"/>
<g>
	<g>
		<g>
			<path class="st1" d="M56.1,57.2c-0.5,0-0.9-0.4-0.9-0.9V40.4c0-0.5,0.4-0.9,0.9-0.9S57,40,57,40.4v15.8
				C57,56.8,56.6,57.2,56.1,57.2z"/>
		</g>
		<g>
			<path class="st1" d="M47.7,57.2c-0.5,0-0.9-0.4-0.9-0.9V33.7c0-0.5,0.4-0.9,0.9-0.9s0.9,0.4,0.9,0.9v22.6
				C48.5,56.8,48.1,57.2,47.7,57.2z"/>
		</g>
		<g>
			<path class="st1" d="M39.2,57.2c-0.5,0-0.9-0.4-0.9-0.9V25.5c0-0.5,0.4-0.9,0.9-0.9s0.9,0.4,0.9,0.9v30.8
				C40.1,56.8,39.7,57.2,39.2,57.2z"/>
		</g>
		<g>
			<path class="st1" d="M30.7,57.2c-0.5,0-0.9-0.4-0.9-0.9V33.6c0-0.5,0.4-0.9,0.9-0.9s0.9,0.4,0.9,0.9v22.7
				C31.6,56.8,31.2,57.2,30.7,57.2z"/>
		</g>
		<g>
			<path class="st1" d="M22.2,57.2c-0.5,0-0.9-0.4-0.9-0.9V39.4c0-0.5,0.4-0.9,0.9-0.9s0.9,0.4,0.9,0.9v16.9
				C23.1,56.8,22.7,57.2,22.2,57.2z"/>
		</g>
		<g>
			<path class="st1" d="M13.7,57.2c-0.5,0-0.9-0.4-0.9-0.9V32.6c0-0.5,0.4-0.9,0.9-0.9s0.9,0.4,0.9,0.9v23.7
				C14.6,56.8,14.2,57.2,13.7,57.2z"/>
		</g>
		<g>
			<path class="st1" d="M5.2,57.2c-0.5,0-0.9-0.4-0.9-0.9V27.5c0-0.5,0.4-0.9,0.9-0.9s0.9,0.4,0.9,0.9v28.8
				C6.1,56.8,5.7,57.2,5.2,57.2z"/>
		</g>
	</g>
	<g>
		<g>
			<path class="st1" d="M51.9,31.8c-0.5,0-0.9-0.4-0.9-0.9s0.4-0.9,0.9-0.9h8.7c0.2,0,0.3-0.1,0.4-0.2c0.1-0.1,0.2-0.2,0.2-0.4v-8.7
				c0-0.5,0.4-0.9,0.9-0.9l0,0c0.5,0,0.9,0.4,0.9,0.9v8.7c0,0.6-0.2,1.2-0.7,1.7c-0.4,0.4-1,0.7-1.7,0.7L51.9,31.8L51.9,31.8z"/>
		</g>
		<g>
			<path class="st1" d="M60,29.8c-0.2,0-0.4-0.1-0.6-0.2l-20-18L22.6,28.4c-0.4,0.4-0.9,0.4-1.3,0l-20-20c-0.4-0.4-0.4-1,0-1.3
				c0.4-0.4,0.9-0.4,1.3,0L22,26.5L38.7,9.7c0.3-0.3,0.9-0.4,1.2,0l20.6,18.6c0.4,0.3,0.4,0.9,0.1,1.3C60.5,29.7,60.2,29.8,60,29.8z
				"/>
		</g>
	</g>
</g>
</svg>
