<?xml version="1.0" encoding="utf-8"?>
<!-- Generator: Adobe Illustrator 19.2.1, SVG Export Plug-In . SVG Version: 6.00 Build 0)  -->
<svg version="1.1" id="Layer_1" xmlns="http://www.w3.org/2000/svg" xmlns:xlink="http://www.w3.org/1999/xlink" x="0px" y="0px"
	 viewBox="0 0 64 64" style="enable-background:new 0 0 64 64;" xml:space="preserve">
<metadata><?xpacket begin="﻿" id="W5M0MpCehiHzreSzNTczkc9d"?>
<x:xmpmeta xmlns:x="adobe:ns:meta/" x:xmptk="Adobe XMP Core 5.6-c111 79.158366, 2015/09/25-01:12:00        ">
   <rdf:RDF xmlns:rdf="http://www.w3.org/1999/02/22-rdf-syntax-ns#">
      <rdf:Description rdf:about=""/>
   </rdf:RDF>
</x:xmpmeta>
                                                                                                    
                                                                                                    
                                                                                                    
                                                                                                    
                                                                                                    
                                                                                                    
                                                                                                    
                                                                                                    
                                                                                                    
                                                                                                    
                                                                                                    
                                                                                                    
                                                                                                    
                                                                                                    
                                                                                                    
                                                                                                    
                                                                                                    
                                                                                                    
                                                                                                    
                                                                                                    
                           
<?xpacket end="w"?></metadata>
<style type="text/css">
	.st0{fill:none;}
	.st1{fill:#5B554D;}
</style>
<rect class="st0" width="64" height="64"/>
<g>
	<g>
		<g>
			<path class="st1" d="M62,58.3H2c-0.6,0-1-0.4-1-1V6.7c0-0.6,0.4-1,1-1s1,0.4,1,1v49.7h59c0.6,0,1,0.4,1,1S62.6,58.3,62,58.3z"/>
		</g>
	</g>
	<g>
		<g>
			<g>
				<path class="st1" d="M14.1,57.2c-0.6,0-1-0.4-1-1V40.4c0-0.6,0.4-1,1-1s1,0.4,1,1v15.8C15.1,56.8,14.6,57.2,14.1,57.2z"/>
			</g>
			<g>
				<path class="st1" d="M20.5,57.2c-0.6,0-1-0.4-1-1v-21c0-0.6,0.4-1,1-1s1,0.4,1,1v21C21.5,56.8,21.1,57.2,20.5,57.2z"/>
			</g>
			<g>
				<path class="st1" d="M27,57.2c-0.6,0-1-0.4-1-1V29c0-0.6,0.4-1,1-1s1,0.4,1,1v27.2C28,56.8,27.6,57.2,27,57.2z"/>
			</g>
			<g>
				<path class="st1" d="M33.5,57.2c-0.6,0-1-0.4-1-1V35.1c0-0.6,0.4-1,1-1s1,0.4,1,1v21.1C34.5,56.8,34.1,57.2,33.5,57.2z"/>
			</g>
			<g>
				<path class="st1" d="M40,57.2c-0.6,0-1-0.4-1-1V39.6c0-0.6,0.4-1,1-1s1,0.4,1,1v16.6C41,56.8,40.5,57.2,40,57.2z"/>
			</g>
			<g>
				<path class="st1" d="M46.5,57.2c-0.6,0-1-0.4-1-1V34.4c0-0.6,0.4-1,1-1s1,0.4,1,1v21.8C47.5,56.8,47,57.2,46.5,57.2z"/>
			</g>
			<g>
				<path class="st1" d="M53,57.2c-0.6,0-1-0.4-1-1V30.5c0-0.6,0.4-1,1-1s1,0.4,1,1v25.7C54,56.8,53.5,57.2,53,57.2z"/>
			</g>
		</g>
		<g>
			<g>
				<path class="st1" d="M55.9,23.8c-0.5,0-1-0.4-1-1v-6.7L54.8,16h-6.7c-0.5,0-1-0.5-1-1s0.4-1,1-1l0,0h6.7c0.6,0,1.1,0.2,1.5,0.6
					c0.4,0.4,0.6,0.9,0.6,1.5v6.7C56.9,23.3,56.4,23.8,55.9,23.8L55.9,23.8z"/>
			</g>
			<g>
				<path class="st1" d="M11.1,32.6c-0.3,0-0.5-0.1-0.7-0.3c-0.4-0.4-0.3-1,0.1-1.4l15.7-14.2c0.4-0.4,1-0.3,1.4,0l12.6,12.6
					l14.6-14.6c0.4-0.4,1-0.4,1.4,0s0.4,1,0,1.4L40.9,31.4c-0.4,0.4-1,0.4-1.4,0L26.8,18.8l-15,13.6C11.6,32.5,11.4,32.6,11.1,32.6z
					"/>
			</g>
		</g>
	</g>
</g>
</svg>
