<?xml version="1.0" encoding="utf-8"?>
<!-- Generator: Adobe Illustrator 19.2.1, SVG Export Plug-In . SVG Version: 6.00 Build 0)  -->
<svg version="1.1" id="Layer_1" xmlns="http://www.w3.org/2000/svg" xmlns:xlink="http://www.w3.org/1999/xlink" x="0px" y="0px"
	 viewBox="0 0 64 64" style="enable-background:new 0 0 64 64;" xml:space="preserve">
<metadata><?xpacket begin="﻿" id="W5M0MpCehiHzreSzNTczkc9d"?>
<x:xmpmeta xmlns:x="adobe:ns:meta/" x:xmptk="Adobe XMP Core 5.6-c111 79.158366, 2015/09/25-01:12:00        ">
   <rdf:RDF xmlns:rdf="http://www.w3.org/1999/02/22-rdf-syntax-ns#">
      <rdf:Description rdf:about=""/>
   </rdf:RDF>
</x:xmpmeta>
                                                                                                    
                                                                                                    
                                                                                                    
                                                                                                    
                                                                                                    
                                                                                                    
                                                                                                    
                                                                                                    
                                                                                                    
                                                                                                    
                                                                                                    
                                                                                                    
                                                                                                    
                                                                                                    
                                                                                                    
                                                                                                    
                                                                                                    
                                                                                                    
                                                                                                    
                                                                                                    
                           
<?xpacket end="w"?></metadata>
<style type="text/css">
	.st0{fill:none;}
	.st1{fill:#5B554D;}
</style>
<rect class="st0" width="64" height="64"/>
<g>
	<g>
		<g>
			<path class="st1" d="M36.7,63H6.1c-1.1,0-2.1-0.4-2.7-1.2C2.9,61,2.7,60,2.9,58.9c0,0,0.1-0.5,0.3-1.2c1-4.2,3.6-13.7,5.4-16.3
				c3.3-4.7,8.9-4.6,9.1-4.6l5.7,0c0.3,0,7.7-0.2,10.5,4.8c2.1,2.7,5,12.8,5.9,16.6l0.1,0.6c0.3,1,0.1,2.1-0.5,2.8
				C38.8,62.6,37.8,63,36.7,63z M17.6,38.6c-0.6,0-5.1,0.1-7.7,3.9C8.5,44.5,6,52.9,4.8,58.2c-0.2,0.7-0.2,1-0.2,1.1
				c-0.2,0.7-0.1,1.2,0.2,1.5c0.3,0.4,0.8,0.6,1.4,0.6h30.6c0.6,0,1.1-0.2,1.3-0.6c0.3-0.4,0.4-0.9,0.2-1.4c0,0,0,0,0-0.1l-0.1-0.6
				c-1-4.2-3.9-13.8-5.6-15.9c0,0-0.1-0.1-0.1-0.1c-2.3-4.2-9-4-9.1-4L17.6,38.6C17.7,38.6,17.6,38.6,17.6,38.6z M21.4,34.2
				c-7,0-12.7-5.7-12.7-12.7c0-7,5.7-12.7,12.7-12.7c7,0,12.7,5.7,12.7,12.7C34.1,28.5,28.4,34.2,21.4,34.2z M21.4,10.4
				c-6.1,0-11.1,5-11.1,11.1c0,6.1,5,11.1,11.1,11.1c6.1,0,11.1-5,11.1-11.1C32.4,15.4,27.5,10.4,21.4,10.4z"/>
		</g>
	</g>
	<g>
		<g>
			<path class="st1" d="M38.2,32c-0.2,0-0.5-0.1-0.6-0.3c-0.3-0.3-0.3-0.7,0-1.1l3.2-3.8c-1.3-0.3-2.5-0.7-3.7-1.3
				c-0.4-0.2-0.6-0.7-0.4-1.1c0.2-0.4,0.7-0.6,1.1-0.4c1.4,0.7,3,1.2,4.6,1.4c0.3,0,0.5,0.2,0.6,0.5c0.1,0.3,0.1,0.6-0.1,0.8
				l-1.2,1.4l4.4-2.5c0.1-0.1,0.2-0.1,0.4-0.1c7.4-0.5,13.1-5.5,13.1-11.4c0-6.3-6.4-11.5-14.4-11.5c-5.6,0-10.7,2.6-13,6.7
				c-0.2,0.4-0.7,0.5-1.1,0.3c-0.4-0.2-0.5-0.7-0.3-1.1C33.4,3.9,39,1,45.2,1c8.8,0,16,5.9,16,13.1c0,6.7-6.3,12.4-14.5,13.1
				l-8.1,4.6C38.4,31.9,38.3,32,38.2,32z"/>
		</g>
	</g>
</g>
</svg>
