<?xml version="1.0" encoding="utf-8"?>
<!-- Generator: Adobe Illustrator 19.2.1, SVG Export Plug-In . SVG Version: 6.00 Build 0)  -->
<svg version="1.1" id="Layer_1" xmlns="http://www.w3.org/2000/svg" xmlns:xlink="http://www.w3.org/1999/xlink" x="0px" y="0px"
	 viewBox="0 0 64 64" style="enable-background:new 0 0 64 64;" xml:space="preserve">
<metadata><?xpacket begin="﻿" id="W5M0MpCehiHzreSzNTczkc9d"?>
<x:xmpmeta xmlns:x="adobe:ns:meta/" x:xmptk="Adobe XMP Core 5.6-c111 79.158366, 2015/09/25-01:12:00        ">
   <rdf:RDF xmlns:rdf="http://www.w3.org/1999/02/22-rdf-syntax-ns#">
      <rdf:Description rdf:about=""/>
   </rdf:RDF>
</x:xmpmeta>
                                                                                                    
                                                                                                    
                                                                                                    
                                                                                                    
                                                                                                    
                                                                                                    
                                                                                                    
                                                                                                    
                                                                                                    
                                                                                                    
                                                                                                    
                                                                                                    
                                                                                                    
                                                                                                    
                                                                                                    
                                                                                                    
                                                                                                    
                                                                                                    
                                                                                                    
                                                                                                    
                           
<?xpacket end="w"?></metadata>
<style type="text/css">
	.st0{fill:none;}
	.st1{fill:#5B554D;}
</style>
<rect class="st0" width="64" height="64"/>
<g>
	<g>
		<g>
			<path class="st1" d="M36.6,62.2H5.5c-1.1,0-2.1-0.5-2.7-1.2c-0.6-0.8-0.8-1.8-0.5-2.9c0,0,0.1-0.5,0.3-1.2
				C3.6,52.6,6.2,43,8,40.4c3.3-4.8,9-4.7,9.3-4.6l5.8,0c0.3,0,7.8-0.2,10.7,4.9c2.1,2.7,5.1,13,5.9,16.8l0.1,0.7
				c0.3,1.1,0.1,2.1-0.5,2.9C38.7,61.8,37.7,62.2,36.6,62.2z M17.2,37.4c-0.6,0-5.2,0.1-7.8,3.9c-1.4,2.1-4,10.6-5.2,16
				C4,58,3.9,58.3,3.9,58.4c-0.2,0.7-0.1,1.2,0.2,1.6c0.3,0.4,0.8,0.6,1.4,0.6h31.1c0.6,0,1.1-0.2,1.4-0.6c0.3-0.4,0.4-0.9,0.2-1.5
				c0,0,0,0,0-0.1l-0.1-0.7c-1-4.3-3.9-14-5.7-16.2c0,0-0.1-0.1-0.1-0.1c-2.3-4.2-9.1-4.1-9.2-4.1L17.2,37.4
				C17.3,37.4,17.2,37.4,17.2,37.4z M21,32.9c-7.1,0-12.9-5.8-12.9-12.9c0-7.1,5.8-12.9,12.9-12.9c7.1,0,12.9,5.8,12.9,12.9
				C33.9,27.2,28.1,32.9,21,32.9z M21,8.8c-6.2,0-11.2,5-11.2,11.2c0,6.2,5,11.2,11.2,11.2c6.2,0,11.2-5,11.2-11.2
				C32.2,13.9,27.2,8.8,21,8.8z"/>
		</g>
	</g>
	<g>
		<g>
			<path class="st1" d="M59.3,63H42.9c-0.5,0-0.8-0.4-0.8-0.8s0.4-0.8,0.8-0.8h16.5c0.3,0,0.5-0.1,0.7-0.3c0.1-0.2,0.2-0.4,0.1-0.7
				L60,59.8c-0.7-2.8-2.5-9.1-3.7-10.5c0,0-0.1-0.1-0.1-0.1c-1.4-2.6-5.7-2.5-5.8-2.5h-3.9c-0.2,0-3.2-0.1-4.9,2.5
				c0,0.1-0.1,0.2-0.1,0.3l-0.8-0.3L40,48.7c0.1-0.2,0.2-0.4,0.3-0.5c2.3-3.3,6.2-3.2,6.4-3.2l3.8,0c0.2,0,5.3-0.1,7.2,3.3
				c1.5,2,3.4,8.9,3.9,11.2l0.1,0.5c0.2,0.7,0.1,1.5-0.4,2.1C60.9,62.7,60.2,63,59.3,63z M49.1,43.7c-4.8,0-8.8-3.9-8.8-8.8
				c0-4.8,3.9-8.8,8.8-8.8c4.8,0,8.8,3.9,8.8,8.8C57.8,39.8,53.9,43.7,49.1,43.7z M49.1,27.9c-3.9,0-7.1,3.2-7.1,7.1
				c0,3.9,3.2,7.1,7.1,7.1c3.9,0,7.1-3.2,7.1-7.1C56.2,31.1,53,27.9,49.1,27.9z"/>
		</g>
	</g>
	<g>
		<path class="st1" d="M37.7,28.9c-0.2,0-0.5-0.1-0.6-0.3c-0.3-0.3-0.3-0.8,0-1.1l2.8-3.3c-1.1-0.3-2.2-0.7-3.2-1.2
			c-0.4-0.2-0.6-0.7-0.4-1.1c0.2-0.4,0.7-0.6,1.1-0.4c1.3,0.6,2.7,1.1,4.1,1.3c0.3,0,0.5,0.3,0.7,0.5c0.1,0.3,0.1,0.6-0.1,0.8
			l-0.7,0.9l3.4-2c0.1-0.1,0.2-0.1,0.4-0.1c6.5-0.4,11.7-4.9,11.7-10.1C56.7,7.2,51,2.7,44,2.7C39,2.7,34.5,5,32.4,8.6
			c-0.2,0.4-0.7,0.5-1.1,0.3c-0.4-0.2-0.5-0.7-0.3-1.1C33.3,3.7,38.4,1,44,1c8,0,14.4,5.3,14.4,11.9c0,6.1-5.7,11.2-13,11.8
			l-7.3,4.1C38,28.9,37.8,28.9,37.7,28.9z"/>
	</g>
</g>
</svg>
