<?xml version="1.0" encoding="utf-8"?>
<!-- Generator: Adobe Illustrator 19.2.1, SVG Export Plug-In . SVG Version: 6.00 Build 0)  -->
<svg version="1.1" id="Layer_1" xmlns="http://www.w3.org/2000/svg" xmlns:xlink="http://www.w3.org/1999/xlink" x="0px" y="0px"
	 viewBox="0 0 64 64" style="enable-background:new 0 0 64 64;" xml:space="preserve">
<metadata><?xpacket begin="﻿" id="W5M0MpCehiHzreSzNTczkc9d"?>
<x:xmpmeta xmlns:x="adobe:ns:meta/" x:xmptk="Adobe XMP Core 5.6-c111 79.158366, 2015/09/25-01:12:00        ">
   <rdf:RDF xmlns:rdf="http://www.w3.org/1999/02/22-rdf-syntax-ns#">
      <rdf:Description rdf:about=""/>
   </rdf:RDF>
</x:xmpmeta>
                                                                                                    
                                                                                                    
                                                                                                    
                                                                                                    
                                                                                                    
                                                                                                    
                                                                                                    
                                                                                                    
                                                                                                    
                                                                                                    
                                                                                                    
                                                                                                    
                                                                                                    
                                                                                                    
                                                                                                    
                                                                                                    
                                                                                                    
                                                                                                    
                                                                                                    
                                                                                                    
                           
<?xpacket end="w"?></metadata>
<style type="text/css">
	.st0{fill:none;}
	.st1{fill:#5B554D;}
</style>
<rect class="st0" width="64" height="64"/>
<g>
	<g>
		<path class="st1" d="M59.2,61.8H5.9c-2.1,0-3.8-1.7-3.8-3.8l0-36.7L1,14.4c0-0.3,0-0.5,0.2-0.8c0.2-0.2,0.4-0.4,0.7-0.4l1-0.1
			L60.1,2.2c0.3,0,0.5,0,0.8,0.2c0.2,0.2,0.4,0.4,0.4,0.6l1.3,6.9c0.1,0.5-0.3,1.1-0.8,1.2l-46,8.8H62c0.6,0,1,0.4,1,1V58
			C63,60.1,61.3,61.8,59.2,61.8z M4.1,21L4.1,21c0,0.1,0,0.2,0,0.2l0,36.8c0,1,0.8,1.8,1.8,1.8h53.4c1,0,1.8-0.8,1.8-1.8V21.8H5.1
			C4.6,21.8,4.2,21.5,4.1,21z M3.2,15.1L4.1,21c0,0,0,0,0,0c0-0.5,0.3-1,0.8-1.1L60.3,9.3l-0.9-4.9L3.2,15.1z"/>
	</g>
	<g>
		<path class="st1" d="M32.6,28.8c-0.3,0-0.5-0.1-0.7-0.3c-0.4-0.4-0.4-1,0-1.4l6.6-6.5c0.4-0.4,1-0.4,1.4,0c0.4,0.4,0.4,1,0,1.4
			l-6.6,6.5C33.2,28.7,32.9,28.8,32.6,28.8z M21.6,28.8c-0.3,0-0.5-0.1-0.7-0.3c-0.4-0.4-0.4-1,0-1.4l6.6-6.5c0.4-0.4,1-0.4,1.4,0
			c0.4,0.4,0.4,1,0,1.4l-6.6,6.5C22.1,28.7,21.9,28.8,21.6,28.8z M10.8,28.8c-0.3,0-0.5-0.1-0.7-0.3c-0.4-0.4-0.4-1,0-1.4l6.6-6.5
			c0.4-0.4,1-0.4,1.4,0c0.4,0.4,0.4,1,0,1.4l-6.6,6.5C11.3,28.7,11,28.8,10.8,28.8z M43.7,28.8c-0.3,0-0.5-0.1-0.7-0.3
			c-0.4-0.4-0.4-1,0-1.4l6.6-6.5c0.4-0.4,1-0.4,1.4,0c0.4,0.4,0.4,1,0,1.4l-6.6,6.5C44.2,28.7,44,28.8,43.7,28.8z M38.3,28.8
			c-0.3,0-0.5-0.1-0.7-0.3c-0.4-0.4-0.4-1,0-1.4l6.6-6.5c0.4-0.4,1-0.4,1.4,0c0.4,0.4,0.4,1,0,1.4L39,28.5
			C38.8,28.7,38.5,28.8,38.3,28.8z M16.2,28.8c-0.3,0-0.5-0.1-0.7-0.3c-0.4-0.4-0.4-1,0-1.4l6.6-6.5c0.4-0.4,1-0.4,1.4,0
			c0.4,0.4,0.4,1,0,1.4l-6.6,6.5C16.7,28.7,16.4,28.8,16.2,28.8z M5.3,28.8c-0.3,0-0.5-0.1-0.7-0.3c-0.4-0.4-0.4-1,0-1.4l6.6-6.5
			c0.4-0.4,1-0.4,1.4,0c0.4,0.4,0.4,1,0,1.4L6,28.5C5.8,28.7,5.6,28.8,5.3,28.8z M54.7,28.8c-0.3,0-0.5-0.1-0.7-0.3
			c-0.4-0.4-0.4-1,0-1.4l6.6-6.5c0.4-0.4,1-0.4,1.4,0c0.4,0.4,0.4,1,0,1.4l-6.6,6.5C55.2,28.7,55,28.8,54.7,28.8z M49.3,28.8
			c-0.3,0-0.5-0.1-0.7-0.3c-0.4-0.4-0.4-1,0-1.4l6.6-6.5c0.4-0.4,1-0.4,1.4,0c0.4,0.4,0.4,1,0,1.4L50,28.5
			C49.8,28.7,49.6,28.8,49.3,28.8z M27.2,28.8c-0.3,0-0.5-0.1-0.7-0.3c-0.4-0.4-0.4-1,0-1.4l6.6-6.5c0.4-0.4,1-0.4,1.4,0
			c0.4,0.4,0.4,1,0,1.4l-6.6,6.5C27.7,28.7,27.5,28.8,27.2,28.8z M12.7,20c-0.2,0-0.4-0.1-0.6-0.2l-7.5-5.2
			c-0.5-0.3-0.6-0.9-0.3-1.4c0.3-0.5,0.9-0.6,1.4-0.3l7.5,5.2c0.5,0.3,0.6,0.9,0.3,1.4C13.3,19.9,13,20,12.7,20z M17.9,19.1
			c-0.2,0-0.4-0.1-0.6-0.2l-7.5-5.2c-0.5-0.3-0.6-0.9-0.3-1.4c0.3-0.5,0.9-0.6,1.4-0.3l7.5,5.2c0.5,0.3,0.6,0.9,0.3,1.4
			C18.5,18.9,18.2,19.1,17.9,19.1z M23.3,18.1c-0.2,0-0.4-0.1-0.6-0.2l-7.5-5.2c-0.5-0.3-0.6-0.9-0.3-1.4c0.3-0.5,0.9-0.6,1.4-0.3
			l7.5,5.2c0.5,0.3,0.6,0.9,0.3,1.4C23.9,18,23.6,18.1,23.3,18.1z M28.5,17.1c-0.2,0-0.4-0.1-0.6-0.2l-7.5-5.2
			c-0.5-0.3-0.6-0.9-0.3-1.4c0.3-0.5,0.9-0.6,1.4-0.3l7.5,5.2c0.5,0.3,0.6,0.9,0.3,1.4C29.1,17,28.8,17.1,28.5,17.1z M34,16.1
			c-0.2,0-0.4-0.1-0.6-0.2l-7.5-5.2c-0.5-0.3-0.6-0.9-0.3-1.4c0.3-0.5,0.9-0.6,1.4-0.3l7.5,5.2c0.5,0.3,0.6,0.9,0.3,1.4
			C34.6,16,34.3,16.1,34,16.1z M39.2,15.2c-0.2,0-0.4-0.1-0.6-0.2l-7.5-5.2c-0.5-0.3-0.6-0.9-0.3-1.4c0.3-0.5,0.9-0.6,1.4-0.3
			l7.5,5.2c0.5,0.3,0.6,0.9,0.3,1.4C39.8,15,39.5,15.2,39.2,15.2z M44.6,14.2c-0.2,0-0.4-0.1-0.6-0.2l-7.5-5.2
			c-0.5-0.3-0.6-0.9-0.3-1.4c0.3-0.5,0.9-0.6,1.4-0.3l7.5,5.2c0.5,0.3,0.6,0.9,0.3,1.4C45.2,14,44.9,14.2,44.6,14.2z M49.8,13.2
			c-0.2,0-0.4-0.1-0.6-0.2l-7.5-5.2c-0.5-0.3-0.6-0.9-0.3-1.4c0.3-0.5,0.9-0.6,1.4-0.3l7.5,5.2c0.5,0.3,0.6,0.9,0.3,1.4
			C50.5,13.1,50.2,13.2,49.8,13.2z M55,12.3c-0.2,0-0.4-0.1-0.6-0.2L47,6.9c-0.5-0.3-0.6-0.9-0.3-1.4c0.3-0.5,0.9-0.6,1.4-0.3
			l7.5,5.2c0.5,0.3,0.6,0.9,0.3,1.4C55.7,12.1,55.4,12.3,55,12.3z M60.3,11.3c-0.2,0-0.4-0.1-0.6-0.2l-7.5-5.2
			c-0.5-0.3-0.6-0.9-0.3-1.4c0.3-0.5,0.9-0.6,1.4-0.3l7.5,5.2c0.5,0.3,0.6,0.9,0.3,1.4C60.9,11.2,60.6,11.3,60.3,11.3z"/>
	</g>
	<g>
		<path class="st1" d="M61.3,28.8H4.5c-0.6,0-1-0.4-1-1s0.4-1,1-1h56.8c0.6,0,1,0.4,1,1S61.9,28.8,61.3,28.8z"/>
	</g>
	<g>
		<path class="st1" d="M61.7,34.9H3.8c-0.6,0-1-0.4-1-1c0-0.6,0.4-1,1-1h57.9c0.6,0,1,0.4,1,1C62.7,34.5,62.3,34.9,61.7,34.9z"/>
	</g>
	<g>
		<path class="st1" d="M18.3,42.9c-0.6,0-1-0.4-1-1v-7.7c0-0.6,0.4-1,1-1c0.6,0,1,0.4,1,1v7.7C19.3,42.4,18.9,42.9,18.3,42.9z"/>
	</g>
	<g>
		<path class="st1" d="M36.2,43.3c-0.6,0-1-0.4-1-1v-8.1c0-0.6,0.4-1,1-1s1,0.4,1,1v8.1C37.2,42.9,36.7,43.3,36.2,43.3z"/>
	</g>
	<g>
		<path class="st1" d="M61.4,43.6H3.2c-0.6,0-1-0.4-1-1s0.4-1,1-1h58.2c0.6,0,1,0.4,1,1S62,43.6,61.4,43.6z"/>
	</g>
	<g>
		<path class="st1" d="M61.3,52.1H3.2c-0.6,0-1-0.4-1-1c0-0.6,0.4-1,1-1h58.2c0.6,0,1,0.4,1,1C62.3,51.7,61.9,52.1,61.3,52.1z"/>
	</g>
</g>
</svg>
