<?xml version="1.0" encoding="utf-8"?>
<!-- Generator: Adobe Illustrator 19.2.1, SVG Export Plug-In . SVG Version: 6.00 Build 0)  -->
<svg version="1.1" id="Layer_1" xmlns="http://www.w3.org/2000/svg" xmlns:xlink="http://www.w3.org/1999/xlink" x="0px" y="0px"
	 viewBox="0 0 64 64" style="enable-background:new 0 0 64 64;" xml:space="preserve">
<metadata><?xpacket begin="﻿" id="W5M0MpCehiHzreSzNTczkc9d"?>
<x:xmpmeta xmlns:x="adobe:ns:meta/" x:xmptk="Adobe XMP Core 5.6-c111 79.158366, 2015/09/25-01:12:00        ">
   <rdf:RDF xmlns:rdf="http://www.w3.org/1999/02/22-rdf-syntax-ns#">
      <rdf:Description rdf:about=""/>
   </rdf:RDF>
</x:xmpmeta>
                                                                                                    
                                                                                                    
                                                                                                    
                                                                                                    
                                                                                                    
                                                                                                    
                                                                                                    
                                                                                                    
                                                                                                    
                                                                                                    
                                                                                                    
                                                                                                    
                                                                                                    
                                                                                                    
                                                                                                    
                                                                                                    
                                                                                                    
                                                                                                    
                                                                                                    
                                                                                                    
                           
<?xpacket end="w"?></metadata>
<style type="text/css">
	.st0{fill:none;}
	.st1{fill:#5B554D;}
</style>
<rect class="st0" width="64" height="64"/>
<g>
	<g>
		<g>
			<path class="st1" d="M49.7,63c-0.9,0-1.7-0.4-2.2-1.1l-2.4-3.6c-0.3-0.4-0.2-0.9,0.2-1.2c0.4-0.3,0.9-0.2,1.2,0.2l2.4,3.6
				c0.3,0.4,0.9,0.5,1.3,0.3c0.4-0.3,0.6-0.9,0.3-1.3l-2.4-3.5c-0.3-0.4-0.2-0.9,0.2-1.2c0.4-0.3,0.9-0.2,1.2,0.2l2.4,3.5
				c0.8,1.2,0.5,2.8-0.7,3.6C50.8,62.8,50.3,63,49.7,63z M14.3,63c-0.5,0-1-0.2-1.5-0.5c-1.2-0.8-1.5-2.4-0.7-3.6l2.4-3.5
				c0.3-0.4,0.8-0.5,1.2-0.2c0.4,0.3,0.5,0.8,0.2,1.2l-2.4,3.5c-0.3,0.4-0.2,1,0.3,1.3c0.4,0.3,1,0.2,1.3-0.3l2.4-3.6
				c0.3-0.4,0.8-0.5,1.2-0.2c0.4,0.3,0.5,0.8,0.2,1.2l-2.4,3.6C16,62.6,15.1,63,14.3,63z"/>
		</g>
		<g>
			<path class="st1" d="M32,58.6C17.7,58.6,6.1,47,6.1,32.7C6.1,18.4,17.7,6.8,32,6.8s25.9,11.6,25.9,25.9
				C57.9,47,46.3,58.6,32,58.6z M32,8.5C18.6,8.5,7.8,19.3,7.8,32.7C7.8,46,18.6,56.9,32,56.9S56.2,46,56.2,32.7
				C56.2,19.3,45.4,8.5,32,8.5z"/>
		</g>
		<g>
			<path class="st1" d="M55.1,15.1C55.1,15.1,55.1,15.1,55.1,15.1c-0.5,0-0.8-0.4-0.8-0.9c0.1-4.7-1.8-8.5-5.2-10.4
				C45.8,2,41.5,2.4,37.6,4.9c-0.4,0.3-0.9,0.1-1.2-0.2c-0.3-0.4-0.1-0.9,0.2-1.2c4.4-2.9,9.4-3.3,13.3-1.1c3.9,2.2,6.2,6.6,6,11.9
				C56,14.7,55.6,15.1,55.1,15.1z M8.9,15.1c-0.5,0-0.8-0.4-0.8-0.8C7.9,9,10.1,4.6,14,2.4c3.9-2.2,8.9-1.8,13.3,1.1
				c0.4,0.3,0.5,0.8,0.2,1.2c-0.2,0.4-0.8,0.5-1.2,0.2C22.5,2.4,18.2,2,14.9,3.8c-3.3,1.9-5.3,5.8-5.2,10.4
				C9.7,14.7,9.3,15.1,8.9,15.1C8.9,15.1,8.9,15.1,8.9,15.1z"/>
		</g>
	</g>
	<g>
		<g>
			<path class="st1" d="M13.7,33.6H9.9c-0.5,0-0.8-0.4-0.8-0.8S9.5,32,9.9,32h3.8c0.5,0,0.8,0.4,0.8,0.8S14.2,33.6,13.7,33.6z"/>
		</g>
		<g>
			<path class="st1" d="M54.1,33.6h-3.8c-0.5,0-0.8-0.4-0.8-0.8s0.4-0.8,0.8-0.8h3.8c0.5,0,0.8,0.4,0.8,0.8S54.5,33.6,54.1,33.6z"/>
		</g>
	</g>
	<g>
		<g>
			<path class="st1" d="M31.9,15.3c-0.5,0-0.8-0.4-0.8-0.8v-3.7c0-0.5,0.4-0.8,0.8-0.8c0.5,0,0.8,0.4,0.8,0.8v3.7
				C32.7,14.9,32.3,15.3,31.9,15.3z"/>
		</g>
		<g>
			<path class="st1" d="M31.9,55.5c-0.5,0-0.8-0.4-0.8-0.8V51c0-0.5,0.4-0.8,0.8-0.8c0.5,0,0.8,0.4,0.8,0.8v3.7
				C32.7,55.1,32.3,55.5,31.9,55.5z"/>
		</g>
	</g>
	<g>
		<path class="st1" d="M31.9,29.9c-0.5,0-0.8-0.4-0.8-0.8V18.4c0-0.5,0.4-0.8,0.8-0.8c0.5,0,0.8,0.4,0.8,0.8v10.6
			C32.7,29.5,32.3,29.9,31.9,29.9z"/>
	</g>
	<g>
		<path class="st1" d="M43.7,33.6h-8.1c-0.5,0-0.8-0.4-0.8-0.8s0.4-0.8,0.8-0.8h8.1c0.5,0,0.8,0.4,0.8,0.8S44.1,33.6,43.7,33.6z"/>
	</g>
	<circle class="st1" cx="32" cy="32.4" r="3.3"/>
</g>
</svg>
