<?xml version="1.0" encoding="utf-8"?>
<!-- Generator: Adobe Illustrator 19.2.1, SVG Export Plug-In . SVG Version: 6.00 Build 0)  -->
<svg version="1.1" id="Layer_1" xmlns="http://www.w3.org/2000/svg" xmlns:xlink="http://www.w3.org/1999/xlink" x="0px" y="0px"
	 viewBox="0 0 64 64" style="enable-background:new 0 0 64 64;" xml:space="preserve">
<metadata><?xpacket begin="﻿" id="W5M0MpCehiHzreSzNTczkc9d"?>
<x:xmpmeta xmlns:x="adobe:ns:meta/" x:xmptk="Adobe XMP Core 5.6-c111 79.158366, 2015/09/25-01:12:00        ">
   <rdf:RDF xmlns:rdf="http://www.w3.org/1999/02/22-rdf-syntax-ns#">
      <rdf:Description rdf:about=""/>
   </rdf:RDF>
</x:xmpmeta>
                                                                                                    
                                                                                                    
                                                                                                    
                                                                                                    
                                                                                                    
                                                                                                    
                                                                                                    
                                                                                                    
                                                                                                    
                                                                                                    
                                                                                                    
                                                                                                    
                                                                                                    
                                                                                                    
                                                                                                    
                                                                                                    
                                                                                                    
                                                                                                    
                                                                                                    
                                                                                                    
                           
<?xpacket end="w"?></metadata>
<style type="text/css">
	.st0{fill:none;}
	.st1{fill:#5B554D;}
</style>
<rect class="st0" width="64" height="64"/>
<g>
	<g>
		<g>
			<path class="st1" d="M37.4,63H26.6c-0.4,0-0.7-0.3-0.7-0.7V35.2L25.7,35c-0.1-0.1-0.2-0.3-0.2-0.5V24c0-0.4,0.3-0.7,0.7-0.7h0.3
				v-2.8c0-0.2,0.1-0.5,0.3-0.6c1.1-0.7,1.8-3.2,1.9-4.1v-3.5c0-0.2,0.1-0.4,0.3-0.6c0,0,0,0,0-0.1c0-0.2,0.1-0.3,0.2-0.5
				c1-1.2,1.9-6.6,2.1-9.7C31.4,1.3,31.6,1,32,1c0.4,0,0.6,0.3,0.7,0.6c0.3,3.1,1.1,8.5,2.1,9.7c0.1,0.1,0.2,0.3,0.2,0.5v0.1
				c0.2,0.1,0.3,0.3,0.3,0.6V16c0.1,0.9,0.8,3.5,1.9,4.1c0.2,0.1,0.3,0.3,0.3,0.6v2.8h0.3c0.4,0,0.7,0.3,0.7,0.7v10.5
				c0,0.2-0.1,0.4-0.2,0.5l-0.2,0.2v27.1C38.1,62.7,37.8,63,37.4,63z M27.3,61.6h9.4V34.9c0-0.2,0.1-0.4,0.2-0.5l0.2-0.2v-9.5h-0.3
				c-0.4,0-0.7-0.3-0.7-0.7v-3c-1.7-1.3-2.2-4.5-2.2-4.9V16v-3.2c-0.1-0.2-0.3-0.4-0.3-0.7c-0.7-1-1.3-3.1-1.6-5.2
				c-0.4,2.1-0.9,4.2-1.6,5.2c0,0.3-0.2,0.6-0.3,0.7V16v0.1c0,0.2-0.5,3.5-2.2,4.9v3c0,0.4-0.3,0.7-0.7,0.7h-0.3v9.5l0.2,0.2
				c0.1,0.1,0.2,0.3,0.2,0.5V61.6z M34.6,11.7L34.6,11.7L34.6,11.7z M29.4,11.7L29.4,11.7L29.4,11.7z M34.6,11.7L34.6,11.7
				L34.6,11.7z M29.4,11.7L29.4,11.7L29.4,11.7z"/>
		</g>
		<g>
			<path class="st1" d="M32,33.1c-1.9,0-3.5-1.6-3.5-3.5s1.6-3.5,3.5-3.5c1.9,0,3.5,1.6,3.5,3.5C35.5,31.5,33.9,33.1,32,33.1z
				 M32,27.5c-1.2,0-2.1,1-2.1,2.1c0,1.2,1,2.1,2.1,2.1c1.1,0,2.1-0.9,2.1-2.1C34.1,28.5,33.2,27.5,32,27.5z"/>
		</g>
		<g>
			<path class="st1" d="M37.8,35.2H26.2c-0.4,0-0.7-0.3-0.7-0.7s0.3-0.7,0.7-0.7h11.6c0.4,0,0.7,0.3,0.7,0.7S38.2,35.2,37.8,35.2z"
				/>
		</g>
		<g>
			<path class="st1" d="M36.9,21.3h-9.8c-0.3,0-0.6-0.2-0.7-0.5s0-0.6,0.3-0.8c1.1-0.7,1.8-3.3,1.9-4.2c0.1-0.3,0.3-0.6,0.7-0.6h5.2
				c0.3,0,0.6,0.2,0.7,0.6c0.1,0.9,0.8,3.5,1.9,4.2c0.3,0.2,0.4,0.5,0.3,0.8C37.5,21.1,37.2,21.3,36.9,21.3z M28.7,19.9h6.6
				c-0.7-1.1-1.1-2.5-1.2-3.3H30C29.8,17.4,29.4,18.8,28.7,19.9z"/>
		</g>
	</g>
	<g>
		<path class="st1" d="M29.2,25.7c-0.4,0-0.7-0.3-0.7-0.7v-1.8c0-0.4,0.3-0.7,0.7-0.7c0.4,0,0.7,0.3,0.7,0.7V25
			C29.9,25.4,29.6,25.7,29.2,25.7z"/>
	</g>
	<g>
		<path class="st1" d="M31.1,25.7c-0.4,0-0.7-0.3-0.7-0.7v-1.8c0-0.4,0.3-0.7,0.7-0.7c0.4,0,0.7,0.3,0.7,0.7V25
			C31.7,25.4,31.4,25.7,31.1,25.7z"/>
	</g>
	<g>
		<path class="st1" d="M32.9,25.7c-0.4,0-0.7-0.3-0.7-0.7v-1.8c0-0.4,0.3-0.7,0.7-0.7s0.7,0.3,0.7,0.7V25
			C33.6,25.4,33.3,25.7,32.9,25.7z"/>
	</g>
	<g>
		<path class="st1" d="M34.8,25.7c-0.4,0-0.7-0.3-0.7-0.7v-1.8c0-0.4,0.3-0.7,0.7-0.7s0.7,0.3,0.7,0.7V25
			C35.5,25.4,35.2,25.7,34.8,25.7z"/>
	</g>
	<g>
		<path class="st1" d="M34.4,12.9h-4.5c-0.4,0-0.7-0.3-0.7-0.7s0.3-0.7,0.7-0.7h4.5c0.4,0,0.7,0.3,0.7,0.7S34.8,12.9,34.4,12.9z"/>
	</g>
</g>
</svg>
