<?xml version="1.0" encoding="utf-8"?>
<!-- Generator: Adobe Illustrator 19.2.1, SVG Export Plug-In . SVG Version: 6.00 Build 0)  -->
<svg version="1.1" id="Layer_1" xmlns="http://www.w3.org/2000/svg" xmlns:xlink="http://www.w3.org/1999/xlink" x="0px" y="0px"
	 viewBox="0 0 64 64" style="enable-background:new 0 0 64 64;" xml:space="preserve">
<metadata><?xpacket begin="﻿" id="W5M0MpCehiHzreSzNTczkc9d"?>
<x:xmpmeta xmlns:x="adobe:ns:meta/" x:xmptk="Adobe XMP Core 5.6-c111 79.158366, 2015/09/25-01:12:00        ">
   <rdf:RDF xmlns:rdf="http://www.w3.org/1999/02/22-rdf-syntax-ns#">
      <rdf:Description rdf:about=""/>
   </rdf:RDF>
</x:xmpmeta>
                                                                                                    
                                                                                                    
                                                                                                    
                                                                                                    
                                                                                                    
                                                                                                    
                                                                                                    
                                                                                                    
                                                                                                    
                                                                                                    
                                                                                                    
                                                                                                    
                                                                                                    
                                                                                                    
                                                                                                    
                                                                                                    
                                                                                                    
                                                                                                    
                                                                                                    
                                                                                                    
                           
<?xpacket end="w"?></metadata>
<style type="text/css">
	.st0{fill:none;}
	.st1{fill:#5B554D;}
</style>
<rect class="st0" width="64" height="64"/>
<g>
	<g>
		<g>
			<path class="st1" d="M32,63C14.9,63,1,49.1,1,32C1,14.9,14.9,1,32,1s31,13.9,31,31C63,49.1,49.1,63,32,63z M32,3C16,3,3,16,3,32
				c0,16,13,29,29,29s29-13,29-29C61,16,48,3,32,3z"/>
		</g>
	</g>
	<g>
		<g>
			<path class="st1" d="M10.1,33.1H5.6c-0.6,0-1-0.4-1-1c0-0.6,0.4-1,1-1h4.5c0.6,0,1,0.4,1,1C11.1,32.7,10.6,33.1,10.1,33.1z"/>
		</g>
		<g>
			<path class="st1" d="M58.4,33.1h-4.5c-0.6,0-1-0.4-1-1c0-0.6,0.4-1,1-1h4.5c0.6,0,1,0.4,1,1C59.4,32.7,59,33.1,58.4,33.1z"/>
		</g>
	</g>
	<g>
		<g>
			<path class="st1" d="M31.9,11.1c-0.6,0-1-0.4-1-1V5.7c0-0.6,0.4-1,1-1c0.6,0,1,0.4,1,1v4.4C32.9,10.7,32.4,11.1,31.9,11.1z"/>
		</g>
		<g>
			<path class="st1" d="M31.9,59.3c-0.6,0-1-0.4-1-1v-4.4c0-0.6,0.4-1,1-1c0.6,0,1,0.4,1,1v4.4C32.9,58.9,32.4,59.3,31.9,59.3z"/>
		</g>
	</g>
	<g>
		<path class="st1" d="M32,28.3c-0.6,0-1-0.4-1-1V14.9c0-0.6,0.4-1,1-1s1,0.4,1,1v12.4C33,27.8,32.6,28.3,32,28.3z"/>
	</g>
	<g>
		<path class="st1" d="M28,33.1H17.9c-0.6,0-1-0.4-1-1c0-0.6,0.4-1,1-1H28c0.6,0,1,0.4,1,1C29,32.7,28.6,33.1,28,33.1z"/>
	</g>
	<circle class="st1" cx="31.9" cy="31.6" r="4"/>
</g>
</svg>
