<?xml version="1.0" encoding="utf-8"?>
<!-- Generator: Adobe Illustrator 19.2.1, SVG Export Plug-In . SVG Version: 6.00 Build 0)  -->
<svg version="1.1" id="Layer_1" xmlns="http://www.w3.org/2000/svg" xmlns:xlink="http://www.w3.org/1999/xlink" x="0px" y="0px"
	 viewBox="0 0 64 64" style="enable-background:new 0 0 64 64;" xml:space="preserve">
<metadata><?xpacket begin="﻿" id="W5M0MpCehiHzreSzNTczkc9d"?>
<x:xmpmeta xmlns:x="adobe:ns:meta/" x:xmptk="Adobe XMP Core 5.6-c111 79.158366, 2015/09/25-01:12:00        ">
   <rdf:RDF xmlns:rdf="http://www.w3.org/1999/02/22-rdf-syntax-ns#">
      <rdf:Description rdf:about=""/>
   </rdf:RDF>
</x:xmpmeta>
                                                                                                    
                                                                                                    
                                                                                                    
                                                                                                    
                                                                                                    
                                                                                                    
                                                                                                    
                                                                                                    
                                                                                                    
                                                                                                    
                                                                                                    
                                                                                                    
                                                                                                    
                                                                                                    
                                                                                                    
                                                                                                    
                                                                                                    
                                                                                                    
                                                                                                    
                                                                                                    
                           
<?xpacket end="w"?></metadata>
<style type="text/css">
	.st0{fill:none;}
	.st1{fill:#5B554D;}
</style>
<rect class="st0" width="64" height="64"/>
<g>
	<g>
		<path class="st1" d="M51,52.3H37.1c-2.1,0-3.9-1.7-3.9-3.8V36.3c0-0.3,0.2-0.5,0.4-0.7c0.3-0.1,0.6-0.1,0.8,0.2l5.7,5.7
			c0.2,0.2,0.5,0.4,0.9,0.4c0,0,0,0,0,0c0.3,0,0.6-0.1,0.9-0.4c0.2-0.2,0.4-0.5,0.4-0.9c0-0.3-0.1-0.6-0.4-0.9l-9-8.9
			c-0.5-0.5-1.3-0.5-1.7,0l-9,8.9c-0.2,0.2-0.4,0.5-0.4,0.9c0,0.3,0.1,0.6,0.4,0.9c0.5,0.5,1.3,0.5,1.7,0l5.7-5.7
			c0.2-0.2,0.5-0.3,0.8-0.2c0.3,0.1,0.4,0.4,0.4,0.7v12.1c0,2.1-1.7,3.8-3.8,3.8H13c-6.6,0-12-5.6-12-12.6c0-5.1,2.8-9.5,7.2-11.5
			c0.2-6.3,5.4-11.4,11.8-11.4c2.5,0,4.9,0.8,6.8,2.2c2.8-4.4,7.8-7.2,13.1-7.2c8.6,0,15.5,7,15.5,15.5c0,0.2,0,0.5,0,0.7
			C60,29.9,63,34.5,63,39.7C63,46.6,57.6,52.3,51,52.3z M34.7,38v10.4c0,1.3,1.1,2.4,2.4,2.4H51c5.8,0,10.5-5,10.5-11.2
			c0-4.8-2.9-9-7.1-10.6C54.1,29,54,28.7,54,28.4c0-0.4,0-0.7,0-1.1c0-7.8-6.3-14.1-14.1-14.1c-5,0-9.7,2.7-12.3,7.1
			c-0.1,0.2-0.3,0.3-0.5,0.3c-0.2,0-0.4,0-0.6-0.1c-1.9-1.5-4.2-2.4-6.6-2.4c-5.7,0-10.4,4.7-10.4,10.4l0,0.1c0,0.3-0.2,0.6-0.4,0.7
			c-4,1.7-6.8,5.8-6.8,10.4c0,6.2,4.7,11.2,10.6,11.2h14c1.3,0,2.4-1.1,2.4-2.4V38l-4.5,4.5c-1,1-2.8,1-3.8,0
			c-0.5-0.5-0.8-1.2-0.8-1.9c0-0.7,0.3-1.4,0.8-1.9l9-8.9c1-1,2.7-1,3.7,0l9,8.9c0.5,0.5,0.8,1.2,0.8,1.9c0,0.7-0.3,1.4-0.8,1.9
			c-0.5,0.5-1.2,0.8-1.9,0.8c-0.7,0-1.4-0.3-1.9-0.8L34.7,38z"/>
	</g>
</g>
</svg>
