<?xml version="1.0" encoding="utf-8"?>
<!-- Generator: Adobe Illustrator 19.2.1, SVG Export Plug-In . SVG Version: 6.00 Build 0)  -->
<svg version="1.1" id="Layer_1" xmlns="http://www.w3.org/2000/svg" xmlns:xlink="http://www.w3.org/1999/xlink" x="0px" y="0px"
	 viewBox="0 0 64 64" style="enable-background:new 0 0 64 64;" xml:space="preserve">
<metadata><?xpacket begin="﻿" id="W5M0MpCehiHzreSzNTczkc9d"?>
<x:xmpmeta xmlns:x="adobe:ns:meta/" x:xmptk="Adobe XMP Core 5.6-c111 79.158366, 2015/09/25-01:12:00        ">
   <rdf:RDF xmlns:rdf="http://www.w3.org/1999/02/22-rdf-syntax-ns#">
      <rdf:Description rdf:about=""/>
   </rdf:RDF>
</x:xmpmeta>
                                                                                                    
                                                                                                    
                                                                                                    
                                                                                                    
                                                                                                    
                                                                                                    
                                                                                                    
                                                                                                    
                                                                                                    
                                                                                                    
                                                                                                    
                                                                                                    
                                                                                                    
                                                                                                    
                                                                                                    
                                                                                                    
                                                                                                    
                                                                                                    
                                                                                                    
                                                                                                    
                           
<?xpacket end="w"?></metadata>
<style type="text/css">
	.st0{fill:none;}
	.st1{fill:#5B554D;}
</style>
<rect class="st0" width="64" height="64"/>
<g>
	<g>
		<path class="st1" d="M54.8,47H23.6c-0.4,0-0.8-0.4-0.8-0.8c0-0.4,0.4-0.8,0.8-0.8h31.3c3.6,0,6.5-3.2,6.5-7c0-3-1.8-5.7-4.5-6.7
			c-1.1-0.4-1.9-1.6-1.8-2.8c0-0.3,0-0.5,0-0.8c0-5.2-4.2-9.5-9.5-9.5c-3.4,0-6.5,1.8-8.2,4.8c-0.4,0.7-1.1,1.2-1.9,1.3
			c-0.8,0.1-1.6-0.1-2.2-0.6c-1.2-1-2.6-1.5-4.1-1.5c-2.1,0-4.1,1.1-5.3,2.8c-0.3,0.4-0.8,0.5-1.1,0.2c-0.4-0.3-0.5-0.8-0.2-1.1
			c1.5-2.2,4-3.5,6.6-3.5c1.9,0,3.6,0.6,5.1,1.8c0.2,0.2,0.6,0.3,0.9,0.2c0.3-0.1,0.6-0.3,0.8-0.5c2-3.5,5.7-5.6,9.6-5.6
			c6.1,0,11.1,5,11.1,11.1c0,0.3,0,0.6,0,0.9c0,0.5,0.3,0.9,0.7,1.1c3.3,1.2,5.5,4.5,5.5,8.2C63,43.1,59.3,47,54.8,47z"/>
	</g>
	<g>
		<g>
			<g>
				<g>
					<path class="st1" d="M29.1,43.6c-2.3,0-4.3-1.9-4.3-4.3c0-0.4,0.4-0.8,0.8-0.8c0.4,0,0.8,0.4,0.8,0.8c0,1.5,1.2,2.6,2.6,2.6
						s2.6-1.2,2.6-2.6c0-2.7-2.5-2.8-2.6-2.9l-20.8,0c-0.4,0-0.8-0.4-0.8-0.8s0.4-0.8,0.8-0.8l0,0l20.8,0c1.7,0.1,4.2,1.3,4.2,4.5
						C33.4,41.7,31.5,43.6,29.1,43.6z M1.8,34.3c-0.4,0-0.8-0.4-0.8-0.8s0.4-0.8,0.8-0.8h27.3c0.1,0,2.6-0.1,2.6-2.9
						c0-1.5-1.2-2.6-2.6-2.6s-2.6,1.2-2.6,2.6c0,0.4-0.4,0.8-0.8,0.8c-0.4,0-0.8-0.4-0.8-0.8c0-2.3,1.9-4.3,4.3-4.3s4.3,1.9,4.3,4.3
						c0,3.4-2.8,4.4-4.2,4.5L1.8,34.3z"/>
				</g>
			</g>
		</g>
		<g>
			<path class="st1" d="M21.5,31.7H4.4c-0.4,0-0.8-0.4-0.8-0.8C3.6,30.4,4,30,4.4,30h17.1c0.4,0,0.8,0.4,0.8,0.8
				C22.3,31.3,21.9,31.7,21.5,31.7z"/>
		</g>
		<g>
			<path class="st1" d="M23.6,39.3h-9.8c-0.4,0-0.8-0.4-0.8-0.8c0-0.4,0.4-0.8,0.8-0.8h9.8c0.4,0,0.8,0.4,0.8,0.8
				C24.4,38.9,24.1,39.3,23.6,39.3z"/>
		</g>
	</g>
</g>
</svg>
