<?xml version="1.0" encoding="utf-8"?>
<!-- Generator: Adobe Illustrator 19.2.1, SVG Export Plug-In . SVG Version: 6.00 Build 0)  -->
<svg version="1.1" id="Layer_1" xmlns="http://www.w3.org/2000/svg" xmlns:xlink="http://www.w3.org/1999/xlink" x="0px" y="0px"
	 viewBox="0 0 64 64" style="enable-background:new 0 0 64 64;" xml:space="preserve">
<metadata><?xpacket begin="﻿" id="W5M0MpCehiHzreSzNTczkc9d"?>
<x:xmpmeta xmlns:x="adobe:ns:meta/" x:xmptk="Adobe XMP Core 5.6-c111 79.158366, 2015/09/25-01:12:00        ">
   <rdf:RDF xmlns:rdf="http://www.w3.org/1999/02/22-rdf-syntax-ns#">
      <rdf:Description rdf:about=""/>
   </rdf:RDF>
</x:xmpmeta>
                                                                                                    
                                                                                                    
                                                                                                    
                                                                                                    
                                                                                                    
                                                                                                    
                                                                                                    
                                                                                                    
                                                                                                    
                                                                                                    
                                                                                                    
                                                                                                    
                                                                                                    
                                                                                                    
                                                                                                    
                                                                                                    
                                                                                                    
                                                                                                    
                                                                                                    
                                                                                                    
                           
<?xpacket end="w"?></metadata>
<style type="text/css">
	.st0{fill:none;}
	.st1{fill:#5B554D;}
</style>
<rect class="st0" width="64" height="64"/>
<g>
	<g>
		<path class="st1" d="M51,52.3H13c-6.6,0-12-5.6-12-12.6c0-5,2.9-9.6,7.2-11.5c0.2-6.4,5.4-11.4,11.8-11.4c2.5,0,4.9,0.8,6.8,2.2
			c2.8-4.4,7.8-7.2,13.1-7.2c8.6,0,15.5,7,15.5,15.5c0,0.2,0,0.5,0,0.7C60,29.9,63,34.5,63,39.7C63,46.6,57.6,52.3,51,52.3z
			 M20,18.1c-5.7,0-10.4,4.7-10.4,10.4l0,0.1c0,0.3-0.2,0.6-0.4,0.7c-4,1.7-6.8,5.8-6.8,10.4c0,6.2,4.7,11.2,10.6,11.2H51
			c5.8,0,10.5-5,10.5-11.2c0-4.8-2.9-9-7.1-10.6c-0.3-0.1-0.5-0.4-0.5-0.7c0-0.4,0.1-0.7,0.1-1.1c0-7.8-6.3-14.1-14.1-14.1
			c-5,0-9.7,2.7-12.3,7.1c-0.1,0.2-0.3,0.3-0.5,0.3c-0.2,0-0.4,0-0.6-0.1C24.7,19,22.4,18.1,20,18.1z"/>
	</g>
	<g>
		<g>
			<g>
				<g>
					<path class="st1" d="M35.8,45.3c-0.3,0-0.5-0.2-0.7-0.4c-0.1-0.4,0-0.8,0.4-0.9c4-1.6,6.4-5.8,5.8-10.1c-0.4-3-2.2-5.5-4.8-6.9
						c-0.3-0.2-0.5-0.6-0.3-1c0.2-0.3,0.6-0.5,1-0.3c3,1.7,5,4.6,5.5,8c0.7,5-2.1,9.7-6.7,11.6C36,45.3,35.9,45.3,35.8,45.3z"/>
				</g>
				<g>
					<polygon class="st1" points="38.7,24.1 33.1,25.1 36.7,29.4 					"/>
				</g>
			</g>
			<g>
				<g>
					<path class="st1" d="M27,44.8c-0.1,0-0.2,0-0.3-0.1c-3-1.7-5-4.6-5.5-8c-0.7-5,2.1-9.7,6.7-11.6c0.4-0.1,0.8,0,0.9,0.4
						c0.1,0.4,0,0.8-0.4,0.9c-4,1.6-6.4,5.8-5.8,10.1c0.4,3,2.2,5.5,4.8,6.9c0.3,0.2,0.5,0.6,0.3,1C27.5,44.7,27.3,44.8,27,44.8z"/>
				</g>
				<g>
					<polygon class="st1" points="25.3,46.3 30.9,45.3 27.3,41 					"/>
				</g>
			</g>
		</g>
	</g>
</g>
</svg>
