<?xml version="1.0" encoding="utf-8"?>
<!-- Generator: Adobe Illustrator 19.2.1, SVG Export Plug-In . SVG Version: 6.00 Build 0)  -->
<svg version="1.1" id="Layer_1" xmlns="http://www.w3.org/2000/svg" xmlns:xlink="http://www.w3.org/1999/xlink" x="0px" y="0px"
	 viewBox="0 0 64 64" style="enable-background:new 0 0 64 64;" xml:space="preserve">
<metadata><?xpacket begin="﻿" id="W5M0MpCehiHzreSzNTczkc9d"?>
<x:xmpmeta xmlns:x="adobe:ns:meta/" x:xmptk="Adobe XMP Core 5.6-c111 79.158366, 2015/09/25-01:12:00        ">
   <rdf:RDF xmlns:rdf="http://www.w3.org/1999/02/22-rdf-syntax-ns#">
      <rdf:Description rdf:about=""/>
   </rdf:RDF>
</x:xmpmeta>
                                                                                                    
                                                                                                    
                                                                                                    
                                                                                                    
                                                                                                    
                                                                                                    
                                                                                                    
                                                                                                    
                                                                                                    
                                                                                                    
                                                                                                    
                                                                                                    
                                                                                                    
                                                                                                    
                                                                                                    
                                                                                                    
                                                                                                    
                                                                                                    
                                                                                                    
                                                                                                    
                           
<?xpacket end="w"?></metadata>
<style type="text/css">
	.st0{fill:none;}
	.st1{fill:#5B554D;}
</style>
<rect class="st0" width="64" height="64"/>
<g>
	<g>
		<g>
			<path class="st1" d="M50.9,43.6c-0.5,0-0.9-0.4-0.9-0.9s0.4-0.9,0.9-0.9c5.7,0,10.3-4.9,10.3-10.9c0-4.7-2.8-8.8-7-10.4
				c-0.4-0.1-0.6-0.5-0.6-0.9c0-0.4,0.1-0.7,0.1-1.1c0-7.7-6.2-13.9-13.9-13.9c-5,0-9.6,2.7-12.1,7c-0.1,0.2-0.3,0.4-0.6,0.4
				c-0.2,0-0.5,0-0.7-0.2c-1.8-1.5-4.1-2.3-6.5-2.3c-5.6,0-10.2,4.6-10.2,10.2c0,0.4-0.2,0.8-0.5,0.9c-4,1.6-6.6,5.7-6.6,10.2
				c0,6,4.6,10.9,10.3,10.9c0.5,0,0.9,0.4,0.9,0.9s-0.4,0.9-0.9,0.9C6.4,43.6,1,37.9,1,31c0-5.1,2.8-9.6,7.2-11.6
				C8.5,13,13.7,7.9,20.1,7.9c2.4,0,4.8,0.7,6.8,2.1c2.9-4.4,7.8-7.1,13-7.1c8.6,0,15.6,7,15.6,15.6c0,0.2,0,0.4,0,0.6
				C60,21.1,63,25.8,63,31C63,37.9,57.6,43.6,50.9,43.6z"/>
		</g>
	</g>
	<g>
		<g>
			<g>
				<g>
					<path class="st1" d="M27.5,61c-0.1,0-0.1,0-0.2,0c-0.5-0.1-0.8-0.6-0.7-1L30.3,43c0.1-0.5,0.6-0.8,1-0.7c0.5,0.1,0.8,0.6,0.7,1
						l-3.7,16.9C28.2,60.7,27.9,61,27.5,61z"/>
				</g>
				<g>
					<path class="st1" d="M29.5,59.8c-0.3,0-0.6-0.1-0.7-0.4l-1.3-2.1c-0.3-0.4-0.1-0.9,0.3-1.2c0.4-0.3,0.9-0.1,1.2,0.3l1.3,2.1
						c0.3,0.4,0.1,0.9-0.3,1.2C29.8,59.8,29.7,59.8,29.5,59.8z"/>
				</g>
				<g>
					<path class="st1" d="M26.1,59.1c-0.3,0-0.6-0.1-0.7-0.4c-0.3-0.4-0.1-0.9,0.3-1.2l2.1-1.3c0.4-0.3,0.9-0.1,1.2,0.3
						c0.3,0.4,0.1,0.9-0.3,1.2l-2.1,1.3C26.4,59,26.3,59.1,26.1,59.1z"/>
				</g>
				<g>
					<path class="st1" d="M30.7,57.1c-0.3,0-0.6-0.1-0.7-0.4l-1.8-2.8c-0.3-0.4-0.1-0.9,0.3-1.2c0.4-0.3,0.9-0.1,1.2,0.3l1.8,2.8
						c0.3,0.4,0.1,0.9-0.3,1.2C31.1,57,30.9,57.1,30.7,57.1z"/>
				</g>
				<g>
					<path class="st1" d="M26.1,56.1c-0.3,0-0.6-0.1-0.7-0.4c-0.3-0.4-0.1-0.9,0.3-1.2l2.8-1.8c0.4-0.3,0.9-0.1,1.2,0.3
						c0.3,0.4,0.1,0.9-0.3,1.2l-2.8,1.8C26.5,56,26.3,56.1,26.1,56.1z"/>
				</g>
				<g>
					<path class="st1" d="M30.5,47.3c-0.3,0-0.6-0.1-0.7-0.4l-1.3-2.1c-0.3-0.4-0.1-0.9,0.3-1.2c0.4-0.3,0.9-0.1,1.2,0.3l1.3,2.1
						c0.3,0.4,0.1,0.9-0.3,1.2C30.8,47.2,30.6,47.3,30.5,47.3z"/>
				</g>
				<g>
					<path class="st1" d="M30.5,47.3c-0.3,0-0.6-0.1-0.7-0.4c-0.3-0.4-0.1-0.9,0.3-1.2l2.1-1.3c0.4-0.3,0.9-0.1,1.2,0.3
						c0.3,0.4,0.1,0.9-0.3,1.2l-2.1,1.3C30.8,47.2,30.6,47.3,30.5,47.3z"/>
				</g>
				<g>
					<path class="st1" d="M29.7,50.7c-0.3,0-0.6-0.1-0.7-0.4l-1.8-2.8c-0.3-0.4-0.1-0.9,0.3-1.2c0.4-0.3,0.9-0.1,1.2,0.3l1.8,2.8
						c0.3,0.4,0.1,0.9-0.3,1.2C30,50.7,29.9,50.7,29.7,50.7z"/>
				</g>
				<g>
					<path class="st1" d="M29.7,50.7c-0.3,0-0.6-0.1-0.7-0.4c-0.3-0.4-0.1-0.9,0.3-1.2l2.8-1.8c0.4-0.3,0.9-0.1,1.2,0.3
						c0.3,0.4,0.1,0.9-0.3,1.2l-2.8,1.8C30,50.7,29.9,50.7,29.7,50.7z"/>
				</g>
			</g>
			<g>
				<g>
					<path class="st1" d="M37.8,54.4c-0.1,0-0.1,0-0.2,0l-16.9-3.7c-0.5-0.1-0.8-0.6-0.7-1c0.1-0.5,0.6-0.8,1-0.7L38,52.7
						c0.5,0.1,0.8,0.6,0.7,1C38.5,54.1,38.2,54.4,37.8,54.4z"/>
				</g>
				<g>
					<path class="st1" d="M22,52.7c-0.3,0-0.6-0.1-0.7-0.4c-0.3-0.4-0.1-0.9,0.3-1.2l2.1-1.3c0.4-0.3,0.9-0.1,1.2,0.3
						c0.3,0.4,0.1,0.9-0.3,1.2l-2.1,1.3C22.4,52.7,22.2,52.7,22,52.7z"/>
				</g>
				<g>
					<path class="st1" d="M24.1,51.4c-0.3,0-0.6-0.1-0.7-0.4l-1.3-2.1c-0.3-0.4-0.1-0.9,0.3-1.2c0.4-0.3,0.9-0.1,1.2,0.3l1.3,2.1
						c0.3,0.4,0.1,0.9-0.3,1.2C24.4,51.4,24.3,51.4,24.1,51.4z"/>
				</g>
				<g>
					<path class="st1" d="M24.8,54c-0.3,0-0.6-0.1-0.7-0.4c-0.3-0.4-0.1-0.9,0.3-1.2l2.8-1.8c0.4-0.3,0.9-0.1,1.2,0.3
						c0.3,0.4,0.1,0.9-0.3,1.2l-2.8,1.8C25.1,53.9,25,54,24.8,54z"/>
				</g>
				<g>
					<path class="st1" d="M27.6,52.2c-0.3,0-0.6-0.1-0.7-0.4L25.1,49c-0.3-0.4-0.1-0.9,0.3-1.2c0.4-0.3,0.9-0.1,1.2,0.3l1.8,2.8
						c0.3,0.4,0.1,0.9-0.3,1.2C27.9,52.1,27.8,52.2,27.6,52.2z"/>
				</g>
				<g>
					<path class="st1" d="M34.6,53.7c-0.3,0-0.6-0.1-0.7-0.4c-0.3-0.4-0.1-0.9,0.3-1.2l2.1-1.3c0.4-0.3,0.9-0.1,1.2,0.3
						c0.3,0.4,0.1,0.9-0.3,1.2l-2.1,1.3C34.9,53.7,34.8,53.7,34.6,53.7z"/>
				</g>
				<g>
					<path class="st1" d="M35.9,55.8c-0.3,0-0.6-0.1-0.7-0.4l-1.3-2.1c-0.3-0.4-0.1-0.9,0.3-1.2c0.4-0.3,0.9-0.1,1.2,0.3l1.3,2.1
						c0.3,0.4,0.1,0.9-0.3,1.2C36.3,55.7,36.1,55.8,35.9,55.8z"/>
				</g>
				<g>
					<path class="st1" d="M31.1,52.9c-0.3,0-0.6-0.1-0.7-0.4c-0.3-0.4-0.1-0.9,0.3-1.2l2.8-1.8c0.4-0.3,0.9-0.1,1.2,0.3
						c0.3,0.4,0.1,0.9-0.3,1.2l-2.8,1.8C31.4,52.9,31.3,52.9,31.1,52.9z"/>
				</g>
				<g>
					<path class="st1" d="M32.9,55.7c-0.3,0-0.6-0.1-0.7-0.4l-1.8-2.8c-0.3-0.4-0.1-0.9,0.3-1.2c0.4-0.3,0.9-0.1,1.2,0.3l1.8,2.8
						c0.3,0.4,0.1,0.9-0.3,1.2C33.2,55.7,33.1,55.7,32.9,55.7z"/>
				</g>
			</g>
		</g>
		<g>
			<g>
				<g>
					<path class="st1" d="M39.9,47.8c0,0-0.1,0-0.1,0c-0.3-0.1-0.5-0.3-0.4-0.6l2.2-10c0.1-0.3,0.3-0.5,0.6-0.4
						c0.3,0.1,0.5,0.3,0.4,0.6l-2.2,10C40.3,47.6,40.1,47.8,39.9,47.8z"/>
				</g>
				<g>
					<path class="st1" d="M41.1,47.1c-0.2,0-0.3-0.1-0.4-0.2l-0.8-1.2c-0.2-0.2-0.1-0.6,0.2-0.7c0.2-0.2,0.6-0.1,0.7,0.2l0.8,1.2
						c0.2,0.2,0.1,0.6-0.2,0.7C41.3,47.1,41.2,47.1,41.1,47.1z"/>
				</g>
				<g>
					<path class="st1" d="M39.1,46.6c-0.2,0-0.3-0.1-0.4-0.2c-0.2-0.2-0.1-0.6,0.2-0.7l1.2-0.8c0.2-0.2,0.6-0.1,0.7,0.2
						c0.2,0.2,0.1,0.6-0.2,0.7l-1.2,0.8C39.3,46.6,39.2,46.6,39.1,46.6z"/>
				</g>
				<g>
					<path class="st1" d="M41.8,45.5c-0.2,0-0.3-0.1-0.4-0.2l-1.1-1.7c-0.2-0.2-0.1-0.6,0.2-0.7c0.2-0.2,0.6-0.1,0.7,0.2l1.1,1.7
						c0.2,0.2,0.1,0.6-0.2,0.7C42,45.4,41.9,45.5,41.8,45.5z"/>
				</g>
				<g>
					<path class="st1" d="M39.1,44.9c-0.2,0-0.3-0.1-0.4-0.2c-0.2-0.2-0.1-0.6,0.2-0.7l1.6-1.1c0.2-0.2,0.6-0.1,0.7,0.2
						c0.2,0.2,0.1,0.6-0.2,0.7l-1.6,1.1C39.3,44.8,39.2,44.9,39.1,44.9z"/>
				</g>
				<g>
					<path class="st1" d="M41.6,39.7c-0.2,0-0.3-0.1-0.4-0.2l-0.8-1.2c-0.2-0.2-0.1-0.6,0.2-0.7c0.2-0.2,0.6-0.1,0.7,0.2l0.8,1.2
						c0.2,0.2,0.1,0.6-0.2,0.7C41.8,39.7,41.7,39.7,41.6,39.7z"/>
				</g>
				<g>
					<path class="st1" d="M41.6,39.7c-0.2,0-0.3-0.1-0.4-0.2c-0.2-0.2-0.1-0.6,0.2-0.7l1.2-0.8c0.2-0.2,0.6-0.1,0.7,0.2
						c0.2,0.2,0.1,0.6-0.2,0.7l-1.2,0.8C41.8,39.7,41.7,39.7,41.6,39.7z"/>
				</g>
				<g>
					<path class="st1" d="M41.2,41.7c-0.2,0-0.3-0.1-0.4-0.2l-1.1-1.7c-0.2-0.2-0.1-0.6,0.2-0.7c0.2-0.2,0.6-0.1,0.7,0.2l1.1,1.7
						c0.2,0.2,0.1,0.6-0.2,0.7C41.4,41.7,41.3,41.7,41.2,41.7z"/>
				</g>
				<g>
					<path class="st1" d="M41.2,41.7c-0.2,0-0.3-0.1-0.4-0.2c-0.2-0.2-0.1-0.6,0.2-0.7l1.7-1.1c0.2-0.2,0.6-0.1,0.7,0.2
						c0.2,0.2,0.1,0.6-0.2,0.7l-1.7,1.1C41.4,41.7,41.3,41.7,41.2,41.7z"/>
				</g>
			</g>
			<g>
				<g>
					<path class="st1" d="M45.9,43.9c0,0-0.1,0-0.1,0l-10-2.2c-0.3-0.1-0.5-0.3-0.4-0.6c0.1-0.3,0.3-0.5,0.6-0.4l10,2.2
						c0.3,0.1,0.5,0.3,0.4,0.6C46.4,43.7,46.2,43.9,45.9,43.9z"/>
				</g>
				<g>
					<path class="st1" d="M36.7,42.9c-0.2,0-0.3-0.1-0.4-0.2c-0.2-0.2-0.1-0.6,0.2-0.7l1.2-0.8c0.2-0.2,0.6-0.1,0.7,0.2
						c0.2,0.2,0.1,0.6-0.2,0.7l-1.2,0.8C36.9,42.9,36.8,42.9,36.7,42.9z"/>
				</g>
				<g>
					<path class="st1" d="M37.9,42.1c-0.2,0-0.3-0.1-0.4-0.2l-0.8-1.2c-0.2-0.2-0.1-0.6,0.2-0.7c0.2-0.2,0.6-0.1,0.7,0.2l0.8,1.2
						c0.2,0.2,0.1,0.6-0.2,0.7C38.1,42.1,38,42.1,37.9,42.1z"/>
				</g>
				<g>
					<path class="st1" d="M38.3,43.6c-0.2,0-0.3-0.1-0.4-0.2c-0.2-0.2-0.1-0.6,0.2-0.7l1.7-1.1c0.2-0.2,0.6-0.1,0.7,0.2
						c0.2,0.2,0.1,0.6-0.2,0.7l-1.7,1.1C38.5,43.6,38.4,43.6,38.3,43.6z"/>
				</g>
				<g>
					<path class="st1" d="M39.9,42.6c-0.2,0-0.3-0.1-0.4-0.2l-1.1-1.6c-0.2-0.2-0.1-0.6,0.2-0.7c0.2-0.2,0.6-0.1,0.7,0.2l1.1,1.6
						c0.2,0.2,0.1,0.6-0.2,0.7C40.1,42.5,40,42.6,39.9,42.6z"/>
				</g>
				<g>
					<path class="st1" d="M44.1,43.5c-0.2,0-0.3-0.1-0.4-0.2c-0.2-0.2-0.1-0.6,0.2-0.7l1.2-0.8c0.2-0.2,0.6-0.1,0.7,0.2
						c0.2,0.2,0.1,0.6-0.2,0.7l-1.2,0.8C44.3,43.5,44.2,43.5,44.1,43.5z"/>
				</g>
				<g>
					<path class="st1" d="M44.9,44.7c-0.2,0-0.3-0.1-0.4-0.2l-0.8-1.2c-0.2-0.2-0.1-0.6,0.2-0.7c0.2-0.2,0.6-0.1,0.7,0.2l0.8,1.2
						c0.2,0.2,0.1,0.6-0.2,0.7C45.1,44.7,45,44.7,44.9,44.7z"/>
				</g>
				<g>
					<path class="st1" d="M42,43c-0.2,0-0.3-0.1-0.4-0.2c-0.2-0.2-0.1-0.6,0.2-0.7l1.7-1.1c0.2-0.2,0.6-0.1,0.7,0.2
						c0.2,0.2,0.1,0.6-0.2,0.7l-1.7,1.1C42.2,43,42.1,43,42,43z"/>
				</g>
				<g>
					<path class="st1" d="M43.1,44.7c-0.2,0-0.3-0.1-0.4-0.2l-1.1-1.7c-0.2-0.2-0.1-0.6,0.2-0.7c0.2-0.2,0.6-0.1,0.7,0.2l1.1,1.7
						c0.2,0.2,0.1,0.6-0.2,0.7C43.3,44.7,43.2,44.7,43.1,44.7z"/>
				</g>
			</g>
		</g>
		<g>
			<g>
				<g>
					<path class="st1" d="M21.6,43.8c0,0-0.1,0-0.1,0c-0.3-0.1-0.5-0.3-0.4-0.6l2.2-10c0.1-0.3,0.3-0.5,0.6-0.4
						c0.3,0.1,0.5,0.3,0.4,0.6l-2.2,10C22.1,43.6,21.9,43.8,21.6,43.8z"/>
				</g>
				<g>
					<path class="st1" d="M22.9,43.1c-0.2,0-0.3-0.1-0.4-0.2l-0.8-1.2c-0.2-0.2-0.1-0.6,0.2-0.7c0.2-0.2,0.6-0.1,0.7,0.2l0.8,1.2
						c0.2,0.2,0.1,0.6-0.2,0.7C23,43.1,22.9,43.1,22.9,43.1z"/>
				</g>
				<g>
					<path class="st1" d="M20.8,42.7c-0.2,0-0.3-0.1-0.4-0.2c-0.2-0.2-0.1-0.6,0.2-0.7l1.2-0.8c0.2-0.2,0.6-0.1,0.7,0.2
						c0.2,0.2,0.1,0.6-0.2,0.7l-1.2,0.8C21,42.6,20.9,42.7,20.8,42.7z"/>
				</g>
				<g>
					<path class="st1" d="M23.6,41.5c-0.2,0-0.3-0.1-0.4-0.2l-1.1-1.6c-0.2-0.2-0.1-0.6,0.2-0.7c0.2-0.2,0.6-0.1,0.7,0.2l1.1,1.6
						c0.2,0.2,0.1,0.6-0.2,0.7C23.8,41.4,23.7,41.5,23.6,41.5z"/>
				</g>
				<g>
					<path class="st1" d="M20.9,40.9c-0.2,0-0.3-0.1-0.4-0.2c-0.2-0.2-0.1-0.6,0.2-0.7l1.6-1.1c0.2-0.2,0.6-0.1,0.7,0.2
						c0.2,0.2,0.1,0.6-0.2,0.7l-1.6,1.1C21.1,40.8,21,40.9,20.9,40.9z"/>
				</g>
				<g>
					<path class="st1" d="M23.4,35.7c-0.2,0-0.3-0.1-0.4-0.2l-0.8-1.2c-0.2-0.2-0.1-0.6,0.2-0.7c0.2-0.2,0.6-0.1,0.7,0.2l0.8,1.2
						c0.2,0.2,0.1,0.6-0.2,0.7C23.6,35.7,23.5,35.7,23.4,35.7z"/>
				</g>
				<g>
					<path class="st1" d="M23.4,35.7c-0.2,0-0.3-0.1-0.4-0.2c-0.2-0.2-0.1-0.6,0.2-0.7l1.2-0.8c0.2-0.2,0.6-0.1,0.7,0.2
						c0.2,0.2,0.1,0.6-0.2,0.7l-1.2,0.8C23.6,35.7,23.5,35.7,23.4,35.7z"/>
				</g>
				<g>
					<path class="st1" d="M23,37.7c-0.2,0-0.3-0.1-0.4-0.2l-1.1-1.7c-0.2-0.2-0.1-0.6,0.2-0.7c0.2-0.2,0.6-0.1,0.7,0.2l1.1,1.7
						c0.2,0.2,0.1,0.6-0.2,0.7C23.2,37.7,23.1,37.7,23,37.7z"/>
				</g>
				<g>
					<path class="st1" d="M23,37.7c-0.2,0-0.3-0.1-0.4-0.2c-0.2-0.2-0.1-0.6,0.2-0.7l1.6-1.1c0.2-0.2,0.6-0.1,0.7,0.2
						c0.2,0.2,0.1,0.6-0.2,0.7l-1.6,1.1C23.2,37.7,23.1,37.7,23,37.7z"/>
				</g>
			</g>
			<g>
				<g>
					<path class="st1" d="M27.7,39.9c0,0-0.1,0-0.1,0l-10-2.2c-0.3-0.1-0.5-0.3-0.4-0.6c0.1-0.3,0.3-0.5,0.6-0.4l10,2.2
						c0.3,0.1,0.5,0.3,0.4,0.6C28.2,39.7,28,39.9,27.7,39.9z"/>
				</g>
				<g>
					<path class="st1" d="M18.5,38.9c-0.2,0-0.3-0.1-0.4-0.2c-0.2-0.2-0.1-0.6,0.2-0.7l1.2-0.8c0.2-0.2,0.6-0.1,0.7,0.2
						c0.2,0.2,0.1,0.6-0.2,0.7l-1.2,0.8C18.6,38.9,18.5,38.9,18.5,38.9z"/>
				</g>
				<g>
					<path class="st1" d="M19.7,38.1c-0.2,0-0.3-0.1-0.4-0.2l-0.8-1.2c-0.2-0.2-0.1-0.6,0.2-0.7c0.2-0.2,0.6-0.1,0.7,0.2l0.8,1.2
						c0.2,0.2,0.1,0.6-0.2,0.7C19.9,38.1,19.8,38.1,19.7,38.1z"/>
				</g>
				<g>
					<path class="st1" d="M20.1,39.6c-0.2,0-0.3-0.1-0.4-0.2c-0.2-0.2-0.1-0.6,0.2-0.7l1.7-1.1c0.2-0.2,0.6-0.1,0.7,0.2
						c0.2,0.2,0.1,0.6-0.2,0.7l-1.7,1.1C20.3,39.6,20.2,39.6,20.1,39.6z"/>
				</g>
				<g>
					<path class="st1" d="M21.7,38.6c-0.2,0-0.3-0.1-0.4-0.2l-1.1-1.7c-0.2-0.2-0.1-0.6,0.2-0.7c0.2-0.2,0.6-0.1,0.7,0.2l1.1,1.7
						c0.2,0.2,0.1,0.6-0.2,0.7C21.9,38.6,21.8,38.6,21.7,38.6z"/>
				</g>
				<g>
					<path class="st1" d="M25.9,39.5c-0.2,0-0.3-0.1-0.4-0.2c-0.2-0.2-0.1-0.6,0.2-0.7l1.2-0.8c0.2-0.2,0.6-0.1,0.7,0.2
						c0.2,0.2,0.1,0.6-0.2,0.7l-1.2,0.8C26.1,39.5,26,39.5,25.9,39.5z"/>
				</g>
				<g>
					<path class="st1" d="M26.6,40.7c-0.2,0-0.3-0.1-0.4-0.2l-0.8-1.2c-0.2-0.2-0.1-0.6,0.2-0.7c0.2-0.2,0.6-0.1,0.7,0.2l0.8,1.2
						c0.2,0.2,0.1,0.6-0.2,0.7C26.8,40.7,26.7,40.7,26.6,40.7z"/>
				</g>
				<g>
					<path class="st1" d="M23.8,39c-0.2,0-0.3-0.1-0.4-0.2c-0.2-0.2-0.1-0.6,0.2-0.7l1.6-1.1c0.2-0.2,0.6-0.1,0.7,0.2
						c0.2,0.2,0.1,0.6-0.2,0.7L24.1,39C24,39,23.9,39,23.8,39z"/>
				</g>
				<g>
					<path class="st1" d="M24.9,40.7c-0.2,0-0.3-0.1-0.4-0.2l-1.1-1.6c-0.2-0.2-0.1-0.6,0.2-0.7c0.2-0.2,0.6-0.1,0.7,0.2l1.1,1.6
						c0.2,0.2,0.1,0.6-0.2,0.7C25.1,40.7,25,40.7,24.9,40.7z"/>
				</g>
			</g>
		</g>
		<g>
			<g>
				<g>
					<path class="st1" d="M32.2,39c0,0-0.1,0-0.1,0c-0.3-0.1-0.5-0.3-0.4-0.6l2.2-10c0.1-0.3,0.3-0.5,0.6-0.4
						c0.3,0.1,0.5,0.3,0.4,0.6l-2.2,10C32.7,38.9,32.5,39,32.2,39z"/>
				</g>
				<g>
					<path class="st1" d="M33.4,38.3c-0.2,0-0.3-0.1-0.4-0.2l-0.8-1.2c-0.2-0.2-0.1-0.6,0.2-0.7c0.2-0.2,0.6-0.1,0.7,0.2l0.8,1.2
						c0.2,0.2,0.1,0.6-0.2,0.7C33.6,38.3,33.5,38.3,33.4,38.3z"/>
				</g>
				<g>
					<path class="st1" d="M31.4,37.9c-0.2,0-0.3-0.1-0.4-0.2c-0.2-0.2-0.1-0.6,0.2-0.7l1.2-0.8c0.2-0.2,0.6-0.1,0.7,0.2
						c0.2,0.2,0.1,0.6-0.2,0.7l-1.2,0.8C31.6,37.9,31.5,37.9,31.4,37.9z"/>
				</g>
				<g>
					<path class="st1" d="M34.2,36.7c-0.2,0-0.3-0.1-0.4-0.2l-1.1-1.7c-0.2-0.2-0.1-0.6,0.2-0.7c0.2-0.2,0.6-0.1,0.7,0.2l1.1,1.7
						c0.2,0.2,0.1,0.6-0.2,0.7C34.4,36.7,34.3,36.7,34.2,36.7z"/>
				</g>
				<g>
					<path class="st1" d="M31.5,36.1c-0.2,0-0.3-0.1-0.4-0.2c-0.2-0.2-0.1-0.6,0.2-0.7l1.7-1.1c0.2-0.2,0.6-0.1,0.7,0.2
						c0.2,0.2,0.1,0.6-0.2,0.7L31.7,36C31.6,36.1,31.6,36.1,31.5,36.1z"/>
				</g>
				<g>
					<path class="st1" d="M34,30.9c-0.2,0-0.3-0.1-0.4-0.2l-0.8-1.2c-0.2-0.2-0.1-0.6,0.2-0.7c0.2-0.2,0.6-0.1,0.7,0.2l0.8,1.2
						c0.2,0.2,0.1,0.6-0.2,0.7C34.2,30.9,34.1,30.9,34,30.9z"/>
				</g>
				<g>
					<path class="st1" d="M34,30.9c-0.2,0-0.3-0.1-0.4-0.2c-0.2-0.2-0.1-0.6,0.2-0.7l1.2-0.8c0.2-0.2,0.6-0.1,0.7,0.2
						c0.2,0.2,0.1,0.6-0.2,0.7l-1.2,0.8C34.2,30.9,34.1,30.9,34,30.9z"/>
				</g>
				<g>
					<path class="st1" d="M33.6,33c-0.2,0-0.3-0.1-0.4-0.2l-1.1-1.7c-0.2-0.2-0.1-0.6,0.2-0.7c0.2-0.2,0.6-0.1,0.7,0.2l1.1,1.7
						c0.2,0.2,0.1,0.6-0.2,0.7C33.8,33,33.7,33,33.6,33z"/>
				</g>
				<g>
					<path class="st1" d="M33.6,33c-0.2,0-0.3-0.1-0.4-0.2C33,32.5,33,32.2,33.3,32l1.7-1.1c0.2-0.2,0.6-0.1,0.7,0.2
						c0.2,0.2,0.1,0.6-0.2,0.7l-1.7,1.1C33.8,33,33.7,33,33.6,33z"/>
				</g>
			</g>
			<g>
				<g>
					<path class="st1" d="M38.3,35.2c0,0-0.1,0-0.1,0l-10-2.2c-0.3-0.1-0.5-0.3-0.4-0.6c0.1-0.3,0.3-0.5,0.6-0.4l10,2.2
						c0.3,0.1,0.5,0.3,0.4,0.6C38.8,35,38.6,35.2,38.3,35.2z"/>
				</g>
				<g>
					<path class="st1" d="M29,34.2c-0.2,0-0.3-0.1-0.4-0.2c-0.2-0.2-0.1-0.6,0.2-0.7l1.2-0.8c0.2-0.2,0.6-0.1,0.7,0.2
						c0.2,0.2,0.1,0.6-0.2,0.7l-1.2,0.8C29.2,34.1,29.1,34.2,29,34.2z"/>
				</g>
				<g>
					<path class="st1" d="M30.3,33.4c-0.2,0-0.3-0.1-0.4-0.2L29,31.9c-0.2-0.2-0.1-0.6,0.2-0.7c0.2-0.2,0.6-0.1,0.7,0.2l0.8,1.2
						c0.2,0.2,0.1,0.6-0.2,0.7C30.5,33.4,30.4,33.4,30.3,33.4z"/>
				</g>
				<g>
					<path class="st1" d="M30.7,34.9c-0.2,0-0.3-0.1-0.4-0.2c-0.2-0.2-0.1-0.6,0.2-0.7l1.7-1.1c0.2-0.2,0.6-0.1,0.7,0.2
						c0.2,0.2,0.1,0.6-0.2,0.7l-1.7,1.1C30.9,34.9,30.8,34.9,30.7,34.9z"/>
				</g>
				<g>
					<path class="st1" d="M32.3,33.8c-0.2,0-0.3-0.1-0.4-0.2l-1.1-1.6c-0.2-0.2-0.1-0.6,0.2-0.7c0.2-0.2,0.6-0.1,0.7,0.2l1.1,1.6
						c0.2,0.2,0.1,0.6-0.2,0.7C32.5,33.8,32.4,33.8,32.3,33.8z"/>
				</g>
				<g>
					<path class="st1" d="M36.4,34.7c-0.2,0-0.3-0.1-0.4-0.2c-0.2-0.2-0.1-0.6,0.2-0.7l1.2-0.8c0.2-0.2,0.6-0.1,0.7,0.2
						c0.2,0.2,0.1,0.6-0.2,0.7l-1.2,0.8C36.6,34.7,36.5,34.7,36.4,34.7z"/>
				</g>
				<g>
					<path class="st1" d="M37.2,36c-0.2,0-0.3-0.1-0.4-0.2L36,34.5c-0.2-0.2-0.1-0.6,0.2-0.7c0.2-0.2,0.6-0.1,0.7,0.2l0.8,1.2
						c0.2,0.2,0.1,0.6-0.2,0.7C37.4,35.9,37.3,36,37.2,36z"/>
				</g>
				<g>
					<path class="st1" d="M34.4,34.3c-0.2,0-0.3-0.1-0.4-0.2c-0.2-0.2-0.1-0.6,0.2-0.7l1.7-1.1c0.2-0.2,0.6-0.1,0.7,0.2
						c0.2,0.2,0.1,0.6-0.2,0.7l-1.7,1.1C34.6,34.3,34.5,34.3,34.4,34.3z"/>
				</g>
				<g>
					<path class="st1" d="M35.5,35.9c-0.2,0-0.3-0.1-0.4-0.2L34,34.1c-0.2-0.2-0.1-0.6,0.2-0.7c0.2-0.2,0.6-0.1,0.7,0.2l1.1,1.6
						c0.2,0.2,0.1,0.6-0.2,0.7C35.6,35.9,35.5,35.9,35.5,35.9z"/>
				</g>
			</g>
		</g>
	</g>
</g>
</svg>
