<?xml version="1.0" encoding="utf-8"?>
<!-- Generator: Adobe Illustrator 19.2.1, SVG Export Plug-In . SVG Version: 6.00 Build 0)  -->
<svg version="1.1" id="Layer_1" xmlns="http://www.w3.org/2000/svg" xmlns:xlink="http://www.w3.org/1999/xlink" x="0px" y="0px"
	 viewBox="0 0 64 64" style="enable-background:new 0 0 64 64;" xml:space="preserve">
<metadata><?xpacket begin="﻿" id="W5M0MpCehiHzreSzNTczkc9d"?>
<x:xmpmeta xmlns:x="adobe:ns:meta/" x:xmptk="Adobe XMP Core 5.6-c111 79.158366, 2015/09/25-01:12:00        ">
   <rdf:RDF xmlns:rdf="http://www.w3.org/1999/02/22-rdf-syntax-ns#">
      <rdf:Description rdf:about=""/>
   </rdf:RDF>
</x:xmpmeta>
                                                                                                    
                                                                                                    
                                                                                                    
                                                                                                    
                                                                                                    
                                                                                                    
                                                                                                    
                                                                                                    
                                                                                                    
                                                                                                    
                                                                                                    
                                                                                                    
                                                                                                    
                                                                                                    
                                                                                                    
                                                                                                    
                                                                                                    
                                                                                                    
                                                                                                    
                                                                                                    
                           
<?xpacket end="w"?></metadata>
<style type="text/css">
	.st0{fill:none;}
	.st1{fill:#5B554D;}
</style>
<rect class="st0" width="64" height="64"/>
<g>
	<g>
		<g>
			<path class="st1" d="M39.8,49.4h-2.6c-0.4,0-0.7-0.3-0.7-0.7s0.3-0.7,0.7-0.7h2.6c4.3,0,7.9-3.7,7.9-8.3c0-3.6-2.1-6.7-5.3-7.9
				c-0.3-0.1-0.5-0.4-0.4-0.7c0-0.3,0-0.6,0-0.8c0-5.8-4.7-10.6-10.6-10.6c-3.8,0-7.3,2-9.2,5.3c-0.1,0.2-0.3,0.3-0.5,0.3
				c-0.2,0-0.4,0-0.5-0.1c-1.4-1.1-3.1-1.8-4.9-1.8c-4.3,0-7.7,3.5-7.7,7.7c0,0.3-0.2,0.6-0.4,0.7c-3,1.2-5.1,4.4-5.1,7.8
				c0,4.6,3.5,8.3,7.9,8.3h3.8c0.4,0,0.7,0.3,0.7,0.7s-0.3,0.7-0.7,0.7h-3.8c-5.1,0-9.2-4.3-9.2-9.7c0-3.9,2.1-7.3,5.5-8.8
				c0.2-4.9,4.2-8.7,9-8.7c1.8,0,3.6,0.6,5.2,1.6c2.2-3.3,5.9-5.4,9.9-5.4c6.6,0,11.9,5.3,11.9,11.9c0,0.2,0,0.3,0,0.5
				c3.5,1.5,5.7,5,5.7,8.9C49,45.1,44.9,49.4,39.8,49.4z"/>
		</g>
	</g>
	<g>
		<g>
			<path class="st1" d="M19.2,61.1c-1,0-2-0.2-2.9-0.7c-3-1.6-4.1-5.3-2.5-8.2c0.9-1.6,3.7-3.4,7.4-5.5c1-0.6,1.9-1.1,2.7-1.6
				c0.2-0.1,0.5-0.1,0.7,0c0.2,0.1,0.3,0.3,0.3,0.6c0,0.9,0.1,1.9,0.2,3.1c0.2,3.5,0.5,7.5-0.5,9.2c-0.8,1.4-2,2.5-3.6,3
				C20.4,61,19.8,61.1,19.2,61.1z M23.6,46.7c-0.5,0.3-1.1,0.7-1.7,1c-2.6,1.5-6.1,3.6-6.9,5c-1.2,2.3-0.4,5.2,2,6.5
				c1.1,0.6,2.4,0.7,3.6,0.4c1.2-0.4,2.2-1.2,2.8-2.3c0.8-1.4,0.5-5.5,0.3-8.5C23.7,48,23.6,47.3,23.6,46.7z M29,59.6
				c-0.4,0-0.8-0.1-1.1-0.3c-0.6-0.3-1-0.8-1.1-1.4c-0.2-0.6-0.1-1.2,0.2-1.8c0.3-0.6,1.2-1.2,2.7-2.1l0.1-0.1
				c0.2-0.1,0.3-0.2,0.5-0.3c0.2-0.1,0.4-0.1,0.6,0c0.2,0.1,0.3,0.3,0.4,0.5l0,0.7c0.1,1.5,0.1,2.8-0.2,3.4c-0.3,0.6-0.8,1-1.4,1.1
				C29.4,59.6,29.2,59.6,29,59.6z M29.9,55.5c-0.7,0.4-1.7,1-1.9,1.3c-0.1,0.2-0.2,0.5-0.1,0.8c0.1,0.3,0.3,0.5,0.5,0.6
				c0.2,0.1,0.5,0.2,0.8,0.1c0.3-0.1,0.5-0.3,0.6-0.5C30,57.5,30,56.2,29.9,55.5z M32,50.9c-0.6,0-1.2-0.1-1.7-0.4
				c-1.8-1-2.5-3.2-1.5-5c0.5-1,2.4-2.1,4.7-3.4c0.4-0.2,0.7-0.4,1-0.6c0.2-0.1,0.4-0.1,0.6,0c0.2,0.1,0.3,0.3,0.3,0.5l0.1,1.2
				c0,0,0,0,0,0l-0.7,0l0.7,0c0.2,2.6,0.2,4.8-0.3,5.8c-0.5,0.9-1.2,1.5-2.2,1.8C32.7,50.9,32.3,50.9,32,50.9z M34.1,43.2
				C34.1,43.2,34.1,43.2,34.1,43.2c-1.3,0.8-3.9,2.3-4.3,3c-0.6,1.1-0.2,2.6,1,3.2c0.6,0.3,1.2,0.4,1.8,0.2c0.6-0.2,1.1-0.6,1.4-1.1
				c0.4-0.7,0.2-3.7,0.1-5.1l0.7-0.1l-0.7,0L34.1,43.2z M15.8,47.1c-0.4,0-0.8-0.1-1.1-0.3c0,0,0,0,0,0c-0.6-0.3-1-0.8-1.1-1.4
				c-0.2-0.6-0.1-1.2,0.2-1.8c0.3-0.6,1.4-1.3,2.7-2.1c0.2-0.1,0.4-0.2,0.6-0.3c0.2-0.1,0.4-0.1,0.6,0c0.2,0.1,0.3,0.3,0.3,0.6
				c0,0.2,0,0.4,0,0.7c0.1,1.5,0.1,2.8-0.2,3.4c-0.3,0.6-0.8,1-1.4,1.1C16.3,47.1,16,47.1,15.8,47.1z M15.3,45.7
				c0.2,0.1,0.5,0.2,0.8,0.1c0.3-0.1,0.5-0.3,0.6-0.5c0.2-0.3,0.1-1.5,0.1-2.3c-0.7,0.4-1.7,1-1.9,1.3c-0.1,0.2-0.2,0.5-0.1,0.8
				C14.9,45.3,15.1,45.6,15.3,45.7z M24,42.4c-0.5,0-1-0.1-1.4-0.4c-0.7-0.4-1.2-1-1.4-1.8c-0.2-0.8-0.2-1.6,0.2-2.3
				c0.4-0.8,1.9-1.7,3.7-2.7l0.8-0.5c0.2-0.1,0.4-0.1,0.6,0c0.2,0.1,0.3,0.3,0.3,0.5c0,0.3,0,0.6,0.1,0.9c0.1,2,0.2,3.8-0.2,4.6
				c-0.4,0.7-1,1.2-1.8,1.4C24.6,42.3,24.3,42.4,24,42.4z M25.6,36.5c-0.9,0.5-2.8,1.6-3,2.1c-0.2,0.4-0.3,0.8-0.1,1.3
				c0.1,0.4,0.4,0.8,0.8,1c0.4,0.2,0.8,0.3,1.3,0.1c0.4-0.1,0.8-0.4,1-0.8C25.7,39.7,25.6,37.6,25.6,36.5z M32.5,38.3
				c-0.4,0-0.8-0.1-1.1-0.3c0,0,0,0,0,0c-1.1-0.6-1.6-2-1-3.2c0.3-0.6,1.4-1.3,2.7-2c0.2-0.1,0.4-0.3,0.6-0.4c0.2-0.1,0.4-0.1,0.7,0
				c0.2,0.1,0.3,0.3,0.3,0.6l0,0.7c0.1,1.5,0.1,2.8-0.2,3.4c-0.3,0.6-0.8,1-1.4,1.1C33,38.3,32.7,38.3,32.5,38.3z M32,36.9
				c0.3,0.1,0.5,0.2,0.8,0.1c0.3-0.1,0.5-0.3,0.6-0.5c0.2-0.3,0.1-1.6,0.1-2.3c-0.7,0.4-1.7,1.1-1.9,1.3C31.3,36,31.5,36.6,32,36.9z
				"/>
		</g>
	</g>
	<g>
		<g>
			<g>
				<g>
					<path class="st1" d="M12.2,22.1c-0.3,0-0.6-0.3-0.7-0.6c-0.1-2.2,0.6-4.3,2.1-6c1.5-1.6,3.5-2.6,5.7-2.7
						c3.1-0.2,6.1,1.4,7.6,4.2c0.2,0.3,0.1,0.7-0.2,0.9c-0.3,0.2-0.7,0.1-0.9-0.2c-1.3-2.3-3.8-3.6-6.4-3.5
						c-1.9,0.1-3.6,0.9-4.8,2.3c-1.2,1.4-1.9,3.2-1.8,5C12.9,21.8,12.6,22.1,12.2,22.1C12.3,22.1,12.2,22.1,12.2,22.1z"/>
				</g>
			</g>
			<g>
				<path class="st1" d="M1.7,22.9c-0.3,0-0.6-0.3-0.7-0.6c0-0.4,0.2-0.7,0.6-0.7L9.5,21c0.4,0,0.7,0.2,0.7,0.6
					c0,0.4-0.2,0.7-0.6,0.7L1.7,22.9C1.7,22.9,1.7,22.9,1.7,22.9z"/>
			</g>
			<g>
				<path class="st1" d="M10.9,17c-0.1,0-0.2,0-0.3-0.1l-6.7-3.7c-0.3-0.2-0.4-0.6-0.3-0.9c0.2-0.3,0.6-0.4,0.9-0.3l6.7,3.7
					c0.3,0.2,0.4,0.6,0.3,0.9C11.3,16.9,11.1,17,10.9,17z"/>
			</g>
			<g>
				<path class="st1" d="M14.3,13c-0.2,0-0.4-0.1-0.6-0.3L10,6.4c-0.2-0.3-0.1-0.7,0.2-0.9c0.3-0.2,0.7-0.1,0.9,0.2l3.7,6.3
					c0.2,0.3,0.1,0.7-0.2,0.9C14.5,12.9,14.4,13,14.3,13z"/>
			</g>
			<g>
				<path class="st1" d="M19.3,11.5c-0.3,0-0.6-0.3-0.7-0.6l-0.4-7.3c0-0.4,0.3-0.7,0.6-0.7c0.4,0,0.7,0.3,0.7,0.6l0.4,7.3
					C20,11.2,19.7,11.5,19.3,11.5C19.4,11.5,19.4,11.5,19.3,11.5z"/>
			</g>
			<g>
				<path class="st1" d="M24.8,12.5c-0.1,0-0.2,0-0.3-0.1c-0.3-0.2-0.4-0.6-0.3-0.9l3.5-6.3c0.2-0.3,0.6-0.4,0.9-0.3
					c0.3,0.2,0.4,0.6,0.3,0.9l-3.5,6.3C25.3,12.4,25.1,12.5,24.8,12.5z"/>
			</g>
			<g>
				<path class="st1" d="M28.9,16.3c-0.2,0-0.4-0.1-0.6-0.3c-0.2-0.3-0.1-0.7,0.2-0.9l6.1-3.7c0.3-0.2,0.7-0.1,0.9,0.2
					c0.2,0.3,0.1,0.7-0.2,0.9l-6.1,3.7C29.1,16.2,29,16.3,28.9,16.3z"/>
			</g>
		</g>
	</g>
	<g>
		<g>
			<path class="st1" d="M52.6,49.3h-2.9c-0.4,0-0.7-0.3-0.7-0.7c0-0.4,0.3-0.7,0.7-0.7h2.9c5,0,9.1-4.3,9.1-9.5
				c0-3.5-1.8-6.6-4.7-8.3c-0.2-0.1-0.3-0.3-0.3-0.5c-0.6-4.5-4.4-7.8-8.9-7.8c-1,0-2.7,0.6-4.8,1.6c-0.3,0.2-0.7,0-0.9-0.3
				c-0.2-0.3,0-0.7,0.3-0.9c1.6-0.8,3.8-1.7,5.4-1.7c5.1,0,9.4,3.7,10.1,8.6c3.1,1.9,5,5.5,5,9.3C63,44.5,58.3,49.3,52.6,49.3z"/>
		</g>
	</g>
</g>
</svg>
