<?xml version="1.0" encoding="utf-8"?>
<!-- Generator: Adobe Illustrator 19.2.1, SVG Export Plug-In . SVG Version: 6.00 Build 0)  -->
<svg version="1.1" id="Layer_1" xmlns="http://www.w3.org/2000/svg" xmlns:xlink="http://www.w3.org/1999/xlink" x="0px" y="0px"
	 viewBox="0 0 64 64" style="enable-background:new 0 0 64 64;" xml:space="preserve">
<metadata><?xpacket begin="﻿" id="W5M0MpCehiHzreSzNTczkc9d"?>
<x:xmpmeta xmlns:x="adobe:ns:meta/" x:xmptk="Adobe XMP Core 5.6-c111 79.158366, 2015/09/25-01:12:00        ">
   <rdf:RDF xmlns:rdf="http://www.w3.org/1999/02/22-rdf-syntax-ns#">
      <rdf:Description rdf:about=""/>
   </rdf:RDF>
</x:xmpmeta>
                                                                                                    
                                                                                                    
                                                                                                    
                                                                                                    
                                                                                                    
                                                                                                    
                                                                                                    
                                                                                                    
                                                                                                    
                                                                                                    
                                                                                                    
                                                                                                    
                                                                                                    
                                                                                                    
                                                                                                    
                                                                                                    
                                                                                                    
                                                                                                    
                                                                                                    
                                                                                                    
                           
<?xpacket end="w"?></metadata>
<style type="text/css">
	.st0{fill:none;}
	.st1{fill:#5B554D;}
</style>
<rect class="st0" width="64" height="64"/>
<g>
	<g>
		<g>
			<path class="st1" d="M47.8,50.6H45c-0.4,0-0.7-0.3-0.7-0.7s0.3-0.7,0.7-0.7h2.8c4.6,0,8.4-4,8.4-8.9c0-3.8-2.3-7.2-5.7-8.4
				c-0.3-0.1-0.5-0.4-0.5-0.7c0-0.3,0-0.6,0-0.9C50.1,24,45,19,38.8,19c-4,0-7.8,2.2-9.8,5.7c-0.1,0.2-0.3,0.3-0.5,0.3
				c-0.2,0-0.4,0-0.6-0.1c-1.5-1.2-3.3-1.9-5.2-1.9c-4.6,0-8.3,3.7-8.3,8.3c0,0.3-0.2,0.6-0.4,0.7c-3.2,1.3-5.4,4.6-5.4,8.3
				c0,4.9,3.8,8.9,8.4,8.9h4c0.4,0,0.7,0.3,0.7,0.7s-0.3,0.7-0.7,0.7h-4c-5.4,0-9.8-4.6-9.8-10.3c0-4.1,2.3-7.8,5.8-9.4
				c0.2-5.2,4.5-9.3,9.6-9.3c2,0,3.9,0.6,5.5,1.7c2.3-3.5,6.3-5.7,10.6-5.7c7,0,12.7,5.7,12.7,12.7c0,0.2,0,0.3,0,0.5
				c3.7,1.6,6.1,5.3,6.1,9.5C57.6,45.9,53.2,50.6,47.8,50.6z"/>
		</g>
	</g>
	<g>
		<g>
			<path class="st1" d="M25.8,63c-1.1,0-2.1-0.3-3-0.8c-3.2-1.7-4.4-5.6-2.7-8.8c0.9-1.7,4-3.6,7.9-5.9c1.1-0.6,2-1.2,2.8-1.7
				c0.2-0.1,0.5-0.1,0.7,0c0.2,0.1,0.4,0.3,0.4,0.6c0,0.9,0.1,2,0.2,3.3c0.2,3.7,0.5,7.9-0.5,9.8c-0.8,1.5-2.2,2.6-3.8,3.1
				C27.1,62.9,26.4,63,25.8,63z M30.5,47.7c-0.6,0.3-1.2,0.7-1.9,1.1c-2.8,1.6-6.5,3.8-7.3,5.3c-1.3,2.5-0.4,5.6,2.1,6.9
				c1.2,0.6,2.6,0.8,3.9,0.4c1.3-0.4,2.4-1.3,3-2.5c0.8-1.5,0.5-5.9,0.3-9.1C30.6,49.1,30.5,48.4,30.5,47.7z M36.2,61.5
				c-0.4,0-0.8-0.1-1.2-0.3c-0.6-0.3-1-0.8-1.2-1.5c-0.2-0.6-0.1-1.3,0.2-1.9c0.3-0.6,1.3-1.2,2.9-2.2l0.1-0.1
				c0.2-0.1,0.3-0.2,0.5-0.3c0.2-0.1,0.5-0.1,0.7,0c0.2,0.1,0.4,0.3,0.4,0.6l0,0.7c0.1,1.6,0.2,3-0.2,3.7c-0.3,0.6-0.8,1-1.5,1.2
				C36.7,61.4,36.5,61.5,36.2,61.5z M37.3,57c-0.7,0.4-1.8,1.1-2,1.4c-0.1,0.3-0.2,0.6-0.1,0.8c0.1,0.3,0.3,0.5,0.5,0.7
				c0.3,0.1,0.6,0.2,0.8,0.1c0.3-0.1,0.5-0.3,0.7-0.5C37.4,59.1,37.3,57.8,37.3,57z M39.4,52.2c-0.6,0-1.3-0.2-1.8-0.5
				c-1.9-1-2.6-3.4-1.6-5.3c0.6-1,2.6-2.3,5-3.7c0.4-0.2,0.8-0.4,1.1-0.6c0.2-0.1,0.5-0.1,0.7,0c0.2,0.1,0.4,0.3,0.4,0.6l0.1,1.3
				c0,0,0,0,0,0l-0.7,0l0.7,0c0.2,2.7,0.3,5.1-0.3,6.1c-0.5,0.9-1.3,1.6-2.3,1.9C40.2,52.1,39.8,52.2,39.4,52.2z M41.8,43.9
				c0,0-0.1,0-0.1,0.1c-1.3,0.8-4,2.4-4.4,3.1c-0.7,1.2-0.2,2.7,1,3.4c0.6,0.3,1.3,0.4,1.9,0.2c0.6-0.2,1.2-0.6,1.5-1.2
				c0.4-0.8,0.2-3.9,0.1-5.4l0.7-0.1l-0.7,0L41.8,43.9z M22.2,48.1c-0.4,0-0.8-0.1-1.2-0.3c0,0,0,0,0,0c-0.6-0.3-1-0.8-1.2-1.5
				c-0.2-0.6-0.1-1.3,0.2-1.9c0.3-0.7,1.5-1.4,2.9-2.2c0.2-0.1,0.4-0.2,0.6-0.4c0.2-0.1,0.5-0.1,0.7,0c0.2,0.1,0.4,0.3,0.4,0.6
				c0,0.2,0,0.4,0,0.7c0.1,1.6,0.2,3-0.2,3.7c-0.3,0.6-0.8,1-1.5,1.2C22.7,48.1,22.5,48.1,22.2,48.1z M21.7,46.6
				c0.3,0.1,0.6,0.2,0.8,0.1c0.3-0.1,0.5-0.3,0.7-0.5c0.2-0.3,0.1-1.6,0.1-2.5c-0.7,0.4-1.8,1.1-2,1.4c-0.1,0.3-0.2,0.6-0.1,0.8
				C21.2,46.2,21.4,46.4,21.7,46.6z M30.9,43.1c-0.5,0-1-0.1-1.5-0.4c-0.7-0.4-1.3-1.1-1.5-1.9c-0.2-0.8-0.2-1.7,0.2-2.4
				c0.5-0.8,2-1.8,3.9-2.9l0.8-0.5c0.2-0.1,0.5-0.1,0.7,0c0.2,0.1,0.4,0.3,0.4,0.6c0,0.3,0,0.6,0.1,1c0.1,2.2,0.2,4-0.2,4.9
				c-0.4,0.7-1.1,1.3-1.9,1.5C31.6,43,31.3,43.1,30.9,43.1z M32.6,36.8c-1,0.6-2.9,1.7-3.2,2.3c-0.2,0.4-0.3,0.9-0.1,1.3
				c0.1,0.5,0.4,0.8,0.9,1c0.4,0.2,0.9,0.3,1.3,0.1c0.5-0.1,0.8-0.4,1-0.9C32.8,40.2,32.7,37.9,32.6,36.8z M40,38.8
				c-0.4,0-0.8-0.1-1.2-0.3c0,0,0,0,0,0c-1.2-0.7-1.7-2.2-1-3.4c0.3-0.7,1.5-1.3,2.9-2.2c0.3-0.2,0.5-0.3,0.6-0.4
				c0.2-0.1,0.5-0.1,0.7,0c0.2,0.1,0.4,0.3,0.4,0.6l0,0.7c0.1,1.6,0.2,3-0.2,3.7c-0.3,0.6-0.8,1-1.5,1.2
				C40.5,38.7,40.2,38.8,40,38.8z M39.5,37.2c0.3,0.1,0.6,0.2,0.8,0.1c0.3-0.1,0.5-0.3,0.7-0.5c0.2-0.3,0.1-1.7,0.1-2.5
				c-0.7,0.4-1.9,1.1-2,1.4C38.7,36.3,38.9,36.9,39.5,37.2z"/>
		</g>
	</g>
	<g>
		<g>
			<g>
				<g>
					<path class="st1" d="M18.4,21.4c-0.4,0-0.7-0.3-0.7-0.7c-0.1-2.4,0.7-4.6,2.3-6.4c1.6-1.7,3.7-2.8,6.1-2.9
						c3.3-0.2,6.5,1.5,8.1,4.4c0.2,0.3,0.1,0.8-0.3,1c-0.3,0.2-0.8,0.1-1-0.3c-1.4-2.5-4-3.9-6.8-3.7c-2,0.1-3.8,1-5.1,2.5
						c-1.3,1.5-2,3.4-1.9,5.4C19.1,21.1,18.8,21.4,18.4,21.4C18.4,21.4,18.4,21.4,18.4,21.4z"/>
				</g>
			</g>
			<g>
				<path class="st1" d="M7.1,22.4c-0.4,0-0.7-0.3-0.7-0.6c0-0.4,0.3-0.7,0.6-0.8l8.4-0.7c0.4,0,0.7,0.3,0.8,0.6
					c0,0.4-0.3,0.7-0.6,0.8L7.1,22.4C7.2,22.4,7.2,22.4,7.1,22.4z"/>
			</g>
			<g>
				<path class="st1" d="M17,16.1c-0.1,0-0.2,0-0.3-0.1l-7.1-4c-0.3-0.2-0.5-0.6-0.3-1c0.2-0.3,0.6-0.5,1-0.3l7.1,4
					c0.3,0.2,0.5,0.6,0.3,1C17.5,15.9,17.2,16.1,17,16.1z"/>
			</g>
			<g>
				<path class="st1" d="M20.6,11.7c-0.2,0-0.5-0.1-0.6-0.3l-4-6.7c-0.2-0.3-0.1-0.8,0.2-1c0.3-0.2,0.8-0.1,1,0.2l4,6.7
					c0.2,0.3,0.1,0.8-0.2,1C20.8,11.7,20.7,11.7,20.6,11.7z"/>
			</g>
			<g>
				<path class="st1" d="M26,10.2c-0.4,0-0.7-0.3-0.7-0.7l-0.4-7.8c0-0.4,0.3-0.7,0.7-0.7c0.4,0,0.7,0.3,0.7,0.7l0.4,7.8
					C26.7,9.8,26.4,10.2,26,10.2C26,10.2,26,10.2,26,10.2z"/>
			</g>
			<g>
				<path class="st1" d="M31.8,11.2c-0.1,0-0.2,0-0.3-0.1c-0.3-0.2-0.5-0.6-0.3-1l3.7-6.7c0.2-0.3,0.6-0.5,1-0.3
					c0.3,0.2,0.5,0.6,0.3,1l-3.7,6.7C32.3,11.1,32.1,11.2,31.8,11.2z"/>
			</g>
			<g>
				<path class="st1" d="M36.1,15.2c-0.2,0-0.5-0.1-0.6-0.3c-0.2-0.3-0.1-0.8,0.2-1l6.5-3.9c0.3-0.2,0.8-0.1,1,0.2
					c0.2,0.3,0.1,0.8-0.2,1l-6.5,3.9C36.4,15.2,36.3,15.2,36.1,15.2z"/>
			</g>
		</g>
	</g>
</g>
</svg>
