<?xml version="1.0" encoding="utf-8"?>
<!-- Generator: Adobe Illustrator 19.2.1, SVG Export Plug-In . SVG Version: 6.00 Build 0)  -->
<svg version="1.1" id="Layer_1" xmlns="http://www.w3.org/2000/svg" xmlns:xlink="http://www.w3.org/1999/xlink" x="0px" y="0px"
	 viewBox="0 0 64 64" style="enable-background:new 0 0 64 64;" xml:space="preserve">
<metadata><?xpacket begin="﻿" id="W5M0MpCehiHzreSzNTczkc9d"?>
<x:xmpmeta xmlns:x="adobe:ns:meta/" x:xmptk="Adobe XMP Core 5.6-c111 79.158366, 2015/09/25-01:12:00        ">
   <rdf:RDF xmlns:rdf="http://www.w3.org/1999/02/22-rdf-syntax-ns#">
      <rdf:Description rdf:about=""/>
   </rdf:RDF>
</x:xmpmeta>
                                                                                                    
                                                                                                    
                                                                                                    
                                                                                                    
                                                                                                    
                                                                                                    
                                                                                                    
                                                                                                    
                                                                                                    
                                                                                                    
                                                                                                    
                                                                                                    
                                                                                                    
                                                                                                    
                                                                                                    
                                                                                                    
                                                                                                    
                                                                                                    
                                                                                                    
                                                                                                    
                           
<?xpacket end="w"?></metadata>
<style type="text/css">
	.st0{fill:none;}
	.st1{fill:#5B554D;}
</style>
<rect class="st0" width="64" height="64"/>
<g>
	<g>
		<g>
			<g>
				<path class="st1" d="M52.9,56h-2.8c-0.4,0-0.8-0.3-0.8-0.8c0-0.4,0.3-0.8,0.8-0.8h2.8c4.8,0,8.6-4.1,8.6-9
					c0-3.3-1.7-6.3-4.4-7.9c-0.2-0.1-0.3-0.3-0.4-0.6c-0.5-4.2-4.2-7.4-8.4-7.4c-1,0-2.6,0.5-4.5,1.5c-0.4,0.2-0.8,0-1-0.3
					c-0.2-0.4,0-0.8,0.3-1c1.5-0.8,3.7-1.7,5.2-1.7c4.9,0,9.1,3.6,9.9,8.4c3,1.9,4.9,5.3,4.9,9C63,51.3,58.5,56,52.9,56z"/>
			</g>
		</g>
		<g>
			<g>
				<path class="st1" d="M40.2,57.9H10.5c-5.3,0-9.5-4.5-9.5-10c0-4,2.2-7.5,5.6-9.1c0.3-5,4.4-9,9.4-9c1.9,0,3.7,0.6,5.3,1.6
					c2.3-3.4,6.1-5.5,10.2-5.5c6.8,0,12.3,5.5,12.3,12.3c0,0.1,0,0.3,0,0.4c3.6,1.5,5.9,5.2,5.9,9.3C49.7,53.4,45.5,57.9,40.2,57.9z
					 M16,31.3c-4.4,0-7.9,3.5-7.9,7.9c0,0.3-0.2,0.7-0.5,0.8c-3.1,1.3-5.1,4.5-5.1,7.9c0,4.7,3.6,8.5,8,8.5h29.7c4.4,0,8-3.8,8-8.5
					c0-3.6-2.2-6.9-5.4-8.1c-0.3-0.1-0.5-0.4-0.5-0.8c0-0.3,0-0.6,0-0.9c0-6-4.8-10.8-10.8-10.8c-3.9,0-7.5,2.1-9.4,5.5
					c-0.1,0.2-0.3,0.3-0.5,0.4c-0.2,0-0.4,0-0.6-0.2C19.6,31.9,17.8,31.3,16,31.3z"/>
			</g>
		</g>
	</g>
	<g>
		<g>
			<g>
				<g>
					<path class="st1" d="M21.1,25.9c0,0-0.1,0-0.1,0c-0.4-0.1-0.7-0.5-0.6-0.9c0.4-2.5,1.8-4.7,3.8-6.2c2-1.5,4.5-2.1,7.1-1.7
						c3.5,0.6,6.4,3.1,7.5,6.5c0.1,0.4-0.1,0.8-0.5,0.9c-0.4,0.1-0.8-0.1-0.9-0.5c-0.9-2.9-3.3-5-6.3-5.5c-2.2-0.3-4.2,0.1-5.9,1.4
						c-1.7,1.2-2.9,3.1-3.2,5.2C21.7,25.6,21.4,25.9,21.1,25.9z"/>
				</g>
			</g>
			<g>
				<path class="st1" d="M18,25.5c0,0-0.1,0-0.1,0l-8.9-1.2c-0.4-0.1-0.7-0.4-0.6-0.8c0.1-0.4,0.4-0.7,0.8-0.6l8.9,1.2
					c0.4,0.1,0.7,0.4,0.6,0.8C18.7,25.2,18.3,25.5,18,25.5z"/>
			</g>
			<g>
				<path class="st1" d="M20.8,19.9c-0.2,0-0.4-0.1-0.5-0.2l-6.6-5.8c-0.3-0.3-0.3-0.7-0.1-1.1s0.8-0.3,1.1-0.1l6.6,5.8
					c0.3,0.3,0.3,0.7,0.1,1.1C21.2,19.8,21,19.9,20.8,19.9z"/>
			</g>
			<g>
				<path class="st1" d="M25.6,16.2c-0.3,0-0.6-0.2-0.7-0.5l-2.7-7.9c-0.1-0.4,0.1-0.8,0.5-1c0.4-0.1,0.8,0.1,1,0.5l2.7,7.9
					c0.1,0.4-0.1,0.8-0.5,1C25.7,16.2,25.6,16.2,25.6,16.2z"/>
			</g>
			<g>
				<path class="st1" d="M31.6,15.8c0,0-0.1,0-0.1,0c-0.4-0.1-0.7-0.5-0.6-0.9l1.3-8.2C32.2,6.3,32.6,6,33,6.1
					c0.4,0.1,0.7,0.5,0.6,0.9l-1.3,8.2C32.2,15.6,31.9,15.8,31.6,15.8z"/>
			</g>
			<g>
				<path class="st1" d="M37.5,18.2c-0.2,0-0.4-0.1-0.5-0.2c-0.3-0.3-0.3-0.7-0.1-1.1l5.5-6.2c0.3-0.3,0.8-0.3,1.1-0.1
					c0.3,0.3,0.3,0.7,0.1,1.1L38,18C37.9,18.1,37.7,18.2,37.5,18.2z"/>
			</g>
			<g>
				<path class="st1" d="M41.1,23.4c-0.3,0-0.6-0.2-0.7-0.5c-0.1-0.4,0.1-0.8,0.5-1l7.8-2.6c0.4-0.1,0.8,0.1,1,0.5
					c0.1,0.4-0.1,0.8-0.5,1l-7.8,2.6C41.2,23.4,41.1,23.4,41.1,23.4z"/>
			</g>
		</g>
	</g>
</g>
</svg>
