<?xml version="1.0" encoding="utf-8"?>
<!-- Generator: Adobe Illustrator 19.2.1, SVG Export Plug-In . SVG Version: 6.00 Build 0)  -->
<svg version="1.1" id="Layer_1" xmlns="http://www.w3.org/2000/svg" xmlns:xlink="http://www.w3.org/1999/xlink" x="0px" y="0px"
	 viewBox="0 0 64 64" style="enable-background:new 0 0 64 64;" xml:space="preserve">
<metadata><?xpacket begin="﻿" id="W5M0MpCehiHzreSzNTczkc9d"?>
<x:xmpmeta xmlns:x="adobe:ns:meta/" x:xmptk="Adobe XMP Core 5.6-c111 79.158366, 2015/09/25-01:12:00        ">
   <rdf:RDF xmlns:rdf="http://www.w3.org/1999/02/22-rdf-syntax-ns#">
      <rdf:Description rdf:about=""/>
   </rdf:RDF>
</x:xmpmeta>
                                                                                                    
                                                                                                    
                                                                                                    
                                                                                                    
                                                                                                    
                                                                                                    
                                                                                                    
                                                                                                    
                                                                                                    
                                                                                                    
                                                                                                    
                                                                                                    
                                                                                                    
                                                                                                    
                                                                                                    
                                                                                                    
                                                                                                    
                                                                                                    
                                                                                                    
                                                                                                    
                           
<?xpacket end="w"?></metadata>
<style type="text/css">
	.st0{fill:none;}
	.st1{fill:#5B554D;}
</style>
<rect class="st0" width="64" height="64"/>
<g>
	<g>
		<g>
			<path class="st1" d="M52,45.3H40.4c-0.6,0-1-0.5-1-1s0.5-1,1-1H52c4.9,0,9-4.3,9-9.6c0-4.1-2.4-7.8-6.1-9.1c-1.2-0.4-2-1.7-1.9-3
				c0-0.3,0-0.7,0-1C53,13.7,47.3,8,40.3,8c-4.5,0-8.8,2.5-11,6.4c-0.4,0.7-1.2,1.3-2,1.4c-0.8,0.1-1.7-0.1-2.3-0.6
				c-1.6-1.3-3.5-2-5.6-2c-4.8,0-8.8,3.9-8.8,8.8c0,1-0.6,2.3-1.8,2.8c-3.4,1.4-5.8,5-5.8,9c0,5.3,4,9.6,9,9.6h13.2c0.6,0,1,0.5,1,1
				s-0.5,1-1,1H12c-6.1,0-11-5.2-11-11.6c0-4.8,2.8-9.1,7-10.9c0.3-0.1,0.5-0.6,0.5-0.9c0-6,4.9-10.8,10.8-10.8
				c2.5,0,4.9,0.9,6.9,2.5c0.2,0.1,0.5,0.2,0.7,0.2c0.3,0,0.5-0.2,0.6-0.4c2.6-4.6,7.5-7.4,12.8-7.4c8.1,0,14.7,6.6,14.7,14.7
				c0,0.4,0,0.8,0,1.2c0,0.4,0.2,0.7,0.5,0.9c4.5,1.6,7.4,6,7.4,11C63,40.1,58.1,45.3,52,45.3z"/>
		</g>
	</g>
	<g>
		<g>
			<path class="st1" d="M29.2,58.1c-0.1,0-0.2,0-0.4-0.1c-0.5-0.2-0.8-0.8-0.6-1.3l5.7-15.6h-6.7c-0.4,0-0.7-0.2-0.9-0.5
				c-0.2-0.3-0.2-0.7,0-1l9.5-16.1c0.3-0.5,0.9-0.6,1.4-0.4c0.5,0.3,0.6,0.9,0.4,1.4L29,39h6.4c0.3,0,0.6,0.2,0.8,0.4
				c0.2,0.3,0.2,0.6,0.1,0.9l-6.2,17C30,57.8,29.6,58.1,29.2,58.1z"/>
		</g>
	</g>
</g>
</svg>
