<?xml version="1.0" encoding="utf-8"?>
<!-- Generator: Adobe Illustrator 19.2.1, SVG Export Plug-In . SVG Version: 6.00 Build 0)  -->
<svg version="1.1" id="Layer_1" xmlns="http://www.w3.org/2000/svg" xmlns:xlink="http://www.w3.org/1999/xlink" x="0px" y="0px"
	 viewBox="0 0 64 64" style="enable-background:new 0 0 64 64;" xml:space="preserve">
<metadata><?xpacket begin="﻿" id="W5M0MpCehiHzreSzNTczkc9d"?>
<x:xmpmeta xmlns:x="adobe:ns:meta/" x:xmptk="Adobe XMP Core 5.6-c111 79.158366, 2015/09/25-01:12:00        ">
   <rdf:RDF xmlns:rdf="http://www.w3.org/1999/02/22-rdf-syntax-ns#">
      <rdf:Description rdf:about=""/>
   </rdf:RDF>
</x:xmpmeta>
                                                                                                    
                                                                                                    
                                                                                                    
                                                                                                    
                                                                                                    
                                                                                                    
                                                                                                    
                                                                                                    
                                                                                                    
                                                                                                    
                                                                                                    
                                                                                                    
                                                                                                    
                                                                                                    
                                                                                                    
                                                                                                    
                                                                                                    
                                                                                                    
                                                                                                    
                                                                                                    
                           
<?xpacket end="w"?></metadata>
<style type="text/css">
	.st0{fill:none;}
	.st1{fill:#5B554D;}
</style>
<rect class="st0" width="64" height="64"/>
<g>
	<g>
		<path class="st1" d="M50.9,52.3H13.1C6.4,52.3,1,46.6,1,39.6c0-5.1,2.8-9.6,7.2-11.6c0.3-6.4,5.5-11.4,11.9-11.4
			c2.4,0,4.8,0.7,6.8,2.1c2.9-4.4,7.8-7.1,13-7.1c8.6,0,15.6,7,15.6,15.6c0,0.2,0,0.4,0,0.6C60,29.8,63,34.5,63,39.6
			C63,46.6,57.6,52.3,50.9,52.3z M20.1,18.3c-5.6,0-10.2,4.6-10.2,10.2c0,0.4-0.2,0.8-0.5,0.9c-4,1.6-6.6,5.7-6.6,10.2
			c0,6,4.6,10.9,10.3,10.9h37.9c5.7,0,10.3-4.9,10.3-10.9c0-4.7-2.8-8.8-7-10.4c-0.4-0.1-0.6-0.5-0.6-0.9c0-0.4,0.1-0.7,0.1-1.1
			c0-7.7-6.2-13.9-13.9-13.9c-5,0-9.6,2.7-12.1,7c-0.1,0.2-0.3,0.4-0.6,0.4c-0.3,0-0.5,0-0.7-0.2C24.7,19.2,22.4,18.3,20.1,18.3z"/>
	</g>
</g>
</svg>
