<?xml version="1.0" encoding="utf-8"?>
<!-- Generator: Adobe Illustrator 19.2.1, SVG Export Plug-In . SVG Version: 6.00 Build 0)  -->
<svg version="1.1" id="Layer_1" xmlns="http://www.w3.org/2000/svg" xmlns:xlink="http://www.w3.org/1999/xlink" x="0px" y="0px"
	 viewBox="0 0 64 64" style="enable-background:new 0 0 64 64;" xml:space="preserve">
<metadata><?xpacket begin="﻿" id="W5M0MpCehiHzreSzNTczkc9d"?>
<x:xmpmeta xmlns:x="adobe:ns:meta/" x:xmptk="Adobe XMP Core 5.6-c111 79.158366, 2015/09/25-01:12:00        ">
   <rdf:RDF xmlns:rdf="http://www.w3.org/1999/02/22-rdf-syntax-ns#">
      <rdf:Description rdf:about=""/>
   </rdf:RDF>
</x:xmpmeta>
                                                                                                    
                                                                                                    
                                                                                                    
                                                                                                    
                                                                                                    
                                                                                                    
                                                                                                    
                                                                                                    
                                                                                                    
                                                                                                    
                                                                                                    
                                                                                                    
                                                                                                    
                                                                                                    
                                                                                                    
                                                                                                    
                                                                                                    
                                                                                                    
                                                                                                    
                                                                                                    
                           
<?xpacket end="w"?></metadata>
<style type="text/css">
	.st0{fill:none;}
	.st1{fill:#5B554D;}
</style>
<rect class="st0" width="64" height="64"/>
<g>
	<g>
		<g>
			<path class="st1" d="M50.9,60.8H13.1C6.4,60.8,1,55.1,1,48.1c0-5.1,2.8-9.6,7.2-11.6c0.3-6.4,5.5-11.4,11.9-11.4
				c2.4,0,4.8,0.7,6.8,2.1c2.9-4.4,7.8-7,13-7c8.6,0,15.6,7,15.6,15.6c0,0.2,0,0.4,0,0.6C60,38.3,63,42.9,63,48.1
				C63,55.1,57.6,60.8,50.9,60.8z M20.1,26.8c-5.6,0-10.2,4.6-10.2,10.2c0,0.4-0.2,0.8-0.5,0.9c-4,1.6-6.6,5.7-6.6,10.2
				c0,6,4.6,10.9,10.3,10.9h37.9c5.7,0,10.3-4.9,10.3-10.9c0-4.7-2.8-8.8-7-10.4c-0.4-0.1-0.6-0.5-0.6-0.9c0-0.4,0.1-0.7,0.1-1.1
				c0-7.7-6.2-13.9-13.9-13.9c-5,0-9.6,2.7-12.1,7c-0.1,0.2-0.3,0.4-0.6,0.4c-0.3,0-0.5,0-0.7-0.2C24.7,27.7,22.4,26.8,20.1,26.8z"
				/>
		</g>
	</g>
	<g>
		<path class="st1" d="M10,25.9c-0.4,0-0.7-0.2-0.8-0.6c-0.6-1.8-0.9-3.6-0.9-5.5c0-9.2,7.5-16.6,16.6-16.6
			c7.9,0,14.7,5.6,16.3,13.3c0.1,0.5-0.2,0.9-0.7,1c-0.5,0.1-0.9-0.2-1-0.7C38.1,9.9,31.9,4.9,24.9,4.9c-8.2,0-14.9,6.7-14.9,14.9
			c0,1.7,0.3,3.4,0.8,5c0.2,0.4-0.1,0.9-0.5,1.1C10.2,25.9,10.1,25.9,10,25.9z"/>
	</g>
	<g>
		<path class="st1" d="M13.4,24.1c-0.4,0-0.7-0.2-0.8-0.6c-0.3-1.2-0.5-2.4-0.5-3.6C12,12.8,17.8,7,24.9,7c5.9,0,11.2,4.2,12.5,10
			c0.1,0.5-0.2,0.9-0.7,1c-0.5,0.1-0.9-0.2-1-0.7c-1.1-5-5.7-8.7-10.8-8.7c-6.1,0-11.1,5-11.1,11.1c0,1.1,0.2,2.1,0.5,3.1
			c0.1,0.5-0.1,0.9-0.6,1.1C13.6,24.1,13.5,24.1,13.4,24.1z"/>
	</g>
	<g>
		<path class="st1" d="M16.9,22.1c-0.4,0-0.8-0.3-0.8-0.7c-0.1-0.5-0.1-1-0.1-1.6c0-5,4-9,9-9c3.8,0,7.2,2.4,8.5,6
			c0.2,0.4-0.1,0.9-0.5,1.1c-0.4,0.2-0.9-0.1-1.1-0.5c-1-2.9-3.8-4.8-6.9-4.8c-4,0-7.3,3.3-7.3,7.3c0,0.4,0,0.9,0.1,1.3
			c0.1,0.5-0.2,0.9-0.7,1C17,22.1,16.9,22.1,16.9,22.1z"/>
	</g>
</g>
</svg>
