<?xml version="1.0" encoding="utf-8"?>
<!-- Generator: Adobe Illustrator 19.2.1, SVG Export Plug-In . SVG Version: 6.00 Build 0)  -->
<svg version="1.1" id="Layer_1" xmlns="http://www.w3.org/2000/svg" xmlns:xlink="http://www.w3.org/1999/xlink" x="0px" y="0px"
	 viewBox="0 0 64 64" style="enable-background:new 0 0 64 64;" xml:space="preserve">
<metadata><?xpacket begin="﻿" id="W5M0MpCehiHzreSzNTczkc9d"?>
<x:xmpmeta xmlns:x="adobe:ns:meta/" x:xmptk="Adobe XMP Core 5.6-c111 79.158366, 2015/09/25-01:12:00        ">
   <rdf:RDF xmlns:rdf="http://www.w3.org/1999/02/22-rdf-syntax-ns#">
      <rdf:Description rdf:about=""/>
   </rdf:RDF>
</x:xmpmeta>
                                                                                                    
                                                                                                    
                                                                                                    
                                                                                                    
                                                                                                    
                                                                                                    
                                                                                                    
                                                                                                    
                                                                                                    
                                                                                                    
                                                                                                    
                                                                                                    
                                                                                                    
                                                                                                    
                                                                                                    
                                                                                                    
                                                                                                    
                                                                                                    
                                                                                                    
                                                                                                    
                           
<?xpacket end="w"?></metadata>
<style type="text/css">
	.st0{fill:none;}
	.st1{fill:#5B554D;}
</style>
<rect class="st0" width="64" height="64"/>
<g>
	<g>
		<g>
			<path class="st1" d="M50.9,44.7h-3.5c-0.5,0-0.9-0.4-0.9-0.9s0.4-0.9,0.9-0.9h3.5c5.7,0,10.3-4.9,10.3-10.9c0-4.7-2.8-8.8-7-10.4
				c-0.4-0.1-0.6-0.5-0.6-0.9c0-0.4,0.1-0.7,0.1-1.1c0-7.7-6.2-13.9-13.9-13.9c-5,0-9.6,2.7-12.1,7c-0.1,0.2-0.3,0.4-0.6,0.4
				c-0.2,0-0.5,0-0.7-0.2c-1.8-1.5-4.1-2.3-6.5-2.3c-5.6,0-10.2,4.6-10.2,10.2c0,0.4-0.2,0.8-0.5,0.9c-4,1.6-6.6,5.7-6.6,10.2
				c0,6,4.6,10.9,10.3,10.9h5c0.5,0,0.9,0.4,0.9,0.9s-0.4,0.9-0.9,0.9h-5C6.4,44.7,1,39,1,32c0-5.1,2.8-9.6,7.2-11.6
				C8.5,14,13.7,9,20.1,9c2.4,0,4.8,0.7,6.8,2.1c2.9-4.4,7.8-7.1,13-7.1c8.6,0,15.6,7,15.6,15.6c0,0.2,0,0.4,0,0.6
				C60,22.2,63,26.8,63,32C63,39,57.6,44.7,50.9,44.7z"/>
		</g>
	</g>
	<g>
		<g>
			<path class="st1" d="M23.9,60c-1.3,0-2.6-0.3-3.8-0.9c-3.9-2.1-5.4-6.9-3.3-10.8c1.1-2.1,4.9-4.4,9.7-7.2
				c1.4-0.8,2.5-1.5,3.5-2.1c0.3-0.2,0.6-0.2,0.9,0c0.3,0.1,0.4,0.4,0.5,0.7c0,1.2,0.1,2.5,0.2,4.1c0.3,4.6,0.6,9.8-0.6,12.1
				c-1,1.9-2.7,3.3-4.7,3.9C25.4,59.9,24.6,60,23.9,60z M29.7,41.1c-0.7,0.4-1.5,0.9-2.3,1.3c-3.4,2-8,4.7-9,6.6
				c-1.6,3-0.5,6.9,2.6,8.5c1.5,0.8,3.2,1,4.8,0.5c1.6-0.5,2.9-1.6,3.7-3c1-1.9,0.7-7.2,0.4-11.2C29.8,42.8,29.7,41.9,29.7,41.1z
				 M36.7,58.1c-0.5,0-1-0.1-1.5-0.4c-0.7-0.4-1.3-1-1.5-1.8c-0.2-0.8-0.2-1.6,0.2-2.4c0.4-0.7,1.6-1.5,3.6-2.7l0.1-0.1
				c0.2-0.1,0.4-0.2,0.6-0.4c0.3-0.2,0.6-0.2,0.8,0c0.3,0.1,0.4,0.4,0.5,0.7l0.1,0.9c0.1,2,0.2,3.7-0.2,4.5c-0.4,0.7-1,1.3-1.8,1.5
				C37.3,58,37,58.1,36.7,58.1z M38,52.6c-0.9,0.5-2.3,1.4-2.5,1.8c-0.2,0.3-0.2,0.7-0.1,1s0.3,0.6,0.7,0.8c0.3,0.2,0.7,0.2,1,0.1
				c0.4-0.1,0.6-0.3,0.8-0.7C38.1,55.2,38.1,53.6,38,52.6z M40.6,46.6c-0.8,0-1.6-0.2-2.3-0.6c-2.3-1.3-3.2-4.2-2-6.5
				c0.7-1.3,3.2-2.8,6.1-4.5c0.5-0.3,0.9-0.6,1.4-0.8c0.3-0.2,0.6-0.2,0.8,0c0.3,0.1,0.4,0.4,0.5,0.7l0.1,1.5c0,0,0,0,0,0l-0.9,0.1
				l0.9,0c0.2,3.4,0.3,6.3-0.4,7.6c-0.6,1.1-1.6,2-2.9,2.3C41.6,46.6,41.1,46.6,40.6,46.6z M43.5,36.4c0,0-0.1,0-0.1,0.1
				c-1.6,0.9-5,2.9-5.5,3.8c-0.8,1.5-0.2,3.4,1.3,4.2c0.7,0.4,1.6,0.5,2.3,0.2c0.8-0.2,1.4-0.8,1.8-1.5c0.5-1,0.3-4.8,0.2-6.6
				l0.9-0.1l-0.9,0.1L43.5,36.4z M19.5,41.6c-0.5,0-1-0.1-1.5-0.4l0,0c-0.7-0.4-1.3-1-1.5-1.8c-0.2-0.8-0.2-1.6,0.2-2.4
				c0.4-0.8,1.9-1.7,3.6-2.7c0.3-0.2,0.5-0.3,0.8-0.4c0.3-0.2,0.6-0.2,0.9,0c0.3,0.1,0.4,0.4,0.5,0.7c0,0.3,0,0.6,0,0.9
				c0.1,2,0.2,3.7-0.2,4.5c-0.4,0.7-1,1.3-1.8,1.5C20.1,41.6,19.8,41.6,19.5,41.6z M18.8,39.7c0.3,0.2,0.7,0.2,1,0.1
				c0.4-0.1,0.6-0.3,0.8-0.7c0.2-0.4,0.1-2,0.1-3.1c-0.9,0.5-2.3,1.4-2.5,1.8c-0.2,0.3-0.2,0.7-0.1,1C18.3,39.3,18.5,39.6,18.8,39.7
				z M30.2,35.4c-0.6,0-1.3-0.2-1.8-0.5c-0.9-0.5-1.6-1.3-1.9-2.3c-0.3-1-0.2-2.1,0.3-3c0.6-1,2.5-2.2,4.8-3.6l1-0.6
				c0.3-0.2,0.6-0.2,0.9,0c0.3,0.1,0.4,0.4,0.5,0.7c0,0.4,0,0.8,0.1,1.2c0.2,2.7,0.3,4.9-0.3,6c-0.5,0.9-1.3,1.6-2.3,1.9
				C31,35.4,30.6,35.4,30.2,35.4z M32.3,27.7c-1.2,0.7-3.6,2.1-4,2.8C28,31,28,31.6,28.1,32.1c0.2,0.6,0.5,1,1.1,1.3
				c0.5,0.3,1.1,0.3,1.7,0.2c0.6-0.2,1-0.5,1.3-1.1C32.5,31.9,32.3,29.1,32.3,27.7z M41.3,30.1c-0.5,0-1-0.1-1.5-0.4c0,0,0,0,0,0
				c-1.5-0.8-2.1-2.7-1.3-4.2c0.4-0.8,1.8-1.7,3.6-2.7c0.3-0.2,0.6-0.3,0.8-0.5c0.3-0.2,0.6-0.2,0.9,0c0.3,0.1,0.4,0.4,0.5,0.7
				l0,0.9c0.1,2,0.2,3.7-0.2,4.5c-0.4,0.7-1,1.3-1.8,1.5C42,30.1,41.6,30.1,41.3,30.1z M40.7,28.2c0.3,0.2,0.7,0.2,1,0.1
				c0.3-0.1,0.6-0.3,0.8-0.7c0.2-0.4,0.1-2.1,0.1-3.1c-0.9,0.5-2.3,1.4-2.5,1.8C39.8,27,40,27.9,40.7,28.2z"/>
		</g>
	</g>
</g>
</svg>
