<?xml version="1.0" encoding="utf-8"?>
<!-- Generator: Adobe Illustrator 19.2.1, SVG Export Plug-In . SVG Version: 6.00 Build 0)  -->
<svg version="1.1" id="Layer_1" xmlns="http://www.w3.org/2000/svg" xmlns:xlink="http://www.w3.org/1999/xlink" x="0px" y="0px"
	 viewBox="0 0 64 64" style="enable-background:new 0 0 64 64;" xml:space="preserve">
<metadata><?xpacket begin="﻿" id="W5M0MpCehiHzreSzNTczkc9d"?>
<x:xmpmeta xmlns:x="adobe:ns:meta/" x:xmptk="Adobe XMP Core 5.6-c111 79.158366, 2015/09/25-01:12:00        ">
   <rdf:RDF xmlns:rdf="http://www.w3.org/1999/02/22-rdf-syntax-ns#">
      <rdf:Description rdf:about=""/>
   </rdf:RDF>
</x:xmpmeta>
                                                                                                    
                                                                                                    
                                                                                                    
                                                                                                    
                                                                                                    
                                                                                                    
                                                                                                    
                                                                                                    
                                                                                                    
                                                                                                    
                                                                                                    
                                                                                                    
                                                                                                    
                                                                                                    
                                                                                                    
                                                                                                    
                                                                                                    
                                                                                                    
                                                                                                    
                                                                                                    
                           
<?xpacket end="w"?></metadata>
<style type="text/css">
	.st0{fill:none;}
	.st1{fill:#5B554D;}
</style>
<rect class="st0" width="64" height="64"/>
<g>
	<g>
		<g>
			<g>
				<path class="st1" d="M62,35.9c-0.5,0-1-0.4-1-1c0-4.5-2.4-8.6-6.4-10.7c-0.3-0.2-0.5-0.5-0.5-0.9c-0.2-7.8-6.9-14.2-14.9-14.2
					c-4.5,0-8.8,2-11.6,5.5c-0.3,0.4-0.8,0.5-1.2,0.3c-1.6-0.8-3.5-1.3-5.3-1.3c-5.8,0-10.7,4.3-11.4,10c0,0.3-0.2,0.6-0.5,0.8
					C5.4,26.5,3,30.5,3,34.9c0,0.5-0.4,1-1,1s-1-0.4-1-1c0-5,2.6-9.6,6.7-12c1-6.4,6.6-11.2,13.3-11.2c1.9,0,3.8,0.4,5.5,1.2
					c3.2-3.6,7.8-5.6,12.7-5.6c8.9,0,16.3,6.9,16.8,15.6c4.3,2.5,6.9,7.1,6.9,12.1C63,35.5,62.6,35.9,62,35.9z"/>
			</g>
		</g>
	</g>
	<g>
		<path class="st1" d="M62,41.9H2c-0.5,0-1-0.4-1-1c0-0.5,0.4-1,1-1h60c0.5,0,1,0.4,1,1C63,41.5,62.6,41.9,62,41.9z"/>
	</g>
	<g>
		<path class="st1" d="M62,49.4H2c-0.5,0-1-0.4-1-1c0-0.5,0.4-1,1-1h60c0.5,0,1,0.4,1,1C63,48.9,62.6,49.4,62,49.4z"/>
	</g>
	<g>
		<path class="st1" d="M62,56.8H2c-0.5,0-1-0.4-1-1c0-0.5,0.4-1,1-1h60c0.5,0,1,0.4,1,1C63,56.3,62.6,56.8,62,56.8z"/>
	</g>
</g>
</svg>
