<?xml version="1.0" encoding="utf-8"?>
<!-- Generator: Adobe Illustrator 19.2.1, SVG Export Plug-In . SVG Version: 6.00 Build 0)  -->
<svg version="1.1" id="Layer_1" xmlns="http://www.w3.org/2000/svg" xmlns:xlink="http://www.w3.org/1999/xlink" x="0px" y="0px"
	 viewBox="0 0 64 64" style="enable-background:new 0 0 64 64;" xml:space="preserve">
<metadata><?xpacket begin="﻿" id="W5M0MpCehiHzreSzNTczkc9d"?>
<x:xmpmeta xmlns:x="adobe:ns:meta/" x:xmptk="Adobe XMP Core 5.6-c111 79.158366, 2015/09/25-01:12:00        ">
   <rdf:RDF xmlns:rdf="http://www.w3.org/1999/02/22-rdf-syntax-ns#">
      <rdf:Description rdf:about=""/>
   </rdf:RDF>
</x:xmpmeta>
                                                                                                    
                                                                                                    
                                                                                                    
                                                                                                    
                                                                                                    
                                                                                                    
                                                                                                    
                                                                                                    
                                                                                                    
                                                                                                    
                                                                                                    
                                                                                                    
                                                                                                    
                                                                                                    
                                                                                                    
                                                                                                    
                                                                                                    
                                                                                                    
                                                                                                    
                                                                                                    
                           
<?xpacket end="w"?></metadata>
<style type="text/css">
	.st0{fill:none;}
	.st1{fill:#5B554D;}
</style>
<rect class="st0" width="64" height="64"/>
<g>
	<g>
		<g>
			<path class="st1" d="M50.9,61.5H13.1C6.4,61.5,1,55.8,1,48.8c0-5.1,2.8-9.6,7.2-11.6c0.3-6.4,5.5-11.4,11.9-11.4
				c2.4,0,4.8,0.7,6.8,2.1c2.9-4.4,7.8-7.1,13-7.1c8.6,0,15.6,7,15.6,15.6c0,0.2,0,0.4,0,0.6C60,39,63,43.7,63,48.8
				C63,55.8,57.6,61.5,50.9,61.5z M20.1,27.5c-5.6,0-10.2,4.6-10.2,10.2c0,0.4-0.2,0.8-0.5,0.9c-4,1.6-6.6,5.7-6.6,10.2
				c0,6,4.6,10.9,10.3,10.9h37.9c5.7,0,10.3-4.9,10.3-10.9c0-4.7-2.8-8.8-7-10.4c-0.4-0.1-0.6-0.5-0.6-0.9c0-0.4,0.1-0.7,0.1-1.1
				c0-7.7-6.2-13.9-13.9-13.9c-5,0-9.6,2.7-12.1,7c-0.1,0.2-0.3,0.4-0.6,0.4c-0.3,0-0.5,0-0.7-0.2C24.7,28.4,22.4,27.5,20.1,27.5z"
				/>
		</g>
	</g>
	<g>
		<g>
			<g>
				<path class="st1" d="M27.8,23C27.8,23,27.8,23,27.8,23c-0.5,0-0.9-0.4-0.9-0.9c0.1-2.4,1.1-4.7,2.8-6.4c1.8-1.7,4.1-2.6,6.5-2.5
					c3.5,0.1,6.5,2.1,8,5.2c0.2,0.4,0,0.9-0.4,1.1c-0.4,0.2-0.9,0-1.1-0.4c-1.2-2.5-3.7-4.2-6.5-4.2c-2,0-3.9,0.7-5.3,2
					c-1.4,1.4-2.3,3.2-2.3,5.2C28.6,22.6,28.3,23,27.8,23z"/>
			</g>
		</g>
		<g>
			<path class="st1" d="M24.8,23h-8.6c-0.5,0-0.9-0.4-0.9-0.9c0-0.5,0.4-0.9,0.9-0.9h8.6c0.5,0,0.9,0.4,0.9,0.9
				C25.7,22.6,25.3,23,24.8,23z"/>
		</g>
		<g>
			<path class="st1" d="M26.8,17.4c-0.2,0-0.3,0-0.5-0.1l-6.9-4.6c-0.4-0.3-0.5-0.8-0.2-1.2c0.3-0.4,0.8-0.5,1.2-0.2l6.9,4.6
				c0.4,0.3,0.5,0.8,0.2,1.2C27.3,17.3,27,17.4,26.8,17.4z"/>
		</g>
		<g>
			<path class="st1" d="M30.8,13.3c-0.3,0-0.6-0.2-0.8-0.5l-3.5-7.1c-0.2-0.4,0-0.9,0.4-1.2c0.4-0.2,0.9,0,1.2,0.4l3.5,7.1
				c0.2,0.4,0,0.9-0.4,1.2C31.1,13.3,30.9,13.3,30.8,13.3z"/>
		</g>
		<g>
			<path class="st1" d="M36.4,12.1C36.4,12.1,36.4,12.1,36.4,12.1c-0.5,0-0.9-0.4-0.9-0.9l0.2-7.9c0-0.5,0.4-0.8,0.9-0.8
				c0,0,0,0,0,0c0.5,0,0.9,0.4,0.8,0.9l-0.2,7.9C37.2,11.8,36.8,12.1,36.4,12.1z"/>
		</g>
		<g>
			<path class="st1" d="M42.2,13.7c-0.2,0-0.3,0-0.5-0.1c-0.4-0.3-0.5-0.8-0.2-1.2l4.3-6.6c0.3-0.4,0.8-0.5,1.2-0.2
				c0.4,0.3,0.5,0.8,0.2,1.2L43,13.3C42.8,13.5,42.5,13.7,42.2,13.7z"/>
		</g>
		<g>
			<path class="st1" d="M46.3,18.1c-0.3,0-0.6-0.2-0.8-0.5c-0.2-0.4,0-0.9,0.4-1.2l7-3.5c0.4-0.2,0.9,0,1.2,0.4
				c0.2,0.4,0,0.9-0.4,1.2l-7,3.5C46.6,18.1,46.4,18.1,46.3,18.1z"/>
		</g>
	</g>
</g>
</svg>
