<?xml version="1.0" encoding="utf-8"?>
<!-- Generator: Adobe Illustrator 19.2.1, SVG Export Plug-In . SVG Version: 6.00 Build 0)  -->
<svg version="1.1" id="Layer_1" xmlns="http://www.w3.org/2000/svg" xmlns:xlink="http://www.w3.org/1999/xlink" x="0px" y="0px"
	 viewBox="0 0 64 64" style="enable-background:new 0 0 64 64;" xml:space="preserve">
<metadata><?xpacket begin="﻿" id="W5M0MpCehiHzreSzNTczkc9d"?>
<x:xmpmeta xmlns:x="adobe:ns:meta/" x:xmptk="Adobe XMP Core 5.6-c111 79.158366, 2015/09/25-01:12:00        ">
   <rdf:RDF xmlns:rdf="http://www.w3.org/1999/02/22-rdf-syntax-ns#">
      <rdf:Description rdf:about=""/>
   </rdf:RDF>
</x:xmpmeta>
                                                                                                    
                                                                                                    
                                                                                                    
                                                                                                    
                                                                                                    
                                                                                                    
                                                                                                    
                                                                                                    
                                                                                                    
                                                                                                    
                                                                                                    
                                                                                                    
                                                                                                    
                                                                                                    
                                                                                                    
                                                                                                    
                                                                                                    
                                                                                                    
                                                                                                    
                                                                                                    
                           
<?xpacket end="w"?></metadata>
<style type="text/css">
	.st0{fill:none;}
	.st1{fill:#5B554D;}
</style>
<rect class="st0" width="64" height="64"/>
<g>
	<g>
		<path class="st1" d="M51,52.3H13c-6.6,0-12-5.6-12-12.6c0-5,2.9-9.6,7.2-11.5c0.2-6.4,5.4-11.4,11.8-11.4c2.5,0,4.9,0.8,6.8,2.2
			c2.8-4.4,7.8-7.2,13.1-7.2c8.6,0,15.5,7,15.5,15.5c0,0.2,0,0.5,0,0.7C60,29.9,63,34.5,63,39.7C63,46.6,57.6,52.3,51,52.3z
			 M20,18.1c-5.7,0-10.4,4.7-10.4,10.4l0,0.1c0,0.3-0.2,0.6-0.4,0.7c-4,1.7-6.8,5.8-6.8,10.4c0,6.2,4.7,11.2,10.6,11.2H51
			c5.8,0,10.5-5,10.5-11.2c0-4.8-2.9-9-7.1-10.6c-0.3-0.1-0.5-0.4-0.5-0.7c0-0.4,0.1-0.7,0.1-1.1c0-7.8-6.3-14.1-14.1-14.1
			c-5,0-9.7,2.7-12.3,7.1c-0.1,0.2-0.3,0.3-0.5,0.3c-0.2,0-0.4,0-0.6-0.1C24.7,19,22.4,18.1,20,18.1z"/>
	</g>
	<g>
		<path class="st1" d="M32.9,46.5c-5.6,0-10.3-4.2-11-9.8c0-0.4,0.2-0.7,0.6-0.8c0.4,0,0.7,0.2,0.8,0.6c0.6,4.9,4.7,8.5,9.5,8.5
			c5.3,0,9.7-4.3,9.7-9.7c0-5.3-4.3-9.7-9.7-9.7c-0.4,0-0.7-0.3-0.7-0.7c0-0.4,0.3-0.7,0.7-0.7c6.1,0,11.1,5,11.1,11.1
			C44,41.5,39.1,46.5,32.9,46.5z"/>
	</g>
	<g>
		<path class="st1" d="M20.1,39.9c-0.1,0-0.2,0-0.3-0.1c-0.4-0.2-0.5-0.6-0.3-1l1.6-3.2c0.2-0.4,0.6-0.7,1-0.9
			c0.4-0.1,0.9-0.1,1.3,0.2l3.1,1.8c0.3,0.2,0.4,0.6,0.2,1c-0.2,0.3-0.6,0.4-1,0.2l-3.1-1.8c-0.1,0-0.2,0-0.2,0c0,0-0.1,0-0.1,0.1
			l-1.6,3.2C20.7,39.8,20.4,39.9,20.1,39.9z"/>
	</g>
</g>
</svg>
