<?xml version="1.0" encoding="utf-8"?>
<!-- Generator: Adobe Illustrator 19.2.1, SVG Export Plug-In . SVG Version: 6.00 Build 0)  -->
<svg version="1.1" id="Layer_1" xmlns="http://www.w3.org/2000/svg" xmlns:xlink="http://www.w3.org/1999/xlink" x="0px" y="0px"
	 viewBox="0 0 64 64" style="enable-background:new 0 0 64 64;" xml:space="preserve">
<metadata><?xpacket begin="﻿" id="W5M0MpCehiHzreSzNTczkc9d"?>
<x:xmpmeta xmlns:x="adobe:ns:meta/" x:xmptk="Adobe XMP Core 5.6-c111 79.158366, 2015/09/25-01:12:00        ">
   <rdf:RDF xmlns:rdf="http://www.w3.org/1999/02/22-rdf-syntax-ns#">
      <rdf:Description rdf:about=""/>
   </rdf:RDF>
</x:xmpmeta>
                                                                                                    
                                                                                                    
                                                                                                    
                                                                                                    
                                                                                                    
                                                                                                    
                                                                                                    
                                                                                                    
                                                                                                    
                                                                                                    
                                                                                                    
                                                                                                    
                                                                                                    
                                                                                                    
                                                                                                    
                                                                                                    
                                                                                                    
                                                                                                    
                                                                                                    
                                                                                                    
                           
<?xpacket end="w"?></metadata>
<style type="text/css">
	.st0{fill:none;}
	.st1{fill:#5B554D;}
</style>
<rect class="st0" width="64" height="64"/>
<g>
	<g>
		<g>
			<path class="st1" d="M50.9,46.3h-3.5c-0.5,0-0.9-0.4-0.9-0.9s0.4-0.9,0.9-0.9h3.5c5.7,0,10.3-4.9,10.3-10.9c0-4.7-2.8-8.8-7-10.4
				c-0.4-0.1-0.6-0.5-0.6-0.9c0-0.4,0.1-0.7,0.1-1.1c0-7.7-6.2-13.9-13.9-13.9c-5,0-9.6,2.7-12.1,7c-0.1,0.2-0.3,0.4-0.6,0.4
				c-0.3,0-0.5,0-0.7-0.2c-1.8-1.5-4.1-2.3-6.5-2.3c-5.6,0-10.2,4.6-10.2,10.2c0,0.4-0.2,0.8-0.5,0.9c-4,1.6-6.6,5.7-6.6,10.2
				c0,6,4.6,10.9,10.3,10.9h5c0.5,0,0.9,0.4,0.9,0.9s-0.4,0.9-0.9,0.9h-5C6.4,46.3,1,40.6,1,33.6C1,28.5,3.8,24,8.2,22
				c0.3-6.4,5.5-11.4,11.9-11.4c2.4,0,4.8,0.7,6.8,2.1c2.9-4.4,7.8-7.1,13-7.1c8.6,0,15.6,7,15.6,15.6c0,0.2,0,0.4,0,0.6
				C60,23.8,63,28.4,63,33.6C63,40.6,57.6,46.3,50.9,46.3z"/>
		</g>
	</g>
	<g>
		<g>
			<path class="st1" d="M45.4,44.1c-0.9,0-1.7-0.3-2.3-1c-0.6-0.6-1-1.5-1-2.3c0-1,0.9-2.6,2.1-4.4l0.5-0.8c0.2-0.3,0.4-0.4,0.7-0.4
				c0,0,0,0,0,0c0.3,0,0.6,0.2,0.7,0.4l0.5,0.8c1.2,1.9,2.1,3.5,2.1,4.4C48.7,42.6,47.2,44.1,45.4,44.1z M45.4,37.6
				c-0.6,1-1.6,2.7-1.6,3.2c0,0.4,0.2,0.8,0.5,1.1s0.7,0.5,1.1,0.5c0.9,0,1.6-0.7,1.6-1.6C47,40.3,45.9,38.6,45.4,37.6z M22.3,42.9
				c-1.8,0-3.3-1.5-3.3-3.3c0-1,0.9-2.6,2.1-4.4l0.5-0.8c0.2-0.3,0.4-0.4,0.7-0.4c0.3,0,0.6,0.2,0.7,0.4c0.1,0.3,0.3,0.5,0.5,0.8
				c1.3,2.2,2.1,3.5,2.1,4.4c0,0.9-0.4,1.7-1,2.3C24,42.5,23.2,42.9,22.3,42.9z M22.3,36.4c-0.6,1-1.6,2.7-1.6,3.2
				c0,0.9,0.7,1.6,1.6,1.6c0.4,0,0.8-0.2,1.1-0.5c0.3-0.3,0.5-0.7,0.5-1.1C23.9,39,22.9,37.3,22.3,36.4z M33.2,38.7
				c-1.8,0-3.3-1.5-3.3-3.3c0-1,0.9-2.5,2.1-4.4c0.2-0.3,0.4-0.6,0.5-0.8c0.2-0.3,0.4-0.4,0.7-0.4c0,0,0,0,0,0
				c0.3,0,0.6,0.2,0.7,0.4l0.5,0.8c1.1,1.8,2.1,3.4,2.1,4.4c0,0.9-0.3,1.7-1,2.3C34.9,38.3,34.1,38.7,33.2,38.7z M33.2,32.2
				c-0.6,1-1.6,2.7-1.6,3.2c0,0.9,0.7,1.6,1.6,1.6c0.4,0,0.8-0.2,1.1-0.5c0.3-0.3,0.5-0.7,0.5-1.1C34.8,34.8,33.7,33.1,33.2,32.2z"
				/>
		</g>
	</g>
	<g>
		<g>
			<g>
				<path class="st1" d="M28,58.4c-0.2,0-0.3,0-0.5-0.1C27.2,58,27,57.4,27.3,57l9.6-14.4c0.3-0.4,0.8-0.5,1.2-0.2
					c0.4,0.3,0.5,0.8,0.2,1.2L28.7,58C28.6,58.2,28.3,58.4,28,58.4z"/>
			</g>
			<g>
				<path class="st1" d="M30.4,58c-0.4,0-0.8-0.3-0.8-0.7L29,54.9c-0.1-0.5,0.2-0.9,0.7-1c0.5-0.1,0.9,0.2,1,0.7l0.5,2.4
					c0.1,0.5-0.2,0.9-0.7,1C30.5,58,30.4,58,30.4,58z"/>
			</g>
			<g>
				<path class="st1" d="M27.5,56.1c-0.4,0-0.8-0.3-0.8-0.7c-0.1-0.5,0.2-0.9,0.7-1l2.4-0.5c0.5-0.1,0.9,0.2,1,0.7
					c0.1,0.5-0.2,0.9-0.7,1l-2.4,0.5C27.6,56.1,27.5,56.1,27.5,56.1z"/>
			</g>
			<g>
				<path class="st1" d="M32.5,55.9c-0.4,0-0.8-0.3-0.8-0.7L31,51.9c-0.1-0.5,0.2-0.9,0.7-1c0.5-0.1,0.9,0.2,1,0.7l0.7,3.3
					c0.1,0.5-0.2,0.9-0.7,1C32.6,55.9,32.6,55.9,32.5,55.9z"/>
			</g>
			<g>
				<path class="st1" d="M28.6,53.3c-0.4,0-0.8-0.3-0.8-0.7c-0.1-0.5,0.2-0.9,0.7-1l3.3-0.7c0.5-0.1,0.9,0.2,1,0.7
					c0.1,0.5-0.2,0.9-0.7,1l-3.3,0.7C28.7,53.3,28.6,53.3,28.6,53.3z"/>
			</g>
			<g>
				<path class="st1" d="M35.8,46.7c-0.4,0-0.8-0.3-0.8-0.7l-0.5-2.4c-0.1-0.5,0.2-0.9,0.7-1c0.5-0.1,0.9,0.2,1,0.7l0.5,2.4
					c0.1,0.5-0.2,0.9-0.7,1C35.9,46.6,35.9,46.7,35.8,46.7z"/>
			</g>
			<g>
				<path class="st1" d="M35.8,46.7c-0.4,0-0.8-0.3-0.8-0.7c-0.1-0.5,0.2-0.9,0.7-1l2.4-0.5c0.5-0.1,0.9,0.2,1,0.7
					c0.1,0.5-0.2,0.9-0.7,1L36,46.6C35.9,46.6,35.9,46.7,35.8,46.7z"/>
			</g>
			<g>
				<path class="st1" d="M33.8,49.6c-0.4,0-0.8-0.3-0.8-0.7l-0.7-3.3c-0.1-0.5,0.2-0.9,0.7-1c0.5-0.1,0.9,0.2,1,0.7l0.7,3.3
					c0.1,0.5-0.2,0.9-0.7,1C34,49.6,33.9,49.6,33.8,49.6z"/>
			</g>
			<g>
				<path class="st1" d="M33.8,49.6c-0.4,0-0.8-0.3-0.8-0.7c-0.1-0.5,0.2-0.9,0.7-1l3.3-0.7c0.5-0.1,0.9,0.2,1,0.7
					c0.1,0.5-0.2,0.9-0.7,1L34,49.6C34,49.6,33.9,49.6,33.8,49.6z"/>
			</g>
		</g>
		<g>
			<g>
				<path class="st1" d="M40,55.9c-0.2,0-0.3,0-0.5-0.1l-14.4-9.6c-0.4-0.3-0.5-0.8-0.2-1.2c0.3-0.4,0.8-0.5,1.2-0.2l14.4,9.6
					c0.4,0.3,0.5,0.8,0.2,1.2C40.6,55.8,40.3,55.9,40,55.9z"/>
			</g>
			<g>
				<path class="st1" d="M26,48.7c-0.4,0-0.8-0.3-0.8-0.7c-0.1-0.5,0.2-0.9,0.7-1l2.4-0.5c0.5-0.1,0.9,0.2,1,0.7
					c0.1,0.5-0.2,0.9-0.7,1l-2.4,0.5C26.1,48.7,26,48.7,26,48.7z"/>
			</g>
			<g>
				<path class="st1" d="M28.4,48.2c-0.4,0-0.8-0.3-0.8-0.7L27,45.1c-0.1-0.5,0.2-0.9,0.7-1c0.5-0.1,0.9,0.2,1,0.7l0.5,2.4
					c0.1,0.5-0.2,0.9-0.7,1C28.5,48.2,28.4,48.2,28.4,48.2z"/>
			</g>
			<g>
				<path class="st1" d="M28.1,50.8c-0.4,0-0.8-0.3-0.8-0.7c-0.1-0.5,0.2-0.9,0.7-1l3.3-0.7c0.5-0.1,0.9,0.2,1,0.7
					c0.1,0.5-0.2,0.9-0.7,1l-3.3,0.7C28.2,50.8,28.1,50.8,28.1,50.8z"/>
			</g>
			<g>
				<path class="st1" d="M31.3,50.2c-0.4,0-0.8-0.3-0.8-0.7l-0.7-3.3c-0.1-0.5,0.2-0.9,0.7-1c0.5-0.1,0.9,0.2,1,0.7l0.7,3.3
					c0.1,0.5-0.2,0.9-0.7,1C31.5,50.2,31.4,50.2,31.3,50.2z"/>
			</g>
			<g>
				<path class="st1" d="M37.3,54.2c-0.4,0-0.8-0.3-0.8-0.7c-0.1-0.5,0.2-0.9,0.7-1l2.4-0.5c0.5-0.1,0.9,0.2,1,0.7
					c0.1,0.5-0.2,0.9-0.7,1l-2.4,0.5C37.4,54.1,37.4,54.2,37.3,54.2z"/>
			</g>
			<g>
				<path class="st1" d="M37.8,56.6c-0.4,0-0.8-0.3-0.8-0.7l-0.5-2.4c-0.1-0.5,0.2-0.9,0.7-1c0.5-0.1,0.9,0.2,1,0.7l0.5,2.4
					c0.1,0.5-0.2,0.9-0.7,1C37.9,56.6,37.9,56.6,37.8,56.6z"/>
			</g>
			<g>
				<path class="st1" d="M34.4,52.2c-0.4,0-0.8-0.3-0.8-0.7c-0.1-0.5,0.2-0.9,0.7-1l3.3-0.7c0.5-0.1,0.9,0.2,1,0.7
					c0.1,0.5-0.2,0.9-0.7,1l-3.3,0.7C34.5,52.2,34.4,52.2,34.4,52.2z"/>
			</g>
			<g>
				<path class="st1" d="M35,55.4c-0.4,0-0.8-0.3-0.8-0.7l-0.7-3.3c-0.1-0.5,0.2-0.9,0.7-1c0.5-0.1,0.9,0.2,1,0.7l0.7,3.3
					c0.1,0.5-0.2,0.9-0.7,1C35.1,55.4,35.1,55.4,35,55.4z"/>
			</g>
		</g>
	</g>
</g>
</svg>
