<?xml version="1.0" encoding="utf-8"?>
<!-- Generator: Adobe Illustrator 19.2.1, SVG Export Plug-In . SVG Version: 6.00 Build 0)  -->
<svg version="1.1" id="Layer_1" xmlns="http://www.w3.org/2000/svg" xmlns:xlink="http://www.w3.org/1999/xlink" x="0px" y="0px"
	 viewBox="0 0 64 64" style="enable-background:new 0 0 64 64;" xml:space="preserve">
<metadata><?xpacket begin="﻿" id="W5M0MpCehiHzreSzNTczkc9d"?>
<x:xmpmeta xmlns:x="adobe:ns:meta/" x:xmptk="Adobe XMP Core 5.6-c111 79.158366, 2015/09/25-01:12:00        ">
   <rdf:RDF xmlns:rdf="http://www.w3.org/1999/02/22-rdf-syntax-ns#">
      <rdf:Description rdf:about=""/>
   </rdf:RDF>
</x:xmpmeta>
                                                                                                    
                                                                                                    
                                                                                                    
                                                                                                    
                                                                                                    
                                                                                                    
                                                                                                    
                                                                                                    
                                                                                                    
                                                                                                    
                                                                                                    
                                                                                                    
                                                                                                    
                                                                                                    
                                                                                                    
                                                                                                    
                                                                                                    
                                                                                                    
                                                                                                    
                                                                                                    
                           
<?xpacket end="w"?></metadata>
<style type="text/css">
	.st0{fill:none;}
	.st1{fill:#5B554D;}
</style>
<rect class="st0" width="64" height="64"/>
<g>
	<g>
		<g>
			<g>
				<path class="st1" d="M20.6,57.8H6.4c-3,0-5.4-2.4-5.4-5.4V7.6c0-0.5,0.4-0.9,0.9-0.9h23.2c0.5,0,0.9,0.4,0.9,0.9v7.3
					c0,0.5-0.4,0.9-0.9,0.9s-0.9-0.4-0.9-0.9V8.4H2.7v44c0,2,1.6,3.6,3.6,3.6h14.2c2,0,3.6-1.6,3.6-3.6V27.7c0-0.5,0.4-0.9,0.9-0.9
					s0.9,0.4,0.9,0.9v24.8C25.9,55.4,23.5,57.8,20.6,57.8z"/>
			</g>
		</g>
		<g>
			<g>
				<g>
					<path class="st1" d="M43.6,57.8H25.2c-0.4,0-0.8-0.3-0.8-0.7c-0.1-0.4,0.1-0.8,0.5-1l7.5-2.9l-0.6-17.9L15.8,16
						c-0.2-0.3-0.3-0.6-0.1-0.9c0.1-0.3,0.4-0.5,0.8-0.5h27.9c0.5,0,0.9,0.4,0.9,0.9s-0.4,0.9-0.9,0.9H18.2l15,18.3
						c0.1,0.1,0.2,0.3,0.2,0.5L34,54c0,0.4-0.2,0.7-0.5,0.8l-3.7,1.4H39l-3.7-1.4c-0.3-0.1-0.6-0.5-0.5-0.8l0.6-18.8
						c0-0.2,0.1-0.4,0.2-0.5l10.7-13.1c0.3-0.4,0.8-0.4,1.2-0.1s0.4,0.8,0.1,1.2L37,35.4l-0.6,17.9l7.5,2.9c0.4,0.1,0.6,0.5,0.5,1
						C44.4,57.5,44,57.8,43.6,57.8z"/>
				</g>
			</g>
		</g>
	</g>
	<g>
		<path class="st1" d="M24.8,30.1H2.5c-0.5,0-0.9-0.4-0.9-0.9s0.4-0.9,0.9-0.9h22.2c0.5,0,0.9,0.4,0.9,0.9S25.2,30.1,24.8,30.1z"/>
	</g>
	<g>
		<g>
			<path class="st1" d="M53.6,25.1c-5.2,0-9.4-4.2-9.4-9.4s4.2-9.4,9.4-9.4s9.4,4.2,9.4,9.4C63,20.8,58.8,25.1,53.6,25.1z M53.6,7.9
				c-4.3,0-7.7,3.5-7.7,7.7c0,4.3,3.5,7.7,7.7,7.7c4.3,0,7.7-3.5,7.7-7.7S57.8,7.9,53.6,7.9z"/>
		</g>
		<g>
			<path class="st1" d="M53.6,24.6c-0.5,0-0.9-0.4-0.9-0.9V7c0-0.5,0.4-0.9,0.9-0.9s0.9,0.4,0.9,0.9v16.7
				C54.4,24.2,54,24.6,53.6,24.6z"/>
		</g>
		<g>
			<path class="st1" d="M61.9,16.2H45.2c-0.5,0-0.9-0.4-0.9-0.9s0.4-0.9,0.9-0.9h16.7c0.5,0,0.9,0.4,0.9,0.9
				C62.8,15.9,62.4,16.2,61.9,16.2z"/>
		</g>
		<g>
			<path class="st1" d="M59.5,22.1c-0.2,0-0.4-0.1-0.6-0.3L47.1,10.1c-0.3-0.3-0.3-0.9,0-1.2s0.9-0.3,1.2,0l11.8,11.8
				c0.3,0.3,0.3,0.9,0,1.2C59.9,22.1,59.7,22.1,59.5,22.1z"/>
		</g>
		<g>
			<path class="st1" d="M47.7,22.1c-0.2,0-0.4-0.1-0.6-0.3c-0.3-0.3-0.3-0.9,0-1.2L58.9,8.9c0.3-0.3,0.9-0.3,1.2,0s0.3,0.9,0,1.2
				L48.3,21.9C48.1,22.1,47.9,22.1,47.7,22.1z"/>
		</g>
	</g>
	<g>
		<path class="st1" d="M45.1,24H23.8c-0.5,0-0.9-0.4-0.9-0.9s0.4-0.9,0.9-0.9h21.3c0.5,0,0.9,0.4,0.9,0.9C45.9,23.6,45.5,24,45.1,24
			z"/>
	</g>
</g>
</svg>
