<?xml version="1.0" encoding="utf-8"?>
<!-- Generator: Adobe Illustrator 19.2.1, SVG Export Plug-In . SVG Version: 6.00 Build 0)  -->
<svg version="1.1" id="Layer_1" xmlns="http://www.w3.org/2000/svg" xmlns:xlink="http://www.w3.org/1999/xlink" x="0px" y="0px"
	 viewBox="0 0 64 64" style="enable-background:new 0 0 64 64;" xml:space="preserve">
<metadata><?xpacket begin="﻿" id="W5M0MpCehiHzreSzNTczkc9d"?>
<x:xmpmeta xmlns:x="adobe:ns:meta/" x:xmptk="Adobe XMP Core 5.6-c111 79.158366, 2015/09/25-01:12:00        ">
   <rdf:RDF xmlns:rdf="http://www.w3.org/1999/02/22-rdf-syntax-ns#">
      <rdf:Description rdf:about=""/>
   </rdf:RDF>
</x:xmpmeta>
                                                                                                    
                                                                                                    
                                                                                                    
                                                                                                    
                                                                                                    
                                                                                                    
                                                                                                    
                                                                                                    
                                                                                                    
                                                                                                    
                                                                                                    
                                                                                                    
                                                                                                    
                                                                                                    
                                                                                                    
                                                                                                    
                                                                                                    
                                                                                                    
                                                                                                    
                                                                                                    
                           
<?xpacket end="w"?></metadata>
<style type="text/css">
	.st0{fill:none;}
	.st1{fill:#5B554D;}
</style>
<rect class="st0" width="64" height="64"/>
<g>
	<g>
		<g>
			<path class="st1" d="M40.5,14.5c-0.2,0-0.4-0.1-0.5-0.2c-0.3-0.3-0.4-0.8-0.1-1.1L48,3.7c0.1-0.1,0.2-0.3,0.2-0.5
				S48.1,2.8,48,2.7c-0.3-0.2-0.7-0.2-1,0.1l-8.8,10.3c-0.3,0.3-0.8,0.4-1.1,0.1c-0.3-0.3-0.4-0.8-0.1-1.1l8.8-10.3
				c0.8-1,2.2-1.1,3.2-0.3c0.5,0.4,0.7,0.9,0.8,1.6c0,0.6-0.1,1.2-0.5,1.7l-8.1,9.5C40.9,14.4,40.7,14.5,40.5,14.5z"/>
		</g>
	</g>
	<g>
		<path class="st1" d="M15.2,25.7c-0.4,0-0.8-0.4-0.8-0.8c0-1.7,0.6-3.4,1.6-4.7c0-0.1,0-0.2,0-0.3c0-1.8,1-3.4,2.6-4.2
			c0.9-1.9,3-3,5.2-2.5c1.8-1.7,4.6-2.1,6.9-1.1c1.6-0.9,3.7-0.7,5.1,0.4c0.6-0.2,1.3-0.4,1.9-0.4c1.5,0,3,0.7,4,1.8
			c1.2,0.2,2.3,0.9,3,1.9c1.5,0.8,2.4,2.4,2.4,4.1c0,0.2,0,0.5-0.1,0.7c1,1.2,1.5,2.6,1.5,4.2c0,0.4-0.4,0.8-0.8,0.8
			s-0.8-0.4-0.8-0.8c0-1.3-0.5-2.5-1.4-3.4c-0.2-0.2-0.3-0.5-0.2-0.7c0.1-0.3,0.1-0.5,0.1-0.8c0-1.2-0.7-2.3-1.8-2.8
			c-0.1-0.1-0.2-0.2-0.3-0.3C42.8,16,42,15.5,41,15.4c-0.2,0-0.4-0.1-0.5-0.3c-1.1-1.4-3.1-1.8-4.7-1c-0.3,0.2-0.7,0.1-0.9-0.1
			c-1-1-2.7-1.2-3.9-0.4c-0.2,0.2-0.6,0.2-0.8,0c-1.9-1-4.3-0.6-5.7,1c-0.2,0.2-0.5,0.3-0.8,0.2c-0.4-0.1-0.7-0.2-1-0.2
			c-1.3,0-2.4,0.8-2.9,1.9c-0.1,0.2-0.2,0.4-0.4,0.4c-1.2,0.5-1.9,1.6-1.9,2.9c0,0.1,0,0.2,0,0.3c0,0.2,0,0.6-0.2,0.7
			C16.5,22,16,23.4,16,24.9C16,25.3,15.6,25.7,15.2,25.7z"/>
	</g>
	<g>
		<g>
			<g>
				<path class="st1" d="M41,63H22.4c-1.3,0-2.4-1-2.6-2.3l-3.6-28.9l-1.7-4.9c-0.3-0.8-0.2-1.7,0.3-2.4c0.5-0.7,1.3-1.1,2.1-1.1
					h29.5c1.4,0,2.6,1.2,2.6,2.6c0,0.3-0.1,0.7-0.2,1l-1.7,4.8l-3.6,28.9C43.4,62,42.3,63,41,63z M16.9,25c-0.3,0-0.7,0.2-0.9,0.4
					c-0.2,0.3-0.2,0.6-0.1,0.9l1.7,5c0,0.1,0,0.1,0,0.2l3.6,29c0.1,0.5,0.5,0.9,1,0.9H41c0.5,0,1-0.4,1-0.9l3.6-29
					c0-0.1,0-0.1,0-0.2l1.7-4.9c0.1-0.2,0.1-0.3,0.1-0.4c0-0.6-0.5-1-1-1H16.9z"/>
			</g>
		</g>
	</g>
</g>
</svg>
