<?xml version="1.0" encoding="utf-8"?>
<!-- Generator: Adobe Illustrator 19.2.1, SVG Export Plug-In . SVG Version: 6.00 Build 0)  -->
<svg version="1.1" id="Layer_1" xmlns="http://www.w3.org/2000/svg" xmlns:xlink="http://www.w3.org/1999/xlink" x="0px" y="0px"
	 viewBox="0 0 64 64" style="enable-background:new 0 0 64 64;" xml:space="preserve">
<metadata><?xpacket begin="﻿" id="W5M0MpCehiHzreSzNTczkc9d"?>
<x:xmpmeta xmlns:x="adobe:ns:meta/" x:xmptk="Adobe XMP Core 5.6-c111 79.158366, 2015/09/25-01:12:00        ">
   <rdf:RDF xmlns:rdf="http://www.w3.org/1999/02/22-rdf-syntax-ns#">
      <rdf:Description rdf:about=""/>
   </rdf:RDF>
</x:xmpmeta>
                                                                                                    
                                                                                                    
                                                                                                    
                                                                                                    
                                                                                                    
                                                                                                    
                                                                                                    
                                                                                                    
                                                                                                    
                                                                                                    
                                                                                                    
                                                                                                    
                                                                                                    
                                                                                                    
                                                                                                    
                                                                                                    
                                                                                                    
                                                                                                    
                                                                                                    
                                                                                                    
                           
<?xpacket end="w"?></metadata>
<style type="text/css">
	.st0{fill:none;}
	.st1{fill:#5B554D;}
</style>
<rect class="st0" width="64" height="64"/>
<g>
	<path class="st1" d="M28.5,11.8c-0.4,0.8-0.8,1.7-0.9,2.8c-0.5,2.8-0.5,6.6,0.8,9c0.2,0.3,0.5,0.5,0.8,0.5c0.1,0,0.3,0,0.4-0.1
		c0.4-0.2,0.6-0.8,0.4-1.2c-1.1-2-1-5.5-0.6-7.9c0.2-0.9,0.5-1.6,0.8-2.3c0.4-0.8,0.7-1.6,0.9-2.7c0.5-2.8-0.6-5.7-1.8-8.3
		C29,1.1,28.5,0.9,28,1.1c-0.4,0.2-0.6,0.7-0.4,1.2c0.8,1.6,2.2,4.6,1.7,7.3C29.2,10.3,28.9,11,28.5,11.8z"/>
	<path class="st1" d="M22.1,17c0.3,0.4,0.6,0.8,0.8,1.3c0.4,1.4,0.5,3.4-0.4,4.4c-0.3,0.4-0.3,0.9,0.1,1.3c0.2,0.1,0.4,0.2,0.6,0.2
		s0.5-0.1,0.7-0.3c1.4-1.7,1.3-4.2,0.7-6.1c-0.2-0.7-0.7-1.3-1.1-1.8c-0.3-0.4-0.6-0.8-0.7-1.2c-0.4-1.4,0.8-3.1,1.5-4.1
		c0.3-0.4,0.2-1-0.2-1.2c-0.4-0.3-1-0.2-1.2,0.2c-0.9,1.2-2.5,3.4-1.8,5.6C21.3,15.9,21.8,16.5,22.1,17z"/>
	<path class="st1" d="M34.5,16.8c0.4,0.5,0.8,0.9,1,1.3c0.5,1.3,0.6,3.3-0.6,4.4c-0.4,0.3-0.4,0.9-0.1,1.3c0.2,0.2,0.4,0.3,0.7,0.3
		c0.2,0,0.4-0.1,0.6-0.2c1.9-1.7,1.8-4.4,1-6.3c-0.3-0.8-0.9-1.4-1.4-1.9c-0.4-0.4-0.8-0.8-0.9-1.2c-0.5-1.3,1.2-3.2,2-4
		c0.3-0.4,0.3-0.9,0-1.3c-0.4-0.3-0.9-0.3-1.3,0c-1.2,1.2-3.3,3.5-2.4,5.9C33.5,15.7,34,16.2,34.5,16.8z"/>
	<g>
		<path class="st1" d="M47.3,51.3c-0.5,0-0.8-0.4-0.8-0.8s0.4-0.8,0.8-0.8c6,0,11.3-4.5,11.3-9.6c0-4.9-4.1-9-9.5-9.5
			c-0.5,0-0.8-0.4-0.7-0.9c0-0.5,0.5-0.8,0.9-0.7c6.3,0.6,11,5.4,11,11.2C60.2,46.2,54.3,51.3,47.3,51.3z"/>
	</g>
	<g>
		<path class="st1" d="M48.4,48c-0.4,0-0.8-0.3-0.8-0.8s0.3-0.8,0.8-0.9c3.9-0.2,6.9-3,6.9-6.2c0-3.1-2.7-5.7-6.2-6.2
			c-0.5-0.1-0.8-0.5-0.7-0.9c0.1-0.5,0.5-0.8,0.9-0.7c4.4,0.6,7.7,3.9,7.7,7.8C56.9,44.3,53.2,47.7,48.4,48C48.5,48,48.5,48,48.4,48
			z"/>
	</g>
	<g>
		<path class="st1" d="M43.3,54.6H16c-0.2,0-0.3,0-0.4-0.1c-3.9-2.5-6.2-6.7-6.2-11.2V27.4c0-0.5,0.4-0.8,0.8-0.8h39
			c0.5,0,0.8,0.4,0.8,0.8v15.8c0,4.6-2.3,8.7-6.2,11.2C43.6,54.5,43.5,54.6,43.3,54.6z M16.2,52.9h26.9c3.3-2.2,5.2-5.8,5.2-9.7v-15
			H11v15C11,47.1,12.9,50.7,16.2,52.9z"/>
	</g>
	<g>
		<path class="st1" d="M29.6,63C18.3,63,8.2,59.6,4,54.3c-0.2-0.2-0.2-0.6-0.1-0.9c0.1-0.3,0.4-0.5,0.7-0.5h50
			c0.3,0,0.6,0.2,0.7,0.5c0.1,0.3,0.1,0.6-0.1,0.9C51.1,59.6,41,63,29.6,63z M6.5,54.6c4.5,4.1,13.4,6.8,23.1,6.8s18.6-2.7,23.1-6.8
			H6.5z"/>
	</g>
</g>
</svg>
