<?xml version="1.0" encoding="utf-8"?>
<!-- Generator: Adobe Illustrator 19.2.1, SVG Export Plug-In . SVG Version: 6.00 Build 0)  -->
<svg version="1.1" id="Layer_1" xmlns="http://www.w3.org/2000/svg" xmlns:xlink="http://www.w3.org/1999/xlink" x="0px" y="0px"
	 viewBox="0 0 64 64" style="enable-background:new 0 0 64 64;" xml:space="preserve">
<metadata><?xpacket begin="﻿" id="W5M0MpCehiHzreSzNTczkc9d"?>
<x:xmpmeta xmlns:x="adobe:ns:meta/" x:xmptk="Adobe XMP Core 5.6-c111 79.158366, 2015/09/25-01:12:00        ">
   <rdf:RDF xmlns:rdf="http://www.w3.org/1999/02/22-rdf-syntax-ns#">
      <rdf:Description rdf:about=""/>
   </rdf:RDF>
</x:xmpmeta>
                                                                                                    
                                                                                                    
                                                                                                    
                                                                                                    
                                                                                                    
                                                                                                    
                                                                                                    
                                                                                                    
                                                                                                    
                                                                                                    
                                                                                                    
                                                                                                    
                                                                                                    
                                                                                                    
                                                                                                    
                                                                                                    
                                                                                                    
                                                                                                    
                                                                                                    
                                                                                                    
                           
<?xpacket end="w"?></metadata>
<style type="text/css">
	.st0{fill:none;}
	.st1{fill:#5B554D;}
	.st2{fill:#FFFFFF;}
</style>
<rect class="st0" width="64" height="64"/>
<g>
	<g>
		<path class="st1" d="M46.7,63H17.3c-0.5,0-1-0.4-1-0.9l-6.2-49.7c-0.1-0.6,0.3-1.1,0.9-1.1c0.6-0.1,1.1,0.3,1.1,0.9L18.2,61h27.6
			l6.1-48.8c0.1-0.6,0.6-1,1.1-0.9c0.6,0.1,1,0.6,0.9,1.1l-6.2,49.7C47.6,62.6,47.2,63,46.7,63z"/>
	</g>
	<g>
		<path class="st1" d="M52.7,6.4c-0.5,0-1-0.4-1-0.9l-0.2-1.9c0-0.3-0.2-0.5-0.4-0.5H12.9c-0.2,0-0.4,0.2-0.4,0.4l-0.2,2
			c0,0.6-0.5,1-1.1,0.9c-0.6,0-1-0.5-0.9-1.1l0.2-1.9C10.5,2.1,11.6,1,13,1h38.3c1.4,0,2.5,1.1,2.5,2.5L54,5.3
			C53.8,5.9,53.4,6.3,52.7,6.4C52.8,6.4,52.8,6.4,52.7,6.4z"/>
	</g>
	<g>
		<circle class="st2" cx="32" cy="35.6" r="9.6"/>
		<path class="st1" d="M32,46.3c-5.9,0-10.7-4.8-10.7-10.7C21.3,29.8,26.1,25,32,25s10.7,4.8,10.7,10.7C42.7,41.5,37.9,46.3,32,46.3
			z M32,27c-4.8,0-8.6,3.9-8.6,8.6c0,4.8,3.9,8.6,8.6,8.6s8.6-3.9,8.6-8.6S36.8,27,32,27z"/>
	</g>
	<g>
		<path class="st1" d="M55.5,13.3h-47c-0.6,0-1-0.5-1-1V7c0-1.5,1.2-2.7,2.7-2.7h43.7c1.5,0,2.7,1.2,2.7,2.7v5.3
			C56.5,12.9,56,13.3,55.5,13.3z M9.6,11.3h44.9V7c0-0.3-0.3-0.6-0.6-0.6H10.2C9.8,6.4,9.6,6.7,9.6,7V11.3z"/>
	</g>
</g>
</svg>
