<?xml version="1.0" encoding="utf-8"?>
<!-- Generator: Adobe Illustrator 19.2.1, SVG Export Plug-In . SVG Version: 6.00 Build 0)  -->
<svg version="1.1" id="Layer_1" xmlns="http://www.w3.org/2000/svg" xmlns:xlink="http://www.w3.org/1999/xlink" x="0px" y="0px"
	 viewBox="0 0 64 64" style="enable-background:new 0 0 64 64;" xml:space="preserve">
<metadata><?xpacket begin="﻿" id="W5M0MpCehiHzreSzNTczkc9d"?>
<x:xmpmeta xmlns:x="adobe:ns:meta/" x:xmptk="Adobe XMP Core 5.6-c111 79.158366, 2015/09/25-01:12:00        ">
   <rdf:RDF xmlns:rdf="http://www.w3.org/1999/02/22-rdf-syntax-ns#">
      <rdf:Description rdf:about=""/>
   </rdf:RDF>
</x:xmpmeta>
                                                                                                    
                                                                                                    
                                                                                                    
                                                                                                    
                                                                                                    
                                                                                                    
                                                                                                    
                                                                                                    
                                                                                                    
                                                                                                    
                                                                                                    
                                                                                                    
                                                                                                    
                                                                                                    
                                                                                                    
                                                                                                    
                                                                                                    
                                                                                                    
                                                                                                    
                                                                                                    
                           
<?xpacket end="w"?></metadata>
<style type="text/css">
	.st0{fill:none;}
	.st1{fill:#5B554D;}
	.st2{fill:#FFFFFF;}
</style>
<rect class="st0" width="64" height="64"/>
<g>
	<g>
		<path class="st1" d="M39.5,63H18.3c-0.4,0-0.7-0.3-0.7-0.6l-4.5-35.8c-0.1-0.4,0.2-0.8,0.6-0.8c0.4-0.1,0.8,0.2,0.8,0.6L19,61.5
			h19.9l4.4-35.1c0.1-0.4,0.4-0.7,0.8-0.6c0.4,0.1,0.7,0.4,0.6,0.8l-4.5,35.8C40.2,62.7,39.8,63,39.5,63z"/>
	</g>
	<g>
		<path class="st1" d="M40.9,51.5h-24c-0.4,0-0.7-0.3-0.7-0.6l-1.8-14.2c0-0.2,0-0.4,0.2-0.6c0.1-0.2,0.3-0.3,0.6-0.3h27.6
			c0.2,0,0.4,0.1,0.6,0.3c0.1,0.2,0.2,0.4,0.2,0.6l-1.8,14.2C41.6,51.3,41.3,51.5,40.9,51.5z M17.5,50.1h22.7l1.6-12.8H15.9
			L17.5,50.1z"/>
	</g>
	<g>
		<path class="st2" d="M45.8,25.3c0,0.6-0.5,1.2-1.2,1.2H13.2c-0.6,0-1.2-0.5-1.2-1.2v-1.7c0-0.7,0.5-1.2,1.2-1.2h31.5
			c0.6,0,1.2,0.5,1.2,1.2v1.7H45.8z"/>
		<path class="st1" d="M44.6,27.2H13.2c-1.1,0-1.9-0.9-1.9-1.9v-1.7c0-1.1,0.9-1.9,1.9-1.9h31.5c1.1,0,1.9,0.9,1.9,1.9v1.7
			C46.5,26.3,45.7,27.2,44.6,27.2z M13.2,23.2c-0.2,0-0.4,0.2-0.4,0.4v1.7c0,0.2,0.2,0.4,0.4,0.4h31.5c0.2,0,0.4-0.2,0.4-0.4v-1.7
			c0-0.2-0.2-0.4-0.4-0.4H13.2z"/>
	</g>
	<g>
		<path class="st1" d="M30.5,22.6c-0.1,0-0.2,0-0.2,0c-0.4-0.1-0.6-0.6-0.5-0.9l3.3-9.7c0.1-0.2,0.2-0.4,0.4-0.4l17.4-7.8
			c0.2-0.1,0.3-0.2,0.3-0.4c0.1-0.2,0.1-0.3,0-0.5c-0.1-0.3-0.5-0.5-0.9-0.3l-18.2,8.2l-3.9,11.4c-0.1,0.4-0.6,0.6-0.9,0.5
			c-0.4-0.1-0.6-0.6-0.5-0.9l4-11.7c0.1-0.2,0.2-0.4,0.4-0.4l18.5-8.3c1.1-0.5,2.3,0,2.8,1.1c0.2,0.5,0.2,1.1,0,1.6s-0.6,1-1.1,1.2
			L34.3,13l-3.2,9.4C31.1,22.4,30.8,22.6,30.5,22.6z"/>
	</g>
</g>
</svg>
