<?xml version="1.0" encoding="utf-8"?>
<!-- Generator: Adobe Illustrator 19.2.1, SVG Export Plug-In . SVG Version: 6.00 Build 0)  -->
<svg version="1.1" id="Layer_1" xmlns="http://www.w3.org/2000/svg" xmlns:xlink="http://www.w3.org/1999/xlink" x="0px" y="0px"
	 viewBox="0 0 64 64" style="enable-background:new 0 0 64 64;" xml:space="preserve">
<metadata><?xpacket begin="﻿" id="W5M0MpCehiHzreSzNTczkc9d"?>
<x:xmpmeta xmlns:x="adobe:ns:meta/" x:xmptk="Adobe XMP Core 5.6-c111 79.158366, 2015/09/25-01:12:00        ">
   <rdf:RDF xmlns:rdf="http://www.w3.org/1999/02/22-rdf-syntax-ns#">
      <rdf:Description rdf:about=""/>
   </rdf:RDF>
</x:xmpmeta>
                                                                                                    
                                                                                                    
                                                                                                    
                                                                                                    
                                                                                                    
                                                                                                    
                                                                                                    
                                                                                                    
                                                                                                    
                                                                                                    
                                                                                                    
                                                                                                    
                                                                                                    
                                                                                                    
                                                                                                    
                                                                                                    
                                                                                                    
                                                                                                    
                                                                                                    
                                                                                                    
                           
<?xpacket end="w"?></metadata>
<style type="text/css">
	.st0{fill:none;}
	.st1{fill:#5B554D;}
</style>
<rect class="st0" width="64" height="64"/>
<g>
	<path class="st1" d="M34.4,63h-4.7c-1.4,0-2.6-1.2-2.6-2.6v-4.1c0-0.6-0.5-1.2-1-1.4l-5.8-2.4c-0.6-0.3-1.4-0.2-1.8,0.2l-2.9,2.9
		c-1,1-2.7,1-3.7,0l-3.4-3.4c-0.5-0.5-0.8-1.1-0.8-1.8S8,49,8.5,48.5l2.9-2.9c0.4-0.4,0.5-1.2,0.2-1.7l-2.4-5.8
		C9,37.5,8.3,37,7.7,37H3.6C2.2,37,1,35.8,1,34.4v-4.7C1,28.2,2.2,27,3.6,27h4.1c0.6,0,1.2-0.5,1.4-1l2.4-5.8
		c0.3-0.6,0.2-1.4-0.2-1.8l-2.9-2.9c-0.5-0.5-0.8-1.1-0.8-1.8s0.3-1.4,0.8-1.9l3.3-3.3c1-1,2.7-1,3.7,0l2.9,2.9
		c0.4,0.4,1.2,0.5,1.7,0.2l5.9-2.4C26.5,9,27,8.3,27,7.8V3.7C27,2.2,28.2,1,29.6,1h4.7C35.8,1,37,2.2,37,3.7v4.1
		c0,0.6,0.5,1.2,1,1.4l5.8,2.4c0.6,0.3,1.4,0.2,1.8-0.2l2.9-2.9c1-1,2.7-1,3.7,0l3.3,3.4c1,1,1,2.7,0,3.7l-2.9,2.9
		c-0.4,0.4-0.5,1.2-0.2,1.7l2.4,5.8c0.2,0.6,0.8,1.1,1.4,1.1h4.1c1.4,0,2.6,1.2,2.6,2.6v4.7c0,1.4-1.2,2.6-2.6,2.6h-4.1
		c-0.6,0-1.2,0.5-1.4,1l-2.4,5.8c-0.3,0.6-0.2,1.4,0.2,1.8l2.9,2.9c0.5,0.5,0.8,1.2,0.8,1.9s-0.3,1.4-0.8,1.8l-3.3,3.3
		c-1,1-2.7,1-3.7,0l-2.9-2.9c-0.4-0.4-1.2-0.5-1.7-0.2L38,54.8c-0.5,0.2-1,0.9-1,1.4v4.1C37,61.8,35.8,63,34.4,63z M19.4,50.5
		c0.5,0,1,0.1,1.5,0.4l5.7,2.3c1.2,0.3,2.2,1.7,2.2,3v4.1c0,0.5,0.4,0.8,0.8,0.8h4.7c0.5,0,0.8-0.4,0.8-0.8v-4.1
		c0-1.3,1-2.7,2.3-3.1l5.7-2.3c1.1-0.6,2.8-0.4,3.7,0.6l2.9,2.9c0.3,0.3,0.9,0.3,1.2,0l3.3-3.3c0.2-0.2,0.2-0.4,0.2-0.6
		c0-0.2-0.1-0.4-0.2-0.6l-2.9-2.9c-0.9-1-1.2-2.6-0.5-3.8l2.3-5.7c0.4-1.2,1.7-2.2,3.1-2.2h4.1c0.5,0,0.9-0.4,0.9-0.8v-4.7
		c0-0.5-0.4-0.8-0.9-0.8h-4.1c-1.3,0-2.7-1-3.1-2.3l-2.3-5.7c-0.6-1.1-0.4-2.8,0.6-3.7l2.9-2.9c0.3-0.3,0.3-0.9,0-1.2L51,9.7
		c-0.3-0.3-0.9-0.3-1.2,0l-2.9,2.9c-1,0.9-2.6,1.2-3.8,0.5l-5.7-2.3c-1.2-0.3-2.2-1.7-2.2-3V3.7c0-0.5-0.4-0.8-0.8-0.8h-4.7
		c-0.5,0-0.8,0.4-0.8,0.8v4.1c0,1.3-1,2.7-2.3,3.1l-5.7,2.3c-1.1,0.6-2.7,0.4-3.7-0.6l-2.9-2.9c-0.3-0.3-0.9-0.3-1.2,0L9.7,13
		c-0.2,0.2-0.2,0.4-0.2,0.6c0,0.2,0.1,0.4,0.2,0.6l2.9,2.9c1,0.9,1.2,2.6,0.5,3.8l-2.3,5.7c-0.4,1.2-1.7,2.2-3,2.2H3.6
		c-0.5,0-0.8,0.4-0.8,0.8v4.7c0,0.5,0.4,0.8,0.8,0.8h4.1c1.3,0,2.7,1,3.1,2.3l2.3,5.7c0.6,1.1,0.4,2.7-0.6,3.7l-2.9,2.9
		c-0.2,0.2-0.2,0.4-0.2,0.6c0,0.2,0.1,0.4,0.2,0.6l3.4,3.4c0.3,0.3,0.9,0.3,1.2,0l2.9-2.9C17.7,50.8,18.6,50.5,19.4,50.5z M32,40.4
		c-4.6,0-8.4-3.8-8.4-8.4s3.8-8.4,8.4-8.4s8.4,3.8,8.4,8.4S36.6,40.4,32,40.4z M32,25.4c-3.7,0-6.6,3-6.6,6.6c0,3.7,3,6.6,6.6,6.6
		c3.7,0,6.6-3,6.6-6.6C38.6,28.3,35.7,25.4,32,25.4z"/>
</g>
</svg>
