<?xml version="1.0" encoding="utf-8"?>
<!-- Generator: Adobe Illustrator 19.2.1, SVG Export Plug-In . SVG Version: 6.00 Build 0)  -->
<svg version="1.1" id="Layer_1" xmlns="http://www.w3.org/2000/svg" xmlns:xlink="http://www.w3.org/1999/xlink" x="0px" y="0px"
	 viewBox="0 0 64 64" style="enable-background:new 0 0 64 64;" xml:space="preserve">
<metadata><?xpacket begin="﻿" id="W5M0MpCehiHzreSzNTczkc9d"?>
<x:xmpmeta xmlns:x="adobe:ns:meta/" x:xmptk="Adobe XMP Core 5.6-c111 79.158366, 2015/09/25-01:12:00        ">
   <rdf:RDF xmlns:rdf="http://www.w3.org/1999/02/22-rdf-syntax-ns#">
      <rdf:Description rdf:about=""/>
   </rdf:RDF>
</x:xmpmeta>
                                                                                                    
                                                                                                    
                                                                                                    
                                                                                                    
                                                                                                    
                                                                                                    
                                                                                                    
                                                                                                    
                                                                                                    
                                                                                                    
                                                                                                    
                                                                                                    
                                                                                                    
                                                                                                    
                                                                                                    
                                                                                                    
                                                                                                    
                                                                                                    
                                                                                                    
                                                                                                    
                           
<?xpacket end="w"?></metadata>
<style type="text/css">
	.st0{fill:none;}
	.st1{fill:#5B554D;}
</style>
<rect class="st0" width="64" height="64"/>
<g>
	<g>
		<g>
			<path class="st1" d="M51,32.9h-1.9c-0.8,0-1.5-0.7-1.5-1.5v-1.7c0-0.1-0.1-0.2-0.1-0.2l-2.4-1c-0.1-0.1-0.2,0-0.3,0l-1.2,1.2
				c-0.6,0.6-1.5,0.6-2.1,0l-1.4-1.4c-0.3-0.3-0.4-0.6-0.4-1s0.2-0.8,0.4-1l1.2-1.2c0,0,0.1-0.2,0-0.2l-1-2.4c0-0.1-0.2-0.2-0.2-0.2
				h-1.7c-0.8,0-1.5-0.7-1.5-1.5V19c0-0.8,0.7-1.5,1.5-1.5h1.7c0.1,0,0.2-0.1,0.2-0.1l1-2.4c0.1-0.1,0-0.2,0-0.3l-1.2-1.2
				c-0.3-0.3-0.4-0.6-0.4-1s0.2-0.8,0.4-1l1.4-1.4c0.6-0.6,1.5-0.6,2.1,0l1.2,1.2c0,0,0.2,0.1,0.2,0l2.4-1c0.1,0,0.2-0.1,0.2-0.2
				V8.4c0-0.8,0.7-1.5,1.5-1.5H51c0.8,0,1.5,0.7,1.5,1.5v1.7c0,0.1,0.1,0.2,0.1,0.2l2.4,1c0.1,0.1,0.3,0,0.3,0l1.2-1.2
				c0.6-0.6,1.5-0.6,2.1,0l1.4,1.4c0.3,0.3,0.4,0.6,0.4,1s-0.2,0.8-0.4,1l-1.2,1.2c0,0-0.1,0.2,0,0.2l1,2.4c0,0.1,0.2,0.2,0.2,0.2
				h1.7c0.8,0,1.5,0.7,1.5,1.5v1.9c0,0.8-0.7,1.5-1.5,1.5H60c-0.1,0-0.2,0.1-0.2,0.1l-1,2.4c-0.1,0.1,0,0.3,0,0.3l1.2,1.2
				c0.3,0.3,0.4,0.6,0.4,1s-0.2,0.8-0.4,1l-1.4,1.4c-0.6,0.6-1.5,0.5-2.1,0l-1.2-1.2c0,0-0.2-0.1-0.2,0l-2.4,1
				c-0.1,0-0.2,0.1-0.2,0.2v1.7C52.4,32.2,51.8,32.9,51,32.9z M44.9,27c0.3,0,0.6,0.1,0.8,0.2l2.3,0.9c0.6,0.2,1.1,0.9,1.1,1.6v1.7
				l1.9-0.1l-0.1-1.6c0-0.7,0.5-1.4,1.2-1.6l2.3-0.9c0.6-0.3,1.4-0.2,1.9,0.3l1.2,1.2l1.3-1.4l-1.2-1.1c-0.5-0.5-0.6-1.4-0.3-2
				l0.9-2.3c0.2-0.6,0.9-1.1,1.6-1.1h1.7l0-1.8h-1.6c-0.7,0-1.4-0.5-1.6-1.2l-0.9-2.3c-0.3-0.6-0.2-1.4,0.3-1.9l1.2-1.2l-1.4-1.3
				l-1.1,1.2c-0.5,0.5-1.4,0.6-2,0.3l-2.3-0.9c-0.6-0.2-1.1-0.9-1.1-1.6V8.4l-1.9,0.1l0.1,1.6c0,0.7-0.5,1.4-1.2,1.6l-2.3,0.9
				c-0.6,0.3-1.4,0.2-1.9-0.3l-1.2-1.2l-1.3,1.4l1.2,1.1c0.5,0.5,0.6,1.4,0.3,2l-0.9,2.3C41.7,18.5,41,19,40.3,19h-1.7l0.1,1.9
				l1.6-0.1c0.7,0,1.4,0.5,1.6,1.2l0.9,2.3c0.3,0.6,0.2,1.4-0.3,1.9l-1.2,1.2l1.4,1.3l1.1-1.2C44,27.2,44.5,27,44.9,27z M61.5,19
				L61.5,19L61.5,19z"/>
		</g>
		<g>
			<path class="st1" d="M22.4,57h-3c-1,0-1.9-0.8-1.9-1.9v-2.6c0-0.3-0.3-0.6-0.5-0.7l-3.7-1.5c-0.3-0.2-0.7-0.1-0.9,0.1l-1.9,1.9
				c-0.7,0.7-1.9,0.7-2.6,0l-2.1-2.1c-0.4-0.3-0.5-0.8-0.5-1.3s0.2-1,0.5-1.3l1.9-1.8c0.2-0.2,0.2-0.6,0.1-0.8l-1.5-3.7
				c-0.1-0.3-0.4-0.6-0.7-0.6H2.9c-1,0-1.9-0.8-1.9-1.9v-3c0-1,0.8-1.9,1.9-1.9h2.6c0.3,0,0.6-0.3,0.7-0.5l1.5-3.7
				c0.2-0.3,0.1-0.7-0.1-0.9l-1.9-1.9c-0.4-0.3-0.5-0.8-0.5-1.3s0.2-1,0.5-1.3L7.9,22c0.7-0.7,1.9-0.7,2.6,0l1.9,1.9
				c0.2,0.2,0.6,0.2,0.8,0.1l3.7-1.5c0.3-0.1,0.6-0.5,0.6-0.7v-2.6c0-1,0.8-1.9,1.9-1.9h3c1,0,1.9,0.8,1.9,1.9v2.6
				c0,0.3,0.3,0.6,0.5,0.7l3.7,1.5c0.3,0.2,0.7,0.1,0.9-0.1l1.9-1.9c0.7-0.7,1.9-0.7,2.6,0l2.1,2.1c0.4,0.3,0.5,0.8,0.5,1.3
				s-0.2,1-0.5,1.3l-1.8,1.8c-0.2,0.2-0.3,0.6-0.1,0.8l1.5,3.7c0.1,0.3,0.4,0.6,0.7,0.6H39c1,0,1.9,0.8,1.9,1.9v3
				c0,1-0.8,1.9-1.9,1.9h-2.6c-0.3,0-0.6,0.3-0.7,0.5l-1.5,3.7c-0.2,0.4-0.2,0.9,0,1.1l1.9,1.8c0.4,0.3,0.5,0.8,0.5,1.3
				s-0.2,1-0.5,1.3L34,52.3c-0.7,0.7-1.9,0.7-2.6,0l-1.9-1.9c-0.2-0.2-0.6-0.2-0.9-0.1l-3.7,1.5c-0.3,0.1-0.6,0.4-0.6,0.7v2.6
				C24.3,56.2,23.5,57,22.4,57z M12.9,48.7c0.4,0,0.7,0.1,1,0.3l3.6,1.5c0.8,0.2,1.5,1.2,1.5,2.1v2.6c0,0.2,0.2,0.3,0.3,0.3h3
				c0.2,0,0.3-0.2,0.3-0.3v-2.6c0-0.9,0.7-1.9,1.6-2.1l3.6-1.5c0.8-0.4,1.9-0.3,2.6,0.4l1.9,1.9c0.1,0.1,0.4,0.1,0.5,0l2.1-2.1
				C35,49.1,35,49,35,49s0-0.2-0.1-0.2L33,46.9c-0.7-0.7-0.8-1.8-0.4-2.6l1.5-3.6c0.2-0.8,1.2-1.5,2.1-1.5H39c0.2,0,0.4-0.2,0.4-0.3
				v-3c0-0.2-0.2-0.3-0.4-0.3h-2.6c-0.9,0-1.9-0.7-2.1-1.6l-1.5-3.6c-0.4-0.7-0.3-1.9,0.4-2.6L35,26c0.1-0.1,0.1-0.2,0.1-0.2
				s0-0.2-0.1-0.2L32.9,23c-0.1-0.1-0.4-0.1-0.5,0l-1.9,1.9c-0.7,0.7-1.8,0.8-2.6,0.4l-3.6-1.5c-0.8-0.2-1.5-1.2-1.5-2.1v-2.6
				c0-0.2-0.2-0.3-0.3-0.3h-3c-0.2,0-0.3,0.2-0.3,0.3v2.6c0,0.9-0.7,1.9-1.6,2.1L14,25.3c-0.7,0.4-1.9,0.3-2.6-0.4L9.5,23
				c-0.1-0.1-0.4-0.1-0.5,0l-2.1,2.1c-0.1,0.1-0.1,0.2-0.1,0.2s0,0.2,0.1,0.2l1.9,1.9c0.7,0.7,0.8,1.8,0.4,2.6l-1.5,3.6
				c-0.2,0.8-1.2,1.5-2.1,1.5H2.9c-0.2,0-0.3,0.2-0.3,0.3v3c0,0.2,0.2,0.3,0.3,0.3h2.6c0.9,0,1.9,0.7,2.1,1.6l1.5,3.6
				c0.4,0.7,0.2,1.9-0.4,2.6l-1.9,1.9c-0.1,0.1-0.1,0.2-0.1,0.2s0,0.2,0.1,0.2L9,51.2c0.1,0.1,0.4,0.1,0.5,0l1.9-1.8
				C11.7,48.9,12.3,48.7,12.9,48.7z"/>
		</g>
	</g>
	<g>
		<path class="st1" d="M50,23.7c-2.1,0-3.8-1.7-3.8-3.8s1.7-3.8,3.8-3.8s3.8,1.7,3.8,3.8S52.1,23.7,50,23.7z M50,17.6
			c-1.3,0-2.3,1-2.3,2.3s1,2.3,2.3,2.3s2.3-1,2.3-2.3C52.3,18.7,51.3,17.6,50,17.6z"/>
	</g>
	<g>
		<path class="st1" d="M20.9,42.7c-3.1,0-5.5-2.5-5.5-5.5s2.5-5.5,5.5-5.5c3.1,0,5.6,2.5,5.6,5.5S24,42.7,20.9,42.7z M20.9,33.1
			c-2.2,0-4,1.8-4,4s1.8,4,4,4s4-1.8,4-4C25,34.9,23.2,33.1,20.9,33.1z"/>
	</g>
</g>
</svg>
