<?xml version="1.0" encoding="utf-8"?>
<!-- Generator: Adobe Illustrator 19.2.1, SVG Export Plug-In . SVG Version: 6.00 Build 0)  -->
<svg version="1.1" id="Layer_1" xmlns="http://www.w3.org/2000/svg" xmlns:xlink="http://www.w3.org/1999/xlink" x="0px" y="0px"
	 viewBox="0 0 64 64" style="enable-background:new 0 0 64 64;" xml:space="preserve">
<metadata><?xpacket begin="﻿" id="W5M0MpCehiHzreSzNTczkc9d"?>
<x:xmpmeta xmlns:x="adobe:ns:meta/" x:xmptk="Adobe XMP Core 5.6-c111 79.158366, 2015/09/25-01:12:00        ">
   <rdf:RDF xmlns:rdf="http://www.w3.org/1999/02/22-rdf-syntax-ns#">
      <rdf:Description rdf:about=""/>
   </rdf:RDF>
</x:xmpmeta>
                                                                                                    
                                                                                                    
                                                                                                    
                                                                                                    
                                                                                                    
                                                                                                    
                                                                                                    
                                                                                                    
                                                                                                    
                                                                                                    
                                                                                                    
                                                                                                    
                                                                                                    
                                                                                                    
                                                                                                    
                                                                                                    
                                                                                                    
                                                                                                    
                                                                                                    
                                                                                                    
                           
<?xpacket end="w"?></metadata>
<style type="text/css">
	.st0{fill:none;}
	.st1{fill:#5B554D;}
</style>
<rect class="st0" width="64" height="64"/>
<g>
	<g>
		<path class="st1" d="M32,63c-0.1,0-0.1,0-0.2,0c-8.3,0-16-3.3-21.9-9.2c-5.8-5.9-9-13.7-9-22s3.3-16,9.2-21.9C16,4.2,23.8,1,32,1
			c0.1,0,0.1,0,0.2,0C49.3,1.1,63.1,15.1,63,32.2C62.9,49.2,49,63,32,63z M32,2.8c-7.7,0-15,3-20.6,8.5C5.9,16.7,2.8,24,2.8,31.9
			c0,7.8,3,15.2,8.5,20.7s12.8,8.6,20.6,8.7c0.1,0,0.1,0,0.2,0c16,0,29.1-13,29.2-29.1C61.3,16,48.3,2.9,32,2.8L32,2.8z"/>
	</g>
	<g>
		<path class="st1" d="M32,57.4c-14,0-25.4-11.3-25.4-25.3c0-6.8,2.6-13.2,7.4-18s11.2-7.5,17.9-7.6H32c14,0,25.4,11.3,25.4,25.3
			l0,0c0.1,14-11.3,25.5-25.3,25.6C32.1,57.4,32,57.4,32,57.4z M32,8.3h-0.1c-6.3,0-12.3,2.5-16.7,7S8.3,25.8,8.3,32.1
			C8.4,45.1,19,55.7,32,55.7h0.1c13.1-0.1,23.6-10.8,23.5-23.8l0,0C55.6,18.9,45,8.3,32,8.3z"/>
	</g>
	<g>
		<g>
			<g>
				<path class="st1" d="M32,39.9c-1.6,0-3-0.5-4.3-1.3c-0.2-0.2-0.3-0.5-0.1-0.7c0.2-0.2,0.5-0.3,0.7-0.1c1.1,0.7,2.4,1.1,3.7,1.1
					l0,0c3.6,0,6.6-3,6.6-6.7c0-1-0.2-1.9-0.6-2.8c-0.1-0.3,0-0.6,0.3-0.7s0.6,0,0.7,0.3c0.5,1,0.7,2.1,0.7,3.2
					C39.7,36.4,36.3,39.9,32,39.9L32,39.9z M25.4,35.5c-0.2,0-0.4-0.1-0.5-0.3c-0.4-0.9-0.6-1.9-0.6-2.9c0-4.2,3.4-7.7,7.6-7.7l0,0
					c1.3,0,2.6,0.3,3.8,1c0.3,0.1,0.3,0.5,0.2,0.7c-0.1,0.3-0.5,0.3-0.7,0.2c-1-0.6-2.1-0.9-3.3-0.9l0,0c-3.6,0-6.6,3-6.6,6.7
					c0,0.9,0.2,1.7,0.5,2.5c0.1,0.3,0,0.6-0.3,0.7C25.5,35.4,25.4,35.5,25.4,35.5z"/>
			</g>
			<g>
				<path class="st1" d="M34.7,25.7c-0.2,0-0.4-0.1-0.5-0.4l-2.3-7.2l-2.2,7.2c-0.1,0.3-0.4,0.4-0.7,0.4c-0.3-0.1-0.4-0.4-0.4-0.7
					l2.7-8.9c0.1-0.2,0.3-0.4,0.5-0.4l0,0c0.2,0,0.4,0.1,0.5,0.4l2.8,8.9c0.1,0.3-0.1,0.6-0.3,0.7C34.8,25.7,34.8,25.7,34.7,25.7z"
					/>
			</g>
			<g>
				<path class="st1" d="M26,28.6c-0.2,0-0.4-0.1-0.5-0.3l-2.2-4.1c-0.1-0.2-0.1-0.5,0.1-0.6c0.2-0.2,0.4-0.2,0.6-0.1l4.2,2.2
					c0.3,0.1,0.4,0.5,0.2,0.7c-0.1,0.3-0.5,0.4-0.7,0.2l-2.6-1.4l1.4,2.6c0.1,0.3,0,0.6-0.2,0.7C26.2,28.6,26.1,28.6,26,28.6z"/>
			</g>
			<g>
				<path class="st1" d="M40.3,40.8c-0.1,0-0.2,0-0.2-0.1l-4.2-2.2c-0.3-0.1-0.4-0.5-0.2-0.7c0.1-0.3,0.5-0.4,0.7-0.2L39,39
					l-1.4-2.6c-0.1-0.3,0-0.6,0.2-0.7c0.3-0.1,0.6,0,0.7,0.2l2.2,4.1c0.1,0.2,0.1,0.5-0.1,0.6C40.6,40.7,40.5,40.8,40.3,40.8z"/>
			</g>
			<g>
				<path class="st1" d="M32.1,48.6c-0.2,0-0.4-0.1-0.5-0.4l-2.8-8.9c-0.1-0.3,0.1-0.6,0.3-0.7c0.3-0.1,0.6,0.1,0.7,0.3l2.3,7.2
					l2.2-7.2c0.1-0.3,0.4-0.4,0.7-0.4c0.3,0.1,0.4,0.4,0.4,0.7l-2.7,8.9C32.5,48.4,32.3,48.6,32.1,48.6L32.1,48.6z"/>
			</g>
			<g>
				<path class="st1" d="M25.2,35.5c-0.1,0-0.1,0-0.2,0l-8.9-2.7c-0.2-0.1-0.4-0.3-0.4-0.5s0.1-0.4,0.4-0.5L25,29
					c0.3-0.1,0.6,0.1,0.7,0.3s-0.1,0.6-0.3,0.7l-7.2,2.3l7.2,2.2c0.3,0.1,0.4,0.4,0.4,0.7C25.6,35.4,25.4,35.5,25.2,35.5z"/>
			</g>
			<g>
				<path class="st1" d="M38.8,35.5c-0.2,0-0.4-0.1-0.5-0.4c-0.1-0.3,0.1-0.6,0.3-0.7l7.2-2.3l-7.2-2.2c-0.3-0.1-0.4-0.4-0.4-0.7
					c0.1-0.3,0.4-0.4,0.7-0.4l8.9,2.7c0.2,0.1,0.4,0.3,0.4,0.5c0,0.2-0.1,0.4-0.4,0.5L39,35.4C38.9,35.4,38.9,35.5,38.8,35.5z"/>
			</g>
		</g>
		<polygon class="st1" points="31.2,56.6 32.1,53.3 33.1,56.6 		"/>
		<polygon class="st1" points="32.8,7.4 31.9,10.7 30.9,7.4 		"/>
		<polygon class="st1" points="7.5,31.4 10.8,32.3 7.5,33.3 		"/>
		<polygon class="st1" points="56.5,32.9 53.2,31.9 56.5,31 		"/>
	</g>
	<g>
		<g>
			<g>
				<path class="st1" d="M14.7,47.6c-0.1,0-0.3-0.1-0.4-0.2c-0.2-0.2-0.2-0.5,0-0.7l15.4-17.2l0.1-0.1l19.1-13
					c0.2-0.2,0.5-0.1,0.7,0.1s0.2,0.5,0,0.7L34.2,34.4l-0.1,0.1L15,47.5C14.9,47.6,14.8,47.6,14.7,47.6z M30.5,30.3L18,44.2
					l15.4-10.5l12.4-13.9L30.5,30.3z"/>
			</g>
			<g>
				<g>
					<ellipse transform="matrix(0.7518 -0.6594 0.6594 0.7518 -13.1319 29.0492)" class="st1" cx="32" cy="32" rx="1.5" ry="1.5"/>
				</g>
			</g>
		</g>
	</g>
</g>
</svg>
