<?xml version="1.0" encoding="utf-8"?>
<!-- Generator: Adobe Illustrator 19.2.1, SVG Export Plug-In . SVG Version: 6.00 Build 0)  -->
<svg version="1.1" id="Layer_1" xmlns="http://www.w3.org/2000/svg" xmlns:xlink="http://www.w3.org/1999/xlink" x="0px" y="0px"
	 viewBox="0 0 64 64" style="enable-background:new 0 0 64 64;" xml:space="preserve">
<metadata><?xpacket begin="﻿" id="W5M0MpCehiHzreSzNTczkc9d"?>
<x:xmpmeta xmlns:x="adobe:ns:meta/" x:xmptk="Adobe XMP Core 5.6-c111 79.158366, 2015/09/25-01:12:00        ">
   <rdf:RDF xmlns:rdf="http://www.w3.org/1999/02/22-rdf-syntax-ns#">
      <rdf:Description rdf:about=""/>
   </rdf:RDF>
</x:xmpmeta>
                                                                                                    
                                                                                                    
                                                                                                    
                                                                                                    
                                                                                                    
                                                                                                    
                                                                                                    
                                                                                                    
                                                                                                    
                                                                                                    
                                                                                                    
                                                                                                    
                                                                                                    
                                                                                                    
                                                                                                    
                                                                                                    
                                                                                                    
                                                                                                    
                                                                                                    
                                                                                                    
                           
<?xpacket end="w"?></metadata>
<style type="text/css">
	.st0{fill:none;}
	.st1{fill:#5B554D;}
</style>
<rect class="st0" width="64" height="64"/>
<g>
	<g>
		<path class="st1" d="M58.1,53H5.9C3.2,53,1,50.8,1,48.1V15.9C1,13.2,3.2,11,5.9,11h52.2c2.7,0,4.9,2.2,4.9,4.9V48
			C63,50.8,60.8,53,58.1,53z M5.9,12.8c-1.7,0-3.1,1.4-3.1,3.1V48c0,1.7,1.4,3.1,3.1,3.1h52.2c1.7,0,3.1-1.4,3.1-3.1V15.9
			c0-1.7-1.4-3.1-3.1-3.1C58.1,12.8,5.9,12.8,5.9,12.8z"/>
	</g>
	<g>
		<path class="st1" d="M62.1,26.4H1.9C1.4,26.4,1,26,1,25.5v-6.7C1,18.4,1.4,18,1.9,18h60.2c0.5,0,0.9,0.4,0.9,0.9v6.7
			C63,26.1,62.6,26.4,62.1,26.4z M2.8,24.7h58.5v-4.9H2.8V24.7z"/>
	</g>
	<path class="st1" d="M41.3,30.6v1.9h-35v-1.9H41.3 M43.1,28.8H4.5v5.4h38.6V28.8L43.1,28.8z"/>
	<path class="st1" d="M56.2,30.6v1.9h-7v-1.9H56.2 M58,28.8H47.4v5.4H58V28.8L58,28.8z"/>
</g>
</svg>
