<?xml version="1.0" encoding="utf-8"?>
<!-- Generator: Adobe Illustrator 19.2.1, SVG Export Plug-In . SVG Version: 6.00 Build 0)  -->
<svg version="1.1" id="Layer_1" xmlns="http://www.w3.org/2000/svg" xmlns:xlink="http://www.w3.org/1999/xlink" x="0px" y="0px"
	 viewBox="0 0 64 64" style="enable-background:new 0 0 64 64;" xml:space="preserve">
<metadata><?xpacket begin="﻿" id="W5M0MpCehiHzreSzNTczkc9d"?>
<x:xmpmeta xmlns:x="adobe:ns:meta/" x:xmptk="Adobe XMP Core 5.6-c111 79.158366, 2015/09/25-01:12:00        ">
   <rdf:RDF xmlns:rdf="http://www.w3.org/1999/02/22-rdf-syntax-ns#">
      <rdf:Description rdf:about=""/>
   </rdf:RDF>
</x:xmpmeta>
                                                                                                    
                                                                                                    
                                                                                                    
                                                                                                    
                                                                                                    
                                                                                                    
                                                                                                    
                                                                                                    
                                                                                                    
                                                                                                    
                                                                                                    
                                                                                                    
                                                                                                    
                                                                                                    
                                                                                                    
                                                                                                    
                                                                                                    
                                                                                                    
                                                                                                    
                                                                                                    
                           
<?xpacket end="w"?></metadata>
<style type="text/css">
	.st0{fill:none;}
	.st1{fill:#5B554D;}
</style>
<rect class="st0" width="64" height="64"/>
<g>
	<g>
		<path class="st1" d="M34.5,63C16.7,63,2.2,48.6,2.2,30.9C2.2,17.7,10.1,6,22.4,1.1c0.4-0.2,0.9,0,1.1,0.3c0.2,0.4,0.2,0.8-0.1,1.1
			c-5.2,5.4-8.1,12.6-8.1,20c0,16,13.1,29,29.2,29c5.7,0,11.2-1.6,15.9-4.7c0.4-0.2,0.8-0.2,1.1,0.1s0.4,0.8,0.1,1.1
			C55.7,57.3,45.3,63,34.5,63z M19.3,4.6C9.9,9.9,4,19.8,4,30.9c0,16.7,13.7,30.3,30.4,30.3c8.8,0,17.3-4,23.1-10.6
			c-4.1,1.9-8.5,2.9-13.1,2.9c-17.1,0-31-13.8-31-30.9C13.5,16.1,15.5,9.8,19.3,4.6z"/>
	</g>
</g>
</svg>
