<?xml version="1.0" encoding="utf-8"?>
<!-- Generator: Adobe Illustrator 19.2.1, SVG Export Plug-In . SVG Version: 6.00 Build 0)  -->
<svg version="1.1" id="Layer_1" xmlns="http://www.w3.org/2000/svg" xmlns:xlink="http://www.w3.org/1999/xlink" x="0px" y="0px"
	 viewBox="0 0 64 64" style="enable-background:new 0 0 64 64;" xml:space="preserve">
<metadata><?xpacket begin="﻿" id="W5M0MpCehiHzreSzNTczkc9d"?>
<x:xmpmeta xmlns:x="adobe:ns:meta/" x:xmptk="Adobe XMP Core 5.6-c111 79.158366, 2015/09/25-01:12:00        ">
   <rdf:RDF xmlns:rdf="http://www.w3.org/1999/02/22-rdf-syntax-ns#">
      <rdf:Description rdf:about=""/>
   </rdf:RDF>
</x:xmpmeta>
                                                                                                    
                                                                                                    
                                                                                                    
                                                                                                    
                                                                                                    
                                                                                                    
                                                                                                    
                                                                                                    
                                                                                                    
                                                                                                    
                                                                                                    
                                                                                                    
                                                                                                    
                                                                                                    
                                                                                                    
                                                                                                    
                                                                                                    
                                                                                                    
                                                                                                    
                                                                                                    
                           
<?xpacket end="w"?></metadata>
<style type="text/css">
	.st0{fill:none;}
	.st1{fill:#5B554D;}
</style>
<rect class="st0" width="64" height="64"/>
<g>
	<g>
		<path class="st1" d="M60.4,57.1H14c-1.4,0-2.6-1.1-2.6-2.6V21.1c0-1.4,1.2-2.6,2.6-2.6h46.5c1.4,0,2.6,1.1,2.6,2.6v33.4
			C63,56,61.8,57.1,60.4,57.1z M14,20c-0.6,0-1.1,0.5-1.1,1.1v33.4c0,0.6,0.5,1.1,1.1,1.1h46.5c0.6,0,1.1-0.5,1.1-1.1V21.1
			c0-0.6-0.5-1.1-1.1-1.1H14z"/>
	</g>
	<g>
		<path class="st1" d="M8.1,45.4H3.6c-1.4,0-2.6-1.1-2.6-2.6V9.4C1,8,2.2,6.9,3.6,6.9H50c1.4,0,2.6,1.1,2.6,2.6v5.8
			c0,0.4-0.3,0.7-0.7,0.7s-0.7-0.3-0.7-0.7V9.4c0-0.6-0.5-1.1-1.1-1.1H3.6C3,8.3,2.5,8.8,2.5,9.4v33.4C2.5,43.5,3,44,3.6,44h4.5
			c0.4,0,0.7,0.3,0.7,0.7S8.5,45.4,8.1,45.4z"/>
	</g>
</g>
</svg>
