<?xml version="1.0" encoding="utf-8"?>
<!-- Generator: Adobe Illustrator 19.2.1, SVG Export Plug-In . SVG Version: 6.00 Build 0)  -->
<svg version="1.1" id="Layer_1" xmlns="http://www.w3.org/2000/svg" xmlns:xlink="http://www.w3.org/1999/xlink" x="0px" y="0px"
	 viewBox="0 0 64 64" style="enable-background:new 0 0 64 64;" xml:space="preserve">
<metadata><?xpacket begin="﻿" id="W5M0MpCehiHzreSzNTczkc9d"?>
<x:xmpmeta xmlns:x="adobe:ns:meta/" x:xmptk="Adobe XMP Core 5.6-c111 79.158366, 2015/09/25-01:12:00        ">
   <rdf:RDF xmlns:rdf="http://www.w3.org/1999/02/22-rdf-syntax-ns#">
      <rdf:Description rdf:about=""/>
   </rdf:RDF>
</x:xmpmeta>
                                                                                                    
                                                                                                    
                                                                                                    
                                                                                                    
                                                                                                    
                                                                                                    
                                                                                                    
                                                                                                    
                                                                                                    
                                                                                                    
                                                                                                    
                                                                                                    
                                                                                                    
                                                                                                    
                                                                                                    
                                                                                                    
                                                                                                    
                                                                                                    
                                                                                                    
                                                                                                    
                           
<?xpacket end="w"?></metadata>
<style type="text/css">
	.st0{fill:none;}
	.st1{fill:#5C564E;}
</style>
<rect class="st0" width="64" height="64"/>
<g>
	<g>
		<path class="st1" d="M32,63C17.7,63,6.1,57.6,6.1,51c0-2.4,1.5-4.6,4.2-6.6c0.4-0.3,1-0.2,1.2,0.2c0.3,0.4,0.2,1-0.2,1.2
			C9.8,47,7.9,48.8,7.9,51c0,5.5,11.3,10.3,24.2,10.3c12.9,0,24.1-4.8,24.1-10.3c0-2.3-2-4.1-3.6-5.2c-0.4-0.3-0.5-0.8-0.2-1.2
			c0.3-0.4,0.8-0.5,1.2-0.2c2.8,2,4.4,4.3,4.4,6.7C57.9,57.6,46.3,63,32,63z"/>
	</g>
	<g>
		<path class="st1" d="M32,50.4c-14.3,0-25.9-5.4-25.9-12c0-2.3,1.5-4.6,4.2-6.6c0.4-0.3,1-0.2,1.2,0.2c0.3,0.4,0.2,1-0.2,1.2
			c-1.6,1.1-3.5,2.9-3.5,5.1c0,5.5,11.3,10.3,24.2,10.3c12.9,0,24.1-4.8,24.1-10.3c0-2.3-2-4.1-3.6-5.2c-0.4-0.3-0.5-0.8-0.2-1.2
			c0.3-0.4,0.8-0.5,1.2-0.2c2.8,2,4.4,4.3,4.4,6.7C57.9,45,46.3,50.4,32,50.4z"/>
	</g>
	<g>
		<path class="st1" d="M32,37.7c-14.3,0-25.9-5.4-25.9-12c0-2.4,1.5-4.7,4.4-6.7c0.4-0.3,1-0.2,1.2,0.2c0.3,0.4,0.2,1-0.2,1.2
			c-1.6,1.1-3.6,3-3.6,5.2c0,5.5,11.3,10.3,24.2,10.3c12.9,0,24.1-4.8,24.1-10.3c0-2.3-2-4.1-3.6-5.2c-0.4-0.3-0.5-0.8-0.2-1.2
			c0.3-0.4,0.8-0.5,1.2-0.2c2.8,2,4.4,4.3,4.4,6.7C57.9,32.3,46.3,37.7,32,37.7z"/>
	</g>
	<g>
		<path class="st1" d="M32,25.1c-14.3,0-25.9-5.4-25.9-12S17.7,1,32,1c14.3,0,25.9,5.4,25.9,12S46.3,25.1,32,25.1z M32,2.8
			C19.2,2.8,7.9,7.6,7.9,13S19.2,23.3,32,23.3c12.9,0,24.1-4.8,24.1-10.3S44.9,2.8,32,2.8z"/>
	</g>
	<path class="st1" d="M5.5,36.8c0.3-1.4,1.1-2.8,2.4-4v-1.5c-1.2-1.2-2-2.6-2.4-4V36.8z M5.5,24.2c0.3-1.4,1.1-2.8,2.4-4v-1.6
		c-1.2-1.2-2-2.6-2.4-4V24.2z M5.5,49.5c0.3-1.4,1.1-2.8,2.4-4v-1.5c-1.2-1.2-2-2.6-2.4-4V49.5z M56.1,32.7c1.2,1.2,2,2.5,2.4,3.9
		v-9.3c-0.4,1.4-1.2,2.7-2.4,3.9V32.7z M56.1,45.4c1.2,1.2,2,2.5,2.4,3.9V40c-0.4,1.4-1.2,2.7-2.4,3.9V45.4z M56.1,18.6v1.5
		c1.2,1.2,2,2.5,2.4,3.9v-9.3C58.1,16.1,57.3,17.4,56.1,18.6z"/>
</g>
</svg>
