<?xml version="1.0" encoding="utf-8"?>
<!-- Generator: Adobe Illustrator 19.2.1, SVG Export Plug-In . SVG Version: 6.00 Build 0)  -->
<svg version="1.1" id="Layer_1" xmlns="http://www.w3.org/2000/svg" xmlns:xlink="http://www.w3.org/1999/xlink" x="0px" y="0px"
	 viewBox="0 0 64 64" style="enable-background:new 0 0 64 64;" xml:space="preserve">
<metadata><?xpacket begin="﻿" id="W5M0MpCehiHzreSzNTczkc9d"?>
<x:xmpmeta xmlns:x="adobe:ns:meta/" x:xmptk="Adobe XMP Core 5.6-c111 79.158366, 2015/09/25-01:12:00        ">
   <rdf:RDF xmlns:rdf="http://www.w3.org/1999/02/22-rdf-syntax-ns#">
      <rdf:Description rdf:about=""/>
   </rdf:RDF>
</x:xmpmeta>
                                                                                                    
                                                                                                    
                                                                                                    
                                                                                                    
                                                                                                    
                                                                                                    
                                                                                                    
                                                                                                    
                                                                                                    
                                                                                                    
                                                                                                    
                                                                                                    
                                                                                                    
                                                                                                    
                                                                                                    
                                                                                                    
                                                                                                    
                                                                                                    
                                                                                                    
                                                                                                    
                           
<?xpacket end="w"?></metadata>
<style type="text/css">
	.st0{fill:none;}
	.st1{fill:none;stroke:#5B554D;stroke-width:1.4173;stroke-miterlimit:10;}
</style>
<rect class="st0" width="64" height="64"/>
<g>
	<path class="st1" d="M49.2,1C38,1,28.9,10.1,28.9,21.3v9.4H22c-1.7,0-3.1,1.4-3.1,3.1s1.4,3.1,3.1,3.1h6.9v22.9
		c0,1.7,1.4,3.1,3.1,3.1s3.1-1.4,3.1-3.1V37H42c1.7,0,3.1-1.4,3.1-3.1c0-1.7-1.4-3.1-3.1-3.1h-6.9v-9.4c0-7.8,6.3-14.1,14.1-14.1
		c1.7,0,3.1-1.4,3.1-3.1S50.9,1,49.2,1z M17.9,14.1c-3.4,0-6.2-2.8-6.2-6.2s2.8-6.2,6.2-6.2s6.2,2.8,6.2,6.2
		C24.1,11.3,21.3,14.1,17.9,14.1z"/>
</g>
</svg>
