<?xml version="1.0" encoding="utf-8"?>
<!-- Generator: Adobe Illustrator 19.2.1, SVG Export Plug-In . SVG Version: 6.00 Build 0)  -->
<svg version="1.1" id="Layer_1" xmlns="http://www.w3.org/2000/svg" xmlns:xlink="http://www.w3.org/1999/xlink" x="0px" y="0px"
	 viewBox="0 0 64 64" style="enable-background:new 0 0 64 64;" xml:space="preserve">
<metadata><?xpacket begin="﻿" id="W5M0MpCehiHzreSzNTczkc9d"?>
<x:xmpmeta xmlns:x="adobe:ns:meta/" x:xmptk="Adobe XMP Core 5.6-c111 79.158366, 2015/09/25-01:12:00        ">
   <rdf:RDF xmlns:rdf="http://www.w3.org/1999/02/22-rdf-syntax-ns#">
      <rdf:Description rdf:about=""/>
   </rdf:RDF>
</x:xmpmeta>
                                                                                                    
                                                                                                    
                                                                                                    
                                                                                                    
                                                                                                    
                                                                                                    
                                                                                                    
                                                                                                    
                                                                                                    
                                                                                                    
                                                                                                    
                                                                                                    
                                                                                                    
                                                                                                    
                                                                                                    
                                                                                                    
                                                                                                    
                                                                                                    
                                                                                                    
                                                                                                    
                           
<?xpacket end="w"?></metadata>
<style type="text/css">
	.st0{fill:none;}
	.st1{fill:#5B554D;}
</style>
<rect class="st0" width="64" height="64"/>
<g>
	<g>
		<path class="st1" d="M51.7,63c-17.8,0-32.3-13.7-32.3-30.4c0-16.8,14.5-30.4,32.3-30.4c2.3,0,4.2,1.9,4.2,4.2s-1.9,4.2-4.2,4.2
			c-13.2,0-24,9.9-24,22.1s10.8,22.1,24,22.1c2.3,0,4.2,1.9,4.2,4.2C55.8,61.1,54,63,51.7,63z M51.7,4.5c-16.5,0-30,12.6-30,28
			c0,15.5,13.4,28,30,28c1,0,1.8-0.8,1.8-1.8s-0.8-1.8-1.8-1.8c-14.5,0-26.4-11-26.4-24.5S37.1,7.9,51.7,7.9c1,0,1.8-0.8,1.8-1.8
			C53.5,5.3,52.7,4.5,51.7,4.5z M15.4,15.4c-4,0-7.2-3.2-7.2-7.2S11.4,1,15.4,1s7.2,3.2,7.2,7.2C22.6,12.2,19.3,15.4,15.4,15.4z
			 M15.4,3.4c-2.7,0-4.8,2.2-4.8,4.8c0,2.7,2.2,4.8,4.8,4.8s4.8-2.2,4.8-4.8C20.2,5.5,18,3.4,15.4,3.4z"/>
	</g>
</g>
</svg>
