<?xml version="1.0" encoding="utf-8"?>
<!-- Generator: Adobe Illustrator 19.2.1, SVG Export Plug-In . SVG Version: 6.00 Build 0)  -->
<svg version="1.1" id="Layer_1" xmlns="http://www.w3.org/2000/svg" xmlns:xlink="http://www.w3.org/1999/xlink" x="0px" y="0px"
	 viewBox="0 0 64 64" style="enable-background:new 0 0 64 64;" xml:space="preserve">
<metadata><?xpacket begin="﻿" id="W5M0MpCehiHzreSzNTczkc9d"?>
<x:xmpmeta xmlns:x="adobe:ns:meta/" x:xmptk="Adobe XMP Core 5.6-c111 79.158366, 2015/09/25-01:12:00        ">
   <rdf:RDF xmlns:rdf="http://www.w3.org/1999/02/22-rdf-syntax-ns#">
      <rdf:Description rdf:about=""/>
   </rdf:RDF>
</x:xmpmeta>
                                                                                                    
                                                                                                    
                                                                                                    
                                                                                                    
                                                                                                    
                                                                                                    
                                                                                                    
                                                                                                    
                                                                                                    
                                                                                                    
                                                                                                    
                                                                                                    
                                                                                                    
                                                                                                    
                                                                                                    
                                                                                                    
                                                                                                    
                                                                                                    
                                                                                                    
                                                                                                    
                           
<?xpacket end="w"?></metadata>
<style type="text/css">
	.st0{fill:none;}
	.st1{fill:#5B554D;}
</style>
<rect class="st0" width="64" height="64"/>
<g>
	<g>
		<path class="st1" d="M31.7,58.2L31.7,58.2c-0.3,0-0.5-0.1-0.7-0.3L1.2,23.5c-0.2-0.3-0.3-0.7-0.1-1c6.8-11.5,7.3-12,7.9-12
			l22.5-4.7c0.1,0,0.2,0,0.4,0l22.6,4.7c0.2,0,0.4,0.2,0.5,0.4l7.8,11.2c0.2,0.3,0.2,0.8-0.1,1.1L32.4,57.9
			C32.2,58,32,58.2,31.7,58.2z M3,22.9L31.7,56L61,22.6l-7.2-10.4l-22-4.6L9.5,12.2C8.7,13.3,5.7,18.2,3,22.9z"/>
	</g>
	<g>
		<path class="st1" d="M31.7,58.2c-0.2,0-0.5-0.1-0.7-0.3L1.2,23.5c-0.2-0.3-0.3-0.7-0.1-1c7.1-12.1,7.3-12,8-12
			c0.2,0,0.4,0.1,0.6,0.3c1,0.8,3.3,3.3,10.5,11.5c0.1,0.1,0.1,0.2,0.2,0.3L32.5,57c0.1,0.4,0,0.8-0.4,1.1
			C32,58.1,31.9,58.2,31.7,58.2z M3,22.9l26.3,30.3L18.8,23.4c-3.1-3.6-8-9-9.6-10.7C8.1,14.3,5.4,18.7,3,22.9z"/>
	</g>
	<g>
		<path class="st1" d="M32.4,57.4c-0.2,0-0.3,0-0.4-0.1c-0.4-0.2-0.5-0.7-0.4-1.1l11.6-33.4c0-0.1,0.1-0.2,0.2-0.3l10.4-11.7
			c0.2-0.2,0.4-0.3,0.7-0.3s0.5,0.2,0.7,0.4L63,22.1c0.2,0.3,0.2,0.8-0.1,1.1L33,57.1C32.9,57.3,32.6,57.4,32.4,57.4z M44.8,23.6
			L34.7,52.5L61,22.6l-6.7-9.7L44.8,23.6z"/>
	</g>
	<g>
		<g>
			<path class="st1" d="M8.9,12.4c-0.2,0-0.4-0.1-0.5-0.2C8.2,12,8,11.8,8,11.5c0-0.2,0.1-0.4,0.2-0.5c0-0.1,0.1-0.2,0.2-0.2
				c0.4-0.3,0.9-0.3,1.2,0.1c0.1,0.2,0.2,0.4,0.2,0.6c0,0.2-0.1,0.5-0.3,0.6C9.5,12.3,9.2,12.4,8.9,12.4z"/>
		</g>
		<g>
			<path class="st1" d="M19.6,23.8c-0.3,0-0.5-0.1-0.7-0.3c-3.5-4-9.3-10.5-10.2-11.3c-0.1-0.1-0.2-0.1-0.3-0.3
				c-0.2-0.3-0.2-0.6-0.1-0.9c0.1-0.3,0.4-0.4,0.7-0.5l0,0l22-4.7c0.4-0.1,0.7,0.1,0.9,0.4s0.2,0.7,0,1L20.3,23.5
				C20.1,23.7,19.9,23.8,19.6,23.8L19.6,23.8z M10.9,11.9c1.4,1.4,3.9,4.2,8.6,9.6L29.1,8L10.9,11.9z"/>
		</g>
		<g>
			<path class="st1" d="M9,12.3c-0.1,0-0.1,0-0.2,0c-0.2,0-0.5-0.2-0.6-0.4S8,11.6,8,11.4c0-0.3,0.1-0.5,0.4-0.7
				c0.2-0.2,0.5-0.2,0.8-0.1c0.3,0.1,0.5,0.3,0.6,0.5c0,0.1,0.1,0.2,0.1,0.4c0,0.3-0.2,0.7-0.5,0.8C9.3,12.3,9.2,12.3,9,12.3z"/>
		</g>
		<g>
			<path class="st1" d="M8.9,12.5c-0.2,0-0.3,0-0.4-0.1C8.1,12.2,8,11.9,8,11.6c0-0.1,0-0.3,0.1-0.4l0.1-0.1
				c0.3-0.4,0.8-0.5,1.2-0.3c0.3,0.2,0.4,0.5,0.4,0.7s0,0.3-0.1,0.5C9.5,12.3,9.2,12.5,8.9,12.5z"/>
		</g>
		<g>
			<path class="st1" d="M8.2,13.7c-0.1,0-0.3,0-0.4-0.1c-0.3-0.2-0.5-0.5-0.5-0.8c0-0.1,0-0.3,0.1-0.4l0.1-0.3
				c0.2-0.4,0.8-0.6,1.2-0.4c0.3,0.2,0.5,0.5,0.5,0.8c0,0.1,0,0.3-0.1,0.4L9,13.2C8.9,13.5,8.6,13.7,8.2,13.7z"/>
		</g>
		<g>
			<path class="st1" d="M8.7,12.7c-0.1,0-0.3,0-0.4-0.1c-0.3-0.2-0.4-0.5-0.5-0.8c0-0.1,0-0.3,0.1-0.4l0.8,0.4L8,11.3l0.8,0.3
				L9.6,12l-0.8-0.4l0.7,0.5C9.3,12.6,9,12.7,8.7,12.7z"/>
		</g>
		<g>
			<path class="st1" d="M8,14.1c-0.1,0-0.3,0-0.4-0.1c-0.3-0.2-0.5-0.5-0.5-0.8c0-0.1,0-0.3,0.1-0.4l0.2-0.3
				c0.2-0.4,0.8-0.6,1.2-0.4c0.3,0.2,0.5,0.5,0.5,0.8c0,0.1,0,0.3-0.1,0.4l-0.1,0.3C8.7,13.9,8.4,14.1,8,14.1z"/>
		</g>
		<g>
			<path class="st1" d="M8.4,13.3c-0.1,0-0.3,0-0.4-0.1c-0.3-0.2-0.5-0.5-0.5-0.8c0-0.1,0-0.3,0.1-0.4l0.1-0.2
				c0.2-0.4,0.8-0.7,1.2-0.4c0.3,0.2,0.5,0.5,0.5,0.8c0,0.1,0,0.2-0.1,0.4l-0.1,0.1l-0.1,0.1C9.1,13.1,8.8,13.3,8.4,13.3z"/>
		</g>
		<g>
			<path class="st1" d="M8.6,12.9c-0.1,0-0.3,0-0.4-0.1c-0.3-0.2-0.5-0.5-0.5-0.8c0-0.1,0-0.3,0.1-0.4v-0.1C8,11.1,8.6,10.8,9,11.1
				c0.3,0.2,0.5,0.5,0.5,0.8c0,0.1,0,0.3-0.1,0.4l-0.1,0.1C9.3,12.8,8.9,12.9,8.6,12.9z"/>
		</g>
	</g>
	<g>
		<path class="st1" d="M44.2,23.8C44.1,23.8,44.1,23.8,44.2,23.8c-0.3,0-0.6-0.2-0.7-0.4L31.9,7.2c-0.2-0.3-0.2-0.7,0-1
			c0.2-0.3,0.6-0.5,0.9-0.4l21.7,4.7c0.3,0.1,0.6,0.3,0.7,0.6c0.1,0.3,0,0.6-0.2,0.9L44.8,23.5C44.6,23.7,44.4,23.8,44.2,23.8z
			 M34.7,8.1l9.6,13.4l8.5-9.6L34.7,8.1z"/>
	</g>
	<g>
		<path class="st1" d="M61.8,23.9H2c-0.3,0-0.5-0.1-0.7-0.3c-0.2-0.3-0.3-0.8-0.2-1.1c6.8-11.6,7.3-12,7.9-12l23-4.7
			c0.1,0,0.2,0,0.4,0l22.2,4.7c0.2,0,0.4,0.2,0.5,0.4l7.8,11.2c0.2,0.3,0.2,0.8-0.1,1.1l-0.3,0.4C62.3,23.8,62,23.9,61.8,23.9z
			 M3.4,22.2h57.3l-6.9-9.9L32.2,7.6L9.5,12.2C8.7,13.2,6,17.8,3.4,22.2z"/>
	</g>
</g>
</svg>
