<?xml version="1.0" encoding="utf-8"?>
<!-- Generator: Adobe Illustrator 19.2.1, SVG Export Plug-In . SVG Version: 6.00 Build 0)  -->
<svg version="1.1" id="Layer_1" xmlns="http://www.w3.org/2000/svg" xmlns:xlink="http://www.w3.org/1999/xlink" x="0px" y="0px"
	 viewBox="0 0 64 64" style="enable-background:new 0 0 64 64;" xml:space="preserve">
<metadata><?xpacket begin="﻿" id="W5M0MpCehiHzreSzNTczkc9d"?>
<x:xmpmeta xmlns:x="adobe:ns:meta/" x:xmptk="Adobe XMP Core 5.6-c111 79.158366, 2015/09/25-01:12:00        ">
   <rdf:RDF xmlns:rdf="http://www.w3.org/1999/02/22-rdf-syntax-ns#">
      <rdf:Description rdf:about=""/>
   </rdf:RDF>
</x:xmpmeta>
                                                                                                    
                                                                                                    
                                                                                                    
                                                                                                    
                                                                                                    
                                                                                                    
                                                                                                    
                                                                                                    
                                                                                                    
                                                                                                    
                                                                                                    
                                                                                                    
                                                                                                    
                                                                                                    
                                                                                                    
                                                                                                    
                                                                                                    
                                                                                                    
                                                                                                    
                                                                                                    
                           
<?xpacket end="w"?></metadata>
<style type="text/css">
	.st0{fill:none;}
	.st1{fill:#5B554D;}
</style>
<rect class="st0" width="64" height="64"/>
<g>
	<g>
		<g>
			<g>
				<path class="st1" d="M43.8,63H20.2c-2.4,0-4.4-2-4.4-4.4V17.2C15.8,8.3,23.1,1,32,1c6.6,0,12.7,4.2,15.1,10.4l0.2,0.4
					c0.2,0.7,0.3,1.2,0.3,1.8c0,3.1-2.5,5.7-5.7,5.7c-2.3,0-4.3-1.3-5.2-3.4v-0.1c-0.1-0.2-0.1-0.4-0.2-0.6c-0.7-1.8-2.5-3-4.5-3
					c-2.7,0-4.9,2.2-4.9,4.9S29.3,22,32,22h11.7c2.5,0,4.5,2,4.5,4.5v32.3C48.2,61,46.2,63,43.8,63z M32,2.7
					c-8,0-14.5,6.5-14.5,14.5v41.4c0,1.5,1.2,2.7,2.7,2.7h23.6c1.5,0,2.7-1.2,2.7-2.7V26.3c0-1.6-1.3-2.8-2.8-2.8H32
					c-3.6,0-6.5-2.9-6.5-6.6c0-3.6,2.9-6.5,6.5-6.5c2.7,0,5.1,1.6,6.1,4.1c0.1,0.3,0.2,0.5,0.3,0.8c0.6,1.4,2.1,2.3,3.6,2.3
					c2.2,0,4-1.8,4-4c0-0.4-0.1-0.8-0.2-1.3L45.5,12C43.4,6.4,38,2.7,32,2.7z"/>
			</g>
			<g>
				<g>
					<path class="st1" d="M20.9,49.9h1.6c1,0,1.5,0.6,1.5,1.6v3.2c0,1-0.5,1.6-1.5,1.6h-1.6V49.9z M21.9,50.8v4.5h0.6
						c0.3,0,0.5-0.2,0.5-0.6v-3.3c0-0.5-0.2-0.6-0.5-0.6C22.5,50.8,21.9,50.8,21.9,50.8z"/>
					<path class="st1" d="M24.6,49.9h1v6.3h-1V49.9z"/>
					<path class="st1" d="M27.6,49.8c1,0,1.5,0.6,1.5,1.6v0.2h-0.9v-0.3c0-0.5-0.2-0.6-0.5-0.6s-0.5,0.2-0.5,0.6
						c0,1.3,1.9,1.5,1.9,3.4c0,1-0.5,1.6-1.5,1.6s-1.5-0.6-1.5-1.6v-0.4H27v0.5c0,0.5,0.2,0.6,0.5,0.6s0.5-0.2,0.5-0.6
						c0-1.3-1.9-1.5-1.9-3.4C26.2,50.4,26.7,49.8,27.6,49.8z"/>
					<path class="st1" d="M29.4,49.9h3.1v0.9h-1v5.4h-1v-5.4h-1v-0.9H29.4z"/>
					<path class="st1" d="M33.9,49.9v4.9c0,0.5,0.2,0.6,0.5,0.6s0.5-0.2,0.5-0.6v-4.9h0.9v4.8c0,1-0.5,1.6-1.5,1.6s-1.5-0.6-1.5-1.6
						v-4.8H33.9z"/>
					<path class="st1" d="M38.6,56.2c-0.1-0.2-0.1-0.3-0.1-0.8v-1c0-0.6-0.2-0.8-0.7-0.8h-0.3v2.6h-1v-6.3H38c1,0,1.5,0.5,1.5,1.5
						v0.5c0,0.6-0.2,1.1-0.7,1.3c0.5,0.2,0.7,0.7,0.7,1.3v1c0,0.3,0,0.5,0.1,0.8L38.6,56.2L38.6,56.2z M37.5,50.8v1.9h0.4
						c0.4,0,0.6-0.2,0.6-0.7v-0.6c0-0.5-0.2-0.7-0.5-0.7L37.5,50.8L37.5,50.8z"/>
					<path class="st1" d="M43.1,51.4v0.2c0,0.7-0.2,1.1-0.6,1.3c0.5,0.2,0.7,0.7,0.7,1.4v0.5c0,1-0.5,1.5-1.5,1.5h-1.6V50h1.5
						C42.7,49.9,43.1,50.4,43.1,51.4z M41.2,50.8v1.7h0.4c0.4,0,0.6-0.2,0.6-0.7v-0.4c0-0.5-0.2-0.7-0.5-0.7h-0.5V50.8z M41.2,53.4
						v1.9h0.6c0.3,0,0.5-0.2,0.5-0.6v-0.6c0-0.6-0.2-0.8-0.6-0.8L41.2,53.4L41.2,53.4z"/>
				</g>
				<g>
					<path class="st1" d="M22.7,39h1.6c1,0,1.5,0.6,1.5,1.6v3.2c0,1-0.5,1.6-1.5,1.6h-1.6V39z M23.7,39.9v4.5h0.6
						c0.3,0,0.5-0.2,0.5-0.6v-3.3c0-0.5-0.2-0.6-0.5-0.6C24.3,39.9,23.7,39.9,23.7,39.9z"/>
					<path class="st1" d="M26.3,40.5c0-1,0.5-1.6,1.5-1.6s1.5,0.6,1.5,1.6v3.3c0,1-0.5,1.6-1.5,1.6s-1.5-0.6-1.5-1.6V40.5z
						 M27.3,43.9c0,0.5,0.2,0.6,0.5,0.6s0.5-0.2,0.5-0.6v-3.4c0-0.5-0.2-0.6-0.5-0.6s-0.5,0.2-0.5,0.6V43.9z"/>
					<path class="st1" d="M32.3,40.8v4.6h-0.9V39h1.2l1,3.8V39h0.9v6.3h-1L32.3,40.8z"/>
					<path class="st1" d="M35.2,40.5c0-1,0.5-1.6,1.5-1.6s1.5,0.6,1.5,1.6v3.3c0,1-0.5,1.6-1.5,1.6s-1.5-0.6-1.5-1.6V40.5z
						 M36.2,43.9c0,0.5,0.2,0.6,0.5,0.6s0.5-0.2,0.5-0.6v-3.4c0-0.5-0.2-0.6-0.5-0.6s-0.5,0.2-0.5,0.6V43.9z"/>
					<path class="st1" d="M38.5,39h3.1v0.9h-1v5.4h-1v-5.4h-1L38.5,39L38.5,39z"/>
				</g>
				<g>
					<path class="st1" d="M25.2,29.7v0.8c0,1-0.5,1.6-1.5,1.6h-0.5v2.4h-1v-6.3h1.5C24.7,28.2,25.2,28.7,25.2,29.7z M23.2,29.1v2.1
						h0.5c0.3,0,0.5-0.1,0.5-0.6v-1c0-0.5-0.2-0.6-0.5-0.6h-0.5V29.1z"/>
					<path class="st1" d="M25.7,28.2h1v5.4h1.6v0.9h-2.6V28.2z"/>
					<path class="st1" d="M29.7,30.8h1.4v0.9h-1.4v1.9h1.7v0.9h-2.7v-6.3h2.7v0.9h-1.7V30.8z"/>
					<path class="st1" d="M35.3,34.5h-1l-0.2-1.1h-1.2l-0.2,1.1h-0.9l1-6.3h1.5L35.3,34.5z M33,32.5h1l-0.5-3.2L33,32.5z"/>
					<path class="st1" d="M37.1,28.1c1,0,1.5,0.6,1.5,1.6v0.2h-0.9v-0.3c0-0.5-0.2-0.6-0.5-0.6s-0.5,0.2-0.5,0.6
						c0,1.3,1.9,1.5,1.9,3.4c0,1-0.5,1.6-1.5,1.6S35.6,34,35.6,33v-0.4h0.9V33c0,0.5,0.2,0.6,0.5,0.6s0.5-0.2,0.5-0.6
						c0-1.3-1.9-1.5-1.9-3.4C35.6,28.7,36.1,28.1,37.1,28.1z"/>
					<path class="st1" d="M40.1,30.8h1.4v0.9h-1.4v1.9h1.7v0.9h-2.7v-6.3h2.7v0.9h-1.7V30.8z"/>
				</g>
			</g>
		</g>
	</g>
</g>
</svg>
