<?xml version="1.0" encoding="utf-8"?>
<!-- Generator: Adobe Illustrator 19.2.1, SVG Export Plug-In . SVG Version: 6.00 Build 0)  -->
<svg version="1.1" id="Layer_1" xmlns="http://www.w3.org/2000/svg" xmlns:xlink="http://www.w3.org/1999/xlink" x="0px" y="0px"
	 viewBox="0 0 64 64" style="enable-background:new 0 0 64 64;" xml:space="preserve">
<metadata><?xpacket begin="﻿" id="W5M0MpCehiHzreSzNTczkc9d"?>
<x:xmpmeta xmlns:x="adobe:ns:meta/" x:xmptk="Adobe XMP Core 5.6-c111 79.158366, 2015/09/25-01:12:00        ">
   <rdf:RDF xmlns:rdf="http://www.w3.org/1999/02/22-rdf-syntax-ns#">
      <rdf:Description rdf:about=""/>
   </rdf:RDF>
</x:xmpmeta>
                                                                                                    
                                                                                                    
                                                                                                    
                                                                                                    
                                                                                                    
                                                                                                    
                                                                                                    
                                                                                                    
                                                                                                    
                                                                                                    
                                                                                                    
                                                                                                    
                                                                                                    
                                                                                                    
                                                                                                    
                                                                                                    
                                                                                                    
                                                                                                    
                                                                                                    
                                                                                                    
                           
<?xpacket end="w"?></metadata>
<style type="text/css">
	.st0{fill:none;}
	.st1{fill:#5B554D;}
</style>
<rect class="st0" width="64" height="64"/>
<g>
	<g>
		<g>
			<path class="st1" d="M6,58.5H3.7c-1.5,0-2.7-1.2-2.7-2.7v-52C1,2.2,2.2,1,3.7,1h52c1.5,0,2.7,1.2,2.7,2.7V6c0,0.6-0.4,1-1,1
				s-1-0.4-1-1V3.7c0-0.4-0.3-0.7-0.7-0.7h-52C3.3,3,3,3.3,3,3.7v52c0,0.4,0.3,0.7,0.7,0.7H6c0.6,0,1,0.4,1,1S6.5,58.5,6,58.5z"/>
		</g>
		<g>
			<path class="st1" d="M62,63H9.9c-0.6,0-1-0.4-1-1V9.9c0-0.6,0.4-1,1-1H62c0.6,0,1,0.4,1,1V62C63,62.5,62.6,63,62,63z M10.9,61H61
				V10.9H10.9V61z"/>
		</g>
	</g>
	<g>
		<g>
			<path class="st1" d="M31.2,46.4c-0.5,0-1-0.4-1-1s0.4-1,1-1l12.1-0.1c0.3,0,0.5-0.1,0.7-0.3s0.3-0.4,0.3-0.7l0.1-12.1
				c0-0.6,0.5-1,1-1l0,0c0.6,0,1,0.5,1,1l-0.1,12.1c0,0.8-0.3,1.6-0.9,2.1c-0.6,0.6-1.3,0.9-2.1,0.9L31.2,46.4L31.2,46.4z"/>
		</g>
		<g>
			<path class="st1" d="M44.6,45.7c-0.3,0-0.5-0.1-0.7-0.3L24.8,26.2c-0.4-0.4-0.4-1,0-1.4s1-0.4,1.4,0L45.3,44c0.4,0.4,0.4,1,0,1.4
				C45.2,45.6,44.9,45.7,44.6,45.7z"/>
		</g>
	</g>
</g>
</svg>
