<?xml version="1.0" encoding="utf-8"?>
<!-- Generator: Adobe Illustrator 19.2.1, SVG Export Plug-In . SVG Version: 6.00 Build 0)  -->
<svg version="1.1" id="Layer_1" xmlns="http://www.w3.org/2000/svg" xmlns:xlink="http://www.w3.org/1999/xlink" x="0px" y="0px"
	 viewBox="0 0 64 64" style="enable-background:new 0 0 64 64;" xml:space="preserve">
<metadata><?xpacket begin="﻿" id="W5M0MpCehiHzreSzNTczkc9d"?>
<x:xmpmeta xmlns:x="adobe:ns:meta/" x:xmptk="Adobe XMP Core 5.6-c111 79.158366, 2015/09/25-01:12:00        ">
   <rdf:RDF xmlns:rdf="http://www.w3.org/1999/02/22-rdf-syntax-ns#">
      <rdf:Description rdf:about=""/>
   </rdf:RDF>
</x:xmpmeta>
                                                                                                    
                                                                                                    
                                                                                                    
                                                                                                    
                                                                                                    
                                                                                                    
                                                                                                    
                                                                                                    
                                                                                                    
                                                                                                    
                                                                                                    
                                                                                                    
                                                                                                    
                                                                                                    
                                                                                                    
                                                                                                    
                                                                                                    
                                                                                                    
                                                                                                    
                                                                                                    
                           
<?xpacket end="w"?></metadata>
<style type="text/css">
	.st0{fill:none;}
	.st1{fill:#5B554D;}
</style>
<rect class="st0" width="64" height="64"/>
<g>
	<g>
		<path class="st1" d="M55.2,63H8.8c-2.2,0-4-1.8-4-4V15.2c0-2.2,1.8-4,4-4h14.1c0.5,0,0.9,0.4,0.9,0.9S23.4,13,22.9,13H8.8
			c-1.2,0-2.1,1-2.1,2.1V59c0,1.2,1,2.1,2.1,2.1h46.3c1.2,0,2.1-1,2.1-2.1V15.2c0-1.2-1-2.1-2.1-2.1h-14c-0.5,0-0.9-0.4-0.9-0.9
			s0.4-0.9,0.9-0.9h14.1c2.2,0,4,1.8,4,4V59C59.2,61.2,57.4,63,55.2,63z"/>
	</g>
	<g>
		<g>
			<path class="st1" d="M32,44.4c-0.5,0-0.9-0.4-0.9-0.9V4.7c0-1-0.8-1.9-1.8-1.9h-9.9c-0.5,0-0.9-0.4-0.9-0.9S18.8,1,19.3,1h9.9
				c2,0,3.7,1.7,3.7,3.7v38.7C32.9,43.9,32.5,44.4,32,44.4z"/>
		</g>
		<g>
			<path class="st1" d="M32,45.8c-0.8,0-1.6-0.3-2.3-0.9L22.9,38c-0.4-0.4-0.4-1,0-1.3c0.4-0.4,1-0.4,1.3,0l6.9,6.8
				c0.5,0.5,1.3,0.5,1.9,0l6.9-6.8c0.4-0.4,1-0.4,1.3,0c0.4,0.4,0.4,1,0,1.3l-6.9,6.8C33.7,45.5,32.8,45.8,32,45.8z"/>
		</g>
	</g>
</g>
</svg>
