<?xml version="1.0" encoding="utf-8"?>
<!-- Generator: Adobe Illustrator 19.2.1, SVG Export Plug-In . SVG Version: 6.00 Build 0)  -->
<svg version="1.1" id="Layer_1" xmlns="http://www.w3.org/2000/svg" xmlns:xlink="http://www.w3.org/1999/xlink" x="0px" y="0px"
	 viewBox="0 0 64 64" style="enable-background:new 0 0 64 64;" xml:space="preserve">
<metadata><?xpacket begin="﻿" id="W5M0MpCehiHzreSzNTczkc9d"?>
<x:xmpmeta xmlns:x="adobe:ns:meta/" x:xmptk="Adobe XMP Core 5.6-c111 79.158366, 2015/09/25-01:12:00        ">
   <rdf:RDF xmlns:rdf="http://www.w3.org/1999/02/22-rdf-syntax-ns#">
      <rdf:Description rdf:about=""/>
   </rdf:RDF>
</x:xmpmeta>
                                                                                                    
                                                                                                    
                                                                                                    
                                                                                                    
                                                                                                    
                                                                                                    
                                                                                                    
                                                                                                    
                                                                                                    
                                                                                                    
                                                                                                    
                                                                                                    
                                                                                                    
                                                                                                    
                                                                                                    
                                                                                                    
                                                                                                    
                                                                                                    
                                                                                                    
                                                                                                    
                           
<?xpacket end="w"?></metadata>
<style type="text/css">
	.st0{fill:none;}
	.st1{fill:#5B554D;}
</style>
<rect class="st0" width="64" height="64"/>
<g>
	<g>
		<path class="st1" d="M55.4,63H8.5c-2.2,0-4.1-1.8-4.1-4V14.6c0-2.2,1.8-4,4.1-4h14.2c0.5,0,0.9,0.4,0.9,0.9s-0.4,0.9-0.9,0.9H8.5
			c-1.2,0-2.2,1-2.2,2.2V59c0,1.2,1,2.2,2.2,2.2h46.9c1.2,0,2.2-1,2.2-2.2V14.6c0-1.2-1-2.2-2.2-2.2H41.2c-0.5,0-0.9-0.4-0.9-0.9
			s0.4-0.9,0.9-0.9h14.3c2.2,0,4.1,1.8,4.1,4V59C59.5,61.2,57.7,63,55.4,63z"/>
	</g>
	<g>
		<g>
			<path class="st1" d="M35.9,40.9c-0.1,0-0.2,0-0.4,0c-0.8-0.1-1.5-0.5-1.9-1.1l-7.1-9.2c-0.3-0.4-0.2-1,0.2-1.3
				c0.4-0.3,1-0.2,1.3,0.2l7.1,9.2c0.2,0.2,0.4,0.4,0.7,0.4s0.5,0,0.7-0.2l9.2-7.2c0.4-0.3,1-0.2,1.3,0.2s0.2,1-0.2,1.3l-9.2,7.2
				C37.1,40.7,36.5,40.9,35.9,40.9z"/>
		</g>
		<g>
			<path class="st1" d="M35.9,39.3c-0.1,0-0.2,0-0.2,0c-0.5-0.1-0.8-0.7-0.7-1.2c7.4-27.3-17.4-35-18.4-35.3
				c-0.5-0.1-0.8-0.7-0.6-1.2c0-0.4,0.6-0.7,1.1-0.6c0.3,0.1,27.6,8.6,19.7,37.6C36.7,39.1,36.3,39.3,35.9,39.3z"/>
		</g>
	</g>
</g>
</svg>
