<?xml version="1.0" encoding="utf-8"?>
<!-- Generator: Adobe Illustrator 19.2.1, SVG Export Plug-In . SVG Version: 6.00 Build 0)  -->
<svg version="1.1" id="Layer_1" xmlns="http://www.w3.org/2000/svg" xmlns:xlink="http://www.w3.org/1999/xlink" x="0px" y="0px"
	 viewBox="0 0 64 64" style="enable-background:new 0 0 64 64;" xml:space="preserve">
<metadata><?xpacket begin="﻿" id="W5M0MpCehiHzreSzNTczkc9d"?>
<x:xmpmeta xmlns:x="adobe:ns:meta/" x:xmptk="Adobe XMP Core 5.6-c111 79.158366, 2015/09/25-01:12:00        ">
   <rdf:RDF xmlns:rdf="http://www.w3.org/1999/02/22-rdf-syntax-ns#">
      <rdf:Description rdf:about=""/>
   </rdf:RDF>
</x:xmpmeta>
                                                                                                    
                                                                                                    
                                                                                                    
                                                                                                    
                                                                                                    
                                                                                                    
                                                                                                    
                                                                                                    
                                                                                                    
                                                                                                    
                                                                                                    
                                                                                                    
                                                                                                    
                                                                                                    
                                                                                                    
                                                                                                    
                                                                                                    
                                                                                                    
                                                                                                    
                                                                                                    
                           
<?xpacket end="w"?></metadata>
<style type="text/css">
	.st0{fill:none;}
	.st1{fill:#5B554D;}
</style>
<rect class="st0" width="64" height="64"/>
<g>
	<g>
		<path class="st1" d="M32,2.2l0.5,0.6v0.4l-0.2,0.2l0.1,3.4l1,1.2v1l0.3,0.4v1.5c0,0-0.5,0.5-0.5,1.2S32,47.3,46.4,61.7h-5.8
			c0,0-1.5-7.2-8.6-7.2s-8.6,7.2-8.6,7.2h-5.8C32,47.4,30.8,12.9,30.8,12.1c0-0.7-0.5-1.2-0.5-1.2V9.4L30.6,9V8l1.1-1.3l0.1-3.4
			l-0.2-0.2V2.8L32,2.2 M28.5,50.1c2.8,0,3.5,0,3.5,0s0.7,0,3.5,0c-0.8-1.2-1.8-8.9-1.8-8.9h-3.4C30.3,41.2,29.3,48.9,28.5,50.1
			 M32,1c-0.4,0-0.7,0.2-0.9,0.4L30.6,2c-0.2,0.2-0.3,0.5-0.3,0.8v0.4c0,0.3,0.1,0.5,0.2,0.7l-0.1,2.4l-0.8,1
			c-0.2,0.2-0.3,0.5-0.3,0.8v0.5l-0.1,0.1C29.1,8.8,29,9.1,29,9.4v1.5c0,0.4,0.1,0.7,0.4,0.9c0,0,0.1,0.1,0.1,0.3c0,0,0,0.2,0,0.3
			c0.1,5.9,0,35.7-12.8,48.5c-0.4,0.4-0.5,0.9-0.3,1.4s0.6,0.8,1.2,0.8h5.8c0.6,0,1.1-0.4,1.2-1c0.1-0.2,1.4-6.2,7.4-6.2
			s7.4,5.9,7.4,6.2c0.1,0.6,0.6,1,1.2,1h5.8c0.5,0,1-0.3,1.2-0.8s0.1-1-0.3-1.4C34.5,48.1,34.4,18.3,34.5,12.4c0-0.2,0-0.3,0-0.3
			c0-0.2,0.1-0.3,0.1-0.3c0.3-0.2,0.4-0.5,0.4-0.9V9.4c0-0.3-0.1-0.5-0.2-0.7l-0.1-0.1V8c0-0.3-0.1-0.6-0.3-0.8l-0.8-1l-0.1-2.4
			c0.2-0.2,0.2-0.5,0.2-0.7V2.8c0-0.3-0.1-0.6-0.3-0.8l-0.5-0.6C32.7,1.2,32.4,1,32,1L32,1z M31.4,42.5h1.2c0.3,1.9,0.7,4.5,1.1,6.4
			H32h-1.7C30.8,47,31.2,44.3,31.4,42.5L31.4,42.5z"/>
	</g>
	<g>
		<path class="st1" d="M35.5,36h-6.9c-0.3,0-0.6-0.3-0.6-0.6s0.3-0.6,0.6-0.6h6.9c0.3,0,0.6,0.3,0.6,0.6S35.8,36,35.5,36z"/>
	</g>
</g>
</svg>
