<?xml version="1.0" encoding="utf-8"?>
<!-- Generator: Adobe Illustrator 19.2.1, SVG Export Plug-In . SVG Version: 6.00 Build 0)  -->
<svg version="1.1" id="Layer_1" xmlns="http://www.w3.org/2000/svg" xmlns:xlink="http://www.w3.org/1999/xlink" x="0px" y="0px"
	 viewBox="0 0 64 64" style="enable-background:new 0 0 64 64;" xml:space="preserve">
<metadata><?xpacket begin="﻿" id="W5M0MpCehiHzreSzNTczkc9d"?>
<x:xmpmeta xmlns:x="adobe:ns:meta/" x:xmptk="Adobe XMP Core 5.6-c111 79.158366, 2015/09/25-01:12:00        ">
   <rdf:RDF xmlns:rdf="http://www.w3.org/1999/02/22-rdf-syntax-ns#">
      <rdf:Description rdf:about=""/>
   </rdf:RDF>
</x:xmpmeta>
                                                                                                    
                                                                                                    
                                                                                                    
                                                                                                    
                                                                                                    
                                                                                                    
                                                                                                    
                                                                                                    
                                                                                                    
                                                                                                    
                                                                                                    
                                                                                                    
                                                                                                    
                                                                                                    
                                                                                                    
                                                                                                    
                                                                                                    
                                                                                                    
                                                                                                    
                                                                                                    
                           
<?xpacket end="w"?></metadata>
<style type="text/css">
	.st0{fill:none;}
	.st1{fill:#5B554D;}
</style>
<rect class="st0" width="64" height="64"/>
<g>
	<g>
		<g>
			<path class="st1" d="M59.3,63H4.7c-1,0-1.8-0.8-1.8-1.7V25.7c0-0.5,0.4-0.8,0.8-0.8s0.8,0.4,0.8,0.8v35.6c0,0,0.1,0,0.2,0h54.6
				c0.1,0,0.2,0,0.2-0.1V25.7c0-0.5,0.4-0.8,0.8-0.8s0.8,0.4,0.8,0.8v35.6C61.1,62.2,60.3,63,59.3,63z"/>
		</g>
	</g>
	<g>
		<g>
			<path class="st1" d="M57.1,27.1c-0.5,0-0.8-0.4-0.8-0.8c0-2.8,0-6.5-0.1-7.6L40,2.7H9.9c-1.1,0-2,0.9-2,2v21
				c0,0.5-0.4,0.8-0.8,0.8c-0.5,0-0.8-0.4-0.8-0.8v-21C6.2,2.7,7.9,1,9.9,1h30.4c0.2,0,0.4,0.1,0.6,0.2l16.7,16.5
				c0.2,0.2,0.2,0.4,0.2,0.6c0,0,0.1,4.6,0.1,8C57.9,26.8,57.5,27.1,57.1,27.1z"/>
		</g>
	</g>
	<g>
		<g>
			<path class="st1" d="M45.5,19.3c-3.1,0-5.7-2.5-5.7-5.5L39.5,2c0-0.5,0.4-0.8,0.8-0.9c0.5,0,0.8,0.4,0.9,0.8l0.3,11.8
				c0,2.1,1.8,3.9,4,3.9l11.3-0.1l0,0c0.5,0,0.8,0.4,0.8,0.8c0,0.5-0.4,0.8-0.8,0.8L45.5,19.3z"/>
		</g>
	</g>
	<g>
		<g>
			<path class="st1" d="M26.2,41.9c-0.2,0-0.4-0.1-0.6-0.3c-5.1-5.5-13-12.5-21.5-15.4c-0.4-0.1-0.7-0.6-0.5-1.1s0.6-0.7,1.1-0.5
				c8.9,2.9,17,10.2,22.2,15.8c0.3,0.3,0.3,0.9,0,1.2C26.6,41.8,26.4,41.9,26.2,41.9z"/>
		</g>
	</g>
	<g>
		<g>
			<path class="st1" d="M37.8,42.2c-0.2,0-0.4-0.1-0.6-0.2c-0.3-0.3-0.4-0.8,0-1.2c5.2-5.6,13.4-13,22.3-15.9
				c0.4-0.1,0.9,0.1,1.1,0.5c0.1,0.4-0.1,0.9-0.5,1.1c-8.6,2.8-16.5,9.9-21.6,15.4C38.2,42.1,38,42.2,37.8,42.2z"/>
		</g>
	</g>
	<g>
		<g>
			<path class="st1" d="M4.2,62.8c-0.2,0-0.3-0.1-0.5-0.2c-0.4-0.3-0.5-0.8-0.2-1.2c1.4-1.8,13.6-18.1,28.4-22.9
				c0.2-0.1,0.4-0.1,0.5,0c12.3,4,23.2,16.6,27.3,21.7c0.3,0.4,0.2,0.9-0.1,1.2c-0.4,0.3-0.9,0.2-1.2-0.1c-4-5-14.4-17.1-26.2-21.1
				C18,45,6.2,60.6,4.9,62.4C4.7,62.6,4.4,62.8,4.2,62.8z"/>
		</g>
	</g>
	<g>
		<g>
			<path class="st1" d="M36.8,12.5H13c-0.5,0-0.8-0.4-0.8-0.8s0.4-0.8,0.8-0.8h23.7c0.5,0,0.8,0.4,0.8,0.8S37.2,12.5,36.8,12.5z"/>
		</g>
	</g>
	<g>
		<g>
			<path class="st1" d="M36.8,19.7H13c-0.5,0-0.8-0.4-0.8-0.8s0.4-0.8,0.8-0.8h23.7c0.5,0,0.8,0.4,0.8,0.8S37.2,19.7,36.8,19.7z"/>
		</g>
	</g>
	<g>
		<g>
			<path class="st1" d="M49.3,27H14.8c-0.5,0-0.8-0.4-0.8-0.8c0-0.5,0.4-0.8,0.8-0.8h34.5c0.5,0,0.8,0.4,0.8,0.8S49.7,27,49.3,27z"
				/>
		</g>
	</g>
	<g>
		<g>
			<path class="st1" d="M40.1,34.3H24c-0.5,0-0.8-0.4-0.8-0.8s0.4-0.8,0.8-0.8h16.1c0.5,0,0.8,0.4,0.8,0.8S40.5,34.3,40.1,34.3z"/>
		</g>
	</g>
	<g>
		<path class="st1" d="M3.9,26.3c-0.2,0-0.3-0.1-0.5-0.2C3,25.9,3,25.4,3.2,25c0.5-0.7,1.4-1.9,2.6-3.3c0.3-0.4,0.8-0.4,1.2-0.1
			c0.4,0.3,0.4,0.8,0.1,1.2C5.9,24.2,5,25.4,4.6,26C4.4,26.2,4.2,26.3,3.9,26.3z"/>
	</g>
	<g>
		<path class="st1" d="M60.1,26.3c-0.3,0-0.5-0.1-0.7-0.3c-0.3-0.4-2.1-2.7-2.8-3.6c-0.3-0.4-0.3-0.9,0.1-1.2
			c0.4-0.3,0.9-0.3,1.2,0.1c0.7,0.9,2.6,3.3,2.9,3.7c0.3,0.4,0.2,0.9-0.2,1.2C60.4,26.3,60.3,26.3,60.1,26.3z"/>
	</g>
</g>
</svg>
