<?xml version="1.0" encoding="utf-8"?>
<!-- Generator: Adobe Illustrator 19.2.1, SVG Export Plug-In . SVG Version: 6.00 Build 0)  -->
<svg version="1.1" id="Layer_1" xmlns="http://www.w3.org/2000/svg" xmlns:xlink="http://www.w3.org/1999/xlink" x="0px" y="0px"
	 viewBox="0 0 64 64" style="enable-background:new 0 0 64 64;" xml:space="preserve">
<metadata><?xpacket begin="﻿" id="W5M0MpCehiHzreSzNTczkc9d"?>
<x:xmpmeta xmlns:x="adobe:ns:meta/" x:xmptk="Adobe XMP Core 5.6-c111 79.158366, 2015/09/25-01:12:00        ">
   <rdf:RDF xmlns:rdf="http://www.w3.org/1999/02/22-rdf-syntax-ns#">
      <rdf:Description rdf:about=""/>
   </rdf:RDF>
</x:xmpmeta>
                                                                                                    
                                                                                                    
                                                                                                    
                                                                                                    
                                                                                                    
                                                                                                    
                                                                                                    
                                                                                                    
                                                                                                    
                                                                                                    
                                                                                                    
                                                                                                    
                                                                                                    
                                                                                                    
                                                                                                    
                                                                                                    
                                                                                                    
                                                                                                    
                                                                                                    
                                                                                                    
                           
<?xpacket end="w"?></metadata>
<style type="text/css">
	.st0{fill:none;}
	.st1{fill:#5B554D;}
</style>
<rect class="st0" width="64" height="64"/>
<g>
	<g>
		<path class="st1" d="M44.7,49.3h-42c-0.9,0-1.7-0.7-1.7-1.6V13.3c0-0.1,0-0.2,0-0.3s0-0.2,0.1-0.2c0-0.1,0.1-0.2,0.2-0.3
			c0,0,0.1-0.1,0.2-0.2c0.1-0.1,0.2-0.2,0.3-0.2L1.9,12C2,12,2,11.9,2.1,11.9s0.2-0.1,0.3-0.1s0.2,0,0.3-0.1c0.1,0,0.1,0,0.1,0h53.4
			c0.1,0,0.2,0,0.2,0s0.1,0,0.2,0c0.1,0,0.2,0.1,0.3,0.1s0.1,0,0.1,0c0.1,0.1,0.2,0.1,0.2,0.1s0.1,0.1,0.2,0.2c0,0,0.1,0.1,0.2,0.2
			c0.1,0.1,0.1,0.2,0.2,0.3c0,0.1,0.1,0.2,0.1,0.3s0,0.1,0,0.2v20c0,0.4-0.3,0.7-0.7,0.7s-0.7-0.3-0.7-0.7V13.4v-0.1
			c0,0-0.1,0-0.1-0.1h-0.1H3H2.9c0,0-0.1,0-0.2,0l0,0c0,0,0,0.1-0.1,0.2v34.3c0,0,0.1,0.1,0.2,0.1h42c0.4,0,0.7,0.3,0.7,0.7
			S45.1,49.3,44.7,49.3z M56.4,13.3L56.4,13.3L56.4,13.3z M56.2,13.3L56.2,13.3C56.3,13.3,56.3,13.3,56.2,13.3
			C56.3,13.3,56.3,13.3,56.2,13.3C56.3,13.3,56.3,13.3,56.2,13.3z M2.7,13.2L2.7,13.2L2.7,13.2z"/>
	</g>
	<g>
		<path class="st1" d="M2.5,49.3c-0.1,0-0.2,0-0.4-0.1c-0.4-0.2-0.5-0.6-0.3-1c2-3.6,7.6-12.9,15.3-20.3c0.3-0.3,0.8-0.3,1,0
			c0.3,0.3,0.3,0.8,0,1c-7.6,7.3-13,16.4-15,20C3,49.1,2.7,49.3,2.5,49.3z"/>
	</g>
	<g>
		<path class="st1" d="M29.4,34.5c-0.1,0-0.2,0-0.2,0C17.5,30.7,7.2,19.4,2,13c-0.3-0.3-0.2-0.8,0.1-1c0.3-0.3,0.8-0.2,1,0.1
			c5,6.2,15,17.2,26.2,20.9c11.2-3.7,21.2-14.7,26.2-20.9c0.3-0.3,0.7-0.4,1-0.1c0.3,0.3,0.4,0.7,0.1,1
			C51.5,19.4,41.1,30.7,29.4,34.5C29.5,34.5,29.5,34.5,29.4,34.5z"/>
	</g>
	<g>
		<path class="st1" d="M47.6,36.3c-0.2,0-0.4-0.1-0.6-0.3c-2.1-2.6-4.2-5-6.4-7.1c-0.3-0.3-0.3-0.8,0-1c0.3-0.3,0.8-0.3,1,0
			c2.2,2.1,4.4,4.6,6.5,7.2c0.3,0.3,0.2,0.8-0.1,1C47.9,36.2,47.8,36.3,47.6,36.3z"/>
	</g>
	<g>
		<g>
			<path class="st1" d="M54.3,52.2c-4.8,0-8.7-3.9-8.7-8.7s3.9-8.7,8.7-8.7s8.7,3.9,8.7,8.7S59.1,52.2,54.3,52.2z M54.3,36.3
				c-4,0-7.3,3.3-7.3,7.2c0,4,3.3,7.2,7.3,7.2s7.3-3.3,7.3-7.2C61.5,39.5,58.3,36.3,54.3,36.3z"/>
		</g>
		<g>
			<g>
				<path class="st1" d="M57.7,44.3h-6.9c-0.4,0-0.7-0.3-0.7-0.7s0.3-0.7,0.7-0.7h6.9c0.4,0,0.7,0.3,0.7,0.7S58.1,44.3,57.7,44.3z"
					/>
			</g>
			<g>
				<path class="st1" d="M54.3,47.7c-0.4,0-0.7-0.3-0.7-0.7v-6.9c0-0.4,0.3-0.7,0.7-0.7s0.7,0.3,0.7,0.7V47
					C55,47.4,54.7,47.7,54.3,47.7z"/>
			</g>
		</g>
	</g>
</g>
</svg>
