<?xml version="1.0" encoding="utf-8"?>
<!-- Generator: Adobe Illustrator 19.2.1, SVG Export Plug-In . SVG Version: 6.00 Build 0)  -->
<svg version="1.1" id="Layer_1" xmlns="http://www.w3.org/2000/svg" xmlns:xlink="http://www.w3.org/1999/xlink" x="0px" y="0px"
	 viewBox="0 0 64 64" style="enable-background:new 0 0 64 64;" xml:space="preserve">
<metadata><?xpacket begin="﻿" id="W5M0MpCehiHzreSzNTczkc9d"?>
<x:xmpmeta xmlns:x="adobe:ns:meta/" x:xmptk="Adobe XMP Core 5.6-c111 79.158366, 2015/09/25-01:12:00        ">
   <rdf:RDF xmlns:rdf="http://www.w3.org/1999/02/22-rdf-syntax-ns#">
      <rdf:Description rdf:about=""/>
   </rdf:RDF>
</x:xmpmeta>
                                                                                                    
                                                                                                    
                                                                                                    
                                                                                                    
                                                                                                    
                                                                                                    
                                                                                                    
                                                                                                    
                                                                                                    
                                                                                                    
                                                                                                    
                                                                                                    
                                                                                                    
                                                                                                    
                                                                                                    
                                                                                                    
                                                                                                    
                                                                                                    
                                                                                                    
                                                                                                    
                           
<?xpacket end="w"?></metadata>
<style type="text/css">
	.st0{fill:none;}
	.st1{fill:#5B554D;}
</style>
<rect class="st0" width="64" height="64"/>
<g>
	<g>
		<g>
			<path class="st1" d="M61.1,52.5H2.9c-1,0-1.9-0.8-1.9-1.7V13.2c0-0.1,0-0.2,0-0.3s0-0.2,0.1-0.3s0.1-0.2,0.2-0.4
				c0,0,0.1-0.1,0.2-0.3c0.1-0.1,0.2-0.2,0.3-0.2l0.1-0.1c0.1,0,0.1-0.1,0.2-0.1s0.2-0.1,0.3-0.1s0.2-0.1,0.3-0.1s0.1,0,0.1,0h58.3
				c0.1,0,0.2,0,0.2,0s0.1,0,0.2,0c0.1,0,0.2,0.1,0.3,0.1s0.1,0,0.1,0c0.1,0.1,0.2,0.1,0.2,0.2c0,0,0.1,0.1,0.3,0.2
				c0.1,0,0.1,0.1,0.2,0.3c0.1,0.1,0.1,0.2,0.2,0.3c0,0.1,0.1,0.2,0.1,0.3s0,0.2,0,0.3v37.6C63,51.7,62.2,52.5,61.1,52.5z M2.6,13.4
				v37.4c0,0,0.1,0.1,0.3,0.1h58.3c0.2,0,0.3-0.1,0.3-0.1V13.3c0,0,0,0,0-0.1l0,0l0,0c0,0,0,0-0.1-0.1h-0.1h-0.1H3H2.9
				c0,0-0.1,0-0.2,0l0,0C2.7,13.2,2.6,13.3,2.6,13.4z M2.8,13.1L2.8,13.1L2.8,13.1z"/>
		</g>
	</g>
	<g>
		<path class="st1" d="M2.6,52.5c-0.1,0-0.3,0-0.4-0.1c-0.4-0.2-0.5-0.7-0.3-1.1c2.2-4,8.3-14.1,16.7-22.2c0.3-0.3,0.8-0.3,1.1,0
			c0.3,0.3,0.3,0.8,0,1.1C11.5,38.2,5.5,48.1,3.3,52C3.2,52.3,2.9,52.5,2.6,52.5z"/>
	</g>
	<g>
		<path class="st1" d="M32,36.3c-0.1,0-0.2,0-0.2,0C19,32.2,7.7,19.9,2.1,12.9c-0.3-0.3-0.2-0.9,0.1-1.1c0.3-0.3,0.9-0.2,1.1,0.1
			C8.8,18.7,19.7,30.6,32,34.7c12.2-4,23.2-16,28.6-22.9c0.3-0.3,0.8-0.4,1.1-0.1c0.3,0.3,0.4,0.8,0.1,1.1
			C56.2,19.8,44.9,32.2,32,36.3C32.2,36.3,32.1,36.3,32,36.3z"/>
	</g>
	<g>
		<path class="st1" d="M61.4,52.5c-0.3,0-0.6-0.1-0.7-0.4c-2.2-3.9-8.1-13.9-16.3-21.9c-0.3-0.3-0.3-0.8,0-1.1
			c0.3-0.3,0.8-0.3,1.1,0c8.4,8.1,14.4,18.3,16.6,22.2c0.2,0.4,0.1,0.9-0.3,1.1C61.6,52.4,61.5,52.5,61.4,52.5z"/>
	</g>
</g>
</svg>
