<?xml version="1.0" encoding="utf-8"?>
<!-- Generator: Adobe Illustrator 19.2.1, SVG Export Plug-In . SVG Version: 6.00 Build 0)  -->
<svg version="1.1" id="Layer_1" xmlns="http://www.w3.org/2000/svg" xmlns:xlink="http://www.w3.org/1999/xlink" x="0px" y="0px"
	 viewBox="0 0 64 64" style="enable-background:new 0 0 64 64;" xml:space="preserve">
<metadata><?xpacket begin="﻿" id="W5M0MpCehiHzreSzNTczkc9d"?>
<x:xmpmeta xmlns:x="adobe:ns:meta/" x:xmptk="Adobe XMP Core 5.6-c111 79.158366, 2015/09/25-01:12:00        ">
   <rdf:RDF xmlns:rdf="http://www.w3.org/1999/02/22-rdf-syntax-ns#">
      <rdf:Description rdf:about=""/>
   </rdf:RDF>
</x:xmpmeta>
                                                                                                    
                                                                                                    
                                                                                                    
                                                                                                    
                                                                                                    
                                                                                                    
                                                                                                    
                                                                                                    
                                                                                                    
                                                                                                    
                                                                                                    
                                                                                                    
                                                                                                    
                                                                                                    
                                                                                                    
                                                                                                    
                                                                                                    
                                                                                                    
                                                                                                    
                                                                                                    
                           
<?xpacket end="w"?></metadata>
<style type="text/css">
	.st0{fill:none;}
	.st1{fill:#5B554D;}
</style>
<rect class="st0" width="64" height="64"/>
<g>
	<g>
		<path class="st1" d="M60.7,59.3H53c-1.3,0-2.3-1-2.3-2.3v-7.6c0-1.3,1-2.3,2.3-2.3h7.6c1.3,0,2.3,1,2.3,2.3v7.6
			C63,58.2,62,59.3,60.7,59.3z M53,49c-0.2,0-0.4,0.2-0.4,0.4v7.6c0,0.2,0.2,0.4,0.4,0.4h7.6c0.2,0,0.4-0.2,0.4-0.4v-7.6
			c0-0.2-0.2-0.4-0.4-0.4H53z M60.7,45.2H53c-1.3,0-2.3-1-2.3-2.3v-7.6c0-1.3,1-2.3,2.3-2.3h7.6c1.3,0,2.3,1,2.3,2.3v7.6
			C63,44.1,62,45.2,60.7,45.2z M53,34.8c-0.2,0-0.4,0.2-0.4,0.4v7.6c0,0.2,0.2,0.4,0.4,0.4h7.6c0.2,0,0.4-0.2,0.4-0.4v-7.6
			c0-0.2-0.2-0.4-0.4-0.4H53z M60.7,31.1H53c-1.3,0-2.3-1-2.3-2.3v-7.4c0-1.3,1-2.3,2.3-2.3h7.6c1.3,0,2.3,1,2.3,2.3v7.4
			C63,30.1,62,31.1,60.7,31.1z M53,21.1c-0.2,0-0.4,0.1-0.4,0.3v7.4c0,0.2,0.2,0.3,0.4,0.3h7.6c0.2,0,0.4-0.1,0.4-0.3v-7.4
			c0-0.2-0.2-0.3-0.4-0.3H53z"/>
	</g>
	<g>
		<path class="st1" d="M43.8,59.3h-7.6c-1.3,0-2.3-1-2.3-2.3v-7.7c0-1.3,1-2.3,2.3-2.3h7.6c1.3,0,2.3,1,2.3,2.3v7.7
			C46.1,58.2,45.1,59.3,43.8,59.3z M36.2,48.9c-0.2,0-0.4,0.2-0.4,0.4v7.7c0,0.2,0.2,0.4,0.4,0.4h7.6c0.2,0,0.4-0.2,0.4-0.4v-7.7
			c0-0.2-0.2-0.4-0.4-0.4H36.2z M43.8,45.2h-7.6c-1.3,0-2.3-1-2.3-2.3v-7.6c0-1.3,1-2.3,2.3-2.3h7.6c1.3,0,2.3,1,2.3,2.3v7.6
			C46.1,44.1,45.1,45.2,43.8,45.2z M36.2,34.9c-0.2,0-0.4,0.2-0.4,0.4v7.6c0,0.2,0.2,0.4,0.4,0.4h7.6c0.2,0,0.4-0.2,0.4-0.4v-7.6
			c0-0.2-0.2-0.4-0.4-0.4H36.2z M43.8,30.9h-7.6c-1.3,0-2.3-1-2.3-2.3v-7.5c0-1.3,1-2.3,2.3-2.3h7.6c1.3,0,2.3,1,2.3,2.3v7.5
			C46.1,29.8,45.1,30.9,43.8,30.9z M36.2,20.8c-0.2,0-0.4,0.1-0.4,0.3v7.5c0,0.2,0.2,0.3,0.4,0.3h7.6c0.2,0,0.4-0.1,0.4-0.3v-7.5
			c0-0.2-0.2-0.3-0.4-0.3H36.2z M43.8,17.1h-7.6c-1.3,0-2.3-1-2.3-2.3V7.1c0-1.3,1-2.3,2.3-2.3h7.6c1.3,0,2.3,1,2.3,2.3v7.7
			C46.1,16,45.1,17.1,43.8,17.1z M36.2,6.7c-0.2,0-0.4,0.2-0.4,0.4v7.7c0,0.2,0.2,0.4,0.4,0.4h7.6c0.2,0,0.4-0.2,0.4-0.4V7.1
			c0-0.2-0.2-0.4-0.4-0.4H36.2z"/>
	</g>
	<g>
		<path class="st1" d="M27.8,59.3h-7.6c-1.3,0-2.3-1-2.3-2.3v-7.6c0-1.3,1-2.3,2.3-2.3h7.6c1.3,0,2.3,1,2.3,2.3v7.6
			C30.2,58.2,29.1,59.3,27.8,59.3z M20.2,48.9c-0.2,0-0.4,0.2-0.4,0.4v7.6c0,0.2,0.2,0.4,0.4,0.4h7.6c0.2,0,0.4-0.2,0.4-0.4v-7.6
			c0-0.2-0.2-0.4-0.4-0.4H20.2z M27.8,45.2h-7.6c-1.3,0-2.3-1-2.3-2.3v-7.6c0-1.3,1-2.3,2.3-2.3h7.6c1.3,0,2.3,1,2.3,2.3v7.6
			C30.2,44.1,29.1,45.2,27.8,45.2z M20.2,34.9c-0.2,0-0.4,0.2-0.4,0.4v7.6c0,0.2,0.2,0.4,0.4,0.4h7.6c0.2,0,0.4-0.2,0.4-0.4v-7.6
			c0-0.2-0.2-0.4-0.4-0.4H20.2z"/>
	</g>
	<g>
		<path class="st1" d="M10.9,59.3H3.3c-1.3,0-2.3-1-2.3-2.3v-7.7c0-1.3,1-2.3,2.3-2.3h7.6c1.3,0,2.3,1,2.3,2.3v7.7
			C13.3,58.2,12.2,59.3,10.9,59.3z M3.3,48.9C3.1,48.9,3,49,3,49.3v7.7c0,0.2,0.2,0.4,0.4,0.4h7.6c0.2,0,0.4-0.2,0.4-0.4v-7.7
			c0-0.2-0.2-0.4-0.4-0.4H3.3z M10.9,45.2H3.3c-1.3,0-2.3-1-2.3-2.3v-7.6c0-1.3,1-2.3,2.3-2.3h7.6c1.3,0,2.3,1,2.3,2.3v7.6
			C13.3,44.1,12.2,45.2,10.9,45.2z M3.3,34.9C3.1,34.9,3,35,3,35.2v7.6c0,0.2,0.2,0.4,0.4,0.4h7.6c0.2,0,0.4-0.2,0.4-0.4v-7.6
			c0-0.2-0.2-0.4-0.4-0.4H3.3z M10.9,31.1H3.3c-1.3,0-2.3-1-2.3-2.3v-7.6c0-1.3,1-2.3,2.3-2.3h7.6c1.3,0,2.3,1,2.3,2.3v7.6
			C13.3,30.1,12.2,31.1,10.9,31.1z M3.3,20.8c-0.2,0-0.4,0.2-0.4,0.4v7.6c0,0.2,0.2,0.4,0.4,0.4h7.6c0.2,0,0.4-0.2,0.4-0.4v-7.6
			c0-0.2-0.2-0.4-0.4-0.4H3.3z M10.9,17.1H3.3C2,17.1,1,16,1,14.7V7.1c0-1.3,1-2.3,2.3-2.3h7.6c1.3,0,2.3,1,2.3,2.3v7.7
			C13.3,16,12.2,17.1,10.9,17.1z M3.3,6.7C3.1,6.7,3,6.9,3,7.1v7.7c0,0.2,0.2,0.4,0.4,0.4h7.6c0.2,0,0.4-0.2,0.4-0.4V7.1
			c0-0.2-0.2-0.4-0.4-0.4H3.3z"/>
	</g>
</g>
</svg>
