<?xml version="1.0" encoding="utf-8"?>
<!-- Generator: Adobe Illustrator 19.2.1, SVG Export Plug-In . SVG Version: 6.00 Build 0)  -->
<svg version="1.1" id="Layer_1" xmlns="http://www.w3.org/2000/svg" xmlns:xlink="http://www.w3.org/1999/xlink" x="0px" y="0px"
	 viewBox="0 0 64 64" style="enable-background:new 0 0 64 64;" xml:space="preserve">
<metadata><?xpacket begin="﻿" id="W5M0MpCehiHzreSzNTczkc9d"?>
<x:xmpmeta xmlns:x="adobe:ns:meta/" x:xmptk="Adobe XMP Core 5.6-c111 79.158366, 2015/09/25-01:12:00        ">
   <rdf:RDF xmlns:rdf="http://www.w3.org/1999/02/22-rdf-syntax-ns#">
      <rdf:Description rdf:about=""/>
   </rdf:RDF>
</x:xmpmeta>
                                                                                                    
                                                                                                    
                                                                                                    
                                                                                                    
                                                                                                    
                                                                                                    
                                                                                                    
                                                                                                    
                                                                                                    
                                                                                                    
                                                                                                    
                                                                                                    
                                                                                                    
                                                                                                    
                                                                                                    
                                                                                                    
                                                                                                    
                                                                                                    
                                                                                                    
                                                                                                    
                           
<?xpacket end="w"?></metadata>
<style type="text/css">
	.st0{fill:none;}
	.st1{fill:#5B554D;}
</style>
<rect class="st0" width="64" height="64"/>
<g>
	<g>
		<g>
			<path class="st1" d="M18.2,39.6H1.9c-0.5,0-0.9-0.4-0.9-0.9s0.4-0.9,0.9-0.9h16.3c0.5,0,0.9,0.4,0.9,0.9S18.7,39.6,18.2,39.6z"/>
		</g>
	</g>
	<g>
		<path class="st1" d="M10,35.9c-0.5,0-0.9-0.4-0.9-0.9V5.9C9.2,5.4,9.6,5,10,5c0.5,0,0.9,0.4,0.9,0.9V35
			C10.9,35.5,10.5,35.9,10,35.9z"/>
	</g>
	<g>
		<path class="st1" d="M10,59c-0.5,0-0.9-0.4-0.9-0.9V41.6c0-0.5,0.4-0.9,0.9-0.9c0.5,0,0.9,0.4,0.9,0.9v16.4
			C10.9,58.6,10.5,59,10,59z"/>
	</g>
	<g>
		<g>
			<path class="st1" d="M40.2,19.3H23.8c-0.5,0-0.9-0.4-0.9-0.9s0.4-0.9,0.9-0.9h16.3c0.5,0,0.9,0.4,0.9,0.9S40.7,19.3,40.2,19.3z"
				/>
		</g>
	</g>
	<g>
		<path class="st1" d="M32,15.7c-0.5,0-0.9-0.4-0.9-0.9V5.9C31.1,5.4,31.5,5,32,5c0.5,0,0.9,0.4,0.9,0.9v8.9
			C32.9,15.3,32.5,15.7,32,15.7z"/>
	</g>
	<g>
		<path class="st1" d="M32,59c-0.5,0-0.9-0.4-0.9-0.9V21.4c0-0.5,0.4-0.9,0.9-0.9c0.5,0,0.9,0.4,0.9,0.9v36.7
			C32.9,58.6,32.5,59,32,59z"/>
	</g>
	<g>
		<g>
			<path class="st1" d="M62.1,30.7H45.8c-0.5,0-0.9-0.4-0.9-0.9s0.4-0.9,0.9-0.9h16.3c0.5,0,0.9,0.4,0.9,0.9S62.6,30.7,62.1,30.7z"
				/>
		</g>
	</g>
	<g>
		<path class="st1" d="M53.9,27.1c-0.5,0-0.9-0.4-0.9-0.9V5.9C53,5.4,53.4,5,53.9,5c0.5,0,0.9,0.4,0.9,0.9v20.2
			C54.8,26.7,54.4,27.1,53.9,27.1z"/>
	</g>
	<g>
		<path class="st1" d="M53.9,59c-0.5,0-0.9-0.4-0.9-0.9V32.8c0-0.5,0.4-0.9,0.9-0.9c0.5,0,0.9,0.4,0.9,0.9v25.3
			C54.8,58.6,54.4,59,53.9,59z"/>
	</g>
</g>
</svg>
