<?xml version="1.0" encoding="utf-8"?>
<!-- Generator: Adobe Illustrator 19.2.1, SVG Export Plug-In . SVG Version: 6.00 Build 0)  -->
<svg version="1.1" id="Layer_1" xmlns="http://www.w3.org/2000/svg" xmlns:xlink="http://www.w3.org/1999/xlink" x="0px" y="0px"
	 viewBox="0 0 64 64" style="enable-background:new 0 0 64 64;" xml:space="preserve">
<metadata><?xpacket begin="﻿" id="W5M0MpCehiHzreSzNTczkc9d"?>
<x:xmpmeta xmlns:x="adobe:ns:meta/" x:xmptk="Adobe XMP Core 5.6-c111 79.158366, 2015/09/25-01:12:00        ">
   <rdf:RDF xmlns:rdf="http://www.w3.org/1999/02/22-rdf-syntax-ns#">
      <rdf:Description rdf:about=""/>
   </rdf:RDF>
</x:xmpmeta>
                                                                                                    
                                                                                                    
                                                                                                    
                                                                                                    
                                                                                                    
                                                                                                    
                                                                                                    
                                                                                                    
                                                                                                    
                                                                                                    
                                                                                                    
                                                                                                    
                                                                                                    
                                                                                                    
                                                                                                    
                                                                                                    
                                                                                                    
                                                                                                    
                                                                                                    
                                                                                                    
                           
<?xpacket end="w"?></metadata>
<style type="text/css">
	.st0{fill:none;}
	.st1{fill:#5B554D;}
</style>
<rect class="st0" width="64" height="64"/>
<g>
	<g>
		<g>
			<path class="st1" d="M32,63C14.9,63,1,49.1,1,32S14.9,1,32,1s31,13.9,31,31S49.1,63,32,63z M32,3C16,3,3,16,3,32s13,29,29,29
				s29-13,29-29S48,3,32,3z"/>
		</g>
		<g>
			<g>
				<path class="st1" d="M32,56.8C18.3,56.8,7.2,45.7,7.2,32S18.3,7.2,32,7.2s24.8,11.1,24.8,24.9C56.8,45.7,45.7,56.8,32,56.8z
					 M32,9.1C19.4,9.1,9.1,19.4,9.1,32S19.4,54.9,32,54.9S54.9,44.6,54.9,32S44.6,9.1,32,9.1z"/>
			</g>
		</g>
	</g>
	<g>
		<path class="st1" d="M38,42.9c-1.1,0.8-3,1.5-5.4,1.5c-2.9,0-5.6-1.1-7.4-3.2c-1.4-1.5-2.3-3.6-2.6-6.3h-2.3v-1.8h2.1
			c0-0.2,0-0.4,0-0.5c0-0.6,0-1.1,0.1-1.6h-2.1v-1.8h2.4c0.4-2.5,1.5-4.7,3-6.1c1.9-1.9,4.2-3,7.2-3c2.1,0,3.8,0.6,4.8,1.2L37,23.6
			c-0.9-0.5-2.4-1-4.1-1c-2,0-3.6,0.7-4.8,2c-1.1,1.1-1.8,2.7-2.2,4.6H36V31H25.7c0,0.5-0.1,1-0.1,1.5c0,0.2,0,0.4,0,0.7h10.5V35
			H25.9c0.3,2.1,1,3.7,2,4.8c1.3,1.4,3.2,2.1,5.1,2.1c1.9,0,3.6-0.7,4.4-1.2L38,42.9z"/>
	</g>
</g>
</svg>
