<?xml version="1.0" encoding="utf-8"?>
<!-- Generator: Adobe Illustrator 19.2.1, SVG Export Plug-In . SVG Version: 6.00 Build 0)  -->
<svg version="1.1" id="Layer_1" xmlns="http://www.w3.org/2000/svg" xmlns:xlink="http://www.w3.org/1999/xlink" x="0px" y="0px"
	 viewBox="0 0 64 64" style="enable-background:new 0 0 64 64;" xml:space="preserve">
<metadata><?xpacket begin="﻿" id="W5M0MpCehiHzreSzNTczkc9d"?>
<x:xmpmeta xmlns:x="adobe:ns:meta/" x:xmptk="Adobe XMP Core 5.6-c111 79.158366, 2015/09/25-01:12:00        ">
   <rdf:RDF xmlns:rdf="http://www.w3.org/1999/02/22-rdf-syntax-ns#">
      <rdf:Description rdf:about=""/>
   </rdf:RDF>
</x:xmpmeta>
                                                                                                    
                                                                                                    
                                                                                                    
                                                                                                    
                                                                                                    
                                                                                                    
                                                                                                    
                                                                                                    
                                                                                                    
                                                                                                    
                                                                                                    
                                                                                                    
                                                                                                    
                                                                                                    
                                                                                                    
                                                                                                    
                                                                                                    
                                                                                                    
                                                                                                    
                                                                                                    
                           
<?xpacket end="w"?></metadata>
<style type="text/css">
	.st0{fill:none;}
	.st1{fill:#5B554D;}
</style>
<rect class="st0" width="64" height="64"/>
<g>
	<g>
		<path class="st1" d="M32,53.3c-13.4,0-21-9.1-29.9-19.7l-0.9-1.1c-0.3-0.3-0.3-0.7,0-1.1C11.9,18.6,20.7,10.7,32,10.7
			c13.5,0,23.6,11.2,30.8,21c0.2,0.3,0.2,0.7,0,1l-0.7,0.8C55.5,41.4,45.4,53.3,32,53.3z M2.9,32l0.5,0.6C12,42.8,19.4,51.7,32,51.7
			c12.7,0,22-11.1,28.9-19.2l0.2-0.3c-7-9.4-16.6-19.9-29.1-19.9C21.5,12.3,13.3,19.5,2.9,32z"/>
	</g>
	<g>
		<path class="st1" d="M32,42.7c-5.9,0-10.7-4.8-10.7-10.7c0-5.9,4.8-10.7,10.7-10.7c5.9,0,10.7,4.8,10.7,10.7
			C42.7,37.9,37.9,42.7,32,42.7z M32,22.9c-5,0-9.1,4.1-9.1,9.1c0,5,4.1,9.1,9.1,9.1c5,0,9.1-4.1,9.1-9.1C41,27,37,22.9,32,22.9z"/>
	</g>
	<circle class="st1" cx="32" cy="32" r="4.5"/>
</g>
</svg>
