<?xml version="1.0" encoding="utf-8"?>
<!-- Generator: Adobe Illustrator 19.2.1, SVG Export Plug-In . SVG Version: 6.00 Build 0)  -->
<svg version="1.1" id="Layer_1" xmlns="http://www.w3.org/2000/svg" xmlns:xlink="http://www.w3.org/1999/xlink" x="0px" y="0px"
	 viewBox="0 0 64 64" style="enable-background:new 0 0 64 64;" xml:space="preserve">
<metadata><?xpacket begin="﻿" id="W5M0MpCehiHzreSzNTczkc9d"?>
<x:xmpmeta xmlns:x="adobe:ns:meta/" x:xmptk="Adobe XMP Core 5.6-c111 79.158366, 2015/09/25-01:12:00        ">
   <rdf:RDF xmlns:rdf="http://www.w3.org/1999/02/22-rdf-syntax-ns#">
      <rdf:Description rdf:about=""/>
   </rdf:RDF>
</x:xmpmeta>
                                                                                                    
                                                                                                    
                                                                                                    
                                                                                                    
                                                                                                    
                                                                                                    
                                                                                                    
                                                                                                    
                                                                                                    
                                                                                                    
                                                                                                    
                                                                                                    
                                                                                                    
                                                                                                    
                                                                                                    
                                                                                                    
                                                                                                    
                                                                                                    
                                                                                                    
                                                                                                    
                           
<?xpacket end="w"?></metadata>
<style type="text/css">
	.st0{fill:none;}
	.st1{fill:#5C564E;}
</style>
<rect class="st0" width="64" height="64"/>
<g>
	<g>
		<g>
			<g>
				<g>
					<g>
						<g>
							<g>
								<path class="st1" d="M38.6,60.8H8.9c-1.6,0-2.9-1.3-2.9-2.9v-47c0-1.6,1.3-2.9,2.9-2.9h21.2c0.2,0,0.4,0.1,0.5,0.2
									l14.9,15.7c0.1,0.1,0.2,0.3,0.2,0.5v17c0,0.4-0.3,0.7-0.7,0.7c-0.4,0-0.7-0.3-0.7-0.7V24.5L29.9,9.3H8.9
									c-0.8,0-1.5,0.7-1.5,1.5v47c0,0.8,0.7,1.5,1.5,1.5h29.7c0.4,0,0.7,0.3,0.7,0.7C39.3,60.5,39,60.8,38.6,60.8z"/>
							</g>
						</g>
					</g>
					<g>
						<g>
							<path class="st1" d="M44.6,25.3h-9.6c-2.8,0-5.9-2.1-5.9-5.1L28.9,8.9c0-0.4,0.3-0.7,0.7-0.7c0,0,0,0,0,0
								c0.4,0,0.7,0.3,0.7,0.7l0.1,11.3c0,2.1,2.4,3.7,4.6,3.7h9.6c0.4,0,0.7,0.3,0.7,0.7C45.3,25,45,25.3,44.6,25.3z"/>
						</g>
					</g>
				</g>
			</g>
		</g>
		<g>
			<g>
				<g>
					<g>
						<g>
							<g>
								<path class="st1" d="M57.3,47c-0.4,0-0.7-0.3-0.7-0.7V17.6L42.1,2.4H21.2c-0.8,0-1.5,0.7-1.5,1.5v2.3c0,0.4-0.3,0.7-0.7,0.7
									c-0.4,0-0.7-0.3-0.7-0.7V3.9c0-1.6,1.3-2.9,2.9-2.9h21.2c0.2,0,0.4,0.1,0.5,0.2l14.9,15.7c0.1,0.1,0.2,0.3,0.2,0.5v29
									C58,46.7,57.7,47,57.3,47z"/>
							</g>
						</g>
					</g>
					<g>
						<g>
							<path class="st1" d="M56.8,18.4h-9.6c-2.8,0-5.9-2.1-5.9-5.1L41.2,2c0-0.4,0.3-0.7,0.7-0.7c0,0,0,0,0,0
								c0.4,0,0.7,0.3,0.7,0.7l0.1,11.3c0,2.1,2.4,3.7,4.6,3.7h9.6c0.4,0,0.7,0.3,0.7,0.7S57.2,18.4,56.8,18.4z"/>
						</g>
					</g>
				</g>
			</g>
		</g>
	</g>
	<g>
		<g>
			<path class="st1" d="M24.9,17.2H13.5c-0.4,0-0.7-0.3-0.7-0.7c0-0.4,0.3-0.7,0.7-0.7h11.4c0.4,0,0.7,0.3,0.7,0.7
				C25.6,16.9,25.2,17.2,24.9,17.2z"/>
		</g>
		<g>
			<path class="st1" d="M24.9,26.3H13.5c-0.4,0-0.7-0.3-0.7-0.7c0-0.4,0.3-0.7,0.7-0.7h11.4c0.4,0,0.7,0.3,0.7,0.7
				C25.6,26,25.2,26.3,24.9,26.3z"/>
		</g>
		<g>
			<path class="st1" d="M38.3,35.5H13.5c-0.4,0-0.7-0.3-0.7-0.7c0-0.4,0.3-0.7,0.7-0.7h24.8c0.4,0,0.7,0.3,0.7,0.7
				C39,35.1,38.7,35.5,38.3,35.5z"/>
		</g>
		<g>
			<path class="st1" d="M38.3,44.6H13.5c-0.4,0-0.7-0.3-0.7-0.7c0-0.4,0.3-0.7,0.7-0.7h24.8c0.4,0,0.7,0.3,0.7,0.7
				C39,44.2,38.7,44.6,38.3,44.6z"/>
		</g>
		<g>
			<path class="st1" d="M34.5,53.7h-21c-0.4,0-0.7-0.3-0.7-0.7c0-0.4,0.3-0.7,0.7-0.7h21c0.4,0,0.7,0.3,0.7,0.7
				C35.2,53.4,34.9,53.7,34.5,53.7z"/>
		</g>
	</g>
	<g>
		<g>
			<g>
				<g>
					<path class="st1" d="M48.2,63c-5.4,0-9.7-4.4-9.7-9.7s4.4-9.7,9.7-9.7c5.4,0,9.7,4.4,9.7,9.7S53.6,63,48.2,63z M48.2,44.9
						c-4.6,0-8.4,3.7-8.4,8.3s3.8,8.3,8.4,8.3c4.6,0,8.4-3.7,8.4-8.3S52.8,44.9,48.2,44.9z"/>
				</g>
			</g>
		</g>
		<g>
			<path class="st1" d="M48.1,57.6c-0.4,0-0.7-0.3-0.7-0.7v-7.5c0-0.4,0.3-0.7,0.7-0.7c0.4,0,0.7,0.3,0.7,0.7v7.5
				C48.8,57.3,48.5,57.6,48.1,57.6z"/>
		</g>
		<g>
			<path class="st1" d="M51.9,53.8h-7.5c-0.4,0-0.7-0.3-0.7-0.7s0.3-0.7,0.7-0.7h7.5c0.4,0,0.7,0.3,0.7,0.7S52.2,53.8,51.9,53.8z"/>
		</g>
	</g>
</g>
</svg>
