<?xml version="1.0" encoding="utf-8"?>
<!-- Generator: Adobe Illustrator 19.2.1, SVG Export Plug-In . SVG Version: 6.00 Build 0)  -->
<svg version="1.1" id="Layer_1" xmlns="http://www.w3.org/2000/svg" xmlns:xlink="http://www.w3.org/1999/xlink" x="0px" y="0px"
	 viewBox="0 0 64 64" style="enable-background:new 0 0 64 64;" xml:space="preserve">
<metadata><?xpacket begin="﻿" id="W5M0MpCehiHzreSzNTczkc9d"?>
<x:xmpmeta xmlns:x="adobe:ns:meta/" x:xmptk="Adobe XMP Core 5.6-c111 79.158366, 2015/09/25-01:12:00        ">
   <rdf:RDF xmlns:rdf="http://www.w3.org/1999/02/22-rdf-syntax-ns#">
      <rdf:Description rdf:about=""/>
   </rdf:RDF>
</x:xmpmeta>
                                                                                                    
                                                                                                    
                                                                                                    
                                                                                                    
                                                                                                    
                                                                                                    
                                                                                                    
                                                                                                    
                                                                                                    
                                                                                                    
                                                                                                    
                                                                                                    
                                                                                                    
                                                                                                    
                                                                                                    
                                                                                                    
                                                                                                    
                                                                                                    
                                                                                                    
                                                                                                    
                           
<?xpacket end="w"?></metadata>
<style type="text/css">
	.st0{fill:none;}
	.st1{fill:#5C564E;}
</style>
<rect class="st0" width="64" height="64"/>
<g>
	<g>
		<g>
			<g>
				<g>
					<g>
						<g>
							<g>
								<path class="st1" d="M38.7,61.2H8.7c-1.6,0-2.9-1.3-2.9-2.9V10.9C5.8,9.3,7.1,8,8.7,8h21.4c0.2,0,0.4,0.1,0.5,0.2l15,15.8
									c0.1,0.1,0.2,0.3,0.2,0.5v17.1c0,0.4-0.3,0.7-0.7,0.7s-0.7-0.3-0.7-0.7V24.7L29.8,9.4H8.7c-0.9,0-1.5,0.7-1.5,1.5v47.4
									c0,0.8,0.7,1.5,1.5,1.5h29.9c0.4,0,0.7,0.3,0.7,0.7S39.1,61.2,38.7,61.2z"/>
							</g>
						</g>
					</g>
					<g>
						<g>
							<path class="st1" d="M44.7,25.5H35c-2.8,0-6-2.1-6-5.1L28.9,9c0-0.4,0.3-0.7,0.7-0.7c0,0,0,0,0,0c0.4,0,0.7,0.3,0.7,0.7
								l0.1,11.4c0,2.1,2.4,3.7,4.6,3.7h9.7c0.4,0,0.7,0.3,0.7,0.7S45.1,25.5,44.7,25.5z"/>
						</g>
					</g>
				</g>
			</g>
		</g>
		<g>
			<g>
				<g>
					<g>
						<g>
							<g>
								<path class="st1" d="M57.5,47.3c-0.4,0-0.7-0.3-0.7-0.7V17.7L42.2,2.4H21.1c-0.9,0-1.5,0.7-1.5,1.5v2c0,0.4-0.3,0.7-0.7,0.7
									c-0.4,0-0.7-0.3-0.7-0.7v-2c0-1.6,1.3-2.9,2.9-2.9h21.4c0.2,0,0.4,0.1,0.5,0.2L58,17c0.1,0.1,0.2,0.3,0.2,0.5v29.2
									C58.2,47,57.9,47.3,57.5,47.3z"/>
							</g>
						</g>
					</g>
					<g>
						<g>
							<path class="st1" d="M57,18.5h-9.7c-2.8,0-6-2.1-6-5.1L41.3,2c0-0.4,0.3-0.7,0.7-0.7c0,0,0,0,0,0c0.4,0,0.7,0.3,0.7,0.7
								l0.1,11.4c0,2.1,2.4,3.7,4.6,3.7H57c0.4,0,0.7,0.3,0.7,0.7S57.4,18.5,57,18.5z"/>
						</g>
					</g>
				</g>
			</g>
		</g>
	</g>
	<g>
		<g>
			<g>
				<g>
					<path class="st1" d="M47.8,63c-5.4,0-9.8-4.4-9.8-9.8s4.4-9.8,9.8-9.8c5.4,0,9.8,4.4,9.8,9.8S53.2,63,47.8,63z M47.8,44.8
						c-4.6,0-8.4,3.8-8.4,8.4s3.8,8.4,8.4,8.4c4.6,0,8.4-3.8,8.4-8.4S52.4,44.8,47.8,44.8z"/>
				</g>
			</g>
		</g>
		<g>
			<path class="st1" d="M47.7,57.5c-0.4,0-0.7-0.3-0.7-0.7v-7.5c0-0.4,0.3-0.7,0.7-0.7s0.7,0.3,0.7,0.7v7.5
				C48.4,57.2,48.1,57.5,47.7,57.5z"/>
		</g>
		<g>
			<path class="st1" d="M51.5,53.8h-7.5c-0.4,0-0.7-0.3-0.7-0.7s0.3-0.7,0.7-0.7h7.5c0.4,0,0.7,0.3,0.7,0.7S51.9,53.8,51.5,53.8z"/>
		</g>
	</g>
</g>
</svg>
