<?xml version="1.0" encoding="utf-8"?>
<!-- Generator: Adobe Illustrator 19.2.1, SVG Export Plug-In . SVG Version: 6.00 Build 0)  -->
<svg version="1.1" id="Layer_1" xmlns="http://www.w3.org/2000/svg" xmlns:xlink="http://www.w3.org/1999/xlink" x="0px" y="0px"
	 viewBox="0 0 64 64" style="enable-background:new 0 0 64 64;" xml:space="preserve">
<style type="text/css">
	.st0{fill:#5C564E;}
</style>
<g>
	<g>
		<g>
			<g>
				<path class="st0" d="M51.9,63H12.1c-1.8,0-3.3-1.5-3.3-3.3V4.3c0-1.8,1.5-3.3,3.3-3.3h25c0.2,0,0.4,0.1,0.5,0.2l17.5,18.4
					c0.1,0.1,0.2,0.3,0.2,0.5v39.5C55.3,61.5,53.8,63,51.9,63z M12.1,2.5c-1,0-1.9,0.8-1.9,1.9v55.3c0,1,0.8,1.9,1.9,1.9h39.9
					c1,0,1.9-0.8,1.9-1.9V20.4l-17.1-18H12.1z"/>
			</g>
		</g>
	</g>
	<g>
		<g>
			<path class="st0" d="M54,21.3H42.7c-3.3,0-6.9-2.4-6.9-5.9L35.7,2.1c0-0.4,0.3-0.7,0.7-0.7c0,0,0,0,0,0c0.4,0,0.7,0.3,0.7,0.7
				l0.1,13.3c0,2.5,2.9,4.4,5.5,4.4H54c0.4,0,0.7,0.3,0.7,0.7C54.7,21,54.4,21.3,54,21.3z"/>
		</g>
	</g>
</g>
</svg>
