<?xml version="1.0" encoding="utf-8"?>
<!-- Generator: Adobe Illustrator 19.2.1, SVG Export Plug-In . SVG Version: 6.00 Build 0)  -->
<svg version="1.1" id="Layer_1" xmlns="http://www.w3.org/2000/svg" xmlns:xlink="http://www.w3.org/1999/xlink" x="0px" y="0px"
	 viewBox="0 0 64 64" style="enable-background:new 0 0 64 64;" xml:space="preserve">
<metadata><?xpacket begin="﻿" id="W5M0MpCehiHzreSzNTczkc9d"?>
<x:xmpmeta xmlns:x="adobe:ns:meta/" x:xmptk="Adobe XMP Core 5.6-c111 79.158366, 2015/09/25-01:12:00        ">
   <rdf:RDF xmlns:rdf="http://www.w3.org/1999/02/22-rdf-syntax-ns#">
      <rdf:Description rdf:about=""/>
   </rdf:RDF>
</x:xmpmeta>
                                                                                                    
                                                                                                    
                                                                                                    
                                                                                                    
                                                                                                    
                                                                                                    
                                                                                                    
                                                                                                    
                                                                                                    
                                                                                                    
                                                                                                    
                                                                                                    
                                                                                                    
                                                                                                    
                                                                                                    
                                                                                                    
                                                                                                    
                                                                                                    
                                                                                                    
                                                                                                    
                           
<?xpacket end="w"?></metadata>
<style type="text/css">
	.st0{fill:none;}
	.st1{fill:#5C564E;}
</style>
<rect class="st0" width="64" height="64"/>
<g>
	<g>
		<g>
			<g>
				<path class="st1" d="M28.4,11.8H15.7c-0.4,0-0.7-0.3-0.7-0.7c0-0.4,0.3-0.7,0.7-0.7h12.8c0.4,0,0.7,0.3,0.7,0.7
					C29.2,11.5,28.8,11.8,28.4,11.8z"/>
			</g>
			<g>
				<path class="st1" d="M28.4,22H15.7c-0.4,0-0.7-0.3-0.7-0.7s0.3-0.7,0.7-0.7h12.8c0.4,0,0.7,0.3,0.7,0.7S28.8,22,28.4,22z"/>
			</g>
			<g>
				<path class="st1" d="M43.5,32.3H15.7c-0.4,0-0.7-0.3-0.7-0.7c0-0.4,0.3-0.7,0.7-0.7h27.8c0.4,0,0.7,0.3,0.7,0.7
					C44.2,31.9,43.9,32.3,43.5,32.3z"/>
			</g>
			<g>
				<path class="st1" d="M43.5,42.5H15.7c-0.4,0-0.7-0.3-0.7-0.7s0.3-0.7,0.7-0.7h27.8c0.4,0,0.7,0.3,0.7,0.7S43.9,42.5,43.5,42.5z"
					/>
			</g>
			<g>
				<path class="st1" d="M35.4,52.7H15.7c-0.4,0-0.7-0.3-0.7-0.7s0.3-0.7,0.7-0.7h19.7c0.4,0,0.7,0.3,0.7,0.7S35.8,52.7,35.4,52.7z"
					/>
			</g>
		</g>
	</g>
	<g>
		<g>
			<g>
				<g>
					<g>
						<path class="st1" d="M39.6,62.1H9.9c-1.8,0-3.3-1.5-3.3-3.3V4.3C6.7,2.5,8.1,1,9.9,1h24.6c0.2,0,0.4,0.1,0.5,0.2l17.3,18.1
							c0.1,0.1,0.2,0.3,0.2,0.5V43c0,0.4-0.3,0.7-0.7,0.7s-0.7-0.3-0.7-0.7V20.2L34.3,2.4H9.9c-1,0-1.9,0.8-1.9,1.8v54.5
							c0,1,0.8,1.8,1.9,1.8h29.7c0.4,0,0.7,0.3,0.7,0.7S40,62.1,39.6,62.1z"/>
					</g>
				</g>
			</g>
			<g>
				<g>
					<path class="st1" d="M51.3,21H40.1c-3.2,0-6.8-2.4-6.8-5.8L33.2,2.1c0-0.4,0.3-0.7,0.7-0.7c0,0,0,0,0,0c0.4,0,0.7,0.3,0.7,0.7
						l0.1,13.1c0,2.5,2.8,4.4,5.4,4.4h11.2c0.4,0,0.7,0.3,0.7,0.7S51.7,21,51.3,21z"/>
				</g>
			</g>
		</g>
		<g>
			<g>
				<g>
					<g>
						<path class="st1" d="M47.8,63c-5.3,0-9.6-4.3-9.6-9.6s4.3-9.6,9.6-9.6c5.3,0,9.6,4.3,9.6,9.6S53,63,47.8,63z M47.8,45.3
							c-4.5,0-8.2,3.7-8.2,8.2s3.7,8.2,8.2,8.2c4.5,0,8.2-3.7,8.2-8.2S52.3,45.3,47.8,45.3z"/>
					</g>
				</g>
			</g>
			<g>
				<g>
					<path class="st1" d="M47.8,58.3c-0.2,0-0.4-0.1-0.5-0.2l-3.5-3.5c-0.3-0.3-0.3-0.7,0-1c0.3-0.3,0.7-0.3,1,0l3.5,3.5
						c0.3,0.3,0.3,0.7,0,1C48.1,58.3,47.9,58.3,47.8,58.3z"/>
				</g>
				<g>
					<path class="st1" d="M47.8,58.3c-0.2,0-0.4-0.1-0.5-0.2c-0.3-0.3-0.3-0.7,0-1l3.5-3.5c0.3-0.3,0.7-0.3,1,0c0.3,0.3,0.3,0.7,0,1
						l-3.5,3.5C48.1,58.3,47.9,58.3,47.8,58.3z"/>
				</g>
				<g>
					<path class="st1" d="M47.8,58.3c-0.4,0-0.7-0.3-0.7-0.7v-8.4c0-0.4,0.3-0.7,0.7-0.7c0.4,0,0.7,0.3,0.7,0.7v8.4
						C48.5,58,48.1,58.3,47.8,58.3z"/>
				</g>
			</g>
		</g>
	</g>
</g>
</svg>
