<?xml version="1.0" encoding="utf-8"?>
<!-- Generator: Adobe Illustrator 19.2.1, SVG Export Plug-In . SVG Version: 6.00 Build 0)  -->
<svg version="1.1" id="Layer_1" xmlns="http://www.w3.org/2000/svg" xmlns:xlink="http://www.w3.org/1999/xlink" x="0px" y="0px"
	 viewBox="0 0 64 64" style="enable-background:new 0 0 64 64;" xml:space="preserve">
<metadata><?xpacket begin="﻿" id="W5M0MpCehiHzreSzNTczkc9d"?>
<x:xmpmeta xmlns:x="adobe:ns:meta/" x:xmptk="Adobe XMP Core 5.6-c111 79.158366, 2015/09/25-01:12:00        ">
   <rdf:RDF xmlns:rdf="http://www.w3.org/1999/02/22-rdf-syntax-ns#">
      <rdf:Description rdf:about=""/>
   </rdf:RDF>
</x:xmpmeta>
                                                                                                    
                                                                                                    
                                                                                                    
                                                                                                    
                                                                                                    
                                                                                                    
                                                                                                    
                                                                                                    
                                                                                                    
                                                                                                    
                                                                                                    
                                                                                                    
                                                                                                    
                                                                                                    
                                                                                                    
                                                                                                    
                                                                                                    
                                                                                                    
                                                                                                    
                                                                                                    
                           
<?xpacket end="w"?></metadata>
<style type="text/css">
	.st0{fill:none;}
	.st1{fill:#5C564E;}
</style>
<rect class="st0" width="64" height="64"/>
<g>
	<g>
		<g>
			<path class="st1" d="M45.5,63H6.8c-1.8,0-3.2-1.4-3.2-3.2V22.4c0-0.2,0.1-0.4,0.2-0.5L22,3c0.1-0.1,0.3-0.2,0.5-0.2h18.3
				c0.4,0,0.7,0.3,0.7,0.7s-0.3,0.7-0.7,0.7h-18L5,22.7v37.1c0,1,0.8,1.8,1.8,1.8h38.7c1,0,1.8-0.8,1.8-1.8V36.9
				c0-0.4,0.3-0.7,0.7-0.7c0.4,0,0.7,0.3,0.7,0.7v22.8C48.8,61.6,47.3,63,45.5,63z"/>
		</g>
	</g>
	<g>
		<g>
			<path class="st1" d="M16.4,23H5.1c-0.4,0-0.7-0.3-0.7-0.7c0-0.4,0.3-0.7,0.7-0.7h11.3c2.6,0,5.5-1.9,5.5-4.4l0-13.1
				c0-0.4,0.3-0.7,0.7-0.7c0,0,0,0,0,0c0.4,0,0.7,0.3,0.7,0.7l0,13.1C23.3,20.6,19.7,23,16.4,23z"/>
		</g>
	</g>
	<g>
		<g>
			<path class="st1" d="M34.8,14.3h-7.8c-0.4,0-0.7-0.3-0.7-0.7c0-0.4,0.3-0.7,0.7-0.7h7.8c0.4,0,0.7,0.3,0.7,0.7
				C35.5,14,35.1,14.3,34.8,14.3z"/>
		</g>
		<g>
			<path class="st1" d="M29.1,24.4h-3.7c-0.4,0-0.7-0.3-0.7-0.7S25,23,25.4,23h3.7c0.4,0,0.7,0.3,0.7,0.7S29.5,24.4,29.1,24.4z"/>
		</g>
		<g>
			<path class="st1" d="M26,34.5H12.1c-0.4,0-0.7-0.3-0.7-0.7s0.3-0.7,0.7-0.7H26c0.4,0,0.7,0.3,0.7,0.7S26.3,34.5,26,34.5z"/>
		</g>
		<g>
			<path class="st1" d="M40.2,44.6H12.1c-0.4,0-0.7-0.3-0.7-0.7s0.3-0.7,0.7-0.7h28.1c0.4,0,0.7,0.3,0.7,0.7S40.6,44.6,40.2,44.6z"
				/>
		</g>
		<g>
			<path class="st1" d="M40.2,54.6H12.1c-0.4,0-0.7-0.3-0.7-0.7s0.3-0.7,0.7-0.7h28.1c0.4,0,0.7,0.3,0.7,0.7S40.6,54.6,40.2,54.6z"
				/>
		</g>
	</g>
	<g>
		<g>
			<path class="st1" d="M45.6,34.9v-0.4l-0.2,0.1c-1.8-2.5-3.7-2.3-3.9-2.3L41,32.3l-0.4-0.4c-1.1-2.3-3.7-2.3-3.8-2.3l-0.6-0.4
				c-0.8-1.8-2.3-2.6-3.9-2.2l-0.1-0.2L31.7,27l-0.2-0.6l-0.2,0c0-0.1,0-0.2,0-0.2l0.1-0.1l0-0.1c0,0,13.3-22.8,13.5-23
				c2-3.5,6-1.8,9.6,0.2l0,0c3.7,2.1,5.4,3.7,5.9,5.3c0.3,1,0.1,1.9-0.5,3c-0.1,0.2-13.1,22.8-13.2,23l-0.2,0.1l0,0.2l-0.1-0.1
				L45.6,34.9z M41.8,30.9c0.9,0,2.5,0.3,4.1,2c2.5-4.4,12.6-22,12.7-22.1C59,10.1,59.1,9.5,59,9c-0.3-1.2-1.9-2.6-5.2-4.5
				C48.7,1.6,47,2.1,46,3.7C46,3.8,36.2,20.6,33.3,25.4c1.6,0.1,3.1,1.1,3.9,2.8C38.2,28.3,40.4,28.8,41.8,30.9
				C41.7,30.9,41.7,30.9,41.8,30.9z"/>
		</g>
		<g>
			<g>
				<path class="st1" d="M32.1,41.8c-0.1,0-0.2,0-0.2,0c-0.6-0.2-0.6-0.2-0.6-8c0-3.2,0.1-7.4,0.1-7.6c0-0.3,0.2-0.5,0.5-0.6
					c2.2-0.6,4.3,0.5,5.4,2.6c1,0.1,3.2,0.6,4.5,2.7c1,0,3,0.3,4.8,2.9c0.1,0.2,0.2,0.4,0.1,0.6c-0.1,0.2-0.2,0.4-0.4,0.5l-13.9,6.9
					C32.3,41.8,32.2,41.8,32.1,41.8z M32.7,26.8c0,2.2-0.1,10.4,0,13.2l12.2-6c-1.7-2-3.4-1.6-3.4-1.6c-0.3,0.1-0.7-0.1-0.8-0.4
					c-1.1-2.4-3.8-2.4-3.9-2.4l0,0c-0.3,0-0.5-0.2-0.7-0.4C35.4,27.5,34.1,26.7,32.7,26.8z"/>
			</g>
		</g>
		<g>
			<g>
				<path class="st1" d="M36.2,39c-0.2,0-0.4-0.1-0.5-0.2c-0.6-0.6-1.7-1.4-3.1-1.7c-0.4-0.1-0.6-0.4-0.6-0.8
					c0.1-0.4,0.4-0.6,0.8-0.6c1.8,0.3,3.1,1.3,3.8,2.1c0.3,0.3,0.3,0.7,0,1C36.6,38.9,36.4,39,36.2,39z"/>
			</g>
		</g>
		<g>
			<path class="st1" d="M58.1,13.8c-0.3,0-0.5-0.1-0.6-0.4c-0.8-1.6-3-3.6-5.7-5.2c-2.8-1.6-5.6-2.5-7.3-2.4c-0.4,0-0.7-0.3-0.8-0.7
				c0-0.4,0.3-0.7,0.7-0.8c2.1-0.1,5.1,0.8,8.1,2.6c3,1.8,5.4,3.9,6.3,5.8c0.2,0.4,0,0.8-0.3,0.9C58.3,13.8,58.2,13.8,58.1,13.8z"/>
		</g>
	</g>
</g>
</svg>
