<?xml version="1.0" encoding="utf-8"?>
<!-- Generator: Adobe Illustrator 19.2.1, SVG Export Plug-In . SVG Version: 6.00 Build 0)  -->
<svg version="1.1" id="Layer_1" xmlns="http://www.w3.org/2000/svg" xmlns:xlink="http://www.w3.org/1999/xlink" x="0px" y="0px"
	 viewBox="0 0 64 64" style="enable-background:new 0 0 64 64;" xml:space="preserve">
<metadata><?xpacket begin="﻿" id="W5M0MpCehiHzreSzNTczkc9d"?>
<x:xmpmeta xmlns:x="adobe:ns:meta/" x:xmptk="Adobe XMP Core 5.6-c111 79.158366, 2015/09/25-01:12:00        ">
   <rdf:RDF xmlns:rdf="http://www.w3.org/1999/02/22-rdf-syntax-ns#">
      <rdf:Description rdf:about=""/>
   </rdf:RDF>
</x:xmpmeta>
                                                                                                    
                                                                                                    
                                                                                                    
                                                                                                    
                                                                                                    
                                                                                                    
                                                                                                    
                                                                                                    
                                                                                                    
                                                                                                    
                                                                                                    
                                                                                                    
                                                                                                    
                                                                                                    
                                                                                                    
                                                                                                    
                                                                                                    
                                                                                                    
                                                                                                    
                                                                                                    
                           
<?xpacket end="w"?></metadata>
<style type="text/css">
	.st0{fill:none;}
	.st1{fill:#5C564E;}
</style>
<rect class="st0" width="64" height="64"/>
<g>
	<g>
		<g>
			<g>
				<g>
					<g>
						<path class="st1" d="M38.5,61.6H11c-1.8,0-3.3-1.5-3.3-3.3V4.3C7.8,2.5,9.2,1,11,1h24.4c0.2,0,0.4,0.1,0.5,0.2l17.1,18
							c0.1,0.1,0.2,0.3,0.2,0.5v23.9c0,0.4-0.3,0.7-0.7,0.7s-0.7-0.3-0.7-0.7V20L35.2,2.4H11c-1,0-1.8,0.8-1.8,1.8v54.1
							c0,1,0.8,1.8,1.8,1.8h27.5c0.4,0,0.7,0.3,0.7,0.7S38.9,61.6,38.5,61.6z"/>
					</g>
				</g>
			</g>
			<g>
				<g>
					<path class="st1" d="M52.1,20.8H41c-3.2,0-6.8-2.4-6.8-5.7l-0.1-13c0-0.4,0.3-0.7,0.7-0.7c0,0,0,0,0,0c0.4,0,0.7,0.3,0.7,0.7
						l0.1,13c0,2.5,2.8,4.3,5.3,4.3h11.1c0.4,0,0.7,0.3,0.7,0.7S52.4,20.8,52.1,20.8z"/>
				</g>
			</g>
		</g>
	</g>
	<g>
		<g>
			<path class="st1" d="M49.3,58.9c-1.2,0-2.4-0.3-3.5-1l0,0c-3.3-2-4.3-6.2-2.4-9.5c2-3.3,6.2-4.3,9.5-2.4c3.3,2,4.3,6.2,2.4,9.5
				C53.9,57.7,51.7,58.9,49.3,58.9z M46.5,56.7c2.6,1.6,5.9,0.7,7.5-1.9c1.6-2.6,0.7-6-1.9-7.5c-2.6-1.6-6-0.7-7.5,1.9
				C43.1,51.7,43.9,55.1,46.5,56.7L46.5,56.7z"/>
		</g>
		<g>
			<path class="st1" d="M42.8,63c-0.1,0-0.3,0-0.4-0.1c-0.3-0.2-0.4-0.7-0.2-1l2.9-4.3c0.2-0.3,0.7-0.4,1-0.2s0.4,0.7,0.2,1
				l-2.9,4.3C43.3,62.9,43,63,42.8,63z"/>
		</g>
	</g>
</g>
</svg>
