<?xml version="1.0" encoding="utf-8"?>
<!-- Generator: Adobe Illustrator 19.2.1, SVG Export Plug-In . SVG Version: 6.00 Build 0)  -->
<svg version="1.1" id="Layer_1" xmlns="http://www.w3.org/2000/svg" xmlns:xlink="http://www.w3.org/1999/xlink" x="0px" y="0px"
	 viewBox="0 0 64 64" style="enable-background:new 0 0 64 64;" xml:space="preserve">
<metadata><?xpacket begin="﻿" id="W5M0MpCehiHzreSzNTczkc9d"?>
<x:xmpmeta xmlns:x="adobe:ns:meta/" x:xmptk="Adobe XMP Core 5.6-c111 79.158366, 2015/09/25-01:12:00        ">
   <rdf:RDF xmlns:rdf="http://www.w3.org/1999/02/22-rdf-syntax-ns#">
      <rdf:Description rdf:about=""/>
   </rdf:RDF>
</x:xmpmeta>
                                                                                                    
                                                                                                    
                                                                                                    
                                                                                                    
                                                                                                    
                                                                                                    
                                                                                                    
                                                                                                    
                                                                                                    
                                                                                                    
                                                                                                    
                                                                                                    
                                                                                                    
                                                                                                    
                                                                                                    
                                                                                                    
                                                                                                    
                                                                                                    
                                                                                                    
                                                                                                    
                           
<?xpacket end="w"?></metadata>
<style type="text/css">
	.st0{fill:none;}
	.st1{fill:#5C564E;}
</style>
<rect class="st0" width="64" height="64"/>
<g>
	<g>
		<g>
			<path class="st1" d="M34.2,60.5H7.8c-1.7,0-3.1-1.4-3.1-3.1V21.5c0-0.2,0.1-0.3,0.2-0.5L22.4,2.9c0.1-0.1,0.3-0.2,0.5-0.2h17.6
				c0.4,0,0.7,0.3,0.7,0.7s-0.3,0.7-0.7,0.7H23.1L6.1,21.8v35.6c0,1,0.8,1.7,1.8,1.7h26.4c0.4,0,0.7,0.3,0.7,0.7
				C34.9,60.2,34.6,60.5,34.2,60.5z"/>
		</g>
		<g>
			<path class="st1" d="M47.4,42.8c-0.4,0-0.7-0.3-0.7-0.7v-6.6c0-0.4,0.3-0.7,0.7-0.7c0.4,0,0.7,0.3,0.7,0.7v6.6
				C48.1,42.5,47.8,42.8,47.4,42.8z"/>
		</g>
	</g>
	<g>
		<g>
			<path class="st1" d="M17.1,22.1H6.2c-0.4,0-0.7-0.3-0.7-0.7s0.3-0.7,0.7-0.7h10.9c2.5,0,5.2-1.8,5.2-4.3l0-12.6
				c0-0.4,0.3-0.7,0.7-0.7c0,0,0,0,0,0c0.4,0,0.7,0.3,0.7,0.7l0,12.6C23.7,19.8,20.2,22.1,17.1,22.1z"/>
		</g>
	</g>
	<g>
		<g>
			<path class="st1" d="M34.6,13.8h-7.5c-0.4,0-0.7-0.3-0.7-0.7s0.3-0.7,0.7-0.7h7.5c0.4,0,0.7,0.3,0.7,0.7S35,13.8,34.6,13.8z"/>
		</g>
		<g>
			<path class="st1" d="M29.2,23.4h-3.5c-0.4,0-0.7-0.3-0.7-0.7s0.3-0.7,0.7-0.7h3.5c0.4,0,0.7,0.3,0.7,0.7S29.6,23.4,29.2,23.4z"/>
		</g>
		<g>
			<path class="st1" d="M26.2,33.1H12.9c-0.4,0-0.7-0.3-0.7-0.7c0-0.4,0.3-0.7,0.7-0.7h13.3c0.4,0,0.7,0.3,0.7,0.7
				C26.9,32.8,26.6,33.1,26.2,33.1z"/>
		</g>
		<g>
			<path class="st1" d="M39.8,42.8h-27c-0.4,0-0.7-0.3-0.7-0.7s0.3-0.7,0.7-0.7h27c0.4,0,0.7,0.3,0.7,0.7S40.2,42.8,39.8,42.8z"/>
		</g>
		<g>
			<path class="st1" d="M32.4,52.5H12.9c-0.4,0-0.7-0.3-0.7-0.7c0-0.4,0.3-0.7,0.7-0.7h19.5c0.4,0,0.7,0.3,0.7,0.7
				C33.1,52.2,32.7,52.5,32.4,52.5z"/>
		</g>
	</g>
	<g>
		<g>
			<g>
				<g>
					<path class="st1" d="M44,63c-5.3,0-9.6-4.3-9.6-9.6s4.3-9.6,9.6-9.6c5.3,0,9.6,4.3,9.6,9.6S49.3,63,44,63z M44,45.2
						c-4.5,0-8.2,3.7-8.2,8.2s3.7,8.2,8.2,8.2c4.5,0,8.2-3.7,8.2-8.2S48.5,45.2,44,45.2z"/>
				</g>
			</g>
		</g>
		<g>
			<path class="st1" d="M43.9,57.7c-0.4,0-0.7-0.3-0.7-0.7v-7.4c0-0.4,0.3-0.7,0.7-0.7c0.4,0,0.7,0.3,0.7,0.7V57
				C44.6,57.4,44.3,57.7,43.9,57.7z"/>
		</g>
		<g>
			<path class="st1" d="M47.6,54h-7.4c-0.4,0-0.7-0.3-0.7-0.7c0-0.4,0.3-0.7,0.7-0.7h7.4c0.4,0,0.7,0.3,0.7,0.7
				C48.3,53.7,48,54,47.6,54z"/>
		</g>
	</g>
	<g>
		<g>
			<path class="st1" d="M45,33.5v-0.4l-0.2,0.1c-1.7-2.4-3.6-2.2-3.8-2.2L40.6,31l-0.4-0.3c-1.1-2.2-3.6-2.3-3.7-2.3L36,28
				c-0.8-1.7-2.2-2.5-3.8-2.1l-0.1-0.2l-0.5,0.3l-0.2-0.6l-0.1,0c0-0.1,0-0.2,0-0.2l0.1-0.1l0-0.1c0,0,12.8-21.9,12.9-22.1
				c2-3.3,5.8-1.7,9.2,0.2l0,0c3.6,2,5.2,3.5,5.6,5.1c0.2,0.9,0.1,1.9-0.5,2.9C58.5,11.4,46.1,33,45.9,33.2l-0.2,0.1l0,0.2l-0.1-0.1
				L45,33.5z M41.4,29.7c0.8,0,2.4,0.3,3.9,1.9c2.4-4.2,12.1-21.1,12.2-21.2c0.4-0.7,0.5-1.3,0.4-1.8c-0.3-1.2-1.8-2.5-5-4.3
				C48,1.6,46.4,2,45.4,3.6C45.4,3.7,36,19.8,33.3,24.4c1.5,0.1,2.9,1.1,3.8,2.6C37.9,27.2,40.1,27.6,41.4,29.7
				C41.3,29.7,41.3,29.7,41.4,29.7z"/>
		</g>
		<g>
			<g>
				<path class="st1" d="M32.1,40.1c-0.1,0-0.2,0-0.2,0c-0.6-0.2-0.6-0.2-0.6-7.7c0-3.1,0.1-7.1,0.1-7.3c0-0.3,0.2-0.5,0.5-0.6
					c2.1-0.5,4.1,0.5,5.2,2.5c0.9,0.1,3.1,0.5,4.3,2.6c0.9,0,2.9,0.3,4.6,2.8c0.1,0.2,0.2,0.4,0.1,0.6c0,0.2-0.2,0.4-0.4,0.4
					l-13.3,6.6C32.3,40.1,32.2,40.1,32.1,40.1z M32.7,25.8c0,2.1-0.1,9.9,0,12.6l11.7-5.8c-1.7-1.9-3.3-1.5-3.3-1.5
					c-0.3,0.1-0.6-0.1-0.8-0.4c-1.1-2.3-3.6-2.3-3.7-2.3l0,0c0,0,0,0,0,0c-0.3,0-0.5-0.2-0.6-0.4C35.3,26.5,34.1,25.6,32.7,25.8z"/>
			</g>
		</g>
		<g>
			<g>
				<path class="st1" d="M36.1,37.4c-0.2,0-0.3-0.1-0.5-0.2c-0.6-0.6-1.6-1.4-3-1.6c-0.4-0.1-0.6-0.4-0.5-0.8
					c0.1-0.4,0.4-0.6,0.8-0.5c1.7,0.3,3,1.3,3.7,2c0.3,0.3,0.3,0.7,0,1C36.4,37.4,36.2,37.4,36.1,37.4z"/>
			</g>
		</g>
		<g>
			<path class="st1" d="M57,13.3c-0.3,0-0.5-0.1-0.6-0.4c-0.7-1.5-2.8-3.4-5.5-4.9c-2.6-1.5-5.3-2.4-7-2.3c-0.4,0-0.7-0.3-0.7-0.6
				c0-0.4,0.3-0.7,0.6-0.7c2-0.1,4.9,0.8,7.8,2.5c2.9,1.7,5.1,3.7,6,5.5c0.2,0.3,0,0.7-0.3,0.9C57.2,13.3,57.1,13.3,57,13.3z"/>
		</g>
	</g>
</g>
</svg>
