<?xml version="1.0" encoding="utf-8"?>
<!-- Generator: Adobe Illustrator 19.2.1, SVG Export Plug-In . SVG Version: 6.00 Build 0)  -->
<svg version="1.1" id="Layer_1" xmlns="http://www.w3.org/2000/svg" xmlns:xlink="http://www.w3.org/1999/xlink" x="0px" y="0px"
	 viewBox="0 0 64 64" style="enable-background:new 0 0 64 64;" xml:space="preserve">
<metadata><?xpacket begin="﻿" id="W5M0MpCehiHzreSzNTczkc9d"?>
<x:xmpmeta xmlns:x="adobe:ns:meta/" x:xmptk="Adobe XMP Core 5.6-c111 79.158366, 2015/09/25-01:12:00        ">
   <rdf:RDF xmlns:rdf="http://www.w3.org/1999/02/22-rdf-syntax-ns#">
      <rdf:Description rdf:about=""/>
   </rdf:RDF>
</x:xmpmeta>
                                                                                                    
                                                                                                    
                                                                                                    
                                                                                                    
                                                                                                    
                                                                                                    
                                                                                                    
                                                                                                    
                                                                                                    
                                                                                                    
                                                                                                    
                                                                                                    
                                                                                                    
                                                                                                    
                                                                                                    
                                                                                                    
                                                                                                    
                                                                                                    
                                                                                                    
                                                                                                    
                           
<?xpacket end="w"?></metadata>
<style type="text/css">
	.st0{fill:none;}
	.st1{fill:#5C564E;}
</style>
<rect class="st0" width="64" height="64"/>
<g>
	<g>
		<g>
			<g>
				<g>
					<g>
						<path class="st1" d="M36.7,60.8H9.6c-1.8,0-3.2-1.4-3.2-3.2V4.2C6.3,2.4,7.8,1,9.6,1h24.1c0.2,0,0.4,0.1,0.5,0.2L51.1,19
							c0.1,0.1,0.2,0.3,0.2,0.5v20.7c0,0.4-0.3,0.7-0.7,0.7c-0.4,0-0.7-0.3-0.7-0.7V19.7L33.4,2.4H9.6c-1,0-1.8,0.8-1.8,1.8v53.4
							c0,1,0.8,1.8,1.8,1.8h27.1c0.4,0,0.7,0.3,0.7,0.7C37.4,60.5,37,60.8,36.7,60.8z"/>
					</g>
				</g>
			</g>
			<g>
				<g>
					<path class="st1" d="M50,20.6H39.1c-3.2,0-6.7-2.3-6.7-5.7L32.4,2.1c0-0.4,0.3-0.7,0.7-0.7c0,0,0,0,0,0c0.4,0,0.7,0.3,0.7,0.7
						l0.1,12.9c0,2.4,2.8,4.3,5.3,4.3H50c0.4,0,0.7,0.3,0.7,0.7C50.7,20.3,50.4,20.6,50,20.6z"/>
				</g>
			</g>
		</g>
	</g>
	<g>
		<g>
			<g>
				<path class="st1" d="M27.6,11.5H15.1c-0.4,0-0.7-0.3-0.7-0.7c0-0.4,0.3-0.7,0.7-0.7h12.5c0.4,0,0.7,0.3,0.7,0.7
					C28.3,11.2,27.9,11.5,27.6,11.5z"/>
			</g>
			<g>
				<path class="st1" d="M27.6,21.6H15.1c-0.4,0-0.7-0.3-0.7-0.7c0-0.4,0.3-0.7,0.7-0.7h12.5c0.4,0,0.7,0.3,0.7,0.7
					C28.3,21.2,27.9,21.6,27.6,21.6z"/>
			</g>
			<g>
				<path class="st1" d="M42.3,31.6H15.1c-0.4,0-0.7-0.3-0.7-0.7c0-0.4,0.3-0.7,0.7-0.7h27.2c0.4,0,0.7,0.3,0.7,0.7
					C43,31.3,42.7,31.6,42.3,31.6z"/>
			</g>
			<g>
				<path class="st1" d="M42.3,41.6H15.1c-0.4,0-0.7-0.3-0.7-0.7c0-0.4,0.3-0.7,0.7-0.7h27.2c0.4,0,0.7,0.3,0.7,0.7
					C43,41.3,42.7,41.6,42.3,41.6z"/>
			</g>
			<g>
				<path class="st1" d="M34.4,51.6H15.1c-0.4,0-0.7-0.3-0.7-0.7s0.3-0.7,0.7-0.7h19.3c0.4,0,0.7,0.3,0.7,0.7S34.8,51.6,34.4,51.6z"
					/>
			</g>
		</g>
	</g>
	<g>
		<g>
			<g>
				<g>
					<path class="st1" d="M42.2,50.1C42.2,50.1,42.2,50.1,42.2,50.1c-0.4,0-0.7-0.3-0.7-0.7c0.1-3.6,3-7.7,7-7.7
						c1.9,0,3.7,0.9,5.1,2.7c0.2,0.3,0.2,0.7-0.1,1c-0.3,0.2-0.7,0.2-1-0.1c-1.1-1.4-2.5-2.1-4-2.1c-3.1,0-5.5,3.3-5.6,6.3
						C42.9,49.8,42.6,50.1,42.2,50.1z"/>
				</g>
			</g>
			<g>
				<g>
					<path class="st1" d="M54.5,63H42.5c-1.7,0-3.1-1.4-3.1-3.1v-8.1c0-1.4,1-2.6,2.4-3c0.2-0.1,0.8-0.1,2.3-0.1l10.8,0
						c0,0,0.1,0,0.1,0c1.6,0.2,2.7,1.5,2.7,3.1v8.1C57.7,61.6,56.3,63,54.5,63z M42.2,50.1C42.2,50.1,42.2,50.2,42.2,50.1
						c-0.8,0.2-1.4,0.9-1.4,1.6v8.1c0,0.9,0.8,1.7,1.7,1.7h12.1c1,0,1.7-0.8,1.7-1.7v-8.1c0-0.8-0.6-1.5-1.5-1.7l-10.7,0
						C43.3,50.1,42.4,50.1,42.2,50.1z"/>
				</g>
			</g>
			<g>
				<path class="st1" d="M48.5,53.2c-0.8,0-1.5,0.7-1.5,1.5c0,0.6,0.4,1.1,0.9,1.4v2c0,0.3,0.2,0.5,0.5,0.5c0.3,0,0.5-0.2,0.5-0.5
					v-2c0.6-0.2,0.9-0.7,0.9-1.4C50,53.9,49.3,53.2,48.5,53.2z"/>
			</g>
		</g>
	</g>
</g>
</svg>
