<?xml version="1.0" encoding="utf-8"?>
<!-- Generator: Adobe Illustrator 19.2.1, SVG Export Plug-In . SVG Version: 6.00 Build 0)  -->
<svg version="1.1" id="Layer_1" xmlns="http://www.w3.org/2000/svg" xmlns:xlink="http://www.w3.org/1999/xlink" x="0px" y="0px"
	 viewBox="0 0 64 64" style="enable-background:new 0 0 64 64;" xml:space="preserve">
<metadata><?xpacket begin="﻿" id="W5M0MpCehiHzreSzNTczkc9d"?>
<x:xmpmeta xmlns:x="adobe:ns:meta/" x:xmptk="Adobe XMP Core 5.6-c111 79.158366, 2015/09/25-01:12:00        ">
   <rdf:RDF xmlns:rdf="http://www.w3.org/1999/02/22-rdf-syntax-ns#">
      <rdf:Description rdf:about=""/>
   </rdf:RDF>
</x:xmpmeta>
                                                                                                    
                                                                                                    
                                                                                                    
                                                                                                    
                                                                                                    
                                                                                                    
                                                                                                    
                                                                                                    
                                                                                                    
                                                                                                    
                                                                                                    
                                                                                                    
                                                                                                    
                                                                                                    
                                                                                                    
                                                                                                    
                                                                                                    
                                                                                                    
                                                                                                    
                                                                                                    
                           
<?xpacket end="w"?></metadata>
<style type="text/css">
	.st0{fill:none;}
	.st1{fill:#5B554D;}
</style>
<rect class="st0" width="64" height="64"/>
<g>
	<g>
		<path class="st1" d="M32,62.9C14.9,62.9,1,49,1,32C1,15,14.9,1.1,32,1.1C49.1,1.1,63,15,63,32C63,49,49.1,62.9,32,62.9z M32,3.1
			C16,3.1,3,16.1,3,32c0,15.9,13,28.9,29,28.9s29-13,29-28.9C61,16.1,48,3.1,32,3.1z"/>
	</g>
	<g>
		<path class="st1" d="M40.6,51.8c-1.8,0-3.6-0.6-5.1-1.9c-1.5-1.4-2.4-3.2-2.5-5.2c-0.1-2,0.6-4,1.9-5.5c2.8-3.1,7.6-3.3,10.7-0.6
			c0,0,0,0,0,0c1.5,1.4,2.4,3.2,2.5,5.2c0.1,2-0.6,4-1.9,5.5C44.8,50.9,42.7,51.8,40.6,51.8z M40.6,38.6c-1.5,0-3.1,0.6-4.2,1.8
			c-1,1.1-1.5,2.5-1.4,4c0.1,1.5,0.7,2.9,1.8,3.9c2.3,2.1,5.8,1.9,7.9-0.4c1-1.1,1.5-2.5,1.4-4c-0.1-1.5-0.7-2.9-1.8-3.9
			C43.3,39.1,42,38.6,40.6,38.6z M23.3,51.8c-1.4,0-2.9-0.4-4.1-1.2c-1.7-1.1-2.9-2.8-3.3-4.8c-0.4-2,0-4,1.1-5.7
			c2.3-3.5,7-4.5,10.5-2.2c1.7,1.1,2.9,2.8,3.3,4.8c0.4,2,0,4-1.1,5.7C28.3,50.6,25.8,51.8,23.3,51.8z M23.4,38.6
			c-1.8,0-3.6,0.9-4.7,2.5c-0.8,1.2-1.1,2.7-0.8,4.2c0.3,1.5,1.2,2.7,2.4,3.5c2.6,1.7,6.1,0.9,7.8-1.6c0.8-1.2,1.1-2.7,0.8-4.2
			c-0.3-1.5-1.2-2.7-2.4-3.5c0,0,0,0,0,0C25.5,38.9,24.4,38.6,23.4,38.6z M32,36.4c-2.5,0-4.5-2-4.5-4.5c0-2.5,2-4.5,4.5-4.5
			c2.5,0,4.5,2,4.5,4.5C36.5,34.4,34.5,36.4,32,36.4z M32,29.4c-1.4,0-2.5,1.1-2.5,2.5c0,1.4,1.1,2.5,2.5,2.5c1.4,0,2.5-1.1,2.5-2.5
			C34.5,30.5,33.4,29.4,32,29.4z M17.4,35.8c-0.4,0-0.8,0-1.2-0.1c-2-0.3-3.8-1.4-5-3.1C10,31,9.6,29,9.9,27c0.7-4.1,4.6-7,8.7-6.3
			c4.1,0.7,7,4.5,6.3,8.7c0,0,0,0,0,0C24.3,33.1,21.1,35.8,17.4,35.8z M17.4,22.6c-2.7,0-5.1,2-5.5,4.7c-0.2,1.5,0.1,2.9,1,4.1
			c0.9,1.2,2.2,2,3.7,2.3c3.1,0.5,5.9-1.6,6.4-4.6c0.5-3-1.6-5.9-4.7-6.4C18,22.7,17.7,22.6,17.4,22.6z M23.9,29.3L23.9,29.3
			L23.9,29.3z M46.6,35.8c-2.9,0-5.7-1.7-7-4.5c-0.8-1.9-0.9-3.9-0.1-5.8c0.7-1.9,2.2-3.4,4-4.2c3.8-1.7,8.3,0,10,3.8c0,0,0,0,0,0
			c0.8,1.8,0.9,3.9,0.2,5.8c-0.7,1.9-2.2,3.4-4,4.2C48.7,35.6,47.7,35.8,46.6,35.8z M46.6,22.6c-0.8,0-1.5,0.2-2.3,0.5
			c-1.4,0.6-2.4,1.7-3,3.1c-0.5,1.4-0.5,2.9,0.1,4.3c1.3,2.8,4.6,4.1,7.4,2.8c1.4-0.6,2.4-1.7,3-3.1c0.5-1.4,0.5-2.9-0.1-4.3l0,0
			C50.8,23.9,48.8,22.6,46.6,22.6z M32,25.2c-4.2,0-7.6-3.4-7.6-7.6c0-4.2,3.4-7.6,7.6-7.6c4.2,0,7.6,3.4,7.6,7.6
			C39.6,21.8,36.2,25.2,32,25.2z M32,12c-3.1,0-5.6,2.5-5.6,5.6c0,3.1,2.5,5.6,5.6,5.6c3.1,0,5.6-2.5,5.6-5.6
			C37.6,14.5,35.1,12,32,12z"/>
	</g>
</g>
</svg>
