<?xml version="1.0" encoding="utf-8"?>
<!-- Generator: Adobe Illustrator 19.2.1, SVG Export Plug-In . SVG Version: 6.00 Build 0)  -->
<svg version="1.1" id="Layer_1" xmlns="http://www.w3.org/2000/svg" xmlns:xlink="http://www.w3.org/1999/xlink" x="0px" y="0px"
	 viewBox="0 0 64 64" style="enable-background:new 0 0 64 64;" xml:space="preserve">
<metadata><?xpacket begin="﻿" id="W5M0MpCehiHzreSzNTczkc9d"?>
<x:xmpmeta xmlns:x="adobe:ns:meta/" x:xmptk="Adobe XMP Core 5.6-c111 79.158366, 2015/09/25-01:12:00        ">
   <rdf:RDF xmlns:rdf="http://www.w3.org/1999/02/22-rdf-syntax-ns#">
      <rdf:Description rdf:about=""/>
   </rdf:RDF>
</x:xmpmeta>
                                                                                                    
                                                                                                    
                                                                                                    
                                                                                                    
                                                                                                    
                                                                                                    
                                                                                                    
                                                                                                    
                                                                                                    
                                                                                                    
                                                                                                    
                                                                                                    
                                                                                                    
                                                                                                    
                                                                                                    
                                                                                                    
                                                                                                    
                                                                                                    
                                                                                                    
                                                                                                    
                           
<?xpacket end="w"?></metadata>
<style type="text/css">
	.st0{fill:none;}
	.st1{fill:#5B554D;}
</style>
<rect class="st0" width="64" height="64"/>
<g>
	<g>
		<path class="st1" d="M60.5,53.3H19.5c-1.4,0-2.5-1.1-2.5-2.5v-4.5L2.2,46c-0.2,0.1-0.4,0.1-0.6,0c-0.4-0.1-0.7-0.5-0.7-1
			c0-0.2,0.2-0.4,0.3-0.5L3.6,41c0.1-0.1,0.2-0.2,0.3-0.3l4.9-8.3l-5.4-9.1l-1.9-3.1c-0.1-0.2-0.2-0.5-0.1-0.7
			c0.1-0.2,0.3-0.4,0.5-0.5c0.3-0.1,0.6-0.2,0.9-0.2h2.5c0.1,0,0.2,0,0.3,0H17v-5.6c0-1.4,1.1-2.5,2.5-2.5h40.9
			c1.4,0,2.5,1.1,2.5,2.5v37.5C63,52.1,61.9,53.3,60.5,53.3z M3.4,44.4l14.4,0.2c0.5,0,0.8,0.4,0.8,0.8v5.3c0,0.5,0.4,0.8,0.8,0.8
			h40.9c0.5,0,0.8-0.4,0.8-0.8V13.2c0-0.4-0.4-0.8-0.8-0.8H19.5c-0.5,0-0.8,0.4-0.8,0.8v6.4c0,0.5-0.4,0.8-0.8,0.8H5.5
			c0,0-0.1,0-0.1,0H3.6l1.2,2l5.6,9.5c0.2,0.3,0.2,0.6,0,0.9l-5.4,9.1C5,42,4.9,42.1,4.8,42.2L3.4,44.4z"/>
	</g>
	<g>
		<path class="st1" d="M56,50.7h-1.3c-1.4,0-2.5-1.1-2.5-2.5v-1.6c0-1.4,1.1-2.5,2.5-2.5H56c1.4,0,2.5,1.1,2.5,2.5v1.6
			C58.5,49.6,57.4,50.7,56,50.7z M54.7,45.7c-0.5,0-0.8,0.4-0.8,0.8v1.6c0,0.5,0.4,0.8,0.8,0.8H56c0.5,0,0.8-0.4,0.8-0.8v-1.6
			c0-0.5-0.4-0.8-0.8-0.8H54.7z M48.3,50.7H47c-1.4,0-2.5-1.1-2.5-2.5v-1.6c0-1.4,1.1-2.5,2.5-2.5h1.3c1.4,0,2.5,1.1,2.5,2.5v1.6
			C50.8,49.6,49.6,50.7,48.3,50.7z M47,45.7c-0.5,0-0.8,0.4-0.8,0.8v1.6c0,0.5,0.4,0.8,0.8,0.8h1.3c0.5,0,0.8-0.4,0.8-0.8v-1.6
			c0-0.5-0.4-0.8-0.8-0.8H47z M40.2,50.7h-1.2c-1.4,0-2.5-1.1-2.5-2.5v-1.6c0-1.4,1.1-2.5,2.5-2.5h1.2c1.4,0,2.5,1.1,2.5,2.5v1.6
			C42.7,49.6,41.6,50.7,40.2,50.7z M38.9,45.7c-0.5,0-0.8,0.4-0.8,0.8v1.6c0,0.5,0.4,0.8,0.8,0.8h1.2c0.5,0,0.8-0.4,0.8-0.8v-1.6
			c0-0.5-0.4-0.8-0.8-0.8H38.9z M32.1,50.7h-1.3c-1.4,0-2.5-1.1-2.5-2.5v-1.6c0-1.4,1.1-2.5,2.5-2.5h1.3c1.4,0,2.5,1.1,2.5,2.5v1.6
			C34.6,49.6,33.5,50.7,32.1,50.7z M30.9,45.7c-0.5,0-0.8,0.4-0.8,0.8v1.6c0,0.5,0.4,0.8,0.8,0.8h1.3c0.5,0,0.8-0.4,0.8-0.8v-1.6
			c0-0.5-0.4-0.8-0.8-0.8H30.9z M24.1,50.7h-1.3c-1.4,0-2.5-1.1-2.5-2.5v-1.6c0-1.4,1.1-2.5,2.5-2.5h1.3c1.4,0,2.5,1.1,2.5,2.5v1.6
			C26.6,49.6,25.4,50.7,24.1,50.7z M22.8,45.7c-0.5,0-0.8,0.4-0.8,0.8v1.6c0,0.5,0.4,0.8,0.8,0.8h1.3c0.5,0,0.8-0.4,0.8-0.8v-1.6
			c0-0.5-0.4-0.8-0.8-0.8H22.8z M17.9,42.4H7.6c-0.3,0-0.6-0.2-0.7-0.4s-0.1-0.6,0-0.8l5.2-8.7l-5-8.4c-0.2-0.3-0.2-0.6,0-0.8
			c0.1-0.3,0.4-0.4,0.7-0.4h10.1c0.5,0,0.8,0.4,0.8,0.8v18C18.7,42,18.3,42.4,17.9,42.4z M9.1,40.7h8V24.4H9.3l4.3,7.3
			c0.1,0.1,0.2,0.3,0.3,0.5c0,0.1,0,0.3,0,0.4c0,0,0,0,0,0c0,0.2-0.1,0.3-0.2,0.5L9.1,40.7z M55.8,20.7h-1.4c-1.5,0-2.7-1.2-2.7-2.7
			v-1.8c0-1.5,1.2-2.7,2.7-2.7h1.4c1.5,0,2.7,1.2,2.7,2.7V18C58.5,19.5,57.3,20.7,55.8,20.7z M54.5,15.3c-0.5,0-1,0.4-1,1V18
			c0,0.5,0.5,1,1,1h1.4c0.5,0,1-0.5,1-1v-1.8c0-0.5-0.5-1-1-1H54.5z M48.1,20.7h-1.4c-1.5,0-2.7-1.2-2.7-2.7v-1.8
			c0-1.5,1.2-2.7,2.7-2.7h1.4c1.5,0,2.7,1.2,2.7,2.7V18C50.8,19.5,49.6,20.7,48.1,20.7z M46.7,15.3c-0.5,0-1,0.4-1,1V18
			c0,0.5,0.5,1,1,1h1.4c0.5,0,1-0.5,1-1v-1.8c0-0.5-0.4-1-1-1H46.7z M40.3,20.7h-1.4c-1.5,0-2.7-1.2-2.7-2.7v-1.8
			c0-1.5,1.2-2.7,2.7-2.7h1.4c1.5,0,2.7,1.2,2.7,2.7V18C42.9,19.5,41.7,20.7,40.3,20.7z M38.9,15.3c-0.5,0-1,0.4-1,1V18
			c0,0.5,0.4,1,1,1h1.4c0.6,0,1-0.4,1-1v-1.8c0-0.5-0.4-1-1-1H38.9z M32.4,20.7h-1.4c-1.5,0-2.7-1.2-2.7-2.7v-1.8
			c0-1.5,1.2-2.7,2.7-2.7h1.4c1.5,0,2.7,1.2,2.7,2.7V18C35.1,19.5,33.9,20.7,32.4,20.7z M31.1,15.3c-0.5,0-1,0.4-1,1V18
			c0,0.5,0.5,1,1,1h1.4c0.5,0,1-0.4,1-1v-1.8c0-0.5-0.4-1-1-1H31.1z M24.6,20.7h-1.4c-1.5,0-2.7-1.2-2.7-2.7v-1.8
			c0-1.5,1.2-2.7,2.7-2.7h1.4c1.5,0,2.7,1.2,2.7,2.7V18C27.3,19.5,26.1,20.7,24.6,20.7z M23.2,15.3c-0.5,0-1,0.4-1,1V18
			c0,0.5,0.5,1,1,1h1.4c0.5,0,1-0.4,1-1v-1.8c0-0.5-0.4-1-1-1H23.2z"/>
	</g>
</g>
</svg>
