<?xml version="1.0" encoding="utf-8"?>
<!-- Generator: Adobe Illustrator 19.2.1, SVG Export Plug-In . SVG Version: 6.00 Build 0)  -->
<svg version="1.1" id="Layer_1" xmlns="http://www.w3.org/2000/svg" xmlns:xlink="http://www.w3.org/1999/xlink" x="0px" y="0px"
	 viewBox="0 0 64 64" style="enable-background:new 0 0 64 64;" xml:space="preserve">
<metadata><?xpacket begin="﻿" id="W5M0MpCehiHzreSzNTczkc9d"?>
<x:xmpmeta xmlns:x="adobe:ns:meta/" x:xmptk="Adobe XMP Core 5.6-c111 79.158366, 2015/09/25-01:12:00        ">
   <rdf:RDF xmlns:rdf="http://www.w3.org/1999/02/22-rdf-syntax-ns#">
      <rdf:Description rdf:about=""/>
   </rdf:RDF>
</x:xmpmeta>
                                                                                                    
                                                                                                    
                                                                                                    
                                                                                                    
                                                                                                    
                                                                                                    
                                                                                                    
                                                                                                    
                                                                                                    
                                                                                                    
                                                                                                    
                                                                                                    
                                                                                                    
                                                                                                    
                                                                                                    
                                                                                                    
                                                                                                    
                                                                                                    
                                                                                                    
                                                                                                    
                           
<?xpacket end="w"?></metadata>
<style type="text/css">
	.st0{fill:none;}
	.st1{fill:#5B554D;}
</style>
<rect class="st0" width="64" height="64"/>
<g>
	<g>
		<g>
			<path class="st1" d="M29.8,39.6C29.7,39.6,29.7,39.6,29.8,39.6c-4.8-0.5-8.8-2-11.2-4.3c-2-1.9-3-3.8-3.2-6
				c-0.3-2.8,1.2-5.2,2.8-7.1c0.4-0.5,0.9-1.1,1.4-1.6c1.3-1.4,2.7-2.9,3-4.5c0.1-0.8-0.1-2.4-0.9-3c-0.2-0.2-0.3-0.6-0.2-0.8
				c0.1-0.3,0.4-0.4,0.7-0.3c2.4,0.7,4.8,3.8,4.7,6c0,0.4-0.3,0.6-0.7,0.6l0,0c-0.4,0-0.6-0.3-0.6-0.7c0-1-0.8-2.4-1.9-3.5
				c0.2,0.7,0.2,1.4,0.1,1.9c-0.4,1.9-1.9,3.6-3.3,5.1c-0.5,0.5-1,1-1.4,1.5c-1.3,1.7-2.7,3.8-2.5,6.2c0.1,1.9,1,3.5,2.8,5.2
				c2.2,2.1,5.9,3.5,10.3,4c0.4,0,0.6,0.4,0.6,0.7C30.4,39.4,30.1,39.6,29.8,39.6z"/>
		</g>
		<g>
			<path class="st1" d="M35.1,39.6c-0.3,0-0.6-0.2-0.7-0.6c0-0.4,0.2-0.7,0.6-0.7c3.5-0.5,6.7-1.7,8.9-3.6c2.3-1.9,4.1-5.3,1.9-8.6
				c-0.8-1.1-1.3-1.7-2.5-3l-0.2-0.2c-0.8-0.8-1.9-2-2.2-3.2c-0.1-0.4-0.2-0.8-0.2-1.2c-1,1-1.4,2-1.2,3c0.1,0.4-0.1,0.7-0.5,0.8
				c-0.4,0.1-0.7-0.1-0.8-0.5c-0.5-1.9,0.5-3.8,3.1-5.6l0.1-0.1c0.3-0.2,0.6-0.2,0.9,0.1c0.2,0.2,0.2,0.6,0,0.9
				c-0.6,0.8-0.3,1.8-0.2,2.2c0.3,0.9,1.2,1.9,1.9,2.7l0.2,0.2c1.3,1.4,1.8,2,2.6,3.2c2.6,3.8,0.8,7.9-2.1,10.4
				C42.4,37.7,39,39.1,35.1,39.6C35.2,39.6,35.2,39.6,35.1,39.6z"/>
		</g>
		<g>
			<path class="st1" d="M34.2,39.9h-2.9h-0.1c-4.8-1-9.4-2.4-11.2-6.4c-1.3-2.9-1-5.9,1.1-8.9c0.8-1.3,2.1-2.8,3.3-4.3
				c1.5-1.8,3.1-3.7,3.4-4.6c0.5-1.6-0.1-3.1-0.8-4.7c-0.5-1.2-1-2.5-1-3.8c-0.1-2.5,2-5,5-6.2c0.3-0.1,0.7,0,0.8,0.3
				c0.1,0.3,0,0.7-0.3,0.9c-1,0.6-2.5,1.8-1.9,3.6c0.4,1,1.5,1.9,2.6,2.8c0.9,0.7,1.7,1.4,2.3,2.2c0,0,0-0.1-0.1-0.1
				c-0.2-0.2-0.1-0.6,0-0.8c0.2-0.2,0.5-0.3,0.8-0.2c1.6,0.6,2.7,2.1,3.1,3.8c0.2,1,0,2-0.3,2.9c-0.3,1.3-0.6,2.6,0.3,3.9
				c0.5,0.7,1.1,1.4,1.8,2.2c2.2,2.5,4.6,5.3,3.8,9.4c-1.1,5.6-6.9,7.2-9.7,7.9C34.3,39.9,34.3,39.9,34.2,39.9z M31.4,38.6h2.7
				c4-1.1,7.8-2.7,8.7-6.9c0.7-3.5-1.5-5.9-3.5-8.3c-0.7-0.8-1.3-1.5-1.9-2.3c-1.3-1.8-0.9-3.5-0.5-5c0.2-0.8,0.4-1.6,0.2-2.3
				c-0.1-0.7-0.4-1.2-0.8-1.7c0.1,1.3-0.5,2.7-1.7,3.6c-0.3,0.2-0.6,0.1-0.9-0.1c-0.2-0.2-0.2-0.6,0-0.9c0.7-0.9,0.7-1.7,0-2.8
				c-0.5-0.8-1.3-1.5-2.3-2.2c-1.2-1-2.5-2-3-3.4c-0.2-0.5-0.3-1.1-0.2-1.6c-0.6,0.8-1,1.7-0.9,2.6c0,1.1,0.5,2.2,0.9,3.4
				c0.7,1.8,1.5,3.6,0.8,5.6c-0.4,1.1-1.9,2.9-3.6,5c-1.2,1.5-2.5,3-3.3,4.2c-1.8,2.7-2.1,5.1-1,7.6C22.7,36.3,27,37.7,31.4,38.6z"
				/>
		</g>
		<g>
			<path class="st1" d="M32.7,38.8c-0.1,0-0.3,0-0.4,0c-3,0.1-7-2.3-7.4-5.4c-0.2-2,0.5-3.6,2-4.7c0.1-0.1,0.2-0.1,0.2-0.1
				c-0.3-0.4-0.5-0.9-0.6-1.4c-0.2-1.4,0.6-3,2-3.8c0.1-0.1,0.2-0.1,0.4-0.1c0.5-2.1,2.2-4.6,4.8-5.8c0.3-0.1,0.6,0,0.8,0.2
				c0.2,0.3,0.2,0.6,0,0.8c-1.4,1.5-1.1,3.1,1,5.5c0.7,0.7,2.9,3.3,4,5.2c1,1.9,0.8,4-0.4,5.9C37.7,37.3,35.1,38.8,32.7,38.8z
				 M32.3,37.4c2.1,0.2,4.4-1.1,5.7-3c0.6-0.9,1.4-2.6,0.3-4.6c-0.8-1.4-2.5-3.5-3.8-4.9c-1.1-1.3-2.4-3-2.2-4.8
				c-1.4,1.4-2.2,3.1-2.2,4.2c0,1.3,0.4,2.2,1.4,3.2c0.2,0.2,0.3,0.5,0.2,0.8c-0.1,0.3-0.4,0.4-0.7,0.4c-1.3-0.1-2.3-1.3-2.8-2.5
				c-0.1-0.1-0.1-0.3-0.1-0.4c-0.2,0.4-0.3,0.9-0.3,1.3c0.1,0.6,0.7,1.2,1.3,1.8c0.3,0.2,0.5,0.5,0.7,0.8c0.6,0.7,0.8,1.5,0.5,2.2
				c-0.2,0.7-0.8,1.2-1.6,1.4c-1.2,0.3-2.2-0.3-2.6-1.1c0,0.3,0,0.7,0,1.1C26.5,35.5,29.9,37.5,32.3,37.4z M28,29.4
				c0,0.1-0.1,0.2-0.2,0.3c-0.4,0.3-0.6,0.9-0.5,1.5c0,0.2,0.3,0.9,1.3,0.7c0.2-0.1,0.5-0.2,0.6-0.5s0-0.7-0.3-1
				c-0.2-0.2-0.4-0.5-0.7-0.7C28.2,29.6,28.1,29.5,28,29.4z"/>
		</g>
	</g>
	<g>
		<g>
			<path class="st1" d="M23.4,62.3c-0.2,0-0.4-0.1-0.5-0.3c-0.2-0.3-0.2-0.7,0.1-0.9l23.7-17.5c0.6-0.4,0.8-1.3,0.4-1.9
				c-0.2-0.4-0.5-0.6-0.9-0.7c-0.4-0.1-0.8-0.1-1.2,0.1C36,45.9,19,55,18.5,55.3c-0.3,0.2-0.7,0.1-0.9-0.2c-0.2-0.3-0.1-0.7,0.2-0.9
				c0.1,0,0.2-0.2,26.6-14.2c0.7-0.4,1.4-0.4,2.2-0.2c0.7,0.2,1.3,0.7,1.7,1.4c0.7,1.2,0.3,2.8-0.8,3.6L23.8,62.2
				C23.6,62.2,23.5,62.3,23.4,62.3z"/>
		</g>
		<g>
			<path class="st1" d="M21.6,63c-1.5,0-3.1-1-4.2-2.8c-1.4-2.4-1.2-5.1,0.5-6.1s4.2,0,5.7,2.4s1.2,5.1-0.5,6.1
				C22.6,62.8,22.1,63,21.6,63z M19.4,54.9c-0.3,0-0.6,0.1-0.8,0.2c-1.1,0.6-1.1,2.6,0,4.3c1,1.7,2.8,2.6,3.9,2s1.1-2.6,0-4.3
				C21.6,55.8,20.4,54.9,19.4,54.9z"/>
		</g>
	</g>
	<g>
		<path class="st1" d="M42.7,63c-0.5,0-1-0.1-1.5-0.4c-1.7-1.1-2-3.8-0.5-6.2l0,0c1.5-2.4,4-3.5,5.7-2.4c0.9,0.5,1.4,1.5,1.4,2.7
			c0.1,1.1-0.3,2.4-1,3.5s-1.6,2-2.6,2.4C43.7,62.9,43.2,63,42.7,63z M41.9,57.1c-1,1.7-1,3.7,0,4.4c0.5,0.3,1.1,0.3,1.8,0
			c0.8-0.4,1.5-1,2-1.9s0.8-1.8,0.8-2.7c0-0.8-0.3-1.4-0.8-1.6C44.7,54.5,42.9,55.4,41.9,57.1L41.9,57.1z"/>
	</g>
	<g>
		<g>
			<path class="st1" d="M25.8,51.1c-0.1,0-0.3,0-0.4-0.1l-8.6-6.3c-1.1-0.8-1.5-2.4-0.8-3.6c0.4-0.7,1-1.2,1.7-1.4
				c0.7-0.2,1.5-0.1,2.2,0.2l12.6,6.7c0.3,0.2,0.4,0.6,0.3,0.9c-0.2,0.3-0.6,0.4-0.9,0.3L19.3,41c-0.4-0.2-0.8-0.2-1.2-0.1
				c-0.4,0.1-0.7,0.4-0.9,0.7c-0.4,0.7-0.2,1.5,0.4,1.9l8.6,6.3c0.3,0.2,0.4,0.6,0.1,0.9C26.2,51,26,51.1,25.8,51.1z"/>
		</g>
		<g>
			<path class="st1" d="M46.1,55.2c-0.1,0-0.3,0-0.4-0.1c-0.2-0.1-0.3-0.2-0.5-0.3l-7-3.8c-0.3-0.2-0.4-0.6-0.3-0.9
				c0.2-0.3,0.6-0.4,0.9-0.3l7.1,3.8c0.2,0.1,0.4,0.3,0.6,0.4c0.3,0.2,0.4,0.6,0.1,0.9C46.5,55.1,46.3,55.2,46.1,55.2z"/>
		</g>
		<g>
			<path class="st1" d="M40.9,62.3c-0.1,0-0.3,0-0.4-0.1l-8.8-6.5c-0.3-0.2-0.4-0.6-0.1-0.9c0.2-0.3,0.6-0.4,0.9-0.1l8.8,6.5
				c0.3,0.2,0.4,0.6,0.1,0.9C41.3,62.2,41.1,62.3,40.9,62.3z"/>
		</g>
	</g>
</g>
</svg>
