<?xml version="1.0" encoding="utf-8"?>
<!-- Generator: Adobe Illustrator 19.2.1, SVG Export Plug-In . SVG Version: 6.00 Build 0)  -->
<svg version="1.1" id="Layer_1" xmlns="http://www.w3.org/2000/svg" xmlns:xlink="http://www.w3.org/1999/xlink" x="0px" y="0px"
	 viewBox="0 0 64 64" style="enable-background:new 0 0 64 64;" xml:space="preserve">
<metadata><?xpacket begin="﻿" id="W5M0MpCehiHzreSzNTczkc9d"?>
<x:xmpmeta xmlns:x="adobe:ns:meta/" x:xmptk="Adobe XMP Core 5.6-c111 79.158366, 2015/09/25-01:12:00        ">
   <rdf:RDF xmlns:rdf="http://www.w3.org/1999/02/22-rdf-syntax-ns#">
      <rdf:Description rdf:about=""/>
   </rdf:RDF>
</x:xmpmeta>
                                                                                                    
                                                                                                    
                                                                                                    
                                                                                                    
                                                                                                    
                                                                                                    
                                                                                                    
                                                                                                    
                                                                                                    
                                                                                                    
                                                                                                    
                                                                                                    
                                                                                                    
                                                                                                    
                                                                                                    
                                                                                                    
                                                                                                    
                                                                                                    
                                                                                                    
                                                                                                    
                           
<?xpacket end="w"?></metadata>
<style type="text/css">
	.st0{fill:none;}
	.st1{fill:#5B554D;}
</style>
<rect class="st0" width="64" height="64"/>
<g id="svg_1">
	<g id="svg_2">
		<path class="st1" d="M6,63c-0.4,0-0.7-0.3-0.8-0.6c-0.1-0.6,14.6-58,14.9-58.6c0,0,1-0.3,1.2-0.4c3.5-2.4,7.4-3,11-1.7
			c1.7,0.6,3.8,2,7.3,4.7c5,3.8,7.5,5.1,10.3,5.1c0,0,0,0,0.1,0c1.8,0,4.2-1,6.4-2.6c0.8-0.6,1.2-0.8,1.7-0.6
			c0.2,0.1,0.5,0.4,0.5,0.6c0,0.2,0.1,0.4-3.6,14.9L51.5,38c0,0.2-0.1,0.3-0.3,0.4l-1,0.8c-2,1.6-3.1,2.1-5.8,2.6
			c-2.4,0.5-2.6,0.5-4.4,0.1c-2.3-0.5-4.5-1.7-8.5-4.8c-5.2-4-7.9-5.4-10.7-5.3c-1.9,0-4.3,1-6.2,2.5c-0.2,0.2-0.5,0.2-0.7,0.1
			C10.4,48,7,61.4,6.8,62.3c0,0.3-0.3,0.6-0.6,0.7C6.1,63,6.1,63,6,63z M38.1,39.2l0.9,0.3c0.8,0.3,1.9,0.6,2.4,0.7h0l0.1,0
			c0.5,0.1,1,0.1,1.1,0.1c0.1-0.1,0.4-1.1,0.6-2c0.2-0.9,0.4-1.5,0.5-2c-1.1,0-2.8-0.4-3.9-0.9l-0.5-0.2L38.1,39.2z M45.2,36.2
			c-0.1,0.4-0.2,1.2-0.5,2.4c-0.2,0.7-0.3,1.3-0.5,1.7c2.4-0.5,3.2-0.8,5-2.3l0.8-0.6l0.9-3.7l-0.3,0.2c-0.8,0.6-2,1.2-2.6,1.5
			C48.1,35.4,46.4,36.1,45.2,36.2z M32.5,35.8C32.5,35.8,32.5,35.8,32.5,35.8c1.7,1.3,3,2.3,4.2,3l1.1-4.4c-0.6-0.3-1.6-1-3.4-2.4
			c-0.2-0.2-0.4-0.3-0.6-0.5c-0.1,0.4-0.2,0.9-0.4,1.5C32.9,34.6,32.7,35.4,32.5,35.8z M39.5,33.6l0.8,0.3c1.3,0.5,3.1,0.9,3.7,0.8
			c0,0,0.1,0,0.1,0c0.1-0.4,0.3-1.1,0.5-2.2c0.2-0.8,0.4-1.5,0.5-2c-0.1,0-0.2,0-0.4,0c-1.4-0.1-2.5-0.4-3.9-1c-0.1,0-0.1,0-0.2-0.1
			c-0.1,0.4-0.3,1-0.5,1.8C39.9,32.4,39.7,33.2,39.5,33.6z M46.8,30.4c-0.1,0.4-0.3,1.1-0.6,2.5c-0.2,0.7-0.3,1.2-0.4,1.6
			c0.5-0.1,1.2-0.3,1.8-0.6c0.5-0.2,1.6-0.9,2.4-1.4l1.2-0.8l0.6-2.5c0.1-0.4,0.2-0.7,0.2-1c-0.8,0.5-1.7,1-2.3,1.2
			C49.6,29.6,47.9,30.3,46.8,30.4z M27.3,31.6l0.9,0.6c0.8,0.5,2,1.3,2.7,1.9c0.2,0.1,0.3,0.3,0.5,0.4c0.1-0.4,0.3-1,0.5-1.7
			c0.3-1.1,0.4-1.8,0.6-2.2c-0.3-0.2-0.7-0.5-1.3-1c-0.8-0.6-2-1.5-2.6-1.8c0,0-0.1-0.1-0.2-0.1c-0.1,0.5-0.3,1.3-0.5,2.1L27.3,31.6
			z M34.1,29.9c0.3,0.2,0.6,0.5,1.2,0.9c1.6,1.2,2.4,1.8,2.9,2c0.1-0.5,0.3-1.2,0.5-2c0.3-1,0.4-1.7,0.6-2.2l-0.2-0.1
			c-0.5-0.3-1.8-1.2-2.8-1.9c-0.4-0.3-0.8-0.6-1.2-0.9c-0.1,0.4-0.3,1-0.4,1.7C34.4,28.6,34.2,29.4,34.1,29.9z M20.7,26
			c-0.6,0.1-1.5,0.4-2.2,0.8c-1.6,0.8-2.8,1.6-2.9,1.8c0,0.1-0.4,1.1-0.7,2.5l0,0c-0.1,0.3-0.1,0.5-0.2,0.7c1.4-0.8,3-1.5,4.3-1.7
			l0.8-0.1L20.7,26z M21.2,30.2c1.4,0,2.9,0.4,4.5,1.2l0.5-1.9c0.3-1.1,0.5-2.2,0.6-2.6c-0.2-0.1-0.3-0.1-0.5-0.2
			c-1.2-0.5-3-0.9-3.4-0.8c-0.2,0-0.4,0.1-0.6,0.1L21.2,30.2z M41,27.9c0.1,0,0.3,0.1,0.4,0.2c1.3,0.6,2.2,0.8,3.4,0.9
			c0.3,0,0.5,0,0.7,0.1c0.1-0.4,0.3-1.1,0.6-2.3c0.2-0.8,0.4-1.4,0.5-1.9c-1.2,0-3.1-0.5-4.2-1c-0.1,0-0.2-0.1-0.3-0.1
			c-0.1,0.5-0.3,1.2-0.6,2.2L41,27.9z M28.7,26.1c0.2,0.1,0.3,0.2,0.5,0.3c0.6,0.4,1.9,1.2,2.8,1.9c0.3,0.2,0.5,0.4,0.8,0.6
			c0.1-0.5,0.3-1.1,0.4-1.8c0.3-1.2,0.5-1.9,0.6-2.4c-0.3-0.2-0.9-0.6-1.9-1.3c-0.9-0.7-1.8-1.3-2.2-1.6c-0.1,0.3-0.2,0.8-0.3,1.3
			L29.2,24C28.9,25.1,28.8,25.7,28.7,26.1z M48.2,24.7c-0.1,0.4-0.3,1.1-0.6,2.4c-0.2,0.7-0.3,1.2-0.4,1.7c0.6-0.1,1.3-0.4,1.8-0.6
			c0.6-0.2,1.6-0.8,2.3-1.3c0.9-0.6,1.3-0.9,1.6-1l0.6-2.6c0.1-0.3,0.2-0.7,0.3-1C52.2,23.4,49.5,24.6,48.2,24.7z M35.5,24.1
			c0.4,0.3,1,0.8,1.7,1.3c1,0.7,2,1.4,2.4,1.7l0.4-1.7c0.3-1.3,0.5-2.1,0.7-2.5c-0.6-0.3-1.6-1-3.4-2.3c-0.3-0.2-0.5-0.4-0.7-0.5
			c-0.1,0.4-0.3,1.1-0.5,1.8C35.9,22.9,35.7,23.6,35.5,24.1z M16.8,22.9c-0.3,1.1-0.6,2.3-0.9,3.5c0.7-0.4,1.4-0.8,1.9-1
			c0,0,2.1-1,3.5-1c0-0.6,0.2-1.3,0.5-2.5c0.2-0.7,0.3-1.3,0.4-1.7l-0.1,0c-1.6,0.4-2.9,1.1-4.2,2C17.4,22.5,17,22.8,16.8,22.9z
			 M23,24.2c1,0,2.9,0.5,3.9,0.9c0.1,0.1,0.2,0.1,0.4,0.1c0.1-0.4,0.2-0.9,0.4-1.6l0.2-0.9c0.2-0.8,0.3-1.4,0.4-1.7
			c-0.1-0.1-0.3-0.1-0.5-0.2c-1.1-0.5-2.3-0.8-3.5-0.8c-0.2,0-0.3,0-0.5,0c-0.1,0.5-0.3,1.3-0.6,2.3c-0.1,0.6-0.4,1.4-0.5,1.9
			C22.9,24.2,23,24.2,23,24.2z M42.5,22.1c0.2,0.1,0.4,0.1,0.6,0.2c1,0.5,2.9,0.9,3.8,0.9c0.1,0,0.2,0,0.2,0
			c0.1-0.5,0.2-1.2,0.5-2.4c0.2-0.8,0.3-1.4,0.4-1.8c-1.1,0-2.8-0.5-3.9-0.9c-0.2-0.1-0.4-0.2-0.6-0.2
			C43.3,18.9,42.8,20.9,42.5,22.1z M30.1,20.2L30.1,20.2c0.5,0.3,1.8,1.2,2.8,1.9c0.5,0.4,1,0.7,1.3,0.9c0.1-0.4,0.3-0.9,0.4-1.6
			c0.3-1.3,0.5-2.1,0.7-2.5c-0.3-0.2-0.7-0.5-1.4-1c-1-0.8-2.1-1.5-2.8-1.9c-0.1,0.5-0.3,1.1-0.5,1.9C30.4,19.1,30.3,19.8,30.1,20.2
			z M49.6,19c-0.1,0.5-0.2,1.2-0.5,2.3c-0.2,0.8-0.3,1.4-0.4,1.9c1.3-0.4,4.3-1.7,5.1-2.6c0.2-0.3,0.8-2.2,1.1-3.6
			c-1.4,0.9-2.7,1.5-4.1,1.9C50.3,18.8,49.9,18.9,49.6,19z M36.9,18.4c0.3,0.2,0.8,0.5,1.3,0.9c1.2,1,2.2,1.6,2.8,2
			c0.3-1.1,0.8-2.9,1.1-4.2c-0.6-0.3-1.5-0.9-3.1-2.1c-0.4-0.3-0.7-0.5-1-0.7c-0.1,0.4-0.3,1-0.5,1.7C37.3,17.2,37.1,18,36.9,18.4z
			 M18.4,17.1l-0.6,2.5v0c-0.1,0.4-0.2,0.7-0.2,1c1.3-0.8,2.7-1.4,4.2-1.8l0.9-0.2l0.6-2.2c0.2-0.8,0.4-1.4,0.5-1.9
			c-1,0.3-3,1.1-4.3,2L18.4,17.1z M24.2,18.5c0.1,0,0.1,0,0.2,0c1.4,0.1,2.8,0.4,4,0.9c0.1,0,0.2,0.1,0.2,0.1
			c0.1-0.4,0.3-1.1,0.5-1.9c0.3-1.2,0.5-1.9,0.6-2.3c-0.1-0.1-0.3-0.1-0.5-0.2c-0.5-0.2-1.4-0.5-1.8-0.6c-0.4-0.1-1.1-0.2-1.5-0.2
			l-0.8-0.1c-0.1,0.4-0.2,1.2-0.6,2.5L24.2,18.5z M43.9,16.4c0.2,0.1,0.5,0.2,0.8,0.3c1.3,0.5,3.2,0.9,3.7,0.8c0.1,0,0.1,0,0.2,0
			c0.1-0.5,0.2-1.2,0.6-2.4l0.4-1.7l-0.3,0c-1.6-0.1-2.1-0.2-3.8-0.9c-0.2-0.1-0.3-0.1-0.4-0.2c-0.1,0.5-0.3,1.1-0.5,1.9
			C44.2,15.3,44,16,43.9,16.4z M31.6,14.6c1.3,0.6,3.2,2.1,3.3,2.2c0.3,0.2,0.6,0.4,0.8,0.6c0.1-0.4,0.3-1,0.5-1.7
			c0.3-1.3,0.5-2,0.7-2.4c-0.4-0.2-0.9-0.6-1.6-1.2c-1.1-0.9-2-1.4-2.5-1.7C32.4,11.5,31.9,13.4,31.6,14.6z M51.2,12.9l-0.6,2.5
			c-0.2,0.7-0.3,1.4-0.4,1.9c0.1,0,0.2,0,0.2-0.1c1.4-0.4,2.7-1,4.1-2c0.7-0.5,1.1-0.6,1.3-0.7c0.4-1.7,0.8-3.1,1-4.1
			C54.9,11.8,53,12.6,51.2,12.9z M38.4,12.7c0.4,0.2,0.9,0.6,1.5,1.1c1.1,0.9,2,1.4,2.5,1.8c0.1-0.4,0.3-1,0.5-1.8
			c0.5-1.9,0.6-2.5,0.7-2.7c-1.2-0.7-2.6-1.6-4.1-2.8c-0.1,0.5-0.2,1.1-0.5,2C38.8,11.5,38.6,12.3,38.4,12.7z M19.7,11.4
			c-0.3,1.1-0.6,2.3-0.9,3.5c1.4-0.8,3.9-2.1,5.3-2.1c0.1-0.5,0.2-1.2,0.5-2.2c0.2-0.8,0.4-1.4,0.5-1.8l-0.1,0
			c-1.2,0.2-3.7,1.4-4.5,2.1C20.3,11.1,20,11.3,19.7,11.4z M30.7,14L30.7,14L30.7,14z M25.7,12.7l0.4,0c0.5,0,1.3,0.2,1.8,0.3
			c0,0,0,0,0,0c0.5,0.1,1.4,0.4,2,0.7c0.1,0,0.2,0.1,0.2,0.1c0.3-1,0.8-3.1,1.1-4.3l-0.1,0c-1.8-0.8-3.7-1.1-4.3-1
			c-0.1,0.4-0.4,1.3-0.7,2.5C25.9,11.8,25.8,12.4,25.7,12.7z M33,8.8c0.6,0.3,1.5,0.9,3.1,2.1c0.4,0.3,0.8,0.6,1,0.8
			c0.1-0.4,0.3-1,0.5-1.7c0.2-0.9,0.5-2.1,0.5-2.3c-0.6-0.5-2.8-2.1-4-2.8c-0.1,0.4-0.3,1.1-0.5,1.9L33,8.8z M26.5,3.1
			c-0.9,0.3-2.4,0.9-3.2,1.4c-1.8,1.1-1.9,1.1-2.6,3.8c-0.1,0.3-0.1,0.6-0.2,0.8c1.3-0.8,3.2-1.6,4.3-1.8l0.8-0.1l0.6-2.3
			C26.2,4.1,26.4,3.5,26.5,3.1z M27.1,6.9C28.7,7,31,7.8,31.6,8l0.5-1.8c0.4-1.4,0.6-2.2,0.8-2.6c-0.4-0.2-0.7-0.4-1.1-0.5
			c-1.2-0.4-2.4-0.6-3.7-0.6c-0.1,0.5-0.3,1.3-0.6,2.6L27.1,6.9z M27.3,2.8L27.3,2.8z"/>
	</g>
</g>
</svg>
