<?xml version="1.0" encoding="utf-8"?>
<!-- Generator: Adobe Illustrator 19.2.1, SVG Export Plug-In . SVG Version: 6.00 Build 0)  -->
<svg version="1.1" id="Layer_1" xmlns="http://www.w3.org/2000/svg" xmlns:xlink="http://www.w3.org/1999/xlink" x="0px" y="0px"
	 viewBox="0 0 64 64" style="enable-background:new 0 0 64 64;" xml:space="preserve">
<metadata><?xpacket begin="﻿" id="W5M0MpCehiHzreSzNTczkc9d"?>
<x:xmpmeta xmlns:x="adobe:ns:meta/" x:xmptk="Adobe XMP Core 5.6-c111 79.158366, 2015/09/25-01:12:00        ">
   <rdf:RDF xmlns:rdf="http://www.w3.org/1999/02/22-rdf-syntax-ns#">
      <rdf:Description rdf:about=""/>
   </rdf:RDF>
</x:xmpmeta>
                                                                                                    
                                                                                                    
                                                                                                    
                                                                                                    
                                                                                                    
                                                                                                    
                                                                                                    
                                                                                                    
                                                                                                    
                                                                                                    
                                                                                                    
                                                                                                    
                                                                                                    
                                                                                                    
                                                                                                    
                                                                                                    
                                                                                                    
                                                                                                    
                                                                                                    
                                                                                                    
                           
<?xpacket end="w"?></metadata>
<style type="text/css">
	.st0{fill:none;}
	.st1{fill:#5B554D;}
</style>
<rect class="st0" width="64" height="64"/>
<g>
	<g>
		<path class="st1" d="M11.3,63c-0.2,0-0.3,0-0.5-0.1c-0.4-0.2-0.5-0.7-0.4-1.1l10.9-29.7h-5.7c-0.3,0-0.6-0.1-0.7-0.4
			c-0.2-0.2-0.2-0.5-0.1-0.8l9.4-29.3C24.3,1.3,24.7,1,25.1,1h27.6c0.3,0,0.6,0.2,0.8,0.5s0.1,0.7-0.1,0.9l-16.5,23h5.2
			c0.4,0,0.7,0.2,0.8,0.5s0.1,0.7-0.1,1L12,62.7C11.8,62.9,11.6,63,11.3,63z M16.9,30.3h5.8c0.3,0,0.6,0.1,0.7,0.4
			c0.2,0.2,0.2,0.5,0.1,0.8l-9.6,26.3l26.4-30.6h-5c-0.3,0-0.6-0.2-0.8-0.5s-0.1-0.7,0.1-0.9L51,2.8H25.7L16.9,30.3z"/>
	</g>
</g>
</svg>
