<?xml version="1.0" encoding="utf-8"?>
<!-- Generator: Adobe Illustrator 19.2.1, SVG Export Plug-In . SVG Version: 6.00 Build 0)  -->
<svg version="1.1" id="Layer_1" xmlns="http://www.w3.org/2000/svg" xmlns:xlink="http://www.w3.org/1999/xlink" x="0px" y="0px"
	 viewBox="0 0 64 64" style="enable-background:new 0 0 64 64;" xml:space="preserve">
<metadata><?xpacket begin="﻿" id="W5M0MpCehiHzreSzNTczkc9d"?>
<x:xmpmeta xmlns:x="adobe:ns:meta/" x:xmptk="Adobe XMP Core 5.6-c111 79.158366, 2015/09/25-01:12:00        ">
   <rdf:RDF xmlns:rdf="http://www.w3.org/1999/02/22-rdf-syntax-ns#">
      <rdf:Description rdf:about=""/>
   </rdf:RDF>
</x:xmpmeta>
                                                                                                    
                                                                                                    
                                                                                                    
                                                                                                    
                                                                                                    
                                                                                                    
                                                                                                    
                                                                                                    
                                                                                                    
                                                                                                    
                                                                                                    
                                                                                                    
                                                                                                    
                                                                                                    
                                                                                                    
                                                                                                    
                                                                                                    
                                                                                                    
                                                                                                    
                                                                                                    
                           
<?xpacket end="w"?></metadata>
<style type="text/css">
	.st0{fill:none;}
	.st1{fill:#5C564E;}
</style>
<rect class="st0" width="64" height="64"/>
<g>
	<g>
		<path class="st1" d="M54.6,20.5c-0.4,0-0.7-0.3-0.7-0.7v-4c0-0.7-0.6-1.2-1.2-1.2H24.4c-1.5,0-2-1.5-2.4-2.7
			c-0.5-1.6-0.8-2.3-1.8-2.3H9.4c-0.7,0-1.2,0.5-1.2,1.2v9.1c0,0.4-0.3,0.7-0.7,0.7s-0.7-0.3-0.7-0.7v-9.1c0-1.4,1.2-2.6,2.6-2.6
			h10.8c2.1,0,2.7,1.9,3.1,3.3c0.4,1.3,0.6,1.8,1.1,1.8h28.3c1.4,0,2.6,1.2,2.6,2.6v4C55.3,20.2,55,20.5,54.6,20.5z"/>
	</g>
	<g>
		<path class="st1" d="M45.1,54.1H7.1c-1.4,0-2.6-1.1-2.8-2.8L1,23.7c0-0.2,0-0.4,0.2-0.5C1.3,23.1,1.5,23,1.7,23h59.4
			c0.2,0,0.4,0.1,0.5,0.2c0.1,0.1,0.2,0.3,0.2,0.5l-1.6,13.6c0,0.4-0.4,0.6-0.8,0.6c-0.4,0-0.6-0.4-0.6-0.8l1.6-12.8H2.5l3.2,26.8
			c0.1,0.8,0.6,1.6,1.5,1.6h37.9c0.4,0,0.7,0.3,0.7,0.7S45.4,54.1,45.1,54.1z"/>
	</g>
	<g>
		<g>
			<g>
				<g>
					<path class="st1" d="M53.9,55.9c-5,0-9.2-4.1-9.2-9.1s4.1-9.1,9.2-9.1c5,0,9.1,4.1,9.1,9.1S58.9,55.9,53.9,55.9z M53.9,39
						c-4.3,0-7.8,3.5-7.8,7.8s3.5,7.8,7.8,7.8c4.3,0,7.8-3.5,7.8-7.8S58.1,39,53.9,39z"/>
				</g>
			</g>
		</g>
		<g>
			<path class="st1" d="M53.8,50.8c-0.4,0-0.7-0.3-0.7-0.7v-7c0-0.4,0.3-0.7,0.7-0.7s0.7,0.3,0.7,0.7v7
				C54.5,50.5,54.1,50.8,53.8,50.8z"/>
		</g>
		<g>
			<path class="st1" d="M57.3,47.3h-7c-0.4,0-0.7-0.3-0.7-0.7s0.3-0.7,0.7-0.7h7c0.4,0,0.7,0.3,0.7,0.7S57.6,47.3,57.3,47.3z"/>
		</g>
	</g>
</g>
</svg>
