<?xml version="1.0" encoding="utf-8"?>
<!-- Generator: Adobe Illustrator 19.2.1, SVG Export Plug-In . SVG Version: 6.00 Build 0)  -->
<svg version="1.1" id="Layer_1" xmlns="http://www.w3.org/2000/svg" xmlns:xlink="http://www.w3.org/1999/xlink" x="0px" y="0px"
	 viewBox="0 0 64 64" style="enable-background:new 0 0 64 64;" xml:space="preserve">
<metadata><?xpacket begin="﻿" id="W5M0MpCehiHzreSzNTczkc9d"?>
<x:xmpmeta xmlns:x="adobe:ns:meta/" x:xmptk="Adobe XMP Core 5.6-c111 79.158366, 2015/09/25-01:12:00        ">
   <rdf:RDF xmlns:rdf="http://www.w3.org/1999/02/22-rdf-syntax-ns#">
      <rdf:Description rdf:about=""/>
   </rdf:RDF>
</x:xmpmeta>
                                                                                                    
                                                                                                    
                                                                                                    
                                                                                                    
                                                                                                    
                                                                                                    
                                                                                                    
                                                                                                    
                                                                                                    
                                                                                                    
                                                                                                    
                                                                                                    
                                                                                                    
                                                                                                    
                                                                                                    
                                                                                                    
                                                                                                    
                                                                                                    
                                                                                                    
                                                                                                    
                           
<?xpacket end="w"?></metadata>
<style type="text/css">
	.st0{fill:none;}
	.st1{fill:#5C564E;}
</style>
<rect class="st0" width="64" height="64"/>
<g>
	<g>
		<path class="st1" d="M56.7,55.2H7.3c-1.4,0-2.6-1.2-2.9-2.8L1,24.3c0-0.2,0-0.4,0.2-0.5c0.1-0.1,0.3-0.2,0.5-0.2h60.6
			c0.2,0,0.4,0.1,0.5,0.2c0.1,0.1,0.2,0.3,0.2,0.5l-3.4,28.1C59.1,54.7,57.8,55.2,56.7,55.2z M2.5,24.9l3.3,27.3
			c0.1,0.8,0.6,1.6,1.5,1.6h49.5c0.5,0,1.2-0.2,1.5-1.7l3.3-27.3H2.5z"/>
	</g>
	<g>
		<path class="st1" d="M55.7,21.4c-0.4,0-0.7-0.3-0.7-0.7v-4c0-0.7-0.6-1.3-1.3-1.3H24.9c-1.6,0-2-1.6-2.4-2.8
			c-0.5-1.6-0.8-2.4-1.9-2.4H9.6c-0.7,0-1.2,0.5-1.2,1.2v9.3c0,0.4-0.3,0.7-0.7,0.7c-0.4,0-0.7-0.3-0.7-0.7v-9.3
			c0-1.5,1.2-2.6,2.6-2.6h11.1c2.1,0,2.7,1.9,3.2,3.4c0.4,1.3,0.6,1.8,1.1,1.8h28.9c1.5,0,2.6,1.2,2.6,2.7v4
			C56.4,21.1,56.1,21.4,55.7,21.4z"/>
	</g>
</g>
</svg>
