<?xml version="1.0" encoding="utf-8"?>
<!-- Generator: Adobe Illustrator 19.2.1, SVG Export Plug-In . SVG Version: 6.00 Build 0)  -->
<svg version="1.1" id="Layer_1" xmlns="http://www.w3.org/2000/svg" xmlns:xlink="http://www.w3.org/1999/xlink" x="0px" y="0px"
	 viewBox="0 0 64 64" style="enable-background:new 0 0 64 64;" xml:space="preserve">
<metadata><?xpacket begin="﻿" id="W5M0MpCehiHzreSzNTczkc9d"?>
<x:xmpmeta xmlns:x="adobe:ns:meta/" x:xmptk="Adobe XMP Core 5.6-c111 79.158366, 2015/09/25-01:12:00        ">
   <rdf:RDF xmlns:rdf="http://www.w3.org/1999/02/22-rdf-syntax-ns#">
      <rdf:Description rdf:about=""/>
   </rdf:RDF>
</x:xmpmeta>
                                                                                                    
                                                                                                    
                                                                                                    
                                                                                                    
                                                                                                    
                                                                                                    
                                                                                                    
                                                                                                    
                                                                                                    
                                                                                                    
                                                                                                    
                                                                                                    
                                                                                                    
                                                                                                    
                                                                                                    
                                                                                                    
                                                                                                    
                                                                                                    
                                                                                                    
                                                                                                    
                           
<?xpacket end="w"?></metadata>
<style type="text/css">
	.st0{fill:none;}
	.st1{fill:#5C564E;}
</style>
<rect class="st0" width="64" height="64"/>
<g>
	<g>
		<path class="st1" d="M59.8,58.5H4.2c-1.8,0-3.2-1.5-3.2-3.3V22.9c0-0.4,0.4-0.8,0.8-0.8h60.4c0.4,0,0.8,0.4,0.8,0.8v32.4
			C63,57.1,61.5,58.5,59.8,58.5z M2.6,23.6v31.6c0,0.9,0.7,1.7,1.7,1.7h55.5c0.9,0,1.7-0.8,1.7-1.7V23.6H2.6z"/>
	</g>
	<g>
		<path class="st1" d="M62.2,19.7c-0.4,0-0.8-0.4-0.8-0.8v-4c0-0.9-0.7-1.6-1.7-1.6H23.5c-1.9,0-2.5-1.9-3-3.4c-0.6-1.8-1-3-2.4-3
			H4.2c-0.9,0-1.6,0.7-1.7,1.6V19c0,0.4-0.4,0.8-0.8,0.8S1,19.4,1,19V8.6c0.1-1.8,1.5-3.1,3.2-3.1h13.9c2.6,0,3.4,2.3,3.9,4.1
			c0.5,1.5,0.8,2.3,1.5,2.3h36.3c1.8,0,3.2,1.4,3.2,3.2v4C63,19.4,62.6,19.7,62.2,19.7z"/>
	</g>
</g>
</svg>
