<?xml version="1.0" encoding="utf-8"?>
<!-- Generator: Adobe Illustrator 19.2.1, SVG Export Plug-In . SVG Version: 6.00 Build 0)  -->
<svg version="1.1" id="Layer_1" xmlns="http://www.w3.org/2000/svg" xmlns:xlink="http://www.w3.org/1999/xlink" x="0px" y="0px"
	 viewBox="0 0 64 64" style="enable-background:new 0 0 64 64;" xml:space="preserve">
<metadata><?xpacket begin="﻿" id="W5M0MpCehiHzreSzNTczkc9d"?>
<x:xmpmeta xmlns:x="adobe:ns:meta/" x:xmptk="Adobe XMP Core 5.6-c111 79.158366, 2015/09/25-01:12:00        ">
   <rdf:RDF xmlns:rdf="http://www.w3.org/1999/02/22-rdf-syntax-ns#">
      <rdf:Description rdf:about=""/>
   </rdf:RDF>
</x:xmpmeta>
                                                                                                    
                                                                                                    
                                                                                                    
                                                                                                    
                                                                                                    
                                                                                                    
                                                                                                    
                                                                                                    
                                                                                                    
                                                                                                    
                                                                                                    
                                                                                                    
                                                                                                    
                                                                                                    
                                                                                                    
                                                                                                    
                                                                                                    
                                                                                                    
                                                                                                    
                                                                                                    
                           
<?xpacket end="w"?></metadata>
<style type="text/css">
	.st0{fill:none;}
	.st1{fill:#5B554D;}
</style>
<rect class="st0" width="64" height="64"/>
<g>
	<g>
		<g>
			<g>
				<path class="st1" d="M32,49.7c-17.1,0-31-15.4-31-20.4c0,0,0-0.1,0-0.1c0.8-4.3,14.1-14.8,31-14.8c16.7,0,30.1,9.6,31,14.8
					c0,0,0,0.1,0,0.1v0.1C63,34.3,49.1,49.7,32,49.7z M2.4,29.3c0.1,4,13,19,29.6,19c16.7,0,29.6-15.1,29.6-19l0,0
					c-0.7-4.1-13-13.7-29.6-13.7C16,15.7,3.2,25.8,2.4,29.3z"/>
			</g>
			<g>
				<path class="st1" d="M10.5,37.7c-0.4,0-0.7-0.3-0.7-0.7c-0.1-3.5-0.5-11.7,0.4-16.4c0.1-0.4,0.4-0.6,0.8-0.5
					c0.4,0.1,0.6,0.4,0.5,0.8c-0.9,4.5-0.5,12.6-0.4,16.1C11.2,37.3,10.9,37.6,10.5,37.7C10.5,37.7,10.5,37.7,10.5,37.7z"/>
			</g>
			<g>
				<path class="st1" d="M15.1,40c-0.4,0-0.7-0.3-0.7-0.7c0-5.5,0.2-16.2,1.4-21.5c0.1-0.4,0.5-0.6,0.8-0.5c0.4,0.1,0.6,0.5,0.5,0.8
					c-1.2,5.2-1.4,15.7-1.4,21.2C15.8,39.7,15.5,40,15.1,40C15.1,40,15.1,40,15.1,40z"/>
			</g>
			<g>
				<path class="st1" d="M49.3,39.6c-0.4,0-0.7-0.3-0.7-0.7c0-1-0.1-2.1-0.1-3.3c-0.2-5.8-0.4-13.6-1.4-17.5
					c-0.1-0.4,0.1-0.7,0.5-0.8c0.4-0.1,0.7,0.1,0.8,0.5c1,4,1.3,12,1.5,17.8c0,1.2,0.1,2.3,0.1,3.3C50,39.2,49.7,39.6,49.3,39.6
					C49.4,39.6,49.3,39.6,49.3,39.6z"/>
			</g>
			<g>
				<path class="st1" d="M54.1,37.1C54.1,37.1,54.1,37.1,54.1,37.1c-0.4,0-0.7-0.3-0.7-0.7c0.1-2.8,0.4-11.3-0.5-15.7
					c-0.1-0.4,0.1-0.7,0.5-0.8c0.4-0.1,0.7,0.1,0.8,0.5c0.7,3,0.9,8.3,0.6,16C54.8,36.8,54.5,37.1,54.1,37.1z"/>
			</g>
			<g>
				<path class="st1" d="M57.7,24.1c-0.1,0-0.1,0-0.2,0c-17.2-5.9-31.9-4.6-41.3-2.5c-0.4,0.1-0.7-0.1-0.8-0.5
					c-0.1-0.4,0.1-0.7,0.5-0.8c9.5-2.2,24.5-3.5,42,2.5c0.4,0.1,0.6,0.5,0.4,0.9C58.2,23.9,58,24.1,57.7,24.1z"/>
			</g>
			<g>
				<path class="st1" d="M5.7,25c-0.3,0-0.5-0.1-0.6-0.4c-0.2-0.3,0-0.8,0.3-0.9c0.2-0.1,1.7-0.8,4.3-1.7c0.4-0.1,0.8,0.1,0.9,0.4
					c0.1,0.4-0.1,0.8-0.4,0.9c-2.5,0.8-3.9,1.5-4.1,1.6C5.9,24.9,5.8,25,5.7,25z"/>
			</g>
			<g>
				<g>
					<path class="st1" d="M20.3,25.3c-3.3,0-4.8-2-4.9-2.1c-0.2-0.3-0.2-0.7,0.1-1c0.3-0.2,0.7-0.2,1,0.1c0.1,0.1,1.9,2.4,5.9,1.3
						l0.8-0.2c1.5-0.4,2.6-0.7,3.7-0.5c0.1,0,0.3,0.1,0.5,0.1c1.5,0.5,5.1,1.5,10.2,0.2c1.2-0.3,3.2-0.3,4.9,0.4
						c1.3,0.5,4.6,0,5.1-1.3c0.1-0.4,0.6-0.5,0.9-0.4c0.4,0.1,0.5,0.6,0.4,0.9C48,25,43.9,25.8,42,25c-1.3-0.5-3.1-0.6-4-0.3
						c-5.5,1.4-9.5,0.2-11-0.3c-0.2-0.1-0.3-0.1-0.4-0.1c-0.7-0.2-1.7,0.1-3,0.5L22.7,25C21.8,25.2,21,25.3,20.3,25.3z"/>
				</g>
			</g>
			<g>
				<g>
					<path class="st1" d="M21.9,17.5h-0.1c-0.4,0-0.8,0.4-0.9,0.8l-0.9,3.3c-0.1,0.4,0.1,0.8,0.6,0.8h0.2c0.4,0,0.9-0.4,1-0.8
						l0.8-3.3C22.5,17.9,22.2,17.5,21.9,17.5z"/>
					<path class="st1" d="M42.6,17.5h-0.1c-0.4,0-0.6,0.4-0.5,0.8l0.8,3.3c0.1,0.4,0.5,0.8,1,0.8h0.2c0.4,0,0.7-0.4,0.6-0.8
						l-0.9-3.3C43.4,17.9,43,17.5,42.6,17.5z"/>
					<path class="st1" d="M24.9,17.1h-0.1c-0.4,0-0.8,0.4-0.9,0.8l-0.7,3.3c-0.1,0.4,0.2,0.8,0.6,0.8H24c0.4,0,0.8-0.4,0.9-0.8
						l0.6-3.3C25.5,17.5,25.3,17.1,24.9,17.1z"/>
					<path class="st1" d="M39.6,17.1h-0.1c-0.4,0-0.6,0.4-0.6,0.8l0.6,3.3c0.1,0.4,0.5,0.8,0.9,0.8h0.2c0.4,0,0.7-0.4,0.6-0.8
						l-0.7-3.3C40.4,17.5,40,17.1,39.6,17.1z"/>
					<path class="st1" d="M27.9,16.7h-0.1c-0.4,0-0.7,0.4-0.8,0.8l-0.4,3.3c-0.1,0.4,0.2,0.8,0.7,0.8h0.2c0.4,0,0.8-0.4,0.8-0.8
						l0.3-3.3C28.5,17.1,28.3,16.7,27.9,16.7z"/>
					<path class="st1" d="M36.6,16.7h-0.1c-0.4,0-0.7,0.4-0.6,0.8l0.3,3.3c0,0.4,0.4,0.8,0.8,0.8h0.2c0.4,0,0.7-0.4,0.7-0.8
						l-0.4-3.3C37.3,17.1,37,16.7,36.6,16.7z"/>
					<path class="st1" d="M30.8,16.4h-0.1c-0.4,0-0.7,0.4-0.7,0.8l-0.2,3.3c0,0.4,0.3,0.8,0.7,0.8h0.2c0.4,0,0.8-0.4,0.8-0.8
						l0.1-3.3C31.5,16.8,31.2,16.4,30.8,16.4z"/>
					<path class="st1" d="M33.7,16.4h-0.1c-0.4,0-0.7,0.4-0.7,0.8l0.1,3.3c0,0.4,0.4,0.8,0.8,0.8h0.2c0.4,0,0.7-0.4,0.7-0.8
						l-0.2-3.3C34.4,16.8,34.1,16.4,33.7,16.4z"/>
				</g>
			</g>
		</g>
	</g>
	<g>
		<path class="st1" d="M32,43.9c-16.4,0-30.5-10.6-30.8-14.7c0-0.4,0.2-0.7,0.6-0.7c0.4,0,0.7,0.2,0.7,0.6
			C2.8,31.8,15.8,42.5,32,42.5c16.1,0,28.7-10.8,29.5-13.6c0.1-0.4,0.5-0.6,0.8-0.5c0.4,0.1,0.6,0.5,0.5,0.8
			C61.9,32.8,49,43.9,32,43.9z"/>
	</g>
</g>
</svg>
