<?xml version="1.0" encoding="utf-8"?>
<!-- Generator: Adobe Illustrator 19.2.1, SVG Export Plug-In . SVG Version: 6.00 Build 0)  -->
<svg version="1.1" id="Layer_1" xmlns="http://www.w3.org/2000/svg" xmlns:xlink="http://www.w3.org/1999/xlink" x="0px" y="0px"
	 viewBox="0 0 64 64" style="enable-background:new 0 0 64 64;" xml:space="preserve">
<metadata><?xpacket begin="﻿" id="W5M0MpCehiHzreSzNTczkc9d"?>
<x:xmpmeta xmlns:x="adobe:ns:meta/" x:xmptk="Adobe XMP Core 5.6-c111 79.158366, 2015/09/25-01:12:00        ">
   <rdf:RDF xmlns:rdf="http://www.w3.org/1999/02/22-rdf-syntax-ns#">
      <rdf:Description rdf:about=""/>
   </rdf:RDF>
</x:xmpmeta>
                                                                                                    
                                                                                                    
                                                                                                    
                                                                                                    
                                                                                                    
                                                                                                    
                                                                                                    
                                                                                                    
                                                                                                    
                                                                                                    
                                                                                                    
                                                                                                    
                                                                                                    
                                                                                                    
                                                                                                    
                                                                                                    
                                                                                                    
                                                                                                    
                                                                                                    
                                                                                                    
                           
<?xpacket end="w"?></metadata>
<style type="text/css">
	.st0{fill:none;}
	.st1{fill:#5B554D;}
</style>
<rect class="st0" width="64" height="64"/>
<g>
	<g>
		<path class="st1" d="M1.9,50c-0.1,0-0.3,0-0.4-0.1C1.2,49.7,1,49.4,1,49.1v-34c0-0.3,0.2-0.6,0.4-0.7c0.3-0.2,0.6-0.2,0.9,0
			l29.7,17c0.3,0.2,0.4,0.4,0.4,0.7c0,0.3-0.2,0.6-0.4,0.7l-29.7,17C2.2,49.9,2,50,1.9,50z M2.7,16.6v31l27.1-15.5L2.7,16.6z"/>
	</g>
	<g>
		<path class="st1" d="M31.9,49.7c-0.1,0-0.3,0-0.4-0.1c-0.3-0.2-0.4-0.4-0.4-0.7V14.9c0-0.3,0.2-0.6,0.4-0.7c0.3-0.2,0.6-0.2,0.9,0
			l29.8,17c0.3,0.2,0.4,0.4,0.4,0.7s-0.2,0.6-0.4,0.7l-29.8,17C32.2,49.6,32.1,49.7,31.9,49.7z M32.8,16.4v31L60,31.8L32.8,16.4z"/>
	</g>
	<g>
		<path class="st1" d="M62.1,47.4c-0.5,0-0.9-0.4-0.9-0.9V16.1c0-0.5,0.4-0.9,0.9-0.9s0.9,0.4,0.9,0.9v30.4
			C63,47,62.6,47.4,62.1,47.4z"/>
	</g>
</g>
</svg>
