<?xml version="1.0" encoding="utf-8"?>
<!-- Generator: Adobe Illustrator 19.2.1, SVG Export Plug-In . SVG Version: 6.00 Build 0)  -->
<svg version="1.1" id="Layer_1" xmlns="http://www.w3.org/2000/svg" xmlns:xlink="http://www.w3.org/1999/xlink" x="0px" y="0px"
	 viewBox="0 0 64 64" style="enable-background:new 0 0 64 64;" xml:space="preserve">
<metadata><?xpacket begin="﻿" id="W5M0MpCehiHzreSzNTczkc9d"?>
<x:xmpmeta xmlns:x="adobe:ns:meta/" x:xmptk="Adobe XMP Core 5.6-c111 79.158366, 2015/09/25-01:12:00        ">
   <rdf:RDF xmlns:rdf="http://www.w3.org/1999/02/22-rdf-syntax-ns#">
      <rdf:Description rdf:about=""/>
   </rdf:RDF>
</x:xmpmeta>
                                                                                                    
                                                                                                    
                                                                                                    
                                                                                                    
                                                                                                    
                                                                                                    
                                                                                                    
                                                                                                    
                                                                                                    
                                                                                                    
                                                                                                    
                                                                                                    
                                                                                                    
                                                                                                    
                                                                                                    
                                                                                                    
                                                                                                    
                                                                                                    
                                                                                                    
                                                                                                    
                           
<?xpacket end="w"?></metadata>
<style type="text/css">
	.st0{fill:none;}
	.st1{fill:#5B554D;}
</style>
<rect class="st0" width="64" height="64"/>
<g>
	<path class="st1" d="M29,25L26,1l-4.8,0.6l3.1,22.9C25.8,24.7,27.4,24.9,29,25z"/>
	<path class="st1" d="M19.8,23.8c0.9,0.2,1.9,0.4,3,0.5l-1.3-9.2L19.8,23.8z"/>
	<polygon class="st1" points="29,11.8 30.5,25 34.1,8 34.3,3.9 29.4,3.7 	"/>
	<path class="st1" d="M37.2,2.7l-3.7,15.1L32,25.1c0.2,0,0.4,0,0.7,0c1.5,0,2.9-0.1,4.2-0.1l5-21.1L37.2,2.7z"/>
	<path class="st1" d="M38.6,24.8c1.7-0.2,3.3-0.4,4.8-0.6l-2.7-8.6L38.6,24.8z"/>
	<path class="st1" d="M43,6.1l-1.5,6.7l3.2,11.1c1.7-0.3,2.7-0.5,4.1-0.9L43,6.1z"/>
	<path class="st1" d="M50.2,17.4l-0.8,2.7l0.9,2.5h0.1c1.4-0.4,2.6-0.8,3.6-1.2l4.7-13l-4.6-1.7L50.2,17.4z"/>
	<path class="st1" d="M18.4,23.5L20.8,11l-4.3-0.9l-2.6,12.2C15.2,22.7,16.8,23.1,18.4,23.5z"/>
	<path class="st1" d="M12.3,21.8l1.4-6.4L10.8,5.1L6.1,6.4L10.2,21C10.6,21.1,12.3,21.8,12.3,21.8z"/>
	<polygon class="st1" points="49.3,15.5 50.4,2.9 45.6,2.5 45.1,7.6 48.6,17.8 	"/>
	<g>
		<path class="st1" d="M51.6,63H12.4c-0.5,0-0.9-0.3-0.9-0.8L4.7,20.7c-0.1-0.4,0.1-0.7,0.3-1c0.3-0.2,0.7-0.2,1-0.1
			c0.1,0.1,11.7,5.7,26.6,5.7c14.1,0,24.2-4.8,25.4-5.3c0.3-0.2,0.7-0.1,1,0.1s0.4,0.6,0.4,0.9l-6.8,41.2C52.5,62.7,52.1,63,51.6,63
			z M13.2,61.1h37.6l6.4-38.7c-3.7,1.5-12.8,4.8-24.5,4.8c-12,0-22-3.6-25.8-5.1L13.2,61.1z"/>
	</g>
</g>
</svg>
