<?xml version="1.0" encoding="utf-8"?>
<!-- Generator: Adobe Illustrator 19.2.1, SVG Export Plug-In . SVG Version: 6.00 Build 0)  -->
<svg version="1.1" id="Layer_1" xmlns="http://www.w3.org/2000/svg" xmlns:xlink="http://www.w3.org/1999/xlink" x="0px" y="0px"
	 viewBox="0 0 64 64" style="enable-background:new 0 0 64 64;" xml:space="preserve">
<metadata><?xpacket begin="﻿" id="W5M0MpCehiHzreSzNTczkc9d"?>
<x:xmpmeta xmlns:x="adobe:ns:meta/" x:xmptk="Adobe XMP Core 5.6-c111 79.158366, 2015/09/25-01:12:00        ">
   <rdf:RDF xmlns:rdf="http://www.w3.org/1999/02/22-rdf-syntax-ns#">
      <rdf:Description rdf:about=""/>
   </rdf:RDF>
</x:xmpmeta>
                                                                                                    
                                                                                                    
                                                                                                    
                                                                                                    
                                                                                                    
                                                                                                    
                                                                                                    
                                                                                                    
                                                                                                    
                                                                                                    
                                                                                                    
                                                                                                    
                                                                                                    
                                                                                                    
                                                                                                    
                                                                                                    
                                                                                                    
                                                                                                    
                                                                                                    
                                                                                                    
                           
<?xpacket end="w"?></metadata>
<style type="text/css">
	.st0{fill:none;}
	.st1{fill:#5B554D;}
</style>
<rect class="st0" width="64" height="64"/>
<g>
	<g>
		<g>
			<path class="st1" d="M60.2,59.8H3.8C2.3,59.8,1,58.6,1,57V16.1c0-1.5,1.3-2.8,2.8-2.8h56.4c1.5,0,2.8,1.3,2.8,2.8V57
				C63,58.6,61.7,59.8,60.2,59.8z M3.8,14.9c-0.6,0-1.2,0.5-1.2,1.2V57c0,0.6,0.5,1.2,1.2,1.2h56.4c0.6,0,1.2-0.5,1.2-1.2V16.1
				c0-0.6-0.5-1.2-1.2-1.2H3.8z"/>
		</g>
	</g>
	<g>
		<path class="st1" d="M57.9,10.3H6.1c-0.5,0-0.8-0.4-0.8-0.8s0.4-0.8,0.8-0.8h51.8c0.5,0,0.8,0.4,0.8,0.8S58.3,10.3,57.9,10.3z"/>
	</g>
	<g>
		<path class="st1" d="M53.9,5.8H10.1C9.6,5.8,9.3,5.4,9.3,5s0.4-0.8,0.8-0.8h43.8c0.5,0,0.8,0.4,0.8,0.8S54.4,5.8,53.9,5.8z"/>
	</g>
</g>
</svg>
