<?xml version="1.0" encoding="utf-8"?>
<!-- Generator: Adobe Illustrator 19.2.1, SVG Export Plug-In . SVG Version: 6.00 Build 0)  -->
<svg version="1.1" id="Layer_1" xmlns="http://www.w3.org/2000/svg" xmlns:xlink="http://www.w3.org/1999/xlink" x="0px" y="0px"
	 viewBox="0 0 64 64" style="enable-background:new 0 0 64 64;" xml:space="preserve">
<metadata><?xpacket begin="﻿" id="W5M0MpCehiHzreSzNTczkc9d"?>
<x:xmpmeta xmlns:x="adobe:ns:meta/" x:xmptk="Adobe XMP Core 5.6-c111 79.158366, 2015/09/25-01:12:00        ">
   <rdf:RDF xmlns:rdf="http://www.w3.org/1999/02/22-rdf-syntax-ns#">
      <rdf:Description rdf:about=""/>
   </rdf:RDF>
</x:xmpmeta>
                                                                                                    
                                                                                                    
                                                                                                    
                                                                                                    
                                                                                                    
                                                                                                    
                                                                                                    
                                                                                                    
                                                                                                    
                                                                                                    
                                                                                                    
                                                                                                    
                                                                                                    
                                                                                                    
                                                                                                    
                                                                                                    
                                                                                                    
                                                                                                    
                                                                                                    
                                                                                                    
                           
<?xpacket end="w"?></metadata>
<style type="text/css">
	.st0{fill:none;}
	.st1{fill:#5B554D;}
</style>
<rect class="st0" width="64" height="64"/>
<g>
	<path class="st1" d="M15.6,3.4v12.3H3.3V3.4H15.6 M18,1.1H1v17h17V1.1L18,1.1z"/>
	<path class="st1" d="M15.6,25.8v12.3H3.3V25.8H15.6 M18,23.5H1v17h17V23.5L18,23.5z"/>
	<path class="st1" d="M38.1,3.4v12.3H25.8V3.4H38.1 M40.4,1.1h-17v17h17V1.1L40.4,1.1z"/>
	<path class="st1" d="M38.1,25.8v12.3H25.8V25.8H38.1 M40.4,23.5h-17v17h17V23.5L40.4,23.5z"/>
	<path class="st1" d="M60.7,3.4v12.3H48.4V3.4H60.7 M63,1.1H46v17h17V1.1L63,1.1z"/>
	<path class="st1" d="M60.7,25.8v12.3H48.4V25.8H60.7 M63,23.5H46v17h17V23.5L63,23.5z"/>
	<path class="st1" d="M15.6,48.3v12.3H3.3V48.3H15.6 M18,46H1v17h17V46L18,46z"/>
	<path class="st1" d="M38.1,48.3v12.3H25.8V48.3H38.1 M40.4,46h-17v17h17V46L40.4,46z"/>
	<path class="st1" d="M60.7,48.3v12.3H48.4V48.3H60.7 M63,46H46v17h17V46L63,46z"/>
</g>
</svg>
