<?xml version="1.0" encoding="utf-8"?>
<!-- Generator: Adobe Illustrator 19.2.1, SVG Export Plug-In . SVG Version: 6.00 Build 0)  -->
<svg version="1.1" id="Layer_1" xmlns="http://www.w3.org/2000/svg" xmlns:xlink="http://www.w3.org/1999/xlink" x="0px" y="0px"
	 viewBox="0 0 64 64" style="enable-background:new 0 0 64 64;" xml:space="preserve">
<metadata><?xpacket begin="﻿" id="W5M0MpCehiHzreSzNTczkc9d"?>
<x:xmpmeta xmlns:x="adobe:ns:meta/" x:xmptk="Adobe XMP Core 5.6-c111 79.158366, 2015/09/25-01:12:00        ">
   <rdf:RDF xmlns:rdf="http://www.w3.org/1999/02/22-rdf-syntax-ns#">
      <rdf:Description rdf:about=""/>
   </rdf:RDF>
</x:xmpmeta>
                                                                                                    
                                                                                                    
                                                                                                    
                                                                                                    
                                                                                                    
                                                                                                    
                                                                                                    
                                                                                                    
                                                                                                    
                                                                                                    
                                                                                                    
                                                                                                    
                                                                                                    
                                                                                                    
                                                                                                    
                                                                                                    
                                                                                                    
                                                                                                    
                                                                                                    
                                                                                                    
                           
<?xpacket end="w"?></metadata>
<style type="text/css">
	.st0{fill:none;}
	.st1{fill:#5B554D;}
</style>
<rect class="st0" width="64" height="64"/>
<g>
	<g>
		<g>
			<path class="st1" d="M44.2,63H19.8c-0.4,0-0.8-0.3-0.9-0.7s0-0.8,0.4-1L29,55V37.1c-5.2-0.6-8.8-2.7-10.9-6.3
				c-5.7-10.2,3.6-28.5,4-29.3C22.3,1.2,22.6,1,22.9,1h18.2c0.3,0,0.7,0.2,0.8,0.5c0.4,0.8,9.7,19.1,4,29.3c-2,3.6-5.7,5.7-10.9,6.3
				V55l9.7,6.3c0.3,0.2,0.5,0.6,0.4,1C45,62.7,44.6,63,44.2,63z M22.9,61.1h18.2l-7.5-4.9c-0.3-0.2-0.4-0.5-0.4-0.8V36.3
				c0-0.5,0.4-0.9,0.9-0.9c5-0.4,8.4-2.2,10.2-5.5c4.7-8.4-2.3-24-3.8-27h-17c-1.4,3-8.5,18.6-3.8,27C21.5,33.1,25,35,30,35.3
				c0.5,0,0.9,0.4,0.9,0.9v19.2c0,0.3-0.2,0.6-0.4,0.8L22.9,61.1z"/>
		</g>
	</g>
	<g>
		<path class="st1" d="M30.5,32.4c-3.8-0.3-6.6-1.6-8.2-3.9c-2.1-3-2.5-7.4-1-13.2c0.1-0.4,0.5-0.7,0.9-0.7h19.7
			c0.4,0,0.8,0.3,0.9,0.7c1.5,5.8,1.1,10.3-1,13.2c-1.7,2.3-4.4,3.6-8.2,3.9H30.5z M22.9,16.4c-0.8,3.5-1.2,8.1,0.9,11
			c1.3,1.9,3.6,2.9,6.8,3.2h3c3.1-0.2,5.4-1.3,6.7-3.2c2.1-2.9,1.7-7.5,0.9-11H22.9z"/>
	</g>
</g>
</svg>
