<?xml version="1.0" encoding="utf-8"?>
<!-- Generator: Adobe Illustrator 19.2.1, SVG Export Plug-In . SVG Version: 6.00 Build 0)  -->
<svg version="1.1" id="Layer_1" xmlns="http://www.w3.org/2000/svg" xmlns:xlink="http://www.w3.org/1999/xlink" x="0px" y="0px"
	 viewBox="0 0 64 64" style="enable-background:new 0 0 64 64;" xml:space="preserve">
<metadata><?xpacket begin="﻿" id="W5M0MpCehiHzreSzNTczkc9d"?>
<x:xmpmeta xmlns:x="adobe:ns:meta/" x:xmptk="Adobe XMP Core 5.6-c111 79.158366, 2015/09/25-01:12:00        ">
   <rdf:RDF xmlns:rdf="http://www.w3.org/1999/02/22-rdf-syntax-ns#">
      <rdf:Description rdf:about=""/>
   </rdf:RDF>
</x:xmpmeta>
                                                                                                    
                                                                                                    
                                                                                                    
                                                                                                    
                                                                                                    
                                                                                                    
                                                                                                    
                                                                                                    
                                                                                                    
                                                                                                    
                                                                                                    
                                                                                                    
                                                                                                    
                                                                                                    
                                                                                                    
                                                                                                    
                                                                                                    
                                                                                                    
                                                                                                    
                                                                                                    
                           
<?xpacket end="w"?></metadata>
<style type="text/css">
	.st0{fill:none;}
	.st1{fill:#5B554D;}
</style>
<rect class="st0" width="64" height="64"/>
<g>
	<g>
		<g>
			<g>
				<path class="st1" d="M46.6,63H17.4c-5.8,0-10.5-4.7-10.5-10.5V2.3C6.9,1.6,7.4,1,8.1,1h47.8c0.7,0,1.3,0.6,1.3,1.3v50.2
					C57.1,58.3,52.4,63,46.6,63z M9.4,3.5v49c0,4.4,3.6,8,8,8h29.3c4.4,0,8-3.6,8-8v-49H9.4z"/>
			</g>
			<g>
				<path class="st1" d="M46.6,55.8H17.4c-3.2,0-5.9-2.6-5.9-5.9V17.7c0-0.7,0.6-1.3,1.3-1.3h38.5c0.7,0,1.3,0.6,1.3,1.3v32.2
					C52.5,53.1,49.9,55.8,46.6,55.8z M14,18.9v31c0,1.9,1.5,3.4,3.4,3.4h29.3c1.9,0,3.4-1.5,3.4-3.4v-31C50.1,18.9,14,18.9,14,18.9z
					"/>
			</g>
		</g>
	</g>
	<g>
		<path class="st1" d="M21,47.8c-1.7,0-3.2-1.1-3.7-2.8l-2.5-9.5c-0.3-1-0.1-2,0.4-2.9c0.5-0.9,1.3-1.5,2.3-1.8l9.5-2.5
			c1-0.3,2-0.1,2.9,0.4s1.5,1.3,1.8,2.3l2.5,9.5l0,0c0.5,2-0.7,4.1-2.7,4.6L22,47.7C21.7,47.7,21.4,47.8,21,47.8z M28.1,30.7
			c-0.1,0-0.2,0-0.3,0l-9.5,2.5c-0.3,0.1-0.6,0.3-0.8,0.6c-0.2,0.3-0.2,0.6-0.1,1l2.5,9.5c0.2,0.7,0.9,1.1,1.6,0.9l9.5-2.5
			c0.7-0.2,1.1-0.9,0.9-1.6l-2.5-9.5c-0.1-0.3-0.3-0.6-0.6-0.8C28.5,30.7,28.3,30.7,28.1,30.7z"/>
	</g>
	<g>
		<path class="st1" d="M40.7,53.4c-0.3,0-0.5,0-0.8-0.1l-9.6-2c-2.1-0.4-3.4-2.4-2.9-4.5l2-9.6c0.2-1,0.8-1.8,1.6-2.4
			c0.9-0.6,1.9-0.8,2.9-0.5l9.6,2c2,0.4,3.4,2.4,2.9,4.5l-2,9.6l0,0C44.1,52.1,42.5,53.4,40.7,53.4z M33.1,36.6
			c-0.2,0-0.5,0.1-0.7,0.2c-0.3,0.2-0.5,0.5-0.6,0.8l-2,9.6c-0.1,0.7,0.3,1.4,1,1.5l9.6,2c0.7,0.2,1.4-0.3,1.5-1l2-9.6
			c0.1-0.7-0.3-1.4-1-1.5l-9.6-2C33.3,36.6,33.2,36.6,33.1,36.6z M43.2,50.1L43.2,50.1L43.2,50.1z"/>
	</g>
</g>
</svg>
