<?xml version="1.0" encoding="utf-8"?>
<!-- Generator: Adobe Illustrator 19.2.1, SVG Export Plug-In . SVG Version: 6.00 Build 0)  -->
<svg version="1.1" id="Layer_1" xmlns="http://www.w3.org/2000/svg" xmlns:xlink="http://www.w3.org/1999/xlink" x="0px" y="0px"
	 viewBox="0 0 64 64" style="enable-background:new 0 0 64 64;" xml:space="preserve">
<metadata><?xpacket begin="﻿" id="W5M0MpCehiHzreSzNTczkc9d"?>
<x:xmpmeta xmlns:x="adobe:ns:meta/" x:xmptk="Adobe XMP Core 5.6-c111 79.158366, 2015/09/25-01:12:00        ">
   <rdf:RDF xmlns:rdf="http://www.w3.org/1999/02/22-rdf-syntax-ns#">
      <rdf:Description rdf:about=""/>
   </rdf:RDF>
</x:xmpmeta>
                                                                                                    
                                                                                                    
                                                                                                    
                                                                                                    
                                                                                                    
                                                                                                    
                                                                                                    
                                                                                                    
                                                                                                    
                                                                                                    
                                                                                                    
                                                                                                    
                                                                                                    
                                                                                                    
                                                                                                    
                                                                                                    
                                                                                                    
                                                                                                    
                                                                                                    
                                                                                                    
                           
<?xpacket end="w"?></metadata>
<style type="text/css">
	.st0{fill:none;}
	.st1{fill:#5B554D;}
</style>
<rect class="st0" width="64" height="64"/>
<g>
	<g>
		<g>
			<path class="st1" d="M31.6,63h-0.7c-1.2,0-2.3-0.1-3.5-0.2c-1.4-0.1-2.7-0.4-3.7-0.6c-2.4-0.6-3.6-1.7-3.6-3.2
				c0-0.5,0.2-1.4,1.2-2.2l0.4-0.3c0.2-0.1,0.4-0.2,0.6-0.3c0.9-0.5,1.9-0.9,2.8-1.2l1.1-0.4c0.5-0.2,1.8-0.7,2-0.9
				c0-0.1,0-1.4,0-2.5c-6.8-1.5-12.7-5.3-16.6-11c-4.2-6-5.9-13.3-4.6-20.5c1.2-7.2,5.2-13.6,11.2-17.8c0.5-0.4,1.1-0.5,1.7-0.3
				c0.6,0,1.1,0.4,1.4,1L22.7,5c0.2,0.4,0.1,0.9-0.3,1.1s-0.9,0.1-1.1-0.3l-1.4-2.4c-0.1-0.2-0.2-0.3-0.4-0.3c-0.1,0-0.3,0-0.4,0.1
				c-5.6,4-9.4,9.9-10.5,16.7C7.4,26.7,9,33.6,13,39.2c3.9,5.5,9.7,9.2,16.3,10.4c0.4,0.1,0.7,0.4,0.7,0.8c0,0.3,0,3.1,0,3.3
				c0,1.2-1.1,1.6-3,2.3l-1,0.4c-0.9,0.4-1.8,0.7-2.7,1.2c-0.2,0.1-0.3,0.2-0.5,0.3l-0.3,0.2c-0.3,0.2-0.5,0.5-0.5,0.8
				c0,0.4,0.4,1.1,2.4,1.6c1,0.3,2.1,0.5,3.4,0.6c1.1,0.1,2.2,0.2,3.3,0.2h0.7h0.6c1.1,0,2.3-0.1,3.3-0.2c1.3-0.1,2.5-0.3,3.5-0.6
				c2-0.5,2.4-1.2,2.4-1.6c0-0.2,0-0.5-0.4-0.7l-0.1-0.1L40,57.7c-0.8-0.4-1.6-0.8-2.5-1.1l-0.2-0.1c-0.2-0.1-0.5-0.2-0.7-0.3
				l-0.2-0.1c-1.7-0.6-3.1-1.1-3.1-2.4c0-0.2,0-0.7,0-1.4v-1.5c0-0.5,0.4-0.8,0.8-0.8c5.3,0,10.5-1.7,14.8-4.7
				c0.2-0.2,0.3-0.5,0.1-0.8l-1.6-2.3c-0.3-0.4-0.2-0.9,0.2-1.1c0.4-0.3,0.9-0.2,1.1,0.2l1.6,2.3c0.7,1,0.4,2.3-0.5,3
				c-4.4,3.1-9.6,4.8-14.9,5v0.6c0,0.6,0,1.2,0,1.3l0,0c0.3,0.3,1.4,0.7,2,0.9l0.2,0.1c0.2,0.1,0.5,0.2,0.7,0.3l0.2,0.1
				c0.9,0.3,1.8,0.7,2.7,1.2l0.9,0.5c0.1,0.1,0.2,0.2,0.3,0.2c0.7,0.5,1,1.2,1,2c0,1.5-1.2,2.5-3.6,3.2c-1,0.3-2.3,0.5-3.7,0.6
				c-1.1,0.1-2.3,0.2-3.5,0.2L31.6,63z"/>
		</g>
	</g>
	<g>
		<g>
			<path class="st1" d="M34.4,47.1c-12.7,0-23.1-10.3-23.1-23.1c0-12.7,10.4-23,23.1-23s23.1,10.3,23.1,23.1
				C57.5,36.8,47.1,47.1,34.4,47.1z M34.4,2.6C22.6,2.6,13,12.3,13,24.1s9.6,21.4,21.4,21.4s21.4-9.6,21.4-21.4
				C55.8,12.3,46.2,2.6,34.4,2.6z"/>
		</g>
	</g>
	<g>
		<g>
			<path class="st1" d="M37,46.2c-0.1,0-0.3,0-0.4-0.1c-0.4-0.2-0.6-0.7-0.4-1.1c0.3-0.6,0.8-1.3,1.3-2.1c0.4-0.6,0.9-1.3,1.2-1.8
				c0.2-0.3,0.3-0.6,0.4-0.8c0.4-0.8,0.8-1.6,1.6-2.3c0.2-0.2,0.5-0.4,0.8-0.5c0.4-0.3,0.9-0.5,1.1-0.9c0.2-0.2,0.2-0.6,0.3-1
				c0.1-0.5,0.2-1,0.5-1.6c0.4-0.6,0.6-1.4,0.4-1.7c-0.3-0.3-0.7-0.4-1.3-0.5c-0.4-0.1-0.8-0.2-1.2-0.3c-1-0.4-1.5-1.1-1.9-1.8
				c-0.1-0.1-0.2-0.3-0.3-0.4c-0.8-1.1-2.1-1.4-3.5-1.7c-0.5-0.1-0.9-0.2-1.4-0.4c-0.4-0.1-0.7,0-1.3,0.4c-0.2,0.1-0.4,0.2-0.5,0.3
				c-0.5,0.2-1.2,0.5-1.8,0.3c-1.2-0.4-1-1.4-1-1.7c0-0.1,0-0.2,0-0.2l0,0c0,0,0,0-0.1,0h-0.1c-0.3-0.1-1-0.3-1.2-0.9
				c0-0.1-0.1-0.3-0.1-0.5c-0.6,0.3-1.4,0.4-2,0c-0.3-0.2-0.8-0.7-0.7-1.8c0.2-1.2,1.4-2.5,2.3-2.9c0.8-0.4,1.9-0.5,2.8-0.1V20
				c0.2-0.6,0.8-0.8,1.2-1c0.1,0,0.1-0.1,0.2-0.1c0.4-0.2,0.5-0.4,0.7-0.7c0,0,0-0.2,0-0.3c0-0.4,0-0.9,0.4-1.3
				c0.3-0.3,0.7-0.4,1-0.6c0.1,0,0.4-0.1,0.4-0.2c0.2-0.1,0.3-0.3,0.5-0.5s0.3-0.4,0.5-0.6c0.3-0.3,0.7-0.4,0.9-0.4l0,0h-0.1
				c-0.2,0-0.4-0.1-0.6-0.3c-0.1-0.2-0.2-0.4-0.2-0.6c0-0.4,0.2-0.7,0.5-1c0.5-0.4,1.2-0.3,1.6-0.3c0.6,0.1,0.6,0.1,0.9-0.1l0.6,0
				c0-0.1-0.1-0.2-0.1-0.3s0-0.2,0-0.3c0,0,0-0.1,0-0.2c-0.2-0.1-0.6-0.3-0.7-0.8c-0.1-0.2-0.1-0.4,0-0.5c0,0,0,0,0-0.1
				c-0.2,0.2-0.4,0.3-0.7,0.3s-0.6-0.2-0.7-0.5c-0.2-0.4-0.2-0.8-0.3-1.1c-0.1-0.7-0.1-0.7-0.4-0.8c-0.1,0.1-0.3,1-0.3,1.4
				c0,0.2,0,0.4-0.1,0.5c0,0.1,0,0.2,0,0.3c0,0.3,0,0.8-0.5,1.3c-0.1,0.1-0.2,0.2-0.3,0.3c0,0.2,0,0.4-0.2,0.6
				c0,0.1-0.5,0.9-1.3,0.9c-0.5,0-1.1-0.2-1.2-1.3c0-0.1,0-0.1,0-0.2c-0.1-0.3-0.4-0.8-0.5-0.9c0,0,0,0-0.1,0
				c-0.2,0-0.3,0.1-0.5,0.1l0,0c-0.4,0-0.7-0.3-0.8-0.7c-0.1-0.5,0-1,0.2-1.4c0-0.2,0.1-0.3,0.1-0.5c0.1-0.9,0.6-1.7,1.4-2.2
				l0.3-0.2c0.4-0.2,0.5-0.3,0.5-0.4c0-0.2-0.1-1.8-0.3-2.5c-0.1-0.4,0.1-0.9,0.6-1c0.4-0.1,0.9,0.1,1,0.6c0.2,0.7,0.5,2.9,0.3,3.4
				c-0.2,0.8-0.8,1.1-1.3,1.4l-0.1,0c-0.4,0.2-0.6,0.6-0.7,1c0,0.2-0.1,0.4-0.1,0.7l0,0c0.1,0,0.3,0.1,0.5,0.2
				c0.4,0.3,0.8,0.9,1,1.3c0.1-0.1,0.2-0.2,0.3-0.3s0.1-0.2,0.1-0.4s0-0.3,0.1-0.5c0-0.1,0-0.2,0.1-0.4c0.1-0.9,0.3-2.1,1.1-2.6
				C35.5,6,36,5.9,36.6,6c0.8,0.2,1.2,0.8,1.3,1.3c0.3-0.1,0.7-0.1,1.1,0c0.3,0.1,0.5,0.4,0.6,0.7c0,0.2,0,0.4,0,0.5s0,0.2,0,0.3
				c0.1,0.1,0.2,0.3,0.2,0.5c0,0.1,0,0.3,0,0.4c0.2,0.1,0.4,0.2,0.5,0.5c0.2,0.3,0.2,0.5,0.2,0.8c0.3,0.1,0.5,0.3,0.7,0.6
				c0.2,0.4,0.2,0.9-0.2,1.4c-0.2,0.3-0.6,0.6-1.3,0.4l0,0c-0.1,0-0.1,0.1-0.2,0.1c-0.4,0.2-0.7,0.3-1,0.3v0.1
				c0.5,0.7,0.4,1.2,0.3,1.4c-0.1,0.3-0.4,0.7-1.2,0.7c-0.4,0-0.7-0.1-0.9-0.2c-0.1,0.1-0.2,0.2-0.3,0.3c-0.2,0.2-0.4,0.5-0.8,0.8
				c-0.2,0.2-0.5,0.3-0.8,0.4c-0.1,0-0.2,0.1-0.3,0.1c0,0.1,0,0.2,0,0.3c0,0.2,0,0.4-0.1,0.7c-0.3,0.9-0.7,1.3-1.4,1.7
				c-0.1,0-0.2,0.1-0.3,0.1s-0.2,0.1-0.3,0.2l0.1,0.1c0.1,0.1,0.2,0.2,0.3,0.3c0.2,0.3,0.7,1.2,0.1,1.8c-0.2,0.2-0.6,0.5-1.4,0.1
				c-0.4-0.2-0.7-0.6-0.9-0.9c-0.1-0.1-0.1-0.2-0.2-0.3c-0.3-0.4-1.1-0.4-1.7-0.1s-1.3,1.2-1.4,1.7c0,0.1,0,0.1,0,0.1
				c0.1,0,0.3-0.1,0.5-0.2l0.1-0.1c0.3-0.2,1.1-0.8,2-0.1c0.1,0.1,0.6,0.4,0.6,1c0,0.3-0.1,0.5-0.3,0.7l0,0c0.6,0.2,1.2,0.5,1.2,1.6
				c0,0.1,0,0.3,0,0.4c0.1,0,0.3-0.1,0.4-0.2c0.2-0.1,0.3-0.2,0.5-0.3c0.7-0.4,1.5-0.9,2.6-0.5c0.4,0.1,0.8,0.2,1.2,0.3
				c1.6,0.4,3.3,0.8,4.4,2.3c0.1,0.2,0.2,0.3,0.3,0.5c0.4,0.6,0.6,0.9,1.2,1.2c0.2,0.1,0.6,0.2,0.9,0.2c0.7,0.1,1.6,0.3,2.2,1.1
				c0.9,1.1,0.5,2.6-0.2,3.7c-0.2,0.3-0.2,0.6-0.3,1c-0.1,0.5-0.2,1.1-0.6,1.6c-0.4,0.6-1,1-1.6,1.3c-0.2,0.1-0.5,0.3-0.7,0.4
				c-0.5,0.4-0.8,1-1.1,1.7c-0.1,0.3-0.3,0.6-0.5,0.9c-0.4,0.6-0.8,1.3-1.3,2s-0.9,1.3-1.2,1.9C37.6,46.1,37.3,46.2,37,46.2z
				 M39,11.1L39,11.1L39,11.1z"/>
		</g>
		<g>
			<path class="st1" d="M34.1,46.4C34,46.4,34,46.4,34.1,46.4c-0.5,0-0.8-0.4-0.8-0.9c0-0.6,0.1-1.3,0.1-2.1
				c0.1-0.9,0.1-1.8,0.1-2.4c0-0.6,0.1-1.3,0.2-1.9c0.1-0.9,0.2-1.8,0.1-2.5c0-0.1-0.1-0.1-0.1-0.1c-0.2-0.1-0.4-0.2-0.6-0.5
				c-0.3-0.4-0.4-0.8-0.5-1.1c0-0.1-0.1-0.3-0.1-0.4c-0.1-0.3-0.4-0.6-0.7-0.9c-0.5-0.7-1.1-1.4-1.2-2.4c0-0.8,0.4-1.4,0.7-1.9
				c0.2-0.2,0.3-0.5,0.4-0.7c0,0,0,0,0-0.1h-0.1c-0.3,0-0.7,0.1-1.2-0.1c-0.7-0.2-0.9-0.8-1.1-1.1l-0.1-0.2c0-0.1-0.1-0.2-0.1-0.3
				c0-0.1-0.1-0.2-0.1-0.2l0,0c0,0-0.1,0-0.1-0.1c-0.7-0.3-1.5-0.5-2.3-0.7c-0.1,0-0.2,0-0.4-0.1c-1.1-0.2-2.1-0.5-2.6-1.2
				c-0.3-0.4-0.3-0.8-0.3-1.1v-0.1c0,0,0,0-0.1,0c-0.2,0.1-0.5,0.2-0.7,0.1c-1-0.4-1.4-1.6-1.7-2.6c-0.1-0.2-0.1-0.3-0.2-0.4
				c-0.1-0.2-0.1-0.4-0.2-0.5c-0.1-0.3-0.1-0.4-0.2-0.6c-0.1-0.1-0.1-0.2-0.2-0.3c-0.2-0.3-0.5-0.6-0.7-1c-0.7-1.5-0.3-3.1,0-4.4
				c0.1-0.5,0.2-0.9,0.3-1.4c0-0.1,0.1-0.3,0.1-0.4v-0.2c-0.1-0.1-0.2-0.3-0.2-0.6c0-0.1-0.1-0.6-0.1-1.1c-0.1-0.8-0.1-1.8-0.2-2.4
				c0.1,0,0.4-0.5,0.9-0.5C20.6,6.9,21,7.3,21,7.7c0.1,0.6,0.2,1.7,0.2,2.5c0,0.5,0.1,0.9,0.1,1c0.1,0.2,0.2,0.4,0.2,0.6
				c0.1,0.4,0,0.7-0.1,0.9v0.1c-0.1,0.5-0.2,1-0.3,1.5c-0.3,1.2-0.6,2.4-0.1,3.3c0.1,0.2,0.3,0.4,0.4,0.6c0.1,0.1,0.2,0.2,0.2,0.3
				c0.1,0.1,0.2,0.3,0.2,0.4c0.1-0.1,0.3-0.1,0.5,0c0.4-0.1,0.6,0.2,0.8,0.5c0.2,0.6,0.6,1.4,1.1,2.3c0.1,0.1,0.2,0.2,0.2,0.4
				c0.2,0.2,0.3,0.4,0.5,0.7c0.2,0.4,0.2,0.7,0.1,0.9c0,0.1,0,0.2,0,0.2c0.2,0.2,1.2,0.4,1.6,0.4c0.2,0,0.3,0.1,0.4,0.1
				c0.9,0.2,1.7,0.5,2.5,0.8c0.1,0,0.1,0,0.1,0c0.4,0.1,0.5,0.3,0.8,0.6c0.2,0.2,0.2,0.4,0.3,0.6c0,0.1,0,0.1,0.1,0.2l0.1,0.2
				c0.1,0.2,0.2,0.3,0.2,0.3c0.1,0,0.2,0,0.4,0c0.3,0,0.6-0.1,0.9,0c0.5,0.1,0.8,0.4,0.9,0.7c0.3,0.5,0.2,1.1,0,1.5
				c-0.2,0.5-0.4,0.8-0.6,1.1c-0.3,0.4-0.4,0.6-0.4,0.8c0,0.4,0.4,0.9,0.8,1.4c0.3,0.4,0.6,0.8,0.9,1.3c0.1,0.2,0.2,0.4,0.2,0.7
				c0.1,0.2,0.1,0.4,0.2,0.5c0.1,0.1,0.1,0.1,0.2,0.2c0.2,0.2,0.7,0.4,0.8,1.1c0.2,1,0.1,2.1-0.1,3.1c-0.1,0.6-0.2,1.1-0.1,1.7
				c0,0.6-0.1,1.5-0.2,2.5c-0.1,0.7-0.1,1.4-0.1,2C34.9,46,34.5,46.4,34.1,46.4z"/>
		</g>
	</g>
</g>
</svg>
