<?xml version="1.0" encoding="utf-8"?>
<!-- Generator: Adobe Illustrator 19.2.1, SVG Export Plug-In . SVG Version: 6.00 Build 0)  -->
<svg version="1.1" id="Layer_1" xmlns="http://www.w3.org/2000/svg" xmlns:xlink="http://www.w3.org/1999/xlink" x="0px" y="0px"
	 viewBox="0 0 64 64" style="enable-background:new 0 0 64 64;" xml:space="preserve">
<metadata><?xpacket begin="﻿" id="W5M0MpCehiHzreSzNTczkc9d"?>
<x:xmpmeta xmlns:x="adobe:ns:meta/" x:xmptk="Adobe XMP Core 5.6-c111 79.158366, 2015/09/25-01:12:00        ">
   <rdf:RDF xmlns:rdf="http://www.w3.org/1999/02/22-rdf-syntax-ns#">
      <rdf:Description rdf:about=""/>
   </rdf:RDF>
</x:xmpmeta>
                                                                                                    
                                                                                                    
                                                                                                    
                                                                                                    
                                                                                                    
                                                                                                    
                                                                                                    
                                                                                                    
                                                                                                    
                                                                                                    
                                                                                                    
                                                                                                    
                                                                                                    
                                                                                                    
                                                                                                    
                                                                                                    
                                                                                                    
                                                                                                    
                                                                                                    
                                                                                                    
                           
<?xpacket end="w"?></metadata>
<style type="text/css">
	.st0{fill:none;}
	.st1{fill:#5B554D;}
</style>
<rect class="st0" width="64" height="64"/>
<g>
	<g>
		<path class="st1" d="M31.7,63c-4.5,0-8.2-3.7-8.2-8.2c0-0.4,0.4-0.8,0.8-0.8c0.4,0,0.8,0.4,0.8,0.8c0,3.6,2.9,6.5,6.5,6.5
			c3.6,0,6.5-2.9,6.5-6.5c0-0.4,0.4-0.8,0.8-0.8s0.8,0.4,0.8,0.8C39.9,59.3,36.2,63,31.7,63z"/>
	</g>
	<g>
		<path class="st1" d="M58,51.7H6c-0.2,0-0.4-0.1-0.6-0.2c-0.2-0.2-0.2-0.4-0.2-0.6l0-3.5c0-0.2,0.1-0.5,0.3-0.6l7.3-5.8V24.2
			c0-9.2,6.7-17.1,15.8-18.7c0,0,0.1,0,0.1,0l6.5,0c0,0,0.1,0,0.1,0c9.2,1.6,15.8,9.5,15.8,18.7V41l7.3,5.8c0.2,0.2,0.3,0.4,0.3,0.6
			v3.5C58.8,51.4,58.4,51.7,58,51.7z M6.8,50.1h50.3v-2.3L49.9,42c-0.2-0.2-0.3-0.4-0.3-0.6V24.2c0-8.4-6-15.6-14.4-17.1l-6.4,0
			c-8.4,1.5-14.4,8.7-14.4,17.1v17.2c0,0.2-0.1,0.5-0.3,0.6l-7.3,5.8L6.8,50.1z"/>
	</g>
	<path class="st1" d="M33.5,1H31c-1.4,0-2.4,1.1-2.4,2.6v1.6l7.3,0V3.6C35.9,2.1,34.8,1,33.5,1z"/>
</g>
</svg>
