<?xml version="1.0" encoding="utf-8"?>
<!-- Generator: Adobe Illustrator 19.2.1, SVG Export Plug-In . SVG Version: 6.00 Build 0)  -->
<svg version="1.1" id="Layer_1" xmlns="http://www.w3.org/2000/svg" xmlns:xlink="http://www.w3.org/1999/xlink" x="0px" y="0px"
	 viewBox="0 0 64 64" style="enable-background:new 0 0 64 64;" xml:space="preserve">
<metadata><?xpacket begin="﻿" id="W5M0MpCehiHzreSzNTczkc9d"?>
<x:xmpmeta xmlns:x="adobe:ns:meta/" x:xmptk="Adobe XMP Core 5.6-c111 79.158366, 2015/09/25-01:12:00        ">
   <rdf:RDF xmlns:rdf="http://www.w3.org/1999/02/22-rdf-syntax-ns#">
      <rdf:Description rdf:about=""/>
   </rdf:RDF>
</x:xmpmeta>
                                                                                                    
                                                                                                    
                                                                                                    
                                                                                                    
                                                                                                    
                                                                                                    
                                                                                                    
                                                                                                    
                                                                                                    
                                                                                                    
                                                                                                    
                                                                                                    
                                                                                                    
                                                                                                    
                                                                                                    
                                                                                                    
                                                                                                    
                                                                                                    
                                                                                                    
                                                                                                    
                           
<?xpacket end="w"?></metadata>
<style type="text/css">
	.st0{fill:none;}
	.st1{fill:#5B554D;}
	.st2{fill:#FFFFFF;}
</style>
<rect class="st0" width="64" height="64"/>
<g>
	<rect x="52.5" y="6.2" transform="matrix(0.9118 -0.4105 0.4105 0.9118 1.9136 22.3823)" class="st1" width="1.2" height="1"/>
	<path class="st1" d="M51.9,6.7c-0.2,0.1-0.4,0-0.5-0.2L51,5.6c-0.1-0.2,0-0.5,0.2-0.5l1.9-0.9c0.2-0.1,0.4,0,0.5,0.2L54,5.3
		c0.1,0.2,0,0.5-0.2,0.5L51.9,6.7z"/>
	<rect x="48.1" y="8.3" transform="matrix(0.9122 -0.4098 0.4098 0.9122 0.6682 20.7221)" class="st1" width="1.2" height="1"/>
	<path class="st1" d="M47.5,8.8c-0.2,0.1-0.4,0-0.5-0.2l-0.4-0.8c-0.1-0.2,0-0.5,0.2-0.5l1.9-0.9c0.2-0.1,0.4,0,0.5,0.2l0.4,0.8
		c0.1,0.2,0,0.5-0.2,0.5L47.5,8.8z"/>
	<rect x="56.9" y="4.1" transform="matrix(0.9122 -0.4098 0.4098 0.9122 3.1353 23.9641)" class="st1" width="1.2" height="1"/>
	<g>
		<path class="st1" d="M16.5,61.9c-3.4,0-7.2-1.4-10.3-4.6c-6-6.2-6.9-13.5-2.2-18.6c2.4-2.6,5.1-3.5,6.7-4c0.3-0.1,0.5-0.2,0.8-0.2
			c0.2-0.1,0.4-0.1,0.6-0.2c1.5-0.5,3.5-1.2,5.4-3.1c1.1-1.2,1.8-2.8,2.5-4.6c0.8-1.9,1.6-3.9,3.2-5.4c1.4-1.3,3-1.3,4.3,0
			c1.1,1.1,1.2,2.5,0.2,3.9c-0.1,0.2-0.2,0.3-0.3,0.4c-0.4,0.5-0.7,0.8-1,1.8c-0.4,1.1,0.1,2.6,1.8,3.2c0.3,0.1,0.5,0.5,0.4,0.8
			c-0.1,0.3-0.5,0.5-0.8,0.4c-2.4-0.8-3.2-3.1-2.6-4.8c0.4-1.1,0.8-1.6,1.2-2.1c0.1-0.1,0.2-0.3,0.3-0.4c0.3-0.5,0.8-1.4-0.1-2.2
			c-0.6-0.5-1.5-1-2.5,0c-1.4,1.3-2.1,3.1-2.9,5c-0.7,1.8-1.5,3.6-2.8,5c-2,2.2-4.4,2.9-5.9,3.5c-0.2,0.1-0.4,0.1-0.6,0.2
			c-0.2,0.1-0.5,0.2-0.8,0.3c-1.6,0.5-4,1.2-6.1,3.6c-4.2,4.7-3.4,11.1,2.2,16.8c5.4,5.5,12.7,5.1,16.3,1.6c2.5-2.4,2.8-4.4,3-6.4
			c0.2-1.6,0.4-3.3,1.8-4.9c1.2-1.4,3.7-2.3,4.4-2.6c2.1-0.7,3.5-1.4,4.3-2.2c0.4-0.4,0.6-0.8,0.6-1.3c0-0.3-0.1-0.6-0.3-0.8
			c-0.5-0.5-1-0.8-2.4,0.5c-1.3,1.3-3.2,1.2-4.6-0.1c-0.6-0.5-0.9-1.3-0.9-2.3c0-0.4,0.3-0.7,0.6-0.7c0.4,0,0.7,0.3,0.7,0.6
			c0,0.4,0.1,1,0.5,1.4c0.9,0.8,2,0.9,2.8,0.1c1.6-1.5,3-1.7,4.2-0.5c0.4,0.4,0.7,1,0.7,1.7c0,0.8-0.4,1.5-1,2.2
			c-0.9,0.9-2.5,1.7-4.8,2.5c-1.3,0.4-3,1.2-3.8,2.2c-1.1,1.3-1.3,2.6-1.5,4.2c-0.3,2.1-0.6,4.5-3.4,7.2
			C22.4,60.8,19.6,61.9,16.5,61.9z"/>
	</g>
	<g>
		<path class="st1" d="M27.9,40.6c-0.2,0-0.3-0.1-0.4-0.2c-0.3-0.2-0.3-0.6,0-0.9l20.9-22.6l-2.2-2.3L25.9,34
			c-0.3,0.2-0.7,0.2-0.9,0c-0.2-0.3-0.2-0.7,0-0.9l20.8-19.8c0.3-0.2,0.7-0.2,0.9,0l3,3.2c0.2,0.2,0.2,0.6,0,0.9l-21.4,23
			C28.3,40.5,28.1,40.6,27.9,40.6z"/>
	</g>
	<g>
		<path class="st1" d="M19.9,59.3c-0.6,0-1.2-0.2-1.9-0.5c-1-0.5-1.6-1.4-1.8-2.3c-0.2-1,0.1-2.1,0.9-3.1c0.8-1.1,1.2-1.8,0.7-3.9
			c-0.6-2.5-3.3-4.9-4.5-6.1c-0.8-0.7-1.1-1.7-0.9-2.7c0.3-1.3,1.5-2.5,3.2-3.1c3.2-1.1,5.5-3.6,6.6-5.7c0.5-0.9,1.3-1.4,2.1-1.3
			c0.8,0.2,1.4,0.9,1.5,1.9c0,0.1,0,0.2,0.1,0.4c0,0.2,0.1,0.4,0.1,0.6c0.1,0.3-0.2,0.7-0.5,0.7c-0.3,0.1-0.7-0.2-0.7-0.5
			c0-0.1-0.1-0.3-0.1-0.5c0-0.2-0.1-0.4-0.1-0.5c-0.1-0.5-0.3-0.7-0.5-0.8c-0.2,0-0.5,0.2-0.7,0.6c-0.6,1.1-2.8,4.8-7.3,6.3
			c-1.3,0.4-2.2,1.2-2.4,2.1c-0.1,0.6,0.1,1.1,0.5,1.5c1.4,1.3,4.2,3.9,4.9,6.8c0.6,2.5,0.2,3.6-0.9,5c-0.5,0.7-0.8,1.4-0.6,2.1
			c0.1,0.6,0.5,1.1,1.2,1.5c1.6,0.9,2.7-0.1,3-0.4c1.6-1.8,1.9-3.5,2.2-5.4c0.2-1.2,0.4-2.4,1-3.6c1.2-2.6,2.4-4.2,5.1-5.1
			c0.4-0.1,0.6-0.4,0.6-0.5c0-0.1-0.2-0.3-0.6-0.4c-0.9-0.2-1.8-1-2.4-1.7c-0.2-0.3-0.2-0.7,0-0.9c0.3-0.2,0.7-0.2,0.9,0
			c0.3,0.3,1.1,1.1,1.7,1.3c1,0.2,1.6,0.8,1.6,1.6c0,0.8-0.5,1.5-1.5,1.8c-2.2,0.8-3.2,2.2-4.3,4.5c-0.5,1-0.7,2.1-0.9,3.3
			c-0.3,1.9-0.6,3.9-2.5,6C21.9,58.8,21,59.3,19.9,59.3z"/>
	</g>
	<ellipse transform="matrix(0.7069 -0.7073 0.7073 0.7069 -30.1777 30.389)" class="st1" cx="21.6" cy="51.6" rx="1" ry="1"/>
	<ellipse transform="matrix(0.7074 -0.7068 0.7068 0.7074 -33.6679 30.4438)" class="st1" cx="19.9" cy="55.9" rx="1.4" ry="1.4"/>
	<g>
		<path class="st1" d="M49.3,17.5c-0.2,0-0.3-0.1-0.5-0.2l-3-3.2c-0.2-0.2-0.2-0.4-0.2-0.6c0,0,0.6-2.1,0.7-2.7
			c0.2-0.8,0.5-1.4,1.7-2C49,8.4,57.6,4.4,58.6,4c1.6-0.6,3.2,0.1,4.1,1.8c0.6,1.3,0.6,3.2-1.4,4.4c-0.9,0.5-1.6,0.6-2.3,0.7
			c-0.6,0.1-0.9,0.1-1.1,0.4c-0.4,0.4-0.5,0.9-0.6,1.4c-0.3,1-0.6,2.3-2.4,3.1c-1.1,0.5-2,0.5-2.6,0.5c-0.9,0-1.5,0-2.5,0.9
			C49.6,17.5,49.4,17.5,49.3,17.5z M47,13.6l2.4,2.5c1.1-0.8,2-0.9,2.8-0.9c0.7,0,1.3,0,2.1-0.4c1.2-0.6,1.4-1.4,1.7-2.3
			c0.2-0.7,0.4-1.4,1-2c0.5-0.5,1.2-0.6,1.8-0.7c0.6-0.1,1.1-0.2,1.8-0.6c1.5-0.9,1.2-2.1,0.9-2.7c-0.4-0.9-1.3-1.6-2.5-1.2
			c-0.9,0.4-9.2,4.2-10.4,4.8c-0.8,0.4-0.9,0.6-1,1.1C47.5,11.7,47.1,12.9,47,13.6z"/>
	</g>
	<ellipse transform="matrix(0.7067 -0.7075 0.7075 0.7067 12.5383 43.2405)" class="st1" cx="58.4" cy="6.5" rx="1" ry="1"/>
	<ellipse transform="matrix(0.706 -0.7082 0.7082 0.706 9.7078 40.8252)" class="st1" cx="54" cy="8.7" rx="1" ry="1"/>
	<ellipse transform="matrix(0.7076 -0.7066 0.7066 0.7076 7.1125 38.3766)" class="st1" cx="49.9" cy="10.6" rx="1" ry="1"/>
	<path class="st1" d="M17.3,51.2c0.2-0.2,0.2-0.5-0.1-0.8l-3.4-4.8c-0.2-0.2-0.6-0.3-0.8-0.1l-2,2c-0.2,0.2-0.2,0.5,0.1,0.8l4.1,4.1
		c0.2,0.2,0.6,0.3,0.8,0.1L17.3,51.2z"/>
	<path class="st1" d="M56.3,4.6c-0.2,0.1-0.4,0-0.5-0.2l-0.4-0.8c-0.1-0.2,0-0.5,0.2-0.5l1.9-0.9c0.2-0.1,0.4,0,0.5,0.2l0.4,0.8
		c0.1,0.2,0,0.5-0.2,0.5L56.3,4.6z"/>
	<polygon class="st1" points="12.9,48.5 47,14.6 47.3,14.9 13.2,48.7 12.9,48.5 	"/>
	<polygon class="st1" points="13.6,49.2 47.7,15.4 47.9,15.6 13.8,49.4 13.6,49.2 	"/>
	<polygon class="st1" points="14.9,50.1 48.4,15.7 48.7,16 15.1,50.4 14.9,50.1 	"/>
	<path class="st2" d="M16.3,51.7c-0.2,0.2-0.5,0.2-0.8,0L11.8,48c-0.2-0.2-0.2-0.5,0-0.8l0,0c0.2-0.2,0.5-0.2,0.8,0l3.7,3.7
		C16.5,51.1,16.5,51.4,16.3,51.7L16.3,51.7z"/>
</g>
</svg>
