<?xml version="1.0" encoding="utf-8"?>
<!-- Generator: Adobe Illustrator 19.2.1, SVG Export Plug-In . SVG Version: 6.00 Build 0)  -->
<svg version="1.1" id="Layer_1" xmlns="http://www.w3.org/2000/svg" xmlns:xlink="http://www.w3.org/1999/xlink" x="0px" y="0px"
	 viewBox="0 0 64 64" style="enable-background:new 0 0 64 64;" xml:space="preserve">
<metadata><?xpacket begin="﻿" id="W5M0MpCehiHzreSzNTczkc9d"?>
<x:xmpmeta xmlns:x="adobe:ns:meta/" x:xmptk="Adobe XMP Core 5.6-c111 79.158366, 2015/09/25-01:12:00        ">
   <rdf:RDF xmlns:rdf="http://www.w3.org/1999/02/22-rdf-syntax-ns#">
      <rdf:Description rdf:about=""/>
   </rdf:RDF>
</x:xmpmeta>
                                                                                                    
                                                                                                    
                                                                                                    
                                                                                                    
                                                                                                    
                                                                                                    
                                                                                                    
                                                                                                    
                                                                                                    
                                                                                                    
                                                                                                    
                                                                                                    
                                                                                                    
                                                                                                    
                                                                                                    
                                                                                                    
                                                                                                    
                                                                                                    
                                                                                                    
                                                                                                    
                           
<?xpacket end="w"?></metadata>
<style type="text/css">
	.st0{fill:none;}
	.st1{fill:#5B554D;}
</style>
<rect class="st0" width="64" height="64"/>
<g>
	<g>
		<g>
			<g>
				<path class="st1" d="M831.1,541.3c-0.1,0-0.1,0-0.2,0c-0.4-0.1-0.6-0.5-0.5-0.8l2.5-11.3c0.1-0.4,0.5-0.6,0.8-0.5
					c0.4,0.1,0.6,0.5,0.5,0.8l-2.5,11.3C831.7,541.1,831.4,541.3,831.1,541.3z"/>
			</g>
			<g>
				<path class="st1" d="M832.4,540.5c-0.2,0-0.5-0.1-0.6-0.3l-0.9-1.4c-0.2-0.3-0.1-0.8,0.2-1c0.3-0.2,0.8-0.1,1,0.2l0.9,1.4
					c0.2,0.3,0.1,0.8-0.2,1C832.7,540.5,832.5,540.5,832.4,540.5z"/>
			</g>
			<g>
				<path class="st1" d="M830.1,540c-0.2,0-0.5-0.1-0.6-0.3c-0.2-0.3-0.1-0.8,0.2-1l1.4-0.9c0.3-0.2,0.8-0.1,1,0.2
					c0.2,0.3,0.1,0.8-0.2,1l-1.4,0.9C830.4,540,830.3,540,830.1,540z"/>
			</g>
			<g>
				<path class="st1" d="M833.2,538.7c-0.2,0-0.5-0.1-0.6-0.3l-1.2-1.9c-0.2-0.3-0.1-0.8,0.2-1c0.3-0.2,0.8-0.1,1,0.2l1.2,1.9
					c0.2,0.3,0.1,0.8-0.2,1C833.5,538.7,833.4,538.7,833.2,538.7z"/>
			</g>
			<g>
				<path class="st1" d="M830.2,538c-0.2,0-0.5-0.1-0.6-0.3c-0.2-0.3-0.1-0.8,0.2-1l1.9-1.2c0.3-0.2,0.8-0.1,1,0.2
					c0.2,0.3,0.1,0.8-0.2,1l-1.9,1.2C830.4,538,830.3,538,830.2,538z"/>
			</g>
			<g>
				<path class="st1" d="M833.1,532.1c-0.2,0-0.5-0.1-0.6-0.3l-0.9-1.4c-0.2-0.3-0.1-0.8,0.2-1c0.3-0.2,0.8-0.1,1,0.2l0.9,1.4
					c0.2,0.3,0.1,0.8-0.2,1C833.3,532.1,833.2,532.1,833.1,532.1z"/>
			</g>
			<g>
				<path class="st1" d="M833.1,532.1c-0.2,0-0.5-0.1-0.6-0.3c-0.2-0.3-0.1-0.8,0.2-1l1.4-0.9c0.3-0.2,0.8-0.1,1,0.2
					c0.2,0.3,0.1,0.8-0.2,1l-1.4,0.9C833.3,532.1,833.2,532.1,833.1,532.1z"/>
			</g>
			<g>
				<path class="st1" d="M832.6,534.5c-0.2,0-0.5-0.1-0.6-0.3l-1.2-1.9c-0.2-0.3-0.1-0.8,0.2-1c0.3-0.2,0.8-0.1,1,0.2l1.2,1.9
					c0.2,0.3,0.1,0.8-0.2,1C832.8,534.4,832.7,534.5,832.6,534.5z"/>
			</g>
			<g>
				<path class="st1" d="M832.6,534.5c-0.2,0-0.5-0.1-0.6-0.3c-0.2-0.3-0.1-0.8,0.2-1l1.9-1.2c0.3-0.2,0.8-0.1,1,0.2
					c0.2,0.3,0.1,0.8-0.2,1l-1.9,1.2C832.8,534.4,832.7,534.5,832.6,534.5z"/>
			</g>
		</g>
		<g>
			<g>
				<path class="st1" d="M838,536.9c-0.1,0-0.1,0-0.2,0l-11.3-2.5c-0.4-0.1-0.6-0.5-0.5-0.8c0.1-0.4,0.5-0.6,0.8-0.5l11.3,2.5
					c0.4,0.1,0.6,0.5,0.5,0.8C838.6,536.7,838.3,536.9,838,536.9z"/>
			</g>
			<g>
				<path class="st1" d="M827.4,535.8c-0.2,0-0.5-0.1-0.6-0.3c-0.2-0.3-0.1-0.8,0.2-1l1.4-0.9c0.3-0.2,0.8-0.1,1,0.2
					c0.2,0.3,0.1,0.8-0.2,1l-1.4,0.9C827.7,535.8,827.5,535.8,827.4,535.8z"/>
			</g>
			<g>
				<path class="st1" d="M828.8,534.9c-0.2,0-0.5-0.1-0.6-0.3l-0.9-1.4c-0.2-0.3-0.1-0.8,0.2-1c0.3-0.2,0.8-0.1,1,0.2l0.9,1.4
					c0.2,0.3,0.1,0.8-0.2,1C829.1,534.9,828.9,534.9,828.8,534.9z"/>
			</g>
			<g>
				<path class="st1" d="M829.3,536.6c-0.2,0-0.5-0.1-0.6-0.3c-0.2-0.3-0.1-0.8,0.2-1l1.9-1.2c0.3-0.2,0.8-0.1,1,0.2
					c0.2,0.3,0.1,0.8-0.2,1l-1.9,1.2C829.5,536.6,829.4,536.6,829.3,536.6z"/>
			</g>
			<g>
				<path class="st1" d="M831.1,535.4c-0.2,0-0.5-0.1-0.6-0.3l-1.2-1.9c-0.2-0.3-0.1-0.8,0.2-1c0.3-0.2,0.8-0.1,1,0.2l1.2,1.9
					c0.2,0.3,0.1,0.8-0.2,1C831.4,535.4,831.3,535.4,831.1,535.4z"/>
			</g>
			<g>
				<path class="st1" d="M835.8,536.4c-0.2,0-0.5-0.1-0.6-0.3c-0.2-0.3-0.1-0.8,0.2-1l1.4-0.9c0.3-0.2,0.8-0.1,1,0.2
					c0.2,0.3,0.1,0.8-0.2,1l-1.4,0.9C836.1,536.4,836,536.4,835.8,536.4z"/>
			</g>
			<g>
				<path class="st1" d="M836.7,537.8c-0.2,0-0.5-0.1-0.6-0.3l-0.9-1.4c-0.2-0.3-0.1-0.8,0.2-1c0.3-0.2,0.8-0.1,1,0.2l0.9,1.4
					c0.2,0.3,0.1,0.8-0.2,1C837,537.8,836.9,537.8,836.7,537.8z"/>
			</g>
			<g>
				<path class="st1" d="M833.5,535.9c-0.2,0-0.5-0.1-0.6-0.3c-0.2-0.3-0.1-0.8,0.2-1l1.9-1.2c0.3-0.2,0.8-0.1,1,0.2
					c0.2,0.3,0.1,0.8-0.2,1l-1.9,1.2C833.8,535.9,833.6,535.9,833.5,535.9z"/>
			</g>
			<g>
				<path class="st1" d="M834.7,537.8c-0.2,0-0.5-0.1-0.6-0.3l-1.2-1.9c-0.2-0.3-0.1-0.8,0.2-1c0.3-0.2,0.8-0.1,1,0.2l1.2,1.9
					c0.2,0.3,0.1,0.8-0.2,1C835,537.8,834.8,537.8,834.7,537.8z"/>
			</g>
		</g>
	</g>
	<g>
		<g>
			<g>
				<path class="st1" d="M839.4,532.4C839.3,532.4,839.3,532.4,839.4,532.4c-0.3-0.1-0.5-0.3-0.4-0.5l1.5-6.7c0-0.2,0.3-0.4,0.5-0.3
					c0.2,0,0.4,0.3,0.3,0.5l-1.5,6.7C839.7,532.3,839.6,532.4,839.4,532.4z"/>
			</g>
			<g>
				<path class="st1" d="M840.2,532c-0.1,0-0.3-0.1-0.4-0.2l-0.5-0.8c-0.1-0.2-0.1-0.5,0.1-0.6c0.2-0.1,0.5-0.1,0.6,0.1l0.5,0.8
					c0.1,0.2,0.1,0.5-0.1,0.6C840.3,531.9,840.3,532,840.2,532z"/>
			</g>
			<g>
				<path class="st1" d="M838.8,531.7c-0.1,0-0.3-0.1-0.4-0.2c-0.1-0.2-0.1-0.5,0.1-0.6l0.8-0.5c0.2-0.1,0.5-0.1,0.6,0.1
					c0.1,0.2,0.1,0.5-0.1,0.6l-0.8,0.5C839,531.6,838.9,531.7,838.8,531.7z"/>
			</g>
			<g>
				<path class="st1" d="M840.7,530.9c-0.1,0-0.3-0.1-0.4-0.2l-0.7-1.1c-0.1-0.2-0.1-0.5,0.1-0.6c0.2-0.1,0.5-0.1,0.6,0.1l0.7,1.1
					c0.1,0.2,0.1,0.5-0.1,0.6C840.8,530.8,840.7,530.9,840.7,530.9z"/>
			</g>
			<g>
				<path class="st1" d="M838.8,530.5c-0.1,0-0.3-0.1-0.4-0.2c-0.1-0.2-0.1-0.5,0.1-0.6l1.1-0.7c0.2-0.1,0.5-0.1,0.6,0.1
					c0.1,0.2,0.1,0.5-0.1,0.6l-1.1,0.7C839,530.4,838.9,530.5,838.8,530.5z"/>
			</g>
			<g>
				<path class="st1" d="M840.6,527c-0.1,0-0.3-0.1-0.4-0.2l-0.5-0.8c-0.1-0.2-0.1-0.5,0.1-0.6c0.2-0.1,0.5-0.1,0.6,0.1l0.5,0.8
					c0.1,0.2,0.1,0.5-0.1,0.6C840.7,527,840.6,527,840.6,527z"/>
			</g>
			<g>
				<path class="st1" d="M840.6,527c-0.1,0-0.3-0.1-0.4-0.2c-0.1-0.2-0.1-0.5,0.1-0.6l0.8-0.5c0.2-0.1,0.5-0.1,0.6,0.1
					c0.1,0.2,0.1,0.5-0.1,0.6l-0.8,0.5C840.7,527,840.6,527,840.6,527z"/>
			</g>
			<g>
				<path class="st1" d="M840.3,528.4c-0.1,0-0.3-0.1-0.4-0.2l-0.7-1.1c-0.1-0.2-0.1-0.5,0.1-0.6c0.2-0.1,0.5-0.1,0.6,0.1l0.7,1.1
					c0.1,0.2,0.1,0.5-0.1,0.6C840.4,528.3,840.3,528.4,840.3,528.4z"/>
			</g>
			<g>
				<path class="st1" d="M840.3,528.4c-0.1,0-0.3-0.1-0.4-0.2c-0.1-0.2-0.1-0.5,0.1-0.6l1.1-0.7c0.2-0.1,0.5-0.1,0.6,0.1
					c0.1,0.2,0.1,0.5-0.1,0.6l-1.1,0.7C840.4,528.3,840.3,528.4,840.3,528.4z"/>
			</g>
		</g>
		<g>
			<g>
				<path class="st1" d="M843.4,529.8C843.4,529.8,843.4,529.8,843.4,529.8l-6.8-1.5c-0.2,0-0.4-0.3-0.3-0.5c0-0.2,0.3-0.4,0.5-0.3
					l6.7,1.5c0.2,0,0.4,0.3,0.3,0.5C843.8,529.7,843.6,529.8,843.4,529.8z"/>
			</g>
			<g>
				<path class="st1" d="M837.2,529.1c-0.1,0-0.3-0.1-0.4-0.2c-0.1-0.2-0.1-0.5,0.1-0.6l0.8-0.5c0.2-0.1,0.5-0.1,0.6,0.1
					c0.1,0.2,0.1,0.5-0.1,0.6l-0.8,0.5C837.4,529.1,837.3,529.1,837.2,529.1z"/>
			</g>
			<g>
				<path class="st1" d="M838,528.6c-0.1,0-0.3-0.1-0.4-0.2l-0.5-0.8c-0.1-0.2-0.1-0.5,0.1-0.6c0.2-0.1,0.5-0.1,0.6,0.1l0.5,0.8
					c0.1,0.2,0.1,0.5-0.1,0.6C838.2,528.6,838.1,528.6,838,528.6z"/>
			</g>
			<g>
				<path class="st1" d="M838.3,529.6c-0.1,0-0.3-0.1-0.4-0.2c-0.1-0.2-0.1-0.5,0.1-0.6l1.1-0.7c0.2-0.1,0.5-0.1,0.6,0.1
					c0.1,0.2,0.1,0.5-0.1,0.6l-1.1,0.7C838.5,529.6,838.4,529.6,838.3,529.6z"/>
			</g>
			<g>
				<path class="st1" d="M839.4,528.9c-0.1,0-0.3-0.1-0.4-0.2l-0.7-1.1c-0.1-0.2-0.1-0.5,0.1-0.6c0.2-0.1,0.5-0.1,0.6,0.1l0.7,1.1
					c0.1,0.2,0.1,0.5-0.1,0.6C839.6,528.9,839.5,528.9,839.4,528.9z"/>
			</g>
			<g>
				<path class="st1" d="M842.2,529.5c-0.1,0-0.3-0.1-0.4-0.2c-0.1-0.2-0.1-0.5,0.1-0.6l0.8-0.5c0.2-0.1,0.5-0.1,0.6,0.1
					c0.1,0.2,0.1,0.5-0.1,0.6l-0.8,0.5C842.4,529.5,842.3,529.5,842.2,529.5z"/>
			</g>
			<g>
				<path class="st1" d="M842.7,530.4c-0.1,0-0.3-0.1-0.4-0.2l-0.5-0.8c-0.1-0.2-0.1-0.5,0.1-0.6c0.2-0.1,0.5-0.1,0.6,0.1l0.5,0.8
					c0.1,0.2,0.1,0.5-0.1,0.6C842.9,530.3,842.8,530.4,842.7,530.4z"/>
			</g>
			<g>
				<path class="st1" d="M840.8,529.2c-0.1,0-0.3-0.1-0.4-0.2c-0.1-0.2-0.1-0.5,0.1-0.6l1.1-0.7c0.2-0.1,0.5-0.1,0.6,0.1
					c0.1,0.2,0.1,0.5-0.1,0.6l-1.1,0.7C841,529.2,840.9,529.2,840.8,529.2z"/>
			</g>
			<g>
				<path class="st1" d="M841.5,530.3c-0.1,0-0.3-0.1-0.4-0.2l-0.7-1.1c-0.1-0.2-0.1-0.5,0.1-0.6c0.2-0.1,0.5-0.1,0.6,0.1l0.7,1.1
					c0.1,0.2,0.1,0.5-0.1,0.6C841.7,530.3,841.6,530.3,841.5,530.3z"/>
			</g>
		</g>
	</g>
	<g>
		<g>
			<g>
				<path class="st1" d="M827.1,529.7C827.1,529.7,827.1,529.7,827.1,529.7c-0.3-0.1-0.5-0.3-0.4-0.5l1.5-6.7c0-0.2,0.3-0.4,0.5-0.3
					c0.2,0,0.4,0.3,0.3,0.5l-1.5,6.7C827.5,529.6,827.3,529.7,827.1,529.7z"/>
			</g>
			<g>
				<path class="st1" d="M828,529.3c-0.1,0-0.3-0.1-0.4-0.2l-0.5-0.8c-0.1-0.2-0.1-0.5,0.1-0.6c0.2-0.1,0.5-0.1,0.6,0.1l0.5,0.8
					c0.1,0.2,0.1,0.5-0.1,0.6C828.1,529.3,828,529.3,828,529.3z"/>
			</g>
			<g>
				<path class="st1" d="M826.6,529c-0.1,0-0.3-0.1-0.4-0.2c-0.1-0.2-0.1-0.5,0.1-0.6l0.8-0.5c0.2-0.1,0.5-0.1,0.6,0.1
					c0.1,0.2,0.1,0.5-0.1,0.6l-0.8,0.5C826.8,529,826.7,529,826.6,529z"/>
			</g>
			<g>
				<path class="st1" d="M828.4,528.2c-0.1,0-0.3-0.1-0.4-0.2l-0.7-1.1c-0.1-0.2-0.1-0.5,0.1-0.6c0.2-0.1,0.5-0.1,0.6,0.1l0.7,1.1
					c0.1,0.2,0.1,0.5-0.1,0.6C828.6,528.2,828.5,528.2,828.4,528.2z"/>
			</g>
			<g>
				<path class="st1" d="M826.6,527.8c-0.1,0-0.3-0.1-0.4-0.2c-0.1-0.2-0.1-0.5,0.1-0.6l1.1-0.7c0.2-0.1,0.5-0.1,0.6,0.1
					c0.1,0.2,0.1,0.5-0.1,0.6l-1.1,0.7C826.8,527.8,826.7,527.8,826.6,527.8z"/>
			</g>
			<g>
				<path class="st1" d="M828.3,524.3c-0.1,0-0.3-0.1-0.4-0.2l-0.5-0.8c-0.1-0.2-0.1-0.5,0.1-0.6c0.2-0.1,0.5-0.1,0.6,0.1l0.5,0.8
					c0.1,0.2,0.1,0.5-0.1,0.6C828.5,524.3,828.4,524.3,828.3,524.3z"/>
			</g>
			<g>
				<path class="st1" d="M828.3,524.3c-0.1,0-0.3-0.1-0.4-0.2c-0.1-0.2-0.1-0.5,0.1-0.6l0.8-0.5c0.2-0.1,0.5-0.1,0.6,0.1
					c0.1,0.2,0.1,0.5-0.1,0.6l-0.8,0.5C828.5,524.3,828.4,524.3,828.3,524.3z"/>
			</g>
			<g>
				<path class="st1" d="M828,525.7c-0.1,0-0.3-0.1-0.4-0.2l-0.7-1.1c-0.1-0.2-0.1-0.5,0.1-0.6c0.2-0.1,0.5-0.1,0.6,0.1l0.7,1.1
					c0.1,0.2,0.1,0.5-0.1,0.6C828.2,525.7,828.1,525.7,828,525.7z"/>
			</g>
			<g>
				<path class="st1" d="M828,525.7c-0.1,0-0.3-0.1-0.4-0.2c-0.1-0.2-0.1-0.5,0.1-0.6l1.1-0.7c0.2-0.1,0.5-0.1,0.6,0.1
					c0.1,0.2,0.1,0.5-0.1,0.6l-1.1,0.7C828.2,525.7,828.1,525.7,828,525.7z"/>
			</g>
		</g>
		<g>
			<g>
				<path class="st1" d="M831.2,527.1C831.2,527.1,831.2,527.1,831.2,527.1l-6.8-1.5c-0.2,0-0.4-0.3-0.3-0.5c0-0.2,0.3-0.4,0.5-0.3
					l6.7,1.5c0.2,0,0.4,0.3,0.3,0.5C831.6,527,831.4,527.1,831.2,527.1z"/>
			</g>
			<g>
				<path class="st1" d="M825,526.5c-0.1,0-0.3-0.1-0.4-0.2c-0.1-0.2-0.1-0.5,0.1-0.6l0.8-0.5c0.2-0.1,0.5-0.1,0.6,0.1
					c0.1,0.2,0.1,0.5-0.1,0.6l-0.8,0.5C825.2,526.4,825.1,526.5,825,526.5z"/>
			</g>
			<g>
				<path class="st1" d="M825.8,525.9c-0.1,0-0.3-0.1-0.4-0.2l-0.5-0.8c-0.1-0.2-0.1-0.5,0.1-0.6c0.2-0.1,0.5-0.1,0.6,0.1l0.5,0.8
					c0.1,0.2,0.1,0.5-0.1,0.6C826,525.9,825.9,525.9,825.8,525.9z"/>
			</g>
			<g>
				<path class="st1" d="M826.1,527c-0.1,0-0.3-0.1-0.4-0.2c-0.1-0.2-0.1-0.5,0.1-0.6l1.1-0.7c0.2-0.1,0.5-0.1,0.6,0.1
					c0.1,0.2,0.1,0.5-0.1,0.6l-1.1,0.7C826.2,526.9,826.2,527,826.1,527z"/>
			</g>
			<g>
				<path class="st1" d="M827.2,526.2c-0.1,0-0.3-0.1-0.4-0.2l-0.7-1.1c-0.1-0.2-0.1-0.5,0.1-0.6c0.2-0.1,0.5-0.1,0.6,0.1l0.7,1.1
					c0.1,0.2,0.1,0.5-0.1,0.6C827.4,526.2,827.3,526.2,827.2,526.2z"/>
			</g>
			<g>
				<path class="st1" d="M830,526.9c-0.1,0-0.3-0.1-0.4-0.2c-0.1-0.2-0.1-0.5,0.1-0.6l0.8-0.5c0.2-0.1,0.5-0.1,0.6,0.1
					c0.1,0.2,0.1,0.5-0.1,0.6l-0.8,0.5C830.1,526.8,830.1,526.9,830,526.9z"/>
			</g>
			<g>
				<path class="st1" d="M830.5,527.7c-0.1,0-0.3-0.1-0.4-0.2l-0.5-0.8c-0.1-0.2-0.1-0.5,0.1-0.6c0.2-0.1,0.5-0.1,0.6,0.1l0.5,0.8
					c0.1,0.2,0.1,0.5-0.1,0.6C830.7,527.7,830.6,527.7,830.5,527.7z"/>
			</g>
			<g>
				<path class="st1" d="M828.6,526.6c-0.1,0-0.3-0.1-0.4-0.2c-0.1-0.2-0.1-0.5,0.1-0.6l1.1-0.7c0.2-0.1,0.5-0.1,0.6,0.1
					c0.1,0.2,0.1,0.5-0.1,0.6l-1.1,0.7C828.8,526.5,828.7,526.6,828.6,526.6z"/>
			</g>
			<g>
				<path class="st1" d="M829.3,527.7c-0.1,0-0.3-0.1-0.4-0.2l-0.7-1.1c-0.1-0.2-0.1-0.5,0.1-0.6c0.2-0.1,0.5-0.1,0.6,0.1l0.7,1.1
					c0.1,0.2,0.1,0.5-0.1,0.6C829.5,527.6,829.4,527.7,829.3,527.7z"/>
			</g>
		</g>
	</g>
	<g>
		<g>
			<g>
				<path class="st1" d="M834.2,526.6C834.2,526.6,834.2,526.6,834.2,526.6c-0.3-0.1-0.5-0.3-0.4-0.5l1.5-6.7c0-0.2,0.3-0.4,0.5-0.3
					c0.2,0,0.4,0.3,0.3,0.5l-1.5,6.7C834.6,526.4,834.4,526.6,834.2,526.6z"/>
			</g>
			<g>
				<path class="st1" d="M835.1,526.1c-0.1,0-0.3-0.1-0.4-0.2l-0.5-0.8c-0.1-0.2-0.1-0.5,0.1-0.6c0.2-0.1,0.5-0.1,0.6,0.1l0.5,0.8
					c0.1,0.2,0.1,0.5-0.1,0.6C835.2,526.1,835.1,526.1,835.1,526.1z"/>
			</g>
			<g>
				<path class="st1" d="M833.7,525.8c-0.1,0-0.3-0.1-0.4-0.2c-0.1-0.2-0.1-0.5,0.1-0.6l0.8-0.5c0.2-0.1,0.5-0.1,0.6,0.1
					c0.1,0.2,0.1,0.5-0.1,0.6l-0.8,0.5C833.9,525.8,833.8,525.8,833.7,525.8z"/>
			</g>
			<g>
				<path class="st1" d="M835.5,525c-0.1,0-0.3-0.1-0.4-0.2l-0.7-1.1c-0.1-0.2-0.1-0.5,0.1-0.6c0.2-0.1,0.5-0.1,0.6,0.1l0.7,1.1
					c0.1,0.2,0.1,0.5-0.1,0.6C835.7,525,835.6,525,835.5,525z"/>
			</g>
			<g>
				<path class="st1" d="M833.7,524.6c-0.1,0-0.3-0.1-0.4-0.2c-0.1-0.2-0.1-0.5,0.1-0.6l1.1-0.7c0.2-0.1,0.5-0.1,0.6,0.1
					c0.1,0.2,0.1,0.5-0.1,0.6l-1.1,0.7C833.9,524.6,833.8,524.6,833.7,524.6z"/>
			</g>
			<g>
				<path class="st1" d="M835.4,521.1c-0.1,0-0.3-0.1-0.4-0.2l-0.5-0.8c-0.1-0.2-0.1-0.5,0.1-0.6c0.2-0.1,0.5-0.1,0.6,0.1l0.5,0.8
					c0.1,0.2,0.1,0.5-0.1,0.6C835.6,521.1,835.5,521.1,835.4,521.1z"/>
			</g>
			<g>
				<path class="st1" d="M835.4,521.1c-0.1,0-0.3-0.1-0.4-0.2c-0.1-0.2-0.1-0.5,0.1-0.6l0.8-0.5c0.2-0.1,0.5-0.1,0.6,0.1
					c0.1,0.2,0.1,0.5-0.1,0.6l-0.8,0.5C835.6,521.1,835.5,521.1,835.4,521.1z"/>
			</g>
			<g>
				<path class="st1" d="M835.1,522.5c-0.1,0-0.3-0.1-0.4-0.2l-0.7-1.1c-0.1-0.2-0.1-0.5,0.1-0.6c0.2-0.1,0.5-0.1,0.6,0.1l0.7,1.1
					c0.1,0.2,0.1,0.5-0.1,0.6C835.3,522.5,835.2,522.5,835.1,522.5z"/>
			</g>
			<g>
				<path class="st1" d="M835.1,522.5c-0.1,0-0.3-0.1-0.4-0.2c-0.1-0.2-0.1-0.5,0.1-0.6l1.1-0.7c0.2-0.1,0.5-0.1,0.6,0.1
					c0.1,0.2,0.1,0.5-0.1,0.6l-1.1,0.7C835.3,522.5,835.2,522.5,835.1,522.5z"/>
			</g>
		</g>
		<g>
			<g>
				<path class="st1" d="M838.3,523.9C838.3,523.9,838.3,523.9,838.3,523.9l-6.8-1.5c-0.2,0-0.4-0.3-0.3-0.5c0-0.2,0.3-0.4,0.5-0.3
					l6.7,1.5c0.2,0,0.4,0.3,0.3,0.5C838.7,523.8,838.5,523.9,838.3,523.9z"/>
			</g>
			<g>
				<path class="st1" d="M832.1,523.3c-0.1,0-0.3-0.1-0.4-0.2c-0.1-0.2-0.1-0.5,0.1-0.6l0.8-0.5c0.2-0.1,0.5-0.1,0.6,0.1
					c0.1,0.2,0.1,0.5-0.1,0.6l-0.8,0.5C832.3,523.3,832.2,523.3,832.1,523.3z"/>
			</g>
			<g>
				<path class="st1" d="M832.9,522.8c-0.1,0-0.3-0.1-0.4-0.2l-0.5-0.8c-0.1-0.2-0.1-0.5,0.1-0.6c0.2-0.1,0.5-0.1,0.6,0.1l0.5,0.8
					c0.1,0.2,0.1,0.5-0.1,0.6C833.1,522.7,833,522.8,832.9,522.8z"/>
			</g>
			<g>
				<path class="st1" d="M833.2,523.8c-0.1,0-0.3-0.1-0.4-0.2c-0.1-0.2-0.1-0.5,0.1-0.6l1.1-0.7c0.2-0.1,0.5-0.1,0.6,0.1
					c0.1,0.2,0.1,0.5-0.1,0.6l-1.1,0.7C833.4,523.7,833.3,523.8,833.2,523.8z"/>
			</g>
			<g>
				<path class="st1" d="M834.3,523.1c-0.1,0-0.3-0.1-0.4-0.2l-0.7-1.1c-0.1-0.2-0.1-0.5,0.1-0.6c0.2-0.1,0.5-0.1,0.6,0.1l0.7,1.1
					c0.1,0.2,0.1,0.5-0.1,0.6C834.5,523,834.4,523.1,834.3,523.1z"/>
			</g>
			<g>
				<path class="st1" d="M837.1,523.7c-0.1,0-0.3-0.1-0.4-0.2c-0.1-0.2-0.1-0.5,0.1-0.6l0.8-0.5c0.2-0.1,0.5-0.1,0.6,0.1
					c0.1,0.2,0.1,0.5-0.1,0.6l-0.8,0.5C837.2,523.6,837.2,523.7,837.1,523.7z"/>
			</g>
			<g>
				<path class="st1" d="M837.6,524.5c-0.1,0-0.3-0.1-0.4-0.2l-0.5-0.8c-0.1-0.2-0.1-0.5,0.1-0.6c0.2-0.1,0.5-0.1,0.6,0.1l0.5,0.8
					c0.1,0.2,0.1,0.5-0.1,0.6C837.8,524.5,837.7,524.5,837.6,524.5z"/>
			</g>
			<g>
				<path class="st1" d="M835.7,523.4c-0.1,0-0.3-0.1-0.4-0.2c-0.1-0.2-0.1-0.5,0.1-0.6l1.1-0.7c0.2-0.1,0.5-0.1,0.6,0.1
					c0.1,0.2,0.1,0.5-0.1,0.6l-1.1,0.7C835.9,523.3,835.8,523.4,835.7,523.4z"/>
			</g>
			<g>
				<path class="st1" d="M836.4,524.5c-0.1,0-0.3-0.1-0.4-0.2l-0.7-1.1c-0.1-0.2-0.1-0.5,0.1-0.6c0.2-0.1,0.5-0.1,0.6,0.1l0.7,1.1
					c0.1,0.2,0.1,0.5-0.1,0.6C836.6,524.5,836.5,524.5,836.4,524.5z"/>
			</g>
		</g>
	</g>
</g>
<g>
	<g>
		<g>
			<g>
				<path class="st1" d="M850.9,524.2c-3.2,0-5.9-2.6-5.9-5.9c0-0.4,0.3-0.7,0.7-0.7s0.7,0.3,0.7,0.7c0,2.5,2,4.5,4.5,4.5
					s4.5-2,4.5-4.5c0-3.7-2.9-4.7-4.4-4.8l-31.3,0c-0.4,0-0.7-0.3-0.7-0.7s0.3-0.7,0.7-0.7l0,0l31.3,0c2,0.1,5.8,1.5,5.8,6.2
					C856.8,521.6,854.2,524.2,850.9,524.2z M809.9,510.2c-0.4,0-0.7-0.3-0.7-0.7s0.3-0.7,0.7-0.7h41.1c0.2,0,4.5-0.2,4.5-4.8
					c0-2.5-2-4.5-4.5-4.5s-4.5,2-4.5,4.5c0,0.4-0.3,0.7-0.7,0.7s-0.7-0.3-0.7-0.7c0-3.2,2.6-5.9,5.9-5.9c3.2,0,5.9,2.6,5.9,5.9
					c0,4.7-3.8,6.1-5.9,6.2L809.9,510.2z"/>
			</g>
		</g>
	</g>
	<g>
		<path class="st1" d="M839.4,506.3h-25.6c-0.4,0-0.7-0.3-0.7-0.7s0.3-0.7,0.7-0.7h25.6c0.4,0,0.7,0.3,0.7,0.7
			S839.8,506.3,839.4,506.3z"/>
	</g>
	<g>
		<path class="st1" d="M842.6,517.7H828c-0.4,0-0.7-0.3-0.7-0.7s0.3-0.7,0.7-0.7h14.7c0.4,0,0.7,0.3,0.7,0.7S843,517.7,842.6,517.7z
			"/>
	</g>
</g>
<g>
	<path class="st1" d="M48.9,45.6c-5.3,0-10.1,0.8-13.4,1.4c-1.6,0.3-2.9,0.5-3.5,0.5c-0.6,0-2-0.2-3.5-0.5
		c-3.2-0.5-8.1-1.4-13.4-1.4c-2.6,0-5.1,0.2-7.4,0.6c0,1.3,0,1.9,0,2.3c0,0.3,0.1,0.3,0.1,0.3l0,0c1.3,0.5,1.6,1.8,2,3.4
		c0.8,2.9,1.8,6.5,8.9,7.3c0.5,0,1,0.1,1.4,0.1c1.7,0,4.2-0.4,6.2-2c2-1.7,2.5-3.5,2.9-4.8c0.2-0.9,0.6-2.6,2.7-2.6
		c2.1,0,2.4,1.7,2.7,2.6c0.4,1.3,0.8,3.1,2.9,4.8c1.9,1.7,4.4,2,6.2,2c0.5,0,1,0,1.4-0.1c7.1-0.8,8.1-4.4,8.9-7.3
		c0.4-1.6,0.8-2.9,2-3.4l0,0c0.1,0,0.1,0,0.1-0.3c0-0.3,0-1,0-2.3C54,45.8,51.5,45.6,48.9,45.6z M27.3,54.9
		c-0.9,1.7-2.9,3.7-7.3,3.7c-0.2,0-0.4,0-0.7,0c-2.9-0.1-5-1.1-6.4-2.9c-2.1-2.6-1.8-6.4-1.5-7.4c0.5-1.6,5.4-1.7,6.9-1.7
		c0.5,0,1,0,1.4,0c3.6,0.2,6.2,0.5,7.7,2.1C28.2,49.7,28.5,52.6,27.3,54.9z M51.1,55.8c-1.4,1.8-3.6,2.7-6.4,2.9c-0.2,0-0.5,0-0.7,0
		c-4.4,0-6.4-2-7.3-3.7c-1.2-2.3-0.9-5.2-0.1-6.1c1.6-1.6,4.2-1.9,7.7-2.1c0.4,0,0.9,0,1.4,0c1.5,0,6.3,0.1,6.9,1.7
		C52.9,49.4,53.2,53.1,51.1,55.8z"/>
	<g>
		<path class="st1" d="M32,29.6c-0.9,0-22.9-0.1-22.9-4.9c0.6-9.8,5.4-16.9,5.6-17.2C16.1,5.1,26.2,4.4,32,4.4
			c5.7,0,15.8,0.7,17.3,3.1c0.4,0.6,5.1,7.7,5.6,17.1C54.9,29.5,32.9,29.6,32,29.6z M16.2,8.5L16.2,8.5c0,0.1-4.8,7-5.3,16.2
			c0.4,1,7.9,3.1,21.1,3.1s20.7-2,21.1-3.2c-0.5-9-5.1-15.9-5.3-16.1c0,0,0,0,0-0.1C47.3,7.7,42,6.2,32,6.2
			C22,6.2,16.7,7.7,16.2,8.5C16.2,8.5,16.2,8.5,16.2,8.5z"/>
	</g>
	<g>
		<path class="st1" d="M32,12.2c-4.5,0-8.7-0.3-11.9-0.9c-3.9-0.7-5.6-1.6-5.6-3s1.7-2.3,5.6-3c3.2-0.6,7.4-0.9,11.9-0.9
			s8.7,0.3,11.9,0.9c3.9,0.7,5.6,1.6,5.6,3s-1.7,2.3-5.6,3C40.7,11.9,36.5,12.2,32,12.2z M16.4,8.3c0.9,0.8,6.2,2.1,15.6,2.1
			s14.7-1.3,15.6-2.1C46.7,7.5,41.5,6.2,32,6.2S17.3,7.5,16.4,8.3z M47.8,8.4L47.8,8.4L47.8,8.4z"/>
	</g>
	<g>
		<path class="st1" d="M32,42.3c-10.7,0-31-1.3-31-6.4C1.2,30.4,9.1,24.2,9.4,24c0.4-0.3,1-0.2,1.3,0.2c0.3,0.4,0.2,1-0.2,1.3
			c-0.1,0.1-7.6,5.9-7.7,10.5c0,1.5,10.3,4.6,29.2,4.6s29.2-3,29.2-4.6c-0.1-4.6-7.7-10.4-7.7-10.5c-0.4-0.3-0.5-0.9-0.2-1.3
			c0.3-0.4,0.9-0.5,1.3-0.2c0.3,0.3,8.3,6.4,8.4,11.9C63,40.9,42.7,42.3,32,42.3z"/>
	</g>
	<g>
		<path class="st1" d="M32,26.2c-9.2,0-20.2-1.1-22.4-3.7c-0.3-0.4-0.3-0.9,0.1-1.3c0.4-0.3,0.9-0.3,1.3,0.1
			c1.3,1.5,9.6,3.1,21.1,3.1c11.5,0,19.7-1.6,21.1-3.1c0.3-0.4,0.9-0.4,1.3-0.1c0.4,0.3,0.4,0.9,0.1,1.3C52.2,25,41.2,26.2,32,26.2z
			"/>
	</g>
</g>
</svg>
