<?xml version="1.0" encoding="utf-8"?>
<!-- Generator: Adobe Illustrator 19.2.1, SVG Export Plug-In . SVG Version: 6.00 Build 0)  -->
<svg version="1.1" id="Layer_1" xmlns="http://www.w3.org/2000/svg" xmlns:xlink="http://www.w3.org/1999/xlink" x="0px" y="0px"
	 viewBox="0 0 64 64" style="enable-background:new 0 0 64 64;" xml:space="preserve">
<metadata><?xpacket begin="﻿" id="W5M0MpCehiHzreSzNTczkc9d"?>
<x:xmpmeta xmlns:x="adobe:ns:meta/" x:xmptk="Adobe XMP Core 5.6-c111 79.158366, 2015/09/25-01:12:00        ">
   <rdf:RDF xmlns:rdf="http://www.w3.org/1999/02/22-rdf-syntax-ns#">
      <rdf:Description rdf:about=""/>
   </rdf:RDF>
</x:xmpmeta>
                                                                                                    
                                                                                                    
                                                                                                    
                                                                                                    
                                                                                                    
                                                                                                    
                                                                                                    
                                                                                                    
                                                                                                    
                                                                                                    
                                                                                                    
                                                                                                    
                                                                                                    
                                                                                                    
                                                                                                    
                                                                                                    
                                                                                                    
                                                                                                    
                                                                                                    
                                                                                                    
                           
<?xpacket end="w"?></metadata>
<style type="text/css">
	.st0{fill:none;}
	.st1{fill:#5B554D;}
</style>
<rect class="st0" width="64" height="64"/>
<g>
	<g>
		<path class="st1" d="M54.5,24.1c-0.5,0-0.9-0.4-0.9-0.9C53.7,12.3,43.5,2.7,32,2.7c-11.6,0-21.7,9.6-21.7,20.5
			c0,0.5-0.4,0.9-0.9,0.9s-0.9-0.4-0.9-0.9C8.5,11.4,19.5,1,32,1c12.5,0,23.4,10.4,23.4,22.2C55.4,23.7,55,24.1,54.5,24.1z"/>
	</g>
	<g>
		<g>
			<path class="st1" d="M9.2,50.7c-0.3,0-0.5-0.1-0.7-0.3c-1.3-1.4-2.4-3.2-3.2-5.2c-1-2.4-1.6-5-1.8-7.7c-0.2-2.7,0-5.4,0.7-7.9
				c0.6-2.2,1.4-4.1,2.5-5.7c0.2-0.2,0.4-0.4,0.7-0.4c2.9,0,4,0,4.4,0.1c1.4,0.2,2.3,1.2,2.4,2.9l1.4,19.3c0.1,1.2-0.3,2.3-1,3
				c-0.6,0.6-1.4,0.9-2.4,0.9c-0.3,0.5-0.8,0.8-1.5,0.9L9.2,50.7C9.2,50.7,9.2,50.7,9.2,50.7z M7.7,25.2c-0.9,1.4-1.5,3-2,4.8
				c-0.6,2.3-0.8,4.8-0.6,7.3c0.2,2.6,0.8,5,1.7,7.2c0.7,1.7,1.6,3.2,2.7,4.5l1-0.1c0-0.3,0.2-0.5,0.3-0.7c0.2-0.2,0.5-0.3,0.7-0.2
				c0.8,0.1,1.3-0.1,1.7-0.4c0.4-0.4,0.6-0.9,0.5-1.6l-1.4-19.3c-0.1-1.3-0.7-1.3-1-1.4c-0.1,0-0.2,0-0.2-0.1
				C10.7,25.2,9.2,25.2,7.7,25.2z"/>
		</g>
		<g>
			<path class="st1" d="M11.4,49.8c-0.4,0-0.7-0.2-0.8-0.6C9.6,46,6.8,34.8,9.8,24.3c0.1-0.5,0.6-0.7,1.1-0.6
				c0.5,0.1,0.7,0.6,0.6,1.1c-2.9,10-0.1,20.8,0.8,23.9c0.1,0.5-0.1,0.9-0.6,1.1C11.6,49.8,11.5,49.8,11.4,49.8z"/>
		</g>
	</g>
	<g>
		<g>
			<path class="st1" d="M54.8,50.7C54.8,50.7,54.8,50.7,54.8,50.7l-1.5-0.1c-0.7-0.1-1.2-0.4-1.5-0.9c-0.9,0-1.8-0.3-2.4-0.9
				c-0.8-0.7-1.1-1.8-1-3l1.4-19.3c0.1-1.7,1-2.8,2.4-2.9c0.5-0.1,1.5-0.1,4.4-0.1c0.3,0,0.5,0.1,0.7,0.4c1.1,1.6,1.9,3.5,2.5,5.7
				c0.6,2.5,0.9,5.2,0.7,7.9c-0.2,2.7-0.8,5.3-1.8,7.7c-0.9,2-2,3.8-3.3,5.3C55.3,50.6,55.1,50.7,54.8,50.7z M52.4,48
				c0.2,0,0.5,0.1,0.6,0.2c0.2,0.2,0.3,0.4,0.3,0.6l1.1,0.1c1.1-1.3,2-2.8,2.7-4.5c0.9-2.2,1.5-4.6,1.7-7.2c0.2-2.5,0-5-0.6-7.3
				c-0.5-1.8-1.1-3.4-2-4.8c-1.4,0-3,0-3.4,0c-0.1,0-0.2,0-0.2,0.1c-0.3,0-0.9,0.1-1,1.4l-1.4,19.3c-0.1,0.7,0.1,1.3,0.5,1.6
				c0.4,0.4,0.9,0.5,1.6,0.4C52.3,48,52.3,48,52.4,48z"/>
		</g>
		<g>
			<path class="st1" d="M52.6,49.8c-0.1,0-0.2,0-0.2,0c-0.5-0.1-0.7-0.6-0.6-1.1c0.9-3.1,3.6-13.9,0.8-23.9
				c-0.1-0.5,0.1-0.9,0.6-1.1c0.5-0.1,0.9,0.1,1.1,0.6c3,10.4,0.2,21.7-0.8,24.9C53.3,49.6,53,49.8,52.6,49.8z"/>
		</g>
	</g>
	<circle class="st1" cx="37.5" cy="59.8" r="3.2"/>
	<g>
		<path class="st1" d="M37.5,60.7c-0.4,0-0.7-0.3-0.8-0.7c-0.1-0.5,0.2-0.9,0.6-1c0.1,0,7.7-2,14.2-10.5c0.3-0.4,0.8-0.5,1.2-0.2
			c0.4,0.3,0.5,0.8,0.2,1.2C46,58.6,38,60.6,37.7,60.6C37.6,60.7,37.5,60.7,37.5,60.7z"/>
	</g>
</g>
</svg>
