<?xml version="1.0" encoding="utf-8"?>
<!-- Generator: Adobe Illustrator 19.2.1, SVG Export Plug-In . SVG Version: 6.00 Build 0)  -->
<svg version="1.1" id="Layer_1" xmlns="http://www.w3.org/2000/svg" xmlns:xlink="http://www.w3.org/1999/xlink" x="0px" y="0px"
	 viewBox="0 0 64 64" style="enable-background:new 0 0 64 64;" xml:space="preserve">
<metadata><?xpacket begin="﻿" id="W5M0MpCehiHzreSzNTczkc9d"?>
<x:xmpmeta xmlns:x="adobe:ns:meta/" x:xmptk="Adobe XMP Core 5.6-c111 79.158366, 2015/09/25-01:12:00        ">
   <rdf:RDF xmlns:rdf="http://www.w3.org/1999/02/22-rdf-syntax-ns#">
      <rdf:Description rdf:about=""/>
   </rdf:RDF>
</x:xmpmeta>
                                                                                                    
                                                                                                    
                                                                                                    
                                                                                                    
                                                                                                    
                                                                                                    
                                                                                                    
                                                                                                    
                                                                                                    
                                                                                                    
                                                                                                    
                                                                                                    
                                                                                                    
                                                                                                    
                                                                                                    
                                                                                                    
                                                                                                    
                                                                                                    
                                                                                                    
                                                                                                    
                           
<?xpacket end="w"?></metadata>
<style type="text/css">
	.st0{fill:none;}
	.st1{fill:#5B554D;}
</style>
<rect class="st0" width="64" height="64"/>
<g>
	<path class="st1" d="M32,59.1c-0.4,0-0.8-0.3-0.9-0.7C30.4,56,25.7,50.1,19,45.7c-1.1-0.7-2.2-1.4-3.4-2.1
		C9.1,39.7,0.9,34.8,1,24.4C1.1,14.3,6.2,6.8,14.1,5.2c7.1-1.4,14,2.4,17.9,10c4.3-8.3,12-10.9,18-9.7c7.8,1.6,12.9,9,13,18.9
		c0.1,10-7.3,14.6-13.9,18.6c-1.5,0.9-2.8,1.8-4.1,2.7c-6.5,4.6-11.5,10.7-12.1,12.9C32.8,58.8,32.4,59.1,32,59.1
		C32,59.1,32,59.1,32,59.1z M17,6.7c-0.8,0-1.7,0.1-2.5,0.3c-7,1.4-11.6,8.3-11.7,17.5c-0.1,9.3,7.3,13.8,13.8,17.7
		c1.2,0.7,2.3,1.4,3.4,2.1c5.8,3.8,10.2,8.7,12,11.9c1.9-3.2,6.5-8.2,11.9-12c1.3-0.9,2.7-1.8,4.2-2.7c6.4-4,13.1-8.1,13-17.1
		c-0.1-9-4.6-15.7-11.6-17.1C44,6,36.6,8.8,32.8,17.6c-0.1,0.3-0.5,0.6-0.8,0.6h0c-0.4,0-0.7-0.2-0.8-0.5C28.2,10.7,22.8,6.7,17,6.7
		z"/>
</g>
</svg>
