<?xml version="1.0" encoding="utf-8"?>
<!-- Generator: Adobe Illustrator 19.2.1, SVG Export Plug-In . SVG Version: 6.00 Build 0)  -->
<svg version="1.1" id="Layer_1" xmlns="http://www.w3.org/2000/svg" xmlns:xlink="http://www.w3.org/1999/xlink" x="0px" y="0px"
	 viewBox="0 0 64 64" style="enable-background:new 0 0 64 64;" xml:space="preserve">
<metadata><?xpacket begin="﻿" id="W5M0MpCehiHzreSzNTczkc9d"?>
<x:xmpmeta xmlns:x="adobe:ns:meta/" x:xmptk="Adobe XMP Core 5.6-c111 79.158366, 2015/09/25-01:12:00        ">
   <rdf:RDF xmlns:rdf="http://www.w3.org/1999/02/22-rdf-syntax-ns#">
      <rdf:Description rdf:about=""/>
   </rdf:RDF>
</x:xmpmeta>
                                                                                                    
                                                                                                    
                                                                                                    
                                                                                                    
                                                                                                    
                                                                                                    
                                                                                                    
                                                                                                    
                                                                                                    
                                                                                                    
                                                                                                    
                                                                                                    
                                                                                                    
                                                                                                    
                                                                                                    
                                                                                                    
                                                                                                    
                                                                                                    
                                                                                                    
                                                                                                    
                           
<?xpacket end="w"?></metadata>
<style type="text/css">
	.st0{fill:none;}
	.st1{fill:#5B554D;}
</style>
<rect class="st0" width="64" height="64"/>
<g>
	<g>
		<path class="st1" d="M7.8,37.4c-0.3,0-0.5-0.1-0.6-0.4l0.6-0.4l-0.7,0.3c-0.1-0.2-0.2-0.3-0.3-0.5c-0.8-1.7-0.9-3.6-0.3-5.3
			c0.6-1.8,1.9-3.2,3.6-4L41,12.2c1.7-0.8,3.6-0.9,5.3-0.3c1.8,0.6,3.2,1.9,4,3.6c0.1,0.2,0.2,0.4,0.3,0.6c0.1,0.4,0,0.8-0.4,0.9
			l-42,20.3C8.1,37.3,7.9,37.4,7.8,37.4z M44,12.9c-0.8,0-1.6,0.2-2.4,0.6L10.7,28.4c-1.3,0.6-2.3,1.8-2.8,3.1
			c-0.5,1.3-0.4,2.8,0.2,4.1l40.7-19.7c-0.6-1.3-1.7-2.2-3.1-2.7C45.2,13,44.6,12.9,44,12.9z"/>
	</g>
	<g>
		<path class="st1" d="M19.7,52.6c-2.7,0-5.1-1.5-6.3-3.9c-0.1-0.3-0.2-0.5-0.3-0.8c-0.1-0.4,0-0.8,0.4-0.9l42-20.3
			c0.3-0.2,0.8-0.1,1,0.3c0.2,0.2,0.3,0.5,0.4,0.7c0.8,1.7,0.9,3.6,0.3,5.3c-0.6,1.8-1.9,3.2-3.6,4L22.7,51.9
			C21.7,52.3,20.7,52.6,19.7,52.6z M14.7,48L14.7,48c0.9,1.9,2.8,3.1,4.9,3.1c0.8,0,1.6-0.2,2.4-0.5l30.9-14.9
			c1.3-0.6,2.3-1.8,2.8-3.1c0.5-1.4,0.4-2.9-0.2-4.2l0,0L14.7,48z"/>
	</g>
	<g>
		<g>
			<path class="st1" d="M8,50.5c-2.7,0-5.1-1.5-6.3-3.9C0,43,1.5,38.9,4.9,37.2l48-23.3c1.7-0.8,3.6-0.9,5.3-0.3
				c1.8,0.6,3.2,1.9,4,3.6c1.7,3.5,0.2,7.7-3.2,9.3L11,49.8C10.1,50.2,9.1,50.5,8,50.5z M56,14.7c-0.8,0-1.6,0.2-2.4,0.6l-48,23.3
				c-1.3,0.6-2.3,1.8-2.8,3.1c-0.5,1.4-0.4,2.9,0.2,4.2c1,1.8,2.9,3,5,3c0.8,0,1.6-0.2,2.4-0.5l48-23.3c1.3-0.6,2.3-1.8,2.8-3.1
				c0.5-1.4,0.4-2.9-0.2-4.2c-0.6-1.3-1.7-2.3-3.1-2.8C57.2,14.8,56.6,14.7,56,14.7z"/>
		</g>
	</g>
	<g>
		<path class="st1" d="M16.4,42c-0.2,0-0.5-0.1-0.6-0.4c-0.1-0.3,0-0.7,0.3-0.8s0.2-1.1,0.2-1.8c-0.1-1.2-0.2-2.5,0.9-3
			s2.1,0.5,2.9,1.3c0.5,0.5,1.2,1.2,1.5,1.1c0.8-0.4,1.2-0.4,1.6-0.5s0.7-0.1,1.3-0.4c0.3-0.1,0.1-1.6,0-2.2c-0.2-1.5-0.4-3,0.7-3.5
			c1-0.5,2,0.3,2.7,0.9c0.6,0.5,1.1,0.9,1.4,0.7c0.3-0.1,0.3-0.9,0.3-1.6c0-1,0-2.2,1-2.7s2,0.4,2.8,1.1c0.5,0.4,1.1,1,1.4,0.9
			c0.7-0.3,1.2-0.4,1.5-0.5c0.4-0.1,0.7-0.2,1.3-0.4c0.3-0.1,0.4-0.6,0.4-1.4c0-0.9,0.1-2,1.1-2.5c1.1-0.5,2,0.5,2.9,1.3
			c0.5,0.5,1.2,1.2,1.5,1.1s0.3-1,0.2-1.7c-0.1-1.1-0.1-2.4,0.9-2.9c0.6-0.3,0.9-0.5,1.2-0.7s0.7-0.5,1.4-0.8c1.1-0.5,2,0.4,2.8,1.2
			c0.5,0.5,1.2,1.1,1.5,1s0.7,0,0.8,0.3s0,0.7-0.3,0.8c-1.1,0.5-2-0.4-2.8-1.2c-0.5-0.5-1.2-1.1-1.5-1c-0.6,0.3-0.9,0.5-1.2,0.7
			s-0.7,0.5-1.4,0.8c-0.3,0.1-0.3,1-0.2,1.7C45,28,45,29.3,44,29.8c-1.1,0.5-2-0.5-2.9-1.3c-0.5-0.5-1.2-1.2-1.5-1.1
			s-0.4,0.6-0.4,1.4c0,0.9-0.1,2-1.1,2.5c-0.7,0.3-1.2,0.4-1.5,0.5s-0.7,0.2-1.3,0.4c-1,0.5-2-0.4-2.8-1.1c-0.5-0.4-1.1-1-1.4-0.9
			s-0.3,0.9-0.3,1.6c0,1,0,2.2-1,2.7s-2-0.3-2.7-0.9c-0.6-0.5-1.1-0.9-1.4-0.7c-0.3,0.1-0.1,1.6,0,2.2c0.2,1.5,0.4,3-0.7,3.5
			c-0.8,0.4-1.2,0.4-1.6,0.5s-0.7,0.1-1.3,0.4c-1.1,0.5-2-0.5-2.9-1.3c-0.5-0.5-1.2-1.2-1.5-1.1c-0.3,0.1-0.2,1.1-0.2,1.8
			c0.1,1.2,0.2,2.5-0.9,3C16.6,41.9,16.5,42,16.4,42z"/>
	</g>
</g>
</svg>
