<?xml version="1.0" encoding="utf-8"?>
<!-- Generator: Adobe Illustrator 19.2.1, SVG Export Plug-In . SVG Version: 6.00 Build 0)  -->
<svg version="1.1" id="Layer_1" xmlns="http://www.w3.org/2000/svg" xmlns:xlink="http://www.w3.org/1999/xlink" x="0px" y="0px"
	 viewBox="0 0 64 64" style="enable-background:new 0 0 64 64;" xml:space="preserve">
<metadata><?xpacket begin="﻿" id="W5M0MpCehiHzreSzNTczkc9d"?>
<x:xmpmeta xmlns:x="adobe:ns:meta/" x:xmptk="Adobe XMP Core 5.6-c111 79.158366, 2015/09/25-01:12:00        ">
   <rdf:RDF xmlns:rdf="http://www.w3.org/1999/02/22-rdf-syntax-ns#">
      <rdf:Description rdf:about=""/>
   </rdf:RDF>
</x:xmpmeta>
                                                                                                    
                                                                                                    
                                                                                                    
                                                                                                    
                                                                                                    
                                                                                                    
                                                                                                    
                                                                                                    
                                                                                                    
                                                                                                    
                                                                                                    
                                                                                                    
                                                                                                    
                                                                                                    
                                                                                                    
                                                                                                    
                                                                                                    
                                                                                                    
                                                                                                    
                                                                                                    
                           
<?xpacket end="w"?></metadata>
<style type="text/css">
	.st0{fill:none;}
	.st1{fill:#5B554D;}
</style>
<rect class="st0" width="64" height="64"/>
<g>
	<g>
		<g>
			<path class="st1" d="M31.8,63c-0.2,0-0.5,0-0.7-0.1c-0.9-0.3-1.6-0.9-1.8-1.8l0,0l-8-28.1c-0.1-0.3,0-0.5,0.1-0.7
				c0.2-0.2,0.4-0.3,0.7-0.3h19.6c0.3,0,0.5,0.1,0.7,0.3s0.2,0.5,0.1,0.7l-8,28.1c-0.2,0.7-0.6,1.3-1.3,1.6
				C32.7,62.9,32.3,63,31.8,63z M30.9,60.6c0.1,0.3,0.4,0.6,0.7,0.7c0.3,0.1,0.5,0,0.8-0.1c0.2-0.1,0.4-0.3,0.5-0.6l7.7-27.1H23.1
				L30.9,60.6z"/>
		</g>
	</g>
	<g>
		<path class="st1" d="M32,16.7c-0.3,0-0.6-0.2-0.7-0.4c-1.4-2.5-4.1-4.1-7-4.1c-0.3,0-0.7,0-1.2,0.1c-0.2,0-0.5,0-0.6-0.2
			c-0.2-0.1-0.3-0.4-0.3-0.6c0-0.3,0-0.5,0-0.8c0-5.4,4.4-9.7,9.7-9.7c5.4,0,9.7,4.4,9.7,9.7c0,0.2,0,0.5,0,0.7s-0.1,0.5-0.3,0.6
			s-0.4,0.2-0.6,0.2c-0.3,0-0.6,0-0.9,0c-2.9,0-5.6,1.6-7,4.1C32.6,16.5,32.3,16.7,32,16.7z M24.3,10.5c3,0,5.9,1.4,7.7,3.8
			c1.8-2.4,4.7-3.8,7.7-3.8h0.1c-0.1-4.3-3.7-7.8-8-7.8c-4.4,0-7.9,3.5-8,7.8C24,10.5,24.1,10.5,24.3,10.5z"/>
	</g>
	<g>
		<path class="st1" d="M30.9,21.6H15.4c-0.4,0-0.8-0.3-0.8-0.8c0-0.3,0-0.4,0-0.6c0-5.4,4.4-9.7,9.7-9.7c3.5,0,6.7,1.9,8.4,4.9
			c0.1,0.3,0.1,0.6,0,0.8c-0.7,1.2-1,2.6-1,3.9c0,0.1,0,0.3,0,0.4v0.1c0,0.2-0.1,0.5-0.2,0.6C31.3,21.5,31.1,21.6,30.9,21.6z
			 M16.3,19.9H30c0-1.4,0.4-2.8,1-4.1c-1.5-2.3-4-3.7-6.8-3.7C19.9,12.2,16.4,15.6,16.3,19.9z"/>
	</g>
	<g>
		<path class="st1" d="M46.2,33.5H17.9c-1.7,0-3.2-1.4-3.2-3.2v-9.6c0-0.5,0.4-0.8,0.8-0.8h33c0.5,0,0.8,0.4,0.8,0.8v9.6
			C49.4,32.1,48,33.5,46.2,33.5z M16.4,21.7v8.7c0,0.8,0.7,1.5,1.5,1.5h28.3c0.8,0,1.5-0.7,1.5-1.5v-8.7H16.4z"/>
	</g>
	<g>
		<path class="st1" d="M48.6,21.6H30.9c-0.4,0-0.8-0.3-0.8-0.8c0-0.3,0-0.4,0-0.6c0-5.4,4.4-9.7,9.7-9.7s9.7,4.4,9.7,9.7
			c0,0.2,0,0.3,0,0.5C49.4,21.1,49,21.6,48.6,21.6z M31.7,19.9h16c-0.1-4.3-3.7-7.8-8-7.8S31.8,15.6,31.7,19.9z"/>
	</g>
</g>
</svg>
