<?xml version="1.0" encoding="utf-8"?>
<!-- Generator: Adobe Illustrator 19.2.1, SVG Export Plug-In . SVG Version: 6.00 Build 0)  -->
<svg version="1.1" id="Layer_1" xmlns="http://www.w3.org/2000/svg" xmlns:xlink="http://www.w3.org/1999/xlink" x="0px" y="0px"
	 viewBox="0 0 64 64" style="enable-background:new 0 0 64 64;" xml:space="preserve">
<metadata><?xpacket begin="﻿" id="W5M0MpCehiHzreSzNTczkc9d"?>
<x:xmpmeta xmlns:x="adobe:ns:meta/" x:xmptk="Adobe XMP Core 5.6-c111 79.158366, 2015/09/25-01:12:00        ">
   <rdf:RDF xmlns:rdf="http://www.w3.org/1999/02/22-rdf-syntax-ns#">
      <rdf:Description rdf:about=""/>
   </rdf:RDF>
</x:xmpmeta>
                                                                                                    
                                                                                                    
                                                                                                    
                                                                                                    
                                                                                                    
                                                                                                    
                                                                                                    
                                                                                                    
                                                                                                    
                                                                                                    
                                                                                                    
                                                                                                    
                                                                                                    
                                                                                                    
                                                                                                    
                                                                                                    
                                                                                                    
                                                                                                    
                                                                                                    
                                                                                                    
                           
<?xpacket end="w"?></metadata>
<style type="text/css">
	.st0{fill:none;}
	.st1{fill:#5B554D;}
</style>
<rect class="st0" width="64" height="64"/>
<g>
	<g>
		<g>
			<g>
				<path class="st1" d="M32,63c-2.4,0-4.4-2-4.4-4.4v-9.5c0-0.5,0.4-0.8,0.8-0.8c0.5,0,0.8,0.4,0.8,0.8v9.5c0,1.5,1.2,2.7,2.7,2.7
					c1.5,0,2.7-1.2,2.7-2.7v-9.5c0-0.5,0.4-0.8,0.8-0.8c0.5,0,0.8,0.4,0.8,0.8v9.5C36.4,61,34.4,63,32,63z"/>
			</g>
		</g>
	</g>
	<g>
		<path class="st1" d="M43.1,49.9H20.9c-3.2,0-5.9-2.6-5.9-5.9V19.4C15,9.3,22.6,1,32,1s17,8.3,17,18.4v24.7
			C49,47.3,46.3,49.9,43.1,49.9z M32,2.7c-8.4,0-15.3,7.5-15.3,16.7v24.7c0,2.3,1.9,4.2,4.2,4.2h22.2c2.3,0,4.2-1.9,4.2-4.2V19.4
			C47.3,10.2,40.4,2.7,32,2.7z"/>
	</g>
	<g>
		<g>
			<g>
				<path class="st1" d="M26.2,42.1c-1.9,0-3.5-1.6-3.5-3.5V18.3c0-1.9,1.6-3.5,3.5-3.5s3.5,1.6,3.5,3.5v20.4
					C29.7,40.6,28.1,42.1,26.2,42.1z M26.2,16.5c-1,0-1.8,0.8-1.8,1.8v20.4c0,1,0.8,1.8,1.8,1.8s1.8-0.8,1.8-1.8V18.3
					C28,17.3,27.2,16.5,26.2,16.5z"/>
			</g>
		</g>
		<g>
			<g>
				<path class="st1" d="M37.8,42.1c-1.9,0-3.5-1.6-3.5-3.5V18.3c0-1.9,1.6-3.5,3.5-3.5s3.5,1.6,3.5,3.5v20.4
					C41.3,40.6,39.7,42.1,37.8,42.1z M37.8,16.5c-1,0-1.8,0.8-1.8,1.8v20.4c0,1,0.8,1.8,1.8,1.8s1.8-0.8,1.8-1.8V18.3
					C39.6,17.3,38.8,16.5,37.8,16.5z"/>
			</g>
		</g>
	</g>
</g>
</svg>
