<?xml version="1.0" encoding="utf-8"?>
<!-- Generator: Adobe Illustrator 19.2.1, SVG Export Plug-In . SVG Version: 6.00 Build 0)  -->
<svg version="1.1" id="Layer_1" xmlns="http://www.w3.org/2000/svg" xmlns:xlink="http://www.w3.org/1999/xlink" x="0px" y="0px"
	 viewBox="0 0 64 64" style="enable-background:new 0 0 64 64;" xml:space="preserve">
<metadata><?xpacket begin="﻿" id="W5M0MpCehiHzreSzNTczkc9d"?>
<x:xmpmeta xmlns:x="adobe:ns:meta/" x:xmptk="Adobe XMP Core 5.6-c111 79.158366, 2015/09/25-01:12:00        ">
   <rdf:RDF xmlns:rdf="http://www.w3.org/1999/02/22-rdf-syntax-ns#">
      <rdf:Description rdf:about=""/>
   </rdf:RDF>
</x:xmpmeta>
                                                                                                    
                                                                                                    
                                                                                                    
                                                                                                    
                                                                                                    
                                                                                                    
                                                                                                    
                                                                                                    
                                                                                                    
                                                                                                    
                                                                                                    
                                                                                                    
                                                                                                    
                                                                                                    
                                                                                                    
                                                                                                    
                                                                                                    
                                                                                                    
                                                                                                    
                                                                                                    
                           
<?xpacket end="w"?></metadata>
<style type="text/css">
	.st0{fill:none;}
	.st1{fill:#5B554D;}
</style>
<rect class="st0" width="64" height="64"/>
<g>
	<g>
		<path class="st1" d="M50.3,45.9H14.1c-0.4,0-0.7-0.3-0.7-0.7s0.3-0.7,0.7-0.7h36.3c0.4,0,0.7,0.3,0.7,0.7S50.7,45.9,50.3,45.9z"/>
	</g>
	<g>
		<path class="st1" d="M14.9,45.9C7.2,45.9,1,39.7,1,32s6.2-13.9,13.9-13.9S28.8,24.3,28.8,32S22.5,45.9,14.9,45.9z M14.9,19.5
			C8,19.5,2.4,25.1,2.4,32c0,6.9,5.6,12.5,12.5,12.5c6.9,0,12.5-5.6,12.5-12.5C27.4,25.1,21.8,19.5,14.9,19.5z"/>
	</g>
	<g>
		<path class="st1" d="M14.9,38.4c-3.5,0-6.4-2.9-6.4-6.4c0-3.5,2.9-6.4,6.4-6.4c3.5,0,6.4,2.9,6.4,6.4
			C21.3,35.5,18.4,38.4,14.9,38.4z M14.9,26.9c-2.8,0-5.1,2.3-5.1,5.1s2.3,5.1,5.1,5.1s5.1-2.3,5.1-5.1S17.7,26.9,14.9,26.9z"/>
	</g>
	<g>
		<path class="st1" d="M49.1,45.9c-7.7,0-13.9-6.2-13.9-13.9s6.2-13.9,13.9-13.9S63,24.3,63,32S56.8,45.9,49.1,45.9z M49.1,19.5
			c-6.9,0-12.5,5.6-12.5,12.5c0,6.9,5.6,12.5,12.5,12.5c6.9,0,12.5-5.6,12.5-12.5C61.6,25.1,56,19.5,49.1,19.5z"/>
	</g>
	<g>
		<path class="st1" d="M49.1,38.4c-3.5,0-6.4-2.9-6.4-6.4c0-3.5,2.9-6.4,6.4-6.4c3.5,0,6.4,2.9,6.4,6.4
			C55.5,35.5,52.7,38.4,49.1,38.4z M49.1,26.9c-2.8,0-5.1,2.3-5.1,5.1s2.3,5.1,5.1,5.1c2.8,0,5.1-2.3,5.1-5.1S51.9,26.9,49.1,26.9z"
			/>
	</g>
</g>
</svg>
