<?xml version="1.0" encoding="utf-8"?>
<!-- Generator: Adobe Illustrator 19.2.1, SVG Export Plug-In . SVG Version: 6.00 Build 0)  -->
<svg version="1.1" id="Layer_1" xmlns="http://www.w3.org/2000/svg" xmlns:xlink="http://www.w3.org/1999/xlink" x="0px" y="0px"
	 viewBox="0 0 64 64" style="enable-background:new 0 0 64 64;" xml:space="preserve">
<metadata><?xpacket begin="﻿" id="W5M0MpCehiHzreSzNTczkc9d"?>
<x:xmpmeta xmlns:x="adobe:ns:meta/" x:xmptk="Adobe XMP Core 5.6-c111 79.158366, 2015/09/25-01:12:00        ">
   <rdf:RDF xmlns:rdf="http://www.w3.org/1999/02/22-rdf-syntax-ns#">
      <rdf:Description rdf:about=""/>
   </rdf:RDF>
</x:xmpmeta>
                                                                                                    
                                                                                                    
                                                                                                    
                                                                                                    
                                                                                                    
                                                                                                    
                                                                                                    
                                                                                                    
                                                                                                    
                                                                                                    
                                                                                                    
                                                                                                    
                                                                                                    
                                                                                                    
                                                                                                    
                                                                                                    
                                                                                                    
                                                                                                    
                                                                                                    
                                                                                                    
                           
<?xpacket end="w"?></metadata>
<style type="text/css">
	.st0{fill:none;}
	.st1{fill:#5B554D;}
</style>
<rect class="st0" width="64" height="64"/>
<g>
	<g>
		<path class="st1" d="M60.3,54.3H3.6c-1.5,0-2.6-1.2-2.6-2.6V12.3c0-1.5,1.2-2.6,2.6-2.6h56.7c1.5,0,2.7,1.2,2.7,2.6v39.4
			C63,53.2,61.8,54.3,60.3,54.3z M3.6,11.3c-0.5,0-1,0.4-1,1v39.4c0,0.5,0.4,1,1,1h56.7c0.5,0,1-0.4,1-1V12.3c0-0.5-0.4-1-1-1H3.6z"
			/>
	</g>
	<g>
		<path class="st1" d="M24.5,45.2H10c-0.7,0-1.2-0.3-1.6-0.7c-0.4-0.5-0.5-1.1-0.3-1.7c0,0,0-0.2,0.1-0.6c0.4-1.6,1.6-6.4,2.6-7.8
			c1.7-2.4,4.6-2.4,4.7-2.3l2.7,0c0.1,0,3.9-0.1,5.3,2.5c1.1,1.4,2.4,6.3,2.8,7.9l0.1,0.3c0.2,0.6,0,1.2-0.3,1.7
			C25.7,45,25.1,45.2,24.5,45.2z M15.4,33.7c-0.3,0-2.2,0.1-3.3,1.6c-0.6,0.9-1.8,4.9-2.3,7.3c-0.1,0.3-0.1,0.4-0.1,0.5
			c-0.1,0.2,0,0.3,0,0.4c0.1,0.1,0.2,0.1,0.3,0.1h14.4c0.1,0,0.2,0,0.3-0.1c0-0.1,0.1-0.2,0-0.3c0,0,0,0,0-0.1l-0.1-0.3
			c-0.5-2.3-1.9-6.5-2.5-7.3c0,0-0.1-0.1-0.1-0.1c-0.9-1.7-3.8-1.7-3.9-1.7H15.4C15.5,33.7,15.5,33.7,15.4,33.7z M17.2,31.6
			c-3.5,0-6.4-2.9-6.4-6.4c0-3.5,2.9-6.4,6.4-6.4c3.5,0,6.4,2.9,6.4,6.4C23.7,28.8,20.8,31.6,17.2,31.6z M17.2,20.4
			c-2.6,0-4.8,2.1-4.8,4.8c0,2.6,2.1,4.8,4.8,4.8c2.6,0,4.8-2.1,4.8-4.8C22,22.6,19.8,20.4,17.2,20.4z"/>
	</g>
	<g>
		<path class="st1" d="M32,54.3c-0.5,0-0.8-0.4-0.8-0.8v-43c0-0.5,0.4-0.8,0.8-0.8c0.5,0,0.8,0.4,0.8,0.8v43
			C32.8,54,32.5,54.3,32,54.3z"/>
	</g>
	<g>
		<g>
			<path class="st1" d="M57.4,26.4H36.1c-0.5,0-0.8-0.4-0.8-0.8c0-0.5,0.4-0.8,0.8-0.8h21.3c0.5,0,0.8,0.4,0.8,0.8
				C58.3,26,57.9,26.4,57.4,26.4z"/>
		</g>
		<g>
			<path class="st1" d="M57.4,32.8H36.1c-0.5,0-0.8-0.4-0.8-0.8s0.4-0.8,0.8-0.8h21.3c0.5,0,0.8,0.4,0.8,0.8S57.9,32.8,57.4,32.8z"
				/>
		</g>
		<g>
			<path class="st1" d="M57.4,39.3H36.1c-0.5,0-0.8-0.4-0.8-0.8s0.4-0.8,0.8-0.8h21.3c0.5,0,0.8,0.4,0.8,0.8S57.9,39.3,57.4,39.3z"
				/>
		</g>
	</g>
</g>
</svg>
