<?xml version="1.0" encoding="utf-8"?>
<!-- Generator: Adobe Illustrator 19.2.1, SVG Export Plug-In . SVG Version: 6.00 Build 0)  -->
<svg version="1.1" id="Layer_1" xmlns="http://www.w3.org/2000/svg" xmlns:xlink="http://www.w3.org/1999/xlink" x="0px" y="0px"
	 viewBox="0 0 64 64" style="enable-background:new 0 0 64 64;" xml:space="preserve">
<metadata><?xpacket begin="﻿" id="W5M0MpCehiHzreSzNTczkc9d"?>
<x:xmpmeta xmlns:x="adobe:ns:meta/" x:xmptk="Adobe XMP Core 5.6-c111 79.158366, 2015/09/25-01:12:00        ">
   <rdf:RDF xmlns:rdf="http://www.w3.org/1999/02/22-rdf-syntax-ns#">
      <rdf:Description rdf:about=""/>
   </rdf:RDF>
</x:xmpmeta>
                                                                                                    
                                                                                                    
                                                                                                    
                                                                                                    
                                                                                                    
                                                                                                    
                                                                                                    
                                                                                                    
                                                                                                    
                                                                                                    
                                                                                                    
                                                                                                    
                                                                                                    
                                                                                                    
                                                                                                    
                                                                                                    
                                                                                                    
                                                                                                    
                                                                                                    
                                                                                                    
                           
<?xpacket end="w"?></metadata>
<style type="text/css">
	.st0{fill:none;}
	.st1{fill:#5B554D;}
</style>
<rect class="st0" width="64" height="64"/>
<g>
	<path class="st1" d="M24,63c-1.1,0-2.1-0.3-2.8-0.7c-3.1-1.6-3.9-5.4-3.5-7.7c0.2-1.2,1.8-5.3,4.3-12c2.2-5.8,4.8-12.4,5.2-14.5
		c0,0,0,0,0,0c-1.1,0.4-3.6,2.2-5.9,4.2c-0.3,0.3-0.8,0.3-1.2,0c-0.3-0.3-0.4-0.8-0.2-1.1c3.1-5.2,6.5-10.2,10.4-11.1
		c1.7-0.4,3.4,0,5,1.1c5.4,3.7,1.6,14.1-2.4,22.8c-4,8.6-3.4,10.5-3.2,10.8c0,0,0.1,0.1,0.5,0.1c2.8-0.3,5.5-1.1,5.5-1.1
		c0.4-0.1,0.8,0,1,0.4c0.2,0.3,0.2,0.8-0.1,1.1C31,61.3,26.9,63,24,63z M27.6,26.4c0.3,0,0.5,0.1,0.7,0.2c0.4,0.3,0.9,0.8,0.6,2.1
		c-0.5,2.2-2.9,8.6-5.3,14.7c-2,5.2-4,10.5-4.2,11.6c-0.3,1.7,0.5,4.7,2.6,5.8c2.5,1.3,6.4-0.2,11.1-4.2c-0.8,0.1-1.7,0.3-2.6,0.4
		c-1.2,0.1-1.8-0.4-2.1-0.8c-0.8-1.1-1.2-3.5,3-12.6c2-4.3,7.9-17.3,3-20.6c0,0,0,0,0,0C33.2,22,32,21.7,30.8,22
		c-2.2,0.5-4.4,2.9-6.5,5.8C25.7,26.8,26.8,26.4,27.6,26.4z M38,17.8c-1.9,0-3.8-0.7-5.3-1.9c-1.7-1.4-2.8-3.4-3-5.7
		c-0.5-4.6,2.9-8.8,7.6-9.2c4.6-0.5,8.8,2.9,9.2,7.5l0,0c0.5,4.6-2.9,8.8-7.5,9.2C38.6,17.8,38.3,17.8,38,17.8z M38,2.8
		c-0.2,0-0.4,0-0.7,0c-3.7,0.4-6.3,3.6-6,7.3c0.2,1.8,1,3.4,2.4,4.5c1.4,1.1,3.1,1.6,4.9,1.5c3.6-0.4,6.3-3.6,6-7.3l0,0
		C44.3,5.3,41.4,2.8,38,2.8z"/>
</g>
</svg>
