<?xml version="1.0" encoding="utf-8"?>
<!-- Generator: Adobe Illustrator 19.2.1, SVG Export Plug-In . SVG Version: 6.00 Build 0)  -->
<svg version="1.1" id="Layer_1" xmlns="http://www.w3.org/2000/svg" xmlns:xlink="http://www.w3.org/1999/xlink" x="0px" y="0px"
	 viewBox="0 0 64 64" style="enable-background:new 0 0 64 64;" xml:space="preserve">
<metadata><?xpacket begin="﻿" id="W5M0MpCehiHzreSzNTczkc9d"?>
<x:xmpmeta xmlns:x="adobe:ns:meta/" x:xmptk="Adobe XMP Core 5.6-c111 79.158366, 2015/09/25-01:12:00        ">
   <rdf:RDF xmlns:rdf="http://www.w3.org/1999/02/22-rdf-syntax-ns#">
      <rdf:Description rdf:about=""/>
   </rdf:RDF>
</x:xmpmeta>
                                                                                                    
                                                                                                    
                                                                                                    
                                                                                                    
                                                                                                    
                                                                                                    
                                                                                                    
                                                                                                    
                                                                                                    
                                                                                                    
                                                                                                    
                                                                                                    
                                                                                                    
                                                                                                    
                                                                                                    
                                                                                                    
                                                                                                    
                                                                                                    
                                                                                                    
                                                                                                    
                           
<?xpacket end="w"?></metadata>
<style type="text/css">
	.st0{fill:none;}
	.st1{fill:#5B554D;}
</style>
<rect class="st0" width="64" height="64"/>
<g>
	<g>
		<g>
			<path class="st1" d="M41.3,49.2c-0.1,0-0.3,0-0.4-0.1c-0.4-0.2-0.5-0.7-0.2-1c4.4-6.9,6.8-14.1,6.9-20.8c0-0.4,0.4-0.8,0.8-0.7
				c0.4,0,0.7,0.4,0.7,0.8C49,34.5,46.6,41.7,42,49C41.8,49.1,41.6,49.2,41.3,49.2z"/>
		</g>
		<g>
			<path class="st1" d="M51.6,37.9c-0.2,0-0.4-0.1-0.5-0.2c-0.2-0.2-0.3-0.6-0.1-0.9c2.1-3.4,1.9-6.5-0.5-9.7
				c-0.2,0.1-0.4,0.2-0.7,0.2c-0.2,0.3-0.5,0.7-1.3,0.8c-0.5,0.1-1-0.1-1.5-0.5c-0.4-0.4-0.6-0.9-0.6-1.4c-1.5,1.5-2.7,4.1-3.6,6
				c-0.4,0.8-0.7,1.4-0.9,1.9c-0.1,0.3-0.4,0.4-0.7,0.4s-0.5-0.2-0.6-0.5c-1.4-4-1.5-7-0.4-9.2c0.2-0.3,0.4-0.6,0.6-0.9
				c-2.3,0.4-4.2,1.6-5.6,3.3c-0.2,0.2-0.5,0.3-0.7,0.3c-0.3-0.1-0.5-0.3-0.6-0.6c-0.6-2.3,0.6-6.1,3.4-7.9c1.1-0.7,3.1-1.5,5.9-0.7
				c-1.5-1.2-3.5-1.7-6.1-1.1c-0.3,0.1-0.6,0-0.7-0.2c-0.2-0.2-0.3-0.5-0.2-0.8c0.7-2.1,2.3-3.6,4.3-4.3c1.1-0.3,2.2-0.4,3.2-0.2
				c-0.3-0.3-0.6-0.5-0.9-0.7c-0.2-0.1-0.4-0.3-0.4-0.6c0-0.2,0.1-0.5,0.2-0.7c1.3-1.3,2.8-1.6,4.2-0.9c1.7,0.9,3,3.2,3.3,5.9
				c1.1-1.2,2.5-1.9,4-1.9c2.5,0,4.6,1.7,5.7,4.4c1.8,1.3,3,4,1.8,7.1c-0.1,0.3-0.4,0.4-0.7,0.5c0.2,0.3,0.4,0.7,0.6,1
				c1.5,3,0.6,6.5-2.3,8.9c-0.3,0.2-0.6,0.2-0.9,0c-0.3-0.2-0.4-0.5-0.3-0.9c0.7-2.2,0-3.9-1.2-5.3c0.3,0.8,0.3,1.7,0.2,2.6
				c-0.3,2.5-1.9,4.6-5,6.5C51.8,37.9,51.7,37.9,51.6,37.9z M50.5,25.2c0.2,0,0.4,0.1,0.6,0.2c2.5,3,3.3,6.1,2.3,9.3
				c1.2-1.1,1.8-2.3,2-3.6c0.3-2.3-1.2-4.1-2.1-4.9c-0.3-0.3-0.3-0.7-0.1-1s0.6-0.4,1-0.2c3.4,1.9,5.3,4.3,5.4,7
				c1-1.7,1.2-3.6,0.3-5.3c-1.1-2.2-4.1-4.2-9.1-3c-0.4,0.1-0.8-0.1-0.9-0.5c0-0.1,0-0.1,0-0.2c0-0.2,0.1-0.3,0.2-0.5
				c0-0.2,0-0.4,0.2-0.6c0.1-0.1,0.1-0.1,0.2-0.1c1.9-3.4,4.5-5.1,7.3-4.9c-0.9-1.5-2.3-2.4-3.8-2.4c-1.8,0-3.4,1.3-4.1,3.4
				c-0.1,0.4-0.5,0.6-0.9,0.5s-0.6-0.4-0.6-0.8c0.3-3.6-1-6.5-2.5-7.2c-0.6-0.3-1.1-0.3-1.7,0.1c0.8,0.7,1.6,1.7,2.2,2.9
				c0.2,0.3,0.1,0.7-0.2,0.9s-0.7,0.2-0.9,0c-1.4-1-3.1-1.3-4.6-0.8c-1.1,0.3-2.1,1.1-2.7,2c4.6-0.5,7.2,2.4,9,5.1
				c0.2,0.3,0.2,0.7-0.1,1s-0.7,0.3-1,0c-3-2.4-5.8-2.9-8-1.4c-1.6,1.1-2.6,3-2.8,4.6c2.1-1.9,4.9-2.8,8.2-2.7
				c0.4,0,0.7,0.3,0.7,0.6c0.1,0.4-0.2,0.7-0.5,0.8c-1,0.3-1.7,0.9-2.2,1.9c-0.7,1.4-0.7,3.6,0,6.2c0,0,0-0.1,0.1-0.1
				c1.2-2.5,2.7-5.8,5-7.4c0.2-0.1,0.5-0.2,0.7-0.1s0.4,0.3,0.5,0.5c0,0.1,0.1,0.2,0.1,0.2c0.3,0.2,0.5,0.7,0.3,1
				c-0.1,0.2-0.1,0.4,0.1,0.5c0.2,0.1,0.3,0.2,0.3,0.2c0.2,0,0.2,0,0.3-0.2c0-0.1,0.1-0.2,0.1-0.2c0.1-0.3,0.4-0.4,0.8-0.4
				c0.1,0,0.3,0,0.4-0.2C50,25.4,50.3,25.2,50.5,25.2L50.5,25.2z M55.8,22c1.8,0.3,3.1,1.1,4.1,2.1c-0.3-0.9-0.8-1.5-1.6-1.8
				C57.7,21.9,56.8,21.8,55.8,22z M56.7,20.4c0.8,0,1.6,0.1,2.3,0.4c0.6,0.3,1.1,0.6,1.5,1.1c0-1.5-0.8-2.8-1.8-3.4
				c-0.1,0-0.1-0.1-0.2-0.2c-0.1,0.1-0.3,0.1-0.5,0.1c-1.9-0.4-3.9,0.7-5.5,2.9C53.8,20.8,55.3,20.4,56.7,20.4z"/>
		</g>
	</g>
	<g>
		<g>
			<path class="st1" d="M25.3,51.3c-0.2,0-0.5-0.1-0.6-0.3c-4.6-7.2-7-14.5-7.1-21.6c0-0.4,0.3-0.8,0.7-0.8c0.4,0,0.8,0.3,0.8,0.7
				c0.1,6.7,2.5,13.9,6.9,20.8c0.2,0.4,0.1,0.8-0.2,1C25.6,51.3,25.5,51.3,25.3,51.3z"/>
		</g>
		<g>
			<path class="st1" d="M15.1,40c-0.1,0-0.3,0-0.4-0.1c-3-1.9-4.7-4.1-5-6.5c-0.1-0.9,0-1.7,0.2-2.6C8.7,32.2,8,34,8.8,36.2
				c0.1,0.3,0,0.7-0.3,0.9s-0.6,0.2-0.9,0c-2.9-2.4-3.8-5.9-2.3-8.9c0.2-0.3,0.4-0.7,0.6-1c-0.3,0-0.6-0.2-0.7-0.5
				c-1.3-3.1,0-5.8,1.8-7.1c1.1-2.8,3.3-4.5,5.7-4.4c1.5,0,3,0.7,4,1.9c0.3-2.7,1.6-5,3.3-5.9c1.4-0.7,2.9-0.4,4.2,0.9
				c0.2,0.2,0.3,0.4,0.2,0.7c0,0.2-0.2,0.5-0.4,0.6c-0.3,0.1-0.6,0.4-0.9,0.7c1.1-0.2,2.2-0.2,3.2,0.2c2,0.6,3.6,2.2,4.3,4.3
				c0.1,0.3,0,0.6-0.2,0.8c-0.2,0.2-0.5,0.3-0.7,0.2c-2.6-0.7-4.6-0.1-6.1,1.1c2.7-0.9,4.7-0.1,5.9,0.7c2.8,1.8,4,5.5,3.4,7.9
				c-0.1,0.3-0.3,0.5-0.6,0.6s-0.6,0-0.7-0.3c-1.4-1.8-3.2-2.9-5.6-3.3c0.2,0.3,0.4,0.6,0.6,0.9c1.1,2.1,0.9,5.2-0.4,9.2
				c-0.1,0.3-0.3,0.5-0.6,0.5c-0.3,0-0.6-0.1-0.7-0.4c-0.3-0.5-0.6-1.1-0.9-1.9c-0.9-1.9-2.1-4.5-3.6-6c0,0.5-0.2,1.1-0.7,1.4
				c-0.4,0.4-1,0.6-1.5,0.5c-0.8-0.1-1.1-0.5-1.3-0.8c-0.2,0-0.5-0.1-0.7-0.2c-2.4,3.2-2.5,6.4-0.5,9.7c0.2,0.3,0.1,0.7-0.1,0.9
				C15.5,40,15.3,40,15.1,40z M12.8,27c0.2,0,0.5,0.1,0.6,0.3c0.2,0.3,0.2,0.7-0.1,1c-0.9,0.9-2.3,2.7-2.1,4.9
				c0.1,1.3,0.8,2.5,2,3.6c-0.9-3.2-0.2-6.3,2.3-9.3c0.2-0.2,0.4-0.3,0.6-0.3c0.2,0,0.5,0.1,0.6,0.3c0.1,0.2,0.3,0.2,0.5,0.2
				c0.3-0.1,0.7,0.1,0.8,0.4c0,0,0.1,0.1,0.1,0.2c0.1,0.2,0.1,0.2,0.3,0.2c0,0,0.2,0,0.3-0.2c0.2-0.1,0.2-0.4,0.1-0.6
				c-0.2-0.3-0.1-0.8,0.2-1c0.1-0.1,0.1-0.2,0.2-0.2c0.1-0.2,0.2-0.4,0.5-0.5c0.2-0.1,0.5-0.1,0.7,0.1c2.2,1.5,3.8,4.9,5,7.4
				c0,0,0,0.1,0.1,0.1c0.7-2.7,0.7-4.8,0-6.2c-0.5-0.9-1.2-1.5-2.2-1.9c-0.4-0.1-0.6-0.5-0.5-0.8c0.1-0.4,0.4-0.6,0.7-0.6
				c3.4-0.1,6.1,0.8,8.2,2.7c-0.2-1.6-1.2-3.5-2.8-4.6c-2.2-1.4-5-1-8,1.4c-0.3,0.2-0.7,0.2-1,0c-0.3-0.3-0.3-0.7-0.1-1
				c1.8-2.7,4.5-5.7,9-5.1c-0.6-1-1.6-1.7-2.7-2c-1.6-0.5-3.3-0.2-4.6,0.8c-0.3,0.2-0.7,0.2-0.9,0c-0.3-0.2-0.3-0.6-0.2-0.9
				c0.7-1.2,1.4-2.2,2.2-2.9c-0.6-0.3-1.2-0.3-1.7-0.1c-1.5,0.7-2.9,3.6-2.5,7.2c0,0.4-0.2,0.7-0.6,0.8c-0.4,0.1-0.7-0.1-0.9-0.5
				c-0.7-2.1-2.3-3.4-4.1-3.4c-1.5-0.1-2.9,0.8-3.8,2.4c2.7-0.3,5.4,1.5,7.2,4.8c0.1,0,0.1,0.1,0.2,0.2c0.2,0.2,0.2,0.4,0.2,0.6
				c0.1,0.1,0.1,0.3,0.1,0.4s0,0.1,0,0.2c-0.1,0.4-0.5,0.7-0.9,0.5c-5-1.2-8,0.8-9.1,3C5.8,30.3,6,32.3,7,33.9c0.1-2.7,2-5.1,5.4-7
				C12.5,27.1,12.6,27,12.8,27z M10,24c-0.6,0-1.2,0.1-1.7,0.3c-0.7,0.3-1.3,0.9-1.6,1.8c1-1,2.4-1.7,4.1-2.1
				C10.5,24.1,10.2,24,10,24z M8.2,20.5c-0.1,0.1-0.1,0.1-0.2,0.2c-1,0.7-1.8,1.9-1.8,3.4c0.4-0.5,0.9-0.9,1.5-1.1
				c2-0.9,4.5-0.3,6.4,0.5c-1.6-2.2-3.5-3.3-5.5-2.9C8.5,20.6,8.3,20.6,8.2,20.5z"/>
		</g>
	</g>
	<g>
		<path class="st1" d="M62.2,55.4H1.8c-0.3,0-0.6-0.2-0.7-0.5s0-0.6,0.3-0.8c7.9-5.9,19.1-9.2,30.7-9.2s22.8,3.4,30.7,9.2
			c0.3,0.2,0.4,0.5,0.3,0.8C62.9,55.1,62.6,55.4,62.2,55.4z M4.2,53.8h55.7C52.4,49,42.4,46.3,32,46.3S11.6,49,4.2,53.8z"/>
	</g>
</g>
</svg>
