<?xml version="1.0" encoding="utf-8"?>
<!-- Generator: Adobe Illustrator 19.2.1, SVG Export Plug-In . SVG Version: 6.00 Build 0)  -->
<svg version="1.1" id="Layer_1" xmlns="http://www.w3.org/2000/svg" xmlns:xlink="http://www.w3.org/1999/xlink" x="0px" y="0px"
	 viewBox="0 0 64 64" style="enable-background:new 0 0 64 64;" xml:space="preserve">
<metadata><?xpacket begin="﻿" id="W5M0MpCehiHzreSzNTczkc9d"?>
<x:xmpmeta xmlns:x="adobe:ns:meta/" x:xmptk="Adobe XMP Core 5.6-c111 79.158366, 2015/09/25-01:12:00        ">
   <rdf:RDF xmlns:rdf="http://www.w3.org/1999/02/22-rdf-syntax-ns#">
      <rdf:Description rdf:about=""/>
   </rdf:RDF>
</x:xmpmeta>
                                                                                                    
                                                                                                    
                                                                                                    
                                                                                                    
                                                                                                    
                                                                                                    
                                                                                                    
                                                                                                    
                                                                                                    
                                                                                                    
                                                                                                    
                                                                                                    
                                                                                                    
                                                                                                    
                                                                                                    
                                                                                                    
                                                                                                    
                                                                                                    
                                                                                                    
                                                                                                    
                           
<?xpacket end="w"?></metadata>
<style type="text/css">
	.st0{fill:none;}
	.st1{fill:#5B554D;}
</style>
<rect class="st0" width="64" height="64"/>
<g>
	<g>
		<g>
			<g>
				<g>
					<path class="st1" d="M48.2,57.7c-8.3,0-16.6-8.2-19.4-19.7c-0.4-1.8-0.7-3.5-0.9-5.3c0-0.5,0.3-0.9,0.8-0.9
						c0.4,0,0.9,0.3,0.9,0.8c0.1,1.7,0.4,3.4,0.8,5c2.9,12,12,20.2,20.3,18.2s12.6-13.4,9.7-25.5c-2.9-12-12-20.2-20.3-18.2
						c-2.8,0.7-5.2,2.5-7.1,5.2c-0.3,0.4-0.8,0.5-1.2,0.2c-0.4-0.3-0.5-0.8-0.2-1.2c2.1-3.1,4.9-5.1,8.1-5.9
						c9.2-2.2,19.2,6.5,22.3,19.4c3.1,12.9-1.8,25.2-10.9,27.5C50.1,57.6,49.2,57.7,48.2,57.7z M41.6,22.4c-0.8,0-1.5-0.2-2.2-0.6
						c-1-0.6-1.6-1.5-1.9-2.6c-0.6-2.3,0.8-4.6,3.1-5.1s4.6,0.8,5.1,3.1c0.3,1.1,0.1,2.2-0.5,3.2s-1.5,1.7-2.6,1.9
						C42.3,22.4,41.9,22.4,41.6,22.4z M41.6,15.6c-0.2,0-0.4,0-0.6,0.1c-1.4,0.3-2.2,1.7-1.9,3.1c0.2,0.7,0.6,1.2,1.2,1.6
						c0.6,0.4,1.3,0.5,1.9,0.3l0,0c0.7-0.2,1.2-0.6,1.6-1.2c0.4-0.6,0.5-1.3,0.3-1.9C43.8,16.4,42.7,15.6,41.6,15.6z"/>
				</g>
			</g>
		</g>
		<g>
			<g>
				<path class="st1" d="M14.2,49.4L12.4,53l1.2-0.6c0.1,0,0.3-0.3,0.4-0.5l0.3-0.5c0.1-0.2,0.2-0.5,0.2-0.6L14.2,49.4z"/>
				<path class="st1" d="M16,45.7l-1.7,3.6l1.8-0.3c0.1,0,0.3-0.3,0.4-0.5l0.3-0.5c0.1-0.2,0.2-0.5,0.1-0.6L16,45.7z"/>
				<g>
					<path class="st1" d="M6.1,59.6c-0.8,0-1.5-0.2-2.3-0.5c-2.5-1.2-3.6-4.3-2.4-6.9L10.6,33c0.6-1.2,0.6-2.6,0-3.8
						c-0.1-0.1-0.2-0.3-0.2-0.4c-0.4-0.7-0.7-1.4-0.9-2.1C8.4,23.5,8.6,20,10.1,17c1.5-3.1,4.1-5.3,7.3-6.5
						c6.6-2.3,13.9,1.3,16.2,7.9l0,0c2.3,6.6-1.2,13.9-7.9,16.2c-0.7,0.2-1.4,0.4-2.1,0.5c-0.3,0-0.5,0.1-0.6,0.1
						c-1.1,0.4-5.5,7.7-6.5,9.7l-5.7,11.8c-0.6,1.2-1.6,2.2-2.9,2.6l-0.3,0.1C7.1,59.5,6.6,59.6,6.1,59.6z M21.6,11.6
						c-1.2,0-2.4,0.2-3.6,0.6c-2.8,1-5,2.9-6.3,5.6s-1.5,5.6-0.5,8.4c0.2,0.6,0.5,1.2,0.8,1.8c0.1,0.1,0.2,0.3,0.3,0.5
						c0.8,1.7,0.9,3.6,0,5.3L3,53c-0.8,1.7-0.1,3.8,1.6,4.6C5.4,58,6.3,58,7.1,57.8l0.2-0.1c0.8-0.3,1.5-0.9,1.9-1.7L15,44.2
						c0-0.1,5.4-10.2,7.7-10.6c0.2,0,0.4-0.1,0.7-0.1c0.6-0.1,1.2-0.2,1.8-0.4c5.8-2,8.8-8.3,6.8-14l0,0
						C30.4,14.5,26.1,11.6,21.6,11.6z M23.4,22.9c-0.6,0-1.2-0.1-1.8-0.4c-1-0.5-1.7-1.3-2-2.3s-0.3-2.1,0.2-3.1s1.3-1.7,2.3-2
						c2.1-0.7,4.4,0.4,5.1,2.5s-0.4,4.4-2.5,5.1l0,0C24.3,22.8,23.8,22.9,23.4,22.9z M23.4,16.5c-0.3,0-0.5,0-0.8,0.1
						c-0.6,0.2-1.1,0.6-1.3,1.2C21,18.4,21,19,21.2,19.6c0.2,0.6,0.6,1.1,1.2,1.4s1.2,0.3,1.8,0.1l0,0c1.2-0.4,1.9-1.8,1.5-3
						C25.3,17.1,24.4,16.5,23.4,16.5z"/>
				</g>
				<path class="st1" d="M18,44.1c0.1-0.2,0.2-0.5,0.2-0.6l-0.4-1.4L16,45.6l1.3-0.6c0.1,0,0.3-0.3,0.4-0.5L18,44.1z"/>
			</g>
		</g>
		<g>
			<g>
				<path class="st1" d="M42,19.6c-0.1,0-0.2,0-0.3-0.1c-0.4-0.2-0.7-0.6-0.5-1.1c0.3-0.8,0.5-1.6,0.5-2.4c0-0.1,0-0.2,0-0.2v-0.1
					c0-0.3,0-0.6,0-1c0-0.8-0.2-1.6-0.5-2.4c-1.4-4-5.2-6.5-9.3-6.3c-3.7,0.2-6.9,2.6-8.1,6.1c-0.2,0.6-0.4,1.8-0.4,4.5
					c0.1,0.6,0.2,1.1,0.4,1.7c0.2,0.4-0.1,0.9-0.5,1.1s-0.9-0.1-1.1-0.5c-0.1-0.4-0.2-0.7-0.3-1.1c-0.1-0.2-0.2-0.4-0.2-0.6l0,0
					c0-0.1,0-0.2,0-0.3L21.6,16l0,0c0-0.2,0-0.3,0.1-0.4c0.1-1.8,0.2-3.1,0.5-3.9c1.5-4.1,5.3-6.9,9.6-7.2c4.9-0.3,9.4,2.7,11,7.4
					c0.3,1,0.5,1.9,0.6,2.9c0,0.4,0,0.8,0,1.2v0.1c0,0.1,0,0.2,0,0.3c-0.1,0.9-0.3,1.9-0.6,2.8C42.7,19.4,42.3,19.6,42,19.6z"/>
			</g>
		</g>
		<g>
			<path class="st1" d="M41.5,46.2L38.6,32l-2.4,0.5l-0.4-1.9c0.6-0.2,1.2-0.6,1.8-1.1c0.5-0.5,0.8-1.1,1-1.8l1.9-0.4l3.7,18.4
				L41.5,46.2z"/>
			<path class="st1" d="M50.2,41.7c1.3-0.3,1.8-1,1.6-2.2l-0.2-1.1c-0.4-1.9-1.6-2.6-3.5-2.2l-0.5-2.4c1.1-0.2,1.8-0.7,2.2-1.4
				c0.4-0.6,0.4-1.4,0.3-2.4L50,29.6c-0.3-1.1-1-1.6-2-1.4c-0.6,0.1-1,0.4-1.2,0.9c-0.1,0.4-0.2,0.8,0,1.4l0.1,0.5l-2.7,0.5
				l-0.1-0.4c-0.3-1.3-0.1-2.4,0.4-3.4c0.6-1.1,1.5-1.8,2.9-2c1.3-0.3,2.4,0,3.4,0.7c0.9,0.7,1.4,1.6,1.7,2.8l0.2,0.8
				c0.2,1.1,0.1,2.2-0.4,3.2c-0.2,0.4-0.5,0.8-0.8,1.1c0.9,0.3,1.7,0.9,2.3,1.7c0.3,0.4,0.6,1,0.7,1.7l0.3,1.5
				c0.3,1.4,0,2.6-0.7,3.6s-1.7,1.7-3,1.9c-1.2,0.2-2.3,0-3.4-0.7c-1-0.7-1.7-1.6-1.9-2.8l-0.1-0.5l2.6-0.7l0.2,0.6
				c0.1,0.5,0.4,0.8,0.7,1C49.4,41.7,49.8,41.8,50.2,41.7z"/>
		</g>
	</g>
	<g>
		<path class="st1" d="M4.6,59.3c-0.1,0-0.2,0-0.4-0.1c-0.4-0.2-0.6-0.7-0.4-1.1l11.6-24.7c0.2-0.4,0.7-0.6,1.1-0.4
			c0.4,0.2,0.6,0.7,0.4,1.1L5.3,58.8C5.2,59.1,4.9,59.3,4.6,59.3z"/>
	</g>
</g>
</svg>
