<?xml version="1.0" encoding="utf-8"?>
<!-- Generator: Adobe Illustrator 19.2.1, SVG Export Plug-In . SVG Version: 6.00 Build 0)  -->
<svg version="1.1" id="Layer_1" xmlns="http://www.w3.org/2000/svg" xmlns:xlink="http://www.w3.org/1999/xlink" x="0px" y="0px"
	 viewBox="0 0 64 64" style="enable-background:new 0 0 64 64;" xml:space="preserve">
<metadata><?xpacket begin="﻿" id="W5M0MpCehiHzreSzNTczkc9d"?>
<x:xmpmeta xmlns:x="adobe:ns:meta/" x:xmptk="Adobe XMP Core 5.6-c111 79.158366, 2015/09/25-01:12:00        ">
   <rdf:RDF xmlns:rdf="http://www.w3.org/1999/02/22-rdf-syntax-ns#">
      <rdf:Description rdf:about=""/>
   </rdf:RDF>
</x:xmpmeta>
                                                                                                    
                                                                                                    
                                                                                                    
                                                                                                    
                                                                                                    
                                                                                                    
                                                                                                    
                                                                                                    
                                                                                                    
                                                                                                    
                                                                                                    
                                                                                                    
                                                                                                    
                                                                                                    
                                                                                                    
                                                                                                    
                                                                                                    
                                                                                                    
                                                                                                    
                                                                                                    
                           
<?xpacket end="w"?></metadata>
<style type="text/css">
	.st0{fill:none;}
	.st1{fill:#5B554D;}
</style>
<rect class="st0" width="64" height="64"/>
<g>
	<path class="st1" d="M32,63c-3.7,0-6.8-3-6.8-6.8V38c0-2-0.9-3.8-2.5-5.1c-0.2-0.1-0.4-0.3-0.6-0.4c-0.9-0.6-1.7-1.3-2.4-2
		c-6.8-6.8-6.8-17.8,0-24.5c6.8-6.8,17.8-6.8,24.5,0l0,0l0,0c6.8,6.8,6.8,17.8,0,24.5c-0.7,0.7-1.4,1.3-2.2,1.9
		c-0.3,0.2-0.5,0.4-0.8,0.5c-1.6,1.2-2.5,3-2.5,5v1.1l0.9,1c0.4,0.4,0.4,1.2,0.4,1.4v0.8c0,0.2,0,1-0.4,1.4l-0.8,0.9l1.4,1
		c0.1,0,0.1,0.1,0.1,0.1c0.4,0.4,0.4,1.2,0.4,1.4V48c0,0.2,0,1-0.4,1.4c0,0-0.1,0.1-0.1,0.1l-1.5,1.1l0.8,1C39.9,52,40,52.7,40,53
		v0.8c0,0.2,0,1-0.4,1.4l-0.8,1.1c0,1.8-0.7,3.5-2,4.8l-0.3,0.3C35.3,62.4,33.7,63,32,63z M32,2.6c-4,0-8.1,1.5-11.1,4.6
		c-6.1,6.1-6.1,16.1,0,22.2c0.7,0.7,1.3,1.2,2.1,1.8c0.2,0.1,0.5,0.3,0.7,0.5c2,1.5,3.1,3.8,3.1,6.3v18.2c0,2.9,2.3,5.2,5.2,5.2
		c1.3,0,2.5-0.5,3.5-1.3l0.2-0.2c1-1,1.5-2.2,1.5-3.6v-0.3c0-0.2,0.1-0.4,0.2-0.5l0.9-1.2c0-0.1,0.1-0.2,0.1-0.4V53
		c0-0.2,0-0.3-0.1-0.4l-0.9-1.2c-0.1-0.1-0.2-0.3-0.2-0.5v-0.6c0-0.3,0.1-0.5,0.3-0.7l1.7-1.2c0-0.1,0-0.2,0-0.3v-0.8
		c0-0.1,0-0.2,0-0.3l-1.7-1.2c-0.2-0.2-0.3-0.4-0.3-0.7v-0.5c0-0.2,0.1-0.4,0.2-0.5l1.1-1.2c0-0.1,0.1-0.2,0.1-0.4v-0.8
		c0-0.2,0-0.3-0.1-0.4l-1.1-1.2c-0.1-0.1-0.2-0.3-0.2-0.5V38c0-2.5,1.2-4.8,3.2-6.3c0.3-0.2,0.5-0.3,0.8-0.5c0.7-0.5,1.4-1,2-1.7
		c6.1-6.1,6.1-16.1,0-22.2l0,0C40.1,4.1,36,2.6,32,2.6z M38.3,54.1C38.3,54.2,38.3,54.2,38.3,54.1L38.3,54.1z M38.3,52.6
		C38.3,52.6,38.4,52.6,38.3,52.6L38.3,52.6z M38.3,52.5L38.3,52.5L38.3,52.5z M39.2,46.7L39.2,46.7L39.2,46.7z M38.4,42.8L38.4,42.8
		L38.4,42.8z M38.5,41.2L38.5,41.2L38.5,41.2z M38.4,41.1L38.4,41.1L38.4,41.1z M32,19c-1.7,0-3.3-0.7-4.6-1.9
		c-2.5-2.5-2.5-6.6,0-9.1C30,5.5,34,5.5,36.6,8c2.5,2.5,2.5,6.6,0,9.1v0C35.4,18.3,33.7,19,32,19z M32,7.7c-1.2,0-2.5,0.5-3.4,1.4
		c-1.9,1.9-1.9,4.9,0,6.8c0.9,0.9,2.1,1.4,3.4,1.4c1.3,0,2.5-0.5,3.4-1.4c1.9-1.9,1.9-4.9,0-6.8C34.5,8.2,33.2,7.7,32,7.7z M36,16.5
		L36,16.5L36,16.5z"/>
</g>
</svg>
