<?xml version="1.0" encoding="utf-8"?>
<!-- Generator: Adobe Illustrator 19.2.1, SVG Export Plug-In . SVG Version: 6.00 Build 0)  -->
<svg version="1.1" id="Layer_1" xmlns="http://www.w3.org/2000/svg" xmlns:xlink="http://www.w3.org/1999/xlink" x="0px" y="0px"
	 viewBox="0 0 64 64" style="enable-background:new 0 0 64 64;" xml:space="preserve">
<metadata><?xpacket begin="﻿" id="W5M0MpCehiHzreSzNTczkc9d"?>
<x:xmpmeta xmlns:x="adobe:ns:meta/" x:xmptk="Adobe XMP Core 5.6-c111 79.158366, 2015/09/25-01:12:00        ">
   <rdf:RDF xmlns:rdf="http://www.w3.org/1999/02/22-rdf-syntax-ns#">
      <rdf:Description rdf:about=""/>
   </rdf:RDF>
</x:xmpmeta>
                                                                                                    
                                                                                                    
                                                                                                    
                                                                                                    
                                                                                                    
                                                                                                    
                                                                                                    
                                                                                                    
                                                                                                    
                                                                                                    
                                                                                                    
                                                                                                    
                                                                                                    
                                                                                                    
                                                                                                    
                                                                                                    
                                                                                                    
                                                                                                    
                                                                                                    
                                                                                                    
                           
<?xpacket end="w"?></metadata>
<style type="text/css">
	.st0{fill:none;}
	.st1{fill:#5B554D;}
</style>
<rect class="st0" width="64" height="64"/>
<g>
	<g>
		<g>
			<path class="st1" d="M41.8,63c-2.3,0-4.2-2-4.2-4.6V5.6C37.6,3,39.5,1,41.8,1c0.5,0,1,0.1,1.4,0.3c2.6,0.8,7.1,6.1,8.7,32.9
				c0.1,1.4-0.3,2.5-1.2,3.4c-1.3,1.3-3.3,1.6-5,1.6v19.2C45.8,61,44.1,63,41.8,63z M41.8,3c-1.2,0-2.2,1.1-2.2,2.5v52.9
				c0,1.4,1,2.5,2.2,2.5c1.3,0,2-1.3,2-2.5V38.2c0-0.3,0.1-0.5,0.3-0.7s0.5-0.3,0.8-0.3c2.1,0.1,3.7-0.2,4.5-1
				c0.4-0.4,0.6-1,0.6-1.9C48.2,5.5,43.2,3.4,42.7,3.2h-0.1C42.3,3.1,42,3,41.8,3z M22.3,62.1c-2.3,0-4.2-2.1-4.2-4.6V26
				c-3.5-1.1-6-4.5-6-8.3v-13c0-1.5,1.2-2.8,2.7-2.8s2.7,1.3,2.7,2.8v6.2c0,0.4,0.3,0.8,0.8,0.8H19c0.4,0,0.8-0.4,0.8-0.8V4.7
				c0-1.5,1.2-2.8,2.6-2.8c1.5,0,2.6,1.3,2.6,2.8v6.2c0,0.4,0.3,0.8,0.8,0.8h0.7c0.4,0,0.7-0.4,0.7-0.8V4.7c0-1.5,1.2-2.8,2.7-2.8
				s2.7,1.3,2.7,2.8v13c0,3.8-2.5,7.2-6,8.3v31.5C26.5,60,24.6,62.1,22.3,62.1z M14.8,3.9c-0.4,0-0.7,0.4-0.7,0.8v13
				c0,3.2,2.2,5.9,5.2,6.6c0.5,0.1,0.8,0.5,0.8,1v32.3c0,1.4,1,2.6,2.2,2.6s2.2-1.2,2.2-2.6V25.2c0-0.5,0.3-0.9,0.8-1
				c3-0.6,5.2-3.4,5.2-6.6v-13c0-0.4-0.3-0.8-0.7-0.8s-0.7,0.4-0.7,0.8v6.2c0,1.5-1.2,2.8-2.8,2.8h-0.7c-1.5,0-2.8-1.3-2.8-2.8V4.7
				c0-0.4-0.3-0.8-0.6-0.8c-0.3,0-0.6,0.4-0.6,0.8v6.2c0,1.5-1.2,2.8-2.8,2.8h-0.7c-1.5,0-2.8-1.3-2.8-2.8V4.7
				C15.5,4.3,15.1,3.9,14.8,3.9z"/>
		</g>
	</g>
</g>
</svg>
