<?xml version="1.0" encoding="utf-8"?>
<!-- Generator: Adobe Illustrator 19.2.1, SVG Export Plug-In . SVG Version: 6.00 Build 0)  -->
<svg version="1.1" id="Layer_1" xmlns="http://www.w3.org/2000/svg" xmlns:xlink="http://www.w3.org/1999/xlink" x="0px" y="0px"
	 viewBox="0 0 64 64" style="enable-background:new 0 0 64 64;" xml:space="preserve">
<metadata><?xpacket begin="﻿" id="W5M0MpCehiHzreSzNTczkc9d"?>
<x:xmpmeta xmlns:x="adobe:ns:meta/" x:xmptk="Adobe XMP Core 5.6-c111 79.158366, 2015/09/25-01:12:00        ">
   <rdf:RDF xmlns:rdf="http://www.w3.org/1999/02/22-rdf-syntax-ns#">
      <rdf:Description rdf:about=""/>
   </rdf:RDF>
</x:xmpmeta>
                                                                                                    
                                                                                                    
                                                                                                    
                                                                                                    
                                                                                                    
                                                                                                    
                                                                                                    
                                                                                                    
                                                                                                    
                                                                                                    
                                                                                                    
                                                                                                    
                                                                                                    
                                                                                                    
                                                                                                    
                                                                                                    
                                                                                                    
                                                                                                    
                                                                                                    
                                                                                                    
                           
<?xpacket end="w"?></metadata>
<style type="text/css">
	.st0{fill:none;}
	.st1{fill:#5B554D;}
</style>
<rect class="st0" width="64" height="64"/>
<g>
	<g>
		<g>
			<g>
				<path class="st1" d="M31.7,54.7c-12.1,0-21.9-9.8-21.9-21.9c0-12,9.8-21.8,21.9-21.8s21.9,9.8,21.9,21.9
					C53.6,44.9,43.7,54.7,31.7,54.7z M31.7,12.5c-11.2,0-20.3,9.1-20.3,20.3s9.1,20.3,20.3,20.3C42.9,53.2,52,44,52,32.8
					S42.9,12.5,31.7,12.5z"/>
			</g>
			<g>
				<path class="st1" d="M31.7,49c-8.9,0-16.1-7.2-16.1-16.1s7.2-16.1,16.1-16.1s16.1,7.2,16.1,16S40.6,49,31.7,49z M31.7,18.3
					c-8,0-14.6,6.5-14.6,14.6s6.5,14.6,14.6,14.6S46.3,41,46.3,32.9S39.7,18.3,31.7,18.3z"/>
			</g>
		</g>
		<path class="st1" d="M6.7,14.5c0.1,0,0.3,0.4,0.3,0.8c0,0,0.5,4.2,0.6,6.4c0.1,1.6-0.2,3.9-1.1,5c-1.7,2,0.7,18.7,0.7,20.9
			c0,2-0.9,3.6-2.1,3.6l0,0l0,0C4,51.2,3,49.6,3,47.6c0-2.3,2.3-18.9,0.7-20.9c-1-1.2-1.2-3.4-1.1-5c0.1-2.2,0.6-6.4,0.6-6.4
			c0-0.4,0.2-0.8,0.3-0.8s0.2,0.4,0.2,0.8v5V21c0,0.1,0,0.2,0.1,0.2c0,0,0.1,0.1,0.2,0.1s0.1,0,0.2-0.1s0.1-0.1,0.1-0.2v-0.8v-5
			c0-0.4,0.1-0.8,0.3-0.8c0.2,0,0.3,0.4,0.3,0.8v5V21c0,0.1,0,0.2,0.1,0.2c0,0,0.1,0.1,0.2,0.1l0,0l0,0c0.1,0,0.1,0,0.2-0.1
			s0.1-0.1,0.1-0.2v-0.8v-5c0-0.4,0.1-0.8,0.3-0.8c0.2,0,0.3,0.4,0.3,0.8v5V21c0,0.1,0,0.2,0.1,0.2c0,0,0.1,0.1,0.2,0.1
			s0.1,0,0.2-0.1s0.1-0.1,0.1-0.2v-0.8v-5C6.5,14.8,6.6,14.5,6.7,14.5 M6.7,12.9c-0.2,0-0.4,0-0.5,0.1c-0.2,0-0.3-0.1-0.5-0.1
			c-0.2,0-0.4,0-0.6,0.1c-0.2-0.1-0.4-0.1-0.6-0.1S4.1,12.9,4,13c-0.2-0.1-0.4-0.1-0.5-0.1c-0.4,0-1.6,0.2-1.9,2.2
			c0,0.2-0.5,4.3-0.6,6.5c0,0.9-0.1,4.1,1.4,6.1c0.8,1.7-0.2,11.9-0.6,15.7c-0.2,2.4-0.4,3.7-0.4,4.3c0,2.9,1.6,5.1,3.6,5.1
			c2.1,0,3.6-2.2,3.6-5.1c0-0.6-0.1-1.9-0.4-4.3C8,39.5,7,29.3,7.7,27.6c1.5-1.9,1.5-5.1,1.4-6.1C9,19.3,8.5,15.2,8.5,15
			C8.4,13.1,7.1,12.9,6.7,12.9L6.7,12.9z"/>
		<path class="st1" d="M57,10.8c1.1,0,4,5.9,4.4,12.3c0.3,5.1-0.9,8-2,9.9c-0.4,5.3,1.2,12.7,1.2,14.6c0,2-1,3.7-2.1,3.7l0,0l0,0
			c-1.2,0-2.1-1.7-2.1-3.7c0-1.9,1.6-9.2,1.2-14.5c-0.1-0.3-0.1-0.7-0.1-1.1s0-0.8-0.1-1.2c0-2.2,0-4-0.3-7.4
			c-0.3-6.4-1-10.4-0.4-12.3C56.8,10.9,56.9,10.8,57,10.8 M57,9.3c-0.6,0-1.5,0.4-1.8,1.4c-0.5,1.5-0.3,3.7,0,7
			c0.1,1.7,0.3,3.6,0.4,5.7c0.2,2.7,0.2,4.2,0.2,5.9c0,0.5,0,0.9,0,1.4s0,0.9,0.1,1.3c0,0.5,0.1,0.9,0.1,1.2
			c0.2,3.4-0.4,7.6-0.8,10.7c-0.2,1.7-0.4,2.9-0.4,3.6c0,3,1.6,5.2,3.7,5.2c2.1,0,3.7-2.3,3.7-5.2c0-0.7-0.2-1.9-0.4-3.6
			c-0.4-3-1-7.2-0.9-10.5c1.1-1.9,2.4-5,2-10.4C62.7,17.6,60,9.3,57,9.3L57,9.3z"/>
	</g>
</g>
</svg>
