<?xml version="1.0" encoding="utf-8"?>
<!-- Generator: Adobe Illustrator 19.2.1, SVG Export Plug-In . SVG Version: 6.00 Build 0)  -->
<svg version="1.1" id="Layer_1" xmlns="http://www.w3.org/2000/svg" xmlns:xlink="http://www.w3.org/1999/xlink" x="0px" y="0px"
	 viewBox="0 0 64 64" style="enable-background:new 0 0 64 64;" xml:space="preserve">
<metadata><?xpacket begin="﻿" id="W5M0MpCehiHzreSzNTczkc9d"?>
<x:xmpmeta xmlns:x="adobe:ns:meta/" x:xmptk="Adobe XMP Core 5.6-c111 79.158366, 2015/09/25-01:12:00        ">
   <rdf:RDF xmlns:rdf="http://www.w3.org/1999/02/22-rdf-syntax-ns#">
      <rdf:Description rdf:about=""/>
   </rdf:RDF>
</x:xmpmeta>
                                                                                                    
                                                                                                    
                                                                                                    
                                                                                                    
                                                                                                    
                                                                                                    
                                                                                                    
                                                                                                    
                                                                                                    
                                                                                                    
                                                                                                    
                                                                                                    
                                                                                                    
                                                                                                    
                                                                                                    
                                                                                                    
                                                                                                    
                                                                                                    
                                                                                                    
                                                                                                    
                           
<?xpacket end="w"?></metadata>
<style type="text/css">
	.st0{fill:none;}
	.st1{fill:#5B554D;}
</style>
<rect class="st0" width="64" height="64"/>
<g>
	<g>
		<g>
			<path class="st1" d="M53.1,38.8c-3.4,0-6.9-1.5-9.6-4.1c-5-5-5.7-12.5-1.6-16.7c0.4-0.4,0.9-0.4,1.3,0c0.4,0.4,0.4,0.9,0,1.3
				c-3.5,3.5-2.8,9.9,1.5,14.1C47,35.7,50.1,37,53,37c2.3,0,4.4-0.8,5.8-2.3c3.5-3.5,2.8-9.9-1.5-14.1c-0.5-0.5-1.1-1-1.7-1.4
				c-0.4-0.3-0.5-0.9-0.2-1.3s0.9-0.5,1.3-0.2c0.7,0.5,1.4,1,2,1.6c5,5,5.7,12.5,1.5,16.7C58.4,37.7,55.9,38.8,53.1,38.8z"/>
		</g>
	</g>
	<g>
		<g>
			<path class="st1" d="M42.8,24.6c-0.4,0-0.8-0.3-0.9-0.8c-0.1-0.5,0.2-1,0.8-1.1c1.9-0.3,3.3-2,3.3-3.9c0-2.2-1.8-4-4-4
				s-4,1.8-4,4c0,0.8,0.2,1.6,0.7,2.2c0.3,0.4,0.2,1-0.2,1.3s-1,0.2-1.3-0.2c-0.7-1-1-2.1-1-3.3c0-3.2,2.6-5.9,5.9-5.9
				c3.2,0,5.9,2.6,5.9,5.9c0,2.9-2,5.3-4.9,5.8C42.9,24.6,42.8,24.6,42.8,24.6z"/>
		</g>
		<g>
			<path class="st1" d="M23,59.9c-2.3,0-4.6-0.9-6.3-2.6L3.6,44.4C-0.2,40.7,0.2,34.2,4.4,30l19.3-19.3c0.1-0.1,0.2-0.2,0.4-0.2
				c6.6-2,19.2-5.9,19.8-6.1c1.3-0.5,2.7-0.2,3.6,0.8c0.8,0.8,7.6,7.6,8.3,8.3c1,1,1.2,2.1,0.8,3.4c-0.2,0.6-2.9,9.2-4.8,14.9
				l-1,3.2c-0.2,0.5-0.7,0.8-1.2,0.6s-0.8-0.7-0.6-1.2l1-3.2c1.9-6.1,4.6-14.4,4.8-15s0.1-1-0.3-1.5C53.8,14,47,7.2,46.2,6.4
				C45.5,5.7,44.8,6,44.5,6c-0.7,0.3-17.4,5.4-19.6,6.1L5.8,31.3c-3.5,3.5-3.9,8.8-0.9,11.8L18,56c3,3,8,2.6,11.5-0.8l16.9-16.9
				c0.4-0.4,1-0.4,1.3,0c0.4,0.4,0.4,1,0,1.3L30.8,56.5C28.5,58.8,25.7,59.9,23,59.9z"/>
		</g>
	</g>
	<g>
		<path class="st1" d="M10.5,41.8c-0.2,0-0.5-0.1-0.7-0.3c-0.4-0.4-0.4-1,0-1.3L27.3,23c0.4-0.4,1-0.4,1.3,0c0.4,0.4,0.4,1,0,1.3
			L11.2,41.6C11,41.7,10.8,41.8,10.5,41.8z"/>
	</g>
	<g>
		<path class="st1" d="M15.2,46.4c-0.2,0-0.5-0.1-0.7-0.3c-0.4-0.4-0.4-1,0-1.3l17.4-17.3c0.4-0.4,1-0.4,1.3,0c0.4,0.4,0.4,1,0,1.3
			L15.8,46.2C15.6,46.3,15.4,46.4,15.2,46.4z"/>
	</g>
	<g>
		<path class="st1" d="M19.6,50.9c-0.2,0-0.5-0.1-0.7-0.3c-0.4-0.4-0.4-1,0-1.3L36.3,32c0.4-0.4,1-0.4,1.3,0c0.4,0.4,0.4,1,0,1.3
			L20.3,50.6C20.1,50.8,19.9,50.9,19.6,50.9z"/>
	</g>
</g>
</svg>
