<?xml version="1.0" encoding="utf-8"?>
<!-- Generator: Adobe Illustrator 19.2.1, SVG Export Plug-In . SVG Version: 6.00 Build 0)  -->
<svg version="1.1" id="Layer_1" xmlns="http://www.w3.org/2000/svg" xmlns:xlink="http://www.w3.org/1999/xlink" x="0px" y="0px"
	 viewBox="0 0 64 64" style="enable-background:new 0 0 64 64;" xml:space="preserve">
<metadata><?xpacket begin="﻿" id="W5M0MpCehiHzreSzNTczkc9d"?>
<x:xmpmeta xmlns:x="adobe:ns:meta/" x:xmptk="Adobe XMP Core 5.6-c111 79.158366, 2015/09/25-01:12:00        ">
   <rdf:RDF xmlns:rdf="http://www.w3.org/1999/02/22-rdf-syntax-ns#">
      <rdf:Description rdf:about=""/>
   </rdf:RDF>
</x:xmpmeta>
                                                                                                    
                                                                                                    
                                                                                                    
                                                                                                    
                                                                                                    
                                                                                                    
                                                                                                    
                                                                                                    
                                                                                                    
                                                                                                    
                                                                                                    
                                                                                                    
                                                                                                    
                                                                                                    
                                                                                                    
                                                                                                    
                                                                                                    
                                                                                                    
                                                                                                    
                                                                                                    
                           
<?xpacket end="w"?></metadata>
<style type="text/css">
	.st0{fill:none;}
	.st1{fill:#5B554D;}
</style>
<rect class="st0" width="64" height="64"/>
<g>
	<g>
		<g>
			<path class="st1" d="M56.4,46.2c-0.4,0-0.7-0.3-0.7-0.7V16.2c0-0.1,0-0.2-0.1-0.3c-0.1-0.1-0.2-0.1-0.3-0.1H8.8
				c-0.1,0-0.2,0.1-0.3,0.1c-0.1,0.1-0.1,0.2-0.1,0.3v29.3c0,0.4-0.3,0.7-0.7,0.7c-0.4,0-0.7-0.3-0.7-0.7V16.2c0-0.5,0.2-1,0.6-1.3
				c0.4-0.4,0.8-0.6,1.3-0.6h46.4c0.5,0,1,0.2,1.3,0.6c0.4,0.3,0.5,0.8,0.5,1.3v29.3C57.1,45.9,56.7,46.2,56.4,46.2z"/>
		</g>
	</g>
	<path class="st1" d="M52.9,18.5v23.4H11.2V18.5H52.9 M54.3,17.1H9.8v26.2h44.5V17.1L54.3,17.1z"/>
	<g>
		<path class="st1" d="M56,49.7H32H3.5c-0.1,0-0.2,0-0.2,0c-0.5,0-1.3,0-2.1-1.1C1.1,48.5,1,48.3,1,48.2V46c0-0.9,1.4-0.9,1.4-0.9
			h59.1c0.1,0,1.4,0,1.4,0.9l0,0v2.1c0,0,0,0,0,0.1c0,0.2,0,0.3-0.2,0.5c-0.9,1.1-1.7,1.1-2.2,1.1l0,0h-0.1L56,49.7z M2.4,47.9
			c0.4,0.4,0.6,0.4,0.9,0.4c0.1,0,0.2,0,0.3,0H32h28.4c0,0,0.1,0,0.2,0c0.3,0,0.6,0,0.9-0.4v-1.4l0,0H2.4l0,0V47.9z M61.9,46.5
			L61.9,46.5L61.9,46.5z"/>
	</g>
</g>
</svg>
