<?xml version="1.0" encoding="utf-8"?>
<!-- Generator: Adobe Illustrator 19.2.1, SVG Export Plug-In . SVG Version: 6.00 Build 0)  -->
<svg version="1.1" id="Layer_1" xmlns="http://www.w3.org/2000/svg" xmlns:xlink="http://www.w3.org/1999/xlink" x="0px" y="0px"
	 viewBox="0 0 64 64" style="enable-background:new 0 0 64 64;" xml:space="preserve">
<metadata><?xpacket begin="﻿" id="W5M0MpCehiHzreSzNTczkc9d"?>
<x:xmpmeta xmlns:x="adobe:ns:meta/" x:xmptk="Adobe XMP Core 5.6-c111 79.158366, 2015/09/25-01:12:00        ">
   <rdf:RDF xmlns:rdf="http://www.w3.org/1999/02/22-rdf-syntax-ns#">
      <rdf:Description rdf:about=""/>
   </rdf:RDF>
</x:xmpmeta>
                                                                                                    
                                                                                                    
                                                                                                    
                                                                                                    
                                                                                                    
                                                                                                    
                                                                                                    
                                                                                                    
                                                                                                    
                                                                                                    
                                                                                                    
                                                                                                    
                                                                                                    
                                                                                                    
                                                                                                    
                                                                                                    
                                                                                                    
                                                                                                    
                                                                                                    
                                                                                                    
                           
<?xpacket end="w"?></metadata>
<style type="text/css">
	.st0{fill:none;}
	.st1{fill:#5B554D;}
</style>
<rect class="st0" width="64" height="64"/>
<g>
	<g>
		<path class="st1" d="M31.9,63c-7.3,0-14.4-2.6-20-7.4C5.6,50.3,1.8,42.8,1.1,34.5C0.4,26.3,3,18.2,8.4,11.9S21.2,1.8,29.5,1.1
			c17-1.4,32,11.3,33.4,28.4c1.4,17-11.3,32-28.4,33.4C33.7,63,32.8,63,31.9,63z M32,3c-0.8,0-1.6,0-2.4,0.1
			C21.9,3.7,14.9,7.3,9.9,13.2S2.5,26.6,3.1,34.3l0,0C3.7,42,7.3,49,13.2,54.1c5.9,5,13.4,7.4,21.1,6.8
			c15.9-1.3,27.9-15.3,26.6-31.3C59.7,14.5,47,3,32,3z"/>
	</g>
	<g>
		<g>
			<path class="st1" d="M29.3,28.6c-0.6,0-1.3-0.3-2-0.9L14.9,17.2c-0.9-0.8-1.4-1.8-1.4-2.9s0.6-2.1,1.5-2.8l0.1-0.1l9.8-5
				c0.1,0,0.1,0,0.2-0.1c0.3-0.1,0.6-0.2,0.9-0.2c2-0.2,3.7,1.3,3.8,3.4l1.3,16.3C31.3,27.8,30.3,28.6,29.3,28.6
				C29.4,28.6,29.4,28.6,29.3,28.6z M29.4,27.6L29.4,27.6L29.4,27.6z M29.3,26.6L29.3,26.6L29.3,26.6L29.3,26.6z M16.2,13.1
				c-0.4,0.3-0.7,0.8-0.7,1.2c0,0.5,0.2,1,0.7,1.3l12.4,10.6c0.3,0.2,0.5,0.3,0.6,0.4c0-0.1,0.1-0.3,0-0.7L27.9,9.6
				c-0.1-1-0.7-1.6-1.7-1.6c-0.1,0-0.3,0-0.4,0.1L16.2,13.1z"/>
		</g>
		<g>
			<path class="st1" d="M9.1,33.6c-1,0-2-0.4-2.7-1.1c-0.7-0.8-1.1-1.9-0.9-3.1c0-0.1,0-0.1,0-0.2l3.4-10.5c0-0.1,0-0.1,0.1-0.2
				c0.6-1.2,1.7-1.9,2.9-2c1-0.1,1.9,0.2,2.7,0.9L27,28.1c1.3,1.1,1.3,2.2,1.1,2.7c-0.2,0.5-0.7,1.4-2.5,1.5l0,0L9.4,33.6
				C9.3,33.6,9.2,33.6,9.1,33.6z M7.5,29.8c-0.1,0.5,0.1,1,0.4,1.4c0.3,0.3,0.8,0.5,1.4,0.5l16.2-1.3c0.4,0,0.6-0.1,0.7-0.2
				c-0.1-0.1-0.2-0.3-0.5-0.5L13.3,19.1c-0.4-0.3-0.8-0.5-1.3-0.5s-1,0.4-1.3,0.9L7.5,29.8z M25.6,31.3L25.6,31.3L25.6,31.3z"/>
		</g>
		<g>
			<path class="st1" d="M33.8,28.2c-0.9,0-1.9-0.7-2.1-2.5L30.4,9.4c-0.1-1,0.2-2,0.8-2.7c0.6-0.7,1.4-1.1,2.4-1.2
				c0.3,0,0.6,0,0.9,0c0.1,0,0.1,0,0.2,0l10.5,3.4c0.1,0,0.1,0,0.2,0.1c1,0.5,1.8,1.5,2,2.5c0.2,1.1-0.1,2.2-0.9,3.1L35.9,27
				c-0.6,0.7-1.3,1.1-2,1.2H33.8z M33.9,26.3L33.9,26.3L33.9,26.3z M34,7.4c-0.1,0-0.1,0-0.2,0l0,0c-0.4,0-0.8,0.2-1.1,0.5
				c-0.3,0.3-0.4,0.8-0.4,1.3l1.3,16.2c0,0.4,0.1,0.6,0.2,0.7c0.1-0.1,0.3-0.2,0.5-0.5l10.6-12.4c0.4-0.4,0.5-0.9,0.4-1.4
				c-0.1-0.4-0.4-0.8-0.9-1.1L34.2,7.5C34.1,7.5,34.1,7.4,34,7.4z M33.7,6.5L33.7,6.5L33.7,6.5z"/>
		</g>
		<g>
			<path class="st1" d="M30,58.5c-0.2,0-0.4,0-0.6,0c-0.1,0-0.1,0-0.2,0l-10.5-3.4c-0.1,0-0.1,0-0.2-0.1c-1-0.5-1.8-1.5-2-2.5
				c-0.2-1.1,0.1-2.2,0.9-3.1L28.1,37c0.6-0.7,1.3-1.1,2-1.2c0.9-0.1,2,0.5,2.2,2.5l1.3,16.2c0.1,1-0.2,2-0.8,2.7s-1.4,1.1-2.4,1.2
				C30.2,58.5,30.1,58.5,30,58.5z M29.8,56.5c0.1,0,0.3,0,0.4,0c0.4,0,0.8-0.2,1.1-0.5c0.3-0.3,0.4-0.8,0.4-1.3l-1.3-16.2
				c0-0.4-0.1-0.6-0.2-0.7c-0.1,0.1-0.3,0.2-0.5,0.5l0,0L19,50.7c-0.4,0.4-0.5,0.9-0.4,1.4c0.1,0.4,0.4,0.8,0.9,1.1L29.8,56.5z
				 M28.8,37.6L28.8,37.6L28.8,37.6z"/>
		</g>
		<g>
			<path class="st1" d="M37.9,31.3c-1.5,0-2-0.7-2.2-1.1c-0.2-0.5-0.5-1.5,0.7-2.8L47,15c0.7-0.8,1.6-1.3,2.5-1.4
				c1.2-0.1,2.4,0.5,3.2,1.5l0.1,0.1l5,9.8c0,0.1,0,0.1,0.1,0.2c0.3,1.1,0.2,2.3-0.4,3.2c-0.6,0.9-1.6,1.5-2.8,1.6l-16.3,1.3l0,0
				C38.1,31.2,38,31.3,37.9,31.3z M38.2,30.2L38.2,30.2L38.2,30.2z M37.4,29.2c0.1,0,0.3,0.1,0.7,0l16.2-1.3c0.6,0,1-0.3,1.3-0.7
				c0.3-0.4,0.3-0.9,0.2-1.4l-4.9-9.6c-0.4-0.5-0.9-0.7-1.4-0.7c-0.4,0-0.8,0.3-1.2,0.7L37.8,28.6C37.6,28.9,37.5,29.1,37.4,29.2z"
				/>
		</g>
		<g>
			<path class="st1" d="M14.3,50.4c-1.1,0-2.2-0.5-2.9-1.5l-0.1-0.1l-5-9.8c0,0,0-0.1-0.1-0.2c-0.4-1.1-0.2-2.3,0.4-3.2
				s1.6-1.5,2.8-1.6l0,0l16.2-1.3c1.8-0.1,2.4,0.6,2.7,1.1c0.2,0.5,0.5,1.5-0.7,2.8L17.1,49.1c-0.7,0.8-1.6,1.3-2.5,1.3
				C14.5,50.4,14.4,50.4,14.3,50.4z M13.1,47.8c0.4,0.5,0.9,0.7,1.4,0.7c0.4,0,0.8-0.3,1.2-0.7l10.6-12.4c0.2-0.3,0.3-0.5,0.4-0.6
				c-0.1,0-0.3-0.1-0.7,0L9.6,36.1c-0.6,0-1,0.3-1.3,0.7S8,37.7,8.1,38.2L13.1,47.8z"/>
		</g>
		<g>
			<path class="st1" d="M51.8,47.4c-0.9,0-1.7-0.3-2.4-0.9L37,35.9c-1.3-1.1-1.3-2.2-1.1-2.7s0.7-1.4,2.5-1.5l0,0l16.2-1.3
				c1.2-0.1,2.3,0.3,3,1.1s1.1,1.9,0.9,3.1c0,0.1,0,0.1,0,0.2l-3.4,10.5c0,0.1,0,0.1-0.1,0.2c-0.6,1.2-1.7,1.9-2.9,2
				C52,47.4,51.9,47.4,51.8,47.4z M37.8,33.9c0.1,0.1,0.2,0.3,0.5,0.5L50.7,45c0.4,0.3,0.8,0.5,1.3,0.5s1-0.4,1.3-0.9l3.3-10.3
				c0.1-0.5-0.1-1-0.4-1.4c-0.3-0.3-0.8-0.5-1.4-0.5l-16.2,1.3C38.1,33.7,37.9,33.8,37.8,33.9z"/>
		</g>
		<g>
			<path class="st1" d="M37.6,57.9c-1.9,0-3.3-1.4-3.5-3.4l-1.3-16.2c-0.1-1,0.1-1.7,0.5-2.2c0.3-0.4,0.7-0.6,1.2-0.6
				c0.7-0.1,1.4,0.2,2.1,0.9L49,47c0.9,0.8,1.4,1.8,1.4,2.9c0,1.1-0.6,2.1-1.5,2.8l-0.1,0.1l-9.8,5c-0.1,0-0.1,0-0.2,0.1
				c-0.3,0.1-0.6,0.2-0.9,0.2C37.8,57.9,37.7,57.9,37.6,57.9z M34.8,37.4c0,0.1-0.1,0.3,0,0.7l1.3,16.2c0.1,1,0.7,1.6,1.7,1.6
				c0.1,0,0.3,0,0.4-0.1l9.6-4.9c0.4-0.3,0.7-0.8,0.7-1.2c0-0.5-0.2-1-0.7-1.3L35.4,37.8C35.1,37.6,34.9,37.5,34.8,37.4z M34.7,37.4
				L34.7,37.4L34.7,37.4L34.7,37.4z M34.6,36.4L34.6,36.4L34.6,36.4z"/>
		</g>
	</g>
</g>
</svg>
