<?xml version="1.0" encoding="utf-8"?>
<!-- Generator: Adobe Illustrator 19.2.1, SVG Export Plug-In . SVG Version: 6.00 Build 0)  -->
<svg version="1.1" id="Layer_1" xmlns="http://www.w3.org/2000/svg" xmlns:xlink="http://www.w3.org/1999/xlink" x="0px" y="0px"
	 viewBox="0 0 64 64" style="enable-background:new 0 0 64 64;" xml:space="preserve">
<metadata><?xpacket begin="﻿" id="W5M0MpCehiHzreSzNTczkc9d"?>
<x:xmpmeta xmlns:x="adobe:ns:meta/" x:xmptk="Adobe XMP Core 5.6-c111 79.158366, 2015/09/25-01:12:00        ">
   <rdf:RDF xmlns:rdf="http://www.w3.org/1999/02/22-rdf-syntax-ns#">
      <rdf:Description rdf:about=""/>
   </rdf:RDF>
</x:xmpmeta>
                                                                                                    
                                                                                                    
                                                                                                    
                                                                                                    
                                                                                                    
                                                                                                    
                                                                                                    
                                                                                                    
                                                                                                    
                                                                                                    
                                                                                                    
                                                                                                    
                                                                                                    
                                                                                                    
                                                                                                    
                                                                                                    
                                                                                                    
                                                                                                    
                                                                                                    
                                                                                                    
                           
<?xpacket end="w"?></metadata>
<style type="text/css">
	.st0{fill:none;}
	.st1{fill:#5B554D;}
</style>
<rect class="st0" width="64" height="64"/>
<g>
	<g>
		<g>
			<path class="st1" d="M14.7,63c-2.5,0-4.8-1-6.5-2.7l-4.5-4.5c-3.6-3.6-3.6-9.4,0-13l12-12c3.3-3.3,8.6-3.6,12.3-0.6
				c0.4,0.3,0.5,0.9,0.1,1.3c-0.3,0.4-0.9,0.5-1.3,0.1c-2.9-2.4-7.1-2.2-9.8,0.4L5,44c-2.8,3-2.8,7.6,0,10.5L9.5,59
				c1.4,1.4,3.2,2.1,5.2,2.1s3.8-0.8,5.2-2.1l12-12c2.7-2.6,2.8-6.8,0.4-9.8c-0.3-0.4-0.3-1,0.1-1.3c0.4-0.3,1-0.3,1.3,0.1
				c3,3.7,2.8,9-0.6,12.3l-12,12C19.5,62.1,17.2,63,14.7,63z"/>
		</g>
		<g>
			<path class="st1" d="M41.9,35.9c-2.1,0-4.1-0.7-5.8-2.1c-0.4-0.3-0.5-0.9-0.1-1.3c0.3-0.4,0.9-0.5,1.3-0.1
				c2.9,2.4,7.1,2.2,9.8-0.4l12-12c2.8-2.8,2.8-7.5,0-10.3L54.5,5C51.6,2.2,47,2.2,44.1,5l-12,12c-2.7,2.6-2.8,6.8-0.4,9.8
				c0.3,0.4,0.3,1-0.1,1.3s-1,0.3-1.3-0.1c-3-3.7-2.8-9,0.6-12.3l12-12c3.6-3.6,9.4-3.6,13,0l4.5,4.5c3.6,3.6,3.6,9.4,0,13l-12,12
				C46.5,35,44.2,35.9,41.9,35.9z"/>
		</g>
	</g>
	<g>
		<path class="st1" d="M18.8,46.2c-0.2,0-0.5-0.1-0.7-0.3c-0.4-0.4-0.4-1,0-1.3l26.3-26.3c0.4-0.4,1-0.4,1.3,0c0.4,0.4,0.4,1,0,1.3
			L19.5,45.9C19.3,46.1,19,46.2,18.8,46.2z"/>
	</g>
</g>
</svg>
