<?xml version="1.0" encoding="utf-8"?>
<!-- Generator: Adobe Illustrator 19.2.1, SVG Export Plug-In . SVG Version: 6.00 Build 0)  -->
<svg version="1.1" id="Layer_1" xmlns="http://www.w3.org/2000/svg" xmlns:xlink="http://www.w3.org/1999/xlink" x="0px" y="0px"
	 viewBox="0 0 64 64" style="enable-background:new 0 0 64 64;" xml:space="preserve">
<metadata><?xpacket begin="﻿" id="W5M0MpCehiHzreSzNTczkc9d"?>
<x:xmpmeta xmlns:x="adobe:ns:meta/" x:xmptk="Adobe XMP Core 5.6-c111 79.158366, 2015/09/25-01:12:00        ">
   <rdf:RDF xmlns:rdf="http://www.w3.org/1999/02/22-rdf-syntax-ns#">
      <rdf:Description rdf:about=""/>
   </rdf:RDF>
</x:xmpmeta>
                                                                                                    
                                                                                                    
                                                                                                    
                                                                                                    
                                                                                                    
                                                                                                    
                                                                                                    
                                                                                                    
                                                                                                    
                                                                                                    
                                                                                                    
                                                                                                    
                                                                                                    
                                                                                                    
                                                                                                    
                                                                                                    
                                                                                                    
                                                                                                    
                                                                                                    
                                                                                                    
                           
<?xpacket end="w"?></metadata>
<style type="text/css">
	.st0{fill:none;}
	.st1{fill:#5B554D;}
</style>
<rect class="st0" width="64" height="64"/>
<g>
	<g>
		<g>
			<g>
				<g>
					<path class="st1" d="M12.9,24C12.9,24,12.9,24,12.9,24c-0.5,0-0.9-0.4-0.9-0.9C12.2,12.7,20.8,1,32,1c5.4,0,10.6,2.7,14.5,7.6
						c0.3,0.4,0.2,0.9-0.1,1.2c-0.4,0.3-0.9,0.2-1.2-0.1C41.6,5.2,36.9,2.8,32,2.8c-10.2,0-18,10.8-18.2,20.4
						C13.8,23.6,13.4,24,12.9,24z"/>
				</g>
			</g>
			<g>
				<g>
					<path class="st1" d="M50.3,63H13.7c-4.5,0-8.2-3.6-8.2-8.1V30.3c0-3.8,2.8-7.1,6.6-7.9v0c0.6-0.1,2-0.2,6.4-0.2l32.7,0.1
						c0,0,0.1,0,0.1,0c4.1,0.5,7.2,4,7.2,8v24.6C58.5,59.4,54.8,63,50.3,63z M12.5,24.1c0,0-0.1,0-0.1,0c-3,0.6-5.2,3.2-5.2,6.2
						v24.6c0,3.5,2.9,6.4,6.5,6.4h36.5c3.6,0,6.5-2.9,6.5-6.4V30.3c0-3.2-2.4-5.8-5.6-6.3l-32.6-0.1C16,23.9,13.1,24,12.5,24.1z"/>
				</g>
			</g>
			<g>
				<path class="st1" d="M32,34.7c-2.5,0-4.5,2-4.5,4.4c0,1.9,1.2,3.5,2.9,4.1v6.2c0,0.9,0.7,1.6,1.6,1.6c0.9,0,1.6-0.7,1.6-1.6
					v-6.2c1.7-0.6,2.9-2.2,2.9-4.1C36.5,36.7,34.5,34.7,32,34.7z"/>
			</g>
		</g>
	</g>
</g>
</svg>
