<?xml version="1.0" encoding="utf-8"?>
<!-- Generator: Adobe Illustrator 19.2.1, SVG Export Plug-In . SVG Version: 6.00 Build 0)  -->
<svg version="1.1" id="Layer_1" xmlns="http://www.w3.org/2000/svg" xmlns:xlink="http://www.w3.org/1999/xlink" x="0px" y="0px"
	 viewBox="0 0 64 64" style="enable-background:new 0 0 64 64;" xml:space="preserve">
<metadata><?xpacket begin="﻿" id="W5M0MpCehiHzreSzNTczkc9d"?>
<x:xmpmeta xmlns:x="adobe:ns:meta/" x:xmptk="Adobe XMP Core 5.6-c111 79.158366, 2015/09/25-01:12:00        ">
   <rdf:RDF xmlns:rdf="http://www.w3.org/1999/02/22-rdf-syntax-ns#">
      <rdf:Description rdf:about=""/>
   </rdf:RDF>
</x:xmpmeta>
                                                                                                    
                                                                                                    
                                                                                                    
                                                                                                    
                                                                                                    
                                                                                                    
                                                                                                    
                                                                                                    
                                                                                                    
                                                                                                    
                                                                                                    
                                                                                                    
                                                                                                    
                                                                                                    
                                                                                                    
                                                                                                    
                                                                                                    
                                                                                                    
                                                                                                    
                                                                                                    
                           
<?xpacket end="w"?></metadata>
<style type="text/css">
	.st0{fill:none;}
	.st1{fill:#5B554D;}
</style>
<rect class="st0" width="64" height="64"/>
<g>
	<g>
		<g>
			<path class="st1" d="M32,63c-0.1,0-0.1,0-0.2,0c-0.5-0.1-0.9-0.5-1-1l-3.3-21.6c-0.1-0.4,0.2-0.8,0.6-0.9
				c0.4-0.1,0.8,0.2,0.9,0.6l3,19.4l3-19.4c0.1-0.4,0.5-0.7,0.9-0.6c0.4,0.1,0.7,0.5,0.6,0.9L33.2,62C33.1,62.6,32.6,63,32,63z
				 M31.6,61.8L31.6,61.8L31.6,61.8z M32.3,61.8L32.3,61.8L32.3,61.8z"/>
		</g>
	</g>
	<g>
		<g>
			<path class="st1" d="M45.9,32.2H18.1c-0.3,0-0.6-0.2-0.7-0.5s-0.4-2.2,3-4.7c2.7-2,4.1-4,4.2-6v-0.1c-0.1-2.7-2.4-4.7-4.2-6
				c-3.5-2.5-3.1-4.4-3-4.7s0.4-0.5,0.7-0.5h27.7c0.3,0,0.6,0.2,0.7,0.5c0.1,0.3,0.4,2.2-3,4.7c-1.7,1.3-4.1,3.3-4.2,6V21
				c0.1,2.1,1.4,4,4.2,6c3.5,2.5,3.1,4.4,3,4.7C46.5,32,46.2,32.2,45.9,32.2z M19,30.7h26c-0.2-0.5-0.8-1.4-2.3-2.5l0,0
				c-3.1-2.3-4.7-4.6-4.8-7.2v-0.1c0.1-3.8,3.6-6.4,4.8-7.2c1.5-1.1,2.1-2,2.3-2.5H19c0.2,0.5,0.8,1.4,2.3,2.5
				c1.2,0.8,4.7,3.4,4.8,7.2V21c-0.1,2.6-1.7,4.9-4.8,7.2C19.8,29.3,19.2,30.2,19,30.7z"/>
		</g>
	</g>
	<g>
		<g>
			<path class="st1" d="M43.6,40.9H20.4c-1.7,0-3-1.4-3-3v-6.4c0-0.4,0.3-0.8,0.8-0.8c0.4,0,0.8,0.3,0.8,0.8v6.4
				c0,0.8,0.7,1.5,1.5,1.5h23.2c0.8,0,1.5-0.7,1.5-1.5v-6.4c0-0.4,0.3-0.8,0.8-0.8c0.4,0,0.8,0.3,0.8,0.8v6.4
				C46.6,39.5,45.3,40.9,43.6,40.9z M45.9,11.2c-0.4,0-0.8-0.3-0.8-0.8V4c0-0.8-0.7-1.5-1.5-1.5H20.4c-0.8,0-1.5,0.7-1.5,1.5v6.4
				c0,0.4-0.3,0.8-0.8,0.8c-0.4,0-0.8-0.3-0.8-0.8V4c0-1.7,1.4-3,3-3h23.2c1.7,0,3,1.4,3,3v6.4C46.6,10.8,46.3,11.2,45.9,11.2z"/>
		</g>
	</g>
</g>
</svg>
