<?xml version="1.0" encoding="utf-8"?>
<!-- Generator: Adobe Illustrator 19.2.1, SVG Export Plug-In . SVG Version: 6.00 Build 0)  -->
<svg version="1.1" id="Layer_1" xmlns="http://www.w3.org/2000/svg" xmlns:xlink="http://www.w3.org/1999/xlink" x="0px" y="0px"
	 viewBox="0 0 64 64" style="enable-background:new 0 0 64 64;" xml:space="preserve">
<metadata><?xpacket begin="﻿" id="W5M0MpCehiHzreSzNTczkc9d"?>
<x:xmpmeta xmlns:x="adobe:ns:meta/" x:xmptk="Adobe XMP Core 5.6-c111 79.158366, 2015/09/25-01:12:00        ">
   <rdf:RDF xmlns:rdf="http://www.w3.org/1999/02/22-rdf-syntax-ns#">
      <rdf:Description rdf:about=""/>
   </rdf:RDF>
</x:xmpmeta>
                                                                                                    
                                                                                                    
                                                                                                    
                                                                                                    
                                                                                                    
                                                                                                    
                                                                                                    
                                                                                                    
                                                                                                    
                                                                                                    
                                                                                                    
                                                                                                    
                                                                                                    
                                                                                                    
                                                                                                    
                                                                                                    
                                                                                                    
                                                                                                    
                                                                                                    
                                                                                                    
                           
<?xpacket end="w"?></metadata>
<style type="text/css">
	.st0{fill:none;}
	.st1{fill:#5B554D;}
</style>
<rect class="st0" width="64" height="64"/>
<g>
	<g>
		<g>
			<g>
				<path class="st1" d="M57.4,63c-0.1,0-0.1,0-0.2,0l-12.5-3.3L32.2,63c-0.1,0-0.3,0-0.4,0l-12.5-3.3L6.8,63c-0.3,0-0.6,0-0.8-0.2
					s-0.3-0.4-0.3-0.7l4-38.2c0-0.3,0.3-0.6,0.6-0.7l8.5-2.7c0.4-0.1,0.9,0.1,1,0.5s-0.1,0.9-0.5,1l-8,2.5L7.5,61.1l11.6-3
					c0.1,0,0.3,0,0.4,0L32,61.3L44.5,58c0.1,0,0.3,0,0.4,0l11.6,3l-3.8-36.5l-7.1-2.2c-0.4-0.1-0.7-0.6-0.5-1c0.1-0.4,0.6-0.7,1-0.5
					l7.6,2.4c0.3,0.1,0.5,0.4,0.6,0.7l4,38.2c0,0.3-0.1,0.5-0.3,0.7C57.8,62.9,57.6,63,57.4,63z"/>
			</g>
		</g>
		<g>
			<g>
				<g>
					<path class="st1" d="M32.5,48.6c-0.3,0-0.6-0.2-0.7-0.4C31.2,47.2,17.5,24,17.5,16c0-8.3,6.7-15,15-15s15,6.8,15,15
						c0,8-13.7,31.1-14.3,32.1C33,48.4,32.8,48.6,32.5,48.6z M32.5,2.6c-7.4,0-13.4,6-13.4,13.4c0,6.6,10.5,25.2,13.4,30.1
						c2.8-4.9,13.4-23.5,13.4-30.1C45.9,8.6,39.9,2.6,32.5,2.6z M32.5,20.2c-2.9,0-5.2-2.3-5.2-5.2s2.3-5.2,5.2-5.2s5.2,2.3,5.2,5.2
						S35.4,20.2,32.5,20.2z M32.5,11.4c-2,0-3.6,1.6-3.6,3.6s1.6,3.6,3.6,3.6s3.6-1.6,3.6-3.6S34.5,11.4,32.5,11.4z"/>
				</g>
			</g>
			<g>
				<path class="st1" d="M32.5,20.2c-2.9,0-5.2-2.3-5.2-5.2s2.3-5.2,5.2-5.2s5.2,2.3,5.2,5.2S35.4,20.2,32.5,20.2z M32.5,11.4
					c-2,0-3.6,1.6-3.6,3.6s1.6,3.6,3.6,3.6s3.6-1.6,3.6-3.6S34.5,11.4,32.5,11.4z"/>
			</g>
		</g>
	</g>
	<g>
		<path class="st1" d="M19.2,58.9L19.2,58.9c-0.5,0-0.8-0.4-0.8-0.9l1.8-32.1c0-0.4,0.4-0.7,0.9-0.8c0.4,0,0.8,0.4,0.8,0.9L20,58.1
			C20,58.5,19.7,58.9,19.2,58.9z"/>
	</g>
	<g>
		<path class="st1" d="M32,61.9L32,61.9c-0.5,0-0.8-0.4-0.8-0.8l0.5-13c0-0.4,0.4-0.8,0.8-0.8c0.4,0,0.8,0.4,0.8,0.8l-0.5,13
			C32.8,61.6,32.4,61.9,32,61.9z"/>
	</g>
	<g>
		<path class="st1" d="M44.7,59.2c-0.4,0-0.8-0.3-0.8-0.8l-1.4-31.1c0-0.4,0.3-0.8,0.8-0.8c0.4,0,0.8,0.3,0.8,0.8l1.4,31.1
			C45.5,58.8,45.1,59.2,44.7,59.2L44.7,59.2z"/>
	</g>
</g>
</svg>
