<?xml version="1.0" encoding="utf-8"?>
<!-- Generator: Adobe Illustrator 19.2.1, SVG Export Plug-In . SVG Version: 6.00 Build 0)  -->
<svg version="1.1" id="Layer_1" xmlns="http://www.w3.org/2000/svg" xmlns:xlink="http://www.w3.org/1999/xlink" x="0px" y="0px"
	 viewBox="0 0 64 64" style="enable-background:new 0 0 64 64;" xml:space="preserve">
<metadata><?xpacket begin="﻿" id="W5M0MpCehiHzreSzNTczkc9d"?>
<x:xmpmeta xmlns:x="adobe:ns:meta/" x:xmptk="Adobe XMP Core 5.6-c111 79.158366, 2015/09/25-01:12:00        ">
   <rdf:RDF xmlns:rdf="http://www.w3.org/1999/02/22-rdf-syntax-ns#">
      <rdf:Description rdf:about=""/>
   </rdf:RDF>
</x:xmpmeta>
                                                                                                    
                                                                                                    
                                                                                                    
                                                                                                    
                                                                                                    
                                                                                                    
                                                                                                    
                                                                                                    
                                                                                                    
                                                                                                    
                                                                                                    
                                                                                                    
                                                                                                    
                                                                                                    
                                                                                                    
                                                                                                    
                                                                                                    
                                                                                                    
                                                                                                    
                                                                                                    
                           
<?xpacket end="w"?></metadata>
<style type="text/css">
	.st0{fill:none;}
	.st1{fill:#5B554D;}
</style>
<rect class="st0" width="64" height="64"/>
<g>
	<g>
		<g>
			<path class="st1" d="M32,60.1C12.9,60.1,1,53.8,1,48c0-5,8-9.5,19.9-11.3c0.4-0.1,0.7,0.2,0.8,0.6c0.1,0.4-0.2,0.7-0.6,0.8
				C10.3,39.7,2.4,43.9,2.4,48c0,5,12.2,10.7,29.6,10.7S61.6,53,61.6,48c0-4.1-7.9-8.3-18.7-9.9c-0.4-0.1-0.6-0.4-0.6-0.8
				c0.1-0.4,0.4-0.7,0.8-0.6C55,38.5,63,43,63,48C63,53.8,51.1,60.1,32,60.1z M32.3,50.3c-8,0-13.8-1.7-14.3-3.3c0-0.1,0-0.3,0-0.4
				c0.3-0.9,2.5-2.2,7.9-3c0.4,0,0.7,0.2,0.8,0.6c0.1,0.4-0.2,0.7-0.6,0.8c-4.1,0.5-5.8,1.4-6.4,1.8c1.2,0.7,5.6,2,12.7,2
				c7,0,11.4-1.3,12.6-2.1c-0.7-0.4-2.4-1.2-6.3-1.7c-0.4-0.1-0.7-0.4-0.6-0.8c0.1-0.4,0.4-0.7,0.8-0.6c5.7,0.7,7.6,2.2,7.8,2.9
				c0,0.1,0,0.3,0,0.4C46.1,48.8,39.7,50.3,32.3,50.3z M19.3,47.2L19.3,47.2L19.3,47.2z M45.3,47.1L45.3,47.1L45.3,47.1z"/>
		</g>
	</g>
	<g>
		<path class="st1" d="M32.4,46.9c-0.2,0-0.4-0.1-0.5-0.2C31.3,46.1,18,32.8,18,19.3c0-8.5,6.5-15.5,14.4-15.5s14.4,6.9,14.4,15.5
			c0,13.7-13.3,26.8-13.9,27.3C32.7,46.8,32.6,46.9,32.4,46.9z M32.4,5.3c-7.2,0-13,6.3-13,14.1c0,11.5,10.5,23.3,13,25.8
			c2.4-2.5,13-14.1,13-25.8C45.3,11.6,39.5,5.3,32.4,5.3z M32.4,21c-2.7,0-5-2.2-5-5s2.2-5,5-5c2.7,0,5,2.2,5,5S35.1,21,32.4,21z
			 M32.4,12.5c-2,0-3.5,1.6-3.5,3.6s1.6,3.6,3.5,3.6c2,0,3.6-1.6,3.6-3.6S34.3,12.5,32.4,12.5z"/>
	</g>
	<g>
		<path class="st1" d="M32.4,21c-2.7,0-5-2.2-5-5s2.2-5,5-5c2.7,0,5,2.2,5,5S35.1,21,32.4,21z M32.4,12.5c-2,0-3.5,1.6-3.5,3.6
			s1.6,3.6,3.5,3.6c2,0,3.6-1.6,3.6-3.6S34.3,12.5,32.4,12.5z"/>
	</g>
</g>
</svg>
