<?xml version="1.0" encoding="utf-8"?>
<!-- Generator: Adobe Illustrator 19.2.1, SVG Export Plug-In . SVG Version: 6.00 Build 0)  -->
<svg version="1.1" id="Layer_1" xmlns="http://www.w3.org/2000/svg" xmlns:xlink="http://www.w3.org/1999/xlink" x="0px" y="0px"
	 viewBox="0 0 64 64" style="enable-background:new 0 0 64 64;" xml:space="preserve">
<metadata><?xpacket begin="﻿" id="W5M0MpCehiHzreSzNTczkc9d"?>
<x:xmpmeta xmlns:x="adobe:ns:meta/" x:xmptk="Adobe XMP Core 5.6-c111 79.158366, 2015/09/25-01:12:00        ">
   <rdf:RDF xmlns:rdf="http://www.w3.org/1999/02/22-rdf-syntax-ns#">
      <rdf:Description rdf:about=""/>
   </rdf:RDF>
</x:xmpmeta>
                                                                                                    
                                                                                                    
                                                                                                    
                                                                                                    
                                                                                                    
                                                                                                    
                                                                                                    
                                                                                                    
                                                                                                    
                                                                                                    
                                                                                                    
                                                                                                    
                                                                                                    
                                                                                                    
                                                                                                    
                                                                                                    
                                                                                                    
                                                                                                    
                                                                                                    
                                                                                                    
                           
<?xpacket end="w"?></metadata>
<style type="text/css">
	.st0{fill:none;}
	.st1{fill:#5B554D;}
</style>
<rect class="st0" width="64" height="64"/>
<g>
	<g>
		<g>
			<path class="st1" d="M32,63c-0.3,0-0.5-0.2-0.7-0.4C30.5,61.3,12.6,31,12.6,20.5C12.6,9.8,21.3,1,32,1s19.4,8.8,19.4,19.5
				c0,10.4-18,40.8-18.7,42.1C32.5,62.8,32.3,63,32,63z M32,2.6c-9.8,0-17.8,8-17.8,17.9c0,8.9,14.5,34.3,17.8,40.1
				c3.4-5.8,17.8-31.2,17.8-40.1C49.8,10.6,41.8,2.6,32,2.6z M32,25.7c-3.6,0-6.6-3-6.6-6.6s2.9-6.6,6.6-6.6c3.6,0,6.6,3,6.6,6.6
				C38.6,22.8,35.6,25.7,32,25.7z M32,14.2c-2.7,0-5,2.2-5,5c0,2.7,2.2,5,5,5c2.7,0,5-2.2,5-5S34.7,14.2,32,14.2z"/>
		</g>
	</g>
	<g>
		<path class="st1" d="M32,25.7c-3.6,0-6.6-3-6.6-6.6s2.9-6.6,6.6-6.6c3.6,0,6.6,3,6.6,6.6C38.6,22.8,35.6,25.7,32,25.7z M32,14.2
			c-2.7,0-5,2.2-5,5c0,2.7,2.2,5,5,5c2.7,0,5-2.2,5-5S34.7,14.2,32,14.2z"/>
	</g>
</g>
</svg>
