<?xml version="1.0" encoding="utf-8"?>
<!-- Generator: Adobe Illustrator 19.2.1, SVG Export Plug-In . SVG Version: 6.00 Build 0)  -->
<svg version="1.1" id="Layer_1" xmlns="http://www.w3.org/2000/svg" xmlns:xlink="http://www.w3.org/1999/xlink" x="0px" y="0px"
	 viewBox="0 0 64 64" style="enable-background:new 0 0 64 64;" xml:space="preserve">
<metadata><?xpacket begin="﻿" id="W5M0MpCehiHzreSzNTczkc9d"?>
<x:xmpmeta xmlns:x="adobe:ns:meta/" x:xmptk="Adobe XMP Core 5.6-c111 79.158366, 2015/09/25-01:12:00        ">
   <rdf:RDF xmlns:rdf="http://www.w3.org/1999/02/22-rdf-syntax-ns#">
      <rdf:Description rdf:about=""/>
   </rdf:RDF>
</x:xmpmeta>
                                                                                                    
                                                                                                    
                                                                                                    
                                                                                                    
                                                                                                    
                                                                                                    
                                                                                                    
                                                                                                    
                                                                                                    
                                                                                                    
                                                                                                    
                                                                                                    
                                                                                                    
                                                                                                    
                                                                                                    
                                                                                                    
                                                                                                    
                                                                                                    
                                                                                                    
                                                                                                    
                           
<?xpacket end="w"?></metadata>
<style type="text/css">
	.st0{fill:none;}
	.st1{fill:#5B554D;}
</style>
<rect class="st0" width="64" height="64"/>
<g>
	<g>
		<g>
			<g>
				<path class="st1" d="M23.7,23.9c-0.4,0-0.8-0.2-0.9-0.6c-0.2-0.5,0-1.1,0.5-1.3c1.3-0.6,2.7-1,4.1-1.3c0,0,0,0,0,0c0,0,0,0,0,0
					c0.5-0.1,1.1,0.2,1.2,0.8c0.1,0.5-0.2,1.1-0.8,1.2c0,0,0,0,0,0l0,0c0,0,0,0,0,0c-1.3,0.3-2.5,0.7-3.7,1.2
					C24,23.9,23.9,23.9,23.7,23.9z"/>
			</g>
			<g>
				<path class="st1" d="M27.7,22.6c-0.5,0-0.9-0.3-1-0.8c-0.1-0.5,0.2-1.1,0.8-1.2c0.4-0.1,0.8-0.2,1.3-0.2c0.3,0,0.5-0.1,0.8-0.1
					c0.5-0.1,1,0.3,1.1,0.9s-0.3,1-0.9,1.1c-0.2,0-0.5,0.1-0.7,0.1c-0.4,0.1-0.8,0.1-1.1,0.2C27.9,22.6,27.8,22.6,27.7,22.6z"/>
			</g>
			<g>
				<path class="st1" d="M30,22.2c-0.5,0-0.9-0.4-1-0.9c0,0,0-0.1,0-0.1c0-0.5,0.4-0.9,0.9-1c0.8-0.1,1.5-0.1,2.1-0.1
					c0.6,0,1,0.5,1,1c0,0.6-0.5,1-1,1C31.4,22.1,30.8,22.2,30,22.2C30.1,22.2,30,22.2,30,22.2z"/>
			</g>
			<g>
				<path class="st1" d="M36.4,22.6c-0.1,0-0.1,0-0.2,0c0,0-0.1,0-0.1,0c-0.5-0.1-0.8-0.5-0.8-1c0-0.1,0-0.1,0-0.2
					c0.1-0.5,0.6-0.9,1.1-0.8c0,0,0.1,0,0.1,0c0.5,0.1,0.8,0.5,0.8,1c0,0.1,0,0.1,0,0.2C37.3,22.3,36.9,22.6,36.4,22.6z"/>
			</g>
			<g>
				<path class="st1" d="M41.9,24.7c-0.2,0-0.3,0-0.5-0.1c-0.5-0.3-1-0.5-1.5-0.8l0,0c0,0,0,0,0,0c-0.2-0.1-0.3-0.2-0.4-0.3L31.2,13
					c-0.3-0.4-0.3-0.9,0-1.2l8.1-10.3C39.5,1.1,39.8,1,40.1,1h18c0.4,0,0.7,0.2,0.9,0.6s0.1,0.7-0.1,1.1L42.7,24.3
					C42.5,24.6,42.2,24.7,41.9,24.7z M41,22.1c0.2,0.1,0.4,0.2,0.7,0.3L56.1,3H40.6l-7.3,9.3L41,22.1z"/>
			</g>
			<g>
				<path class="st1" d="M34.3,22.3c0,0-0.1,0-0.1,0l-0.2,0l0-1l0.1-1l0.3,0c0.5,0.1,0.9,0.5,0.9,1c0,0,0,0.1,0,0.1
					C35.3,21.9,34.8,22.3,34.3,22.3z"/>
			</g>
		</g>
		<g>
			<path class="st1" d="M22.1,24.7c-0.3,0-0.6-0.1-0.8-0.4L5.1,2.6C4.8,2.3,4.8,1.9,5,1.6S5.5,1,5.9,1h18c0.3,0,0.6,0.1,0.8,0.4
				l16.4,20.9c0.3,0.4,0.3,0.9,0,1.2c-0.3,0.4-0.8,0.5-1.2,0.3c-5.5-2.5-12.1-2.2-17.3,0.7C22.4,24.7,22.3,24.7,22.1,24.7z M7.9,3
				l14.5,19.4c4.6-2.3,10.1-2.9,15-1.6L23.4,3H7.9z"/>
		</g>
	</g>
	<g>
		<g>
			<path class="st1" d="M32,63c-11.8,0-21.4-9.6-21.4-21.4c0-11.8,9.6-21.4,21.4-21.4c11.8,0,21.4,9.6,21.4,21.4
				C53.4,53.4,43.8,63,32,63z M32,22.1c-10.7,0-19.4,8.7-19.4,19.4C12.6,52.3,21.3,61,32,61c10.7,0,19.4-8.7,19.4-19.4
				C51.4,30.9,42.7,22.1,32,22.1z"/>
		</g>
		<g>
			<g>
				<path class="st1" d="M32,55.8c-7.8,0-14.2-6.4-14.2-14.2c0-7.8,6.4-14.2,14.2-14.2s14.2,6.4,14.2,14.2
					C46.2,49.4,39.8,55.8,32,55.8z M32,29.4c-6.7,0-12.2,5.5-12.2,12.2c0,6.7,5.5,12.2,12.2,12.2s12.2-5.5,12.2-12.2
					C44.2,34.8,38.7,29.4,32,29.4z"/>
			</g>
		</g>
	</g>
</g>
</svg>
