<?xml version="1.0" encoding="utf-8"?>
<!-- Generator: Adobe Illustrator 19.2.1, SVG Export Plug-In . SVG Version: 6.00 Build 0)  -->
<svg version="1.1" id="Layer_1" xmlns="http://www.w3.org/2000/svg" xmlns:xlink="http://www.w3.org/1999/xlink" x="0px" y="0px"
	 viewBox="0 0 64 64" style="enable-background:new 0 0 64 64;" xml:space="preserve">
<metadata><?xpacket begin="﻿" id="W5M0MpCehiHzreSzNTczkc9d"?>
<x:xmpmeta xmlns:x="adobe:ns:meta/" x:xmptk="Adobe XMP Core 5.6-c111 79.158366, 2015/09/25-01:12:00        ">
   <rdf:RDF xmlns:rdf="http://www.w3.org/1999/02/22-rdf-syntax-ns#">
      <rdf:Description rdf:about=""/>
   </rdf:RDF>
</x:xmpmeta>
                                                                                                    
                                                                                                    
                                                                                                    
                                                                                                    
                                                                                                    
                                                                                                    
                                                                                                    
                                                                                                    
                                                                                                    
                                                                                                    
                                                                                                    
                                                                                                    
                                                                                                    
                                                                                                    
                                                                                                    
                                                                                                    
                                                                                                    
                                                                                                    
                                                                                                    
                                                                                                    
                           
<?xpacket end="w"?></metadata>
<style type="text/css">
	.st0{fill:none;}
	.st1{fill:#5B554D;}
</style>
<rect class="st0" width="64" height="64"/>
<g>
	<g>
		<path class="st1" d="M53,51.6c-0.7,0-1.4-0.6-1.9-1.2C51,50.1,44,38.9,26.4,37.5c-0.5,0-0.9-0.5-0.8-1c0-0.5,0.5-0.9,1-0.8
			C43.9,37.1,51.3,47.3,52.5,49l0-45.7c-0.1,0.1-0.2,0.2-0.3,0.3c-7.5,11.6-20.5,13.2-25.7,13.4c-0.5,0-0.9-0.4-0.9-0.9
			c0-0.5,0.4-0.9,0.9-1c4.9-0.2,17.2-1.7,24.2-12.6c0.7-0.9,1.7-1.9,2.7-1.6c0.6,0.2,1,0.8,1,1.8l0,46.8c0.1,1-0.2,1.6-0.9,1.8
			C53.3,51.5,53.2,51.6,53,51.6z"/>
	</g>
	<g>
		<path class="st1" d="M54.9,34.1c-0.3,0-0.7-0.2-0.8-0.5c-0.2-0.5-0.1-1,0.4-1.2c2.2-1.1,3.5-3.3,3.5-5.6c0-2.3-1.3-4.5-3.5-5.7
			c-0.5-0.2-0.6-0.8-0.4-1.2c0.2-0.4,0.8-0.6,1.2-0.4c2.8,1.5,4.5,4.3,4.5,7.3c0,3-1.7,5.8-4.5,7.3C55.1,34,55,34.1,54.9,34.1z"/>
	</g>
	<g>
		<path class="st1" d="M24.2,63h-3.4c-1.8,0-3.2-1.5-3.2-3.2V41.3c0-0.3-0.6-0.9-2.9-1.3c-1.8-0.3-3.6-0.3-3.6-0.3l0,0
			c-1.9,0-3.5-0.6-4.7-1.8c-2.2-2.3-2.2-5.8-2.2-6v-8.2c0-5.4,4.6-7,7.1-7.1l14.2-1.3c0.1,0,0.2-0.1,0.3,0c0,0,0.3,0,0.8,0
			c0.5,0,0.9,0.4,0.9,0.9v21.7c0,0,0,0.1,0,0.1l0,21.7C27.5,61.5,26,63,24.2,63z M11.1,37.9c1,0,5.9,0.1,7.7,1.8
			c0.5,0.5,0.7,1,0.7,1.6v18.5c0,0.8,0.6,1.4,1.4,1.4h3.4c0.8,0,1.4-0.6,1.4-1.4l0-21.6c0,0,0-0.1,0-0.1V17.1c0,0,0,0,0,0l-14.2,1.3
			c-0.3,0-5.3,0.3-5.3,5.3v8.2c0,0,0,3,1.7,4.7C8.5,37.4,9.6,37.9,11.1,37.9C11.1,37.9,11.1,37.9,11.1,37.9z"/>
	</g>
</g>
</svg>
