<?xml version="1.0" encoding="utf-8"?>
<!-- Generator: Adobe Illustrator 19.2.1, SVG Export Plug-In . SVG Version: 6.00 Build 0)  -->
<svg version="1.1" id="Layer_1" xmlns="http://www.w3.org/2000/svg" xmlns:xlink="http://www.w3.org/1999/xlink" x="0px" y="0px"
	 viewBox="0 0 64 64" style="enable-background:new 0 0 64 64;" xml:space="preserve">
<metadata><?xpacket begin="﻿" id="W5M0MpCehiHzreSzNTczkc9d"?>
<x:xmpmeta xmlns:x="adobe:ns:meta/" x:xmptk="Adobe XMP Core 5.6-c111 79.158366, 2015/09/25-01:12:00        ">
   <rdf:RDF xmlns:rdf="http://www.w3.org/1999/02/22-rdf-syntax-ns#">
      <rdf:Description rdf:about=""/>
   </rdf:RDF>
</x:xmpmeta>
                                                                                                    
                                                                                                    
                                                                                                    
                                                                                                    
                                                                                                    
                                                                                                    
                                                                                                    
                                                                                                    
                                                                                                    
                                                                                                    
                                                                                                    
                                                                                                    
                                                                                                    
                                                                                                    
                                                                                                    
                                                                                                    
                                                                                                    
                                                                                                    
                                                                                                    
                                                                                                    
                           
<?xpacket end="w"?></metadata>
<style type="text/css">
	.st0{fill:none;}
	.st1{fill:#5B554D;}
</style>
<rect class="st0" width="64" height="64"/>
<g>
	<g>
		<path class="st1" d="M4.7,52.2c-0.2,0-0.4,0-0.6-0.1c-0.4-0.2-0.7-0.5-0.8-0.9l-2.2-5.7c-0.2-0.4-0.1-0.8,0-1.2
			c0.2-0.4,0.4-0.6,0.8-0.8c0.3-0.1,0.5-0.1,0.8-0.1l45-30.9c0.3-0.2,0.8-0.1,1,0.2c0.2,0.3,0.1,0.8-0.2,1L3.5,44.7l-0.1,0.1
			C3.1,45,2.7,45,2.5,44.8l2.2,5.8c0-0.3,0.4-0.6,0.7-0.6l53.9-6.9c0.4-0.1,0.8,0.2,0.8,0.6c0.1,0.4-0.2,0.8-0.6,0.8L6,51.4
			c-0.2,0.3-0.4,0.5-0.7,0.6C5.1,52.1,4.9,52.2,4.7,52.2z"/>
	</g>
	<g>
		<path class="st1" d="M61,45.6c-0.8,0-1.6-0.5-1.8-1.3L47.9,13.4c-0.2-0.5-0.2-1,0.1-1.5c0.2-0.5,0.6-0.8,1.1-1
			c0.5-0.2,1-0.2,1.5,0.1c0.5,0.2,0.8,0.6,1,1.1l11.3,30.9c0.2,0.5,0.2,1-0.1,1.5c-0.2,0.5-0.6,0.8-1.1,1c-0.1,0-0.2,0.1-0.4,0.1
			C61.2,45.6,61.1,45.6,61,45.6z M49.7,12.2c-0.1,0-0.1,0-0.2,0c-0.1,0-0.2,0.1-0.3,0.3c-0.1,0.1-0.1,0.3,0,0.4l11.3,30.9
			c0.1,0.2,0.3,0.4,0.6,0.3c0.2-0.1,0.3-0.2,0.4-0.3c0.1-0.1,0.1-0.3,0-0.4c0,0,0,0,0,0L50.2,12.5c0-0.1-0.1-0.2-0.3-0.3
			C49.9,12.2,49.8,12.2,49.7,12.2z"/>
	</g>
	<g>
		<path class="st1" d="M13.4,50.5c-0.3,0-0.6-0.2-0.7-0.5L8.9,39.9c-0.1-0.4,0-0.8,0.4-0.9c0.4-0.1,0.8,0,0.9,0.4l3.9,10.1
			c0.1,0.4,0,0.8-0.4,0.9C13.6,50.5,13.5,50.5,13.4,50.5z"/>
	</g>
	<g>
		<path class="st1" d="M27.1,53.3c-1.2,0-2-0.9-2.4-2.4l-0.4-2.4c-0.1-0.4,0.2-0.8,0.6-0.8c0.4-0.1,0.8,0.2,0.8,0.6l0.4,2.4
			c0.1,0.6,0.4,1.3,1,1.3c0,0,0,0,0,0l7.6-0.8c0.4,0,0.8-0.2,1-0.4c0.1-0.1,0.1-0.3,0.1-0.5L35.2,47c-0.1-0.4,0.2-0.8,0.6-0.8
			c0.4-0.1,0.8,0.2,0.8,0.6l0.6,3.1c0.1,0.6,0,1.2-0.4,1.6c-0.4,0.6-1.2,0.9-2,1l-7.6,0.8C27.2,53.3,27.1,53.3,27.1,53.3z"/>
	</g>
</g>
</svg>
