<?xml version="1.0" encoding="utf-8"?>
<!-- Generator: Adobe Illustrator 19.2.1, SVG Export Plug-In . SVG Version: 6.00 Build 0)  -->
<svg version="1.1" id="Layer_1" xmlns="http://www.w3.org/2000/svg" xmlns:xlink="http://www.w3.org/1999/xlink" x="0px" y="0px"
	 viewBox="0 0 64 64" style="enable-background:new 0 0 64 64;" xml:space="preserve">
<metadata><?xpacket begin="﻿" id="W5M0MpCehiHzreSzNTczkc9d"?>
<x:xmpmeta xmlns:x="adobe:ns:meta/" x:xmptk="Adobe XMP Core 5.6-c111 79.158366, 2015/09/25-01:12:00        ">
   <rdf:RDF xmlns:rdf="http://www.w3.org/1999/02/22-rdf-syntax-ns#">
      <rdf:Description rdf:about=""/>
   </rdf:RDF>
</x:xmpmeta>
                                                                                                    
                                                                                                    
                                                                                                    
                                                                                                    
                                                                                                    
                                                                                                    
                                                                                                    
                                                                                                    
                                                                                                    
                                                                                                    
                                                                                                    
                                                                                                    
                                                                                                    
                                                                                                    
                                                                                                    
                                                                                                    
                                                                                                    
                                                                                                    
                                                                                                    
                                                                                                    
                           
<?xpacket end="w"?></metadata>
<style type="text/css">
	.st0{fill:none;}
	.st1{fill:#5B554D;}
</style>
<rect class="st0" width="64" height="64"/>
<g>
	<g>
		<path class="st1" d="M47.2,63H16.8c-2.1,0-3.8-1.7-3.8-3.8c0-2.1,1.7-3.8,3.8-3.8h11.3v-7.8c-12.3-2-17.5-13-17.5-18.6v-8.4
			c0-2.1,1.7-3.8,3.8-3.8c2.1,0,3.8,1.7,3.8,3.8V29c0,0.1,2.1,11.3,13.6,11.3c11.7,0,13.6-11.2,13.6-11.3v-8.4
			c0-2.1,1.7-3.8,3.8-3.8c2.1,0,3.8,1.7,3.8,3.8V29c0,5.6-5.1,16.6-17.5,18.6v7.8h11.3c2.1,0,3.8,1.7,3.8,3.8
			C51,61.3,49.3,63,47.2,63z M16.8,57c-1.2,0-2.2,1-2.2,2.2c0,1.2,1,2.2,2.2,2.2h30.3c1.2,0,2.2-1,2.2-2.2c0-1.2-1-2.2-2.2-2.2H35
			c-0.4,0-0.8-0.4-0.8-0.8v-9.3c0-0.4,0.3-0.7,0.7-0.8C46.6,44.6,51.7,34,51.7,29v-8.4c0-1.2-1-2.2-2.2-2.2c-1.2,0-2.2,1-2.2,2.2V29
			c0,1.6-3.1,12.9-15.2,12.9c-12,0-15.2-11.4-15.2-12.9v-8.4c0-1.2-1-2.2-2.2-2.2c-1.2,0-2.2,1-2.2,2.2V29c0,5,5.1,15.6,16.8,17.1
			c0.4,0.1,0.7,0.4,0.7,0.8v9.3c0,0.4-0.4,0.8-0.8,0.8H16.8z"/>
	</g>
	<g>
		<path class="st1" d="M32.6,37.7h-1.2c-5.6,0-10.2-4.6-10.2-10.2V11.2C21.1,5.6,25.7,1,31.4,1h1.2c5.6,0,10.2,4.6,10.2,10.2v16.2
			C42.9,33.1,38.3,37.7,32.6,37.7z M31.4,2.6c-4.8,0-8.6,3.9-8.6,8.6v16.2c0,4.8,3.9,8.6,8.6,8.6h1.2c4.8,0,8.6-3.9,8.6-8.6V11.2
			c0-4.8-3.9-8.6-8.6-8.6H31.4z"/>
	</g>
	<g>
		<path class="st1" d="M27.3,11.3h-5.1c-0.4,0-0.8-0.4-0.8-0.8s0.4-0.8,0.8-0.8h5.1c0.4,0,0.8,0.4,0.8,0.8S27.7,11.3,27.3,11.3z"/>
	</g>
	<g>
		<path class="st1" d="M27.3,14.4h-5.1c-0.4,0-0.8-0.4-0.8-0.8s0.4-0.8,0.8-0.8h5.1c0.4,0,0.8,0.4,0.8,0.8S27.7,14.4,27.3,14.4z"/>
	</g>
	<g>
		<path class="st1" d="M27.3,17.6h-5.1c-0.4,0-0.8-0.4-0.8-0.8c0-0.4,0.4-0.8,0.8-0.8h5.1c0.4,0,0.8,0.4,0.8,0.8
			C28.1,17.2,27.7,17.6,27.3,17.6z"/>
	</g>
	<g>
		<path class="st1" d="M41.8,11.3h-5.1c-0.4,0-0.8-0.4-0.8-0.8s0.4-0.8,0.8-0.8h5.1c0.4,0,0.8,0.4,0.8,0.8S42.3,11.3,41.8,11.3z"/>
	</g>
	<g>
		<path class="st1" d="M41.8,14.4h-5.1c-0.4,0-0.8-0.4-0.8-0.8s0.4-0.8,0.8-0.8h5.1c0.4,0,0.8,0.4,0.8,0.8S42.3,14.4,41.8,14.4z"/>
	</g>
	<g>
		<path class="st1" d="M41.8,17.6h-5.1c-0.4,0-0.8-0.4-0.8-0.8c0-0.4,0.4-0.8,0.8-0.8h5.1c0.4,0,0.8,0.4,0.8,0.8
			C42.6,17.2,42.3,17.6,41.8,17.6z"/>
	</g>
	<g>
		<path class="st1" d="M41.8,21.7H22.2c-0.4,0-0.8-0.4-0.8-0.8s0.4-0.8,0.8-0.8h19.6c0.4,0,0.8,0.4,0.8,0.8S42.3,21.7,41.8,21.7z"/>
	</g>
</g>
</svg>
