<?xml version="1.0" encoding="utf-8"?>
<!-- Generator: Adobe Illustrator 19.2.1, SVG Export Plug-In . SVG Version: 6.00 Build 0)  -->
<svg version="1.1" id="Layer_1" xmlns="http://www.w3.org/2000/svg" xmlns:xlink="http://www.w3.org/1999/xlink" x="0px" y="0px"
	 viewBox="0 0 64 64" style="enable-background:new 0 0 64 64;" xml:space="preserve">
<metadata><?xpacket begin="﻿" id="W5M0MpCehiHzreSzNTczkc9d"?>
<x:xmpmeta xmlns:x="adobe:ns:meta/" x:xmptk="Adobe XMP Core 5.6-c111 79.158366, 2015/09/25-01:12:00        ">
   <rdf:RDF xmlns:rdf="http://www.w3.org/1999/02/22-rdf-syntax-ns#">
      <rdf:Description rdf:about=""/>
   </rdf:RDF>
</x:xmpmeta>
                                                                                                    
                                                                                                    
                                                                                                    
                                                                                                    
                                                                                                    
                                                                                                    
                                                                                                    
                                                                                                    
                                                                                                    
                                                                                                    
                                                                                                    
                                                                                                    
                                                                                                    
                                                                                                    
                                                                                                    
                                                                                                    
                                                                                                    
                                                                                                    
                                                                                                    
                                                                                                    
                           
<?xpacket end="w"?></metadata>
<style type="text/css">
	.st0{fill:none;}
	.st1{fill:#5B554D;}
</style>
<rect class="st0" width="64" height="64"/>
<g>
	<g>
		<path class="st1" d="M31.3,63c-3.6,0-12.1-0.3-12.1-2.6l0-0.2c0-0.3,0-0.7,0-0.9c0-0.1,0-0.2,0.1-0.3c0.2-0.6,1.2-1.8,7.8-2.2
			V35.8C19.2,39,12,42,11,42.4c-2.5,1-4.7,0.3-6-2c-0.9-1.7-1.5-2.8-2.4-4.8c-0.8-1.7-1.1-4.3,2.1-6.3L36,9.9
			c0.4-0.2,0.9-0.1,1.1,0.3c2.1,3.2,6,9.8,9,17.4c0.1,0.2,0.1,0.4,0,0.6c-0.1,0.2-0.3,0.4-0.5,0.4l-11.1,4.1v23.9
			c5.9,0.3,8.9,1.2,8.9,2.7v1C43.4,62.7,35,63,31.3,63z M20.8,60.1c0.7,0.4,4,1.2,10.5,1.2c6.5,0,9.8-0.8,10.5-1.2v-0.6
			c-0.5-0.4-3-1.1-8.1-1.3c-0.4,0-0.8-0.4-0.8-0.8V32.2c0-0.3,0.2-0.6,0.5-0.8l10.9-4c-2.6-6.7-6-12.4-8.1-15.7l-30.7,19
			c-1.8,1.2-2.3,2.5-1.5,4.2c0.9,2,1.4,3,2.4,4.7c0.8,1.5,2.1,2,3.9,1.2c1.1-0.4,9-3.7,17.2-7c0.3-0.1,0.5-0.1,0.8,0.1
			c0.2,0.2,0.4,0.4,0.4,0.7v22.9c0,0.4-0.3,0.8-0.8,0.8c-4.3,0.2-6.5,0.8-7.1,1.2C20.8,59.8,20.8,60,20.8,60.1z M20.8,60.4
			L20.8,60.4C20.8,60.4,20.8,60.4,20.8,60.4z M41.9,59.7L41.9,59.7L41.9,59.7z M20.8,59.5C20.8,59.5,20.8,59.5,20.8,59.5
			C20.8,59.5,20.8,59.5,20.8,59.5z"/>
	</g>
	<g>
		<g>
			<path class="st1" d="M49,29.4c-1.2,0-2.5-0.2-3.7-0.5c-0.3-0.1-0.5-0.3-0.5-0.5c-3-7.8-7-14.4-9.1-17.7c-0.1-0.2-0.2-0.5-0.1-0.7
				c1.2-3.5,3.5-6.4,6.6-8.1l0.7-0.3C44.2,1.2,45.4,1,47.2,1C55.3,1,62,7.6,62,15.8c0,4.4-2.2,8.8-5.9,11.7l-0.5,0.3c0,0,0,0,0,0
				C53.5,28.9,51.4,29.4,49,29.4z M46.1,27.4c1,0.2,1.9,0.3,2.9,0.3c2.2,0,4-0.4,5.7-1.4l0.4-0.3c3.2-2.5,5.2-6.4,5.2-10.4
				c0-7.2-5.9-13.1-13.2-13.1c-1.3,0-2.4,0.1-3.7,0.5l-0.6,0.3c-2.5,1.4-4.6,3.8-5.6,6.8C39.4,13.5,43.2,19.9,46.1,27.4z M55.1,27.1
				L55.1,27.1L55.1,27.1z"/>
		</g>
	</g>
	<g>
		<path class="st1" d="M55.2,27.8c-0.4,0-0.7-0.3-0.8-0.7c-2.4-14.6-10-22-12.3-23.8C41.8,3,41.7,2.5,42,2.1
			c0.3-0.3,0.8-0.4,1.2-0.1c2.4,2,10.4,9.6,12.9,24.8c0.1,0.4-0.2,0.9-0.7,0.9C55.3,27.8,55.3,27.8,55.2,27.8z"/>
	</g>
</g>
</svg>
