<?xml version="1.0" encoding="utf-8"?>
<!-- Generator: Adobe Illustrator 19.2.1, SVG Export Plug-In . SVG Version: 6.00 Build 0)  -->
<svg version="1.1" id="Layer_1" xmlns="http://www.w3.org/2000/svg" xmlns:xlink="http://www.w3.org/1999/xlink" x="0px" y="0px"
	 viewBox="0 0 64 64" style="enable-background:new 0 0 64 64;" xml:space="preserve">
<metadata><?xpacket begin="﻿" id="W5M0MpCehiHzreSzNTczkc9d"?>
<x:xmpmeta xmlns:x="adobe:ns:meta/" x:xmptk="Adobe XMP Core 5.6-c111 79.158366, 2015/09/25-01:12:00        ">
   <rdf:RDF xmlns:rdf="http://www.w3.org/1999/02/22-rdf-syntax-ns#">
      <rdf:Description rdf:about=""/>
   </rdf:RDF>
</x:xmpmeta>
                                                                                                    
                                                                                                    
                                                                                                    
                                                                                                    
                                                                                                    
                                                                                                    
                                                                                                    
                                                                                                    
                                                                                                    
                                                                                                    
                                                                                                    
                                                                                                    
                                                                                                    
                                                                                                    
                                                                                                    
                                                                                                    
                                                                                                    
                                                                                                    
                                                                                                    
                                                                                                    
                           
<?xpacket end="w"?></metadata>
<style type="text/css">
	.st0{fill:none;}
	.st1{fill:#5B554D;}
</style>
<rect class="st0" width="64" height="64"/>
<g>
	<g>
		<path class="st1" d="M35.1,63c-1.3,0-12.3-0.1-12.3-3.3c0-2.4,6.6-3,9.4-3.2c0.4,0,0.8,0.3,0.8,0.7c0,0.4-0.3,0.8-0.7,0.8
			c-5.2,0.3-7.5,1.2-7.9,1.7c0.6,0.7,4.4,1.7,10.8,1.7c6.4,0,10.3-1.1,10.8-1.7c-0.4-0.5-3.2-1.5-8.5-1.7c-0.4,0-0.7-0.4-0.7-0.8
			c0-0.4,0.4-0.7,0.8-0.7c3,0.1,10,0.7,10,3.2C47.4,62.9,36.3,63,35.1,63z"/>
	</g>
	<g>
		<path class="st1" d="M34.7,60c-2.1,0-3-0.4-3-1.2V34.1c0-0.4,0.3-0.8,0.8-0.8s0.8,0.3,0.8,0.8v24.3c0.7,0.2,2.3,0.2,2.9,0V30.3
			c0-0.4,0.3-0.8,0.8-0.8s0.8,0.3,0.8,0.8v28.5C37.6,59.6,36.7,60,34.7,60z"/>
	</g>
	<g>
		<path class="st1" d="M21.4,43c-0.8,0-1.7-0.3-2.4-1c-1.1-1.1-1.8-1.7-2.9-2.9c-1-1.1-1.9-2.9,0-5.2c1-1.3,11-12.7,16.4-18.8
			l2.2-2.5c0.3-0.3,0.8-0.3,1.1-0.1c0.3,0.3,0.3,0.8,0.1,1.1l-2.2,2.5c-5,5.7-15.3,17.5-16.4,18.8c-1,1.2-1,2.2-0.1,3.2
			c1.1,1.2,1.7,1.8,2.8,2.8c0.9,0.9,1.9,0.8,2.9,0l3.2-2.8c5.1-4.4,14.8-12.7,18.5-15.7c0.3-0.3,0.8-0.2,1.1,0.1
			c0.3,0.3,0.2,0.8-0.1,1.1C42,26.6,32.3,34.8,27.1,39.2L23.9,42C23.1,42.7,22.3,43,21.4,43z"/>
	</g>
	<g>
		<path class="st1" d="M7.6,58.6c-0.4,0-0.8-0.3-0.8-0.8c0-0.4,0.3-0.8,0.8-0.8l1.6,0c1.7,0,4,0,6.8,0c1,0,1.8-0.2,2.3-0.7
			c0.4-0.4,0.6-0.8,0.6-1.3c0-0.7-0.4-1.4-1-2.1c-0.4-0.4-0.7-0.7-1-1c-0.5-0.5-1-1-1.8-1.9c-0.7-0.8-2-2.5-2-4.7
			c0-1.5,0.6-3,1.8-4.3l0.5-0.6c0.5-0.5,1-1.1,1.6-1.7c0.3-0.3,0.8-0.3,1.1,0c0.3,0.3,0.3,0.8,0,1.1c-0.6,0.6-1.1,1.1-1.6,1.7
			L16,42.2c-0.9,1-1.4,2.1-1.4,3.2c0,1.7,1,3,1.6,3.6c0.8,0.9,1.3,1.4,1.8,1.9c0.3,0.3,0.6,0.6,1,1c1.2,1.2,1.4,2.4,1.4,3.1
			c0,1-0.4,1.8-1.2,2.4c-0.6,0.5-1.6,1-3.2,1c-3,0-5.2,0-6.9,0L7.6,58.6C7.6,58.6,7.6,58.6,7.6,58.6z"/>
	</g>
	<g>
		<path class="st1" d="M46,23.3c-6.1,0-11.1-5-11.1-11.1S39.9,1,46,1s11.1,5,11.1,11.1S52.2,23.3,46,23.3z M46,2.5
			c-5.3,0-9.6,4.3-9.6,9.6s4.3,9.6,9.6,9.6s9.6-4.3,9.6-9.6S51.3,2.5,46,2.5z"/>
	</g>
	<g>
		<path class="st1" d="M53.8,19.4C53.7,19.4,53.7,19.4,53.8,19.4c-2.2-0.2-6.8-3.6-9.2-5.9C42.7,11.6,40.3,9,38.4,5
			c-0.2-0.4,0-0.8,0.4-1c0.4-0.2,0.8,0,1,0.4c1.8,3.7,4.1,6.3,5.9,8c2.6,2.6,6.8,5.4,8.2,5.5c0.4,0,0.7,0.4,0.7,0.8
			C54.5,19.1,54.1,19.4,53.8,19.4z"/>
	</g>
</g>
</svg>
