<?xml version="1.0" encoding="utf-8"?>
<!-- Generator: Adobe Illustrator 19.2.1, SVG Export Plug-In . SVG Version: 6.00 Build 0)  -->
<svg version="1.1" id="Layer_1" xmlns="http://www.w3.org/2000/svg" xmlns:xlink="http://www.w3.org/1999/xlink" x="0px" y="0px"
	 viewBox="0 0 64 64" style="enable-background:new 0 0 64 64;" xml:space="preserve">
<metadata><?xpacket begin="﻿" id="W5M0MpCehiHzreSzNTczkc9d"?>
<x:xmpmeta xmlns:x="adobe:ns:meta/" x:xmptk="Adobe XMP Core 5.6-c111 79.158366, 2015/09/25-01:12:00        ">
   <rdf:RDF xmlns:rdf="http://www.w3.org/1999/02/22-rdf-syntax-ns#">
      <rdf:Description rdf:about=""/>
   </rdf:RDF>
</x:xmpmeta>
                                                                                                    
                                                                                                    
                                                                                                    
                                                                                                    
                                                                                                    
                                                                                                    
                                                                                                    
                                                                                                    
                                                                                                    
                                                                                                    
                                                                                                    
                                                                                                    
                                                                                                    
                                                                                                    
                                                                                                    
                                                                                                    
                                                                                                    
                                                                                                    
                                                                                                    
                                                                                                    
                           
<?xpacket end="w"?></metadata>
<style type="text/css">
	.st0{fill:none;}
	.st1{fill:#5B554D;}
</style>
<rect class="st0" width="64" height="64"/>
<g>
	<g>
		<g>
			<path class="st1" d="M45.9,17.3H3.1c-1.2,0-2.1-1-2.1-2.1V9.1C1,7.9,2,7,3.1,7h42.8C47.1,7,48,8,48,9.1v6.1
				C48.1,16.4,47.1,17.3,45.9,17.3z M3.1,8.8C3,8.8,2.8,8.9,2.8,9.1v6.1c0,0.2,0.1,0.3,0.3,0.3h42.8c0.2,0,0.3-0.1,0.3-0.3V9.1
				c0-0.2-0.1-0.3-0.3-0.3H3.1z"/>
		</g>
		<g>
			<path class="st1" d="M7.1,17.2c-0.5,0-0.9-0.4-0.9-0.9V7.9C6.2,7.4,6.6,7,7.1,7S8,7.4,8,7.9v8.4C8,16.8,7.6,17.2,7.1,17.2z"/>
		</g>
		<g>
			<path class="st1" d="M12.9,17.2c-0.5,0-0.9-0.4-0.9-0.9V7.9C12,7.4,12.4,7,12.9,7s0.9,0.4,0.9,0.9v8.4
				C13.8,16.8,13.4,17.2,12.9,17.2z"/>
		</g>
		<g>
			<path class="st1" d="M18.7,17.2c-0.5,0-0.9-0.4-0.9-0.9V7.9c0-0.5,0.4-0.9,0.9-0.9s0.9,0.4,0.9,0.9v8.4
				C19.6,16.8,19.2,17.2,18.7,17.2z"/>
		</g>
		<g>
			<path class="st1" d="M24.5,17.2c-0.5,0-0.9-0.4-0.9-0.9V7.9C23.6,7.4,24,7,24.5,7s0.9,0.4,0.9,0.9v8.4
				C25.4,16.8,25,17.2,24.5,17.2z"/>
		</g>
		<g>
			<path class="st1" d="M30.3,17.2c-0.5,0-0.9-0.4-0.9-0.9V7.9c0-0.5,0.4-0.9,0.9-0.9s0.9,0.4,0.9,0.9v8.4
				C31.3,16.8,30.8,17.2,30.3,17.2z"/>
		</g>
		<g>
			<path class="st1" d="M36.1,17.2c-0.5,0-0.9-0.4-0.9-0.9V7.9c0-0.5,0.4-0.9,0.9-0.9S37,7.4,37,7.9v8.4
				C37.1,16.8,36.7,17.2,36.1,17.2z"/>
		</g>
		<g>
			<path class="st1" d="M42,17.2c-0.5,0-0.9-0.4-0.9-0.9V7.9C41,7.4,41.4,7,42,7c0.5,0,0.9,0.4,0.9,0.9v8.4
				C42.9,16.8,42.5,17.2,42,17.2z"/>
		</g>
	</g>
	<g>
		<g>
			<path class="st1" d="M35.3,25.8H6.1c-1.2,0-2.1-1-2.1-2.1v-6.1c0-1.2,1-2.1,2.1-2.1h42.8c1.2,0,2.1,1,2.1,2.1v5.1
				c0,0.3-0.1,0.6-0.4,0.7c-0.2,0.2-0.5,0.2-0.8,0.1c-4.7-1.5-10-0.7-14,2.1C35.7,25.8,35.5,25.8,35.3,25.8z M6.1,17.3
				c-0.2,0-0.3,0.1-0.3,0.3v6.1C5.8,23.9,6,24,6.1,24H35c3-2,6.4-3,10-3c1.4,0,2.8,0.2,4.2,0.5v-3.9c0-0.2-0.1-0.3-0.3-0.3
				C48.9,17.3,6.1,17.3,6.1,17.3z"/>
		</g>
		<g>
			<path class="st1" d="M10.1,25.8c-0.5,0-0.9-0.4-0.9-0.9v-8.4c0-0.5,0.4-0.9,0.9-0.9S11,16,11,16.5v8.4
				C11,25.4,10.6,25.8,10.1,25.8z"/>
		</g>
		<g>
			<path class="st1" d="M15.9,25.8c-0.5,0-0.9-0.4-0.9-0.9v-8.4c0-0.5,0.4-0.9,0.9-0.9s0.9,0.4,0.9,0.9v8.4
				C16.8,25.4,16.4,25.8,15.9,25.8z"/>
		</g>
		<g>
			<path class="st1" d="M21.7,25.8c-0.5,0-0.9-0.4-0.9-0.9v-8.4c0-0.5,0.4-0.9,0.9-0.9s0.9,0.4,0.9,0.9v8.4
				C22.6,25.4,22.2,25.8,21.7,25.8z"/>
		</g>
		<g>
			<path class="st1" d="M27.5,25.8c-0.5,0-0.9-0.4-0.9-0.9v-8.4c0-0.5,0.4-0.9,0.9-0.9s0.9,0.4,0.9,0.9v8.4
				C28.4,25.4,28,25.8,27.5,25.8z"/>
		</g>
		<g>
			<path class="st1" d="M33.3,25.8c-0.5,0-0.9-0.4-0.9-0.9v-8.4c0-0.5,0.4-0.9,0.9-0.9s0.9,0.4,0.9,0.9v8.4
				C34.3,25.4,33.8,25.8,33.3,25.8z"/>
		</g>
		<g>
			<path class="st1" d="M39.1,23.6c-0.5,0-0.9-0.4-0.9-0.9v-6.2c0-0.5,0.4-0.9,0.9-0.9S40,16,40,16.5v6.2
				C40.1,23.1,39.6,23.6,39.1,23.6z"/>
		</g>
		<g>
			<path class="st1" d="M44.9,22.8c-0.5,0-0.9-0.4-0.9-0.9v-5.5c0-0.5,0.4-0.9,0.9-0.9s0.9,0.4,0.9,0.9v5.5
				C45.9,22.4,45.5,22.8,44.9,22.8z"/>
		</g>
	</g>
	<g>
		<g>
			<path class="st1" d="M28.8,34.4H3.1c-1.2,0-2.1-1-2.1-2.1v-6.1C1,25,2,24,3.1,24h32.2c0.4,0,0.8,0.3,0.9,0.6c0.1,0.4,0,0.8-0.4,1
				c-2.8,1.9-5,4.8-6.1,8.1C29.6,34.1,29.2,34.4,28.8,34.4z M3.1,25.8c-0.2,0-0.3,0.1-0.3,0.3v6.1c0,0.2,0.1,0.3,0.3,0.3h25
				c1-2.5,2.5-4.8,4.5-6.7C32.6,25.8,3.1,25.8,3.1,25.8z"/>
		</g>
		<g>
			<path class="st1" d="M45,57.1c-9.9,0-18-8.1-18-18s8.1-18,18-18s18,8.1,18,18S54.9,57.1,45,57.1z M45,22.8
				c-8.9,0-16.2,7.3-16.2,16.2S36.1,55.2,45,55.2S61.2,47.9,61.2,39S53.9,22.8,45,22.8z"/>
		</g>
		<g>
			<path class="st1" d="M7.1,34.3c-0.5,0-0.9-0.4-0.9-0.9V25c0-0.5,0.4-0.9,0.9-0.9S8,24.4,8,24.9v8.4C8,33.9,7.6,34.3,7.1,34.3z"/>
		</g>
		<g>
			<path class="st1" d="M12.9,34.3c-0.5,0-0.9-0.4-0.9-0.9V25c0-0.5,0.4-0.9,0.9-0.9s0.9,0.4,0.9,0.9v8.4
				C13.8,33.9,13.4,34.3,12.9,34.3z"/>
		</g>
		<g>
			<path class="st1" d="M18.7,34.3c-0.5,0-0.9-0.4-0.9-0.9V25c0-0.5,0.4-0.9,0.9-0.9s0.9,0.4,0.9,0.9v8.4
				C19.6,33.9,19.2,34.3,18.7,34.3z"/>
		</g>
		<g>
			<path class="st1" d="M24.5,34.3c-0.5,0-0.9-0.4-0.9-0.9V25c0-0.5,0.4-0.9,0.9-0.9s0.9,0.4,0.9,0.9v8.4
				C25.4,33.9,25,34.3,24.5,34.3z"/>
		</g>
	</g>
	<g>
		<g>
			<path class="st1" d="M28.1,42.9h-22c-1.2,0-2.1-1-2.1-2.1v-6.1c0-1.2,1-2.1,2.1-2.1h22.7c0.3,0,0.6,0.1,0.8,0.4
				c0.2,0.2,0.2,0.6,0.1,0.8c-0.6,1.7-0.9,3.5-0.9,5.3c0,0.9,0.1,1.8,0.3,2.8c0,0.3,0,0.5-0.2,0.8C28.7,42.8,28.4,42.9,28.1,42.9z
				 M6.1,34.4c-0.2,0-0.3,0.1-0.3,0.3v6.1C5.8,40.9,6,41,6.1,41H27c-0.1-0.7-0.1-1.4-0.1-2c0-1.6,0.2-3.1,0.6-4.7H6.1V34.4z"/>
		</g>
		<g>
			<path class="st1" d="M10.1,42.8c-0.5,0-0.9-0.4-0.9-0.9v-8.4c0-0.5,0.4-0.9,0.9-0.9S11,33,11,33.5v8.4
				C11,42.4,10.6,42.8,10.1,42.8z"/>
		</g>
		<g>
			<path class="st1" d="M15.9,42.8c-0.5,0-0.9-0.4-0.9-0.9v-8.4c0-0.5,0.4-0.9,0.9-0.9s0.9,0.4,0.9,0.9v8.4
				C16.8,42.4,16.4,42.8,15.9,42.8z"/>
		</g>
		<g>
			<path class="st1" d="M21.7,42.8c-0.5,0-0.9-0.4-0.9-0.9v-8.4c0-0.5,0.4-0.9,0.9-0.9s0.9,0.4,0.9,0.9v8.4
				C22.6,42.4,22.2,42.8,21.7,42.8z"/>
		</g>
		<g>
			<path class="st1" d="M27.5,42.8c-0.5,0-0.9-0.4-0.9-0.9v-8.4c0-0.5,0.4-0.9,0.9-0.9s0.9,0.4,0.9,0.9v8.4
				C28.4,42.4,28,42.8,27.5,42.8z"/>
		</g>
	</g>
	<g>
		<g>
			<path class="st1" d="M32.2,51.3H3.1c-1.2,0-2.1-1-2.1-2.1v-6.1C1,41.9,2,41,3.1,41h25c0.5,0,0.8,0.3,0.9,0.8
				c0.5,3,1.9,5.8,3.9,8.1c0.2,0.3,0.3,0.7,0.2,1C32.9,51.1,32.6,51.3,32.2,51.3z M3.1,42.8c-0.2,0-0.3,0.1-0.3,0.3v6.1
				c0,0.2,0.1,0.3,0.3,0.3h27.2c-1.4-2-2.4-4.3-3-6.7C27.3,42.8,3.1,42.8,3.1,42.8z"/>
		</g>
		<g>
			<path class="st1" d="M7.1,51.3c-0.5,0-0.9-0.4-0.9-0.9V42c0-0.5,0.4-0.9,0.9-0.9S8,41.4,8,41.9v8.4C8,50.9,7.6,51.3,7.1,51.3z"/>
		</g>
		<g>
			<path class="st1" d="M12.9,51.3c-0.5,0-0.9-0.4-0.9-0.9V42c0-0.5,0.4-0.9,0.9-0.9s0.9,0.4,0.9,0.9v8.4
				C13.8,50.9,13.4,51.3,12.9,51.3z"/>
		</g>
		<g>
			<path class="st1" d="M18.7,51.3c-0.5,0-0.9-0.4-0.9-0.9V42c0-0.5,0.4-0.9,0.9-0.9s0.9,0.4,0.9,0.9v8.4
				C19.6,50.9,19.2,51.3,18.7,51.3z"/>
		</g>
		<g>
			<path class="st1" d="M24.5,51.3c-0.5,0-0.9-0.4-0.9-0.9V42c0-0.5,0.4-0.9,0.9-0.9s0.9,0.4,0.9,0.9v8.4
				C25.4,50.9,25,51.3,24.5,51.3z"/>
		</g>
	</g>
	<g>
		<g>
			<path class="st1" d="M45,57.1c-9.9,0-18-8.1-18-18s8.1-18,18-18s18,8.1,18,18S54.9,57.1,45,57.1z M45,22.8
				c-8.9,0-16.2,7.3-16.2,16.2S36.1,55.2,45,55.2S61.2,47.9,61.2,39S53.9,22.8,45,22.8z"/>
		</g>
		<g>
			<g>
				<path class="st1" d="M45,52.2c-7.3,0-13.2-5.9-13.2-13.2S37.7,25.9,45,25.9s13.2,5.9,13.2,13.2S52.2,52.2,45,52.2z M45,27.7
					c-6.2,0-11.3,5.1-11.3,11.3s5,11.3,11.3,11.3c6.2,0,11.3-5.1,11.3-11.3S51.2,27.7,45,27.7z"/>
			</g>
		</g>
		<g>
			<path class="st1" d="M48,42.1c0,1.1-0.3,1.9-0.9,2.5c-0.4,0.3-0.8,0.6-1.4,0.7v0.9h-1.6v-0.9c-0.7-0.2-1.3-0.6-1.7-1.3
				c-0.3-0.6-0.5-1.3-0.6-2.1l1.8-0.1c0.1,0.7,0.3,1.2,0.6,1.6c0.2,0.2,0.5,0.4,0.8,0.3c0.4,0,0.7-0.2,1-0.6
				c0.1-0.2,0.2-0.5,0.2-0.8c0-0.5-0.2-1-0.7-1.5c-0.4-0.3-0.9-0.9-1.7-1.6c-0.6-0.5-1-1-1.2-1.5c-0.3-0.6-0.5-1.2-0.5-1.8
				s0.2-1.2,0.5-1.7c0.4-0.6,0.9-1.1,1.6-1.2v-0.8h1.6V33c0.5,0.1,0.9,0.3,1.2,0.6c0.6,0.5,0.9,1.2,1,2.1L46.2,36
				c-0.1-0.5-0.2-0.9-0.4-1.2c-0.2-0.2-0.4-0.3-0.7-0.3s-0.6,0.2-0.8,0.5c-0.2,0-0.3,0.3-0.3,0.7c0,0.6,0.2,1.1,0.7,1.7
				c0.2,0.2,0.4,0.5,0.8,0.8c0.4,0.4,0.7,0.6,0.9,0.8c0.5,0.5,0.8,0.9,1.1,1.4C47.8,41,48,41.5,48,42.1z"/>
		</g>
	</g>
</g>
</svg>
