<?xml version="1.0" encoding="utf-8"?>
<!-- Generator: Adobe Illustrator 19.2.1, SVG Export Plug-In . SVG Version: 6.00 Build 0)  -->
<svg version="1.1" id="Layer_1" xmlns="http://www.w3.org/2000/svg" xmlns:xlink="http://www.w3.org/1999/xlink" x="0px" y="0px"
	 viewBox="0 0 64 64" style="enable-background:new 0 0 64 64;" xml:space="preserve">
<metadata><?xpacket begin="﻿" id="W5M0MpCehiHzreSzNTczkc9d"?>
<x:xmpmeta xmlns:x="adobe:ns:meta/" x:xmptk="Adobe XMP Core 5.6-c111 79.158366, 2015/09/25-01:12:00        ">
   <rdf:RDF xmlns:rdf="http://www.w3.org/1999/02/22-rdf-syntax-ns#">
      <rdf:Description rdf:about=""/>
   </rdf:RDF>
</x:xmpmeta>
                                                                                                    
                                                                                                    
                                                                                                    
                                                                                                    
                                                                                                    
                                                                                                    
                                                                                                    
                                                                                                    
                                                                                                    
                                                                                                    
                                                                                                    
                                                                                                    
                                                                                                    
                                                                                                    
                                                                                                    
                                                                                                    
                                                                                                    
                                                                                                    
                                                                                                    
                                                                                                    
                           
<?xpacket end="w"?></metadata>
<style type="text/css">
	.st0{fill:none;}
	.st1{fill:#5B554D;}
</style>
<rect class="st0" width="64" height="64"/>
<g>
	<g>
		<path class="st1" d="M11.2,49.7c-4.6,0-8.4-3.8-8.4-8.4S6.6,33,11.2,33s8.4,3.8,8.4,8.4S15.8,49.7,11.2,49.7z M11.2,34
			c-4,0-7.3,3.3-7.3,7.3s3.3,7.3,7.3,7.3s7.3-3.3,7.3-7.3S15.3,34,11.2,34z M11.1,45.1c-2,0-3.7-1.6-3.7-3.7c0-2,1.6-3.7,3.7-3.7
			c2,0,3.7,1.6,3.7,3.7C14.8,43.4,13.2,45.1,11.1,45.1z M11.1,38.8c-1.4,0-2.6,1.2-2.6,2.6c0,1.4,1.2,2.6,2.6,2.6s2.6-1.2,2.6-2.6
			C13.8,40,12.6,38.8,11.1,38.8z"/>
	</g>
	<g>
		<path class="st1" d="M28.5,42.6c-3.7,0-9.1-0.4-9.1-0.5c-0.3,0-0.5-0.3-0.5-0.6s0.3-0.5,0.6-0.5c0.1,0,5.3,0.4,9,0.4
			c4.1,0,14.3-0.1,15.2-0.3c0.2-0.1,0.5,0,0.6,0.2s0.1,0.6-0.2,0.7C43.5,42.5,28.7,42.6,28.5,42.6z"/>
	</g>
	<g>
		<path class="st1" d="M52.8,42.3c-0.2,0-0.5-0.2-0.5-0.4c0,0-0.6-4-2-7.3c-0.4-1-0.9-1.9-1.4-2.6c-0.5-0.7-1.1-1.3-1.6-1.6
			c-0.4,0-1.8,0-3.1,0c-0.3,0-0.5-0.2-0.5-0.4c-0.5-3.6-3.6-7.9-5.1-9.8c2.6,7.9,2.8,13.5,0.6,17c-1.5,2.4-4,3.8-7.8,4.2
			c-4.5,0.5-7.9-0.2-9.4-2c-0.9-1.1-1.1-2.5-0.7-4.1c1.3-4.6,6-6.7,6.2-6.8c0.3-0.1,0.6,0,0.7,0.3s0,0.6-0.3,0.7
			c0,0-4.4,1.9-5.6,6.1c-0.4,1.3-0.2,2.4,0.5,3.2c1.3,1.5,4.4,2.1,8.5,1.7c3.4-0.4,5.7-1.6,7-3.7C40.5,33.1,40,27,37,18.6
			c-0.1-0.2,0-0.4,0.1-0.6c0.2-0.1,0.4-0.2,0.6-0.1l0.7,0.4c0.1,0,0.1,0.1,0.2,0.1c0.2,0.2,5.1,5.9,6,10.8c2.9-0.1,3,0,3.1,0.1
			c0.7,0.4,1.4,1.1,2.1,2c0.5,0.8,1,1.7,1.5,2.8c1.5,3.5,2,7.4,2.1,7.6C53.3,42,53.1,42.2,52.8,42.3L52.8,42.3z"/>
	</g>
	<g>
		<path class="st1" d="M13.1,32.3c-0.2,0-0.3-0.1-0.4-0.2c-0.1-0.2-0.1-0.6,0.2-0.7l5.2-3.2c0.2-0.1,0.6-0.1,0.7,0.2
			c0.1,0.2,0.1,0.6-0.2,0.7l-5.2,3.2C13.3,32.3,13.2,32.3,13.1,32.3z"/>
	</g>
	<g>
		<path class="st1" d="M40.7,20L40.7,20l-3.4-0.9c-0.1,0-0.2-0.1-0.3-0.2s-0.6-0.7-0.6-1.8c0-1,0.5-1.6,0.5-1.7
			c0.1-0.1,0.2-0.2,0.3-0.2c0,0,1.7-0.3,3.4-0.9c0.3-0.1,0.6,0,0.7,0.3c0.1,0.3,0,0.6-0.3,0.7c-1.4,0.5-2.8,0.8-3.4,0.9
			c-0.1,0.2-0.2,0.5-0.2,0.9c0,0.5,0.2,0.8,0.3,1l3.1,0.8c0.3,0.1,0.4,0.4,0.4,0.6C41.1,19.8,40.9,20,40.7,20z"/>
	</g>
	<g>
		<path class="st1" d="M28,29.1H13.9c-0.5,0-0.9-0.4-0.9-1v-2.4c0-0.5,0.4-1,0.9-1H28c0.5,0,0.9,0.4,0.9,1v2.4
			C28.9,28.7,28.5,29.1,28,29.1z M13.9,28.1h14v-2.2h-14V28.1z"/>
	</g>
	<g>
		<path class="st1" d="M40.9,20L40.9,20c-0.6,0-1.1-0.4-1.5-1c-0.3-0.5-0.4-1.2-0.4-1.9c0-1.6,0.9-2.8,1.9-2.8c0.6,0,1.1,0.4,1.5,1
			c0.3,0.5,0.4,1.2,0.4,1.9C42.8,18.8,42,20,40.9,20z M41,15.3c-0.4,0-0.9,0.7-0.9,1.8c0,0.5,0.1,1,0.3,1.4c0.2,0.3,0.4,0.5,0.6,0.5
			v0.5V19c0.4,0,0.9-0.7,0.9-1.8c0-0.5-0.1-1-0.3-1.4C41.4,15.6,41.2,15.3,41,15.3z"/>
	</g>
	<g>
		<path class="st1" d="M24.4,31.3c-0.1,0-0.2,0-0.2-0.1c-0.2-0.1-1.4-0.5-7.5-1.2c-0.3,0-0.5-0.3-0.5-0.6c0-0.3,0.3-0.5,0.6-0.5
			c4.5,0.5,7.2,0.9,7.9,1.3c0.2,0.1,0.3,0.4,0.2,0.7C24.8,31.2,24.6,31.3,24.4,31.3z"/>
	</g>
	<g>
		<path class="st1" d="M20.9,41.8c-0.3,0-0.5-0.2-0.5-0.5c0-5.1-4.1-9.2-9.2-9.2S2,36.2,2,41.3c0,0.3-0.2,0.5-0.5,0.5S1,41.6,1,41.3
			c0-5.6,4.6-10.2,10.2-10.2s10.2,4.6,10.2,10.2C21.4,41.6,21.2,41.8,20.9,41.8z"/>
	</g>
	<g>
		<path class="st1" d="M3.4,42.2H1.5C1.2,42.2,1,42,1,41.7s0.2-0.5,0.5-0.5h1.9c0.3,0,0.5,0.2,0.5,0.5S3.7,42.2,3.4,42.2z"/>
	</g>
	<g>
		<path class="st1" d="M52.8,49.7c-4.6,0-8.4-3.8-8.4-8.4s3.8-8.4,8.4-8.4s8.4,3.8,8.4,8.4S57.4,49.7,52.8,49.7z M52.8,34
			c-4,0-7.3,3.3-7.3,7.3s3.3,7.3,7.3,7.3s7.3-3.3,7.3-7.3S56.8,34,52.8,34z M52.7,45.1c-2,0-3.7-1.6-3.7-3.7c0-2,1.6-3.7,3.7-3.7
			c2,0,3.7,1.6,3.7,3.7C56.4,43.4,54.7,45.1,52.7,45.1z M52.7,38.8c-1.4,0-2.6,1.2-2.6,2.6c0,1.4,1.2,2.6,2.6,2.6
			c1.4,0,2.6-1.2,2.6-2.6S54.2,38.8,52.7,38.8z"/>
	</g>
	<g>
		<path class="st1" d="M62.5,41.8h-1.9c-0.3,0-0.5-0.2-0.5-0.5s0.2-0.5,0.5-0.5H62c-0.3-4.8-4.3-8.7-9.2-8.7c-5.1,0-9.2,4.1-9.2,9.2
			c0,0.3-0.2,0.5-0.5,0.5s-0.5-0.2-0.5-0.5c0-5.6,4.6-10.2,10.2-10.2S63,35.7,63,41.3C63,41.6,62.8,41.8,62.5,41.8z"/>
	</g>
	<g>
		<path class="st1" d="M44.9,42.2H43c-0.3,0-0.5-0.2-0.5-0.5s0.2-0.5,0.5-0.5h1.9c0.3,0,0.5,0.2,0.5,0.5S45.2,42.2,44.9,42.2z"/>
	</g>
</g>
</svg>
