<?xml version="1.0" encoding="utf-8"?>
<!-- Generator: Adobe Illustrator 19.2.1, SVG Export Plug-In . SVG Version: 6.00 Build 0)  -->
<svg version="1.1" id="Layer_1" xmlns="http://www.w3.org/2000/svg" xmlns:xlink="http://www.w3.org/1999/xlink" x="0px" y="0px"
	 viewBox="0 0 64 64" style="enable-background:new 0 0 64 64;" xml:space="preserve">
<metadata><?xpacket begin="﻿" id="W5M0MpCehiHzreSzNTczkc9d"?>
<x:xmpmeta xmlns:x="adobe:ns:meta/" x:xmptk="Adobe XMP Core 5.6-c111 79.158366, 2015/09/25-01:12:00        ">
   <rdf:RDF xmlns:rdf="http://www.w3.org/1999/02/22-rdf-syntax-ns#">
      <rdf:Description rdf:about=""/>
   </rdf:RDF>
</x:xmpmeta>
                                                                                                    
                                                                                                    
                                                                                                    
                                                                                                    
                                                                                                    
                                                                                                    
                                                                                                    
                                                                                                    
                                                                                                    
                                                                                                    
                                                                                                    
                                                                                                    
                                                                                                    
                                                                                                    
                                                                                                    
                                                                                                    
                                                                                                    
                                                                                                    
                                                                                                    
                                                                                                    
                           
<?xpacket end="w"?></metadata>
<style type="text/css">
	.st0{fill:none;}
	.st1{fill:#5B554D;}
</style>
<rect class="st0" width="64" height="64"/>
<g>
	<path class="st1" d="M46.6,42.2C46.6,42.2,46.6,42.2,46.6,42.2c-7.2,0-12-4.4-14.1-6.2c-0.2-0.2-0.4-0.3-0.5-0.5
		c-0.2,0.1-0.4,0.3-0.5,0.5c-2.1,1.9-6.9,6.2-14.1,6.2C5.4,42.2,1.5,31.9,1,28.3c-0.1-0.5-0.2-1.8,0.7-2c0.8-0.2,1.5,0.5,2.2,1.3
		c1,1.1,2.4,2.6,4.5,2.6c1.9,0,3.4-1.5,5.2-3.3c2.4-2.4,5.2-5.1,9.8-5.1c5,0,7.4,3,8.4,4.4c1-1.4,3.4-4.4,8.4-4.4
		c4.6,0,7.4,2.7,9.8,5.1c1.8,1.8,3.3,3.3,5.2,3.3c2.1,0,3.5-1.5,4.5-2.6c0.8-0.8,1.4-1.5,2.2-1.3c0.9,0.2,0.8,1.5,0.7,2
		C62.5,31.9,58.6,42.2,46.6,42.2z M32,33.9c0.4,0,0.7,0.3,1.6,1c1.9,1.7,6.5,5.8,13.1,5.8c0,0,0,0,0,0c6.1,0,9.8-3.1,11.7-5.6
		c2-2.6,2.8-5.4,3-6.8c-0.1,0.1-0.2,0.2-0.3,0.3c-1.1,1.2-2.9,3.1-5.6,3.1c-2.5,0-4.3-1.8-6.3-3.7c-2.3-2.3-4.8-4.7-8.8-4.7
		c-4.5,0-6.5,2.8-7.4,4c-0.4,0.5-0.6,0.8-1.1,0.8c-0.5,0-0.7-0.3-1.1-0.8c-0.9-1.2-2.9-4-7.4-4c-4,0-6.4,2.4-8.8,4.7
		c-1.9,1.9-3.8,3.7-6.3,3.7c-2.8,0-4.5-1.8-5.6-3.1c-0.1-0.1-0.2-0.2-0.3-0.3c0.2,1.4,1,4.1,3,6.8c2,2.6,5.6,5.6,11.8,5.6
		c6.6,0,11.2-4.1,13.1-5.8C31.3,34.1,31.6,33.9,32,33.9z M61.9,27.7L61.9,27.7L61.9,27.7z"/>
</g>
</svg>
