<?xml version="1.0" encoding="utf-8"?>
<!-- Generator: Adobe Illustrator 19.2.1, SVG Export Plug-In . SVG Version: 6.00 Build 0)  -->
<svg version="1.1" id="Layer_1" xmlns="http://www.w3.org/2000/svg" xmlns:xlink="http://www.w3.org/1999/xlink" x="0px" y="0px"
	 viewBox="0 0 64 64" style="enable-background:new 0 0 64 64;" xml:space="preserve">
<metadata><?xpacket begin="﻿" id="W5M0MpCehiHzreSzNTczkc9d"?>
<x:xmpmeta xmlns:x="adobe:ns:meta/" x:xmptk="Adobe XMP Core 5.6-c111 79.158366, 2015/09/25-01:12:00        ">
   <rdf:RDF xmlns:rdf="http://www.w3.org/1999/02/22-rdf-syntax-ns#">
      <rdf:Description rdf:about=""/>
   </rdf:RDF>
</x:xmpmeta>
                                                                                                    
                                                                                                    
                                                                                                    
                                                                                                    
                                                                                                    
                                                                                                    
                                                                                                    
                                                                                                    
                                                                                                    
                                                                                                    
                                                                                                    
                                                                                                    
                                                                                                    
                                                                                                    
                                                                                                    
                                                                                                    
                                                                                                    
                                                                                                    
                                                                                                    
                                                                                                    
                           
<?xpacket end="w"?></metadata>
<style type="text/css">
	.st0{fill:none;}
	.st1{fill:#5B554D;}
</style>
<rect class="st0" width="64" height="64"/>
<g>
	<g>
		<g>
			<path class="st1" d="M52.9,8.4c4.5,0,8.2,3.7,8.2,8.2v30.7c0,4.5-3.7,8.2-8.2,8.2H11.1c-4.5,0-8.2-3.7-8.2-8.2V16.6
				c0-4.5,3.7-8.2,8.2-8.2L52.9,8.4 M52.9,6.6H11.1C5.5,6.6,1,11.1,1,16.6v30.7c0,5.5,4.5,10.1,10.1,10.1H53
				c5.5,0,10.1-4.5,10.1-10.1V16.6C63,11.1,58.5,6.6,52.9,6.6L52.9,6.6z"/>
		</g>
	</g>
	<g>
		<path class="st1" d="M50.4,46.4H13.6c-3.9,0-7-3.2-7-7V18.3c0-3.9,3.2-7,7-7h36.9c3.9,0,7,3.2,7,7v21.1
			C57.5,43.2,54.3,46.4,50.4,46.4z M13.6,13c-2.9,0-5.2,2.3-5.2,5.2v21.1c0,2.9,2.3,5.2,5.2,5.2h36.9c2.9,0,5.2-2.3,5.2-5.2v-21
			c0-2.9-2.3-5.2-5.2-5.2L13.6,13L13.6,13z"/>
	</g>
	<g>
		<path class="st1" d="M43.8,46.4h-3.4c-0.3,0-0.5-0.1-0.7-0.3l-0.3-0.4c-0.1-0.1-0.1-0.2-0.2-0.4L39.1,45l0,0L39,44.9
			c-0.1-0.1-0.2-0.3-0.2-0.5l-0.2-1.5c-0.1,0-0.2-0.1-0.3-0.2l-0.2-0.2c-0.2-0.1-0.4-0.3-0.5-0.5l-0.1-0.1C37.4,42,37.3,42,37.2,42
			L37,42.2c-0.1,0.1-0.2,0.1-0.2,0.1L36,42.5c-0.3,0.1-0.5,0-0.8-0.1l-0.1-0.1c-0.1-0.1-0.1-0.1-0.2-0.2L34.8,42l-1-0.4h-0.1
			l-0.5,0.1c-0.1,0-0.1,0-0.2,0c-0.1,0-0.1,0.1-0.2,0.1L32.2,42c-0.3,0.1-0.6,0-0.8-0.1h-0.2h-0.3V42c0,0.1,0,0.1,0,0.2l0.1,0.1
			l0.1,0.2c0.2,0.2,0.3,0.5,0.2,0.8c-0.1,0.2-0.3,0.6-0.5,0.7l-0.3,0.1c-0.4,0.2-0.8,0.1-1.1-0.2C29.1,44,28.9,44,28.7,44h-0.1
			c-0.1,0-0.3,0.1-0.4,0c-0.2,0-0.3,0-0.5,0h-0.2h-0.1l0,0c-0.3,0-0.6-0.1-0.7-0.4l-0.1-0.2c-0.1,0-0.1-0.1-0.1-0.1
			c-0.2,0.2-0.5,0.2-0.7,0.2l-1.3-0.3l-1,0.1L23,43.5l0,0L22.8,44c-0.1,0.2-0.2,0.3-0.4,0.4L21,45.2c-0.2,0.1-0.4,0.1-0.6,0.1h-0.1
			L20,45.6l0,0c0,0,0,0,0,0.1l-0.1,0.2c-0.2,0.3-0.5,0.5-0.8,0.5h-4.2c-0.2,0-0.4-0.1-0.6-0.2l-0.1-0.1c-0.1-0.1-0.2-0.2-0.3-0.4
			l-0.2-0.4L13.4,45c-0.1-0.1-0.1-0.2-0.2-0.3l-0.4-1.1l-0.6-0.8h-0.8c0,0,0,0-0.1,0l-0.5,0.8c-0.2,0.3-0.6,0.5-1,0.4l-0.6-0.2
			c-0.1,0-0.3-0.1-0.4-0.2l-1-0.9c-0.1-0.1-0.1-0.1-0.2-0.2L7.3,42c-0.1-0.1-0.1-0.2-0.1-0.3l-0.2-1l-0.2-0.2
			c-0.2-0.2-0.3-0.4-0.3-0.6c0-0.2,0-0.3,0-0.5V18.3c0-3.9,3.2-7,7-7h14c0.1,0,0.2,0,0.3,0.1l0,0c0.3,0.1,0.5,0.3,0.6,0.5
			c0.1,0.3,0.1,0.6,0,0.8l0.6-0.5c0.1-0.1,0.3-0.2,0.5-0.2h0.3c0.3,0,0.5,0.1,0.7,0.3s0.3,0.4,0.3,0.7c0,0.1,0,0.3-0.1,0.4l0.1,0.1
			l0.1,0.1c0,0,0,0,0.1-0.1l0.4-0.2c0.1-0.1,0.2-0.1,0.3-0.1l0.6-0.1c0.1-0.1,0.3-0.1,0.4-0.2h0.2c0.3,0,0.6,0.1,0.8,0.4h0.1
			c0.3,0,0.6,0.1,0.8,0.3c0.1,0.1,0.2,0.3,0.3,0.4v0.1l0,0c0.1,0.1,0.3,0.2,0.3,0.3c0.1,0.2,0.1,0.4,0.1,0.6c0.1,0,0.1,0.1,0.2,0.1
			l0.2,0.1c0.1,0.1,0.2,0.1,0.2,0.2l0.2,0.3c0.1,0.2,0.2,0.4,0.1,0.6l0,0l0.1,0.5c0.2,0.1,0.3,0.2,0.4,0.3l0.4,0.6
			c0.1,0.1,0.1,0.2,0.1,0.3l0.1,0.6c0.1,0.1,0.2,0.4,0.2,0.6V20c0,0.3-0.2,0.6-0.4,0.8v0.1c0.1,0,0.2-0.1,0.2-0.1h0.1l0.9-0.7
			c0.1-0.1,0.2-0.1,0.3-0.1h0.1l0.3-0.3c0.1-0.1,0.2-0.2,0.4-0.2l0,0l0.5-0.5l0,0v-0.1c-0.1-0.2-0.1-0.5-0.1-0.7
			c0.1-0.2,0.3-0.4,0.5-0.5l1.1-0.5c0.1,0,0.2-0.1,0.3-0.1h0.4c0,0,0.1,0,0.2,0c0.1,0,0.2,0,0.3,0h0.1l0.1-0.1l0,0
			c-0.1-0.3-0.1-0.7,0-0.9c0-0.1,0.1-0.2,0.2-0.3l0.2-0.2l0.1-0.3c0-0.1,0.1-0.3,0.2-0.4l0.6-0.7c0.1-0.1,0.3-0.2,0.5-0.3l3.3-0.8
			c0,0,0,0,0-0.1c0.1-0.2,0.3-0.4,0.5-0.5l0.2-0.1l0,0v-0.1l0,0v-0.1c0-0.2,0.1-0.5,0.3-0.7s0.4-0.3,0.7-0.3h0.5
			c1.4,0,2.7,0.4,3.9,1.2c0.4,0.3,0.5,0.8,0.3,1.2c-0.1,0.2-0.3,0.4-0.4,0.5c0,0.1-0.1,0.1-0.2,0.2l-0.1,0.1l0,0
			c-0.1,0.1-0.2,0.3-0.3,0.3c-0.1,0.1-0.4,0.2-0.6,0.2c0,0.2-0.1,0.3-0.3,0.4l-0.1,0.1c-0.1,0.1-0.1,0.2-0.2,0.3c0,0-0.1,0-0.1,0.1
			c-0.1,0.1-0.3,0.3-0.4,0.4l-0.2,0.5c0,0.1,0,0.1-0.1,0.2c0.1,0.2,0.2,0.3,0.2,0.5c0.3-0.1,0.7,0,0.9,0.2c0.1,0.1,0.2,0.2,0.2,0.3
			l0.1,0.3c0.1,0.2,0.1,0.4,0,0.6c0,0.1-0.1,0.3-0.2,0.4l-0.2,0.2c-0.1,0.1-0.3,0.2-0.4,0.3l-0.1,0.1c-0.1,0.1-0.3,0.1-0.4,0.2
			c-0.1,0-0.1,0-0.2,0h-0.1l0.3,0c0,0-0.1,0-0.1,0.1v0.1c-0.1,0.1-0.1,0.1-0.2,0.2l-0.5,0.3c0,0-0.1,0-0.1,0.1L49.6,21
			c-0.1,0-0.1,0-0.2,0c-0.1,0.1-0.1,0.1-0.2,0.2l-0.4,0.3v0.1c0,0,0,0,0,0.1c0.1,0.1,0.2,0.4,0.2,0.6v0.5c0,0.1,0,0.3-0.1,0.4v0.1
			c0,0.1,0,0.3-0.1,0.4c0,0.1-0.1,0.1-0.1,0.2V24l-0.5,1v0.1c0.1,0.2,0.1,0.4,0,0.6v0.1c0,0.1,0,0.3-0.1,0.4l0,0c0,0.1,0,0.2,0,0.3
			L47.8,28c0,0.1,0,0.1-0.1,0.2l0.1,0.2c0,0.1,0,0.2,0,0.2v0.1l0,0v0.1c0.1,0.1,0.1,0.1,0.1,0.2l0.1,0c0,0.1,0.1,0.2,0.1,0.3
			c0,0.1,0.1,0.1,0.1,0.2l0.1,0.4c0.1,0.3,0,0.7-0.2,0.9l0,0L48,31c-0.1,0.1-0.1,0.2-0.2,0.3l0,0c0,0.1,0,0.2,0,0.3v0.2
			c0,0.2-0.1,0.4-0.3,0.6l-0.3,0.3c-0.1,0.1-0.3,0.2-0.4,0.2L46.5,33l-0.3,0.2L46,33.3c0,0.3-0.2,0.5-0.4,0.6l-0.4,0.3
			c-0.1,0-0.1,0.1-0.2,0.1l-0.2,0.1l-0.1,0.1l-0.1,0.1l-0.1,0.2c0,0.1,0,0.1,0,0.2v0.2c0,0.1-0.1,0.3-0.2,0.4l-0.1,0.1l-0.1,0.1
			c0,0.1-0.1,0.1-0.1,0.2l-0.1,0.1c-0.1,0.1-0.1,0.1-0.2,0.1l-0.3,0.4c-0.1,0.1-0.2,0.2-0.3,0.2s-0.1,0.1-0.2,0.1c0,0,0,0,0,0.1
			l-0.1,0.1c-0.1,0.1-0.2,0.3-0.3,0.4c0,0.1-0.1,0.1-0.1,0.2L42,39.1v0.2c0,0.1,0,0.1,0,0.2l0.8,1.8l0.7,0.9
			c0.1,0.1,0.2,0.3,0.2,0.4l0.1,0.5l1,1.7c0.1,0.1,0.1,0.2,0.1,0.3v0.2c0,0.3,0,0.5-0.2,0.7C44.4,46.3,44.1,46.4,43.8,46.4z
			 M40.9,44.6h1.4l-0.4-0.7c-0.1-0.1-0.1-0.2-0.1-0.3l-0.1-0.4L41,42.4c-0.1-0.1-0.1-0.1-0.1-0.2l-1-2.1c-0.1-0.2-0.1-0.4-0.1-0.6
			v-0.2c0-0.1,0-0.2,0-0.4l0.5-1.8c0-0.1,0-0.2,0.1-0.3c0-0.1,0.1-0.2,0.1-0.2c0-0.2,0-0.3,0-0.5c0.1-0.3,0.4-0.6,0.7-0.6l0.5-0.1
			L42,35l0,0c0.1-0.1,0.1-0.3,0.3-0.4c0-0.2,0.1-0.4,0.2-0.5l0,0l0.2-0.4c0.1-0.1,0.2-0.3,0.3-0.4l0.1-0.1c0.1-0.2,0.3-0.3,0.4-0.4
			l0.5-0.2l0,0l0.2-0.5c0.1-0.1,0.1-0.2,0.2-0.3l0.6-0.5l0,0c-0.2-0.2-0.3-0.4-0.3-0.7c0-0.2,0.1-0.3,0.1-0.5V30l-0.1-0.5
			c-0.1-0.2,0-0.4,0.1-0.6c0-0.1,0.1-0.1,0.1-0.2c-0.2-0.2-0.3-0.4-0.3-0.6c0-0.1,0-0.3,0.1-0.4v-0.1v-0.1l0.3-0.2
			c0-0.1,0-0.1,0-0.2c-0.1,0-0.2-0.1-0.3-0.1l-0.1-0.1l-0.3-0.1c-0.2-0.1-0.3-0.2-0.5-0.3c-0.1-0.1-0.2-0.3-0.2-0.4
			c0-0.2-0.1-0.4,0-0.6v-0.2c0.1-0.2,0.2-0.4,0.3-0.5s0.3-0.2,0.4-0.2c-0.1-0.3,0-0.7,0.2-0.9l0.3-0.4c0.1-0.3,0.4-0.6,0.8-0.6
			c0.1,0,0.1,0,0.2,0c0,0,0,0,0.1,0c0.3-0.1,0.7-0.1,0.9,0.1l0.1,0.1c0-0.1,0-0.1,0.1-0.2v-0.2c0-0.1,0-0.1,0-0.2c0,0,0,0-0.1-0.1
			s-0.2-0.3-0.2-0.4s-0.1-0.4,0-0.5l0.1-0.2c0-0.1,0.1-0.2,0.1-0.3l0,0l0.1-0.3c0.1-0.1,0.1-0.2,0.2-0.3c0.1-0.2,0.2-0.3,0.4-0.4
			l0.4-0.2c0.1-0.1,0.1-0.2,0.2-0.2l0.1-0.1c0.2-0.1,0.3-0.2,0.5-0.2H49l0.7-0.3c0-0.1,0.1-0.2,0.1-0.3c0-0.1,0.1-0.1,0.1-0.2
			c-0.1-0.1-0.1-0.3-0.1-0.4s0-0.4,0-0.5l0,0c-0.1-0.2-0.2-0.3-0.2-0.5v-0.3c0-0.2,0.1-0.4,0.2-0.5l0.2-0.2l0.1-0.3v-0.1
			c0-0.2,0-0.3,0.1-0.4l0.1-0.2c0.1-0.1,0.1-0.2,0.2-0.3l0.2-0.1c0.1-0.1,0.2-0.1,0.2-0.2c0.1-0.1,0.1-0.1,0.2-0.1h0.1l0,0l0,0l0,0
			v-0.1c0-0.2,0-0.4,0.2-0.6l0.1-0.1c0,0,0-0.1,0.1-0.1c-0.3-0.1-0.6-0.1-0.8-0.1c0,0.2-0.1,0.5-0.3,0.7l0,0c0,0,0,0-0.1,0.1
			c-0.2,0.2-0.4,0.3-0.6,0.3c-0.1,0.3-0.3,0.6-0.7,0.6l-3.7,0.9l-0.3,0.3L45,16.4c0,0.1-0.1,0.2-0.1,0.3l0,0c0,0.1,0,0.2,0,0.3v0.1
			c0.1,0.1,0.1,0.3,0.1,0.4v0.2c0,0.3-0.3,0.6-0.6,0.8l-0.1,0.1l-0.2,0.2c-0.1,0.1-0.2,0.1-0.3,0.2l-0.2,0.1c-0.1,0-0.2,0.1-0.2,0.1
			L43,19.3l0,0l0,0c-0.3,0.2-0.6,0.2-0.9,0H42c0,0.2,0,0.5-0.2,0.7l-0.2,0.2c-0.1,0.1-0.1,0.2-0.2,0.3c0,0-0.1,0.1-0.2,0.2L40.7,21
			c-0.1,0.1-0.2,0.2-0.4,0.2l0,0L40,21.4c-0.1,0.1-0.2,0.2-0.3,0.2l-0.2,0.1l-1,0.8c-0.1,0.1-0.3,0.2-0.4,0.2h-0.2l-0.3,0.1
			c-0.1,0.1-0.3,0.1-0.4,0.1h-0.4c-0.1,0-0.2,0-0.2,0h-0.1c-0.1,0-0.4-0.1-0.5-0.2l0,0h-0.2c-0.3-0.1-0.5-0.3-0.6-0.6
			c-0.1-0.3-0.1-0.6,0.1-0.8l0.2-0.2c0-0.1,0-0.2,0-0.3l0.1-0.3c0-0.1,0-0.1,0.1-0.2v-0.1c0-0.1,0.1-0.4,0.2-0.5l0.1-0.1
			c0,0,0,0,0-0.1s-0.1-0.1-0.1-0.2l0,0l-0.1,0.1c-0.2,0.2-0.5,0.2-0.7,0.1h-0.2c-0.2,0-0.4-0.2-0.5-0.3c-0.2-0.2-0.3-0.6-0.2-0.9
			l0.1-0.4c0-0.1,0.1-0.3,0.2-0.4l0.1-0.1c0,0,0-0.1,0.1-0.1L34.6,17c-0.1-0.1-0.1-0.2-0.1-0.3l0,0c-0.1,0-0.1-0.1-0.2-0.1l0,0l0,0
			c-0.1,0.1-0.2,0.2-0.3,0.3c0,0.3-0.1,0.5-0.3,0.6c-0.1,0.2-0.3,0.3-0.6,0.4c0,0.2,0,0.4-0.1,0.6v0.3l0.3,0.7
			c0.1,0.1,0.1,0.2,0.1,0.4v0.8c0,0.1,0,0.2,0,0.3L33,22.3c-0.1,0.2-0.2,0.3-0.3,0.5L32,23c-0.2,0.1-0.4,0.2-0.6,0.2h-0.2
			c-0.1,0-0.2,0-0.3,0l-0.2-0.1c-0.2-0.1-0.5-0.3-0.6-0.5l-0.4-0.9c0-0.1-0.1-0.2-0.1-0.3v-0.3l-0.2-1.2c0-0.1,0-0.2,0-0.3l0.3-1.1
			c-0.3-0.1-0.5-0.4-0.5-0.8c0-0.1,0-0.4,0.1-0.5l0.2-0.5c0-0.1,0.1-0.2,0.2-0.3l0.1-0.2l0.6-1c-0.1,0-0.2-0.1-0.3-0.2l-0.2-0.2
			C29.5,15,29.2,15,29,14.9c-0.1,0-0.2-0.1-0.3-0.2h-0.1l-0.4,0.1L27.9,15c-0.1,0.1-0.3,0.2-0.4,0.2h-0.3c-0.1,0-0.1,0-0.2,0h-0.2
			c-0.1,0-0.2,0-0.3,0c-0.1,0-0.3-0.1-0.4-0.1s-0.1,0-0.2,0.1l-0.3,0.1c-0.1,0-0.2,0-0.3,0h-0.2c-0.3,0-0.5-0.2-0.7-0.4l-0.1-0.1
			c-0.3-0.4-0.2-0.9,0.1-1.2l0.7-0.7H13.6c-2.9,0-5.2,2.3-5.2,5.2v21.1l0,0l0.2,0.1c0.1,0.1,0.2,0.3,0.3,0.5L9,41.2l0.2,0.3L9.7,42
			l0.4-0.6c0.1-0.2,0.3-0.3,0.5-0.4l0.3-0.1c0.2-0.1,0.4,0,0.5,0l0.2,0.1h1c0.3,0,0.5,0.1,0.7,0.3l1,1.2c0.1,0.1,0.1,0.2,0.2,0.3
			l0.4,1.1l0.3,0.4c0.1,0.1,0.1,0.1,0.1,0.2v0.1h2.9c0.1-0.1,0.2-0.2,0.3-0.2l0.3-0.1l0,0l0.1-0.1c0-0.1,0-0.2,0.1-0.2
			c0.2-0.3,0.5-0.5,0.9-0.5c0.1,0,0.2-0.1,0.4,0c0.2,0,0.4,0,0.6,0l0,0c0,0,0,0,0.1,0l0-0.5v-0.7c0-0.2,0.1-0.4,0.3-0.6
			c0.1-0.1,0.2-0.2,0.3-0.3c0.1-0.1,0.3-0.1,0.5-0.1s0.4,0.1,0.6,0.2c0.1,0,0.2-0.1,0.3-0.1h0.5l0.7-0.1c0.1,0,0.2,0,0.3,0l0.9,0.2
			c0.2-0.2,0.4-0.3,0.6-0.3h0.2c0.1,0,0.3,0,0.4,0.1l0.4,0.2c0.1,0,0.2,0.1,0.3,0.2c0.1,0,0.1,0.1,0.2,0.1c-0.1-0.2-0.1-0.4,0-0.5
			l0.1-0.3c0.1-0.3,0.3-0.5,0.6-0.7l0.3-0.1c0.2-0.1,0.4-0.1,0.6,0l0.4,0.1c0.1-0.1,0.3-0.1,0.5-0.1c0.1-0.1,0.3-0.1,0.5-0.1h0.4
			v-0.2c0.1-0.4,0.5-0.7,0.9-0.7l0,0c0.4,0,0.7,0.3,0.9,0.6c0.2-0.1,0.4-0.2,0.6-0.2c0.1,0,0.3,0.1,0.4,0.1l0.3-0.1
			c0.1,0,0.3,0,0.4,0c0.2,0.1,0.5,0.2,0.6,0.4l0.7,0.3c0.1,0.1,0.2,0.1,0.3,0.2l0,0l0.2-0.1l0.1-0.1l0.1-0.1
			c0.1-0.1,0.3-0.2,0.5-0.2h0.4c0.1,0,0.2,0,0.3,0l0.3,0.1c0.1,0,0.3,0.1,0.4,0.2l0.4,0.3c0.2,0.1,0.4,0.3,0.5,0.5l0.1,0.1l0.3,0.1
			c0.1,0.1,0.3,0.1,0.4,0.3c0.1,0.1,0.3,0.4,0.3,0.6l0.1,1.2l0.1,0.1c0.3,0.2,0.4,0.5,0.4,0.9L40.9,44.6z M31.3,19.8l0.1,0.8
			l0.1-0.2V20L31.3,19.8L31.3,19.8z"/>
	</g>
	<g>
		<g>
			<circle class="st1" cx="32" cy="51.2" r="2.8"/>
		</g>
	</g>
	<g>
		<g>
			<path class="st1" d="M12.8,46.2h-0.2c-0.5,0-0.9-0.4-0.9-0.9s0.4-0.9,0.9-0.9h0.2c0.5,0,0.9,0.4,0.9,0.9S13.3,46.2,12.8,46.2z"/>
		</g>
		<g>
			<path class="st1" d="M12.8,13.2h-0.2c-0.5,0-0.9-0.4-0.9-0.9s0.4-0.9,0.9-0.9h0.2c0.5,0,0.9,0.4,0.9,0.9S13.3,13.2,12.8,13.2z"/>
		</g>
	</g>
</g>
</svg>
