<?xml version="1.0" encoding="utf-8"?>
<!-- Generator: Adobe Illustrator 19.2.1, SVG Export Plug-In . SVG Version: 6.00 Build 0)  -->
<svg version="1.1" id="Layer_1" xmlns="http://www.w3.org/2000/svg" xmlns:xlink="http://www.w3.org/1999/xlink" x="0px" y="0px"
	 viewBox="0 0 64 64" style="enable-background:new 0 0 64 64;" xml:space="preserve">
<metadata><?xpacket begin="﻿" id="W5M0MpCehiHzreSzNTczkc9d"?>
<x:xmpmeta xmlns:x="adobe:ns:meta/" x:xmptk="Adobe XMP Core 5.6-c111 79.158366, 2015/09/25-01:12:00        ">
   <rdf:RDF xmlns:rdf="http://www.w3.org/1999/02/22-rdf-syntax-ns#">
      <rdf:Description rdf:about=""/>
   </rdf:RDF>
</x:xmpmeta>
                                                                                                    
                                                                                                    
                                                                                                    
                                                                                                    
                                                                                                    
                                                                                                    
                                                                                                    
                                                                                                    
                                                                                                    
                                                                                                    
                                                                                                    
                                                                                                    
                                                                                                    
                                                                                                    
                                                                                                    
                                                                                                    
                                                                                                    
                                                                                                    
                                                                                                    
                                                                                                    
                           
<?xpacket end="w"?></metadata>
<style type="text/css">
	.st0{fill:none;}
	.st1{fill:#5B554D;}
</style>
<rect class="st0" width="64" height="64"/>
<g>
	<g>
		<g>
			<path class="st1" d="M56.1,61.6c-3.8,0-7-3.1-7-7c0-3.8,3.1-7,7-7c3.8,0,6.9,3.1,6.9,7S59.9,61.6,56.1,61.6z M56.1,49.4
				c-2.9,0-5.2,2.3-5.2,5.2s2.3,5.2,5.2,5.2s5.2-2.3,5.2-5.2S58.9,49.4,56.1,49.4z"/>
		</g>
		<g>
			<path class="st1" d="M32,61.6c-3.8,0-7-3.1-7-7c0-3.8,3.1-7,7-7c3.8,0,7,3.1,7,7S35.8,61.6,32,61.6z M32,49.4
				c-2.9,0-5.2,2.3-5.2,5.2s2.3,5.2,5.2,5.2s5.2-2.3,5.2-5.2S34.9,49.4,32,49.4z"/>
		</g>
		<g>
			<path class="st1" d="M8,61.6c-3.8,0-7-3.1-7-7c0-3.8,3.1-7,7-7c3.8,0,7,3.1,7,7C14.9,58.5,11.8,61.6,8,61.6z M8,49.4
				c-2.9,0-5.2,2.3-5.2,5.2s2.3,5.2,5.2,5.2s5.2-2.3,5.2-5.2S10.8,49.4,8,49.4z"/>
		</g>
		<g>
			<path class="st1" d="M32,20.4c-5,0-9-4-9-9s4-9,9-9s9,4,9,9S37,20.4,32,20.4z M32,4.1c-4,0-7.3,3.3-7.3,7.3s3.3,7.3,7.3,7.3
				s7.3-3.3,7.3-7.3S36,4.1,32,4.1z"/>
		</g>
	</g>
	<g>
		<g>
			<path class="st1" d="M7.9,44.5c-0.5,0-0.9-0.4-0.9-0.9v-9.2c0-0.5,0.4-0.9,0.9-0.9h48.2c0.5,0,0.9,0.4,0.9,0.9v8.9
				c0,0.5-0.4,0.9-0.9,0.9s-0.9-0.4-0.9-0.9v-8.1H8.7v8.3C8.7,44.1,8.4,44.5,7.9,44.5z"/>
		</g>
		<g>
			<path class="st1" d="M32,44.5c-0.5,0-0.9-0.4-0.9-0.9v-20c0-0.5,0.4-0.9,0.9-0.9s0.9,0.4,0.9,0.9v20.1
				C32.9,44.1,32.5,44.5,32,44.5z"/>
		</g>
	</g>
</g>
</svg>
