<?xml version="1.0" encoding="utf-8"?>
<!-- Generator: Adobe Illustrator 19.2.1, SVG Export Plug-In . SVG Version: 6.00 Build 0)  -->
<svg version="1.1" id="Layer_1" xmlns="http://www.w3.org/2000/svg" xmlns:xlink="http://www.w3.org/1999/xlink" x="0px" y="0px"
	 viewBox="0 0 64 64" style="enable-background:new 0 0 64 64;" xml:space="preserve">
<metadata><?xpacket begin="﻿" id="W5M0MpCehiHzreSzNTczkc9d"?>
<x:xmpmeta xmlns:x="adobe:ns:meta/" x:xmptk="Adobe XMP Core 5.6-c111 79.158366, 2015/09/25-01:12:00        ">
   <rdf:RDF xmlns:rdf="http://www.w3.org/1999/02/22-rdf-syntax-ns#">
      <rdf:Description rdf:about=""/>
   </rdf:RDF>
</x:xmpmeta>
                                                                                                    
                                                                                                    
                                                                                                    
                                                                                                    
                                                                                                    
                                                                                                    
                                                                                                    
                                                                                                    
                                                                                                    
                                                                                                    
                                                                                                    
                                                                                                    
                                                                                                    
                                                                                                    
                                                                                                    
                                                                                                    
                                                                                                    
                                                                                                    
                                                                                                    
                                                                                                    
                           
<?xpacket end="w"?></metadata>
<style type="text/css">
	.st0{fill:none;}
	.st1{fill:#5B554D;}
</style>
<rect class="st0" width="64" height="64"/>
<g>
	<g>
		<g>
			<path class="st1" d="M58.2,63h-13c-1.2,0-2.1-0.9-2.1-2.1v-13c0-1.2,0.9-2.1,2.1-2.1h13c1.2,0,2.1,0.9,2.1,2.1v13
				C60.3,62.1,59.4,63,58.2,63z M45.2,47.6c-0.2,0-0.3,0.1-0.3,0.3v13c0,0.2,0.1,0.3,0.3,0.3h13c0.2,0,0.3-0.1,0.3-0.3v-13
				c0-0.2-0.1-0.3-0.3-0.3H45.2z"/>
		</g>
		<g>
			<path class="st1" d="M18.8,63h-13c-1.2,0-2.1-0.9-2.1-2.1v-13c0-1.2,0.9-2.1,2.1-2.1h13c1.2,0,2.1,0.9,2.1,2.1v13
				C20.9,62.1,19.9,63,18.8,63z M5.8,47.6c-0.2,0-0.3,0.1-0.3,0.3v13c0,0.2,0.1,0.3,0.3,0.3h13c0.2,0,0.3-0.1,0.3-0.3v-13
				c0-0.2-0.1-0.3-0.3-0.3H5.8z"/>
		</g>
		<g>
			<path class="st1" d="M38.5,18.2h-13c-1.2,0-2.1-0.9-2.1-2.1v-13c0-1.2,0.9-2.1,2.1-2.1h13c1.2,0,2.1,0.9,2.1,2.1v13
				C40.6,17.3,39.6,18.2,38.5,18.2z M25.5,2.8c-0.2,0-0.3,0.1-0.3,0.3v13c0,0.2,0.1,0.3,0.3,0.3h13c0.2,0,0.3-0.1,0.3-0.3v-13
				c0-0.2-0.1-0.3-0.3-0.3C38.5,2.8,25.5,2.8,25.5,2.8z"/>
		</g>
	</g>
	<g>
		<path class="st1" d="M12.2,43.6c-0.5,0-0.9-0.4-0.9-0.9v-9.8c0-0.5,0.4-0.9,0.9-0.9h39.6c0.5,0,0.9,0.4,0.9,0.9v9.5
			c0,0.5-0.4,0.9-0.9,0.9s-0.9-0.4-0.9-0.9v-8.6H13.2v8.9C13.2,43.2,12.7,43.6,12.2,43.6z"/>
	</g>
	<g>
		<path class="st1" d="M32,33.6c-0.5,0-0.9-0.4-0.9-0.9V21.3c0-0.5,0.4-0.9,0.9-0.9s0.9,0.4,0.9,0.9v11.4
			C32.9,33.2,32.5,33.6,32,33.6z"/>
	</g>
</g>
</svg>
