<?xml version="1.0" encoding="utf-8"?>
<!-- Generator: Adobe Illustrator 19.2.1, SVG Export Plug-In . SVG Version: 6.00 Build 0)  -->
<svg version="1.1" id="Layer_1" xmlns="http://www.w3.org/2000/svg" xmlns:xlink="http://www.w3.org/1999/xlink" x="0px" y="0px"
	 viewBox="0 0 64 64" style="enable-background:new 0 0 64 64;" xml:space="preserve">
<metadata><?xpacket begin="﻿" id="W5M0MpCehiHzreSzNTczkc9d"?>
<x:xmpmeta xmlns:x="adobe:ns:meta/" x:xmptk="Adobe XMP Core 5.6-c111 79.158366, 2015/09/25-01:12:00        ">
   <rdf:RDF xmlns:rdf="http://www.w3.org/1999/02/22-rdf-syntax-ns#">
      <rdf:Description rdf:about=""/>
   </rdf:RDF>
</x:xmpmeta>
                                                                                                    
                                                                                                    
                                                                                                    
                                                                                                    
                                                                                                    
                                                                                                    
                                                                                                    
                                                                                                    
                                                                                                    
                                                                                                    
                                                                                                    
                                                                                                    
                                                                                                    
                                                                                                    
                                                                                                    
                                                                                                    
                                                                                                    
                                                                                                    
                                                                                                    
                                                                                                    
                           
<?xpacket end="w"?></metadata>
<style type="text/css">
	.st0{fill:none;}
	.st1{fill:#5B554D;}
</style>
<rect class="st0" width="64" height="64"/>
<g>
	<g>
		<g>
			<path class="st1" d="M60.9,61.7h-9.3c-1.2,0-2.1-1-2.1-2.1v-9.3c0-1.2,1-2.1,2.1-2.1h9.3c1.2,0,2.1,1,2.1,2.1v9.3
				C63,60.7,62,61.7,60.9,61.7z M51.6,49.8c-0.2,0-0.4,0.2-0.4,0.4v9.3c0,0.2,0.2,0.4,0.4,0.4h9.3c0.2,0,0.4-0.2,0.4-0.4v-9.3
				c0-0.2-0.2-0.4-0.4-0.4H51.6z"/>
		</g>
		<g>
			<path class="st1" d="M36.7,61.7h-9.3c-1.2,0-2.1-1-2.1-2.1v-9.3c0-1.2,1-2.1,2.1-2.1h9.3c1.2,0,2.1,1,2.1,2.1v9.3
				C38.8,60.7,37.9,61.7,36.7,61.7z M27.4,49.8c-0.2,0-0.4,0.2-0.4,0.4v9.3c0,0.2,0.2,0.4,0.4,0.4h9.3c0.2,0,0.4-0.2,0.4-0.4v-9.3
				c0-0.2-0.2-0.4-0.4-0.4H27.4z"/>
		</g>
		<g>
			<path class="st1" d="M12.4,61.7H3.1c-1.2,0-2.1-1-2.1-2.1v-9.3c0-1.2,1-2.1,2.1-2.1h9.3c1.2,0,2.1,1,2.1,2.1v9.3
				C14.6,60.7,13.6,61.7,12.4,61.7z M3.1,49.8c-0.2,0-0.4,0.2-0.4,0.4v9.3c0,0.2,0.2,0.4,0.4,0.4h9.3c0.2,0,0.4-0.2,0.4-0.4v-9.3
				c0-0.2-0.2-0.4-0.4-0.4H3.1z"/>
		</g>
	</g>
	<g>
		<path class="st1" d="M38.9,20.4H25.1c-1.2,0-2.1-1-2.1-2.1V4.5c0-1.2,1-2.1,2.1-2.1h13.8c1.2,0,2.1,1,2.1,2.1v13.8
			C41,19.4,40.1,20.4,38.9,20.4z M25.1,4.1c-0.2,0-0.4,0.2-0.4,0.4v13.8c0,0.2,0.2,0.4,0.4,0.4h13.8c0.2,0,0.4-0.2,0.4-0.4V4.5
			c0-0.2-0.2-0.4-0.4-0.4H25.1z"/>
	</g>
	<g>
		<g>
			<path class="st1" d="M7.9,44.6c-0.5,0-0.9-0.4-0.9-0.9v-9.2c0-0.5,0.4-0.9,0.9-0.9h48.2c0.5,0,0.9,0.4,0.9,0.9v8.9
				c0,0.5-0.4,0.9-0.9,0.9s-0.9-0.4-0.9-0.9v-8.1H8.7v8.3C8.7,44.2,8.4,44.6,7.9,44.6z"/>
		</g>
		<g>
			<path class="st1" d="M32,44.6c-0.5,0-0.9-0.4-0.9-0.9V23.6c0-0.5,0.4-0.9,0.9-0.9s0.9,0.4,0.9,0.9v20.1
				C32.9,44.2,32.5,44.6,32,44.6z"/>
		</g>
	</g>
</g>
</svg>
