<?xml version="1.0" encoding="utf-8"?>
<!-- Generator: Adobe Illustrator 19.2.1, SVG Export Plug-In . SVG Version: 6.00 Build 0)  -->
<svg version="1.1" id="Layer_1" xmlns="http://www.w3.org/2000/svg" xmlns:xlink="http://www.w3.org/1999/xlink" x="0px" y="0px"
	 viewBox="0 0 64 64" style="enable-background:new 0 0 64 64;" xml:space="preserve">
<metadata><?xpacket begin="﻿" id="W5M0MpCehiHzreSzNTczkc9d"?>
<x:xmpmeta xmlns:x="adobe:ns:meta/" x:xmptk="Adobe XMP Core 5.6-c111 79.158366, 2015/09/25-01:12:00        ">
   <rdf:RDF xmlns:rdf="http://www.w3.org/1999/02/22-rdf-syntax-ns#">
      <rdf:Description rdf:about=""/>
   </rdf:RDF>
</x:xmpmeta>
                                                                                                    
                                                                                                    
                                                                                                    
                                                                                                    
                                                                                                    
                                                                                                    
                                                                                                    
                                                                                                    
                                                                                                    
                                                                                                    
                                                                                                    
                                                                                                    
                                                                                                    
                                                                                                    
                                                                                                    
                                                                                                    
                                                                                                    
                                                                                                    
                                                                                                    
                                                                                                    
                           
<?xpacket end="w"?></metadata>
<style type="text/css">
	.st0{fill:none;}
	.st1{fill:#5B554D;}
</style>
<rect class="st0" width="64" height="64"/>
<g>
	<g>
		<g>
			<path class="st1" d="M54.5,63H6.8c-2.3,0-4.2-1.9-4.2-4.2v-48c0-2.3,1.9-4.2,4.2-4.2h24.8c0.5,0,0.8,0.4,0.8,0.8S32,8.2,31.6,8.2
				H6.8c-1.4,0-2.5,1.1-2.5,2.5v48c0,1.4,1.1,2.5,2.5,2.5h47.7c1.4,0,2.5-1.1,2.5-2.5V36.3c0-0.5,0.4-0.8,0.8-0.8s0.8,0.4,0.8,0.8
				v22.5C58.6,61.1,56.8,63,54.5,63z"/>
		</g>
	</g>
	<g>
		<g>
			<path class="st1" d="M44.2,41.3c-0.1,0-0.3,0-0.4-0.1c-0.2-0.1-0.4-0.3-0.4-0.6c-2.1-2.7-4.2-2.5-4.5-2.4c-0.2,0-0.4,0-0.5-0.1
				S38,37.8,38,37.7c-1.3-2.8-4.4-2.8-4.6-2.8c-0.3,0-0.6-0.2-0.8-0.5c-0.9-2-2.5-3-4.3-2.7c-0.1,0.1-0.1,0.1-0.2,0.2
				c-0.3,0.1-0.6,0.1-0.8,0c-0.2-0.1-0.4-0.3-0.4-0.5c-0.1-0.2-0.1-0.5,0-0.7c0,0,15.8-27,16-27.3c2.4-4.1,7.1-2.1,11.4,0.3l0,0
				c4.4,2.5,6.5,4.4,7,6.3c0.3,1.1,0.1,2.3-0.6,3.5c-0.1,0.3-15.6,27-15.7,27.3C44.8,41.1,44.5,41.3,44.2,41.3z M39.3,36.5
				c1,0,3,0.3,4.8,2.4c3-5.2,15-26.1,15.1-26.2c0.5-0.9,0.6-1.6,0.5-2.3c-0.4-1.5-2.2-3.1-6.2-5.3c-6-3.4-8-2.8-9.1-0.9
				c-0.1,0.1-11.7,20-15.1,25.8c1.9,0.1,3.6,1.3,4.6,3.3C35,33.4,37.7,33.9,39.3,36.5C39.2,36.5,39.2,36.5,39.3,36.5z"/>
		</g>
		<g>
			<g>
				<path class="st1" d="M27.8,49.4c-0.1,0-0.2,0-0.3,0c-0.7-0.3-0.8-0.3-0.7-9.5c0-3.8,0.1-8.7,0.1-9s0.3-0.6,0.6-0.7
					c2.6-0.7,5.1,0.6,6.4,3.1c1.1,0.1,3.8,0.7,5.3,3.2c1.2,0,3.6,0.4,5.7,3.4c0.1,0.2,0.2,0.5,0.1,0.7c-0.1,0.2-0.2,0.4-0.4,0.5
					l-16.4,8.2C28,49.4,27.9,49.4,27.8,49.4z M28.5,31.7c0,2.6-0.1,12.3,0,15.6l14.4-7.2c-2-2.3-4-1.9-4.1-1.9
					c-0.4,0.1-0.8-0.1-0.9-0.5c-1.3-2.8-4.6-2.8-4.6-2.8l0,0c-0.3,0-0.6-0.2-0.8-0.5C31.7,32.5,30.2,31.5,28.5,31.7z"/>
			</g>
		</g>
		<g>
			<g>
				<path class="st1" d="M32.1,45.8c-0.7-0.7-2-1.7-3.7-2l0.3-1.6c2.1,0.4,3.7,1.6,4.6,2.5L32.1,45.8z"/>
			</g>
		</g>
		<g>
			<path class="st1" d="M57.9,15.7c-0.9-1.9-3.5-4.2-6.8-6.1s-6.6-3-8.7-2.8l-0.1-1.7c2.4-0.2,6.1,1,9.7,3.1
				c3.6,2.1,6.4,4.6,7.4,6.8L57.9,15.7z"/>
		</g>
	</g>
	<g>
		<rect x="31.1" y="23.2" transform="matrix(0.4975 -0.8675 0.8675 0.4975 2.4812 52.386)" class="st1" width="30.8" height="1.7"/>
	</g>
	<g>
		<rect x="25.8" y="19.8" transform="matrix(0.5001 -0.866 0.866 0.5001 2.6214 45.8965)" class="st1" width="30.5" height="1.7"/>
	</g>
</g>
</svg>
