<?xml version="1.0" encoding="utf-8"?>
<!-- Generator: Adobe Illustrator 19.2.1, SVG Export Plug-In . SVG Version: 6.00 Build 0)  -->
<svg version="1.1" id="Layer_1" xmlns="http://www.w3.org/2000/svg" xmlns:xlink="http://www.w3.org/1999/xlink" x="0px" y="0px"
	 viewBox="0 0 64 64" style="enable-background:new 0 0 64 64;" xml:space="preserve">
<metadata><?xpacket begin="﻿" id="W5M0MpCehiHzreSzNTczkc9d"?>
<x:xmpmeta xmlns:x="adobe:ns:meta/" x:xmptk="Adobe XMP Core 5.6-c111 79.158366, 2015/09/25-01:12:00        ">
   <rdf:RDF xmlns:rdf="http://www.w3.org/1999/02/22-rdf-syntax-ns#">
      <rdf:Description rdf:about=""/>
   </rdf:RDF>
</x:xmpmeta>
                                                                                                    
                                                                                                    
                                                                                                    
                                                                                                    
                                                                                                    
                                                                                                    
                                                                                                    
                                                                                                    
                                                                                                    
                                                                                                    
                                                                                                    
                                                                                                    
                                                                                                    
                                                                                                    
                                                                                                    
                                                                                                    
                                                                                                    
                                                                                                    
                                                                                                    
                                                                                                    
                           
<?xpacket end="w"?></metadata>
<style type="text/css">
	.st0{fill:none;}
	.st1{fill:#5B554D;}
</style>
<rect class="st0" width="64" height="64"/>
<g>
	<g id="ribbon_6">
		<g>
			<g>
				<path class="st1" d="M32,63.2c-0.4,0-0.7-0.2-0.9-0.5l-2-3.5l-2.7,3c-0.2,0.3-0.6,0.4-1,0.3c-0.4-0.1-0.6-0.3-0.7-0.7L23.6,58
					l-3.2,2.4c-0.3,0.2-0.7,0.3-1,0.1c-0.3-0.1-0.6-0.5-0.6-0.8l-0.4-4l-3.6,1.7c-0.3,0.1-0.7,0.1-1-0.1c-0.3-0.2-0.4-0.6-0.4-0.9
					l0.4-4l-3.9,0.9c-0.4,0.1-0.7,0-1-0.3c-0.2-0.3-0.3-0.6-0.2-1l1.3-3.8H6l0,0c-0.4,0-0.7-0.2-0.9-0.5c-0.2-0.3-0.2-0.7,0-1l2-3.5
					l-3.9-0.8c-0.4-0.1-0.6-0.3-0.8-0.7c-0.1-0.3,0-0.7,0.2-1l2.7-3l-3.7-1.6C1.3,35.9,1,35.6,1,35.3c0-0.4,0.1-0.7,0.4-0.9L4.7,32
					l-3.3-2.3c-0.3-0.2-0.4-0.6-0.4-1s0.3-0.7,0.6-0.8l3.7-1.6l-2.7-3c-0.2-0.3-0.3-0.6-0.2-1c0.1-0.3,0.4-0.6,0.8-0.7L7,20.9
					l-2-3.5c-0.2-0.3-0.2-0.7,0-1s0.5-0.5,0.9-0.5l0,0h4l-1.3-3.8c-0.1-0.3,0-0.7,0.2-1s0.6-0.4,1-0.3l3.9,0.9l-0.4-4
					c0-0.4,0.1-0.7,0.4-0.9c0.3-0.2,0.7-0.3,1-0.1l3.6,1.7l0.4-4c0-0.4,0.3-0.7,0.6-0.8c0.3-0.1,0.7-0.1,1,0.1L23.6,6l1.2-3.8
					c0.1-0.3,0.4-0.6,0.7-0.7c0.4-0.1,0.7,0,1,0.3l2.7,3l2-3.5C31.3,1,31.6,0.8,32,0.8l0,0c0.4,0,0.7,0.2,0.9,0.5l2,3.5l2.7-3
					c0.2-0.3,0.6-0.4,1-0.3s0.6,0.3,0.7,0.7L40.4,6l3.2-2.4c0.3-0.2,0.7-0.3,1-0.1C45,3.7,45.2,4,45.3,4.3l0.4,4l3.6-1.7
					c0.3-0.1,0.7-0.1,1,0.1s0.4,0.6,0.4,0.9l-0.4,4l3.9-0.9c0.4-0.1,0.7,0,1,0.3c0.2,0.3,0.3,0.6,0.2,1l-1.3,3.8h4
					c0.4,0.1,0.7,0.2,0.9,0.5s0.2,0.7,0,1l-2,3.5l3.9,0.8c0.4,0.1,0.6,0.3,0.8,0.7c0.1,0.3,0,0.7-0.2,1l-2.7,3l3.7,1.6
					c0.3,0.1,0.6,0.5,0.6,0.8c0,0.4-0.1,0.7-0.4,0.9L59.3,32l3.3,2.3c0.3,0.2,0.5,0.6,0.4,0.9c0,0.4-0.3,0.7-0.6,0.8l-3.7,1.6l2.7,3
					c0.2,0.3,0.3,0.6,0.2,1c-0.1,0.3-0.4,0.6-0.8,0.7L57,43.1l2,3.5c0.2,0.3,0.2,0.7,0,1s-0.5,0.5-0.9,0.5l0,0h-4l1.3,3.8
					c0.1,0.3,0,0.7-0.2,1s-0.6,0.4-1,0.3l-3.9-0.9l0.4,4c0,0.4-0.1,0.7-0.4,0.9c-0.3,0.2-0.7,0.3-1,0.1l-3.6-1.7l-0.4,4
					c0,0.4-0.3,0.7-0.6,0.8s-0.7,0.1-1-0.1L40.4,58l-1.2,3.8c-0.1,0.3-0.4,0.6-0.7,0.7c-0.4,0.1-0.7,0-1-0.3l-2.7-3l-2,3.5
					C32.7,63,32.4,63.2,32,63.2z M29.3,56.5h0.1c0.3,0,0.6,0.2,0.8,0.5l1.8,3.2l1.8-3.2c0.2-0.3,0.4-0.5,0.8-0.5
					c0.3,0,0.6,0.1,0.9,0.3l2.4,2.7L39,56c0.1-0.3,0.3-0.6,0.6-0.7c0.3-0.1,0.6,0,0.9,0.1l2.9,2.2l0.4-3.6c0-0.3,0.2-0.6,0.5-0.8
					s0.6-0.2,0.9,0l3.3,1.5l-0.4-3.6c0-0.3,0.1-0.6,0.3-0.9c0.2-0.2,0.6-0.3,0.9-0.2l3.6,0.8l-1.1-3.5c-0.1-0.3,0-0.6,0.1-0.9
					c0.2-0.3,0.5-0.4,0.8-0.4h3.6l-1.8-3.1c-0.2-0.3-0.2-0.6-0.1-0.9c0.1-0.3,0.4-0.5,0.7-0.6l3.6-0.7L56.3,38
					c-0.2-0.2-0.3-0.6-0.2-0.9c0.1-0.3,0.3-0.6,0.6-0.7l3.3-1.5l-3-2.1c-0.3-0.2-0.4-0.5-0.4-0.8s0.2-0.6,0.4-0.8l3-2.1l-3.3-1.5
					c-0.3-0.1-0.5-0.4-0.6-0.7c-0.1-0.3,0-0.6,0.2-0.9l2.5-2.7l-3.6-0.7c-0.3-0.1-0.6-0.3-0.7-0.6c-0.1-0.3-0.1-0.6,0.1-0.9l1.8-3.1
					h-3.6l0,0c-0.3,0-0.6-0.2-0.8-0.4c-0.2-0.3-0.2-0.6-0.1-0.9l1.1-3.5L49.3,14c-0.3,0.1-0.6,0-0.9-0.2c-0.2-0.2-0.4-0.5-0.3-0.9
					l0.4-3.6l-3.3,1.5c-0.3,0.1-0.6,0.1-0.9,0c-0.3-0.2-0.5-0.5-0.5-0.8l-0.4-3.6l-2.9,2.2c-0.3,0.2-0.6,0.2-0.9,0.1
					C39.3,8.5,39,8.3,39,8l-1.1-3.5l-2.4,2.7c-0.2,0.2-0.5,0.4-0.9,0.3c-0.3,0-0.6-0.2-0.8-0.5L32,3.9L30.2,7
					c-0.2,0.3-0.4,0.5-0.8,0.5c-0.3,0-0.6-0.1-0.9-0.3l-2.4-2.7L25,8c-0.1,0.3-0.3,0.6-0.6,0.7c-0.3,0.1-0.6,0-0.9-0.1l-2.9-2.2
					L20.2,10c0,0.3-0.2,0.6-0.5,0.8s-0.6,0.2-0.9,0l-3.3-1.5l0.4,3.6c0,0.3-0.1,0.6-0.3,0.9C15.3,13.9,15,14,14.7,14l-3.6-0.8
					l1.1,3.5c0.1,0.3,0,0.6-0.1,0.9c-0.2,0.3-0.4,0.5-0.8,0.4H7.7l1.8,3.1c0.2,0.3,0.2,0.6,0.1,0.9c-0.1,0.3-0.4,0.5-0.7,0.6
					l-3.6,0.7L7.7,26c0.2,0.2,0.3,0.6,0.2,0.9c-0.1,0.3-0.3,0.6-0.6,0.7L4,29.1l3,2.1c0.3,0.2,0.4,0.5,0.4,0.8S7.2,32.6,7,32.8
					l-3,2.1l3.3,1.5c0.3,0.1,0.5,0.4,0.6,0.7s0,0.6-0.2,0.9l-2.5,2.7l3.6,0.7c0.3,0.1,0.6,0.3,0.7,0.6c0.1,0.3,0.1,0.6-0.1,0.9
					L7.6,46h3.6c0.4,0,0.6,0.2,0.8,0.4c0.2,0.3,0.2,0.6,0.1,0.9L11,50.8l3.6-0.8c0.3-0.1,0.6,0,0.9,0.2c0.2,0.2,0.4,0.5,0.3,0.9
					l-0.4,3.6l3.3-1.5c0.3-0.1,0.6-0.1,0.9,0c0.3,0.2,0.5,0.4,0.5,0.8l0.4,3.6l2.9-2.2c0.3-0.2,0.6-0.2,0.9-0.1
					c0.3,0.1,0.5,0.3,0.6,0.7l1.1,3.5l2.4-2.7C28.8,56.6,29,56.5,29.3,56.5z"/>
			</g>
		</g>
	</g>
	<g>
		<path class="st1" d="M18.7,23.8l3.3,11v-11h2.5v16.4h-2.7l-3.4-10.5v10.5h-2.5V23.8H18.7z"/>
		<path class="st1" d="M26.6,40.2V23.8h7v2.5H29v4.5h3.3v2.5H29v4.5h4.6v2.5L26.6,40.2L26.6,40.2z"/>
		<path class="st1" d="M45.5,23.8h2.6l-2.6,16.4h-2.4l-1.4-9l-1.3,9H38l-2.7-16.4h2.6l1.3,8.8l1.2-8.8H43l1.3,8.8L45.5,23.8z"/>
	</g>
</g>
</svg>
