<?xml version="1.0" encoding="utf-8"?>
<!-- Generator: Adobe Illustrator 19.2.1, SVG Export Plug-In . SVG Version: 6.00 Build 0)  -->
<svg version="1.1" id="Layer_1" xmlns="http://www.w3.org/2000/svg" xmlns:xlink="http://www.w3.org/1999/xlink" x="0px" y="0px"
	 viewBox="0 0 64 64" style="enable-background:new 0 0 64 64;" xml:space="preserve">
<metadata><?xpacket begin="﻿" id="W5M0MpCehiHzreSzNTczkc9d"?>
<x:xmpmeta xmlns:x="adobe:ns:meta/" x:xmptk="Adobe XMP Core 5.6-c111 79.158366, 2015/09/25-01:12:00        ">
   <rdf:RDF xmlns:rdf="http://www.w3.org/1999/02/22-rdf-syntax-ns#">
      <rdf:Description rdf:about=""/>
   </rdf:RDF>
</x:xmpmeta>
                                                                                                    
                                                                                                    
                                                                                                    
                                                                                                    
                                                                                                    
                                                                                                    
                                                                                                    
                                                                                                    
                                                                                                    
                                                                                                    
                                                                                                    
                                                                                                    
                                                                                                    
                                                                                                    
                                                                                                    
                                                                                                    
                                                                                                    
                                                                                                    
                                                                                                    
                                                                                                    
                           
<?xpacket end="w"?></metadata>
<style type="text/css">
	.st0{fill:none;}
	.st1{fill:#5B554D;}
</style>
<rect class="st0" width="64" height="64"/>
<g>
	<g>
		<path class="st1" d="M11.4,57.4c-2.4,0-4.3-1.8-4.6-4.1c0-0.5,0.3-0.9,0.8-0.9c0.5,0,0.9,0.3,0.9,0.8c0.2,1.5,1.4,2.6,2.9,2.6
			c0.1,0,0.2,0,0.3,0l47-5c0.8-0.1,1.5-0.5,1.9-1.1c0.5-0.6,0.7-1.4,0.6-2.1l-3.8-35.5c-0.1-0.8-0.5-1.5-1.1-2
			c-0.6-0.5-1.3-0.7-2.1-0.6c-0.5,0.1-0.9-0.3-1-0.8c-0.1-0.5,0.3-0.9,0.8-1c1.2-0.1,2.4,0.2,3.4,1c1,0.8,1.6,1.9,1.7,3.1L63,47.2
			c0.1,1.2-0.2,2.4-1,3.4c-0.8,1-1.9,1.6-3.1,1.7l-47,5C11.7,57.4,11.6,57.4,11.4,57.4z"/>
	</g>
	<g>
		<g>
			<path class="st1" d="M7.2,52.9c-1.1,0-2.1-0.9-2.2-2L1,14.3c-0.1-1.2,0.8-2.3,2-2.5l48.7-5.2c0,0,0,0,0,0c1.2,0,2.1,0.9,2.3,2
				c0,0,0,0,0,0l3.9,36.7c0,0.6-0.1,1.2-0.5,1.6c-0.4,0.5-0.9,0.7-1.5,0.8L7.4,52.9C7.3,52.9,7.3,52.9,7.2,52.9z M51.7,8.3L51.7,8.3
				L3.2,13.5c-0.3,0-0.5,0.3-0.5,0.6l3.9,36.6c0,0.3,0.3,0.5,0.6,0.5L55.7,46c0.1,0,0.3-0.1,0.3-0.2c0.1-0.1,0.1-0.2,0.1-0.4
				L52.2,8.8C52.2,8.5,52,8.3,51.7,8.3z"/>
		</g>
	</g>
	<g>
		<path class="st1" d="M13.4,44.7c-0.4,0-0.8-0.3-0.9-0.8c-0.1-0.5,0.3-0.9,0.8-1l35.1-3.8c0.5,0,0.9,0.3,1,0.8
			c0.1,0.5-0.3,0.9-0.8,1L13.4,44.7C13.5,44.7,13.4,44.7,13.4,44.7z M25.5,37.5c-0.4,0-0.8-0.3-0.9-0.8c-0.1-0.5,0.3-0.9,0.8-1
			l22.3-2.4c0.5,0,0.9,0.3,1,0.8c0.1,0.5-0.3,0.9-0.8,1L25.5,37.5C25.6,37.5,25.5,37.5,25.5,37.5z M24.8,31.7
			c-0.4,0-0.8-0.3-0.9-0.8c-0.1-0.5,0.3-0.9,0.8-1L47,27.6c0.5-0.1,0.9,0.3,1,0.8c0.1,0.5-0.3,0.9-0.8,1L24.8,31.7
			C24.9,31.7,24.8,31.7,24.8,31.7z"/>
	</g>
	<circle class="st1" cx="14.8" cy="33.5" r="0.5"/>
	<g>
		<path class="st1" d="M14.2,39.1c-0.2,0-0.4-0.1-0.6-0.3c-0.3-0.3-0.3-0.9,0-1.2c3.8-3.8,3.8-3.8,4.2-3.8c0.2,0,0.2,0,3.2,1.2
			c0.4,0.2,0.7,0.7,0.5,1.1c-0.2,0.4-0.7,0.7-1.1,0.5c0,0-1.6-0.6-2.4-1c-0.7,0.7-2.2,2.2-3.2,3.1C14.7,39,14.4,39.1,14.2,39.1z"/>
	</g>
	<path class="st1" d="M18,16.3l-0.5,0.1c-0.4,0-0.6,0.4-0.6,0.8l0.7,6.5l-5.7-6.3c-0.1-0.2-0.4-0.3-0.6-0.2l-0.7,0.1
		c-0.4,0-0.6,0.4-0.6,0.8l1,9.2c0,0.4,0.3,0.6,0.7,0.6l0.1,0l0.5-0.1c0.2,0,0.3-0.1,0.5-0.3c0.1-0.1,0.2-0.3,0.1-0.5l-0.7-6.3
		l5.5,6.1c0.1,0.2,0.4,0.2,0.6,0.2l0.8-0.1c0.2,0,0.3-0.1,0.5-0.3c0.1-0.1,0.2-0.3,0.1-0.5l-1-9.2C18.7,16.5,18.3,16.3,18,16.3z
		 M26.8,24.3c-0.1-0.1-0.3-0.2-0.5-0.1l-3.4,0.4l-0.3-2.5l3.4-0.4c0.4,0,0.6-0.4,0.6-0.8l-0.1-0.5c0-0.2-0.1-0.3-0.3-0.5
		c-0.1-0.1-0.3-0.2-0.5-0.1l-3.4,0.4l-0.3-2.5l3.4-0.4c0.4,0,0.6-0.4,0.6-0.8l-0.1-0.5c0-0.2-0.1-0.3-0.3-0.5
		c-0.1-0.1-0.3-0.2-0.5-0.1L20.8,16c-0.4,0-0.6,0.4-0.6,0.8l1,9.2c0,0.2,0.1,0.3,0.3,0.5c0.1,0.1,0.3,0.2,0.4,0.2l0.1,0l4.6-0.5
		c0.4,0,0.6-0.4,0.6-0.8l-0.1-0.5C27.1,24.6,27,24.5,26.8,24.3z M37.9,14.1l-0.5,0.1c-0.3,0-0.6,0.3-0.6,0.6l-1,6.6l-2-3.8
		c-0.1-0.3-0.4-0.4-0.7-0.4l-0.3,0c-0.3,0-0.5,0.2-0.6,0.5l-1.1,4.2l-2.4-6.2c-0.1-0.3-0.4-0.5-0.7-0.4l-0.5,0.1
		c-0.2,0-0.4,0.1-0.5,0.3c-0.1,0.2-0.1,0.4-0.1,0.6l3.5,8.9c0.1,0.3,0.4,0.4,0.6,0.4l0.1,0l0.5-0.1c0.3,0,0.5-0.2,0.6-0.5l1.1-4.3
		l2,4c0.1,0.3,0.4,0.4,0.7,0.4l0.5-0.1c0.3,0,0.6-0.3,0.6-0.6l1.5-9.5c0-0.2,0-0.4-0.2-0.6C38.3,14.2,38.1,14.1,37.9,14.1z
		 M46.5,20.5c-0.1-0.9-0.5-1.7-1.3-2.3c-0.6-0.5-1.4-0.9-2.2-1c-0.4-0.1-0.7-0.3-1-0.5c-0.2-0.1-0.3-0.3-0.3-0.5
		c0-0.2,0-0.4,0.2-0.6c0.1-0.2,0.3-0.3,0.6-0.3c0.2,0,0.3,0.1,0.4,0.2c0.1,0.1,0.2,0.2,0.2,0.3c0.1,0.2,0.2,0.3,0.4,0.3
		c0.2,0.1,0.4,0,0.5,0l0.5-0.2c0.3-0.2,0.5-0.6,0.3-0.9c-0.2-0.3-0.4-0.6-0.7-0.9c-0.6-0.5-1.2-0.6-1.9-0.6c-0.7,0.1-1.3,0.4-1.8,1
		c-0.5,0.6-0.6,1.2-0.6,1.9c0.1,0.7,0.4,1.3,1,1.8c0.5,0.4,1.2,0.7,1.9,0.8c0.5,0.1,0.9,0.4,1.3,0.6c0.3,0.3,0.5,0.6,0.6,1
		c0,0.4-0.1,0.8-0.3,1.1c-0.3,0.3-0.6,0.5-1,0.6c-0.4,0.1-0.8-0.1-1.1-0.3c-0.3-0.2-0.5-0.5-0.5-0.8c0-0.2-0.2-0.4-0.4-0.5
		c-0.2-0.1-0.4-0.1-0.6,0L40.1,21c-0.3,0.1-0.4,0.5-0.4,0.8c0.2,0.7,0.6,1.3,1.2,1.8c0.6,0.5,1.3,0.8,2.1,0.8c0.1,0,0.3,0,0.4,0
		c0.9-0.1,1.7-0.5,2.3-1.3C46.3,22.3,46.6,21.5,46.5,20.5z"/>
	<g>
		<path class="st1" d="M13.5,40.4c-0.3,0-0.6-0.1-0.9-0.3c-0.3-0.2-0.5-0.6-0.5-0.9l-0.8-7.2c0-0.4,0.1-0.7,0.3-1
			c0.2-0.3,0.6-0.5,0.9-0.5l7.2-0.8c0.8-0.1,1.4,0.5,1.5,1.2c0,0,0,0,0,0l0.8,7.2c0.1,0.8-0.5,1.4-1.2,1.5l-7.2,0.8
			C13.6,40.4,13.5,40.4,13.5,40.4z M13.8,38.9L13.8,38.9C13.8,38.9,13.8,38.9,13.8,38.9z M13.1,32.1l0.7,6.5l6.5-0.7l-0.7-6.5
			L13.1,32.1z M19.6,31C19.6,31,19.6,31,19.6,31L19.6,31z"/>
	</g>
</g>
</svg>
