<?xml version="1.0" encoding="utf-8"?>
<!-- Generator: Adobe Illustrator 19.2.1, SVG Export Plug-In . SVG Version: 6.00 Build 0)  -->
<svg version="1.1" id="Layer_1" xmlns="http://www.w3.org/2000/svg" xmlns:xlink="http://www.w3.org/1999/xlink" x="0px" y="0px"
	 viewBox="0 0 64 64" style="enable-background:new 0 0 64 64;" xml:space="preserve">
<metadata><?xpacket begin="﻿" id="W5M0MpCehiHzreSzNTczkc9d"?>
<x:xmpmeta xmlns:x="adobe:ns:meta/" x:xmptk="Adobe XMP Core 5.6-c111 79.158366, 2015/09/25-01:12:00        ">
   <rdf:RDF xmlns:rdf="http://www.w3.org/1999/02/22-rdf-syntax-ns#">
      <rdf:Description rdf:about=""/>
   </rdf:RDF>
</x:xmpmeta>
                                                                                                    
                                                                                                    
                                                                                                    
                                                                                                    
                                                                                                    
                                                                                                    
                                                                                                    
                                                                                                    
                                                                                                    
                                                                                                    
                                                                                                    
                                                                                                    
                                                                                                    
                                                                                                    
                                                                                                    
                                                                                                    
                                                                                                    
                                                                                                    
                                                                                                    
                                                                                                    
                           
<?xpacket end="w"?></metadata>
<style type="text/css">
	.st0{fill:none;}
	.st1{fill:#5B554D;}
</style>
<rect class="st0" width="64" height="64"/>
<g>
	<g>
		<path class="st1" d="M21.8,53.2c-0.6,0-1.1-0.5-1.1-1.1V3.6c0-0.6,0.5-1.1,1.1-1.1h40.1c0.6,0,1.1,0.5,1.1,1.1v42.1
			c0,0.6-0.5,1.1-1.1,1.1s-1.1-0.5-1.1-1.1v-41h-38v47.4C22.8,52.7,22.3,53.2,21.8,53.2z"/>
	</g>
	<g>
		<path class="st1" d="M61.9,21.3H22.1c-0.6,0-1.1-0.5-1.1-1.1s0.5-1.1,1.1-1.1h39.8c0.6,0,1.1,0.5,1.1,1.1S62.5,21.3,61.9,21.3z"/>
	</g>
	<g>
		<path class="st1" d="M12,61.4c-6,0-11-3.5-11-7.8s4.9-7.8,11-7.8s11,3.5,11,7.8S18,61.4,12,61.4z M12,47.9c-4.8,0-8.8,2.6-8.8,5.7
			c0,3.1,4,5.7,8.8,5.7s8.8-2.6,8.8-5.7C20.8,50.5,16.8,47.9,12,47.9z"/>
	</g>
	<g>
		<path class="st1" d="M52,53.7c-6,0-11-3.5-11-7.8S46,38,52,38s11,3.5,11,7.8S58.1,53.7,52,53.7z M52,40.2c-4.8,0-8.8,2.6-8.8,5.7
			c0,3.1,4,5.7,8.8,5.7s8.8-2.6,8.8-5.7C60.9,42.8,56.8,40.2,52,40.2z"/>
	</g>
</g>
</svg>
