<?xml version="1.0" encoding="utf-8"?>
<!-- Generator: Adobe Illustrator 19.2.1, SVG Export Plug-In . SVG Version: 6.00 Build 0)  -->
<svg version="1.1" id="Layer_1" xmlns="http://www.w3.org/2000/svg" xmlns:xlink="http://www.w3.org/1999/xlink" x="0px" y="0px"
	 viewBox="0 0 64 64" style="enable-background:new 0 0 64 64;" xml:space="preserve">
<metadata><?xpacket begin="﻿" id="W5M0MpCehiHzreSzNTczkc9d"?>
<x:xmpmeta xmlns:x="adobe:ns:meta/" x:xmptk="Adobe XMP Core 5.6-c111 79.158366, 2015/09/25-01:12:00        ">
   <rdf:RDF xmlns:rdf="http://www.w3.org/1999/02/22-rdf-syntax-ns#">
      <rdf:Description rdf:about=""/>
   </rdf:RDF>
</x:xmpmeta>
                                                                                                    
                                                                                                    
                                                                                                    
                                                                                                    
                                                                                                    
                                                                                                    
                                                                                                    
                                                                                                    
                                                                                                    
                                                                                                    
                                                                                                    
                                                                                                    
                                                                                                    
                                                                                                    
                                                                                                    
                                                                                                    
                                                                                                    
                                                                                                    
                                                                                                    
                                                                                                    
                           
<?xpacket end="w"?></metadata>
<style type="text/css">
	.st0{fill:none;}
	.st1{fill:#5B554D;}
</style>
<rect class="st0" width="64" height="64"/>
<g>
	<g>
		<g>
			<g>
				<path class="st1" d="M45.9,25.3c-0.2,0-0.4-0.1-0.5-0.2L26.6,10c-0.1-0.1-0.2-0.2-0.2-0.3c-0.3-0.4-0.2-0.9,0.2-1.2
					c0.4-0.3,0.9-0.2,1.1,0.1c0,0,0,0.1,0.1,0.1l18.6,15.1c0.4,0.3,0.4,0.8,0.1,1.2C46.3,25.2,46.1,25.3,45.9,25.3z"/>
			</g>
			<g>
				<path class="st1" d="M12.9,32.1c-0.1,0-0.3,0-0.4-0.1c-0.4-0.2-0.6-0.7-0.3-1.1L23.4,9.6c0.1-0.4,0.6-0.7,1-0.6
					c0.4,0.1,0.7,0.6,0.6,1c0,0.1-0.1,0.2-0.1,0.4L13.6,31.6C13.5,31.9,13.2,32.1,12.9,32.1z"/>
			</g>
		</g>
		<g>
			<g>
				<path class="st1" d="M25.7,13.9c-2.7,0-4.8-2.2-4.8-4.8c0-2.7,2.2-4.8,4.8-4.8c2.7,0,4.8,2.2,4.8,4.8
					C30.6,11.7,28.4,13.9,25.7,13.9z M25.7,5.9c-1.7,0-3.2,1.4-3.2,3.2c0,1.7,1.4,3.2,3.2,3.2c1.7,0,3.2-1.4,3.2-3.2
					C28.9,7.3,27.5,5.9,25.7,5.9z"/>
			</g>
		</g>
		<g>
			<g>
				<path class="st1" d="M6.5,59.8c-0.4,0-0.7-0.3-0.8-0.7L1,36.4c-0.1-0.5,0.2-0.9,0.7-1l55.7-11.3c0.2,0,0.4,0,0.6,0.1
					c0.2,0.1,0.3,0.3,0.4,0.5L63,47.5c0,0.2,0,0.4-0.1,0.6c-0.1,0.2-0.3,0.3-0.5,0.4L6.5,59.8L6.5,59.8z M2.8,36.9L7.1,58l54.1-11
					l-4.3-21.1L2.8,36.9z"/>
			</g>
		</g>
	</g>
	<g>
		<path class="st1" d="M18.1,36.8c0.9-0.2,1.8,0,2.6,0.5c0.8,0.5,1.3,1.3,1.4,2.2l1.5,7.6c0.2,0.9,0,1.8-0.5,2.6s-1.3,1.2-2.2,1.4
			c-0.9,0.2-1.8,0-2.5-0.5c-0.8-0.5-1.2-1.3-1.4-2.2l-1.5-7.6c-0.2-0.9,0-1.8,0.5-2.6C16.4,37.4,17.2,36.9,18.1,36.8z M19.8,39.8
			c-0.1-0.3-0.2-0.6-0.5-0.8s-0.6-0.3-0.9-0.2s-0.6,0.2-0.8,0.5c-0.2,0.3-0.3,0.6-0.2,0.9l1.5,7.6c0.1,0.3,0.2,0.6,0.5,0.8
			s0.6,0.3,0.9,0.2s0.6-0.2,0.8-0.5c0.2-0.3,0.3-0.6,0.2-0.9L19.8,39.8z"/>
		<path class="st1" d="M26.6,35.3c1-0.2,1.9,0,2.6,0.5s1.1,1.2,1.3,2.2l0.4,2c0.2,0.9,0,1.8-0.5,2.5c-0.5,0.8-1.2,1.3-2.1,1.4
			l-1.2,0.2l1,5.3L26,49.9L23.3,36L26.6,35.3z M28.5,38.4c-0.1-0.4-0.2-0.6-0.5-0.8s-0.6-0.2-0.9-0.2l-1.3,0.2l0.9,4.5l1.3-0.2
			c0.3-0.1,0.6-0.2,0.8-0.5c0.2-0.3,0.3-0.6,0.2-0.9L28.5,38.4z"/>
		<path class="st1" d="M34.3,48.3l-2.7-14l6-1.1l0.4,2.1L34.1,36l0.7,3.8l2.8-0.5l0.4,2.1L35.2,42l0.7,3.8l3.9-0.7l0.4,2.1
			L34.3,48.3z"/>
		<path class="st1" d="M41.4,32.5l4.6,8.8l-1.8-9.4l2.1-0.4l2.7,14l-2.3,0.4l-4.6-8.4l1.7,8.9l-2.1,0.4l-2.7-14L41.4,32.5z"/>
	</g>
</g>
</svg>
