<?xml version="1.0" encoding="utf-8"?>
<!-- Generator: Adobe Illustrator 19.2.1, SVG Export Plug-In . SVG Version: 6.00 Build 0)  -->
<svg version="1.1" id="Layer_1" xmlns="http://www.w3.org/2000/svg" xmlns:xlink="http://www.w3.org/1999/xlink" x="0px" y="0px"
	 viewBox="0 0 64 64" style="enable-background:new 0 0 64 64;" xml:space="preserve">
<metadata><?xpacket begin="﻿" id="W5M0MpCehiHzreSzNTczkc9d"?>
<x:xmpmeta xmlns:x="adobe:ns:meta/" x:xmptk="Adobe XMP Core 5.6-c111 79.158366, 2015/09/25-01:12:00        ">
   <rdf:RDF xmlns:rdf="http://www.w3.org/1999/02/22-rdf-syntax-ns#">
      <rdf:Description rdf:about=""/>
   </rdf:RDF>
</x:xmpmeta>
                                                                                                    
                                                                                                    
                                                                                                    
                                                                                                    
                                                                                                    
                                                                                                    
                                                                                                    
                                                                                                    
                                                                                                    
                                                                                                    
                                                                                                    
                                                                                                    
                                                                                                    
                                                                                                    
                                                                                                    
                                                                                                    
                                                                                                    
                                                                                                    
                                                                                                    
                                                                                                    
                           
<?xpacket end="w"?></metadata>
<style type="text/css">
	.st0{fill:none;}
	.st1{fill:#5B554D;}
</style>
<rect class="st0" width="64" height="64"/>
<g>
	<g>
		<path class="st1" d="M32,24.4c-0.5,0-0.9-0.4-0.9-0.9V1.9C31.1,1.4,31.5,1,32,1s0.9,0.4,0.9,0.9v21.7C32.9,24,32.5,24.4,32,24.4z"
			/>
	</g>
	<g>
		<path class="st1" d="M32,63C17.6,63,5.9,51.3,5.9,36.9c0-12,8.1-22.4,19.7-25.3c0.5-0.1,0.9,0.2,1.1,0.6c0.1,0.5-0.2,0.9-0.6,1.1
			C15.3,16.1,7.7,25.8,7.7,36.9c0,13.4,10.9,24.3,24.3,24.3s24.3-10.9,24.3-24.3c0-11.2-7.6-20.9-18.4-23.6
			c-0.5-0.1-0.8-0.6-0.6-1.1c0.1-0.5,0.6-0.8,1.1-0.6C49.9,14.6,58.1,25,58.1,36.9C58.1,51.3,46.4,63,32,63z"/>
	</g>
</g>
</svg>
