<?xml version="1.0" encoding="utf-8"?>
<!-- Generator: Adobe Illustrator 19.2.1, SVG Export Plug-In . SVG Version: 6.00 Build 0)  -->
<svg version="1.1" id="Layer_1" xmlns="http://www.w3.org/2000/svg" xmlns:xlink="http://www.w3.org/1999/xlink" x="0px" y="0px"
	 viewBox="0 0 64 64" style="enable-background:new 0 0 64 64;" xml:space="preserve">
<metadata><?xpacket begin="﻿" id="W5M0MpCehiHzreSzNTczkc9d"?>
<x:xmpmeta xmlns:x="adobe:ns:meta/" x:xmptk="Adobe XMP Core 5.6-c111 79.158366, 2015/09/25-01:12:00        ">
   <rdf:RDF xmlns:rdf="http://www.w3.org/1999/02/22-rdf-syntax-ns#">
      <rdf:Description rdf:about=""/>
   </rdf:RDF>
</x:xmpmeta>
                                                                                                    
                                                                                                    
                                                                                                    
                                                                                                    
                                                                                                    
                                                                                                    
                                                                                                    
                                                                                                    
                                                                                                    
                                                                                                    
                                                                                                    
                                                                                                    
                                                                                                    
                                                                                                    
                                                                                                    
                                                                                                    
                                                                                                    
                                                                                                    
                                                                                                    
                                                                                                    
                           
<?xpacket end="w"?></metadata>
<style type="text/css">
	.st0{fill:none;}
	.st1{fill:#5B554D;}
</style>
<rect class="st0" width="64" height="64"/>
<g>
	<g>
		<g>
			<path class="st1" d="M1.8,8.7c-0.3,0-0.5-0.1-0.7-0.4C0.9,7.9,1,7.4,1.4,7.1l8.8-5.9c0.3-0.2,0.6-0.2,0.9,0
				c0.3,0.2,0.4,0.4,0.4,0.8l-0.1,4.9c0,0.5-0.4,0.8-0.8,0.8c0,0,0,0,0,0c-0.5,0-0.8-0.4-0.8-0.9l0.1-3.3l-7.4,5
				C2.2,8.6,2,8.7,1.8,8.7z"/>
		</g>
	</g>
	<g>
		<g>
			<path class="st1" d="M34.2,62.9c-0.3,0-0.6-0.2-0.8-0.5l-3.6-7.2c-0.2-0.4,0-0.9,0.4-1.1c0.4-0.2,0.9,0,1.1,0.4l2.1,4.2l0.1-5.1
				c0-0.5,0.4-0.8,0.9-0.8c0.5,0,0.8,0.4,0.8,0.9L35,62.1c0,0.4-0.3,0.7-0.7,0.8C34.3,62.9,34.2,62.9,34.2,62.9z"/>
		</g>
	</g>
	<g>
		<path class="st1" d="M30.5,55.7c-0.2,0-0.3-0.1-0.5-0.2c-0.2-0.2-0.4-0.4-0.4-0.7l0.2-9.3c0-0.5,0.4-0.8,0.9-0.8
			c0.5,0,0.8,0.4,0.8,0.9l-0.2,8l26.5-10c0.4-0.2,0.9,0.1,1.1,0.5c0.2,0.4-0.1,0.9-0.5,1.1L30.8,55.6C30.7,55.7,30.6,55.7,30.5,55.7
			z"/>
	</g>
	<g>
		<g>
			<path class="st1" d="M6.1,46.6c-0.4,0-0.8-0.3-0.8-0.7L1,7.9c0-0.2,0-0.5,0.2-0.7C1.4,7.1,1.6,7,1.8,7l60.3-0.4c0,0,0,0,0,0
				c0.2,0,0.5,0.1,0.6,0.3C62.9,7.1,63,7.3,63,7.5l-4,37c0,0.4-0.4,0.7-0.8,0.7L6.1,46.6C6.1,46.6,6.1,46.6,6.1,46.6z M2.8,8.7
				l4,36.2l50.6-1.3l3.8-35.3L2.8,8.7z"/>
		</g>
	</g>
</g>
</svg>
