<?xml version="1.0" encoding="utf-8"?>
<!-- Generator: Adobe Illustrator 19.2.1, SVG Export Plug-In . SVG Version: 6.00 Build 0)  -->
<svg version="1.1" id="Layer_1" xmlns="http://www.w3.org/2000/svg" xmlns:xlink="http://www.w3.org/1999/xlink" x="0px" y="0px"
	 viewBox="0 0 64 64" style="enable-background:new 0 0 64 64;" xml:space="preserve">
<metadata><?xpacket begin="﻿" id="W5M0MpCehiHzreSzNTczkc9d"?>
<x:xmpmeta xmlns:x="adobe:ns:meta/" x:xmptk="Adobe XMP Core 5.6-c111 79.158366, 2015/09/25-01:12:00        ">
   <rdf:RDF xmlns:rdf="http://www.w3.org/1999/02/22-rdf-syntax-ns#">
      <rdf:Description rdf:about=""/>
   </rdf:RDF>
</x:xmpmeta>
                                                                                                    
                                                                                                    
                                                                                                    
                                                                                                    
                                                                                                    
                                                                                                    
                                                                                                    
                                                                                                    
                                                                                                    
                                                                                                    
                                                                                                    
                                                                                                    
                                                                                                    
                                                                                                    
                                                                                                    
                                                                                                    
                                                                                                    
                                                                                                    
                                                                                                    
                                                                                                    
                           
<?xpacket end="w"?></metadata>
<style type="text/css">
	.st0{fill:none;}
	.st1{fill:#5B554D;}
</style>
<rect class="st0" width="64" height="64"/>
<g>
	<g>
		<g>
			<path class="st1" d="M36.1,36.9c-0.5,0-0.9-0.4-0.9-0.9v-6.3c0-1.8-1.5-3.4-3.4-3.4h-2c0,0-0.2,0-0.2,0H8.9
				c-2.3,0-4.1-1.8-4.1-4.1V14c0-2.3,1.8-4.1,4.1-4.1h3.2c0.5,0,0.9,0.4,0.9,0.9s-0.4,0.9-0.9,0.9H8.9c-1.3,0-2.3,1-2.3,2.3v8.3
				c0,1.3,1,2.3,2.3,2.3h20.6c0,0,0.1,0,0.2,0h2c2.9,0,5.2,2.3,5.2,5.2v6.3C37,36.4,36.6,36.9,36.1,36.9z"/>
		</g>
	</g>
	<g>
		<g>
			<path class="st1" d="M51.7,22.3H21.4c-4.1,0-7.5-3.4-7.5-7.5V8.5c0-4.1,3.4-7.5,7.5-7.5h30.3c4.1,0,7.5,3.4,7.5,7.5v6.3
				C59.2,19,55.8,22.3,51.7,22.3z M21.4,2.8c-3.1,0-5.7,2.5-5.7,5.7v6.3c0,3.1,2.5,5.7,5.7,5.7h30.3c3.1,0,5.7-2.5,5.7-5.7V8.5
				c0-3.1-2.5-5.7-5.7-5.7H21.4z"/>
		</g>
	</g>
	<g>
		<g>
			<path class="st1" d="M37.8,63h-4c-2.1,0-3.8-1.7-3.8-3.8V41.3c0-2.1,1.7-3.8,3.8-3.8h4c2.1,0,3.8,1.7,3.8,3.8v17.9
				C41.6,61.3,39.9,63,37.8,63z M33.7,39.3c-1.1,0-2,0.9-2,2v17.9c0,1.1,0.9,2,2,2h4c1.1,0,2-0.9,2-2V41.3c0-1.1-0.9-2-2-2H33.7z"/>
		</g>
	</g>
</g>
</svg>
