<?xml version="1.0" encoding="utf-8"?>
<!-- Generator: Adobe Illustrator 19.2.1, SVG Export Plug-In . SVG Version: 6.00 Build 0)  -->
<svg version="1.1" id="Layer_1" xmlns="http://www.w3.org/2000/svg" xmlns:xlink="http://www.w3.org/1999/xlink" x="0px" y="0px"
	 viewBox="0 0 64 64" style="enable-background:new 0 0 64 64;" xml:space="preserve">
<metadata><?xpacket begin="﻿" id="W5M0MpCehiHzreSzNTczkc9d"?>
<x:xmpmeta xmlns:x="adobe:ns:meta/" x:xmptk="Adobe XMP Core 5.6-c111 79.158366, 2015/09/25-01:12:00        ">
   <rdf:RDF xmlns:rdf="http://www.w3.org/1999/02/22-rdf-syntax-ns#">
      <rdf:Description rdf:about=""/>
   </rdf:RDF>
</x:xmpmeta>
                                                                                                    
                                                                                                    
                                                                                                    
                                                                                                    
                                                                                                    
                                                                                                    
                                                                                                    
                                                                                                    
                                                                                                    
                                                                                                    
                                                                                                    
                                                                                                    
                                                                                                    
                                                                                                    
                                                                                                    
                                                                                                    
                                                                                                    
                                                                                                    
                                                                                                    
                                                                                                    
                           
<?xpacket end="w"?></metadata>
<style type="text/css">
	.st0{fill:none;}
	.st1{fill:#5B554D;}
	.st2{fill:none;stroke:#5B554D;stroke-width:1.4173;stroke-linecap:round;stroke-linejoin:round;stroke-miterlimit:10;}
</style>
<rect class="st0" width="64" height="64"/>
<g>
	<g>
		<path class="st1" d="M29.1,51.5C29.1,51.5,29,51.5,29.1,51.5c-0.3,0-0.4-0.1-0.6-0.3l-9.7-14.8l-6.4,1.8c-0.2,0.1-0.4,0-0.6-0.1
			c-0.2-0.1-0.3-0.3-0.3-0.6l0.4-10.8L1.2,13.7C1,13.5,1,13.2,1.1,13c0.1-0.2,0.3-0.4,0.6-0.4l60.6-0.1c0,0,0,0,0.1,0
			c0.1,0,0.2,0,0.3,0.1c0.1,0,0.1,0.1,0.2,0.1c0.1,0.1,0.1,0.2,0.1,0.3v0c0,0,0,0,0,0c0,0,0,0.1,0,0.1c0,0.1,0,0.2,0,0.3
			c0,0.1-0.1,0.1-0.1,0.2c0,0,0,0,0,0L29.6,51.3C29.4,51.4,29.3,51.5,29.1,51.5z M19.1,35c0.2,0,0.4,0.1,0.6,0.3l9.5,14.5l31.7-35.9
			L3.1,13.9l10,12.2c0.1,0.1,0.2,0.3,0.2,0.5l-0.4,10.1l6-1.7C19,35,19,35,19.1,35z"/>
	</g>
	<g>
		<g>
			<g>
				<path class="st2" d="M62.2,13.2"/>
			</g>
		</g>
		<g>
			<g>
				<path class="st1" d="M12.6,27.2c-0.3,0-0.6-0.2-0.6-0.5c-0.1-0.4,0.1-0.7,0.5-0.8l49.7-13.4c0.4-0.1,0.7,0.1,0.8,0.5
					c0.1,0.4-0.1,0.7-0.5,0.8L12.8,27.2C12.7,27.2,12.7,27.2,12.6,27.2z"/>
			</g>
		</g>
		<g>
			<g>
				<path class="st1" d="M12.2,38.3c-0.2,0-0.3-0.1-0.4-0.2c-0.3-0.2-0.3-0.7-0.1-0.9l5.2-6.1c0.1-0.1,0.2-0.1,0.3-0.2l45-18.4
					c0.3-0.1,0.7,0,0.9,0.4c0.1,0.3,0,0.7-0.4,0.9L17.8,32.1L12.7,38C12.6,38.2,12.4,38.3,12.2,38.3z"/>
			</g>
		</g>
	</g>
</g>
</svg>
