<?xml version="1.0" encoding="utf-8"?>
<!-- Generator: Adobe Illustrator 19.2.1, SVG Export Plug-In . SVG Version: 6.00 Build 0)  -->
<svg version="1.1" id="Layer_1" xmlns="http://www.w3.org/2000/svg" xmlns:xlink="http://www.w3.org/1999/xlink" x="0px" y="0px"
	 viewBox="0 0 64 64" style="enable-background:new 0 0 64 64;" xml:space="preserve">
<metadata><?xpacket begin="﻿" id="W5M0MpCehiHzreSzNTczkc9d"?>
<x:xmpmeta xmlns:x="adobe:ns:meta/" x:xmptk="Adobe XMP Core 5.6-c111 79.158366, 2015/09/25-01:12:00        ">
   <rdf:RDF xmlns:rdf="http://www.w3.org/1999/02/22-rdf-syntax-ns#">
      <rdf:Description rdf:about=""/>
   </rdf:RDF>
</x:xmpmeta>
                                                                                                    
                                                                                                    
                                                                                                    
                                                                                                    
                                                                                                    
                                                                                                    
                                                                                                    
                                                                                                    
                                                                                                    
                                                                                                    
                                                                                                    
                                                                                                    
                                                                                                    
                                                                                                    
                                                                                                    
                                                                                                    
                                                                                                    
                                                                                                    
                                                                                                    
                                                                                                    
                           
<?xpacket end="w"?></metadata>
<style type="text/css">
	.st0{fill:none;}
	.st1{fill:#5B554D;}
</style>
<rect class="st0" width="64" height="64"/>
<g>
	<g>
		<g>
			<path class="st1" d="M10.5,63c-1.3,0-2.3-1-2.3-2.2s1-2.3,2.3-2.3H55c0.5,0,0.9,0.4,0.9,0.9v2.7c0,0.5-0.4,0.9-0.9,0.9L10.5,63
				C10.5,63,10.5,63,10.5,63z M10.5,60.3c-0.3,0-0.5,0.2-0.5,0.5s0.2,0.5,0.5,0.5l0,0h43.6v-1H10.5z"/>
		</g>
		<g>
			<g>
				<path class="st1" d="M54.9,60.4c-0.5,0-0.9-0.4-0.9-0.9V2.8H9.9v56.7c0,0.5-0.4,0.9-0.9,0.9S8.2,60,8.2,59.5V1.9
					C8.2,1.4,8.6,1,9.1,1H55c0.5,0,0.9,0.4,0.9,0.9v57.6C55.8,60,55.4,60.4,54.9,60.4z"/>
			</g>
			<g>
				<path class="st1" d="M32.5,40.6c1.5,0.1,3,0.4,4.4,0.9c0.4-1.5,0.7-3.3,0.7-5.1h-5.1C32.5,36.4,32.5,40.6,32.5,40.6z"/>
				<path class="st1" d="M28.1,27.4c-0.3,0.6-0.5,1.2-0.7,1.8c1.2,0.5,2.6,0.8,4.1,0.9v-5.2c-0.5,0-1.1,0.1-1.6,0.2
					C29.2,25.6,28.7,26.4,28.1,27.4z"/>
				<path class="st1" d="M36,25.6c0.3,0.4,0.6,0.9,0.8,1.4c0.3,0.6,0.5,1.2,0.8,1.8c0.6-0.3,1.2-0.7,1.8-1.1
					C38.4,26.8,37.3,26,36,25.6z"/>
				<path class="st1" d="M31.5,31.1c-1.5-0.1-3-0.4-4.4-0.9c-0.4,1.6-0.6,3.3-0.7,5.1h5.1V31.1z"/>
				<path class="st1" d="M27.4,42.5c0.2,0.6,0.4,1.2,0.7,1.7c0.6,1.2,1.2,2,2,2.6c0.4,0.1,0.9,0.1,1.4,0.2v-5.2
					C30,41.8,28.7,42,27.4,42.5z"/>
				<path class="st1" d="M36.6,29.2c-0.2-0.6-0.5-1.2-0.7-1.8c-0.5-1-1.1-1.8-1.8-2.4c-0.5-0.1-1-0.2-1.6-0.2V30
					C34,30,35.4,29.7,36.6,29.2z"/>
				<path class="st1" d="M36.9,30.3c-1.4,0.5-2.9,0.8-4.4,0.9v4.2h5.1C37.6,33.5,37.3,31.8,36.9,30.3z"/>
				<path class="st1" d="M31.5,40.6v-4.2h-5.1c0,1.8,0.3,3.5,0.7,5.1C28.5,41,29.9,40.7,31.5,40.6z"/>
				<path class="st1" d="M35.9,44.2c0.3-0.5,0.5-1.1,0.7-1.7c-1.2-0.5-2.6-0.8-4-0.8v5.2c0.5,0,0.9-0.1,1.4-0.2
					C34.6,46.2,35.3,45.4,35.9,44.2z"/>
				<path class="st1" d="M38.7,36.4c0,2-0.3,3.8-0.8,5.5c0.8,0.4,1.6,0.9,2.3,1.4c1.7-1.8,2.8-4.3,2.9-6.9H38.7z"/>
				<path class="st1" d="M37.9,29.8c0.5,1.7,0.7,3.6,0.8,5.5h4.4c-0.1-2.7-1.2-5.1-2.9-6.9C39.5,28.9,38.7,29.4,37.9,29.8z"/>
				<path class="st1" d="M26.4,28.8c0.2-0.7,0.5-1.3,0.8-1.8s0.5-1,0.8-1.4c-1.2,0.5-2.4,1.2-3.3,2.1C25.2,28.1,25.7,28.4,26.4,28.8
					z"/>
				<path class="st1" d="M37.6,43c-0.2,0.6-0.5,1.2-0.7,1.7c-0.3,0.6-0.6,1.1-0.9,1.5c1.3-0.5,2.5-1.2,3.5-2.1
					C38.8,43.7,38.2,43.3,37.6,43z"/>
				<path class="st1" d="M27.2,44.7c-0.3-0.5-0.5-1.1-0.7-1.7c-0.7,0.3-1.3,0.7-1.8,1.2c1,0.9,2.2,1.6,3.5,2.1
					C27.8,45.8,27.4,45.3,27.2,44.7z"/>
				<path class="st1" d="M25.3,35.3c0-2,0.3-3.8,0.8-5.5c-0.8-0.4-1.5-0.9-2.2-1.4c-1.7,1.8-2.8,4.3-2.9,6.9H25.3z"/>
				<path class="st1" d="M26.1,41.9c-0.5-1.7-0.7-3.6-0.8-5.5h-4.4c0.1,2.7,1.2,5.1,2.9,6.9C24.5,42.8,25.3,42.3,26.1,41.9z"/>
			</g>
			<g>
				<path class="st1" d="M19.9,13.4v0.8c0,1-0.5,1.6-1.5,1.6h-0.5v2.4h-1v-6.3h1.5C19.4,11.9,19.9,12.4,19.9,13.4z M17.9,12.8v2.1
					h0.5c0.3,0,0.5-0.1,0.5-0.6v-0.9c0-0.4-0.2-0.6-0.5-0.6C18.4,12.8,17.9,12.8,17.9,12.8z"/>
				<path class="st1" d="M23.9,18.2h-1L22.7,17h-1.2l-0.2,1.1h-0.9l1-6.3h1.4L23.9,18.2z M21.6,16.2h1L22.1,13L21.6,16.2z"/>
				<path class="st1" d="M26.1,11.8c1,0,1.5,0.6,1.5,1.6v0.2h-0.9v-0.3c0-0.5-0.2-0.6-0.5-0.6s-0.5,0.2-0.5,0.6
					c0,1.3,1.9,1.5,1.9,3.3c0,1-0.5,1.6-1.5,1.6s-1.5-0.6-1.5-1.6v-0.4h0.9v0.4c0,0.5,0.2,0.6,0.5,0.6s0.5-0.2,0.5-0.6
					c0-1.3-1.9-1.5-1.9-3.3C24.6,12.4,25.1,11.8,26.1,11.8z"/>
				<path class="st1" d="M29.9,11.8c1,0,1.5,0.6,1.5,1.6v0.2h-0.9v-0.3c0-0.5-0.2-0.6-0.5-0.6s-0.5,0.2-0.5,0.6
					c0,1.3,1.9,1.5,1.9,3.3c0,1-0.5,1.6-1.5,1.6s-1.5-0.6-1.5-1.6v-0.4h0.9v0.4c0,0.5,0.2,0.6,0.5,0.6s0.5-0.2,0.5-0.6
					c0-1.3-1.9-1.5-1.9-3.3C28.4,12.4,28.9,11.8,29.9,11.8z"/>
				<path class="st1" d="M35.3,13.4v0.8c0,1-0.5,1.6-1.5,1.6h-0.5v2.4h-1v-6.3h1.5C34.8,11.9,35.3,12.4,35.3,13.4z M33.4,12.8v2.1
					h0.5c0.3,0,0.5-0.1,0.5-0.6v-0.9c0-0.4-0.2-0.6-0.5-0.6C33.9,12.8,33.4,12.8,33.4,12.8z"/>
				<path class="st1" d="M36.1,13.4c0-1,0.5-1.6,1.5-1.6s1.5,0.6,1.5,1.6v3.3c0,1-0.5,1.6-1.5,1.6s-1.5-0.6-1.5-1.6V13.4z
					 M37.1,16.7c0,0.5,0.2,0.6,0.5,0.6s0.5-0.2,0.5-0.6v-3.4c0-0.5-0.2-0.6-0.5-0.6s-0.5,0.2-0.5,0.6V16.7z"/>
				<path class="st1" d="M42.3,18.2c-0.1-0.2-0.1-0.3-0.1-0.8v-1c0-0.6-0.2-0.8-0.6-0.8h-0.3v2.6h-1v-6.3h1.5c1,0,1.5,0.5,1.5,1.4
					v0.5c0,0.6-0.2,1.1-0.6,1.3c0.5,0.2,0.7,0.7,0.7,1.3v1c0,0.3,0,0.5,0.1,0.8C43.5,18.2,42.3,18.2,42.3,18.2z M41.2,12.8v1.9h0.4
					c0.4,0,0.6-0.2,0.6-0.7v-0.6c0-0.5-0.2-0.6-0.5-0.6C41.7,12.8,41.2,12.8,41.2,12.8z"/>
				<path class="st1" d="M44,11.9h3.1v0.9h-1v5.4h-1v-5.4h-1L44,11.9L44,11.9z"/>
			</g>
		</g>
	</g>
</g>
</svg>
