<?xml version="1.0" encoding="utf-8"?>
<!-- Generator: Adobe Illustrator 19.2.1, SVG Export Plug-In . SVG Version: 6.00 Build 0)  -->
<svg version="1.1" id="Layer_1" xmlns="http://www.w3.org/2000/svg" xmlns:xlink="http://www.w3.org/1999/xlink" x="0px" y="0px"
	 viewBox="0 0 64 64" style="enable-background:new 0 0 64 64;" xml:space="preserve">
<metadata><?xpacket begin="﻿" id="W5M0MpCehiHzreSzNTczkc9d"?>
<x:xmpmeta xmlns:x="adobe:ns:meta/" x:xmptk="Adobe XMP Core 5.6-c111 79.158366, 2015/09/25-01:12:00        ">
   <rdf:RDF xmlns:rdf="http://www.w3.org/1999/02/22-rdf-syntax-ns#">
      <rdf:Description rdf:about=""/>
   </rdf:RDF>
</x:xmpmeta>
                                                                                                    
                                                                                                    
                                                                                                    
                                                                                                    
                                                                                                    
                                                                                                    
                                                                                                    
                                                                                                    
                                                                                                    
                                                                                                    
                                                                                                    
                                                                                                    
                                                                                                    
                                                                                                    
                                                                                                    
                                                                                                    
                                                                                                    
                                                                                                    
                                                                                                    
                                                                                                    
                           
<?xpacket end="w"?></metadata>
<style type="text/css">
	.st0{fill:none;}
	.st1{fill:#5B554D;}
</style>
<rect class="st0" width="64" height="64"/>
<g>
	<g>
		<g>
			<g>
				<path class="st1" d="M42.5,56.6h-21c-0.4,0-0.8-0.4-0.8-0.8v-4.9L8.9,38.4c-0.2-0.3-0.3-0.7-0.1-1L30.3,1.4
					c0.2-0.3,0.6-0.5,0.9-0.4c0.3,0.1,0.6,0.4,0.6,0.8v25.3c0,0.4-0.2,0.7-0.6,0.8c-0.9,0.3-1.6,1.1-1.6,2.1c0,1.2,1,2.2,2.2,2.2
					c1.2,0,2.2-1,2.2-2.2c0-1-0.3-1.5-1.2-1.7c-0.3-0.1-0.6-0.4-0.6-0.8l0.1-25.2c0-0.4,0.2-0.7,0.6-0.8c0.3-0.1,0.7,0.1,0.9,0.4
					l21,35.6c0.2,0.3,0.1,0.7-0.1,1L43.3,50.8v4.9C43.3,56.2,42.9,56.6,42.5,56.6z M22.3,55h19.4v-4.4c0-0.2,0.1-0.4,0.2-0.5
					l11.3-12.2L34,5.2l-0.1,21.7c1.2,0.5,1.8,1.6,1.8,3.1c0,2.1-1.7,3.8-3.8,3.8c-2.1,0-3.8-1.7-3.8-3.8c0-1.5,0.8-2.8,2.1-3.4V4.7
					l-19.7,33L22.1,50c0.1,0.1,0.2,0.3,0.2,0.6V55z"/>
			</g>
		</g>
		<g>
			<g>
				<path class="st1" d="M56.1,63H7.9c-0.2,0-0.5-0.1-0.6-0.3c-0.2-0.2-0.2-0.4-0.2-0.7l1.4-6.3c0.1-0.4,0.4-0.6,0.8-0.6h45.4
					c0.4,0,0.7,0.3,0.8,0.6l1.4,6.3c0.1,0.2,0,0.5-0.2,0.7C56.6,62.9,56.4,63,56.1,63z M8.9,61.4h46.2l-1-4.7H9.9L8.9,61.4z"/>
			</g>
		</g>
	</g>
	<g>
		<path class="st1" d="M32,56.6c-0.4,0-0.8-0.4-0.8-0.8V32.9c0-0.4,0.4-0.8,0.8-0.8s0.8,0.4,0.8,0.8v22.8
			C32.8,56.2,32.4,56.6,32,56.6z"/>
	</g>
</g>
</svg>
