<?xml version="1.0" encoding="utf-8"?>
<!-- Generator: Adobe Illustrator 19.2.1, SVG Export Plug-In . SVG Version: 6.00 Build 0)  -->
<svg version="1.1" id="Layer_1" xmlns="http://www.w3.org/2000/svg" xmlns:xlink="http://www.w3.org/1999/xlink" x="0px" y="0px"
	 viewBox="0 0 64 64" style="enable-background:new 0 0 64 64;" xml:space="preserve">
<metadata><?xpacket begin="﻿" id="W5M0MpCehiHzreSzNTczkc9d"?>
<x:xmpmeta xmlns:x="adobe:ns:meta/" x:xmptk="Adobe XMP Core 5.6-c111 79.158366, 2015/09/25-01:12:00        ">
   <rdf:RDF xmlns:rdf="http://www.w3.org/1999/02/22-rdf-syntax-ns#">
      <rdf:Description rdf:about=""/>
   </rdf:RDF>
</x:xmpmeta>
                                                                                                    
                                                                                                    
                                                                                                    
                                                                                                    
                                                                                                    
                                                                                                    
                                                                                                    
                                                                                                    
                                                                                                    
                                                                                                    
                                                                                                    
                                                                                                    
                                                                                                    
                                                                                                    
                                                                                                    
                                                                                                    
                                                                                                    
                                                                                                    
                                                                                                    
                                                                                                    
                           
<?xpacket end="w"?></metadata>
<style type="text/css">
	.st0{fill:none;}
	.st1{fill:#5B554D;}
</style>
<rect class="st0" width="64" height="64"/>
<g>
	<g>
		<g>
			<path class="st1" d="M36.5,60.9H4.5c-1.1,0-2.2-0.5-2.8-1.3c-0.6-0.8-0.8-1.9-0.6-3c0,0,0.1-0.5,0.3-1.2c1-4.4,3.8-14.3,5.6-17
				c3.4-5,9.3-4.8,9.6-4.8l6,0c0.3,0,8.1-0.2,11,5c2.2,2.8,5.2,13.4,6.1,17.3l0.1,0.7c0.3,1.1,0.1,2.2-0.5,3
				C38.7,60.5,37.7,60.9,36.5,60.9z M16.5,35.3c-0.6,0-5.3,0.1-8.1,4.1c-1.5,2.1-4.1,10.9-5.4,16.5C2.9,56.5,2.8,57,2.8,57
				c-0.2,0.7-0.1,1.2,0.2,1.6c0.3,0.4,0.8,0.6,1.4,0.6h32.1c0.6,0,1.1-0.2,1.4-0.6c0.3-0.4,0.4-0.9,0.2-1.5c0,0,0,0,0-0.1L38,56.4
				c-1-4.5-4-14.4-5.8-16.7c0,0-0.1-0.1-0.1-0.1c-2.4-4.4-9.4-4.2-9.5-4.2L16.5,35.3C16.5,35.3,16.5,35.3,16.5,35.3z M20.4,30.7
				c-7.3,0-13.3-6-13.3-13.3c0-7.3,6-13.3,13.3-13.3c7.3,0,13.3,6,13.3,13.3C33.7,24.8,27.8,30.7,20.4,30.7z M20.4,5.9
				C14,5.9,8.9,11.1,8.9,17.4C8.9,23.8,14,29,20.4,29C26.8,29,32,23.8,32,17.4C32,11.1,26.8,5.9,20.4,5.9z"/>
		</g>
	</g>
	<g>
		<g>
			<path class="st1" d="M60.4,60.9h-17c-0.5,0-0.9-0.4-0.9-0.9s0.4-0.9,0.9-0.9h17c0.3,0,0.6-0.1,0.7-0.3c0.1-0.2,0.2-0.4,0.1-0.7
				l-0.1-0.5c-0.7-2.9-2.6-9.4-3.8-10.8c0,0-0.1-0.1-0.1-0.1c-1.5-2.7-5.9-2.6-6-2.6h-4c-0.2,0-3.3-0.1-5.1,2.5
				c0,0.1-0.1,0.2-0.1,0.3c0,0-0.1,0.1-0.1,0.1c-0.2,0.4-0.7,0.6-1.2,0.4c-0.4-0.2-0.6-0.7-0.4-1.2c0.1-0.3,0.2-0.4,0.3-0.5
				c2.4-3.4,6.4-3.3,6.5-3.3l3.9,0c0.2,0,5.5-0.1,7.5,3.5c1.5,2,3.5,9.2,4.1,11.5l0.1,0.5c0.2,0.7,0.1,1.6-0.4,2.2
				C62,60.5,61.3,60.9,60.4,60.9z M49.8,41c-5,0-9-4.1-9-9c0-5,4.1-9,9-9c5,0,9.1,4.1,9.1,9C58.9,37,54.8,41,49.8,41z M49.8,24.6
				c-4,0-7.3,3.3-7.3,7.3c0,4,3.3,7.3,7.3,7.3c4,0,7.3-3.3,7.3-7.3C57.2,27.9,53.9,24.6,49.8,24.6z"/>
		</g>
	</g>
	<g>
		<path class="st1" d="M47.2,20.6c-5.6,0-8.9-3.8-12.4-7.8l-0.4-0.4c-0.3-0.3-0.3-0.8,0-1.1c4.4-5.1,8-8.2,12.7-8.2
			c5.6,0,9.8,4.5,12.8,8.3c0.2,0.3,0.2,0.8,0,1.1l-0.3,0.3C56.9,15.9,52.8,20.6,47.2,20.6z M36.3,11.8c3.4,4,6.2,7.1,10.9,7.1
			c4.7,0,8.3-4,11-7c-2.7-3.4-6.3-7.1-11-7.1C43.3,4.8,40.2,7.4,36.3,11.8z"/>
	</g>
	<ellipse class="st1" cx="47.2" cy="11.8" rx="3" ry="2.9"/>
</g>
</svg>
