<?xml version="1.0" encoding="utf-8"?>
<!-- Generator: Adobe Illustrator 19.2.1, SVG Export Plug-In . SVG Version: 6.00 Build 0)  -->
<svg version="1.1" id="Layer_1" xmlns="http://www.w3.org/2000/svg" xmlns:xlink="http://www.w3.org/1999/xlink" x="0px" y="0px"
	 viewBox="0 0 64 64" style="enable-background:new 0 0 64 64;" xml:space="preserve">
<metadata><?xpacket begin="﻿" id="W5M0MpCehiHzreSzNTczkc9d"?>
<x:xmpmeta xmlns:x="adobe:ns:meta/" x:xmptk="Adobe XMP Core 5.6-c111 79.158366, 2015/09/25-01:12:00        ">
   <rdf:RDF xmlns:rdf="http://www.w3.org/1999/02/22-rdf-syntax-ns#">
      <rdf:Description rdf:about=""/>
   </rdf:RDF>
</x:xmpmeta>
                                                                                                    
                                                                                                    
                                                                                                    
                                                                                                    
                                                                                                    
                                                                                                    
                                                                                                    
                                                                                                    
                                                                                                    
                                                                                                    
                                                                                                    
                                                                                                    
                                                                                                    
                                                                                                    
                                                                                                    
                                                                                                    
                                                                                                    
                                                                                                    
                                                                                                    
                                                                                                    
                           
<?xpacket end="w"?></metadata>
<style type="text/css">
	.st0{fill:none;}
	.st1{fill:#5B554D;}
</style>
<rect class="st0" width="64" height="64"/>
<g>
	<g>
		<g>
			<path class="st1" d="M13.3,47H3.6c-0.9,0-1.6-0.4-2.1-1c-0.5-0.6-0.6-1.4-0.4-2.3c0,0,0.1-0.3,0.2-0.9c0.7-3.1,2.7-10.1,4-12.1
				c2.5-3.6,6.7-3.5,6.9-3.5l4.2,0c0.2,0,5.8-0.1,7.9,3.6c0.1,0.1,0.1,0.2,0.2,0.3c0.2,0.4,0.1,0.9-0.2,1.1
				c-0.4,0.2-0.9,0.1-1.1-0.2c0-0.1-0.1-0.2-0.1-0.2c0,0,0-0.1-0.1-0.1c-1.6-3-6.5-2.9-6.5-2.9h-4.3c-0.1,0-3.6-0.1-5.6,2.8
				c-1,1.5-2.8,7.7-3.8,11.5c-0.1,0.5-0.2,0.7-0.2,0.8c-0.1,0.4-0.1,0.8,0.1,1c0.2,0.2,0.5,0.4,0.9,0.4h9.7c0.4,0,0.8,0.4,0.8,0.8
				S13.7,47,13.3,47z M14.9,25.8c-5.3,0-9.6-4.3-9.6-9.6c0-5.3,4.3-9.6,9.6-9.6c2,0,3.9,0.6,5.6,1.8c0.4,0.3,0.4,0.8,0.2,1.1
				c-0.3,0.4-0.8,0.4-1.1,0.2c-1.4-1-3-1.5-4.7-1.5c-4.4,0-8,3.6-8,8c0,4.4,3.6,8,8,8c1.1,0,2.1-0.2,3.1-0.6c0.4-0.2,0.9,0,1,0.4
				c0.2,0.4,0,0.9-0.4,1C17.4,25.5,16.2,25.8,14.9,25.8z"/>
		</g>
	</g>
	<g>
		<g>
			<path class="st1" d="M60.4,47h-9.8c-0.4,0-0.8-0.4-0.8-0.8s0.4-0.8,0.8-0.8h9.8c0.4,0,0.7-0.1,0.8-0.4c0.2-0.2,0.2-0.5,0.1-0.9
				l-0.1-0.5c-0.7-3.1-2.8-10.1-4.1-11.7c0,0-0.1-0.1-0.1-0.1c-1.6-3-6.5-2.9-6.5-2.9h-4.3c-0.1,0-3.6-0.1-5.6,2.8
				c-0.1,0.1-0.2,0.3-0.3,0.5c-0.2,0.4-0.7,0.5-1.1,0.3c-0.4-0.2-0.5-0.7-0.3-1.1c0.1-0.2,0.3-0.5,0.4-0.6c2.5-3.6,6.7-3.5,6.9-3.4
				l4.2,0c0.2,0,5.8-0.1,7.9,3.6c1.6,2.1,3.8,9.8,4.3,12.3l0.1,0.5c0.2,0.8,0.1,1.6-0.4,2.2C62,46.7,61.3,47,60.4,47z M49.1,25.8
				c-1.3,0-2.6-0.3-3.8-0.8c-0.4-0.2-0.6-0.6-0.4-1s0.6-0.6,1-0.4c1,0.4,2.1,0.6,3.1,0.6c4.4,0,8-3.6,8-8c0-4.4-3.6-8-8-8
				c-1.7,0-3.3,0.5-4.7,1.5C44,10,43.5,10,43.3,9.6c-0.3-0.4-0.2-0.8,0.2-1.1c1.7-1.2,3.6-1.8,5.6-1.8c5.3,0,9.6,4.3,9.6,9.6
				C58.6,21.5,54.3,25.8,49.1,25.8z"/>
		</g>
	</g>
	<g>
		<g>
			<path class="st1" d="M46.8,58.3H17.1c-1.1,0-2-0.4-2.6-1.2c-0.6-0.7-0.8-1.8-0.5-2.8c0,0,0.1-0.4,0.2-1.1
				c1-4.1,3.5-13.3,5.2-15.8c3.2-4.6,8.6-4.4,8.9-4.4l5.6,0c0.3,0,7.5-0.2,10.2,4.7c2,2.6,4.8,12.4,5.7,16.1l0.1,0.6
				c0.3,1,0.1,2-0.5,2.8C48.8,57.8,47.8,58.3,46.8,58.3z M28.3,34.6c-0.6,0-4.9,0.1-7.5,3.8c-1.4,2.1-3.8,10.3-5,15.2
				c-0.2,0.6-0.2,1-0.2,1c-0.2,0.6-0.1,1.1,0.2,1.5c0.3,0.4,0.8,0.6,1.3,0.6h29.7c0.6,0,1-0.2,1.3-0.6c0.3-0.4,0.4-0.9,0.2-1.4
				c0,0,0,0,0-0.1L48.2,54c-1-4.1-3.7-13.3-5.4-15.5c0,0-0.1-0.1-0.1-0.1c-2.2-4-8.7-3.9-8.8-3.9L28.3,34.6
				C28.3,34.6,28.3,34.6,28.3,34.6z M31.9,30.3c-6.8,0-12.3-5.5-12.3-12.3c0-6.8,5.5-12.3,12.3-12.3c6.8,0,12.3,5.5,12.3,12.3
				C44.2,24.8,38.7,30.3,31.9,30.3z M31.9,7.3C26,7.3,21.2,12.1,21.2,18c0,5.9,4.8,10.7,10.7,10.7c5.9,0,10.7-4.8,10.7-10.7
				C42.6,12.1,37.8,7.3,31.9,7.3z"/>
		</g>
	</g>
</g>
</svg>
