<?xml version="1.0" encoding="utf-8"?>
<!-- Generator: Adobe Illustrator 19.2.1, SVG Export Plug-In . SVG Version: 6.00 Build 0)  -->
<svg version="1.1" id="Layer_1" xmlns="http://www.w3.org/2000/svg" xmlns:xlink="http://www.w3.org/1999/xlink" x="0px" y="0px"
	 viewBox="0 0 64 64" style="enable-background:new 0 0 64 64;" xml:space="preserve">
<metadata><?xpacket begin="﻿" id="W5M0MpCehiHzreSzNTczkc9d"?>
<x:xmpmeta xmlns:x="adobe:ns:meta/" x:xmptk="Adobe XMP Core 5.6-c111 79.158366, 2015/09/25-01:12:00        ">
   <rdf:RDF xmlns:rdf="http://www.w3.org/1999/02/22-rdf-syntax-ns#">
      <rdf:Description rdf:about=""/>
   </rdf:RDF>
</x:xmpmeta>
                                                                                                    
                                                                                                    
                                                                                                    
                                                                                                    
                                                                                                    
                                                                                                    
                                                                                                    
                                                                                                    
                                                                                                    
                                                                                                    
                                                                                                    
                                                                                                    
                                                                                                    
                                                                                                    
                                                                                                    
                                                                                                    
                                                                                                    
                                                                                                    
                                                                                                    
                                                                                                    
                           
<?xpacket end="w"?></metadata>
<style type="text/css">
	.st0{fill:none;}
	.st1{fill:#5B554D;}
</style>
<rect class="st0" width="64" height="64"/>
<g>
	<g>
		<g>
			<path class="st1" d="M49.5,63h-35c-1.2,0-2.4-0.5-3-1.4c-0.7-0.9-0.9-2.1-0.6-3.3c0,0,0.1-0.5,0.3-1.3c1.1-4.8,4.1-15.7,6.1-18.6
				c3.8-5.4,10.2-5.2,10.4-5.2l6.5,0c0.3,0,8.8-0.2,12,5.5c2.4,3.1,5.7,14.6,6.7,18.9l0.1,0.7c0.3,1.2,0.1,2.4-0.6,3.3
				C51.9,62.5,50.8,63,49.5,63z M27.6,35.1c-0.7,0-5.8,0.1-8.8,4.4c-1.6,2.3-4.5,11.9-5.9,18c-0.2,0.8-0.3,1.2-0.3,1.2
				c-0.2,0.7-0.1,1.3,0.2,1.8c0.3,0.4,0.9,0.7,1.6,0.7h35c0.7,0,1.2-0.2,1.5-0.7c0.3-0.4,0.4-1,0.2-1.6c0,0,0,0,0-0.1L51.1,58
				c-1.1-4.9-4.4-15.7-6.4-18.2c0,0-0.1-0.1-0.1-0.1c-2.6-4.7-10.3-4.6-10.3-4.6L27.6,35.1C27.7,35.1,27.7,35.1,27.6,35.1z M31.9,30
				c-8,0-14.5-6.5-14.5-14.5c0-8,6.5-14.5,14.5-14.5c8,0,14.5,6.5,14.5,14.5C46.5,23.5,40,30,31.9,30z M31.9,2.9
				c-7,0-12.6,5.7-12.6,12.6c0,7,5.7,12.6,12.6,12.6c7,0,12.6-5.7,12.6-12.6C44.6,8.6,38.9,2.9,31.9,2.9z"/>
		</g>
	</g>
</g>
</svg>
