<?xml version="1.0" encoding="utf-8"?>
<!-- Generator: Adobe Illustrator 19.2.1, SVG Export Plug-In . SVG Version: 6.00 Build 0)  -->
<svg version="1.1" id="Layer_1" xmlns="http://www.w3.org/2000/svg" xmlns:xlink="http://www.w3.org/1999/xlink" x="0px" y="0px"
	 viewBox="0 0 64 64" style="enable-background:new 0 0 64 64;" xml:space="preserve">
<metadata><?xpacket begin="﻿" id="W5M0MpCehiHzreSzNTczkc9d"?>
<x:xmpmeta xmlns:x="adobe:ns:meta/" x:xmptk="Adobe XMP Core 5.6-c111 79.158366, 2015/09/25-01:12:00        ">
   <rdf:RDF xmlns:rdf="http://www.w3.org/1999/02/22-rdf-syntax-ns#">
      <rdf:Description rdf:about=""/>
   </rdf:RDF>
</x:xmpmeta>
                                                                                                    
                                                                                                    
                                                                                                    
                                                                                                    
                                                                                                    
                                                                                                    
                                                                                                    
                                                                                                    
                                                                                                    
                                                                                                    
                                                                                                    
                                                                                                    
                                                                                                    
                                                                                                    
                                                                                                    
                                                                                                    
                                                                                                    
                                                                                                    
                                                                                                    
                                                                                                    
                           
<?xpacket end="w"?></metadata>
<style type="text/css">
	.st0{fill:none;}
	.st1{fill:#5B554D;}
</style>
<rect class="st0" width="64" height="64"/>
<g>
	<g>
		<g>
			<path class="st1" d="M46.1,63c-5.4,0-14.1-2.5-25.7-13.7C4.1,33.6,5.3,22.2,8.2,18.3l3.1-3.6c0.5-0.5,1.2-0.8,1.8-0.9
				c0.7,0,1.3,0.2,1.9,0.7l9.6,9.3c0,0,0.1,0.1,0.1,0.1c0.9,0.9,2.3,2.4,1.3,3.6c0,0.1-0.1,0.1-0.1,0.2L22,31.4c0,0,0,0,0,0
				c-0.9,1.2,0.2,3,2.2,5.3c2.5,2.9,5.6,5.8,8.7,8.2c4,3.1,5.7,4.1,6.8,3.2c0-0.1,0.1-0.1,0.1-0.1l3.3-3.5c1-1.1,2.8-1.1,3.9-0.1
				l9.7,9c0,0,0.1,0.1,0.1,0.1c1,1.1,0.9,2.7-0.1,3.8l-3.4,3.5c-0.9,1-3.2,2.2-6.8,2.3C46.4,63,46.3,63,46.1,63z M13.2,15.5
				C13.2,15.5,13.2,15.5,13.2,15.5c-0.3,0-0.5,0.1-0.7,0.3l-3.1,3.5c-2,2.7-4,13.3,12.1,28.8c11.6,11.2,20,13.3,25,13.2
				c3.2-0.1,5.1-1.2,5.6-1.7l3.4-3.5c0.4-0.5,0.5-1.1,0-1.5c0,0,0,0,0,0l-9.7-9c-0.4-0.4-1.2-0.4-1.5,0l-3.2,3.3
				c0,0.1-0.1,0.1-0.1,0.2c-2.3,2.4-5.3,0.1-9.2-2.9c-3.3-2.5-6.5-5.5-9-8.5c-1.5-1.7-4.3-5-2.1-7.5c0.1-0.1,0.1-0.1,0.2-0.2
				l3.6-3.4c0,0,0,0,0,0c0-0.1-0.2-0.5-1.2-1.5c0,0-0.1-0.1-0.1-0.1l-9.5-9.2C13.6,15.6,13.4,15.5,13.2,15.5z"/>
		</g>
		<g>
			<path class="st1" d="M28.9,20.5l-0.4-0.7l-0.3-0.8l0.1,0l9.4-5.1c0.4-0.2,0.9-0.1,1.1,0.3c0.2,0.4,0.1,0.9-0.3,1.1L28.9,20.5z
				 M24.5,16.8c-0.2,0-0.3,0-0.5-0.2c-0.4-0.3-0.5-0.8-0.2-1.2l6.3-8.8c0.3-0.4,0.8-0.5,1.2-0.2c0.4,0.3,0.5,0.8,0.2,1.2l-6.3,8.8
				C25,16.6,24.7,16.8,24.5,16.8z M19.3,13.2c-0.1,0-0.1,0-0.2,0c-0.4-0.1-0.7-0.5-0.6-1l2.4-10.5c0.1-0.4,0.5-0.7,1-0.6
				c0.4,0.1,0.7,0.5,0.6,1l-2.4,10.5C20,12.9,19.7,13.2,19.3,13.2z"/>
		</g>
	</g>
	<g>
		<path class="st1" d="M21,31.7c-0.2,0-0.4-0.1-0.6-0.2l-12-11.9c-0.3-0.3-0.3-0.9,0-1.2c0.3-0.3,0.9-0.3,1.2,0l12,11.9
			c0.3,0.3,0.3,0.9,0,1.2C21.5,31.7,21.3,31.7,21,31.7z"/>
	</g>
	<g>
		<path class="st1" d="M52.8,61c-0.2,0-0.4-0.1-0.6-0.2L39.9,49.6c-0.3-0.3-0.4-0.8-0.1-1.2c0.3-0.3,0.8-0.4,1.2-0.1l12.3,11.2
			c0.3,0.3,0.4,0.8,0.1,1.2C53.2,60.9,53,61,52.8,61z"/>
	</g>
</g>
</svg>
