<?xml version="1.0" encoding="utf-8"?>
<!-- Generator: Adobe Illustrator 19.2.1, SVG Export Plug-In . SVG Version: 6.00 Build 0)  -->
<svg version="1.1" id="Layer_1" xmlns="http://www.w3.org/2000/svg" xmlns:xlink="http://www.w3.org/1999/xlink" x="0px" y="0px"
	 viewBox="0 0 64 64" style="enable-background:new 0 0 64 64;" xml:space="preserve">
<metadata><?xpacket begin="﻿" id="W5M0MpCehiHzreSzNTczkc9d"?>
<x:xmpmeta xmlns:x="adobe:ns:meta/" x:xmptk="Adobe XMP Core 5.6-c111 79.158366, 2015/09/25-01:12:00        ">
   <rdf:RDF xmlns:rdf="http://www.w3.org/1999/02/22-rdf-syntax-ns#">
      <rdf:Description rdf:about=""/>
   </rdf:RDF>
</x:xmpmeta>
                                                                                                    
                                                                                                    
                                                                                                    
                                                                                                    
                                                                                                    
                                                                                                    
                                                                                                    
                                                                                                    
                                                                                                    
                                                                                                    
                                                                                                    
                                                                                                    
                                                                                                    
                                                                                                    
                                                                                                    
                                                                                                    
                                                                                                    
                                                                                                    
                                                                                                    
                                                                                                    
                           
<?xpacket end="w"?></metadata>
<style type="text/css">
	.st0{fill:none;}
	.st1{fill:#5B554D;}
</style>
<rect class="st0" width="64" height="64"/>
<g>
	<path class="st1" d="M59.7,3.1v57.9H4.3V3.1H59.7 M59.7,1H4.3C3.2,1,2.2,1.9,2.2,3.1v57.9c0,1.1,0.9,2.1,2.1,2.1h55.4
		c1.1,0,2.1-0.9,2.1-2.1V3.1C61.8,1.9,60.8,1,59.7,1L59.7,1z"/>
	<g>
		<path class="st1" d="M54.9,50H9.1c-0.6,0-1-0.5-1-1V7.9c0-0.6,0.5-1,1-1h45.8c0.6,0,1,0.5,1,1V49C55.9,49.6,55.4,50,54.9,50z
			 M10.1,48h43.7V8.9H10.1V48z"/>
	</g>
	<g>
		<path class="st1" d="M54.9,44c-0.2,0-0.4-0.1-0.6-0.2l-12.4-8.3l-6,4.5c-0.5,0.3-1.1,0.3-1.4-0.2c-0.3-0.5-0.3-1.1,0.2-1.4l6.6-5
			c0.3-0.3,0.8-0.3,1.2,0l13,8.7c0.5,0.3,0.6,1,0.3,1.4C55.5,43.9,55.2,44,54.9,44z"/>
	</g>
	<g>
		<path class="st1" d="M40,46.2c0,0-0.1,0-0.1,0c-0.6-0.1-1-0.6-0.9-1.1l1.4-10.5c0.1-0.6,0.6-1,1.1-0.9c0.6,0.1,1,0.6,0.9,1.1
			l-1.4,10.5C41,45.8,40.6,46.2,40,46.2z"/>
	</g>
	<g>
		<path class="st1" d="M43.5,50c-0.3,0-0.5-0.1-0.7-0.3L22.3,29.2L9.8,41.6c-0.4,0.4-1.1,0.4-1.5,0c-0.4-0.4-0.4-1.1,0-1.5
			l13.2-13.1c0.4-0.4,1-0.4,1.4,0l21.2,21.2c0.4,0.4,0.4,1.1,0,1.5C44,49.9,43.8,50,43.5,50z"/>
	</g>
	<g>
		<path class="st1" d="M42.6,24.8c-3.3,0-6-2.7-6-6c0-3.3,2.7-6,6-6c3.3,0,6,2.7,6,6C48.6,22.1,45.9,24.8,42.6,24.8z M42.6,14.9
			c-2.2,0-3.9,1.8-3.9,3.9c0,2.2,1.8,3.9,3.9,3.9c2.2,0,3.9-1.8,3.9-3.9C46.6,16.6,44.8,14.9,42.6,14.9z"/>
	</g>
	<g>
		<path class="st1" d="M18.5,50c-0.1,0-0.1,0-0.2,0c-0.6-0.1-0.9-0.6-0.8-1.2l4-21.1c0.1-0.6,0.6-0.9,1.2-0.8
			c0.6,0.1,0.9,0.6,0.8,1.2l-4,21.1C19.4,49.7,18.9,50,18.5,50z"/>
	</g>
</g>
</svg>
