<?xml version="1.0" encoding="utf-8"?>
<!-- Generator: Adobe Illustrator 19.2.1, SVG Export Plug-In . SVG Version: 6.00 Build 0)  -->
<svg version="1.1" id="Layer_1" xmlns="http://www.w3.org/2000/svg" xmlns:xlink="http://www.w3.org/1999/xlink" x="0px" y="0px"
	 viewBox="0 0 64 64" style="enable-background:new 0 0 64 64;" xml:space="preserve">
<metadata><?xpacket begin="﻿" id="W5M0MpCehiHzreSzNTczkc9d"?>
<x:xmpmeta xmlns:x="adobe:ns:meta/" x:xmptk="Adobe XMP Core 5.6-c111 79.158366, 2015/09/25-01:12:00        ">
   <rdf:RDF xmlns:rdf="http://www.w3.org/1999/02/22-rdf-syntax-ns#">
      <rdf:Description rdf:about=""/>
   </rdf:RDF>
</x:xmpmeta>
                                                                                                    
                                                                                                    
                                                                                                    
                                                                                                    
                                                                                                    
                                                                                                    
                                                                                                    
                                                                                                    
                                                                                                    
                                                                                                    
                                                                                                    
                                                                                                    
                                                                                                    
                                                                                                    
                                                                                                    
                                                                                                    
                                                                                                    
                                                                                                    
                                                                                                    
                                                                                                    
                           
<?xpacket end="w"?></metadata>
<style type="text/css">
	.st0{fill:none;}
	.st1{fill:#5B554D;}
</style>
<rect class="st0" width="64" height="64"/>
<g>
	<g>
		<path class="st1" d="M57.2,10.5c2.3,0,4.1,1.9,4.1,4.1v34.8c0,2.3-1.9,4.1-4.1,4.1H6.8c-2.3,0-4.1-1.9-4.1-4.1V14.6
			c0-2.3,1.9-4.1,4.1-4.1H57.2 M57.2,8.9H6.8C3.6,8.9,1,11.4,1,14.6v34.8c0,3.2,2.6,5.8,5.8,5.8h50.5c3.2,0,5.8-2.6,5.8-5.8V14.6
			C63,11.4,60.4,8.9,57.2,8.9L57.2,8.9z"/>
	</g>
	<g>
		<path class="st1" d="M55,50.1H9c-1.5,0-2.8-1.2-2.8-2.8V16.7c0-1.5,1.2-2.8,2.8-2.8h46c1.5,0,2.8,1.2,2.8,2.8v30.6
			C57.8,48.8,56.5,50.1,55,50.1z M9,15.5c-0.6,0-1.1,0.5-1.1,1.1v30.6c0,0.6,0.5,1.1,1.1,1.1h46c0.6,0,1.1-0.5,1.1-1.1V16.7
			c0-0.6-0.5-1.1-1.1-1.1H9z"/>
	</g>
	<g>
		<path class="st1" d="M19,50.1c-0.4,0-0.8-0.4-0.8-0.8V38c0-0.4,0.4-0.8,0.8-0.8s0.8,0.4,0.8,0.8v11.3C19.8,49.7,19.4,50.1,19,50.1
			z"/>
	</g>
	<g>
		<path class="st1" d="M32,50.1c-0.4,0-0.8-0.4-0.8-0.8V38c0-0.4,0.4-0.8,0.8-0.8c0.4,0,0.8,0.4,0.8,0.8v11.3
			C32.8,49.7,32.4,50.1,32,50.1z"/>
	</g>
	<g>
		<path class="st1" d="M45,50.1c-0.4,0-0.8-0.4-0.8-0.8V38c0-0.4,0.4-0.8,0.8-0.8s0.8,0.4,0.8,0.8v11.3C45.8,49.7,45.5,50.1,45,50.1
			z"/>
	</g>
	<g>
		<path class="st1" d="M20.5,38.8h-3.1c-1.5,0-2.8-1.2-2.8-2.8V14.7c0-0.4,0.4-0.8,0.8-0.8c0.4,0,0.8,0.4,0.8,0.8V36
			c0,0.6,0.5,1.1,1.1,1.1h3.1c0.6,0,1.1-0.5,1.1-1.1V14.7c0-0.4,0.4-0.8,0.8-0.8s0.8,0.4,0.8,0.8V36C23.3,37.6,22.1,38.8,20.5,38.8z
			"/>
	</g>
	<g>
		<path class="st1" d="M33.6,38.8h-3.1c-1.5,0-2.8-1.2-2.8-2.8V14.7c0-0.4,0.4-0.8,0.8-0.8s0.8,0.4,0.8,0.8V36
			c0,0.6,0.5,1.1,1.1,1.1h3.1c0.6,0,1.1-0.5,1.1-1.1V14.7c0-0.4,0.4-0.8,0.8-0.8s0.8,0.4,0.8,0.8V36C36.3,37.6,35.1,38.8,33.6,38.8z
			"/>
	</g>
	<g>
		<path class="st1" d="M46.6,38.8h-3.1c-1.5,0-2.8-1.2-2.8-2.8V14.7c0-0.4,0.4-0.8,0.8-0.8s0.8,0.4,0.8,0.8V36
			c0,0.6,0.5,1.1,1.1,1.1h3.1c0.6,0,1.1-0.5,1.1-1.1V14.7c0-0.4,0.4-0.8,0.8-0.8s0.8,0.4,0.8,0.8V36C49.3,37.6,48.1,38.8,46.6,38.8z
			"/>
	</g>
</g>
</svg>
