<?xml version="1.0" encoding="utf-8"?>
<!-- Generator: Adobe Illustrator 19.2.1, SVG Export Plug-In . SVG Version: 6.00 Build 0)  -->
<svg version="1.1" id="Layer_1" xmlns="http://www.w3.org/2000/svg" xmlns:xlink="http://www.w3.org/1999/xlink" x="0px" y="0px"
	 viewBox="0 0 64 64" style="enable-background:new 0 0 64 64;" xml:space="preserve">
<metadata><?xpacket begin="﻿" id="W5M0MpCehiHzreSzNTczkc9d"?>
<x:xmpmeta xmlns:x="adobe:ns:meta/" x:xmptk="Adobe XMP Core 5.6-c111 79.158366, 2015/09/25-01:12:00        ">
   <rdf:RDF xmlns:rdf="http://www.w3.org/1999/02/22-rdf-syntax-ns#">
      <rdf:Description rdf:about=""/>
   </rdf:RDF>
</x:xmpmeta>
                                                                                                    
                                                                                                    
                                                                                                    
                                                                                                    
                                                                                                    
                                                                                                    
                                                                                                    
                                                                                                    
                                                                                                    
                                                                                                    
                                                                                                    
                                                                                                    
                                                                                                    
                                                                                                    
                                                                                                    
                                                                                                    
                                                                                                    
                                                                                                    
                                                                                                    
                                                                                                    
                           
<?xpacket end="w"?></metadata>
<style type="text/css">
	.st0{fill:none;}
	.st1{fill:#5B554D;}
</style>
<rect class="st0" width="64" height="64"/>
<g>
	<g>
		<path class="st1" d="M32,63C14.9,63,1,49.1,1,32S14.9,1,32,1c0.5,0,0.9,0.4,0.9,0.9V31H62c0.5,0,0.9,0.4,0.9,0.9
			C63,49.1,49.1,63,32,63z M31.1,2.9C15.4,3.4,2.9,16.3,2.9,32C2.9,48.1,16,61.1,32,61.1c15.7,0,28.6-12.6,29.1-28.2H32
			c-0.5,0-0.9-0.4-0.9-0.9V2.9z"/>
	</g>
	<g>
		<path class="st1" d="M60.8,29.1h-25c-0.5,0-0.9-0.4-0.9-0.9v-25c0-0.5,0.4-0.9,0.9-0.9c14.3,0,25.9,11.6,25.9,25.9
			C61.7,28.7,61.3,29.1,60.8,29.1z M36.8,27.2h23.1c-0.5-12.5-10.6-22.6-23.1-23C36.8,4.2,36.8,27.2,36.8,27.2z"/>
	</g>
</g>
</svg>
