<?xml version="1.0" encoding="utf-8"?>
<!-- Generator: Adobe Illustrator 19.2.1, SVG Export Plug-In . SVG Version: 6.00 Build 0)  -->
<svg version="1.1" id="Layer_1" xmlns="http://www.w3.org/2000/svg" xmlns:xlink="http://www.w3.org/1999/xlink" x="0px" y="0px"
	 viewBox="0 0 64 64" style="enable-background:new 0 0 64 64;" xml:space="preserve">
<metadata><?xpacket begin="﻿" id="W5M0MpCehiHzreSzNTczkc9d"?>
<x:xmpmeta xmlns:x="adobe:ns:meta/" x:xmptk="Adobe XMP Core 5.6-c111 79.158366, 2015/09/25-01:12:00        ">
   <rdf:RDF xmlns:rdf="http://www.w3.org/1999/02/22-rdf-syntax-ns#">
      <rdf:Description rdf:about=""/>
   </rdf:RDF>
</x:xmpmeta>
                                                                                                    
                                                                                                    
                                                                                                    
                                                                                                    
                                                                                                    
                                                                                                    
                                                                                                    
                                                                                                    
                                                                                                    
                                                                                                    
                                                                                                    
                                                                                                    
                                                                                                    
                                                                                                    
                                                                                                    
                                                                                                    
                                                                                                    
                                                                                                    
                                                                                                    
                                                                                                    
                           
<?xpacket end="w"?></metadata>
<style type="text/css">
	.st0{fill:none;}
	.st1{fill:#5B554D;}
</style>
<rect class="st0" width="64" height="64"/>
<g>
	<g>
		<path class="st1" d="M31.9,62.8C14.9,62.8,1,48.9,1,31.9C1,15,15.1,1.2,32.3,1.2c0.5,0,0.9,0.4,0.9,0.9V31h28.6
			c0.2,0,0.5,0.1,0.7,0.3c0.2,0.2,0.3,0.4,0.3,0.7C62.9,48.9,49,62.8,31.9,62.8z M31.4,3.1C15.6,3.6,2.9,16.3,2.9,31.9
			c0,16,13,29,29,29c15.7,0,28.5-12.5,29-28H32.3c-0.2,0-0.5-0.1-0.7-0.3s-0.3-0.4-0.3-0.7L31.4,3.1L31.4,3.1z"/>
	</g>
	<g>
		<path class="st1" d="M62.1,29.2H40c-0.5,0-0.9-0.4-0.9-0.9v-0.1c0-0.2,0.1-0.5,0.2-0.6l15.6-17c0.2-0.2,0.4-0.3,0.7-0.3
			c0.2,0,0.5,0.1,0.7,0.3c4.6,4.3,6.8,10,6.8,17.9C63,28.7,62.6,29.2,62.1,29.2z M40,28.1L40,28.1L40,28.1z M42,27.3h19.1
			C61,20.8,59.2,16,55.6,12.4L42,27.3z"/>
	</g>
	<g>
		<path class="st1" d="M36.2,27.8c-0.1,0-0.2,0-0.3-0.1c-0.4-0.1-0.6-0.5-0.6-0.9v-24c0-0.5,0.4-0.9,0.9-0.9C43,1.9,48.6,4,53,8.2
			c0.4,0.4,0.4,0.9,0.1,1.3l-16.2,18C36.7,27.7,36.5,27.8,36.2,27.8z M37.2,3.8v20.6L51.1,8.9C47.3,5.7,42.7,4,37.2,3.8z"/>
	</g>
</g>
</svg>
