<?xml version="1.0" encoding="utf-8"?>
<!-- Generator: Adobe Illustrator 19.2.1, SVG Export Plug-In . SVG Version: 6.00 Build 0)  -->
<svg version="1.1" id="Layer_1" xmlns="http://www.w3.org/2000/svg" xmlns:xlink="http://www.w3.org/1999/xlink" x="0px" y="0px"
	 viewBox="0 0 64 64" style="enable-background:new 0 0 64 64;" xml:space="preserve">
<metadata><?xpacket begin="﻿" id="W5M0MpCehiHzreSzNTczkc9d"?>
<x:xmpmeta xmlns:x="adobe:ns:meta/" x:xmptk="Adobe XMP Core 5.6-c111 79.158366, 2015/09/25-01:12:00        ">
   <rdf:RDF xmlns:rdf="http://www.w3.org/1999/02/22-rdf-syntax-ns#">
      <rdf:Description rdf:about=""/>
   </rdf:RDF>
</x:xmpmeta>
                                                                                                    
                                                                                                    
                                                                                                    
                                                                                                    
                                                                                                    
                                                                                                    
                                                                                                    
                                                                                                    
                                                                                                    
                                                                                                    
                                                                                                    
                                                                                                    
                                                                                                    
                                                                                                    
                                                                                                    
                                                                                                    
                                                                                                    
                                                                                                    
                                                                                                    
                                                                                                    
                           
<?xpacket end="w"?></metadata>
<style type="text/css">
	.st0{fill:none;}
	.st1{fill:#5B554D;}
</style>
<rect class="st0" width="64" height="64"/>
<g>
	<g>
		<path class="st1" d="M30.7,63c-0.2,0-0.4-0.1-0.6-0.2c-0.1,0-5.5-5-10.8-12.3c-5-6.8-10.9-17-10.9-27.2C8.5,11,18.5,1,30.7,1
			c3.4,0,6.6,0.7,9.6,2.2c0.4,0.2,0.6,0.7,0.4,1.1c-0.2,0.4-0.7,0.6-1.1,0.4c-2.8-1.3-5.8-2-8.9-2c-11.4,0-20.6,9.2-20.6,20.6
			c0,17.1,17.3,34.6,20.6,37.8c3.1-2.9,18-17.3,20.3-33.1c0.1-0.5,0.5-0.8,0.9-0.7c0.5,0.1,0.8,0.5,0.7,0.9
			C50,46.4,32,62.1,31.3,62.8C31.1,62.9,30.9,63,30.7,63z"/>
	</g>
	<g>
		<path class="st1" d="M30.6,31.6c-5.1,0-9.2-4.1-9.2-9.2s4.1-9.2,9.2-9.2s9.2,4.1,9.2,9.2C39.8,27.5,35.7,31.6,30.6,31.6z
			 M30.6,14.9c-4.2,0-7.6,3.4-7.6,7.6s3.4,7.6,7.6,7.6s7.6-3.4,7.6-7.6C38.2,18.2,34.8,14.9,30.6,14.9z"/>
	</g>
	<g>
		<path class="st1" d="M54.3,28.7L54.3,28.7L37,28.6c-0.5,0-0.8-0.4-0.8-0.8c0-0.5,0.4-0.8,0.8-0.8l0,0l16.6,0
			c0.6-4.5,1-16.4-11.6-23.6l-9.9,11c-0.3,0.3-0.8,0.4-1.2,0.1c-0.3-0.3-0.4-0.8-0.1-1.2L41.3,1.8c0.3-0.3,0.7-0.4,1-0.2
			c14.8,8,13.6,22.2,12.9,26.3C55.1,28.4,54.7,28.7,54.3,28.7z"/>
	</g>
	<g>
		<path class="st1" d="M22.4,26.1h-13c-0.4,0-0.8-0.4-0.8-0.8c0-0.9-0.1-1.8-0.1-2.7c0-0.9,0-1.8,0.1-2.6c0-0.4,0.4-0.8,0.8-0.8
			h12.5c0.5,0,0.8,0.4,0.8,0.8c0,0.5-0.4,0.8-0.8,0.8H10.2c0,0.6,0,1.2,0,1.8s0,1.2,0,1.8h12.2c0.5,0,0.8,0.4,0.8,0.8
			S22.8,26.1,22.4,26.1z"/>
	</g>
	<g>
		<path class="st1" d="M30.6,25.3c-1.6,0-2.9-1.3-2.9-2.9s1.3-2.9,2.9-2.9s2.9,1.3,2.9,2.9S32.2,25.3,30.6,25.3z M30.6,21.1
			c-0.7,0-1.3,0.6-1.3,1.3c0,0.7,0.6,1.3,1.3,1.3c0.7,0,1.3-0.6,1.3-1.3S31.3,21.1,30.6,21.1z"/>
	</g>
</g>
</svg>
