<?xml version="1.0" encoding="utf-8"?>
<!-- Generator: Adobe Illustrator 19.2.1, SVG Export Plug-In . SVG Version: 6.00 Build 0)  -->
<svg version="1.1" id="Layer_1" xmlns="http://www.w3.org/2000/svg" xmlns:xlink="http://www.w3.org/1999/xlink" x="0px" y="0px"
	 viewBox="0 0 64 64" style="enable-background:new 0 0 64 64;" xml:space="preserve">
<metadata><?xpacket begin="﻿" id="W5M0MpCehiHzreSzNTczkc9d"?>
<x:xmpmeta xmlns:x="adobe:ns:meta/" x:xmptk="Adobe XMP Core 5.6-c111 79.158366, 2015/09/25-01:12:00        ">
   <rdf:RDF xmlns:rdf="http://www.w3.org/1999/02/22-rdf-syntax-ns#">
      <rdf:Description rdf:about=""/>
   </rdf:RDF>
</x:xmpmeta>
                                                                                                    
                                                                                                    
                                                                                                    
                                                                                                    
                                                                                                    
                                                                                                    
                                                                                                    
                                                                                                    
                                                                                                    
                                                                                                    
                                                                                                    
                                                                                                    
                                                                                                    
                                                                                                    
                                                                                                    
                                                                                                    
                                                                                                    
                                                                                                    
                                                                                                    
                                                                                                    
                           
<?xpacket end="w"?></metadata>
<style type="text/css">
	.st0{fill:none;}
	.st1{fill:#5B554D;}
</style>
<rect class="st0" width="64" height="64"/>
<g>
	<g>
		<path class="st1" d="M33.2,58.4c-10.9,0-19.8-3.7-19.9-3.7c-0.4-0.2-0.6-0.6-0.5-1.1l19-52.1l0,0c0-0.1,0-0.2,0.1-0.2
			C32.1,1,32.6,0.9,33,1c0.3,0.1,0.4,0.4,0.4,0.7c0.5,1.9,10.7,32,17.5,51.9c0.1,0.4,0,0.8-0.4,1C44.8,57.5,38.7,58.4,33.2,58.4z
			 M14.7,53.4c3.6,1.3,19.9,6.7,34.4,0.1C38,21.2,33.9,9.1,32.5,4.4L14.7,53.4z"/>
	</g>
	<path class="st1" d="M29.6,9.9L26,19.7c0.4,0.1,0.8,0.2,1.3,0.2c2.9,0,5.2-2.3,5.2-5.2C32.5,12.5,31.4,10.7,29.6,9.9z"/>
	<path class="st1" d="M44.8,44.2c0.7,0,1.4-0.1,2-0.4c-1-3-2.2-6.4-3.4-9.9c-2.2,0.6-3.9,2.6-3.9,5C39.6,41.8,41.9,44.2,44.8,44.2z"
		/>
	<path class="st1" d="M17.9,47.2c2.9,0,5.2-2.3,5.2-5.2c0-2.2-1.4-4.2-3.4-4.9l-3.6,9.8C16.7,47.1,17.3,47.2,17.9,47.2z"/>
	<circle class="st1" cx="32.6" cy="28.3" r="5.2"/>
	<circle class="st1" cx="32.2" cy="47.5" r="5.2"/>
	<circle class="st1" cx="28.1" cy="36.7" r="2.4"/>
	<circle class="st1" cx="36.1" cy="38.3" r="2.4"/>
	<circle class="st1" cx="43.3" cy="48.9" r="2.4"/>
	<circle class="st1" cx="21.8" cy="52.3" r="2.4"/>
	<path class="st1" d="M36.8,21.3c0.8,0,1.5-0.4,1.9-1c-0.4-1.2-0.8-2.5-1.2-3.6c-0.2-0.1-0.4-0.1-0.7-0.1c-1.3,0-2.4,1.1-2.4,2.4
		S35.5,21.3,36.8,21.3z"/>
	<path class="st1" d="M23.5,28.9c1.3,0,2.4-1.1,2.4-2.4c0-1-0.6-1.9-1.5-2.2l-1.6,4.4C23,28.8,23.2,28.9,23.5,28.9z"/>
	<g>
		<path class="st1" d="M33.1,63c-11.8,0-21.2-4-21.6-4.1c-0.4-0.2-0.6-0.7-0.4-1.1l1.8-4.2c0.2-0.4,0.7-0.6,1.1-0.4
			c0.2,0.1,19.3,8,35.7,0.1c0.2-0.1,0.4-0.1,0.6,0c0.2,0.1,0.4,0.2,0.5,0.4l2,4.1c0.2,0.4,0,0.9-0.4,1.1C46.7,61.6,40.2,63,33.1,63z
			 M13,57.6c2.5,0.9,10.4,3.7,20.1,3.7c6.5,0,12.5-1.2,17.8-3.7L49.7,55c-15,6.8-31.8,1.3-35.6-0.1L13,57.6z"/>
	</g>
</g>
</svg>
