<?xml version="1.0" encoding="utf-8"?>
<!-- Generator: Adobe Illustrator 19.2.1, SVG Export Plug-In . SVG Version: 6.00 Build 0)  -->
<svg version="1.1" id="Layer_1" xmlns="http://www.w3.org/2000/svg" xmlns:xlink="http://www.w3.org/1999/xlink" x="0px" y="0px"
	 viewBox="0 0 64 64" style="enable-background:new 0 0 64 64;" xml:space="preserve">
<metadata><?xpacket begin="﻿" id="W5M0MpCehiHzreSzNTczkc9d"?>
<x:xmpmeta xmlns:x="adobe:ns:meta/" x:xmptk="Adobe XMP Core 5.6-c111 79.158366, 2015/09/25-01:12:00        ">
   <rdf:RDF xmlns:rdf="http://www.w3.org/1999/02/22-rdf-syntax-ns#">
      <rdf:Description rdf:about=""/>
   </rdf:RDF>
</x:xmpmeta>
                                                                                                    
                                                                                                    
                                                                                                    
                                                                                                    
                                                                                                    
                                                                                                    
                                                                                                    
                                                                                                    
                                                                                                    
                                                                                                    
                                                                                                    
                                                                                                    
                                                                                                    
                                                                                                    
                                                                                                    
                                                                                                    
                                                                                                    
                                                                                                    
                                                                                                    
                                                                                                    
                           
<?xpacket end="w"?></metadata>
<style type="text/css">
	.st0{fill:none;}
	.st1{fill:#5B554D;}
</style>
<rect class="st0" width="64" height="64"/>
<g>
	<g>
		<g>
			<path class="st1" d="M48.8,17.6L48.8,17.6c-0.5,0-0.8-0.4-0.7-0.8c0,0,0-0.1-0.1-0.2c-0.1-0.2-0.2-0.5-0.1-0.9
				c0-0.3,0.2-0.5,0.3-0.7c0.1-0.1,0.1-0.2,0.1-0.3c0.1-0.6-0.1-1.3-0.2-1.7C48,12.8,48,12.7,48,12.6c0-0.1,0-0.1,0-0.1l0,0
				c0,0,0,0-0.1-0.1c0,0-0.1,0-0.2,0c-0.2,0-0.5-0.1-0.8-0.3c-0.5-0.4-0.6-0.9-0.6-1.3c-0.1-0.3-0.1-0.3-0.2-0.4c0,0-0.2,0-0.3,0
				c-0.3,0-0.7,0-1-0.2C44.2,9.8,44,9.6,44,9.1C44,9,44,9,44,9c-0.1-0.2-0.2-0.3-0.2-0.4c0,0-0.1,0-0.1-0.1c-0.1,0-0.2,0-0.3-0.1
				c-0.2,0-0.5,0-0.7-0.1s-0.4-0.2-0.4-0.4C42,7.7,42,7.4,41.9,7.1c-0.1-0.5-0.1-0.5-0.6-0.6c-0.2,0-0.3,0-0.4,0
				c-0.6,0-0.9-0.1-1.3-0.7c-0.2-0.3-0.3-0.6-0.3-0.7c0,0,0,0-0.1,0C39,5,38.8,4.9,38.6,4.8c-0.5-0.1-1.1-0.3-1.5-1.2
				C37,3.4,36.9,3.2,36.9,3h-0.1c-0.1,0-0.4,0-0.6,0c-0.2,0-0.4,0-0.6,0c-0.3,0-0.5-0.2-0.6-0.5c-0.1-0.1-0.7,0-1,0.1
				c-0.5,0.1-0.9,0.3-1.4,0.2c-0.2,0-0.4-0.1-0.6-0.1c-0.7-0.1-0.9-0.2-1.5,0.2C30.2,3,30.1,3,30,3.1c-0.3,0.2-0.5,0.4-1.1,0.5
				c-0.3,0-0.5,0-0.7,0s-0.2,0-0.2,0c-0.3,0.1-0.5,0.3-0.8,0.6c-0.4,0.4-0.9,0.8-1.5,0.9c-0.3,0.1-0.5,0.1-0.8,0.1
				c-0.1,0-0.3,0-0.3,0.1l0,0c0,0-0.1,0.1-0.2,0.4c0,0.1-0.1,0.2-0.1,0.3c-0.1,0.3-0.2,0.7-0.5,1s-0.5,0.5-1,0.5h-0.1
				c-0.2,0.1-0.4,0.1-0.5,0.1c0,0,0,0-0.1,0.1C22,7.7,22,7.9,21.9,8c-0.1,0.2-0.3,0.4-0.5,0.6C21,9,20.5,9.1,20.1,9.2
				s-0.6,0.2-0.7,0.3s-0.1,0.2-0.1,0.5c0,0.4-0.1,1-0.8,1.4c0,0,0,0,0,0.1c0,0.8,0.1,1.8-0.6,2.4c-0.5,0.3-0.9,0.4-1.3,0.4h-0.1
				c0,0.1,0,0.1,0,0.2c0,0.1,0,0.3,0,0.4c0,0.2,0.1,0.5,0,0.8c0,0.2-0.1,0.4-0.1,0.5c-0.1,0.2-0.1,0.2,0,0.3
				c0.1,0.4-0.2,0.8-0.6,0.8c-0.4,0.1-0.8-0.2-0.8-0.6c-0.1-0.5,0-0.8,0.1-1c0-0.1,0.1-0.2,0.1-0.3s0-0.2,0-0.4s-0.1-0.4-0.1-0.6
				c0-1.4,0.7-1.6,1.4-1.7c0.2,0,0.4,0,0.5-0.1s0.1-0.8,0.1-1.1s0-0.5,0-0.7c0-0.3,0.2-0.6,0.5-0.7C18,9.9,18,9.8,18,9.8
				s0-0.1,0-0.2c0-0.3,0-0.8,0.4-1.2c0.4-0.6,1-0.7,1.5-0.8c0.3-0.1,0.6-0.1,0.7-0.3c0.1-0.1,0.1-0.2,0.2-0.3
				c0.1-0.2,0.3-0.4,0.5-0.6c0.3-0.3,0.6-0.4,1-0.4l0.3,0.7L22.4,6c0.2-0.1,0.3-0.1,0.5-0.1l0,0c0,0,0.1-0.2,0.1-0.3
				c0-0.2,0.1-0.4,0.2-0.6c0.4-1,0.9-1.2,1.6-1.3c0.2,0,0.4,0,0.6-0.1C25.7,3.5,26,3.3,26.3,3s0.7-0.7,1.3-0.9C28,2,28.3,2,28.5,2
				c0.1,0,0.2,0,0.3,0C29,2,29,2,29.2,1.8c0.1-0.1,0.2-0.2,0.4-0.3c1.1-0.7,1.8-0.5,2.6-0.4c0.2,0,0.4,0.1,0.6,0.1
				c0.1,0,0.5-0.1,0.8-0.2c0.7-0.2,1.8-0.5,2.5,0.3l0,0c0.3,0,0.7,0,1.1,0.1c0.7,0.2,1,0.5,1.1,1.1c0,0.1,0,0.1,0.1,0.2
				c0.2,0.4,0.3,0.4,0.7,0.5c0.3,0.1,0.6,0.2,1,0.5c0.5,0.3,0.6,0.6,0.7,1c0,0.1,0,0.1,0.1,0.1C41,4.9,41,4.9,41,4.9s0,0,0.1,0
				c0.2,0,0.4,0,0.6,0c1.5,0.2,1.7,1.1,1.8,1.7c0,0.1,0,0.1,0,0.2l0,0c0.2,0,0.5,0.1,0.7,0.2c0.5,0.2,0.7,0.3,0.9,0.8
				c0,0.1,0,0.1,0.1,0.3c0.1,0.2,0.2,0.4,0.2,0.5l0,0c0,0,0.2,0,0.3,0c0.3,0,0.7,0,1.1,0.2c0.8,0.4,0.9,1.1,0.9,1.4
				c0,0.2,0.1,0.3,0.1,0.3h0.1c0.2,0,0.5,0.1,0.8,0.3c0.6,0.4,0.7,0.8,0.8,1.2c0,0.1,0,0.2,0.1,0.3c0.2,0.6,0.4,1.5,0.2,2.5
				c-0.1,0.2-0.2,0.5-0.3,0.6c0,0.1-0.1,0.2-0.1,0.3c0,0,0,0.1,0.1,0.3c0.1,0.2,0.2,0.5,0.1,0.8C49.5,17.3,49.2,17.6,48.8,17.6z
				 M47.7,10.7L47.7,10.7L47.7,10.7z"/>
		</g>
		<g>
			<g>
				<g>
					<path class="st1" d="M43.7,46.5H39c-0.2,0-0.4-0.1-0.6-0.2s-0.2-0.4-0.2-0.6l3.4-26.4c0.3-2.1,2.3-3.8,4.6-3.8
						c1.2,0,2.2,0.5,2.9,1.3c0.6,0.8,0.9,1.7,0.7,2.8L44.4,46C44.3,46.2,44,46.5,43.7,46.5z M39.8,45h3.3l5.3-25.8
						c0.1-0.6,0-1.1-0.4-1.6s-1-0.8-1.8-0.8c-1.5,0-3,1.2-3.1,2.5L39.8,45z"/>
				</g>
			</g>
			<g>
				<g>
					<path class="st1" d="M38.9,46.5h-4.7c-0.2,0-0.4-0.1-0.5-0.2c-0.1-0.1-0.2-0.3-0.2-0.5L35,17.4c0.1-2.1,2.1-3.9,4.4-3.9
						c1.2,0,2.3,0.5,3,1.3c0.7,0.7,1,1.7,0.8,2.7l-3.6,28.3C39.6,46.2,39.3,46.5,38.9,46.5z M35,45h3.3l3.5-27.6
						c0.1-0.6-0.1-1.1-0.5-1.6S40.2,15,39.4,15c-1.6,0-2.9,1.1-2.9,2.5L35,45z"/>
				</g>
			</g>
			<g>
				<g>
					<path class="st1" d="M34.2,46.5h-4.7c-0.4,0-0.7-0.3-0.7-0.7l-0.6-30.1c0-1,0.4-1.9,1.1-2.6c0.8-0.8,1.9-1.3,3.1-1.3
						c1.2,0,2.3,0.5,3.1,1.3c0.7,0.7,1.1,1.7,1,2.7L35,45.9C34.9,46.2,34.6,46.5,34.2,46.5z M30.2,45h3.3L35,15.6
						c0-0.6-0.2-1.1-0.6-1.6c-1-1.1-3.1-1.1-4.2,0c-0.4,0.4-0.7,1-0.7,1.6L30.2,45z"/>
				</g>
			</g>
			<g>
				<g>
					<path class="st1" d="M29.5,46.5h-4.7c-0.4,0-0.7-0.3-0.7-0.7l-2.7-28.3c-0.1-1,0.2-2,0.9-2.7c0.7-0.8,1.9-1.3,3-1.3
						c2.3,0,4.3,1.7,4.3,3.9l0.6,28.3c0,0.2-0.1,0.4-0.2,0.5C29.9,46.4,29.7,46.5,29.5,46.5z M25.4,45h3.3l-0.6-27.5
						c0-1.4-1.3-2.5-2.9-2.5c-0.8,0-1.5,0.3-2,0.8c-0.4,0.4-0.6,1-0.5,1.6L25.4,45z"/>
				</g>
			</g>
			<g>
				<g>
					<path class="st1" d="M24.7,46.5H20c-0.4,0-0.7-0.3-0.7-0.6l-4.6-26.4c-0.2-1,0.1-2,0.7-2.8c0.7-0.8,1.8-1.3,2.9-1.3
						c2.3,0,4.3,1.7,4.5,3.8l2.6,26.4c0,0.2,0,0.4-0.2,0.6C25.1,46.4,24.9,46.5,24.7,46.5z M20.6,45h3.3l-2.5-25.6
						c-0.1-1.4-1.5-2.5-3-2.5c-0.7,0-1.4,0.3-1.8,0.8c-0.4,0.4-0.5,1-0.4,1.6L20.6,45z"/>
				</g>
			</g>
		</g>
		<g>
			<path class="st1" d="M42.7,50.7H21c-0.5,0-1-0.4-1.1-0.9l-0.5-2.2c-0.1-0.2,0-0.4,0.1-0.6c0.1-0.2,0.4-0.3,0.6-0.3h23.4
				c0.2,0,0.4,0.1,0.6,0.3c0.1,0.2,0.2,0.4,0.1,0.6l-0.5,2.2C43.7,50.4,43.3,50.7,42.7,50.7z M42.4,49.6L42.4,49.6L42.4,49.6z
				 M21.4,49.5L21.4,49.5L21.4,49.5z M21.3,49.3h21.1l0.2-1H21.1L21.3,49.3z"/>
		</g>
	</g>
	<circle class="st1" cx="15.9" cy="54.9" r="1.8"/>
	<circle class="st1" cx="28.9" cy="7" r="1.8"/>
	<circle class="st1" cx="22.8" cy="11.7" r="1.8"/>
	<circle class="st1" cx="21.4" cy="52.5" r="1.8"/>
	<circle class="st1" cx="21" cy="57.7" r="1.8"/>
	<circle class="st1" cx="35.7" cy="8.4" r="1.8"/>
	<circle class="st1" cx="46.5" cy="56.1" r="1.8"/>
	<circle class="st1" cx="39" cy="54.1" r="1.8"/>
	<circle class="st1" cx="26.1" cy="55.7" r="1.8"/>
	<circle class="st1" cx="32.3" cy="61.2" r="1.8"/>
	<circle class="st1" cx="42.5" cy="11.7" r="1.8"/>
</g>
</svg>
