<?xml version="1.0" encoding="utf-8"?>
<!-- Generator: Adobe Illustrator 19.2.1, SVG Export Plug-In . SVG Version: 6.00 Build 0)  -->
<svg version="1.1" id="Layer_1" xmlns="http://www.w3.org/2000/svg" xmlns:xlink="http://www.w3.org/1999/xlink" x="0px" y="0px"
	 viewBox="0 0 64 64" style="enable-background:new 0 0 64 64;" xml:space="preserve">
<metadata><?xpacket begin="﻿" id="W5M0MpCehiHzreSzNTczkc9d"?>
<x:xmpmeta xmlns:x="adobe:ns:meta/" x:xmptk="Adobe XMP Core 5.6-c111 79.158366, 2015/09/25-01:12:00        ">
   <rdf:RDF xmlns:rdf="http://www.w3.org/1999/02/22-rdf-syntax-ns#">
      <rdf:Description rdf:about=""/>
   </rdf:RDF>
</x:xmpmeta>
                                                                                                    
                                                                                                    
                                                                                                    
                                                                                                    
                                                                                                    
                                                                                                    
                                                                                                    
                                                                                                    
                                                                                                    
                                                                                                    
                                                                                                    
                                                                                                    
                                                                                                    
                                                                                                    
                                                                                                    
                                                                                                    
                                                                                                    
                                                                                                    
                                                                                                    
                                                                                                    
                           
<?xpacket end="w"?></metadata>
<style type="text/css">
	.st0{fill:none;}
	.st1{fill:#5B554D;}
</style>
<rect class="st0" width="64" height="64"/>
<g>
	<g>
		<g>
			<path class="st1" d="M17.2,31.7H1.8c-0.3,0-0.6-0.2-0.7-0.4C1,31,1,30.7,1.1,30.4l13.1-18.7c0.1-0.2,0.4-0.3,0.6-0.3
				c0.2,0,0.5,0.1,0.7,0.2l9.3,9.4c0.3,0.3,0.3,0.8,0,1.2c-0.3,0.3-0.8,0.3-1.2,0L15,13.5L3.4,30.1h13.8c0.5,0,0.8,0.4,0.8,0.8
				S17.7,31.7,17.2,31.7z"/>
		</g>
		<g>
			<path class="st1" d="M21.4,26c-0.3,0-0.6-0.2-0.7-0.5l-6.5-13c-0.2-0.4,0-0.9,0.4-1.1c0.4-0.2,0.9,0,1.1,0.4l6.5,13
				c0.2,0.4,0,0.9-0.4,1.1C21.6,26,21.5,26,21.4,26z"/>
		</g>
	</g>
	<g>
		<g>
			<path class="st1" d="M53.7,54.5H1.8c-0.3,0-0.6-0.2-0.7-0.4s-0.1-0.6,0-0.8L31.5,9.8c0.1-0.2,0.4-0.3,0.6-0.3
				c0.2,0,0.5,0.1,0.7,0.2l30,30.3c0.3,0.3,0.3,0.7,0.1,1l-8.4,13.2C54.3,54.4,54,54.5,53.7,54.5z M3.4,52.9h49.9l7.8-12.3
				L32.3,11.5L3.4,52.9z"/>
		</g>
		<g>
			<path class="st1" d="M53.7,54.5L53.7,54.5c-0.3,0-0.6-0.2-0.7-0.5L31.5,10.6c-0.2-0.4-0.1-0.8,0.3-1c0.3-0.2,0.8-0.2,1.1,0.1
				l30,30.3c0.3,0.3,0.3,0.7,0.1,1l-8.4,13.2C54.3,54.4,54,54.5,53.7,54.5z M35.2,14.5l18.6,37.6l7.3-11.4L35.2,14.5z"/>
		</g>
	</g>
</g>
</svg>
