<?xml version="1.0" encoding="utf-8"?>
<!-- Generator: Adobe Illustrator 19.2.1, SVG Export Plug-In . SVG Version: 6.00 Build 0)  -->
<svg version="1.1" id="Layer_1" xmlns="http://www.w3.org/2000/svg" xmlns:xlink="http://www.w3.org/1999/xlink" x="0px" y="0px"
	 viewBox="0 0 64 64" style="enable-background:new 0 0 64 64;" xml:space="preserve">
<metadata><?xpacket begin="﻿" id="W5M0MpCehiHzreSzNTczkc9d"?>
<x:xmpmeta xmlns:x="adobe:ns:meta/" x:xmptk="Adobe XMP Core 5.6-c111 79.158366, 2015/09/25-01:12:00        ">
   <rdf:RDF xmlns:rdf="http://www.w3.org/1999/02/22-rdf-syntax-ns#">
      <rdf:Description rdf:about=""/>
   </rdf:RDF>
</x:xmpmeta>
                                                                                                    
                                                                                                    
                                                                                                    
                                                                                                    
                                                                                                    
                                                                                                    
                                                                                                    
                                                                                                    
                                                                                                    
                                                                                                    
                                                                                                    
                                                                                                    
                                                                                                    
                                                                                                    
                                                                                                    
                                                                                                    
                                                                                                    
                                                                                                    
                                                                                                    
                                                                                                    
                           
<?xpacket end="w"?></metadata>
<style type="text/css">
	.st0{fill:none;}
	.st1{fill:#5B554D;}
</style>
<rect class="st0" width="64" height="64"/>
<g>
	<g>
		<g>
			<path class="st1" d="M59.6,63H4.4c-1.7,0-3-1.4-3-3V21.7c0-1.7,1.4-3,3-3h55.2c1.7,0,3,1.4,3,3V60C62.7,61.6,61.3,63,59.6,63z
				 M4.4,20.4c-0.7,0-1.3,0.6-1.3,1.3V60c0,0.7,0.6,1.3,1.3,1.3h55.2c0.7,0,1.3-0.6,1.3-1.3V21.7c0-0.7-0.6-1.3-1.3-1.3H4.4z"/>
		</g>
		<g>
			<path class="st1" d="M56,54.2h-9.4c-0.5,0-0.9-0.4-0.9-0.9s0.4-0.9,0.9-0.9H56c0.5,0,0.9,0.4,0.9,0.9S56.5,54.2,56,54.2z"/>
		</g>
		<g>
			<path class="st1" d="M51.3,35.7c-2.3,0-4.2-1.9-4.2-4.2c0-2.3,1.9-4.2,4.2-4.2c2.3,0,4.2,1.9,4.2,4.2
				C55.4,33.8,53.6,35.7,51.3,35.7z M51.3,29.1c-1.3,0-2.4,1.1-2.4,2.4c0,1.3,1.1,2.4,2.4,2.4c1.3,0,2.4-1.1,2.4-2.4
				C53.7,30.2,52.6,29.1,51.3,29.1z"/>
		</g>
		<g>
			<path class="st1" d="M10.9,45.8c-0.9,0-1.6,0.7-1.6,1.6c0,0.9,0.7,1.6,1.6,1.6c0.9,0,1.6-0.7,1.6-1.6
				C12.5,46.5,11.8,45.8,10.9,45.8z M10.9,32.6c-0.9,0-1.6,0.7-1.6,1.6c0,0.9,0.7,1.6,1.6,1.6c0.9,0,1.6-0.7,1.6-1.6
				C12.5,33.4,11.8,32.6,10.9,32.6z M15.3,50.1c-0.9,0-1.6,0.7-1.6,1.6c0,0.9,0.7,1.6,1.6,1.6c0.9,0,1.7-0.7,1.7-1.6
				C17,50.9,16.2,50.1,15.3,50.1z M10.3,40.8c0-0.9-0.7-1.6-1.6-1.6c-0.9,0-1.6,0.7-1.6,1.6c0,0.9,0.7,1.6,1.6,1.6
				C9.6,42.5,10.3,41.7,10.3,40.8z M29.6,31.5c0.9,0,1.6-0.7,1.6-1.6c0-0.9-0.7-1.6-1.6-1.6c-0.9,0-1.6,0.7-1.6,1.6
				C27.9,30.8,28.6,31.5,29.6,31.5z M16.4,42.5c-0.9,0-1.6,0.7-1.6,1.6c0,0.9,0.7,1.6,1.6,1.6c0.9,0,1.6-0.7,1.6-1.6
				C18,43.2,17.3,42.5,16.4,42.5z M33.9,35.9c0.9,0,1.6-0.7,1.6-1.6c0-0.9-0.7-1.6-1.6-1.6c-0.9,0-1.6,0.7-1.6,1.6
				C32.3,35.2,33,35.9,33.9,35.9z M15.3,31.5c0.9,0,1.7-0.7,1.7-1.6c0-0.9-0.7-1.6-1.7-1.6c-0.9,0-1.6,0.7-1.6,1.6
				C13.7,30.8,14.4,31.5,15.3,31.5z M28.5,39.2c0.9,0,1.6-0.7,1.6-1.6c0-0.9-0.7-1.6-1.6-1.6c-0.9,0-1.6,0.7-1.6,1.6
				C26.8,38.5,27.5,39.2,28.5,39.2z M22.4,52.3c-0.9,0-1.6,0.7-1.6,1.6s0.7,1.6,1.6,1.6c0.9,0,1.6-0.7,1.6-1.6S23.3,52.3,22.4,52.3z
				 M33.9,45.8c-0.9,0-1.6,0.7-1.6,1.6c0,0.9,0.7,1.6,1.6,1.6c0.9,0,1.6-0.7,1.6-1.6C35.6,46.5,34.9,45.8,33.9,45.8z M29.6,50.1
				c-0.9,0-1.6,0.7-1.6,1.6c0,0.9,0.7,1.6,1.6,1.6c0.9,0,1.6-0.7,1.6-1.6C31.3,50.9,30.5,50.1,29.6,50.1z M30.1,44
				c0-0.9-0.7-1.6-1.6-1.6c-0.9,0-1.6,0.7-1.6,1.6c0,0.9,0.7,1.6,1.6,1.6C29.4,45.7,30.1,44.9,30.1,44z M36.1,39.2
				c-0.9,0-1.6,0.7-1.6,1.6c0,0.9,0.7,1.6,1.6,1.6s1.6-0.7,1.6-1.6C37.8,39.9,37,39.2,36.1,39.2z M22.4,39.2c-0.9,0-1.6,0.7-1.6,1.6
				c0,0.9,0.7,1.6,1.6,1.6c0.9,0,1.7-0.7,1.7-1.6C24.1,39.9,23.3,39.2,22.4,39.2z M22.4,26.1c-0.9,0-1.6,0.7-1.6,1.6
				s0.7,1.6,1.6,1.6c0.9,0,1.6-0.7,1.6-1.6S23.3,26.1,22.4,26.1z M22.4,45.8c-0.9,0-1.6,0.7-1.6,1.6c0,0.9,0.7,1.6,1.6,1.6
				c0.9,0,1.6-0.7,1.6-1.6C24.1,46.5,23.3,45.8,22.4,45.8z M16.4,35.9c-0.9,0-1.6,0.7-1.6,1.6c0,0.9,0.7,1.6,1.6,1.6
				c0.9,0,1.6-0.7,1.6-1.6C18,36.7,17.3,35.9,16.4,35.9z M22.4,32.6c-0.9,0-1.6,0.7-1.6,1.6c0,0.9,0.7,1.6,1.6,1.6
				c0.9,0,1.6-0.7,1.6-1.6C24.1,33.4,23.3,32.6,22.4,32.6z"/>
		</g>
		<ellipse class="st1" cx="15" cy="3.5" rx="2.5" ry="2.5"/>
	</g>
	<g>
		<path class="st1" d="M47.8,20.4c-0.1,0-0.3,0-0.4-0.1L15.5,4.7C15,4.5,14.8,4,15,3.6c0.2-0.4,0.7-0.6,1.2-0.4l31.9,15.6
			c0.4,0.2,0.6,0.7,0.4,1.2C48.4,20.2,48.1,20.4,47.8,20.4z"/>
	</g>
</g>
</svg>
