<?xml version="1.0" encoding="utf-8"?>
<!-- Generator: Adobe Illustrator 19.2.1, SVG Export Plug-In . SVG Version: 6.00 Build 0)  -->
<svg version="1.1" id="Layer_1" xmlns="http://www.w3.org/2000/svg" xmlns:xlink="http://www.w3.org/1999/xlink" x="0px" y="0px"
	 viewBox="0 0 64 64" style="enable-background:new 0 0 64 64;" xml:space="preserve">
<metadata><?xpacket begin="﻿" id="W5M0MpCehiHzreSzNTczkc9d"?>
<x:xmpmeta xmlns:x="adobe:ns:meta/" x:xmptk="Adobe XMP Core 5.6-c111 79.158366, 2015/09/25-01:12:00        ">
   <rdf:RDF xmlns:rdf="http://www.w3.org/1999/02/22-rdf-syntax-ns#">
      <rdf:Description rdf:about=""/>
   </rdf:RDF>
</x:xmpmeta>
                                                                                                    
                                                                                                    
                                                                                                    
                                                                                                    
                                                                                                    
                                                                                                    
                                                                                                    
                                                                                                    
                                                                                                    
                                                                                                    
                                                                                                    
                                                                                                    
                                                                                                    
                                                                                                    
                                                                                                    
                                                                                                    
                                                                                                    
                                                                                                    
                                                                                                    
                                                                                                    
                           
<?xpacket end="w"?></metadata>
<style type="text/css">
	.st0{fill:none;}
	.st1{fill:#5B554D;}
</style>
<rect class="st0" width="64" height="64"/>
<g>
	<g>
		<path class="st1" d="M20.6,63c-2.1,0-4.1-0.5-6-1.5C8.4,58.1,6,50.4,9.3,44.1c2-3.7,9.8-8.2,16-11.9c2.4-1.4,4.3-2.5,5.9-3.5
			c0.3-0.2,0.6-0.2,0.9,0c0.3,0.1,0.5,0.4,0.5,0.8c0.1,2,0.2,4.3,0.3,6.8c0.4,7.2,1,16.2-1,19.9c-1.6,3-4.3,5.2-7.6,6.2
			C23.1,62.8,21.9,63,20.6,63z M30.9,31c-1.3,0.8-2.9,1.7-4.6,2.7c-5.8,3.4-13.6,7.9-15.4,11.2c-2.9,5.4-0.8,12.1,4.5,15
			c2.6,1.4,5.6,1.7,8.4,0.8s5.2-2.8,6.5-5.4c1.7-3.3,1.2-12.4,0.8-19C31.1,34.4,31,32.6,30.9,31z M42.2,59.8c-0.7,0-1.5-0.2-2.2-0.5
			c-1.1-0.6-1.9-1.6-2.2-2.7c-0.4-1.2-0.2-2.4,0.3-3.5c0.7-1.2,3.1-2.7,5.8-4.3c0.4-0.3,0.9-0.5,1.3-0.7c0.3-0.2,0.6-0.2,0.9,0
			c0.3,0.1,0.5,0.4,0.5,0.7l0.1,1.5c0.2,3.1,0.3,6-0.4,7.2c-0.6,1.1-1.6,1.9-2.7,2.2C43.1,59.7,42.6,59.8,42.2,59.8z M44.8,50.2
			L44.8,50.2c-1.4,0.8-4.7,2.7-5.2,3.6c-0.4,0.7-0.4,1.4-0.2,2.2c0.2,0.7,0.7,1.3,1.4,1.7s1.4,0.4,2.2,0.2c0.7-0.2,1.3-0.7,1.7-1.4
			C45.2,55.6,45,51.9,44.8,50.2L44.8,50.2z M48.8,40.6c-1.2,0-2.4-0.3-3.5-0.9c-3.6-2-5-6.5-3.1-10.1c1.1-2,5.4-4.6,10-7.4
			c0.8-0.5,1.5-0.9,2.2-1.3c0.3-0.2,0.6-0.2,0.9,0c0.3,0.1,0.5,0.4,0.5,0.7c0,0.8,0.1,1.6,0.1,2.5L55,24.3l0.9-0.1L55,24.3h0.9
			c0.3,5.4,0.5,10.4-0.5,12.4c-0.9,1.8-2.5,3.1-4.4,3.6C50.2,40.5,49.5,40.6,48.8,40.6z M54.1,23.2c-0.3,0.2-0.7,0.4-1,0.6
			c-3.2,1.8-8.4,4.9-9.4,6.7c-1.5,2.8-0.4,6.3,2.4,7.8c1.4,0.7,2.9,0.9,4.4,0.4c1.5-0.4,2.7-1.4,3.4-2.8c0.9-1.7,0.6-7.8,0.3-11.5
			l0,0l0.9-0.1h-0.9C54.1,23.9,54.1,23.5,54.1,23.2z M13.3,32.3c-0.7,0-1.5-0.2-2.2-0.5l0,0c-2.2-1.2-3.1-4-1.9-6.3
			c0.7-1.2,3.1-2.7,5.8-4.3l1.3-0.7c0.3-0.2,0.6-0.2,0.9,0c0.3,0.1,0.4,0.4,0.5,0.7c0,0.4,0,0.9,0.1,1.4c0.2,3.1,0.3,6-0.4,7.2
			c-0.6,1.1-1.6,1.9-2.7,2.2C14.2,32.2,13.7,32.3,13.3,32.3z M11.9,30.2c0.7,0.4,1.5,0.4,2.2,0.2c0.7-0.2,1.3-0.7,1.7-1.4
			c0.5-0.9,0.2-4.7,0.1-6.3l0,0l0,0c-1.4,0.8-4.7,2.7-5.2,3.6C10,27.7,10.5,29.4,11.9,30.2L11.9,30.2z M31.3,21.9
			c-1,0-1.9-0.2-2.8-0.7c-1.4-0.8-2.4-2-2.9-3.5s-0.3-3.1,0.4-4.6c0.9-1.6,4.2-3.6,7.8-5.8l1.7-1c0.3-0.2,0.6-0.2,0.9,0
			c0.3,0.1,0.4,0.4,0.5,0.7c0,0.6,0.1,1.3,0.1,2c0.3,4.2,0.4,8.1-0.4,9.7c-0.8,1.4-2,2.4-3.5,2.9C32.4,21.8,31.9,21.9,31.3,21.9z
			 M35.2,8.5l-0.5,0.3c-2.1,1.2-6.5,3.8-7.2,5.1c-0.5,1-0.6,2.1-0.3,3.2c0.3,1.1,1.1,2,2,2.5c1,0.5,2.1,0.6,3.2,0.3
			c1.1-0.3,2-1.1,2.5-2c0.7-1.3,0.4-6.2,0.2-8.8C35.2,8.9,35.2,8.7,35.2,8.5z M49.9,13c-0.7,0-1.5-0.2-2.2-0.5l0,0
			c-2.2-1.2-3.1-4-1.9-6.3c0.7-1.2,3-2.7,5.8-4.3c0.5-0.3,0.9-0.5,1.3-0.7c0.3-0.2,0.6-0.2,0.9,0c0.3,0.1,0.5,0.4,0.5,0.7
			c0,0.5,0.1,0.9,0.1,1.5c0.2,3.2,0.3,6-0.4,7.2c-0.6,1.1-1.6,1.9-2.7,2.2C50.8,12.9,50.4,13,49.9,13z M48.6,10.9
			c0.7,0.4,1.4,0.4,2.2,0.2c0.7-0.2,1.3-0.7,1.7-1.4c0.5-0.9,0.3-4.6,0.2-6.3l0,0l0,0C51.2,4.3,48,6.1,47.5,7
			C46.7,8.4,47.2,10.1,48.6,10.9L48.6,10.9z"/>
	</g>
</g>
</svg>
