<?xml version="1.0" encoding="utf-8"?>
<!-- Generator: Adobe Illustrator 19.2.1, SVG Export Plug-In . SVG Version: 6.00 Build 0)  -->
<svg version="1.1" id="Layer_1" xmlns="http://www.w3.org/2000/svg" xmlns:xlink="http://www.w3.org/1999/xlink" x="0px" y="0px"
	 viewBox="0 0 64 64" style="enable-background:new 0 0 64 64;" xml:space="preserve">
<metadata><?xpacket begin="﻿" id="W5M0MpCehiHzreSzNTczkc9d"?>
<x:xmpmeta xmlns:x="adobe:ns:meta/" x:xmptk="Adobe XMP Core 5.6-c111 79.158366, 2015/09/25-01:12:00        ">
   <rdf:RDF xmlns:rdf="http://www.w3.org/1999/02/22-rdf-syntax-ns#">
      <rdf:Description rdf:about=""/>
   </rdf:RDF>
</x:xmpmeta>
                                                                                                    
                                                                                                    
                                                                                                    
                                                                                                    
                                                                                                    
                                                                                                    
                                                                                                    
                                                                                                    
                                                                                                    
                                                                                                    
                                                                                                    
                                                                                                    
                                                                                                    
                                                                                                    
                                                                                                    
                                                                                                    
                                                                                                    
                                                                                                    
                                                                                                    
                                                                                                    
                           
<?xpacket end="w"?></metadata>
<style type="text/css">
	.st0{fill:none;}
	.st1{fill:#5B554D;}
</style>
<rect class="st0" width="64" height="64"/>
<g>
	<g>
		<g>
			<path class="st1" d="M3.3,30.6c-0.6,0-1-0.4-1-1V19.1c0-2.2,1.8-3.9,4-3.9h54.2c0.6,0,1,0.4,1,1c0,0.6-0.4,1-1,1H6.3
				c-1.1,0-2,0.9-2,1.9v10.6C4.3,30.2,3.8,30.6,3.3,30.6z"/>
		</g>
		<g>
			<path class="st1" d="M54,26.2c-0.3,0-0.5-0.1-0.7-0.3c-0.4-0.4-0.4-1,0-1.4l7.3-7.4c0.5-0.6,0.5-1.4,0-2l-7.3-7.4
				c-0.4-0.4-0.4-1,0-1.4c0.4-0.4,1-0.4,1.4,0l7.3,7.4c1.3,1.3,1.3,3.5,0,4.8l-7.3,7.4C54.5,26.1,54.2,26.2,54,26.2z"/>
		</g>
	</g>
	<g>
		<g>
			<path class="st1" d="M57.7,48.9H3.5c-0.6,0-1-0.4-1-1c0-0.6,0.4-1,1-1h54.2c1.1,0,2-0.9,2-1.9V34.4c0-0.6,0.4-1,1-1
				c0.6,0,1,0.4,1,1v10.6C61.8,47.1,60,48.9,57.7,48.9z"/>
		</g>
		<g>
			<path class="st1" d="M10,58.1c-0.3,0-0.5-0.1-0.7-0.3L2,50.4c-1.3-1.3-1.3-3.5,0-4.8l7.3-7.4c0.4-0.4,1-0.4,1.4,0
				c0.4,0.4,0.4,1,0,1.4l-7.3,7.4c-0.5,0.6-0.5,1.4,0,2l7.3,7.4c0.4,0.4,0.4,1,0,1.4C10.5,58,10.3,58.1,10,58.1z"/>
		</g>
	</g>
</g>
</svg>
