<?xml version="1.0" encoding="utf-8"?>
<!-- Generator: Adobe Illustrator 19.2.1, SVG Export Plug-In . SVG Version: 6.00 Build 0)  -->
<svg version="1.1" id="Layer_1" xmlns="http://www.w3.org/2000/svg" xmlns:xlink="http://www.w3.org/1999/xlink" x="0px" y="0px"
	 viewBox="0 0 64 64" style="enable-background:new 0 0 64 64;" xml:space="preserve">
<metadata><?xpacket begin="﻿" id="W5M0MpCehiHzreSzNTczkc9d"?>
<x:xmpmeta xmlns:x="adobe:ns:meta/" x:xmptk="Adobe XMP Core 5.6-c111 79.158366, 2015/09/25-01:12:00        ">
   <rdf:RDF xmlns:rdf="http://www.w3.org/1999/02/22-rdf-syntax-ns#">
      <rdf:Description rdf:about=""/>
   </rdf:RDF>
</x:xmpmeta>
                                                                                                    
                                                                                                    
                                                                                                    
                                                                                                    
                                                                                                    
                                                                                                    
                                                                                                    
                                                                                                    
                                                                                                    
                                                                                                    
                                                                                                    
                                                                                                    
                                                                                                    
                                                                                                    
                                                                                                    
                                                                                                    
                                                                                                    
                                                                                                    
                                                                                                    
                                                                                                    
                           
<?xpacket end="w"?></metadata>
<style type="text/css">
	.st0{fill:none;}
	.st1{fill:#5B554D;}
</style>
<rect class="st0" width="64" height="64"/>
<g>
	<g>
		<g>
			<path class="st1" d="M31.6,47.7c-2,0-19.6-0.4-30.4-13.5C1,34,0.9,33.6,1.1,33.4L2,31.9c0.3-0.5,8.4-14,27.4-15.5
				c0.2,0,21.8-1.8,33.5,13.5c0.2,0.2,0.2,0.5,0.1,0.7c-0.1,0.2-9.1,16.8-31.2,17.2C31.7,47.7,31.7,47.7,31.6,47.7z M2.5,33.7
				c11,13,29,12.7,29.2,12.7c19.5-0.3,28.3-13.6,29.8-16c-11.3-14.2-31.8-12.6-32-12.6c-9.6,0.8-16.3,4.7-20.1,7.9
				c-4.2,3.5-6.1,6.8-6.2,6.9c0,0,0,0,0,0L2.5,33.7z M2.6,32.2L2.6,32.2L2.6,32.2z"/>
		</g>
		<g>
			<path class="st1" d="M15.9,44.6c-0.1,0-0.2,0-0.3,0c-1.3-0.5-2.5-1.1-3.7-1.7c-0.3-0.1-0.4-0.5-0.3-0.8c2.2-8,0.6-16-0.2-19.1
				c-0.1-0.3,0-0.6,0.3-0.7c1.6-1,3.3-2,5-2.7c0.2-0.1,0.4-0.1,0.5,0c0.2,0.1,0.3,0.2,0.4,0.4c6,15.3-0.5,23.6-1.3,24.5
				C16.3,44.5,16.1,44.6,15.9,44.6z M13.1,41.9c0.8,0.4,1.7,0.8,2.6,1.2c1.4-1.8,5.7-9.2,1-22c-1.3,0.6-2.5,1.3-3.7,2
				C13.8,26.5,15.1,34.2,13.1,41.9z"/>
		</g>
		<g>
			<path class="st1" d="M49,43.4c-0.2,0-0.3-0.1-0.4-0.2c-0.2-0.2-0.3-0.5-0.2-0.7c3.7-11.8,0.1-21.7-0.1-22.1
				c-0.1-0.3,0-0.5,0.2-0.7c0.2-0.2,0.5-0.3,0.7-0.1c1.7,0.7,3.3,1.5,4.8,2.4c0.1,0.1,0.2,0.1,0.2,0.2c4.1,5.9,2.3,13.4,0.9,17.3
				c0,0.1-0.1,0.2-0.2,0.3c-1.7,1.4-3.6,2.6-5.5,3.6C49.2,43.4,49.1,43.4,49,43.4z M50,21.5c0.9,3.1,2.5,10.8,0.1,19.9
				c1.3-0.8,2.5-1.6,3.7-2.5c1.3-3.7,2.8-10.5-0.8-15.7C52.1,22.5,51.1,21.9,50,21.5z"/>
		</g>
		<g>
			<path class="st1" d="M61.5,29.9c-0.1,0-0.2,0-0.3-0.1c-1.2-0.6-2.5-1.1-3.7-1.7c-0.6-0.3-1.2-0.5-1.8-0.8
				c-0.3-0.2-0.5-0.6-0.3-0.9c0.2-0.3,0.6-0.5,0.9-0.3c0.5,0.2,1.1,0.5,1.8,0.8c0.9,0.4,1.8,0.8,2.7,1.2c0.3-0.2,0.6-0.1,0.8,0.1
				c0.1,0.1,0.2,0.3,0.3,0.4l0.1,0.1c0.2,0.2,0.2,0.6,0,0.9C61.9,29.8,61.7,29.9,61.5,29.9z"/>
		</g>
		<g>
			<path class="st1" d="M18.9,25.5c-0.3,0-0.6-0.2-0.7-0.5c-0.1-0.4,0.1-0.8,0.4-0.9C28.7,20.9,39.4,21,50,24
				c0.4,0.1,0.6,0.5,0.5,0.9c-0.1,0.4-0.5,0.6-0.9,0.5c-10.3-2.9-20.7-3.1-30.5,0.1C19,25.4,19,25.5,18.9,25.5z"/>
		</g>
		<g>
			<path class="st1" d="M2.5,34.1c-0.2,0-0.4-0.1-0.6-0.3c-0.2-0.3-0.2-0.7,0.1-1c2.4-1.8,5.7-4.1,10.2-6.2c0.3-0.2,0.8,0,0.9,0.3
				c0.2,0.3,0,0.8-0.3,0.9C8.4,30,5.2,32.3,2.9,34C2.7,34.1,2.6,34.1,2.5,34.1z"/>
		</g>
		<g>
			<path class="st1" d="M12.7,39.1c-0.1,0-0.1,0-0.2,0C9.2,38,5.8,36.6,2.4,35c-0.3-0.2-0.5-0.6-0.3-0.9s0.6-0.5,0.9-0.3
				c3.3,1.6,6.6,3,9.9,4c0.4,0.1,0.6,0.5,0.4,0.9C13.3,38.9,13,39.1,12.7,39.1z"/>
		</g>
		<g>
			<path class="st1" d="M30.2,41.9c-3.8,0-7.8-0.4-11.7-1.2c-0.4-0.1-0.6-0.4-0.5-0.8c0.1-0.4,0.4-0.6,0.8-0.5
				c3.8,0.8,7.6,1.2,11.4,1.2c6.7,0,13.3-1.4,19.5-4.2c0.3-0.2,0.8,0,0.9,0.3c0.2,0.3,0,0.8-0.3,0.9C43.8,40.4,37,41.9,30.2,41.9z"
				/>
		</g>
		<g>
			<path class="st1" d="M56.1,34.4c-0.2,0-0.5-0.1-0.6-0.3c-0.2-0.3-0.1-0.7,0.2-0.9c2.2-1.4,3.9-2.6,5.2-3.6c0.3-0.2,0.7-0.2,1,0.1
				c0.2,0.3,0.2,0.7-0.1,1c-1.3,1-3.1,2.3-5.3,3.7C56.3,34.4,56.2,34.4,56.1,34.4z"/>
		</g>
		<g>
			<g>
				<path class="st1" d="M25.3,21h-0.1c-0.3,0-0.7,0.3-0.8,0.7l-0.8,3c-0.1,0.4,0.1,0.7,0.5,0.7h0.1c0.4,0,0.8-0.3,0.9-0.7l0.7-3
					C25.8,21.3,25.6,21,25.3,21z"/>
				<path class="st1" d="M44.1,21H44c-0.4,0-0.6,0.3-0.5,0.7l0.7,3c0.1,0.4,0.5,0.7,0.9,0.7h0.1c0.4,0,0.6-0.3,0.5-0.7l-0.8-3
					C44.8,21.3,44.5,21,44.1,21z"/>
				<path class="st1" d="M28,20.6h-0.1c-0.3,0-0.7,0.3-0.8,0.7l-0.6,3c-0.1,0.4,0.2,0.7,0.6,0.7h0.1c0.4,0,0.8-0.3,0.8-0.7l0.5-3
					C28.6,21,28.4,20.6,28,20.6z"/>
				<path class="st1" d="M41.4,20.6h-0.1c-0.3,0-0.6,0.3-0.5,0.7l0.5,3c0.1,0.4,0.4,0.7,0.8,0.7h0.1c0.4,0,0.6-0.3,0.6-0.7l-0.6-3
					C42.1,21,41.7,20.6,41.4,20.6z"/>
				<path class="st1" d="M30.7,20.3h-0.1c-0.3,0-0.7,0.3-0.7,0.7l-0.4,3c-0.1,0.4,0.2,0.7,0.6,0.7h0.1c0.4,0,0.7-0.3,0.8-0.7l0.3-3
					C31.3,20.6,31.1,20.3,30.7,20.3z"/>
				<path class="st1" d="M38.7,20.3h-0.1c-0.3,0-0.6,0.3-0.6,0.7l0.3,3c0,0.4,0.4,0.7,0.8,0.7h0.1c0.4,0,0.7-0.3,0.6-0.7l-0.4-3
					C39.3,20.6,39,20.3,38.7,20.3z"/>
				<path class="st1" d="M33.4,20h-0.1c-0.3,0-0.6,0.3-0.7,0.7l-0.2,3c0,0.4,0.3,0.7,0.7,0.7h0.1c0.4,0,0.7-0.3,0.7-0.7l0.1-3
					C34,20.3,33.7,20,33.4,20z"/>
				<path class="st1" d="M36,20h-0.1c-0.3,0-0.6,0.3-0.6,0.7l0.1,3c0,0.4,0.3,0.7,0.7,0.7h0.1c0.4,0,0.7-0.3,0.7-0.7l-0.2-3
					C36.6,20.3,36.3,20,36,20z"/>
			</g>
		</g>
	</g>
</g>
</svg>
