<?xml version="1.0" encoding="utf-8"?>
<!-- Generator: Adobe Illustrator 19.2.1, SVG Export Plug-In . SVG Version: 6.00 Build 0)  -->
<svg version="1.1" id="Layer_1" xmlns="http://www.w3.org/2000/svg" xmlns:xlink="http://www.w3.org/1999/xlink" x="0px" y="0px"
	 viewBox="0 0 64 64" style="enable-background:new 0 0 64 64;" xml:space="preserve">
<metadata><?xpacket begin="﻿" id="W5M0MpCehiHzreSzNTczkc9d"?>
<x:xmpmeta xmlns:x="adobe:ns:meta/" x:xmptk="Adobe XMP Core 5.6-c111 79.158366, 2015/09/25-01:12:00        ">
   <rdf:RDF xmlns:rdf="http://www.w3.org/1999/02/22-rdf-syntax-ns#">
      <rdf:Description rdf:about=""/>
   </rdf:RDF>
</x:xmpmeta>
                                                                                                    
                                                                                                    
                                                                                                    
                                                                                                    
                                                                                                    
                                                                                                    
                                                                                                    
                                                                                                    
                                                                                                    
                                                                                                    
                                                                                                    
                                                                                                    
                                                                                                    
                                                                                                    
                                                                                                    
                                                                                                    
                                                                                                    
                                                                                                    
                                                                                                    
                                                                                                    
                           
<?xpacket end="w"?></metadata>
<style type="text/css">
	.st0{fill:none;}
	.st1{fill:#5B554D;}
</style>
<rect class="st0" width="64" height="64"/>
<g>
	<g>
		<g>
			<path class="st1" d="M55.9,63H42.2c-1.3,0-2.3-1-2.3-2.3c0-1,0.7-1.9,1.6-2.2c0-0.4,0.1-0.7,0.1-1.1c0-2.3-0.8-4.3-2.4-6.2
				c-0.8-0.9-1.7-1.6-2.8-2.2c-1.3-0.7-2.6-1-4-1c-3.3,0-5.6,1.7-6.8,3.2C24,53,23.2,55,23.2,57.3c0,0.4,0,0.8,0.1,1.3
				c0.8,0.4,1.4,1.2,1.4,2.1c0,1.3-1,2.3-2.3,2.3H8.1c-1.3,0-2.3-1-2.3-2.3c0-1.2,0.9-2.2,2-2.3l1.5-1c1.4-0.9,2.8-1.8,4-2.8
				c3.6-3.1,6.4-6.6,9.8-12.3c2.6-4.4,5.2-12.6,6.7-21.3c-2.1-1-3.4-3.1-3.4-5.4c0-3.3,2.7-6,6-6c3.3,0,6,2.7,6,6
				c0,2.4-1.4,4.5-3.5,5.4c1.4,8.1,4.1,16.5,6.6,21.3c2.2,4.2,5,8.9,9,12.3c1.3,1.1,2.8,2.1,4.3,3l1.3,0.8c1.1,0.2,1.9,1.1,1.9,2.3
				C58.2,62,57.2,63,55.9,63z M32.4,46.4c1.7,0,3.2,0.4,4.7,1.2c1.3,0.7,2.4,1.5,3.3,2.6c1.9,2.2,2.8,4.5,2.8,7.3c0,0.5,0,1-0.1,1.5
				l0,0.4C43,59.7,42.6,60,42.2,60c-0.4,0-0.7,0.3-0.7,0.7c0,0.4,0.3,0.7,0.7,0.7h13.6c0.4,0,0.7-0.3,0.7-0.7c0-0.4-0.3-0.7-0.6-0.7
				c-0.1,0-0.3-0.1-0.4-0.1L54.1,59c-1.5-0.9-3.1-1.9-4.5-3.1c-4.2-3.6-7.1-8.5-9.4-12.8c-2.7-5-5.4-14-6.9-22.4
				c-0.1-0.4,0.2-0.8,0.5-0.9c1.8-0.6,3-2.3,3-4.2c0-2.4-2-4.4-4.4-4.4c-2.4,0-4.4,2-4.4,4.4c0,1.9,1.2,3.5,3,4.2
				c0.4,0.1,0.6,0.5,0.5,0.9c-1.6,9.1-4.3,17.7-7.1,22.5c-3.5,5.8-6.4,9.5-10.2,12.7c-1.3,1.1-2.7,2-4.2,2.9l-1.7,1.1
				C8.4,60,8.3,60,8.1,60c-0.4,0-0.7,0.3-0.7,0.7c0,0.4,0.3,0.7,0.7,0.7h14.3c0.4,0,0.7-0.3,0.7-0.7c0-0.3-0.3-0.6-0.6-0.7
				c-0.4,0-0.7-0.3-0.7-0.7l-0.1-0.4c-0.1-0.6-0.1-1.1-0.1-1.6c0-2.7,0.9-5.1,2.8-7.1C25.8,48.4,28.4,46.4,32.4,46.4z"/>
		</g>
		<g>
			<path class="st1" d="M21.4,30.7c-0.2,0-0.3-0.1-0.5-0.2c-0.5-0.4-1-0.9-1.5-1.3c-3.8-3.6-5.8-8.3-5.8-13.3c0-5,2.1-9.8,5.8-13.3
				c0.5-0.4,1-0.9,1.6-1.4c0.4-0.3,0.9-0.2,1.1,0.1c0.3,0.4,0.2,0.9-0.1,1.1c-0.6,0.5-1.1,0.9-1.5,1.3c-3.4,3.3-5.3,7.6-5.3,12.2
				c0,4.6,1.9,8.9,5.3,12.2c0.4,0.4,0.9,0.8,1.4,1.2c0.4,0.3,0.4,0.8,0.1,1.1C21.9,30.6,21.6,30.7,21.4,30.7z M44,30.7
				c-0.2,0-0.5-0.1-0.6-0.3c-0.3-0.4-0.2-0.9,0.1-1.1c0.5-0.4,0.9-0.8,1.4-1.2c3.4-3.3,5.3-7.6,5.3-12.2c0-4.6-1.9-8.9-5.3-12.2
				c-0.4-0.4-0.9-0.8-1.5-1.3c-0.4-0.3-0.4-0.8-0.2-1.1C43.5,1,44,0.9,44.4,1.2C45,1.7,45.5,2.1,46,2.5c3.8,3.6,5.8,8.3,5.8,13.3
				c0,5-2.1,9.8-5.8,13.3c-0.5,0.5-1,0.9-1.5,1.3C44.4,30.6,44.2,30.7,44,30.7z M26,27c-0.1,0-0.3,0-0.4-0.1
				c-0.9-0.5-1.7-1.2-2.4-1.9c-2.5-2.5-3.9-5.8-3.9-9.3c0-3.5,1.4-6.8,3.9-9.3c0.7-0.7,1.5-1.3,2.4-1.9c0.4-0.2,0.9-0.1,1.1,0.3
				c0.2,0.4,0.1,0.9-0.3,1.1c-0.8,0.5-1.5,1-2.1,1.6c-2.2,2.2-3.4,5.1-3.4,8.1c0,3.1,1.2,5.9,3.4,8.1c0.6,0.6,1.4,1.2,2.1,1.7
				c0.4,0.2,0.5,0.7,0.3,1.1C26.5,26.9,26.2,27,26,27z M39.5,27c-0.3,0-0.5-0.1-0.7-0.4c-0.2-0.4-0.1-0.9,0.3-1.1
				c0.8-0.5,1.5-1,2.1-1.7c2.2-2.2,3.4-5.1,3.4-8.1c0-3.1-1.2-5.9-3.4-8.1C40.6,7,39.9,6.4,39.1,6c-0.4-0.2-0.5-0.7-0.3-1.1
				c0.2-0.4,0.7-0.5,1.1-0.3c0.9,0.5,1.7,1.2,2.4,1.9c2.5,2.5,3.9,5.8,3.9,9.3c0,3.5-1.4,6.8-3.9,9.3c-0.7,0.7-1.5,1.4-2.4,1.9
				C39.8,27,39.6,27,39.5,27z"/>
		</g>
	</g>
	<circle class="st1" cx="32.5" cy="42.4" r="2"/>
	<ellipse class="st1" cx="32.5" cy="35.7" rx="2" ry="2"/>
	<circle class="st1" cx="32.5" cy="28.9" r="2"/>
</g>
</svg>
