<?xml version="1.0" encoding="utf-8"?>
<!-- Generator: Adobe Illustrator 19.2.1, SVG Export Plug-In . SVG Version: 6.00 Build 0)  -->
<svg version="1.1" id="Layer_1" xmlns="http://www.w3.org/2000/svg" xmlns:xlink="http://www.w3.org/1999/xlink" x="0px" y="0px"
	 viewBox="0 0 64 64" style="enable-background:new 0 0 64 64;" xml:space="preserve">
<metadata><?xpacket begin="﻿" id="W5M0MpCehiHzreSzNTczkc9d"?>
<x:xmpmeta xmlns:x="adobe:ns:meta/" x:xmptk="Adobe XMP Core 5.6-c111 79.158366, 2015/09/25-01:12:00        ">
   <rdf:RDF xmlns:rdf="http://www.w3.org/1999/02/22-rdf-syntax-ns#">
      <rdf:Description rdf:about=""/>
   </rdf:RDF>
</x:xmpmeta>
                                                                                                    
                                                                                                    
                                                                                                    
                                                                                                    
                                                                                                    
                                                                                                    
                                                                                                    
                                                                                                    
                                                                                                    
                                                                                                    
                                                                                                    
                                                                                                    
                                                                                                    
                                                                                                    
                                                                                                    
                                                                                                    
                                                                                                    
                                                                                                    
                                                                                                    
                                                                                                    
                           
<?xpacket end="w"?></metadata>
<style type="text/css">
	.st0{fill:none;}
	.st1{fill:#5B554D;}
</style>
<rect class="st0" width="64" height="64"/>
<g>
	<g>
		<g>
			<path class="st1" d="M46.1,56.6c-10,0-23.8-1.5-31.3-8.7c-5.2-5.1-8.2-13.7-8.9-25.6C5.5,13.4,6.5,5.9,6.5,5.9
				c0.1-1,0.6-1.7,1.3-1.9c0.7-0.2,1.5,0,2.3,0.7L32,25.8c0.3,0.3,0.3,0.9,0,1.2c-0.3,0.3-0.9,0.3-1.2,0L8.9,5.9
				C8.6,5.6,8.4,5.6,8.4,5.6c0,0-0.1,0.2-0.2,0.5c0,0.3-4,29.1,7.8,40.5c11.8,11.4,41.7,7.6,42,7.5c0.4,0,0.5-0.2,0.6-0.2
				c0,0-0.1-0.2-0.3-0.4L34.7,30.8c-0.3-0.3-0.3-0.9,0-1.2c0.3-0.3,0.9-0.3,1.2,0l23.5,22.7c0.7,0.7,1,1.5,0.8,2.2
				c-0.1,0.4-0.6,1.2-1.9,1.3C57.7,55.9,52.7,56.6,46.1,56.6z"/>
		</g>
		<g>
			<path class="st1" d="M30.1,35.8c-0.2,0-0.4-0.1-0.6-0.2l-4.3-4.1C25.1,31.2,25,31,25,30.7c0-0.3,0.2-0.5,0.4-0.6l16.2-10.2
				c-1.2-2-0.8-4.6,0.9-6.2c2.1-2,5.5-2,7.6,0l0,0c1,1,1.6,2.3,1.6,3.7c0,1.4-0.6,2.7-1.6,3.7c-1.7,1.7-4.4,2-6.5,0.8L30.7,35.5
				C30.6,35.7,30.4,35.8,30.1,35.8C30.1,35.8,30.1,35.8,30.1,35.8z M27.2,31l2.9,2.8l10.7-11.4L27.2,31z M43.7,19.9
				c0.1,0,0.3,0.1,0.4,0.2c1.5,1.1,3.6,1,4.9-0.3c0.7-0.7,1.1-1.6,1.1-2.5c0-0.9-0.4-1.8-1.1-2.5c0,0,0,0,0,0
				c-1.4-1.4-3.8-1.4-5.2,0c-1.3,1.3-1.4,3.3-0.2,4.7C43.6,19.6,43.6,19.8,43.7,19.9z"/>
		</g>
		<g>
			<path class="st1" d="M26,63.6H2.8c-0.6,0-1.2-0.3-1.5-0.7c-0.3-0.5-0.4-1-0.2-1.6l7.5-15.9C8.8,45,9.3,44.8,9.8,45
				c0.4,0.2,0.6,0.7,0.4,1.1L2.7,62l23.2,0l-2.5-5.9c-0.2-0.4,0-0.9,0.5-1.1c0.4-0.2,0.9,0,1.1,0.5l2.5,5.9c0.3,0.5,0.2,1.1-0.1,1.6
				C27.2,63.4,26.7,63.6,26,63.6z"/>
		</g>
		<g>
			<path class="st1" d="M61.7,20.6c-0.1,0-0.1,0-0.2,0c-0.5-0.1-0.7-0.6-0.6-1c0.1-0.5,0.2-1,0.3-1.5c0.5-3.9-0.5-7.8-2.9-10.8
				c-2.4-3-6-4.8-10-5.2c-0.5,0-1-0.1-1.7,0c-0.5,0-0.9-0.4-0.9-0.8c0-0.5,0.4-0.9,0.8-0.9c0.7,0,1.3,0,1.9,0
				c4.5,0.4,8.5,2.4,11.2,5.8c2.7,3.4,3.9,7.7,3.3,12.1c-0.1,0.5-0.2,1.1-0.3,1.7C62.4,20.3,62.1,20.6,61.7,20.6z M56.7,20.6
				c-0.1,0-0.2,0-0.3-0.1c-0.4-0.2-0.7-0.7-0.5-1.1c0.2-0.7,0.4-1.4,0.5-2.2c0.3-2.5-0.4-5-2-7c-1.6-2-3.9-3.2-6.5-3.5
				c-0.8-0.1-1.5-0.1-2.2,0c-0.5,0.1-0.9-0.3-1-0.7c-0.1-0.5,0.3-0.9,0.7-1c0.8-0.1,1.7-0.1,2.6,0c3,0.3,5.8,1.8,7.7,4.1
				c1.9,2.4,2.8,5.3,2.4,8.3c-0.1,0.9-0.3,1.8-0.6,2.6C57.3,20.4,57,20.6,56.7,20.6z"/>
		</g>
	</g>
	<g>
		<path class="st1" d="M59,55.3c-0.1,0-0.2,0-0.3-0.1C23.1,40.7,7.4,6.4,7.3,6c-0.2-0.4,0-0.9,0.4-1.1c0.4-0.2,0.9,0,1.1,0.4
			C9,5.6,24.4,39.4,59.3,53.7c0.4,0.2,0.6,0.7,0.5,1.1C59.7,55.1,59.4,55.3,59,55.3z"/>
	</g>
</g>
</svg>
