<?xml version="1.0" encoding="utf-8"?>
<!-- Generator: Adobe Illustrator 19.2.1, SVG Export Plug-In . SVG Version: 6.00 Build 0)  -->
<svg version="1.1" id="Layer_1" xmlns="http://www.w3.org/2000/svg" xmlns:xlink="http://www.w3.org/1999/xlink" x="0px" y="0px"
	 viewBox="0 0 64 64" style="enable-background:new 0 0 64 64;" xml:space="preserve">
<metadata><?xpacket begin="﻿" id="W5M0MpCehiHzreSzNTczkc9d"?>
<x:xmpmeta xmlns:x="adobe:ns:meta/" x:xmptk="Adobe XMP Core 5.6-c111 79.158366, 2015/09/25-01:12:00        ">
   <rdf:RDF xmlns:rdf="http://www.w3.org/1999/02/22-rdf-syntax-ns#">
      <rdf:Description rdf:about=""/>
   </rdf:RDF>
</x:xmpmeta>
                                                                                                    
                                                                                                    
                                                                                                    
                                                                                                    
                                                                                                    
                                                                                                    
                                                                                                    
                                                                                                    
                                                                                                    
                                                                                                    
                                                                                                    
                                                                                                    
                                                                                                    
                                                                                                    
                                                                                                    
                                                                                                    
                                                                                                    
                                                                                                    
                                                                                                    
                                                                                                    
                           
<?xpacket end="w"?></metadata>
<style type="text/css">
	.st0{fill:none;}
	.st1{fill:#5B554D;}
</style>
<rect class="st0" width="64" height="64"/>
<g>
	<g>
		<path class="st1" d="M8.5,62.9c-0.5,0-1-0.2-1.5-0.7c-0.9-0.9-4.8-4.8-5.4-5.4c-0.5-0.5-0.6-1-0.6-1.4c0-0.5,0.3-0.9,0.5-1.2
			l11.2-11.1c-0.8-0.8-2-2-2.8-2.8c-0.7-0.7-0.9-1.4-0.7-2c0.4-0.9,1.5-1,2-1c1.7-0.2,13.6-1.9,15.2-1.9c0.8,0,1.3,0.3,1.5,0.6
			c0.6,0.6,0.6,1.5,0.5,1.7L27,52.7c0,0.4,0,1.6-1,2c-0.4,0.2-1.1,0.2-1.8-0.5c-0.8-0.8-2.3-2.3-3.1-3.1c-0.3,0.3-0.6,0.6-1,1
			c-1.4,1.4-3.3,3.3-5.1,5.1c-2,2-4,4-5.1,5.1c-0.2,0.3-0.6,0.6-1.1,0.6C8.7,62.9,8.6,62.9,8.5,62.9z M3.1,55.4c1,1,4.5,4.5,5.3,5.3
			c0,0,0,0,0,0c1.2-1.2,3.1-3.1,5.1-5.1c1.9-1.9,3.8-3.8,5.1-5.1c1-1,1.7-1.7,1.7-1.7c0.4-0.4,1-0.4,1.4,0c0,0,2,2,3.3,3.2l1.4-14.8
			c0,0,0-0.1,0-0.1l-0.1,0c-1.1,0-9.4,1.1-14.8,1.9c1.4,1.4,3.3,3.2,3.3,3.2c0.4,0.4,0.4,1,0,1.4L3.1,55.4z M2.9,55.6L2.9,55.6
			C2.9,55.7,2.9,55.7,2.9,55.6z M55.5,62.9C55.5,62.9,55.5,62.9,55.5,62.9c-0.5,0-1-0.3-1.2-0.5C52.2,60.3,46.8,54.9,44,52l-0.8-0.8
			l-2.9,2.9c-0.7,0.7-1.4,0.9-2,0.7c-1-0.4-1.1-1.7-1.1-2.1c-0.2-1.3-1.9-13.5-1.9-15.1c0-0.8,0.3-1.3,0.6-1.5
			c0.7-0.6,1.5-0.6,1.7-0.6l15.1,1.4c0.4,0,1.6,0,2,1c0.2,0.4,0.2,1-0.5,1.8c-0.8,0.8-2.3,2.3-3.1,3.1l1,1c1.8,1.8,4.4,4.4,6.7,6.7
			l3.6,3.6c0.3,0.2,0.6,0.6,0.6,1.1c0.1,0.4,0,1-0.7,1.7c-0.9,0.9-4.8,4.8-5.4,5.4C56.3,62.8,55.8,62.9,55.5,62.9z M55.7,61
			C55.7,61,55.7,61,55.7,61C55.7,61,55.7,61,55.7,61z M43.2,48.8c0.3,0,0.5,0.1,0.7,0.3l1.5,1.5c2.7,2.7,7.9,7.9,10.1,10.1
			c1-1,4.5-4.5,5.3-5.3c0,0,0,0,0,0l-3.5-3.5c-2.3-2.3-4.9-4.9-6.7-6.7L49,43.5c-0.4-0.4-0.4-1,0-1.4c0,0,2-2,3.3-3.3l-14.8-1.4
			c0,0-0.1,0-0.2,0c0,1.2,1.1,9.5,1.9,14.9l3.3-3.3C42.7,48.9,42.9,48.8,43.2,48.8z M61.2,55.7L61.2,55.7L61.2,55.7z M37.4,28.7
			c-0.8,0-1.3-0.3-1.5-0.6c-0.6-0.6-0.6-1.5-0.6-1.7l1.4-15.1c0-0.4,0-1.6,1-2c0.4-0.2,1-0.2,1.8,0.5l3.1,3.1L53.9,1.7
			c0.2-0.3,0.6-0.6,1.1-0.6c0.4,0,1,0,1.7,0.7c0.9,0.9,4.8,4.8,5.4,5.4c0.5,0.5,0.6,1,0.6,1.4c0,0.5-0.3,0.9-0.5,1.2l-3.6,3.6
			c-2.3,2.3-5,5-6.7,6.7c-0.3,0.3-0.6,0.6-0.8,0.8l2.9,2.8c0.7,0.7,0.9,1.4,0.7,2c-0.4,0.9-1.5,1-2,1C51,27.1,39,28.7,37.4,28.7z
			 M38.7,11.8l-1.4,14.8c0,0,0,0.1,0,0.2l0,0c1.1,0,9.4-1.1,14.8-1.9L49,21.6c-0.4-0.4-0.4-1,0-1.4c0,0,0.6-0.6,1.5-1.5
			c1.7-1.7,4.4-4.4,6.7-6.7l3.4-3.4c-1-1-4.5-4.5-5.3-5.3c0,0,0,0,0,0L43.4,15.1c-0.4,0.4-1,0.4-1.4,0L38.7,11.8z M60.9,8.3
			C60.9,8.3,60.9,8.3,60.9,8.3L60.9,8.3z M26.7,28.6c-0.1,0-0.1,0-0.2,0l-15.1-1.4c-0.4,0-1.6,0-2-1c-0.2-0.4-0.2-1,0.5-1.8l3.1-3.1
			L1.8,10C1.5,9.7,1.2,9.4,1.2,8.9c-0.1-0.4,0-1,0.7-1.7c0.9-0.9,4.8-4.8,5.4-5.4c0.5-0.5,1-0.6,1.4-0.6c0.5,0,0.9,0.3,1.2,0.5
			c2.1,2.1,7.5,7.5,10.3,10.3l0.8,0.8l2.9-2.9c0,0,0,0,0,0c0.7-0.7,1.4-0.9,2-0.7c0.9,0.4,1,1.5,1,2c0.2,1.7,1.9,13.6,1.9,15.2
			c0,0.8-0.3,1.3-0.6,1.5C27.7,28.5,27,28.6,26.7,28.6z M11.9,25.2l14.8,1.4c0,0,0.1,0,0.2,0c0-1.2-1.1-9.5-1.9-14.9l-3.3,3.3
			c-0.2,0.2-0.4,0.3-0.7,0.3c0,0,0,0,0,0c-0.3,0-0.5-0.1-0.7-0.3l-1.5-1.5c-2.7-2.7-7.9-7.9-10.1-10.1c-1,1-4.5,4.5-5.3,5.3
			c0,0,0,0,0,0l11.9,11.9c0.2,0.2,0.3,0.4,0.3,0.7c0,0.3-0.1,0.5-0.3,0.7L11.9,25.2z M2.9,8.3C2.9,8.3,2.9,8.3,2.9,8.3
			C2.9,8.3,2.9,8.3,2.9,8.3z M8.4,3C8.4,3,8.4,3,8.4,3C8.4,3,8.4,3,8.4,3z"/>
	</g>
</g>
</svg>
