<?xml version="1.0" encoding="utf-8"?>
<!-- Generator: Adobe Illustrator 19.2.1, SVG Export Plug-In . SVG Version: 6.00 Build 0)  -->
<svg version="1.1" id="Layer_1" xmlns="http://www.w3.org/2000/svg" xmlns:xlink="http://www.w3.org/1999/xlink" x="0px" y="0px"
	 viewBox="0 0 64 64" style="enable-background:new 0 0 64 64;" xml:space="preserve">
<metadata><?xpacket begin="﻿" id="W5M0MpCehiHzreSzNTczkc9d"?>
<x:xmpmeta xmlns:x="adobe:ns:meta/" x:xmptk="Adobe XMP Core 5.6-c111 79.158366, 2015/09/25-01:12:00        ">
   <rdf:RDF xmlns:rdf="http://www.w3.org/1999/02/22-rdf-syntax-ns#">
      <rdf:Description rdf:about=""/>
   </rdf:RDF>
</x:xmpmeta>
                                                                                                    
                                                                                                    
                                                                                                    
                                                                                                    
                                                                                                    
                                                                                                    
                                                                                                    
                                                                                                    
                                                                                                    
                                                                                                    
                                                                                                    
                                                                                                    
                                                                                                    
                                                                                                    
                                                                                                    
                                                                                                    
                                                                                                    
                                                                                                    
                                                                                                    
                                                                                                    
                           
<?xpacket end="w"?></metadata>
<style type="text/css">
	.st0{fill:none;}
	.st1{fill:#5B554D;}
</style>
<rect class="st0" width="64" height="64"/>
<g>
	<g>
		<g>
			<g>
				<path class="st1" d="M61.8,20c-0.6,0-1.2-0.5-1.2-1.2L60.3,3.7L45.1,3.4c-0.7,0-1.2-0.6-1.2-1.2C44,1.5,44.6,1,45.2,1l16.3,0.3
					c0.6,0,1.1,0.5,1.2,1.2L63,18.8C63,19.5,62.5,20,61.8,20C61.8,20,61.8,20,61.8,20z"/>
			</g>
			<g>
				<path class="st1" d="M35.7,29.3c-0.3,0-0.6-0.1-0.8-0.3c-0.5-0.5-0.5-1.2,0-1.7L59.5,2.7c0.5-0.5,1.2-0.5,1.7,0
					c0.5,0.5,0.5,1.2,0,1.7L36.5,29C36.3,29.2,36,29.3,35.7,29.3z"/>
			</g>
		</g>
		<g>
			<g>
				<path class="st1" d="M18.9,63C18.9,63,18.8,63,18.9,63L2.5,62.7c-0.6,0-1.1-0.5-1.2-1.2L1,45.2C1,44.5,1.5,44,2.2,44
					c0.7,0,1.2,0.5,1.2,1.2l0.3,15.2l15.2,0.3c0.7,0,1.2,0.6,1.2,1.2C20,62.5,19.5,63,18.9,63z"/>
			</g>
			<g>
				<path class="st1" d="M3.7,61.7c-0.3,0-0.6-0.1-0.8-0.3c-0.5-0.5-0.5-1.2,0-1.7L27.5,35c0.5-0.5,1.2-0.5,1.7,0
					c0.5,0.5,0.5,1.2,0,1.7L4.5,61.3C4.3,61.6,4,61.7,3.7,61.7z"/>
			</g>
		</g>
	</g>
	<g>
		<g>
			<g>
				<path class="st1" d="M45.1,63c-0.6,0-1.2-0.5-1.2-1.2c0-0.7,0.5-1.2,1.2-1.2l15.2-0.3l0.3-15.2c0-0.7,0.6-1.1,1.2-1.2
					c0.7,0,1.2,0.6,1.2,1.2l-0.3,16.3c0,0.6-0.5,1.1-1.2,1.2L45.1,63C45.2,63,45.1,63,45.1,63z"/>
			</g>
			<g>
				<path class="st1" d="M60.5,61.5c-0.3,0-0.6-0.1-0.8-0.3L35,36.5c-0.5-0.5-0.5-1.2,0-1.7c0.5-0.5,1.2-0.5,1.7,0l24.6,24.6
					c0.5,0.5,0.5,1.2,0,1.7C61.1,61.4,60.8,61.5,60.5,61.5z"/>
			</g>
		</g>
		<g>
			<g>
				<path class="st1" d="M2.2,20C2.2,20,2.2,20,2.2,20C1.5,20,1,19.5,1,18.8L1.3,2.5c0-0.6,0.5-1.1,1.2-1.2L18.8,1
					C19.5,1,20,1.5,20,2.2c0,0.7-0.5,1.2-1.2,1.2L3.7,3.7L3.4,18.9C3.4,19.5,2.8,20,2.2,20z"/>
			</g>
			<g>
				<path class="st1" d="M28.1,29.5c-0.3,0-0.6-0.1-0.8-0.3L2.7,4.5c-0.5-0.5-0.5-1.2,0-1.7c0.5-0.5,1.2-0.5,1.7,0L29,27.5
					c0.5,0.5,0.5,1.2,0,1.7C28.7,29.4,28.4,29.5,28.1,29.5z"/>
			</g>
		</g>
	</g>
</g>
</svg>
