<?xml version="1.0" encoding="utf-8"?>
<!-- Generator: Adobe Illustrator 19.2.1, SVG Export Plug-In . SVG Version: 6.00 Build 0)  -->
<svg version="1.1" id="Layer_1" xmlns="http://www.w3.org/2000/svg" xmlns:xlink="http://www.w3.org/1999/xlink" x="0px" y="0px"
	 viewBox="0 0 64 64" style="enable-background:new 0 0 64 64;" xml:space="preserve">
<metadata><?xpacket begin="﻿" id="W5M0MpCehiHzreSzNTczkc9d"?>
<x:xmpmeta xmlns:x="adobe:ns:meta/" x:xmptk="Adobe XMP Core 5.6-c111 79.158366, 2015/09/25-01:12:00        ">
   <rdf:RDF xmlns:rdf="http://www.w3.org/1999/02/22-rdf-syntax-ns#">
      <rdf:Description rdf:about=""/>
   </rdf:RDF>
</x:xmpmeta>
                                                                                                    
                                                                                                    
                                                                                                    
                                                                                                    
                                                                                                    
                                                                                                    
                                                                                                    
                                                                                                    
                                                                                                    
                                                                                                    
                                                                                                    
                                                                                                    
                                                                                                    
                                                                                                    
                                                                                                    
                                                                                                    
                                                                                                    
                                                                                                    
                                                                                                    
                                                                                                    
                           
<?xpacket end="w"?></metadata>
<style type="text/css">
	.st0{fill:none;}
	.st1{fill:#5B554D;}
</style>
<rect class="st0" width="64" height="64"/>
<g>
	<g>
		<path class="st1" d="M3.2,62.9c-0.8,0-1.3-0.4-1.6-0.7C1,61.6,1,60.7,1,60.5l1.6-16.6c0-0.4,0-1.7,1-2.1c0.4-0.2,1.1-0.2,1.9,0.6
			L9,45.9l12.4-12.4c0.2-0.3,0.6-0.6,1.1-0.6c0.6-0.1,1.2,0.2,1.8,0.8c0,0,0,0,0,0c0.6,0.6,2.6,2.6,4.1,4.1l1.8,1.8
			c0.5,0.5,0.7,1.1,0.6,1.4c0,0.5-0.3,1-0.5,1.2c-2.3,2.3-8.3,8.3-11.3,11.4l-0.9,0.9l3.2,3.2c0.7,0.7,1,1.5,0.7,2.1
			c-0.4,1-1.6,1.1-2.1,1.1C18.1,61.1,5,62.9,3.2,62.9z M3.1,60.9c0,0,0.1,0,0.1,0c1.4,0,12.4-1.5,16.5-2.1l-3.7-3.7
			c-0.2-0.2-0.3-0.4-0.3-0.7c0-0.3,0.1-0.5,0.3-0.7l1.7-1.6c3-3,8.8-8.8,11.2-11.2L27,39.1c-1.5-1.5-3.5-3.5-4.1-4.1l0,0
			c0,0-0.1-0.1-0.1-0.1L9.7,48c-0.2,0.2-0.4,0.3-0.7,0.3c0,0,0,0,0,0c-0.3,0-0.5-0.1-0.7-0.3l-3.7-3.7L3,60.7
			C3,60.7,3,60.9,3.1,60.9C3.1,60.9,3.1,60.9,3.1,60.9z M20.1,59.3L20.1,59.3L20.1,59.3z M29,40.7C29,40.7,29,40.7,29,40.7
			C29,40.7,29,40.7,29,40.7z M60.7,62.9c-0.1,0-0.1,0-0.1,0L44,61.3c-0.4,0-1.7,0-2.2-1c-0.2-0.4-0.2-1.1,0.6-1.9
			c0.9-0.9,2.6-2.6,3.5-3.5L33.5,42.5c-0.3-0.2-0.6-0.6-0.7-1.1c-0.1-0.6,0.2-1.2,0.8-1.8l1.3-1.3c1.6-1.7,4.1-4.1,4.6-4.6
			c0.5-0.5,1.1-0.6,1.4-0.6c0.5,0,1,0.3,1.2,0.5l12.3,12.3l3.2-3.2c0.7-0.7,1.5-1,2.1-0.7c1,0.4,1.1,1.6,1.1,2.1
			c0.3,1.8,2.1,14.9,2.1,16.7c0,0.8-0.4,1.3-0.7,1.6C61.8,62.8,61.1,62.9,60.7,62.9z M44.3,59.3l16.4,1.6c0,0,0.2,0,0.2-0.1l0,0
			c0,0,0,0,0-0.1c0-1.4-1.5-12.4-2.1-16.5l-3.7,3.7c-0.4,0.4-1,0.4-1.4,0L41,35.1c-0.8,0.7-3,3-4.6,4.6L35,41c0,0-0.1,0.1-0.1,0.1
			l13.1,13.1c0.4,0.4,0.4,1,0,1.4C48.1,55.6,45.7,57.9,44.3,59.3z M60.9,44.1L60.9,44.1L60.9,44.1z M59.4,43.8L59.4,43.8L59.4,43.8z
			 M40.8,34.9C40.8,34.9,40.8,34.9,40.8,34.9L40.8,34.9z M41,31.2c-0.5,0-1.1-0.3-1.6-0.8l-5.9-5.9c-0.5-0.6-0.6-1.1-0.6-1.5
			c0-0.5,0.3-1,0.5-1.2l1.7-1.7c2.8-2.8,7.2-7.2,9.7-9.7l0.9-0.9l-3.2-3.2c-0.7-0.7-1-1.5-0.7-2.1c0.4-1,1.6-1.1,2.1-1.1
			c1.8-0.3,14.9-2.1,16.7-2.1c0.8,0,1.3,0.4,1.6,0.7c0.6,0.7,0.6,1.6,0.6,1.8l-1.6,16.6c0,0.4-0.1,1.7-1,2.1
			c-0.4,0.2-1.1,0.2-1.9-0.6l-3.5-3.5L42.4,30.5c-0.2,0.3-0.6,0.6-1.1,0.7C41.2,31.2,41.1,31.2,41,31.2z M41.1,29.2L41.1,29.2
			L41.1,29.2z M34.9,23.1l5.9,5.9c0,0,0,0,0,0c0,0,0.1,0.1,0.1,0.1L54.1,16c0.4-0.4,1-0.4,1.4,0l3.7,3.7l1.5-16.4
			c0-0.1,0-0.2-0.1-0.2c0,0,0,0-0.1,0c-1.4,0-12.3,1.5-16.5,2.1l3.7,3.7c0.4,0.4,0.4,1,0,1.4l-1.7,1.7c-2.5,2.5-6.9,6.9-9.7,9.7
			L34.9,23.1z M34.8,23.3L34.8,23.3C34.8,23.3,34.8,23.3,34.8,23.3z M59.9,20.4L59.9,20.4L59.9,20.4z M43.7,4.6L43.7,4.6L43.7,4.6z
			 M23.2,31C23.2,31,23.2,31,23.2,31c-0.6,0-1-0.3-1.2-0.5c-1.1-1.1-3.1-3.1-5.2-5.2c-2.2-2.2-4.5-4.5-6.1-6.1
			c-0.4-0.4-0.7-0.7-0.9-1l-3.2,3.2c-0.7,0.7-1.4,1-2.1,0.7c-1-0.4-1.1-1.6-1.1-2.1C3,18.2,1.1,5.1,1.1,3.3c0-0.8,0.4-1.3,0.6-1.6
			c0.7-0.6,1.6-0.6,1.8-0.6l16.6,1.6c0.4,0,1.7,0,2.1,1c0.2,0.4,0.2,1.1-0.6,1.9c-0.9,0.9-2.6,2.6-3.5,3.5c0.3,0.3,0.7,0.7,1.1,1.1
			l11.3,11.3c0.3,0.2,0.6,0.6,0.7,1.1c0.1,0.6-0.2,1.2-0.8,1.8c-0.7,0.7-2.9,2.9-4.5,4.5l-1.5,1.5C24.1,30.9,23.5,31,23.2,31z
			 M23.4,29.1C23.4,29.1,23.4,29.1,23.4,29.1C23.4,29.1,23.4,29.1,23.4,29.1z M9.6,15.8c0.3,0,0.5,0.1,0.7,0.3c0,0,0.7,0.7,1.7,1.7
			c1.6,1.6,3.9,3.9,6.1,6.1c2,2,3.9,3.9,5.1,5.1l1.4-1.4c1.6-1.6,3.8-3.8,4.5-4.5c0,0,0.1-0.1,0.1-0.1L17.9,11.7
			c-1.1-1.1-1.9-1.8-1.9-1.8c-0.4-0.4-0.4-1,0-1.4c0,0,2.3-2.3,3.7-3.7L3.4,3.1c0,0,0,0,0,0c-0.1,0-0.2,0-0.2,0.1
			c0,1.5,1.5,12.5,2.1,16.6l3.7-3.7C9.1,15.9,9.4,15.8,9.6,15.8z M29.5,23.1C29.5,23.1,29.5,23.1,29.5,23.1
			C29.5,23.1,29.5,23.1,29.5,23.1z M20.4,4L20.4,4L20.4,4z"/>
	</g>
</g>
</svg>
