<?xml version="1.0" encoding="utf-8"?>
<!-- Generator: Adobe Illustrator 19.2.1, SVG Export Plug-In . SVG Version: 6.00 Build 0)  -->
<svg version="1.1" id="Layer_1" xmlns="http://www.w3.org/2000/svg" xmlns:xlink="http://www.w3.org/1999/xlink" x="0px" y="0px"
	 viewBox="0 0 64 64" style="enable-background:new 0 0 64 64;" xml:space="preserve">
<metadata><?xpacket begin="﻿" id="W5M0MpCehiHzreSzNTczkc9d"?>
<x:xmpmeta xmlns:x="adobe:ns:meta/" x:xmptk="Adobe XMP Core 5.6-c111 79.158366, 2015/09/25-01:12:00        ">
   <rdf:RDF xmlns:rdf="http://www.w3.org/1999/02/22-rdf-syntax-ns#">
      <rdf:Description rdf:about=""/>
   </rdf:RDF>
</x:xmpmeta>
                                                                                                    
                                                                                                    
                                                                                                    
                                                                                                    
                                                                                                    
                                                                                                    
                                                                                                    
                                                                                                    
                                                                                                    
                                                                                                    
                                                                                                    
                                                                                                    
                                                                                                    
                                                                                                    
                                                                                                    
                                                                                                    
                                                                                                    
                                                                                                    
                                                                                                    
                                                                                                    
                           
<?xpacket end="w"?></metadata>
<style type="text/css">
	.st0{fill:none;}
	.st1{fill:#5B554D;}
</style>
<rect class="st0" width="64" height="64"/>
<g>
	<g>
		<g>
			<path class="st1" d="M38.3,55.4C38.3,55.4,38.2,55.4,38.3,55.4c-0.6,0-1-0.5-1-1l0.4-17.5c0-0.5,0.4-1,1-1l17.5-0.4
				c0.6,0,1,0.4,1,1c0,0.6-0.4,1-1,1l-16.6,0.3l-0.3,16.6C39.2,55,38.8,55.4,38.3,55.4z"/>
		</g>
		<g>
			<path class="st1" d="M62,61.1c-0.3,0-0.5-0.1-0.7-0.3L39.2,38.7c-0.4-0.4-0.4-1,0-1.4c0.4-0.4,1-0.4,1.4,0l22.1,22.1
				c0.4,0.4,0.4,1,0,1.4C62.5,61,62.3,61.1,62,61.1z"/>
		</g>
	</g>
	<g>
		<g>
			<path class="st1" d="M25.7,55.4c-0.5,0-1-0.4-1-1l-0.3-16.6L7.8,37.6c-0.6,0-1-0.5-1-1c0-0.5,0.5-1,1-1l17.5,0.4c0.5,0,1,0.4,1,1
				l0.4,17.5C26.7,55,26.3,55.4,25.7,55.4C25.8,55.4,25.7,55.4,25.7,55.4z"/>
		</g>
		<g>
			<path class="st1" d="M2,61.1c-0.3,0-0.5-0.1-0.7-0.3c-0.4-0.4-0.4-1,0-1.4l22.1-22.1c0.4-0.4,1-0.4,1.4,0c0.4,0.4,0.4,1,0,1.4
				L2.7,60.8C2.5,61,2.3,61.1,2,61.1z"/>
		</g>
	</g>
	<g>
		<g>
			<g>
				<path class="st1" d="M7.9,28.4c-0.5,0-1-0.4-1-1c0-0.6,0.4-1,1-1l16.6-0.3l0.3-16.6c0-0.5,0.5-1,1-1c0.6,0,1,0.5,1,1l-0.4,17.5
					c0,0.5-0.4,1-1,1L7.9,28.4C7.9,28.4,7.9,28.4,7.9,28.4z"/>
			</g>
			<g>
				<path class="st1" d="M24.1,27c-0.3,0-0.5-0.1-0.7-0.3L1.3,4.6c-0.4-0.4-0.4-1,0-1.4c0.4-0.4,1-0.4,1.4,0l22.1,22.1
					c0.4,0.4,0.4,1,0,1.4C24.6,26.9,24.4,27,24.1,27z"/>
			</g>
		</g>
		<g>
			<g>
				<path class="st1" d="M56.1,28.4C56.1,28.4,56.1,28.4,56.1,28.4l-17.5-0.4c-0.5,0-1-0.4-1-1L37.3,9.6c0-0.6,0.4-1,1-1
					c0.6,0,1,0.4,1,1l0.3,16.6l16.6,0.3c0.6,0,1,0.5,1,1C57.1,28,56.7,28.4,56.1,28.4z"/>
			</g>
			<g>
				<path class="st1" d="M39.9,27c-0.3,0-0.5-0.1-0.7-0.3c-0.4-0.4-0.4-1,0-1.4L61.3,3.2c0.4-0.4,1-0.4,1.4,0c0.4,0.4,0.4,1,0,1.4
					L40.6,26.7C40.4,26.9,40.1,27,39.9,27z"/>
			</g>
		</g>
	</g>
</g>
</svg>
