<?xml version="1.0" encoding="utf-8"?>
<!-- Generator: Adobe Illustrator 19.2.1, SVG Export Plug-In . SVG Version: 6.00 Build 0)  -->
<svg version="1.1" id="Layer_1" xmlns="http://www.w3.org/2000/svg" xmlns:xlink="http://www.w3.org/1999/xlink" x="0px" y="0px"
	 viewBox="0 0 64 64" style="enable-background:new 0 0 64 64;" xml:space="preserve">
<metadata><?xpacket begin="﻿" id="W5M0MpCehiHzreSzNTczkc9d"?>
<x:xmpmeta xmlns:x="adobe:ns:meta/" x:xmptk="Adobe XMP Core 5.6-c111 79.158366, 2015/09/25-01:12:00        ">
   <rdf:RDF xmlns:rdf="http://www.w3.org/1999/02/22-rdf-syntax-ns#">
      <rdf:Description rdf:about=""/>
   </rdf:RDF>
</x:xmpmeta>
                                                                                                    
                                                                                                    
                                                                                                    
                                                                                                    
                                                                                                    
                                                                                                    
                                                                                                    
                                                                                                    
                                                                                                    
                                                                                                    
                                                                                                    
                                                                                                    
                                                                                                    
                                                                                                    
                                                                                                    
                                                                                                    
                                                                                                    
                                                                                                    
                                                                                                    
                                                                                                    
                           
<?xpacket end="w"?></metadata>
<style type="text/css">
	.st0{fill:none;}
	.st1{fill:#5B554D;}
</style>
<rect class="st0" width="64" height="64"/>
<g>
	<g>
		<path class="st1" d="M38,33c-0.2,0-0.3,0-0.4-0.1c-0.4-0.2-0.4-0.7-0.2-1.1l12.5-18.5c0.8-1.1,1.1-2.4,1-3.6
			c-0.1-1.2-0.6-2.1-1.4-2.7c-0.7-0.5-1.6-0.7-2.6-0.5c-1.3,0.2-2.5,1.1-3.4,2.3L32.6,24.5c-0.1,0.2-0.4,0.3-0.6,0.3l0,0
			c-0.3,0-0.5-0.1-0.6-0.3L20.4,8.9c-1-1.5-2.6-2.6-4-2.8c-0.8-0.1-1.5,0-2,0.4c-0.7,0.5-1.2,1.3-1.4,2.4c-0.3,1.5,0.1,3.3,1,4.5
			l12.9,18.5c0.2,0.4,0.2,0.8-0.2,1.1c-0.4,0.2-0.8,0.2-1.1-0.2L12.8,14.2c-1.1-1.6-1.6-3.7-1.2-5.7c0.3-1.5,1-2.7,2-3.4
			c0.9-0.6,2-0.8,3.2-0.6c1.8,0.3,3.7,1.7,5,3.5L32,22.7L42.2,8c1.1-1.6,2.7-2.6,4.4-2.9c1.4-0.2,2.7,0,3.8,0.8
			c1.2,0.8,2,2.2,2.1,3.8c0.1,1.6-0.3,3.2-1.3,4.6L38.6,32.7C38.5,32.9,38.2,33,38,33z"/>
	</g>
	<g>
		<path class="st1" d="M50.6,59.6c-1.3,0-6.3-0.2-8.3-3.1L31.4,40.9c-0.2-0.4-0.2-0.8,0.2-1.1c0.4-0.2,0.8-0.2,1.1,0.2l10.8,15.6
			c1.8,2.5,7.2,2.4,7.3,2.4c5.9,0,10.6-4.7,10.6-10.6c0-5.8-4.7-10.6-10.6-10.6c-2.9,0-5.5,1.1-7.5,3.2c-0.2,0.2-0.4,0.2-0.6,0.2
			c-0.2,0-0.4-0.1-0.6-0.3L37.3,33c-0.2-0.4-0.2-0.8,0.2-1.1c0.4-0.3,0.8-0.2,1.1,0.2l4.4,6.2c2.2-1.9,5-3,8-3
			c6.7,0,12.1,5.4,12.1,12.1c0,6.7-5.4,12.1-12.1,12.1C50.9,59.6,50.7,59.6,50.6,59.6z"/>
	</g>
	<g>
		<path class="st1" d="M13.4,59.6c-0.2,0-0.3,0-0.3,0C6.4,59.6,1,54.1,1,47.4c0-6.7,5.4-12.1,12.1-12.1c3,0,5.8,1.1,8,3l4.3-6.2
			c0.2-0.4,0.7-0.4,1.1-0.2c0.4,0.2,0.4,0.7,0.2,1.1l-4.8,6.9c-0.1,0.2-0.3,0.3-0.6,0.3c-0.2,0-0.5-0.1-0.6-0.2
			c-2-2-4.7-3.2-7.5-3.2c-5.8,0-10.6,4.7-10.6,10.6C2.6,53.3,7.3,58,13.1,58c0.1,0,5.5,0.2,7.3-2.4L31.3,40c0.1-0.2,0.4-0.3,0.6-0.3
			c0.4,0,0.8,0.3,0.8,0.8c0,0.3-0.1,0.5-0.3,0.7L21.7,56.5C19.7,59.4,14.7,59.6,13.4,59.6z"/>
	</g>
	<g>
		<path class="st1" d="M51.1,52.9c-3,0-5.5-2.4-5.5-5.4c0-3,2.4-5.5,5.5-5.5c3,0,5.5,2.4,5.5,5.5C56.6,50.4,54.2,52.9,51.1,52.9z
			 M51.1,43.5c-2.1,0-3.9,1.7-3.9,3.9c0,2.1,1.7,3.9,3.9,3.9c2.1,0,3.9-1.7,3.9-3.9C55,45.3,53.3,43.5,51.1,43.5z M13.1,52.9
			c-3,0-5.4-2.4-5.4-5.4c0-3,2.4-5.5,5.4-5.5c3,0,5.5,2.4,5.5,5.5C18.6,50.4,16.1,52.9,13.1,52.9z M13.1,43.5
			c-2.1,0-3.9,1.7-3.9,3.9c0,2.1,1.7,3.9,3.9,3.9c2.1,0,3.9-1.7,3.9-3.9C17,45.3,15.3,43.5,13.1,43.5z"/>
	</g>
	<circle class="st1" cx="31.8" cy="32.1" r="2"/>
	<g>
		<path class="st1" d="M37.7,33c-0.2,0-0.5-0.1-0.6-0.3l-5.7-8.2c-0.2-0.4-0.2-0.8,0.2-1.1c0.4-0.2,0.8-0.2,1.1,0.2l5.7,8.2
			c0.2,0.4,0.2,0.8-0.2,1.1C38,33,37.8,33,37.7,33z"/>
	</g>
	<g>
		<path class="st1" d="M32.1,41.1c-0.2,0-0.5-0.1-0.6-0.3l-5.8-8.1c-0.3-0.3-0.2-0.8,0.2-1.1c0.3-0.2,0.8-0.2,1.1,0.2l5.8,8.1
			c0.3,0.3,0.2,0.8-0.2,1.1C32.4,41.1,32.2,41.1,32.1,41.1z"/>
	</g>
</g>
</svg>
