<?xml version="1.0" encoding="utf-8"?>
<!-- Generator: Adobe Illustrator 19.2.1, SVG Export Plug-In . SVG Version: 6.00 Build 0)  -->
<svg version="1.1" id="Layer_1" xmlns="http://www.w3.org/2000/svg" xmlns:xlink="http://www.w3.org/1999/xlink" x="0px" y="0px"
	 viewBox="0 0 64 64" style="enable-background:new 0 0 64 64;" xml:space="preserve">
<metadata><?xpacket begin="﻿" id="W5M0MpCehiHzreSzNTczkc9d"?>
<x:xmpmeta xmlns:x="adobe:ns:meta/" x:xmptk="Adobe XMP Core 5.6-c111 79.158366, 2015/09/25-01:12:00        ">
   <rdf:RDF xmlns:rdf="http://www.w3.org/1999/02/22-rdf-syntax-ns#">
      <rdf:Description rdf:about=""/>
   </rdf:RDF>
</x:xmpmeta>
                                                                                                    
                                                                                                    
                                                                                                    
                                                                                                    
                                                                                                    
                                                                                                    
                                                                                                    
                                                                                                    
                                                                                                    
                                                                                                    
                                                                                                    
                                                                                                    
                                                                                                    
                                                                                                    
                                                                                                    
                                                                                                    
                                                                                                    
                                                                                                    
                                                                                                    
                                                                                                    
                           
<?xpacket end="w"?></metadata>
<style type="text/css">
	.st0{fill:none;}
	.st1{fill:#5B554D;}
</style>
<rect class="st0" width="64" height="64"/>
<g>
	<g>
		<path class="st1" d="M32,57c-11.2,0-18.8-1.7-19.1-1.8c-0.3-0.1-0.6-0.3-0.7-0.6c-0.1-0.3,0-0.7,0.2-0.9l0.3-0.4
			c0.1-0.1,0.2-0.2,0.4-0.3c2.2-0.8,9.4-1,15.1-1.1l0,0c0.5,0,0.9,0.4,0.9,0.9s-0.4,0.9-0.9,1c-4.1,0.1-7.6,0.2-10.1,0.4
			c3.3,0.4,8.1,0.9,13.8,0.9c0.1,0,7.8,0,13.6-0.7c-2.8-0.2-6.4-0.4-9.9-0.6c-0.5,0-0.9-0.5-0.9-1s0.4-0.9,0.9-0.9l0,0
			c7.3,0.2,14.9,1,14.9,1c0.3,0,0.5,0.2,0.7,0.4l0.3,0.5c0.2,0.2,0.2,0.5,0.1,0.8c-0.1,0.3-0.3,0.5-0.6,0.6C46.2,57,32.6,57,32,57z"
			/>
	</g>
	<g>
		<g>
			<path class="st1" d="M29.5,53.8l-1.9-0.1c0,0,0.1-2.7,0.1-4c0-0.1,0-0.2,0-0.3c0.1-0.5,0.6-0.8,1.1-0.7s0.8,0.6,0.8,1.1
				C29.6,51.2,29.5,53.8,29.5,53.8z"/>
		</g>
		<g>
			<path class="st1" d="M34.5,53.8c0,0-0.1-2.8-0.1-4.1c0-0.5,0.4-0.9,0.9-0.9l0,0c0.5,0,0.9,0.4,0.9,0.9c0,1.3,0.1,4,0.1,4
				L34.5,53.8z"/>
		</g>
	</g>
	<g>
		<g>
			<path class="st1" d="M60.7,50.3H3.3c-1.2,0-2.3-1-2.3-2.3V9.3C1,8,2,7,3.3,7h57.5C62,7,63,8,63,9.3v38.8
				C63,49.3,62,50.3,60.7,50.3z M3.3,8.9C3.1,8.9,2.9,9,2.9,9.3v38.8c0,0.2,0.2,0.4,0.4,0.4h57.5c0.2,0,0.4-0.2,0.4-0.4V9.3
				c0-0.2-0.2-0.4-0.4-0.4C60.8,8.9,3.3,8.9,3.3,8.9z"/>
		</g>
	</g>
</g>
</svg>
