<?xml version="1.0" encoding="utf-8"?>
<!-- Generator: Adobe Illustrator 19.2.1, SVG Export Plug-In . SVG Version: 6.00 Build 0)  -->
<svg version="1.1" id="Layer_1" xmlns="http://www.w3.org/2000/svg" xmlns:xlink="http://www.w3.org/1999/xlink" x="0px" y="0px"
	 viewBox="0 0 64 64" style="enable-background:new 0 0 64 64;" xml:space="preserve">
<metadata><?xpacket begin="﻿" id="W5M0MpCehiHzreSzNTczkc9d"?>
<x:xmpmeta xmlns:x="adobe:ns:meta/" x:xmptk="Adobe XMP Core 5.6-c111 79.158366, 2015/09/25-01:12:00        ">
   <rdf:RDF xmlns:rdf="http://www.w3.org/1999/02/22-rdf-syntax-ns#">
      <rdf:Description rdf:about=""/>
   </rdf:RDF>
</x:xmpmeta>
                                                                                                    
                                                                                                    
                                                                                                    
                                                                                                    
                                                                                                    
                                                                                                    
                                                                                                    
                                                                                                    
                                                                                                    
                                                                                                    
                                                                                                    
                                                                                                    
                                                                                                    
                                                                                                    
                                                                                                    
                                                                                                    
                                                                                                    
                                                                                                    
                                                                                                    
                                                                                                    
                           
<?xpacket end="w"?></metadata>
<style type="text/css">
	.st0{fill:none;}
	.st1{fill:#5B554D;}
</style>
<rect class="st0" width="64" height="64"/>
<g>
	<g id="group">
		<g>
			<path class="st1" d="M28,61.7c-0.2,0-0.3,0-0.4,0c-1.1,0-2.5-0.5-2.6-0.6c-0.1,0-2.5-0.8-3.5-1.2c-1.5-0.6-1.2-2.9-1-3.9l0.8-3.7
				c0.1-0.4,0.5-0.7,0.9-0.7h11.6c0.3,0,0.5,0.1,0.7,0.3s0.3,0.4,0.3,0.7c0,0-0.2,2.5-0.2,3.2c0,1.3,0.3,1.5,0.7,1.6
				c0.2,0,0.8,0.2,1.6,0.4c1.8,0.4,4.5,1.1,5.8,1.3c0.7,0.1,1,0.7,1,1.1c0,0.2-0.1,0.5-0.3,0.6c-0.3,0.3-0.6,0.4-1.7,0.4
				c-0.5,0-2,0.1-3.9,0.2C34.1,61.5,29.7,61.7,28,61.7z M42.2,60.8L42.2,60.8L42.2,60.8z M22.9,53.4l-0.6,3c-0.2,0.9-0.1,1.6,0,1.8
				c0.8,0.3,3.3,1.1,3.3,1.1c0.4,0.1,1.4,0.5,2.1,0.5c1,0,5.2-0.1,8.5-0.3c-0.7-0.2-1.2-0.3-1.4-0.3c-1-0.2-2.2-1-2.2-3.4
				c0-0.4,0.1-1.5,0.1-2.3L22.9,53.4L22.9,53.4z"/>
		</g>
	</g>
	<g>
		<path class="st1" d="M61.1,53.3L4.9,53.2C3.3,53.1,2.1,52,2,50.6v-5.3v-0.1L1,5.3c0-0.3,0-1,0.2-1.5C1.5,2.9,2.3,2,4.4,2.4l52.8,8
			c1.7,0.4,2.1,1.5,2.2,2.4l3.3,34.1l0,0l0.4,4.3C63,52.5,62.3,53.2,61.1,53.3z M3.9,45.4L4,50.5c0,0.4,0.4,0.8,1,0.8l56,0.2
			c0.1,0,0.1,0,0.1,0s0,0,0-0.1l-0.4-4.2L57.5,13c0-0.4-0.1-0.6-0.7-0.7l-52.7-8C3.1,4.1,3,4.3,3,4.5c0,0.1,0,0.1-0.1,0.1
			c0,0,0,0.3,0,0.6l1,40.1C3.9,45.3,3.9,45.3,3.9,45.4z"/>
	</g>
</g>
</svg>
