<?xml version="1.0" encoding="utf-8"?>
<!-- Generator: Adobe Illustrator 19.2.1, SVG Export Plug-In . SVG Version: 6.00 Build 0)  -->
<svg version="1.1" id="Layer_1" xmlns="http://www.w3.org/2000/svg" xmlns:xlink="http://www.w3.org/1999/xlink" x="0px" y="0px"
	 viewBox="0 0 64 64" style="enable-background:new 0 0 64 64;" xml:space="preserve">
<metadata><?xpacket begin="﻿" id="W5M0MpCehiHzreSzNTczkc9d"?>
<x:xmpmeta xmlns:x="adobe:ns:meta/" x:xmptk="Adobe XMP Core 5.6-c111 79.158366, 2015/09/25-01:12:00        ">
   <rdf:RDF xmlns:rdf="http://www.w3.org/1999/02/22-rdf-syntax-ns#">
      <rdf:Description rdf:about=""/>
   </rdf:RDF>
</x:xmpmeta>
                                                                                                    
                                                                                                    
                                                                                                    
                                                                                                    
                                                                                                    
                                                                                                    
                                                                                                    
                                                                                                    
                                                                                                    
                                                                                                    
                                                                                                    
                                                                                                    
                                                                                                    
                                                                                                    
                                                                                                    
                                                                                                    
                                                                                                    
                                                                                                    
                                                                                                    
                                                                                                    
                           
<?xpacket end="w"?></metadata>
<style type="text/css">
	.st0{fill:none;}
	.st1{fill:#5B554D;}
</style>
<rect class="st0" width="64" height="64"/>
<g>
	<g>
		<g>
			<path class="st1" d="M41.6,57.8H22.7c-0.4,0-0.7-0.2-0.9-0.4c-0.4-0.5-0.3-1.1-0.3-1.4c0.1-0.5,0.5-0.8,0.9-0.8l0,0l10.1,0.1
				l8.8-0.2c0.1,0,0.2,0,0.3,0.1l0.5,0.2c0.3,0.1,0.6,0.5,0.6,0.8s0,0.9-0.4,1.3C42.3,57.7,42,57.8,41.6,57.8z M41.9,56.3L41.9,56.3
				L41.9,56.3L41.9,56.3z"/>
		</g>
	</g>
	<g>
		<g>
			<path class="st1" d="M41.4,57.4c-0.1,0-0.1,0-0.2,0H23c-0.6,0-1.3-0.3-1.5-0.9c-0.2-0.4,0-0.9,0.4-1.2c0.4-0.4,1.5-1.2,2.3-2l0,0
				c0,0,0.2-0.6,0.4-3.7c0-0.5,0.5-0.9,1-0.9s0.9,0.5,0.9,1c-0.3,4.1-0.7,4.5-0.9,4.8c-0.3,0.3-0.7,0.7-1,1h15.2
				c-0.4-0.3-0.7-0.7-1-1s-0.7-0.7-0.9-5c0-0.5,0.4-1,0.9-1s1,0.4,1,0.9c0.2,3.2,0.5,3.9,0.5,3.9c0.4,0.5,1.2,1.1,2.2,1.9
				c0.5,0.4,0.6,0.9,0.5,1.4C42.7,56.8,42.4,57.4,41.4,57.4z"/>
		</g>
	</g>
	<g>
		<path class="st1" d="M60.3,49.5H3.7c-1.5,0-2.7-1.2-2.7-2.7V8.9c0-1.5,1.2-2.7,2.7-2.7h56.6c1.5,0,2.7,1.2,2.7,2.7v37.9
			C63,48.3,61.8,49.5,60.3,49.5z M3.7,8.1c-0.5,0-0.8,0.4-0.8,0.8v37.9c0,0.5,0.4,0.8,0.8,0.8h56.6c0.5,0,0.8-0.4,0.8-0.8V8.9
			c0-0.5-0.4-0.8-0.8-0.8C60.3,8.1,3.7,8.1,3.7,8.1z"/>
	</g>
</g>
</svg>
