<?xml version="1.0" encoding="utf-8"?>
<!-- Generator: Adobe Illustrator 19.2.1, SVG Export Plug-In . SVG Version: 6.00 Build 0)  -->
<svg version="1.1" id="Layer_1" xmlns="http://www.w3.org/2000/svg" xmlns:xlink="http://www.w3.org/1999/xlink" x="0px" y="0px"
	 viewBox="0 0 64 64" style="enable-background:new 0 0 64 64;" xml:space="preserve">
<metadata><?xpacket begin="﻿" id="W5M0MpCehiHzreSzNTczkc9d"?>
<x:xmpmeta xmlns:x="adobe:ns:meta/" x:xmptk="Adobe XMP Core 5.6-c111 79.158366, 2015/09/25-01:12:00        ">
   <rdf:RDF xmlns:rdf="http://www.w3.org/1999/02/22-rdf-syntax-ns#">
      <rdf:Description rdf:about=""/>
   </rdf:RDF>
</x:xmpmeta>
                                                                                                    
                                                                                                    
                                                                                                    
                                                                                                    
                                                                                                    
                                                                                                    
                                                                                                    
                                                                                                    
                                                                                                    
                                                                                                    
                                                                                                    
                                                                                                    
                                                                                                    
                                                                                                    
                                                                                                    
                                                                                                    
                                                                                                    
                                                                                                    
                                                                                                    
                                                                                                    
                           
<?xpacket end="w"?></metadata>
<style type="text/css">
	.st0{fill:none;}
	.st1{fill:#5B554D;}
</style>
<rect class="st0" width="64" height="64"/>
<g>
	<g>
		<path class="st1" d="M53.2,60.8h-48c-2.3,0-4.2-1.9-4.2-4.2V8.3C1,6,2.9,4.1,5.2,4.1h38.2c0.6,0,1,0.5,1,1s-0.5,1-1,1H5.2
			C4,6.2,3,7.1,3,8.3v48.3c0,1.2,1,2.2,2.2,2.2h48c1.2,0,2.2-1,2.2-2.2v-25c0-0.6,0.5-1,1-1s1,0.5,1,1v25
			C57.4,58.9,55.5,60.8,53.2,60.8z"/>
	</g>
	<g>
		<g>
			<path class="st1" d="M52.5,26c-0.3,0-0.5-0.1-0.7-0.3c-0.4-0.4-0.4-1,0-1.4l8.9-8.9c0.2-0.2,0.3-0.5,0.3-0.8s-0.1-0.6-0.3-0.8
				L51.8,5c-0.4-0.4-0.4-1,0-1.4s1-0.4,1.4,0l8.9,8.9c0.6,0.6,0.9,1.4,0.9,2.2s-0.3,1.6-0.9,2.2l-8.9,8.9C53,25.9,52.7,26,52.5,26z"
				/>
		</g>
		<g>
			<path class="st1" d="M23.8,40.8c-0.1,0-0.1,0-0.2,0c-0.6-0.1-0.9-0.6-0.8-1.2c0.1-0.3,5.5-30.7,37.7-26.1
				c0.6,0.1,0.9,0.6,0.9,1.2c-0.1,0.6-0.6,1-1.2,0.9C30,11.2,25,38.8,24.8,40C24.7,40.5,24.3,40.8,23.8,40.8z"/>
		</g>
	</g>
</g>
</svg>
