<?xml version="1.0" encoding="utf-8"?>
<!-- Generator: Adobe Illustrator 19.2.1, SVG Export Plug-In . SVG Version: 6.00 Build 0)  -->
<svg version="1.1" id="Layer_1" xmlns="http://www.w3.org/2000/svg" xmlns:xlink="http://www.w3.org/1999/xlink" x="0px" y="0px"
	 viewBox="0 0 64 64" style="enable-background:new 0 0 64 64;" xml:space="preserve">
<metadata><?xpacket begin="﻿" id="W5M0MpCehiHzreSzNTczkc9d"?>
<x:xmpmeta xmlns:x="adobe:ns:meta/" x:xmptk="Adobe XMP Core 5.6-c111 79.158366, 2015/09/25-01:12:00        ">
   <rdf:RDF xmlns:rdf="http://www.w3.org/1999/02/22-rdf-syntax-ns#">
      <rdf:Description rdf:about=""/>
   </rdf:RDF>
</x:xmpmeta>
                                                                                                    
                                                                                                    
                                                                                                    
                                                                                                    
                                                                                                    
                                                                                                    
                                                                                                    
                                                                                                    
                                                                                                    
                                                                                                    
                                                                                                    
                                                                                                    
                                                                                                    
                                                                                                    
                                                                                                    
                                                                                                    
                                                                                                    
                                                                                                    
                                                                                                    
                                                                                                    
                           
<?xpacket end="w"?></metadata>
<style type="text/css">
	.st0{fill:none;}
	.st1{fill:#5B554D;}
</style>
<rect class="st0" width="64" height="64"/>
<g>
	<g>
		<g>
			<path class="st1" d="M6,58.5H3.7c-1.5,0-2.7-1.2-2.7-2.7v-52C1,2.2,2.2,1,3.7,1h52c1.5,0,2.7,1.2,2.7,2.7V6c0,0.6-0.4,1-1,1
				s-1-0.4-1-1V3.7c0-0.4-0.3-0.7-0.7-0.7h-52C3.3,3,3,3.3,3,3.7v52c0,0.4,0.3,0.7,0.7,0.7H6c0.6,0,1,0.4,1,1S6.5,58.5,6,58.5z"/>
		</g>
		<g>
			<path class="st1" d="M62,63H9.9c-0.6,0-1-0.4-1-1V9.9c0-0.6,0.4-1,1-1H62c0.6,0,1,0.4,1,1V62C63,62.5,62.6,63,62,63z M10.9,61H61
				V10.9H10.9V61z"/>
		</g>
	</g>
	<g>
		<g>
			<path class="st1" d="M45.8,42.1c-0.5,0-1-0.4-1-1L44.7,29c0-0.3-0.1-0.5-0.3-0.7C44.3,28.1,44,28,43.7,28h-12c-0.6,0-1-0.5-1-1
				c0-0.6,0.5-1,1-1l0,0h12c0.8,0,1.6,0.3,2.1,0.9c0.6,0.6,0.9,1.3,0.9,2.1l0.1,12.1C46.8,41.7,46.4,42.1,45.8,42.1L45.8,42.1z"/>
		</g>
		<g>
			<path class="st1" d="M25.9,47.9c-0.3,0-0.5-0.1-0.7-0.3c-0.4-0.4-0.4-1,0-1.4L44.4,27c0.4-0.4,1-0.4,1.4,0s0.4,1,0,1.4L26.6,47.6
				C26.4,47.8,26.2,47.9,25.9,47.9z"/>
		</g>
	</g>
</g>
</svg>
