<?xml version="1.0" encoding="utf-8"?>
<!-- Generator: Adobe Illustrator 19.2.1, SVG Export Plug-In . SVG Version: 6.00 Build 0)  -->
<svg version="1.1" id="Layer_1" xmlns="http://www.w3.org/2000/svg" xmlns:xlink="http://www.w3.org/1999/xlink" x="0px" y="0px"
	 viewBox="0 0 64 64" style="enable-background:new 0 0 64 64;" xml:space="preserve">
<metadata><?xpacket begin="﻿" id="W5M0MpCehiHzreSzNTczkc9d"?>
<x:xmpmeta xmlns:x="adobe:ns:meta/" x:xmptk="Adobe XMP Core 5.6-c111 79.158366, 2015/09/25-01:12:00        ">
   <rdf:RDF xmlns:rdf="http://www.w3.org/1999/02/22-rdf-syntax-ns#">
      <rdf:Description rdf:about=""/>
   </rdf:RDF>
</x:xmpmeta>
                                                                                                    
                                                                                                    
                                                                                                    
                                                                                                    
                                                                                                    
                                                                                                    
                                                                                                    
                                                                                                    
                                                                                                    
                                                                                                    
                                                                                                    
                                                                                                    
                                                                                                    
                                                                                                    
                                                                                                    
                                                                                                    
                                                                                                    
                                                                                                    
                                                                                                    
                                                                                                    
                           
<?xpacket end="w"?></metadata>
<style type="text/css">
	.st0{fill:none;}
	.st1{fill:#5B554D;}
</style>
<rect class="st0" width="64" height="64"/>
<g>
	<g>
		<path class="st1" d="M54.2,46c-4.9,0-8.8-4-8.8-8.8s4-8.8,8.8-8.8c4.9,0,8.8,4,8.8,8.8S59,46,54.2,46z M54.2,30.1
			c-3.9,0-7.1,3.2-7.1,7.1s3.2,7.1,7.1,7.1c3.9,0,7.1-3.2,7.1-7.1S58.1,30.1,54.2,30.1z"/>
	</g>
	<g>
		<path class="st1" d="M31.8,34.2c-4.9,0-8.8-4-8.8-8.8c0-4.9,4-8.8,8.8-8.8c4.9,0,8.8,4,8.8,8.8C40.7,30.2,36.7,34.2,31.8,34.2z
			 M31.8,18.3c-3.9,0-7.1,3.2-7.1,7.1c0,3.9,3.2,7.1,7.1,7.1c3.9,0,7.1-3.2,7.1-7.1C38.9,21.5,35.7,18.3,31.8,18.3z"/>
	</g>
	<g>
		<path class="st1" d="M9.8,38.9c-4.9,0-8.8-4-8.8-8.8c0-4.9,4-8.8,8.8-8.8c4.9,0,8.8,4,8.8,8.8C18.7,34.9,14.7,38.9,9.8,38.9z
			 M9.8,23c-3.9,0-7.1,3.2-7.1,7.1c0,3.9,3.2,7.1,7.1,7.1c3.9,0,7.1-3.2,7.1-7.1C16.9,26.2,13.7,23,9.8,23z"/>
	</g>
	<g>
		<g>
			<path class="st1" d="M54.2,26.4c-0.5,0-0.9-0.4-0.9-0.9V4.9c0-0.5,0.4-0.9,0.9-0.9C54.6,4,55,4.4,55,4.9v20.6
				C55,26,54.6,26.4,54.2,26.4z"/>
		</g>
		<g>
			<path class="st1" d="M54.2,60.1c-0.5,0-0.9-0.4-0.9-0.9V48.9c0-0.5,0.4-0.9,0.9-0.9c0.5,0,0.9,0.4,0.9,0.9v10.4
				C55,59.7,54.6,60.1,54.2,60.1z"/>
		</g>
	</g>
	<g>
		<g>
			<path class="st1" d="M31.8,14.5c-0.5,0-0.9-0.4-0.9-0.9V4.8c0-0.5,0.4-0.9,0.9-0.9s0.9,0.4,0.9,0.9v8.9
				C32.7,14.1,32.3,14.5,31.8,14.5z"/>
		</g>
		<g>
			<path class="st1" d="M31.8,60.1c-0.5,0-0.9-0.4-0.9-0.9V37c0-0.5,0.4-0.9,0.9-0.9s0.9,0.4,0.9,0.9v22.2
				C32.7,59.7,32.3,60.1,31.8,60.1z"/>
		</g>
	</g>
	<g>
		<g>
			<path class="st1" d="M9.8,19.2c-0.5,0-0.9-0.4-0.9-0.9V4.9C9,4.4,9.4,4,9.8,4s0.9,0.4,0.9,0.9v13.5C10.7,18.9,10.3,19.2,9.8,19.2
				z"/>
		</g>
		<g>
			<path class="st1" d="M9.9,60.1c-0.5,0-0.9-0.4-0.9-0.9V41.7c0-0.5,0.4-0.9,0.9-0.9s0.9,0.4,0.9,0.9v17.5
				C10.8,59.7,10.4,60.1,9.9,60.1z"/>
		</g>
	</g>
</g>
</svg>
