<?xml version="1.0" encoding="utf-8"?>
<!-- Generator: Adobe Illustrator 19.2.1, SVG Export Plug-In . SVG Version: 6.00 Build 0)  -->
<svg version="1.1" id="Layer_1" xmlns="http://www.w3.org/2000/svg" xmlns:xlink="http://www.w3.org/1999/xlink" x="0px" y="0px"
	 viewBox="0 0 64 64" style="enable-background:new 0 0 64 64;" xml:space="preserve">
<metadata><?xpacket begin="﻿" id="W5M0MpCehiHzreSzNTczkc9d"?>
<x:xmpmeta xmlns:x="adobe:ns:meta/" x:xmptk="Adobe XMP Core 5.6-c111 79.158366, 2015/09/25-01:12:00        ">
   <rdf:RDF xmlns:rdf="http://www.w3.org/1999/02/22-rdf-syntax-ns#">
      <rdf:Description rdf:about=""/>
   </rdf:RDF>
</x:xmpmeta>
                                                                                                    
                                                                                                    
                                                                                                    
                                                                                                    
                                                                                                    
                                                                                                    
                                                                                                    
                                                                                                    
                                                                                                    
                                                                                                    
                                                                                                    
                                                                                                    
                                                                                                    
                                                                                                    
                                                                                                    
                                                                                                    
                                                                                                    
                                                                                                    
                                                                                                    
                                                                                                    
                           
<?xpacket end="w"?></metadata>
<style type="text/css">
	.st0{fill:none;}
	.st1{fill:#5B554D;}
</style>
<rect class="st0" width="64" height="64"/>
<g>
	<g>
		<path class="st1" d="M25.7,22.2c-0.4,0-0.7-0.2-0.8-0.5c-0.2-0.5,0-1,0.5-1.2L44,12.2c0.5-0.2,1,0,1.2,0.5s0,1-0.5,1.2L26,22.1
			C25.9,22.1,25.8,22.2,25.7,22.2z"/>
	</g>
	<g>
		<path class="st1" d="M43.7,47.6c-0.2,0-0.4-0.1-0.5-0.2L24.1,33.9c-0.4-0.3-0.5-0.9-0.2-1.3c0.3-0.4,0.9-0.5,1.3-0.2l19.1,13.5
			c0.4,0.3,0.5,0.9,0.2,1.3C44.2,47.4,44,47.6,43.7,47.6z"/>
	</g>
	<g>
		<path class="st1" d="M14.8,39C7.7,39,1.9,33.3,1.9,26.2s5.8-12.9,12.9-12.9s12.9,5.8,12.9,12.9S21.9,39,14.8,39z M14.8,15.1
			c-6.1,0-11.1,5-11.1,11.1s5,11.1,11.1,11.1s11.1-5,11.1-11.1S20.9,15.1,14.8,15.1z"/>
	</g>
	<g>
		<path class="st1" d="M51.6,18.6c-4.9,0-8.8-3.9-8.8-8.8S46.7,1,51.6,1s8.8,3.9,8.8,8.8S56.4,18.6,51.6,18.6z M51.6,2.8
			c-3.8,0-7,3.1-7,7s3.1,7,7,7s7-3.1,7-7S55.4,2.8,51.6,2.8z"/>
	</g>
	<g>
		<path class="st1" d="M51.6,63C45.8,63,41,58.3,41,52.5S45.7,42,51.5,42S62,46.7,62,52.5S57.4,63,51.6,63z M51.6,43.7
			c-4.8,0-8.7,3.9-8.7,8.7s3.9,8.7,8.7,8.7s8.7-3.9,8.7-8.7S56.4,43.7,51.6,43.7z"/>
	</g>
</g>
</svg>
