<?xml version="1.0" encoding="utf-8"?>
<!-- Generator: Adobe Illustrator 19.2.1, SVG Export Plug-In . SVG Version: 6.00 Build 0)  -->
<svg version="1.1" id="Layer_1" xmlns="http://www.w3.org/2000/svg" xmlns:xlink="http://www.w3.org/1999/xlink" x="0px" y="0px"
	 viewBox="0 0 64 64" style="enable-background:new 0 0 64 64;" xml:space="preserve">
<metadata><?xpacket begin="﻿" id="W5M0MpCehiHzreSzNTczkc9d"?>
<x:xmpmeta xmlns:x="adobe:ns:meta/" x:xmptk="Adobe XMP Core 5.6-c111 79.158366, 2015/09/25-01:12:00        ">
   <rdf:RDF xmlns:rdf="http://www.w3.org/1999/02/22-rdf-syntax-ns#">
      <rdf:Description rdf:about=""/>
   </rdf:RDF>
</x:xmpmeta>
                                                                                                    
                                                                                                    
                                                                                                    
                                                                                                    
                                                                                                    
                                                                                                    
                                                                                                    
                                                                                                    
                                                                                                    
                                                                                                    
                                                                                                    
                                                                                                    
                                                                                                    
                                                                                                    
                                                                                                    
                                                                                                    
                                                                                                    
                                                                                                    
                                                                                                    
                                                                                                    
                           
<?xpacket end="w"?></metadata>
<style type="text/css">
	.st0{fill:none;}
	.st1{fill:#5B554D;}
	.st2{fill:none;stroke:#5B554D;stroke-width:1.4173;stroke-linecap:round;stroke-linejoin:round;stroke-miterlimit:10;}
</style>
<rect class="st0" width="64" height="64"/>
<g>
	<g>
		<circle class="st1" cx="32" cy="1.7" r="0.7"/>
	</g>
	<path class="st1" d="M32,7.4l-2.5,0.2L32,7.8l2.5-0.2L32,7.4z"/>
	<path class="st1" d="M32,4.7l-1.6,0.1C30.4,4.9,32,5,32,5l1.6-0.1C33.6,4.8,32,4.7,32,4.7z"/>
	<path class="st1" d="M32,1.7c-0.1,0-0.6,7.6-0.6,7.6H32h0.6C32.6,9.3,32.1,1.7,32,1.7z"/>
	<g>
		<path class="st1" d="M45.8,32.1L45.8,32.1c-0.4,0-0.7-0.4-0.7-0.7l0.5-5.9L44.7,22H19.3l-0.9,3.4l0.5,5.9c0,0.4-0.2,0.7-0.6,0.7
			s-0.7-0.2-0.7-0.6l-0.5-6c0-0.1,0-0.2,0-0.2l1.1-4c0.1-0.3,0.4-0.5,0.7-0.5h26.5c0.3,0,0.6,0.2,0.7,0.5l1.1,4c0,0.1,0,0.2,0,0.2
			l-0.5,6C46.5,31.8,46.2,32.1,45.8,32.1z"/>
	</g>
	<g>
		<path class="st1" d="M22.5,18.6c-0.1,0-0.2,0-0.3-0.1c-0.3-0.2-0.5-0.6-0.3-0.9l1.2-2.6c0.1-0.2,0.4-0.4,0.6-0.4h16.5
			c0.3,0,0.5,0.2,0.6,0.4l1.2,2.6c0.2,0.3,0,0.7-0.3,0.9c-0.3,0.2-0.7,0-0.9-0.3l-1-2.2H24.2l-1,2.2C23,18.4,22.8,18.6,22.5,18.6z"
			/>
	</g>
	<g>
		<path class="st2" d="M32,18.6"/>
	</g>
	<g>
		<path class="st1" d="M35.5,15.8c-0.4,0-0.7-0.3-0.7-0.7v-4.4h-5.6v4.4c0,0.4-0.3,0.7-0.7,0.7s-0.7-0.3-0.7-0.7V10
			c0-0.4,0.3-0.7,0.7-0.7h7c0.4,0,0.7,0.3,0.7,0.7v5.1C36.2,15.5,35.9,15.8,35.5,15.8z"/>
	</g>
	<g>
		<path class="st1" d="M44.6,22.1c-0.3,0-0.6-0.2-0.7-0.6l-0.4-2.9h-23l-0.4,2.9c-0.1,0.4-0.4,0.6-0.8,0.6c-0.4-0.1-0.6-0.4-0.6-0.8
			l0.5-3.5c0-0.3,0.3-0.6,0.7-0.6h24.2c0.3,0,0.6,0.2,0.7,0.6l0.5,3.5C45.3,21.7,45.1,22,44.6,22.1C44.7,22.1,44.7,22.1,44.6,22.1z"
			/>
	</g>
	<g>
		<path class="st1" d="M43.7,61.1c-0.1,0-0.1,0-0.2,0c-0.4-0.1-0.6-0.5-0.5-0.8l6.2-24.8c-2.1-1.2-11.3-6.4-17.1-6.4
			c-0.1,0-0.2,0-0.3,0c-5.8,0-15,5.1-17.1,6.4L21,60.2c0.1,0.4-0.1,0.7-0.5,0.8s-0.7-0.1-0.8-0.5l-6.3-25.3
			c-0.1-0.3,0.1-0.6,0.3-0.7c0.5-0.3,11.3-6.8,18.2-6.8c0.1,0,0.2,0,0.3,0c6.9,0,17.7,6.5,18.2,6.8c0.3,0.2,0.4,0.5,0.3,0.7
			l-6.3,25.3C44.3,60.9,44,61.1,43.7,61.1z"/>
	</g>
	<g>
		<path class="st1" d="M32.1,61.1c-0.4,0-0.7-0.3-0.7-0.7v-32c0-0.4,0.3-0.7,0.7-0.7s0.7,0.3,0.7,0.7v32
			C32.8,60.8,32.5,61.1,32.1,61.1z"/>
	</g>
	<g>
		<path class="st1" d="M46.8,63c-1.2,0-1.8-0.3-2.4-0.7c-0.6-0.3-1.3-0.7-2.5-0.7c-1.3,0-1.9,0.3-2.5,0.7C38.8,62.6,38.2,63,37,63
			s-1.8-0.3-2.4-0.7c-0.6-0.3-1.3-0.7-2.5-0.7c-1.3,0-1.9,0.3-2.5,0.7C29,62.6,28.4,63,27.2,63c-1.2,0-1.8-0.3-2.4-0.7
			c-0.6-0.3-1.3-0.7-2.5-0.7s-1.9,0.3-2.5,0.7C19,62.7,18.4,63,17.2,63s-1.8-0.3-2.4-0.7c-0.6-0.3-1.3-0.7-2.5-0.7
			c-0.4,0-0.7-0.3-0.7-0.7s0.3-0.7,0.7-0.7c1.6,0,2.5,0.5,3.2,0.8c0.6,0.3,0.9,0.5,1.8,0.5s1.2-0.2,1.8-0.5c0.7-0.4,1.6-0.8,3.2-0.8
			s2.5,0.5,3.2,0.8c0.6,0.3,0.9,0.5,1.8,0.5s1.2-0.2,1.8-0.5c0.7-0.4,1.6-0.8,3.2-0.8s2.5,0.5,3.2,0.8c0.6,0.3,0.9,0.5,1.8,0.5
			c0.9,0,1.2-0.2,1.8-0.5c0.7-0.4,1.6-0.8,3.2-0.8c1.6,0,2.5,0.5,3.2,0.8c0.6,0.3,0.9,0.5,1.8,0.5c0.9,0,1.2-0.2,1.8-0.5
			c0.7-0.4,1.6-0.8,3.2-0.8c0.4,0,0.7,0.3,0.7,0.7s-0.3,0.7-0.7,0.7c-1.3,0-1.9,0.3-2.5,0.7C48.6,62.7,48,63,46.8,63z"/>
	</g>
	<g>
		<path class="st1" d="M46.3,26.1H17.7c-0.4,0-0.7-0.3-0.7-0.7c0-0.4,0.3-0.7,0.7-0.7h28.6c0.4,0,0.7,0.3,0.7,0.7
			C47,25.7,46.7,26.1,46.3,26.1z"/>
	</g>
</g>
</svg>
