<?xml version="1.0" encoding="utf-8"?>
<!-- Generator: Adobe Illustrator 19.2.1, SVG Export Plug-In . SVG Version: 6.00 Build 0)  -->
<svg version="1.1" id="Layer_1" xmlns="http://www.w3.org/2000/svg" xmlns:xlink="http://www.w3.org/1999/xlink" x="0px" y="0px"
	 viewBox="0 0 64 64" style="enable-background:new 0 0 64 64;" xml:space="preserve">
<metadata><?xpacket begin="﻿" id="W5M0MpCehiHzreSzNTczkc9d"?>
<x:xmpmeta xmlns:x="adobe:ns:meta/" x:xmptk="Adobe XMP Core 5.6-c111 79.158366, 2015/09/25-01:12:00        ">
   <rdf:RDF xmlns:rdf="http://www.w3.org/1999/02/22-rdf-syntax-ns#">
      <rdf:Description rdf:about=""/>
   </rdf:RDF>
</x:xmpmeta>
                                                                                                    
                                                                                                    
                                                                                                    
                                                                                                    
                                                                                                    
                                                                                                    
                                                                                                    
                                                                                                    
                                                                                                    
                                                                                                    
                                                                                                    
                                                                                                    
                                                                                                    
                                                                                                    
                                                                                                    
                                                                                                    
                                                                                                    
                                                                                                    
                                                                                                    
                                                                                                    
                           
<?xpacket end="w"?></metadata>
<style type="text/css">
	.st0{fill:none;}
	.st1{fill:#5B554D;}
</style>
<rect class="st0" width="64" height="64"/>
<g>
	<g>
		<path class="st1" d="M53.3,59.6H11.2c-1.3,0-2.5-1-2.7-2.3L4.6,33.2c-0.1-0.5,0.2-0.9,0.7-1s0.9,0.2,1,0.7L10.2,57
			c0.1,0.4,0.5,0.8,0.9,0.8h42.1c0.4,0,0.9-0.4,0.9-0.8L58,32.9c0.1-0.5,0.5-0.8,1-0.7s0.8,0.5,0.7,1L56,57.3
			C55.8,58.6,54.6,59.6,53.3,59.6z"/>
	</g>
	<g>
		<path class="st1" d="M61.3,33.7H2.7c-1,0-1.7-0.7-1.7-1.6v-4.5c0-0.9,0.7-1.7,1.7-1.7h58.7c0.9,0,1.7,0.7,1.7,1.7v4.5
			C63,33,62.3,33.7,61.3,33.7z M2.8,32h58.5v-4.3H2.8V32z"/>
	</g>
	<g>
		<g>
			<path class="st1" d="M61.8,28H2.4c-0.2,0-0.4-0.1-0.5-0.2l-0.3-0.2c-0.2-0.2-0.4-0.4-0.4-0.7c0-0.3,0.1-0.6,0.4-0.7L7,22.3
				c0.2-0.1,0.3-0.2,0.5-0.2h24.1c0.5,0,0.9,0.4,0.9,0.9s-0.4,0.9-0.9,0.9H7.9l-3.2,2.3h54.8l-3.2-2.3H38.5c-0.5,0-0.9-0.4-0.9-0.9
				s0.4-0.9,0.9-0.9h17.9c0.2,0,0.4,0.1,0.5,0.2l5.3,3.8c0.2,0.1,0.3,0.3,0.4,0.6V27c0,0.3,0,0.5-0.2,0.7S62.1,28,61.8,28z"/>
		</g>
	</g>
	<g>
		<g>
			<g>
				<path class="st1" d="M12.1,44.5c-0.5,0-1-0.4-1.1-0.9L10,37c-0.1-0.6,0.3-1.2,0.9-1.3c0.6-0.1,1.2,0.3,1.3,0.9l1,6.6
					c0.1,0.6-0.3,1.2-0.9,1.3C12.2,44.5,12.1,44.5,12.1,44.5z"/>
			</g>
			<g>
				<path class="st1" d="M16.5,44.5c-0.6,0-1-0.4-1.1-1l-0.8-6.6c-0.1-0.6,0.4-1.2,1-1.2c0.6-0.1,1.2,0.4,1.2,1l0.8,6.6
					C17.7,43.9,17.2,44.5,16.5,44.5C16.6,44.5,16.6,44.5,16.5,44.5z"/>
			</g>
			<g>
				<path class="st1" d="M21,44.5c-0.6,0-1-0.4-1.1-1l-0.6-6.6c-0.1-0.6,0.4-1.1,1-1.2c0.6-0.1,1.1,0.4,1.2,1l0.6,6.6
					C22.2,43.9,21.7,44.4,21,44.5C21.1,44.5,21.1,44.5,21,44.5z"/>
			</g>
			<g>
				<path class="st1" d="M25.5,44.5c-0.6,0-1.1-0.5-1.1-1l-0.3-6.6c0-0.6,0.4-1.1,1-1.2c0.6,0,1.1,0.4,1.2,1l0.3,6.6
					C26.7,43.9,26.2,44.4,25.5,44.5C25.6,44.5,25.5,44.5,25.5,44.5z"/>
			</g>
			<g>
				<path class="st1" d="M30,44.5c-0.6,0-1.1-0.5-1.1-1.1l-0.1-6.6c0-0.6,0.5-1.1,1.1-1.1s1.1,0.5,1.1,1.1l0.1,6.6
					C31.1,44,30.6,44.5,30,44.5L30,44.5z"/>
			</g>
			<g>
				<path class="st1" d="M34.5,44.5L34.5,44.5c-0.6,0-1.1-0.5-1.1-1.1l0.1-6.6c0-0.6,0.5-1.1,1.1-1.1s1.1,0.5,1.1,1.1l-0.1,6.6
					C35.6,44,35.1,44.5,34.5,44.5z"/>
			</g>
			<g>
				<path class="st1" d="M39,44.5C39,44.5,38.9,44.5,39,44.5c-0.7,0-1.1-0.6-1.1-1.2l0.3-6.6c0-0.6,0.5-1.1,1.2-1
					c0.6,0,1.1,0.6,1,1.2l-0.3,6.6C40.1,44,39.6,44.5,39,44.5z"/>
			</g>
			<g>
				<path class="st1" d="M43.5,44.5C43.4,44.5,43.4,44.5,43.5,44.5c-0.7-0.1-1.2-0.6-1.1-1.2l0.6-6.6c0.1-0.6,0.6-1.1,1.2-1
					c0.6,0.1,1.1,0.6,1,1.2l-0.6,6.6C44.5,44,44,44.5,43.5,44.5z"/>
			</g>
			<g>
				<path class="st1" d="M48,44.5L48,44.5c-0.7-0.1-1.1-0.6-1.1-1.2l0.8-6.6c0.1-0.6,0.6-1,1.2-1c0.6,0.1,1,0.6,1,1.2l-0.8,6.6
					C49,44.1,48.5,44.5,48,44.5z"/>
			</g>
			<g>
				<path class="st1" d="M52.5,44.5c-0.1,0-0.1,0-0.2,0c-0.6-0.1-1-0.7-0.9-1.3l1-6.6c0.1-0.6,0.7-1,1.3-0.9s1,0.7,0.9,1.3l-1,6.6
					C53.5,44.1,53,44.5,52.5,44.5z"/>
			</g>
		</g>
	</g>
	<g>
		<g>
			<g>
				<path class="st1" d="M13.9,55.7c-0.5,0-1-0.4-1.1-0.9l-0.9-6c-0.1-0.6,0.3-1.2,0.9-1.3c0.6-0.1,1.2,0.3,1.3,0.9l0.9,6
					c0.1,0.6-0.3,1.2-0.9,1.3C14.1,55.7,14,55.7,13.9,55.7z"/>
			</g>
			<g>
				<path class="st1" d="M18,55.7c-0.5,0-1-0.4-1.1-1l-0.7-6c-0.1-0.6,0.4-1.2,1-1.2c0.6-0.1,1.2,0.4,1.2,1l0.7,6
					c0.1,0.6-0.4,1.2-1,1.2C18.1,55.7,18.1,55.7,18,55.7z"/>
			</g>
			<g>
				<path class="st1" d="M22.1,55.7c-0.6,0-1-0.4-1.1-1l-0.5-6c-0.1-0.6,0.4-1.1,1-1.2c0.6-0.1,1.1,0.4,1.2,1l0.5,6
					C23.2,55.1,22.8,55.6,22.1,55.7L22.1,55.7z"/>
			</g>
			<g>
				<path class="st1" d="M26.1,55.7c-0.6,0-1.1-0.5-1.1-1l-0.3-6c0-0.6,0.4-1.1,1-1.2c0.6,0,1.1,0.4,1.2,1l0.3,6
					C27.3,55.1,26.8,55.6,26.1,55.7C26.2,55.7,26.2,55.7,26.1,55.7z"/>
			</g>
			<g>
				<path class="st1" d="M30.2,55.7c-0.6,0-1.1-0.5-1.1-1.1l-0.1-6c0-0.6,0.5-1.1,1.1-1.1l0,0c0.6,0,1.1,0.5,1.1,1.1l0.1,6
					C31.3,55.2,30.8,55.7,30.2,55.7L30.2,55.7z"/>
			</g>
			<g>
				<path class="st1" d="M34.3,55.7L34.3,55.7c-0.6,0-1.1-0.5-1.1-1.1l0.1-6c0-0.6,0.5-1.1,1.1-1.1l0,0c0.6,0,1.1,0.5,1.1,1.1
					l-0.1,6C35.4,55.2,34.9,55.7,34.3,55.7z"/>
			</g>
			<g>
				<path class="st1" d="M38.4,55.7C38.3,55.7,38.3,55.7,38.4,55.7c-0.7,0-1.1-0.6-1.1-1.2l0.3-6c0-0.6,0.5-1.1,1.2-1
					c0.6,0,1.1,0.6,1,1.2l-0.3,6C39.4,55.2,38.9,55.7,38.4,55.7z"/>
			</g>
			<g>
				<path class="st1" d="M42.4,55.7L42.4,55.7c-0.7-0.1-1.2-0.6-1.1-1.2l0.5-6c0.1-0.6,0.6-1.1,1.2-1c0.6,0.1,1.1,0.6,1,1.2l-0.5,6
					C43.5,55.2,43,55.7,42.4,55.7z"/>
			</g>
			<g>
				<path class="st1" d="M46.5,55.7L46.5,55.7c-0.7-0.1-1.1-0.6-1.1-1.2l0.7-6c0.1-0.6,0.6-1,1.2-1c0.6,0.1,1,0.6,1,1.2l-0.7,6
					C47.5,55.3,47,55.7,46.5,55.7z"/>
			</g>
			<g>
				<path class="st1" d="M50.6,55.7c-0.1,0-0.1,0-0.2,0c-0.6-0.1-1-0.7-0.9-1.3l0.9-6c0.1-0.6,0.7-1,1.3-0.9s1,0.7,0.9,1.3l-0.9,6
					C51.6,55.3,51.1,55.7,50.6,55.7z"/>
			</g>
		</g>
	</g>
	<g>
		<g>
			<path class="st1" d="M31.7,26c-0.1,0-0.2,0-0.3-0.1c-0.5-0.2-0.7-0.7-0.5-1.1l6.5-18.3C37.7,5.7,38.2,5,39,4.7
				c0.7-0.4,1.6-0.4,2.4-0.1c1.6,0.6,2.4,2.3,1.9,4l-6,16.8c-0.2,0.5-0.7,0.7-1.1,0.5c-0.5-0.2-0.7-0.7-0.5-1.1l6-16.8
				c0.2-0.7-0.1-1.4-0.8-1.7c-0.3-0.1-0.7-0.1-1,0.1s-0.6,0.4-0.7,0.7l-6.5,18.3C32.4,25.7,32,26,31.7,26z"/>
		</g>
	</g>
</g>
</svg>
