<?xml version="1.0" encoding="utf-8"?>
<!-- Generator: Adobe Illustrator 19.2.1, SVG Export Plug-In . SVG Version: 6.00 Build 0)  -->
<svg version="1.1" id="Layer_1" xmlns="http://www.w3.org/2000/svg" xmlns:xlink="http://www.w3.org/1999/xlink" x="0px" y="0px"
	 viewBox="0 0 64 64" style="enable-background:new 0 0 64 64;" xml:space="preserve">
<metadata><?xpacket begin="﻿" id="W5M0MpCehiHzreSzNTczkc9d"?>
<x:xmpmeta xmlns:x="adobe:ns:meta/" x:xmptk="Adobe XMP Core 5.6-c111 79.158366, 2015/09/25-01:12:00        ">
   <rdf:RDF xmlns:rdf="http://www.w3.org/1999/02/22-rdf-syntax-ns#">
      <rdf:Description rdf:about=""/>
   </rdf:RDF>
</x:xmpmeta>
                                                                                                    
                                                                                                    
                                                                                                    
                                                                                                    
                                                                                                    
                                                                                                    
                                                                                                    
                                                                                                    
                                                                                                    
                                                                                                    
                                                                                                    
                                                                                                    
                                                                                                    
                                                                                                    
                                                                                                    
                                                                                                    
                                                                                                    
                                                                                                    
                                                                                                    
                                                                                                    
                           
<?xpacket end="w"?></metadata>
<style type="text/css">
	.st0{fill:none;}
	.st1{fill:#5B554D;}
</style>
<rect class="st0" width="64" height="64"/>
<g>
	<g>
		<g>
			<path class="st1" d="M51.2,41.5h-27c-1.1,0-2.3-0.7-2.9-1.6l-11.4-19c-0.1-0.2-0.2-0.4-0.2-0.6H3.8C2.3,20.3,1,19,1,17.4v-0.8
				c0-1.6,1.3-2.9,2.8-2.9h10.1c0.2,0,0.5,0.1,0.6,0.3l2.8,4.5h44c0.6,0,1.2,0.3,1.5,0.7c0.3,0.5,0.3,1.1,0,1.6l-8.8,19
				C53.5,40.8,52.3,41.5,51.2,41.5z M11,20c0,0,0,0.1,0.1,0.2l11.4,19c0.3,0.5,1.1,1,1.7,1h27c0.6,0,1.3-0.5,1.5-1l8.8-18.9
				c0.1-0.2,0.1-0.3,0.1-0.3s-0.1-0.1-0.3-0.1H17c-0.2,0-0.5-0.1-0.6-0.3l-2.8-4.5H3.8c-0.8,0-1.5,0.7-1.5,1.5v0.8
				c0,0.8,0.7,1.5,1.5,1.5h6.6c0.3,0,0.5,0.1,0.6,0.4C11.2,19.5,11.1,19.7,11,20L11,20z"/>
		</g>
	</g>
	<g>
		<path class="st1" d="M22.4,24.8v-0.3c0-0.8-0.7-1.5-1.5-1.5h-0.6c-0.8,0-1.5,0.7-1.5,1.5v0.3c0,0.8,0.7,1.5,1.5,1.5h0.6
			C21.7,26.3,22.4,25.6,22.4,24.8z M25.2,30.1v-0.3c0-0.8-0.7-1.5-1.5-1.5h-0.6c-0.8,0-1.5,0.7-1.5,1.5v0.3c0,0.8,0.7,1.5,1.5,1.5
			h0.6C24.5,31.6,25.2,30.9,25.2,30.1z M30.7,30.1v-0.3c0-0.8-0.7-1.5-1.5-1.5h-0.6c-0.8,0-1.5,0.7-1.5,1.5v0.3
			c0,0.8,0.7,1.5,1.5,1.5h0.6C30,31.6,30.7,30.9,30.7,30.1z M25.8,26.3h0.6c0.8,0,1.5-0.7,1.5-1.5v-0.3c0-0.8-0.7-1.5-1.5-1.5h-0.6
			c-0.8,0-1.5,0.7-1.5,1.5v0.3C24.3,25.6,25,26.3,25.8,26.3z M47.8,26.3h0.6c0.8,0,1.5-0.7,1.5-1.5v-0.3c0-0.8-0.7-1.5-1.5-1.5h-0.6
			c-0.8,0-1.5,0.7-1.5,1.5v0.3C46.3,25.6,47,26.3,47.8,26.3z M42.3,26.3h0.6c0.8,0,1.5-0.7,1.5-1.5v-0.3c0-0.8-0.7-1.5-1.5-1.5h-0.6
			c-0.8,0-1.5,0.7-1.5,1.5v0.3C40.8,25.6,41.5,26.3,42.3,26.3z M36.8,26.3h0.6c0.8,0,1.5-0.7,1.5-1.5v-0.3c0-0.8-0.7-1.5-1.5-1.5
			h-0.6c-0.8,0-1.5,0.7-1.5,1.5v0.3C35.3,25.6,36,26.3,36.8,26.3z M31.3,26.3h0.6c0.8,0,1.5-0.7,1.5-1.5v-0.3c0-0.8-0.7-1.5-1.5-1.5
			h-0.6c-0.8,0-1.5,0.7-1.5,1.5v0.3C29.8,25.6,30.5,26.3,31.3,26.3z M26.4,33.8h-0.6c-0.8,0-1.5,0.7-1.5,1.5v0.3
			c0,0.8,0.7,1.5,1.5,1.5h0.6c0.8,0,1.5-0.7,1.5-1.5v-0.3C27.9,34.5,27.2,33.8,26.4,33.8z M48.4,33.8h-0.6c-0.8,0-1.5,0.7-1.5,1.5
			v0.3c0,0.8,0.7,1.5,1.5,1.5h0.6c0.8,0,1.5-0.7,1.5-1.5v-0.3C49.9,34.5,49.2,33.8,48.4,33.8z M47.2,30.1v-0.3
			c0-0.8-0.7-1.5-1.5-1.5h-0.6c-0.8,0-1.5,0.7-1.5,1.5v0.3c0,0.8,0.7,1.5,1.5,1.5h0.6C46.5,31.6,47.2,30.9,47.2,30.1z M51.2,28.2
			h-0.6c-0.8,0-1.5,0.7-1.5,1.5V30c0,0.8,0.7,1.5,1.5,1.5h0.6c0.8,0,1.5-0.7,1.5-1.5v-0.3C52.7,28.9,52,28.2,51.2,28.2z M53.9,22.9
			h-0.6c-0.8,0-1.5,0.7-1.5,1.5v0.3c0,0.8,0.7,1.5,1.5,1.5h0.6c0.8,0,1.5-0.7,1.5-1.5v-0.3C55.4,23.6,54.7,22.9,53.9,22.9z
			 M42.9,33.8h-0.6c-0.8,0-1.5,0.7-1.5,1.5v0.3c0,0.8,0.7,1.5,1.5,1.5h0.6c0.8,0,1.5-0.7,1.5-1.5v-0.3
			C44.4,34.5,43.7,33.8,42.9,33.8z M37.4,33.8h-0.6c-0.8,0-1.5,0.7-1.5,1.5v0.3c0,0.8,0.7,1.5,1.5,1.5h0.6c0.8,0,1.5-0.7,1.5-1.5
			v-0.3C38.9,34.5,38.2,33.8,37.4,33.8z M36.2,30.1v-0.3c0-0.8-0.7-1.5-1.5-1.5h-0.6c-0.8,0-1.5,0.7-1.5,1.5v0.3
			c0,0.8,0.7,1.5,1.5,1.5h0.6C35.5,31.6,36.2,30.9,36.2,30.1z M31.9,33.8h-0.6c-0.8,0-1.5,0.7-1.5,1.5v0.3c0,0.8,0.7,1.5,1.5,1.5
			h0.6c0.8,0,1.5-0.7,1.5-1.5v-0.3C33.4,34.5,32.7,33.8,31.9,33.8z M41.7,30.1v-0.3c0-0.8-0.7-1.5-1.5-1.5h-0.6
			c-0.8,0-1.5,0.7-1.5,1.5v0.3c0,0.8,0.7,1.5,1.5,1.5h0.6C41,31.6,41.7,30.9,41.7,30.1z"/>
	</g>
	<g>
		<path class="st1" d="M28.6,43.4c-1.9,0-3.4,1.5-3.4,3.4s1.5,3.4,3.4,3.4s3.4-1.5,3.4-3.4S30.5,43.4,28.6,43.4z M48.4,43.4
			c-1.9,0-3.4,1.5-3.4,3.4s1.5,3.4,3.4,3.4s3.4-1.5,3.4-3.4C51.9,44.9,50.3,43.4,48.4,43.4z"/>
	</g>
</g>
</svg>
