<?xml version="1.0" encoding="utf-8"?>
<!-- Generator: Adobe Illustrator 19.2.1, SVG Export Plug-In . SVG Version: 6.00 Build 0)  -->
<svg version="1.1" id="Layer_1" xmlns="http://www.w3.org/2000/svg" xmlns:xlink="http://www.w3.org/1999/xlink" x="0px" y="0px"
	 viewBox="0 0 64 64" style="enable-background:new 0 0 64 64;" xml:space="preserve">
<metadata><?xpacket begin="﻿" id="W5M0MpCehiHzreSzNTczkc9d"?>
<x:xmpmeta xmlns:x="adobe:ns:meta/" x:xmptk="Adobe XMP Core 5.6-c111 79.158366, 2015/09/25-01:12:00        ">
   <rdf:RDF xmlns:rdf="http://www.w3.org/1999/02/22-rdf-syntax-ns#">
      <rdf:Description rdf:about=""/>
   </rdf:RDF>
</x:xmpmeta>
                                                                                                    
                                                                                                    
                                                                                                    
                                                                                                    
                                                                                                    
                                                                                                    
                                                                                                    
                                                                                                    
                                                                                                    
                                                                                                    
                                                                                                    
                                                                                                    
                                                                                                    
                                                                                                    
                                                                                                    
                                                                                                    
                                                                                                    
                                                                                                    
                                                                                                    
                                                                                                    
                           
<?xpacket end="w"?></metadata>
<style type="text/css">
	.st0{fill:none;}
	.st1{fill:#5B554D;}
</style>
<rect class="st0" width="64" height="64"/>
<g>
	<g>
		<g>
			<path class="st1" d="M48.5,57H10.2C9,57,8,56.1,7.8,55L4.2,33.1c-0.1-0.4,0.2-0.9,0.7-0.9c0.4-0.1,0.9,0.2,0.9,0.7l3.5,21.9
				c0.1,0.4,0.5,0.7,0.9,0.7h38.2c0.4,0,0.8-0.3,0.9-0.7l3-18.6c0.1-0.4,0.5-0.7,0.9-0.7c0.4,0.1,0.7,0.5,0.7,0.9l-3,18.6
				C50.7,56.1,49.6,57,48.5,57z"/>
		</g>
		<g>
			<path class="st1" d="M50.1,33.6H2.5c-0.8,0-1.5-0.7-1.5-1.5v-4.4c0-0.4,0.4-0.8,0.8-0.8s0.8,0.4,0.8,0.8V32h47.5
				c0.4,0,0.8,0.4,0.8,0.8S50.6,33.6,50.1,33.6z"/>
		</g>
		<g>
			<g>
				<path class="st1" d="M50.1,28.4H2.3c-0.2,0-0.3-0.1-0.5-0.1l-0.3-0.2c-0.2-0.1-0.3-0.4-0.3-0.7c0-0.3,0.1-0.5,0.3-0.7l4.9-3.6
					C6.6,23.1,6.8,23,7,23h21.9c0.4,0,0.8,0.4,0.8,0.8s-0.4,0.8-0.8,0.8H7.2l-2.9,2.1h45.8c0.4,0,0.8,0.4,0.8,0.8
					S50.6,28.4,50.1,28.4z M52.6,25.6c-0.2,0-0.3,0-0.5-0.2L51,24.7H35c-0.4,0-0.8-0.4-0.8-0.8s0.4-0.8,0.8-0.8h16.3
					c0.2,0,0.3,0.1,0.5,0.2l1.3,1c0.4,0.3,0.4,0.8,0.2,1.1C53.1,25.5,52.9,25.6,52.6,25.6z"/>
			</g>
		</g>
		<g>
			<g>
				<g>
					<path class="st1" d="M11,43.3c-0.5,0-0.9-0.4-1-0.8l-0.9-6C9,36,9.4,35.4,9.9,35.4c0.5-0.1,1.1,0.3,1.1,0.8l0.9,6
						c0.1,0.5-0.3,1.1-0.8,1.1C11.1,43.3,11.1,43.3,11,43.3z"/>
				</g>
				<g>
					<path class="st1" d="M15.1,43.3c-0.5,0-0.9-0.4-1-0.9l-0.7-6c-0.1-0.5,0.3-1,0.9-1.1c0.5-0.1,1,0.3,1.1,0.9l0.7,6
						c0.1,0.6-0.3,1-0.9,1.1C15.2,43.3,15.1,43.3,15.1,43.3z"/>
				</g>
				<g>
					<path class="st1" d="M19.2,43.3c-0.5,0-1-0.4-1-0.9l-0.5-6c0-0.6,0.4-1,0.9-1.1c0.6-0.1,1,0.4,1.1,0.9l0.5,6
						C20.2,42.8,19.8,43.3,19.2,43.3L19.2,43.3z"/>
				</g>
				<g>
					<path class="st1" d="M23.2,43.3c-0.5,0-1-0.4-1-1l-0.3-6c0-0.6,0.4-1,0.9-1.1c0.5,0,1,0.4,1.1,1l0.3,6
						C24.3,42.8,23.9,43.3,23.2,43.3C23.3,43.3,23.3,43.3,23.2,43.3z"/>
				</g>
				<g>
					<path class="st1" d="M27.3,43.3c-0.5,0-1-0.4-1-1l-0.1-6c0-0.6,0.4-1,1-1s1,0.4,1,1l0.1,6C28.3,42.9,27.9,43.3,27.3,43.3
						L27.3,43.3z"/>
				</g>
				<g>
					<path class="st1" d="M31.4,43.3L31.4,43.3c-0.6,0-1-0.5-1-1l0.1-6c0-0.6,0.5-1,1-1c0.6,0,1,0.5,1,1l-0.1,6
						C32.4,42.9,31.9,43.3,31.4,43.3z"/>
				</g>
				<g>
					<path class="st1" d="M35.5,43.3C35.4,43.3,35.4,43.3,35.5,43.3c-0.6,0-1-0.5-1-1.1l0.3-6c0-0.6,0.5-1,1.1-1s1,0.5,0.9,1.1
						l-0.3,6C36.4,42.9,36,43.3,35.5,43.3z"/>
				</g>
				<g>
					<path class="st1" d="M39.5,43.3L39.5,43.3c-0.6-0.1-1-0.5-1-1.1l0.5-6c0-0.5,0.5-1,1.1-0.9c0.6,0,1,0.5,0.9,1.1l-0.5,6
						C40.5,42.9,40.1,43.3,39.5,43.3z"/>
				</g>
				<g>
					<path class="st1" d="M43.6,43.3L43.6,43.3c-0.6-0.1-1-0.6-1-1.1l0.7-6c0.1-0.5,0.6-0.9,1.1-0.9c0.5,0.1,0.9,0.6,0.9,1.1l-0.7,6
						C44.5,42.9,44.1,43.3,43.6,43.3z"/>
				</g>
				<g>
					<path class="st1" d="M47.7,43.3c-0.1,0-0.1,0-0.2,0c-0.5-0.1-0.9-0.6-0.8-1.1l0.9-6c0.1-0.5,0.6-0.9,1.1-0.8
						c0.5,0.1,0.9,0.6,0.8,1.1l-0.9,6C48.6,43,48.2,43.3,47.7,43.3z"/>
				</g>
			</g>
		</g>
		<g>
			<g>
				<g>
					<path class="st1" d="M12.7,53.5c-0.5,0-0.9-0.4-1-0.8l-0.9-5.5c-0.1-0.5,0.3-1.1,0.8-1.1c0.5-0.1,1.1,0.3,1.1,0.8l0.9,5.5
						c0.1,0.5-0.3,1.1-0.8,1.1C12.8,53.5,12.8,53.5,12.7,53.5z"/>
				</g>
				<g>
					<path class="st1" d="M16.4,53.5c-0.5,0-0.9-0.4-1-0.9l-0.7-5.5c-0.1-0.5,0.3-1,0.9-1.1c0.5-0.1,1,0.3,1.1,0.9l0.7,5.5
						c0.1,0.5-0.3,1-0.9,1.1C16.5,53.5,16.5,53.5,16.4,53.5z"/>
				</g>
				<g>
					<path class="st1" d="M20.1,53.5c-0.5,0-1-0.4-1-0.9l-0.5-5.5c0-0.6,0.4-1,0.9-1.1c0.6-0.1,1,0.4,1.1,0.9l0.5,5.5
						C21.2,52.9,20.8,53.4,20.1,53.5C20.2,53.5,20.2,53.5,20.1,53.5z"/>
				</g>
				<g>
					<path class="st1" d="M23.8,53.5c-0.5,0-1-0.4-1-1L22.5,47c0-0.6,0.4-1,0.9-1.1c0.5,0,1,0.4,1.1,1l0.3,5.5
						C24.8,53,24.4,53.4,23.8,53.5C23.9,53.5,23.8,53.5,23.8,53.5z"/>
				</g>
				<g>
					<path class="st1" d="M27.5,53.5c-0.5,0-1-0.4-1-1L26.4,47c0-0.6,0.4-1,1-1l0,0c0.5,0,1,0.4,1,1l0.1,5.5
						C28.5,53,28.1,53.5,27.5,53.5L27.5,53.5z"/>
				</g>
				<g>
					<path class="st1" d="M31.2,53.5L31.2,53.5c-0.6,0-1-0.5-1-1l0.1-5.5c0-0.5,0.5-1,1-1l0,0c0.6,0,1,0.5,1,1l-0.1,5.5
						C32.2,53,31.8,53.5,31.2,53.5z"/>
				</g>
				<g>
					<path class="st1" d="M34.9,53.5L34.9,53.5c-0.6,0-1-0.5-1-1.1l0.3-5.5c0-0.6,0.5-1,1.1-1s1,0.5,0.9,1.1l-0.3,5.5
						C35.9,53.1,35.4,53.5,34.9,53.5z"/>
				</g>
				<g>
					<path class="st1" d="M38.6,53.5C38.6,53.5,38.5,53.5,38.6,53.5c-0.6-0.1-1-0.5-1-1.1l0.5-5.5c0.1-0.6,0.5-1,1.1-0.9
						c0.6,0,1,0.5,0.9,1.1l-0.5,5.5C39.5,53.1,39.1,53.5,38.6,53.5z"/>
				</g>
				<g>
					<path class="st1" d="M42.3,53.5L42.3,53.5c-0.6-0.1-1-0.6-1-1.1l0.7-5.5c0.1-0.5,0.6-0.9,1.1-0.9c0.5,0.1,0.9,0.6,0.9,1.1
						l-0.7,5.5C43.2,53.1,42.8,53.5,42.3,53.5z"/>
				</g>
				<g>
					<path class="st1" d="M46,53.5c-0.1,0-0.1,0-0.2,0c-0.5-0.1-0.9-0.6-0.8-1.1l0.9-5.5c0.1-0.5,0.6-0.9,1.1-0.8
						c0.5,0.1,0.9,0.6,0.8,1.1L47,52.6C46.9,53.1,46.5,53.5,46,53.5z"/>
				</g>
			</g>
		</g>
		<g>
			<g>
				<path class="st1" d="M32.9,27.4c-0.1,0-0.2,0-0.3,0c-0.4-0.1-0.6-0.6-0.5-1l5.7-16.1C38,9.7,37.7,9,37.1,8.8
					c-0.3-0.1-0.6-0.1-0.9,0c-0.3,0.1-0.5,0.4-0.6,0.7l-6.3,17.4c-0.2,0.4-0.6,0.6-1,0.5c-0.4-0.2-0.6-0.6-0.5-1L34,8.8
					c0.3-0.7,0.8-1.3,1.4-1.6c0.7-0.3,1.4-0.4,2.1-0.1c1.5,0.5,2.2,2.1,1.7,3.6l-5.7,16.1C33.5,27.2,33.2,27.4,32.9,27.4z"/>
			</g>
		</g>
	</g>
	<g>
		<g>
			<g>
				<g>
					<g>
						<path class="st1" d="M56.2,37.1c-3.8,0-6.8-3.1-6.8-6.8s3.1-6.8,6.8-6.8c3.8,0,6.8,3.1,6.8,6.8S59.9,37.1,56.2,37.1z M56.2,25
							c-2.9,0-5.2,2.3-5.2,5.2s2.3,5.2,5.2,5.2s5.2-2.3,5.2-5.2S59,25,56.2,25z"/>
					</g>
				</g>
			</g>
			<g>
				<path class="st1" d="M56.1,33.5c-0.4,0-0.8-0.4-0.8-0.8v-5c0-0.4,0.4-0.8,0.8-0.8s0.8,0.4,0.8,0.8v5
					C56.9,33.1,56.5,33.5,56.1,33.5z"/>
			</g>
			<g>
				<path class="st1" d="M58.6,31h-5c-0.4,0-0.8-0.4-0.8-0.8s0.4-0.8,0.8-0.8h5c0.4,0,0.8,0.4,0.8,0.8S59,31,58.6,31z"/>
			</g>
		</g>
	</g>
</g>
</svg>
