<?xml version="1.0" encoding="utf-8"?>
<!-- Generator: Adobe Illustrator 19.2.1, SVG Export Plug-In . SVG Version: 6.00 Build 0)  -->
<svg version="1.1" id="Layer_1" xmlns="http://www.w3.org/2000/svg" xmlns:xlink="http://www.w3.org/1999/xlink" x="0px" y="0px"
	 viewBox="0 0 64 64" style="enable-background:new 0 0 64 64;" xml:space="preserve">
<metadata><?xpacket begin="﻿" id="W5M0MpCehiHzreSzNTczkc9d"?>
<x:xmpmeta xmlns:x="adobe:ns:meta/" x:xmptk="Adobe XMP Core 5.6-c111 79.158366, 2015/09/25-01:12:00        ">
   <rdf:RDF xmlns:rdf="http://www.w3.org/1999/02/22-rdf-syntax-ns#">
      <rdf:Description rdf:about=""/>
   </rdf:RDF>
</x:xmpmeta>
                                                                                                    
                                                                                                    
                                                                                                    
                                                                                                    
                                                                                                    
                                                                                                    
                                                                                                    
                                                                                                    
                                                                                                    
                                                                                                    
                                                                                                    
                                                                                                    
                                                                                                    
                                                                                                    
                                                                                                    
                                                                                                    
                                                                                                    
                                                                                                    
                                                                                                    
                                                                                                    
                           
<?xpacket end="w"?></metadata>
<style type="text/css">
	.st0{fill:none;}
	.st1{fill:#5B554D;}
</style>
<rect class="st0" width="64" height="64"/>
<g>
	<g>
		<g>
			<g>
				<path class="st1" d="M48.7,41.1H23.1c-1,0-2.2-0.7-2.7-1.6c-7.6-12.9-10-17.1-10.7-18.7h-6c-1.5,0-2.7-1.2-2.7-2.7v-0.8
					c0-1.5,1.2-2.7,2.7-2.7h9.6c0.2,0,0.4,0.1,0.6,0.3l2.7,4.2h35.6c0.4,0,0.7,0.3,0.7,0.7s-0.3,0.7-0.7,0.7h-36
					c-0.2,0-0.4-0.1-0.6-0.3L12.9,16H3.7c-0.8,0-1.4,0.6-1.4,1.4v0.8c0,0.8,0.6,1.4,1.4,1.4H10c0.2,0,0.5,0.1,0.6,0.3
					c0,0.1,0.1,0.1,0.1,0.2c0.5,1.1,6.7,11.8,10.8,18.8c0.3,0.5,1.1,0.9,1.6,0.9h25.6c0.5,0,1.2-0.4,1.5-0.9l6.4-13.7
					c0.2-0.3,0.5-0.5,0.9-0.3c0.3,0.2,0.5,0.5,0.3,0.9l-6.4,13.7C50.9,40.4,49.8,41.1,48.7,41.1z"/>
			</g>
		</g>
		<g>
			<path class="st1" d="M21.3,25.1v-0.3c0-0.8-0.6-1.4-1.4-1.4h-0.5c-0.8,0-1.4,0.6-1.4,1.4v0.3c0,0.8,0.6,1.4,1.4,1.4h0.5
				C20.7,26.6,21.3,25.9,21.3,25.1z M24,30.2v-0.3c0-0.8-0.7-1.4-1.4-1.4H22c-0.8,0-1.4,0.6-1.4,1.4v0.3c0,0.8,0.7,1.4,1.4,1.4h0.5
				C23.3,31.6,24,31,24,30.2z M29.2,30.2v-0.3c0-0.8-0.6-1.4-1.4-1.4h-0.5c-0.8,0-1.4,0.6-1.4,1.4v0.3c0,0.8,0.6,1.4,1.4,1.4h0.5
				C28.6,31.6,29.2,31,29.2,30.2z M24.6,26.6h0.5c0.8,0,1.4-0.7,1.4-1.4v-0.3c0-0.8-0.7-1.4-1.4-1.4h-0.5c-0.8,0-1.4,0.6-1.4,1.4
				v0.3C23.1,25.9,23.8,26.6,24.6,26.6z M45.5,26.6H46c0.8,0,1.4-0.7,1.4-1.4v-0.3c0-0.8-0.6-1.4-1.4-1.4h-0.5
				c-0.8,0-1.4,0.6-1.4,1.4v0.3C44.1,25.9,44.7,26.6,45.5,26.6z M40.3,26.6h0.6c0.8,0,1.4-0.7,1.4-1.4v-0.3c0-0.8-0.6-1.4-1.4-1.4
				h-0.6c-0.8,0-1.4,0.6-1.4,1.4v0.3C38.8,25.9,39.5,26.6,40.3,26.6z M35,26.6h0.5c0.8,0,1.4-0.7,1.4-1.4v-0.3
				c0-0.8-0.7-1.4-1.4-1.4H35c-0.8,0-1.4,0.6-1.4,1.4v0.3C33.6,25.9,34.2,26.6,35,26.6z M29.8,26.6h0.5c0.8,0,1.4-0.7,1.4-1.4v-0.3
				c0-0.8-0.6-1.4-1.4-1.4h-0.5c-0.8,0-1.4,0.6-1.4,1.4v0.3C28.4,25.9,29,26.6,29.8,26.6z M25.1,33.7h-0.5c-0.8,0-1.4,0.6-1.4,1.4
				v0.3c0,0.8,0.7,1.4,1.4,1.4h0.5c0.8,0,1.4-0.6,1.4-1.4v-0.3C26.6,34.4,25.9,33.7,25.1,33.7z M46.1,33.7h-0.5
				c-0.8,0-1.4,0.6-1.4,1.4v0.3c0,0.8,0.6,1.4,1.4,1.4h0.5c0.8,0,1.4-0.6,1.4-1.4v-0.3C47.5,34.4,46.8,33.7,46.1,33.7z M44.9,30.2
				v-0.3c0-0.8-0.6-1.4-1.4-1.4H43c-0.8,0-1.4,0.6-1.4,1.4v0.3c0,0.8,0.6,1.4,1.4,1.4h0.5C44.3,31.6,44.9,31,44.9,30.2z M48.7,28.4
				h-0.5c-0.8,0-1.4,0.6-1.4,1.4v0.3c0,0.8,0.6,1.4,1.4,1.4h0.5c0.8,0,1.4-0.7,1.4-1.4v-0.3C50.1,29.1,49.5,28.4,48.7,28.4z
				 M51.3,23.4h-0.5c-0.8,0-1.4,0.6-1.4,1.4v0.3c0,0.8,0.6,1.4,1.4,1.4h0.5c0.8,0,1.4-0.7,1.4-1.4v-0.3C52.7,24,52.1,23.4,51.3,23.4
				z M40.8,33.7h-0.6c-0.8,0-1.4,0.6-1.4,1.4v0.3c0,0.8,0.6,1.4,1.4,1.4h0.6c0.8,0,1.4-0.6,1.4-1.4v-0.3
				C42.3,34.4,41.6,33.7,40.8,33.7z M35.6,33.7H35c-0.8,0-1.4,0.6-1.4,1.4v0.3c0,0.8,0.6,1.4,1.4,1.4h0.5c0.8,0,1.4-0.6,1.4-1.4
				v-0.3C37,34.4,36.4,33.7,35.6,33.7z M34.4,30.2v-0.3c0-0.8-0.6-1.4-1.4-1.4h-0.5c-0.8,0-1.4,0.6-1.4,1.4v0.3
				c0,0.8,0.6,1.4,1.4,1.4H33C33.8,31.6,34.4,31,34.4,30.2z M30.3,33.7h-0.5c-0.8,0-1.4,0.6-1.4,1.4v0.3c0,0.8,0.6,1.4,1.4,1.4h0.5
				c0.8,0,1.4-0.6,1.4-1.4v-0.3C31.8,34.4,31.1,33.7,30.3,33.7z M39.7,30.2v-0.3c0-0.8-0.6-1.4-1.4-1.4h-0.5c-0.8,0-1.4,0.6-1.4,1.4
				v0.3c0,0.8,0.7,1.4,1.4,1.4h0.5C39,31.6,39.7,31,39.7,30.2z"/>
		</g>
		<g>
			<path class="st1" d="M27.2,42.8c-1.8,0-3.3,1.5-3.3,3.3s1.5,3.3,3.3,3.3s3.3-1.5,3.3-3.3S29,42.8,27.2,42.8z M46.1,42.8
				c-1.8,0-3.3,1.5-3.3,3.3s1.5,3.3,3.3,3.3s3.3-1.5,3.3-3.3C49.3,44.3,47.9,42.8,46.1,42.8z"/>
		</g>
	</g>
	<g>
		<g>
			<g>
				<g>
					<g>
						<path class="st1" d="M57.4,25.8c-3.1,0-5.6-2.5-5.6-5.6s2.5-5.6,5.6-5.6s5.6,2.5,5.6,5.6S60.5,25.8,57.4,25.8z M57.4,16
							c-2.3,0-4.3,1.9-4.3,4.2s1.9,4.2,4.3,4.2c2.3,0,4.3-1.9,4.3-4.2S59.8,16,57.4,16z"/>
					</g>
				</g>
			</g>
			<g>
				<path class="st1" d="M59.4,20.8h-4.1c-0.4,0-0.7-0.3-0.7-0.7c0-0.4,0.3-0.7,0.7-0.7h4.1c0.4,0,0.7,0.3,0.7,0.7
					C60.1,20.5,59.8,20.8,59.4,20.8z"/>
			</g>
		</g>
	</g>
</g>
</svg>
