<?xml version="1.0" encoding="utf-8"?>
<!-- Generator: Adobe Illustrator 19.2.1, SVG Export Plug-In . SVG Version: 6.00 Build 0)  -->
<svg version="1.1" id="Layer_1" xmlns="http://www.w3.org/2000/svg" xmlns:xlink="http://www.w3.org/1999/xlink" x="0px" y="0px"
	 viewBox="0 0 64 64" style="enable-background:new 0 0 64 64;" xml:space="preserve">
<metadata><?xpacket begin="﻿" id="W5M0MpCehiHzreSzNTczkc9d"?>
<x:xmpmeta xmlns:x="adobe:ns:meta/" x:xmptk="Adobe XMP Core 5.6-c111 79.158366, 2015/09/25-01:12:00        ">
   <rdf:RDF xmlns:rdf="http://www.w3.org/1999/02/22-rdf-syntax-ns#">
      <rdf:Description rdf:about=""/>
   </rdf:RDF>
</x:xmpmeta>
                                                                                                    
                                                                                                    
                                                                                                    
                                                                                                    
                                                                                                    
                                                                                                    
                                                                                                    
                                                                                                    
                                                                                                    
                                                                                                    
                                                                                                    
                                                                                                    
                                                                                                    
                                                                                                    
                                                                                                    
                                                                                                    
                                                                                                    
                                                                                                    
                                                                                                    
                                                                                                    
                           
<?xpacket end="w"?></metadata>
<style type="text/css">
	.st0{fill:none;}
	.st1{fill:#5B554D;}
</style>
<rect class="st0" width="64" height="64"/>
<g>
	<g>
		<g>
			<path class="st1" d="M54.1,57.1c-0.3,0-0.5-0.1-0.7-0.3c-0.4-0.4-0.3-1,0.1-1.4l7.2-6.6c0.3-0.3,0.4-0.6,0.4-1
				c0-0.4-0.1-0.7-0.4-1l-7.2-7.2c-0.4-0.4-0.4-1,0-1.4c0.4-0.4,1-0.4,1.4,0l7.2,7.2c0.6,0.6,1,1.5,1,2.4c0,0.9-0.4,1.8-1.1,2.4
				l-7.2,6.7C54.6,57,54.3,57.1,54.1,57.1z"/>
		</g>
		<g>
			<path class="st1" d="M60.3,48.8h-2.4c-7.9,0-17.6-5.9-29.8-18.2c-1.6-1.6-3-3.1-4.4-4.5l-0.2-0.2c-6.3-6.5-10.4-10.8-15.3-10.8H2
				c-0.5,0-1-0.4-1-1c0-0.5,0.4-1,1-1h6.2c5.7,0,10.1,4.5,16.7,11.4l0.2,0.2c1.4,1.4,2.8,2.9,4.4,4.5c11.8,11.8,21.2,17.6,28.5,17.6
				h2.4c0.5,0,1,0.4,1,1C61.3,48.4,60.9,48.8,60.3,48.8z"/>
		</g>
	</g>
	<g>
		<g>
			<path class="st1" d="M54.1,26.1c-0.2,0-0.5-0.1-0.7-0.3c-0.4-0.4-0.4-1,0-1.4l7.2-7.2c0.3-0.3,0.4-0.6,0.4-1c0-0.4-0.2-0.7-0.4-1
				l-7.2-6.6c-0.4-0.4-0.4-1-0.1-1.4c0.4-0.4,1-0.4,1.4-0.1l7.2,6.6c0.7,0.6,1,1.5,1.1,2.4c0,0.9-0.3,1.8-1,2.4l-7.2,7.2
				C54.6,26,54.4,26.1,54.1,26.1z"/>
		</g>
		<g>
			<path class="st1" d="M8.2,50.8H2c-0.5,0-1-0.4-1-1s0.4-1,1-1h6.2c4.9,0,9-4.3,15.3-10.8l0.2-0.2c1.4-1.4,2.8-3,4.4-4.5
				c12.2-12.2,22-18.2,29.8-18.2h2.4c0.5,0,1,0.4,1,1s-0.4,1-1,1h-2.4c-7.3,0-16.6,5.8-28.5,17.6c-1.6,1.6-3,3.1-4.4,4.5l-0.2,0.2
				C18.3,46.3,13.9,50.8,8.2,50.8z"/>
		</g>
	</g>
</g>
</svg>
