<?xml version="1.0" encoding="utf-8"?>
<!-- Generator: Adobe Illustrator 19.2.1, SVG Export Plug-In . SVG Version: 6.00 Build 0)  -->
<svg version="1.1" id="Layer_1" xmlns="http://www.w3.org/2000/svg" xmlns:xlink="http://www.w3.org/1999/xlink" x="0px" y="0px"
	 viewBox="0 0 64 64" style="enable-background:new 0 0 64 64;" xml:space="preserve">
<metadata><?xpacket begin="﻿" id="W5M0MpCehiHzreSzNTczkc9d"?>
<x:xmpmeta xmlns:x="adobe:ns:meta/" x:xmptk="Adobe XMP Core 5.6-c111 79.158366, 2015/09/25-01:12:00        ">
   <rdf:RDF xmlns:rdf="http://www.w3.org/1999/02/22-rdf-syntax-ns#">
      <rdf:Description rdf:about=""/>
   </rdf:RDF>
</x:xmpmeta>
                                                                                                    
                                                                                                    
                                                                                                    
                                                                                                    
                                                                                                    
                                                                                                    
                                                                                                    
                                                                                                    
                                                                                                    
                                                                                                    
                                                                                                    
                                                                                                    
                                                                                                    
                                                                                                    
                                                                                                    
                                                                                                    
                                                                                                    
                                                                                                    
                                                                                                    
                                                                                                    
                           
<?xpacket end="w"?></metadata>
<style type="text/css">
	.st0{fill:none;}
	.st1{fill:#5B554D;}
</style>
<rect class="st0" width="64" height="64"/>
<g>
	<g id="base">
		<g>
			<path class="st1" d="M43.1,63H20.9c-3.1,0-5.5-2.5-5.5-5.5v-51c0-3.1,2.5-5.5,5.5-5.5h22.3c3.1,0,5.5,2.5,5.5,5.5v50.9
				C48.7,60.5,46.2,63,43.1,63z M20.9,3c-2,0-3.6,1.6-3.6,3.6v50.9c0,2,1.6,3.6,3.6,3.6h22.3c2,0,3.6-1.6,3.6-3.6v-51
				c0-2-1.6-3.6-3.6-3.6L20.9,3L20.9,3z"/>
		</g>
	</g>
	<g id="Camera_2_">
		<circle class="st1" cx="31.7" cy="6.1" r="0.8"/>
	</g>
	<g id="screen_1_">
		<path class="st1" d="M43.3,11.7v38.9H20.7V11.7H43.3 M45.2,9.7H18.8c0,0-0.1,0-0.1,0.1v42.7c0,0.1,0,0.1,0.1,0.1h26.4
			c0,0,0.1,0,0.1-0.1L45.2,9.7C45.3,9.7,45.2,9.7,45.2,9.7L45.2,9.7z"/>
	</g>
	<g id="Base_4_">
		<circle class="st1" cx="32.2" cy="57.2" r="2.2"/>
	</g>
</g>
</svg>
