<?xml version="1.0" encoding="utf-8"?>
<!-- Generator: Adobe Illustrator 19.2.1, SVG Export Plug-In . SVG Version: 6.00 Build 0)  -->
<svg version="1.1" id="Layer_1" xmlns="http://www.w3.org/2000/svg" xmlns:xlink="http://www.w3.org/1999/xlink" x="0px" y="0px"
	 viewBox="0 0 64 64" style="enable-background:new 0 0 64 64;" xml:space="preserve">
<metadata><?xpacket begin="﻿" id="W5M0MpCehiHzreSzNTczkc9d"?>
<x:xmpmeta xmlns:x="adobe:ns:meta/" x:xmptk="Adobe XMP Core 5.6-c111 79.158366, 2015/09/25-01:12:00        ">
   <rdf:RDF xmlns:rdf="http://www.w3.org/1999/02/22-rdf-syntax-ns#">
      <rdf:Description rdf:about=""/>
   </rdf:RDF>
</x:xmpmeta>
                                                                                                    
                                                                                                    
                                                                                                    
                                                                                                    
                                                                                                    
                                                                                                    
                                                                                                    
                                                                                                    
                                                                                                    
                                                                                                    
                                                                                                    
                                                                                                    
                                                                                                    
                                                                                                    
                                                                                                    
                                                                                                    
                                                                                                    
                                                                                                    
                                                                                                    
                                                                                                    
                           
<?xpacket end="w"?></metadata>
<style type="text/css">
	.st0{fill:none;}
	.st1{fill:#5B554D;}
</style>
<rect class="st0" width="64" height="64"/>
<g>
	<g id="Base_7_">
		<path class="st1" d="M20.4,12.5c1.3,0,2.2,0.5,2.2,0.5l36.8,21c0,0,1,0.6,1.6,1.2c0.6,0.6,0.5,1.3,0.5,1.3v2.6
			c0,0.8-1.2,1.7-1.2,1.7s-12.2,8.6-12.8,9.1c-0.7,0.5-2.1,1.6-4.2,1.6c-2.1,0-4-1.4-4-1.4S4,27.3,3.3,26.8s-0.7-1.3-0.7-1.3
			l-0.1-0.9c0,0-0.1-0.9-0.1-1.4c0-0.4,0.4-1,0.9-1.3C3.9,21.5,18.2,13,18.2,13C18.9,12.6,19.7,12.5,20.4,12.5 M20.4,11L20.4,11
			c-1,0-2,0.2-2.8,0.6c0,0-0.1,0-0.1,0.1C16.9,12,3.2,20.2,2.8,20.5c-1,0.6-1.7,1.6-1.7,2.6c0,0.5,0.1,1.4,0.1,1.5l0.1,0.9
			c0,0.7,0.3,1.8,1.2,2.5c0.7,0.5,30.1,19.5,36,23.4c0.3,0.2,2.5,1.6,4.9,1.6s4.1-1.2,4.9-1.8l0.1-0.1C49,50.6,61.1,42,61.1,42
			c0.4-0.3,1.9-1.4,1.9-2.9v-2.6c0-0.3-0.1-1.3-0.9-2.3c-0.7-0.8-1.8-1.4-2-1.5l-36.8-21h-0.1C23.1,11.6,22,11,20.4,11L20.4,11z"/>
	</g>
	<g id="Highlight_1_">
		<path class="st1" d="M20.4,12.7c0.8,0,1.7,0.2,2.8,0.8C24.6,14.3,60,34.6,60.5,35c0.9,0.8,1.2,1.7,0.1,2.5
			c-1.9,1.3-12.5,8.7-14.5,10.1c-1.1,0.8-2.2,1-3.1,1c-1.5,0-2.7-0.7-3.3-1l0,0c0,0-34.8-22.2-36.1-23.1c-1.1-0.7-1-1.5-0.7-2
			c0.5-0.6,14.7-8.9,14.7-8.9S18.7,12.7,20.4,12.7 M20.4,11.2L20.4,11.2c-1.9,0-3.2,0.8-3.6,1.1c-14.4,8.4-14.9,9-15.1,9.3
			c-0.4,0.6-0.6,1.3-0.5,2c0.1,0.6,0.5,1.4,1.5,2.1c0.7,0.4,10.2,6.5,18.6,11.9c4.4,2.8,8.8,5.6,12.1,7.7c3.6,2.3,5,3.2,5.6,3.5l0,0
			l0.2,0.1c0.7,0.4,2.1,1.1,3.8,1.1c1.4,0,2.7-0.4,3.9-1.3c2.2-1.5,12.6-8.8,14.5-10.1c1-0.7,1.3-1.6,1.3-2.2c0-0.6-0.2-1.6-1.3-2.6
			c-0.2-0.2-0.5-0.5-35.7-20.6l-1.9-1.1C22.8,11.5,21.6,11.2,20.4,11.2L20.4,11.2z"/>
	</g>
	<g id="Screen_3_">
		<path class="st1" d="M25.1,16.9L25.1,16.9L25.1,16.9 M24.6,17.1L53,33.4L38.5,43.5L10.3,25.6L24.6,17.1 M24.6,15.5
			c-0.1,0-0.2,0-0.3,0.1L7.7,25.4c-0.2,0.1-0.2,0.3,0,0.4l30.5,19.4c0.1,0.1,0.2,0.1,0.3,0.1s0.2,0,0.3-0.1l16.7-11.6
			c0.2-0.1,0.2-0.3,0-0.4L25,15.6C24.9,15.5,24.7,15.5,24.6,15.5L24.6,15.5z"/>
	</g>
	<g id="Shape_12_1_">
		<path class="st1" d="M12.7,18.9c0.4-0.2,1.1-0.3,1.5-0.1c0.4,0.2,0.3,0.5-0.1,0.7c-0.4,0.2-1.1,0.3-1.5,0.1
			C12.2,19.4,12.3,19.1,12.7,18.9z"/>
	</g>
	<g>
		<path class="st1" d="M48.1,40.7c0-0.1,0-0.2,0.1-0.2c0,0,0-0.1,0.1-0.1l0.1-0.1c0.1-0.1,0.1-0.1,0.2-0.2c0.1-0.1,0.2-0.1,0.3-0.2
			c0,0,0.1,0,0.1-0.1c0.1,0,0.2-0.1,0.2-0.1c0.1,0,0.2-0.1,0.3-0.1s0.2,0,0.3,0s0.1,0,0.2,0c0.1,0,0.1,0,0.2,0h0.1h0.1h0.1
			c0.1,0,0.1,0,0.2,0c0.1,0,0.2,0,0.3,0.1h0.1c0.1,0,0.2,0.1,0.3,0.1c0.1,0.1,0.3,0.1,0.4,0.2l0.1,0.1l0.1,0.1l0.1,0.1
			c0.1,0.1,0.1,0.2,0.2,0.3c0,0.1,0,0.1,0,0.2c0,0.1,0,0.1,0,0.2c0,0.1,0,0.1,0,0.2c0,0.1-0.1,0.3-0.2,0.4L52,41.7
			c-0.1,0.1-0.1,0.1-0.2,0.1l-0.1,0.1c-0.1,0-0.2,0.1-0.2,0.1c-0.1,0-0.1,0.1-0.2,0.1c-0.1,0-0.2,0-0.3,0.1c-0.1,0-0.1,0-0.2,0h-0.1
			h-0.1c-0.1,0-0.1,0-0.2,0h-0.1l0,0c-0.1,0-0.1,0-0.2,0H50h-0.1c-0.1,0-0.1,0-0.2,0c-0.1,0-0.2-0.1-0.4-0.1c-0.1,0-0.2-0.1-0.3-0.1
			s-0.2-0.1-0.3-0.1c-0.1-0.1-0.2-0.1-0.3-0.2c-0.1,0-0.1-0.1-0.1-0.2c-0.1-0.1-0.1-0.2-0.2-0.3c0-0.1-0.1-0.2-0.1-0.3
			C48.1,40.8,48.1,40.7,48.1,40.7z"/>
	</g>
</g>
</svg>
