<?xml version="1.0" encoding="utf-8"?>
<!-- Generator: Adobe Illustrator 19.2.1, SVG Export Plug-In . SVG Version: 6.00 Build 0)  -->
<svg version="1.1" id="Layer_1" xmlns="http://www.w3.org/2000/svg" xmlns:xlink="http://www.w3.org/1999/xlink" x="0px" y="0px"
	 viewBox="0 0 64 64" style="enable-background:new 0 0 64 64;" xml:space="preserve">
<metadata><?xpacket begin="﻿" id="W5M0MpCehiHzreSzNTczkc9d"?>
<x:xmpmeta xmlns:x="adobe:ns:meta/" x:xmptk="Adobe XMP Core 5.6-c111 79.158366, 2015/09/25-01:12:00        ">
   <rdf:RDF xmlns:rdf="http://www.w3.org/1999/02/22-rdf-syntax-ns#">
      <rdf:Description rdf:about=""/>
   </rdf:RDF>
</x:xmpmeta>
                                                                                                    
                                                                                                    
                                                                                                    
                                                                                                    
                                                                                                    
                                                                                                    
                                                                                                    
                                                                                                    
                                                                                                    
                                                                                                    
                                                                                                    
                                                                                                    
                                                                                                    
                                                                                                    
                                                                                                    
                                                                                                    
                                                                                                    
                                                                                                    
                                                                                                    
                                                                                                    
                           
<?xpacket end="w"?></metadata>
<style type="text/css">
	.st0{fill:none;}
	.st1{fill:#5B554D;}
</style>
<rect class="st0" width="64" height="64"/>
<g>
	<g>
		<g>
			<path class="st1" d="M32.1,63C22.5,63,13,58.6,6.9,50.2l0,0c-4.9-6.7-6.8-14.9-5.5-23.1c1.3-8.2,5.7-15.4,12.4-20.2
				C20.5,2,28.7,0.1,36.9,1.4C45,2.7,52.2,7.1,57.1,13.8c4.9,6.7,6.8,14.9,5.5,23.1c-1.3,8.2-5.7,15.4-12.4,20.2
				C44.7,61.1,38.4,63,32.1,63z M31.9,2.9c-6.1,0-12,1.9-17,5.5C8.6,13,4.5,19.7,3.2,27.4C2,35.1,3.9,42.8,8.4,49.1l0,0
				c9.4,13,27.7,15.9,40.7,6.5c6.3-4.6,10.4-11.3,11.7-19c1.2-7.7-0.6-15.4-5.2-21.7C51,8.6,44.2,4.5,36.6,3.2
				C35,3,33.4,2.9,31.9,2.9z"/>
		</g>
		<g>
			<path class="st1" d="M31.1,53c-0.5,0-0.9-0.1-1.3-0.3l-10.2-4.5c-1-0.4-1.9-1.6-2.1-2.7l-1.6-9.8c-0.2-1.1,0.4-2.5,1.3-3.2
				l8.6-6.5c0.9-0.7,2.4-0.8,3.4-0.3l9.8,4.7c1,0.5,1.9,1.7,2.1,2.7l1.8,9.9c0.2,1.1-0.3,2.5-1.3,3.2l-8.4,6.1
				C32.6,52.8,31.8,53,31.1,53z M27.7,27.3c-0.3,0-0.7,0.1-0.9,0.3L18.3,34c-0.4,0.3-0.6,1-0.6,1.4l1.6,9.8c0.1,0.5,0.6,1.1,1,1.3
				L30.5,51c0.4,0.2,1.2,0.1,1.6-0.2l8.4-6.1c0,0,0,0,0,0c0.3-0.3,0.6-0.9,0.5-1.3l-1.8-9.9c-0.1-0.5-0.6-1.2-1.1-1.4l-9.8-4.7
				C28.2,27.3,28,27.3,27.7,27.3z"/>
		</g>
		<g>
			<path class="st1" d="M16.5,34.3c-0.7,0-1.3-0.2-1.8-0.7l-6.5-5.8c-0.9-0.8-1.2-2.3-0.7-3.4l4-9c0.5-1,1.7-1.9,2.8-2l9.1-0.7
				c1.3-0.1,2.5,0.8,2.7,2.1l1.8,9.2c0.2,1.1-0.3,2.5-1.2,3.2l-8.5,6.5C17.7,34.1,17.1,34.3,16.5,34.3z M23.6,14.7
				C23.6,14.7,23.6,14.7,23.6,14.7l-9.1,0.7c-0.4,0-1,0.5-1.2,0.9l-4,9c-0.2,0.4,0,0.9,0.3,1.2l6.5,5.8c0.3,0.2,0.8,0.3,1,0l8.5-6.5
				c0,0,0,0,0,0c0.3-0.3,0.6-0.9,0.5-1.4l-1.8-9.2C24.2,14.9,23.9,14.7,23.6,14.7z"/>
		</g>
		<g>
			<path class="st1" d="M39.5,32.1c-0.5,0-0.9-0.1-1.4-0.3l-9.8-4.7c-1-0.5-1.9-1.6-2.1-2.7l-1.8-9.2c-0.2-1.2,0.4-2.5,1.3-3.2
				l7.4-4.8c0.9-0.6,2.4-0.7,3.4-0.3l10,4.1c1,0.4,2,1.6,2.2,2.7l1.5,8.7c0.2,1.1-0.3,2.5-1.2,3.2l0,0l-7.5,5.9
				C41,31.9,40.3,32.1,39.5,32.1z M35.3,8.5c-0.4,0-0.8,0.1-1.1,0.3l-7.4,4.8c-0.3,0.2-0.6,0.8-0.5,1.2l1.8,9.2
				c0.1,0.5,0.6,1.2,1.1,1.4l9.8,4.7c0.4,0.2,1.1,0.1,1.5-0.2l7.5-5.9c0.4-0.3,0.6-1,0.5-1.4L46.9,14c-0.1-0.5-0.6-1.1-1-1.3
				l-10-4.1C35.7,8.5,35.5,8.5,35.3,8.5z M48.5,24.8L48.5,24.8L48.5,24.8z"/>
		</g>
		<g>
			<path class="st1" d="M51.6,46.5c-0.1,0-0.2,0-0.2,0l-7.7-0.8c-1.2-0.1-2.3-1.1-2.5-2.3l-1.8-9.9c-0.2-1.1,0.3-2.5,1.2-3.2l7.6-6
				c1-0.8,2.5-0.7,3.4,0.4l5.8,7.1c0.7,0.9,1,2.3,0.6,3.4c0,0,0,0,0,0l-3.5,9.7C53.9,45.7,52.8,46.5,51.6,46.5z M49.6,25.5
				c-0.1,0-0.2,0-0.3,0.1l-7.6,6c-0.3,0.3-0.6,1-0.5,1.4L43,43c0.1,0.4,0.5,0.8,0.9,0.8l7.7,0.8c0.3,0,0.8-0.3,1-0.6l3.5-9.7
				c0.2-0.4,0-1.2-0.3-1.6L50,25.7C49.9,25.6,49.8,25.5,49.6,25.5z M57,34.7L57,34.7L57,34.7z"/>
		</g>
		<g>
			<path class="st1" d="M29.7,60.7l-7.9-0.1c-0.8,0-2.1-0.2-2.5-0.4c-0.5-0.2-1.4-1.1-1.6-1.4l-5-5.2c-0.5-0.5-0.7-1.1-0.6-1.8
				c0.1-0.6,0.4-1.2,0.9-1.6l3.9-3.1c0.9-0.7,2.4-0.9,3.4-0.4l10.2,4.6c1.1,0.5,1.9,1.8,1.8,2.9l-0.1,4C32,59.6,31,60.6,29.7,60.7z
				 M18.9,48.3c-0.3,0-0.7,0.1-1,0.3l-3.9,3.1c-0.1,0.1-0.2,0.2-0.2,0.3c0,0.1,0,0.2,0.1,0.3l5,5.2c0.6,0.6,1,1,1.1,1
				c0.1,0,1.1,0.2,1.7,0.2l7.8,0.1c0.3,0,0.5-0.3,0.5-0.6l0.1-4c0,0,0,0,0,0c0-0.4-0.3-1-0.7-1.1l-10.2-4.6
				C19.3,48.3,19.1,48.3,18.9,48.3z"/>
		</g>
		<g>
			<path class="st1" d="M47.7,12.9c-0.6,0-1.2-0.1-1.7-0.3L36,8.4C35,8,34,6.9,33.6,6l-1.2-3c-0.3-0.8-0.4-1.1-0.2-1.5
				c0.2-0.3,0.5-0.5,0.8-0.5c0.1,0,10.7,0.1,19.2,7.5c0.4,0.3,0.5,0.8,0.5,1.3c-0.2,1.3-2.5,2.3-3.4,2.7
				C48.8,12.8,48.3,12.9,47.7,12.9z M34.5,3l0.9,2.3c0,0,0,0,0,0c0.2,0.5,0.8,1.2,1.3,1.4l10,4.2c0.5,0.2,1.4,0.2,1.9,0
				c0.8-0.3,1.7-0.8,2.1-1.1C44.6,4.5,37.4,3.3,34.5,3z"/>
		</g>
		<g>
			<path class="st1" d="M57.9,33.3c-0.7,0-1.4-0.3-1.9-0.9l-5.9-7c-0.6-0.7-1.2-2-1.4-3L47.1,14c-0.2-1.2,0.5-2.5,1.7-3l2.5-1
				c1.1-0.4,2.6-0.1,3.4,0.8c0.1,0.1,1.4,1.5,2.5,2.9c3.6,5,5.7,11.3,5.7,14.4c-0.1,1.8-3.5,4.7-3.5,4.7
				C58.8,33.2,58.4,33.3,57.9,33.3z M52.2,11.7c-0.1,0-0.3,0-0.4,0.1l-2.4,1c-0.3,0.1-0.6,0.6-0.5,0.9l1.6,8.5l0,0
				c0.1,0.6,0.6,1.6,1,2.1l5.9,7c0.2,0.3,0.5,0.3,0.5,0.2c0.9-0.7,2.7-2.7,2.8-3.4c0.1-2.7-2-8.7-5.3-13.2c-1-1.4-2.3-2.7-2.3-2.8
				C53,11.9,52.6,11.7,52.2,11.7z"/>
		</g>
		<g>
			<path class="st1" d="M14.3,15.2c-1.2,0-2.3-0.9-2.5-2.1l-0.3-2.3c-0.1-1.2,0.4-2.4,1.3-3.1C21.4,0.8,31,1,31.4,1c0,0,0,0,0,0
				c1.7,0,3.7,4.4,3.8,4.5c0.4,1-0.1,2.4-1.1,3.1l-7.4,4.9c-0.8,0.5-2.1,1-3.1,1.1l-9.1,0.7C14.4,15.2,14.4,15.2,14.3,15.2z
				 M31.2,2.9c-1.3,0-9.8,0.3-17.1,6.2c-0.5,0.4-0.7,1-0.6,1.4l0.3,2.3c0,0.3,0.3,0.5,0.6,0.5l9.1-0.7l0,0c0.6,0,1.7-0.4,2.2-0.8
				L33,7c0.3-0.2,0.5-0.6,0.4-0.8C33.1,5.5,31.8,3.3,31.2,2.9z M31.3,2.9C31.3,2.9,31.3,2.9,31.3,2.9C31.4,2.9,31.3,2.9,31.3,2.9z
				 M31.1,2.8L31.1,2.8L31.1,2.8z"/>
		</g>
		<g>
			<path class="st1" d="M12.1,52.2c-0.6,0-1.2-0.2-1.7-0.5c0,0,0,0,0,0l-4.3-3.5c-0.7-0.6-1.5-1.6-2-2.5c-3-6.4-3-11-3-11.7
				c-0.1-1.1,0.3-2.4,1.1-3.2l3.7-3.9c0.9-0.9,2.4-1,3.4-0.1l6.5,5.8c0.8,0.7,1.5,1.9,1.6,2.9l1.6,9.8c0.2,1.1-0.3,2.5-1.2,3.2
				l-3.9,3.1C13.4,52,12.8,52.2,12.1,52.2z M11.6,50.2c0.3,0.2,0.8,0.2,1.1,0l3.9-3.1c0.4-0.3,0.6-1,0.6-1.5l-1.6-9.8
				c-0.1-0.6-0.6-1.5-1-1.8L8,28.1c-0.2-0.2-0.6-0.2-0.8,0L3.5,32c-0.4,0.4-0.6,1.2-0.6,1.7c0,0.1,0,0.1,0,0.2c0,0-0.1,4.6,2.9,10.9
				c0.3,0.6,0.9,1.4,1.5,1.9L11.6,50.2z"/>
		</g>
		<g>
			<path class="st1" d="M39.9,61.3c-0.1,0-0.2,0-0.3,0l-6.9-0.5c-1.3-0.1-2.3-1.2-2.3-2.5l0.2-4.1c0.1-1.1,0.7-2.4,1.6-3l8.4-6.2
				c0.8-0.6,2.2-1,3.3-0.9l7.8,0.8c0.6,0.1,1.2,0.4,1.6,0.9c0.4,0.5,0.5,1.1,0.4,1.8c0,0.1,0,0.1,0,0.2l-1.8,5.3
				c-0.3,0.9-1.1,2.1-2,2.7l-6.9,5c0,0-0.1,0.1-0.1,0.1C42,61,40.8,61.3,39.9,61.3z M42.4,59.8L42.4,59.8L42.4,59.8z M43.4,45.8
				c-0.6,0-1.4,0.2-1.8,0.5l-8.4,6.2c-0.4,0.3-0.8,1.1-0.8,1.6l-0.2,4.1c0,0.3,0.2,0.5,0.5,0.6l6.9,0.5c0.6,0,1.6-0.1,2.2-0.4
				l6.9-4.9c0,0,0,0,0,0c0.5-0.3,1.1-1.1,1.2-1.7l1.8-5.3c0-0.1,0-0.2-0.1-0.3c-0.1-0.1-0.2-0.2-0.3-0.2l-7.8-0.8
				C43.5,45.8,43.5,45.8,43.4,45.8z"/>
		</g>
		<g>
			<path class="st1" d="M2.3,32.4c-0.2,0-0.4-0.1-0.5-0.1C1.3,32,1,31.4,1,30.7l0,0c0.9-13.7,9.2-20.7,9.5-21
				C11.2,9,11.8,9,12.2,9.1c0.4,0.1,0.9,0.5,1,1.5l0.3,2.3c0.1,1-0.1,2.4-0.5,3.3l-4.1,9c-0.4,0.8-1.2,2-1.8,2.6l-3.6,3.9
				C3.1,32.3,2.7,32.4,2.3,32.4z M2.9,30.9L2.9,30.9L2.9,30.9z M2,30.7L2,30.7L2,30.7z M11.4,11.4C9.9,12.9,4.1,19,3,29.6l2.8-3.1
				C6.3,26,7,25.1,7.3,24.4l4.1-9c0.3-0.6,0.4-1.6,0.3-2.2L11.4,11.4z"/>
		</g>
		<g>
			<path class="st1" d="M51.6,54.4c-0.4,0-0.7-0.1-1-0.4c-0.5-0.4-0.6-1.1-0.4-1.8L52,47c0.1-0.9,0.4-2.1,0.7-2.9c0,0,0,0,0,0
				l3.7-9.9c0.3-0.9,1.1-2,1.7-2.4c0.5-0.4,2.1-1.6,2.1-1.6c0.6-0.4,1.3-0.5,1.9-0.3c0.6,0.3,0.9,0.8,0.9,1.5
				c0.2,10.9-5.2,18.2-6.9,20.1c0,0.1-0.1,0.1-0.2,0.1l-3.3,2.5c-0.1,0-0.1,0.1-0.2,0.1C52.1,54.3,51.8,54.4,51.6,54.4z M51.6,52.5
				C51.6,52.5,51.6,52.5,51.6,52.5L51.6,52.5L51.6,52.5C51.6,52.5,51.6,52.5,51.6,52.5z M54.5,44.7c-0.3,0.7-0.5,1.8-0.6,2.6
				c0,0.1,0,0.1,0,0.2L52.2,52l2.5-1.8c1.6-1.9,6.4-8.5,6.4-18.4c-0.5,0.4-1.5,1.2-1.9,1.5c-0.3,0.2-0.8,1-1.1,1.6L54.5,44.7z
				 M52.9,47.2L52.9,47.2L52.9,47.2z"/>
		</g>
	</g>
</g>
</svg>
