<?xml version="1.0" encoding="utf-8"?>
<!-- Generator: Adobe Illustrator 19.2.1, SVG Export Plug-In . SVG Version: 6.00 Build 0)  -->
<svg version="1.1" id="Layer_1" xmlns="http://www.w3.org/2000/svg" xmlns:xlink="http://www.w3.org/1999/xlink" x="0px" y="0px"
	 viewBox="0 0 64 64" style="enable-background:new 0 0 64 64;" xml:space="preserve">
<metadata><?xpacket begin="﻿" id="W5M0MpCehiHzreSzNTczkc9d"?>
<x:xmpmeta xmlns:x="adobe:ns:meta/" x:xmptk="Adobe XMP Core 5.6-c111 79.158366, 2015/09/25-01:12:00        ">
   <rdf:RDF xmlns:rdf="http://www.w3.org/1999/02/22-rdf-syntax-ns#">
      <rdf:Description rdf:about=""/>
   </rdf:RDF>
</x:xmpmeta>
                                                                                                    
                                                                                                    
                                                                                                    
                                                                                                    
                                                                                                    
                                                                                                    
                                                                                                    
                                                                                                    
                                                                                                    
                                                                                                    
                                                                                                    
                                                                                                    
                                                                                                    
                                                                                                    
                                                                                                    
                                                                                                    
                                                                                                    
                                                                                                    
                                                                                                    
                                                                                                    
                           
<?xpacket end="w"?></metadata>
<style type="text/css">
	.st0{fill:none;}
	.st1{fill:#5B554D;}
</style>
<rect class="st0" width="64" height="64"/>
<g>
	<g>
		<path class="st1" d="M48.4,63c-0.9,0-2.1-0.4-3.6-1.7l-14.4-13c-0.7-0.6-1.4-1.4-2.1-2.4H17.5c-2.9,0-5.3-2.4-5.3-5.3V23.4
			c0-2.9,2.4-5.3,5.3-5.3h10.8c0.7-1,1.4-1.8,2.1-2.4l14.4-13c2.3-2.1,4-1.8,4.8-1.4c0.8,0.4,2.2,1.4,2.2,4.5v52.4
			c0,3.1-1.4,4.2-2.2,4.5C49.3,62.9,48.9,63,48.4,63z M17.5,20.1c-1.8,0-3.2,1.5-3.2,3.2v17.3c0,1.8,1.4,3.2,3.2,3.2h11.3
			c0.3,0,0.7,0.2,0.9,0.5c0.7,1,1.4,1.9,2,2.5l14.4,13c1.1,0.9,2,1.4,2.6,1.1c0.6-0.3,0.9-1.3,0.9-2.7V5.8c0-1.4-0.3-2.4-0.9-2.7
			c-0.6-0.3-1.6,0.1-2.6,1.1c0,0,0,0,0,0l-14.4,13c-0.7,0.6-1.4,1.4-2,2.5c-0.2,0.3-0.5,0.5-0.9,0.5H17.5z M45.5,3.5L45.5,3.5
			L45.5,3.5z"/>
	</g>
</g>
</svg>
