<?xml version="1.0" encoding="utf-8"?>
<!-- Generator: Adobe Illustrator 19.2.1, SVG Export Plug-In . SVG Version: 6.00 Build 0)  -->
<svg version="1.1" id="Layer_1" xmlns="http://www.w3.org/2000/svg" xmlns:xlink="http://www.w3.org/1999/xlink" x="0px" y="0px"
	 viewBox="0 0 64 64" style="enable-background:new 0 0 64 64;" xml:space="preserve">
<metadata><?xpacket begin="﻿" id="W5M0MpCehiHzreSzNTczkc9d"?>
<x:xmpmeta xmlns:x="adobe:ns:meta/" x:xmptk="Adobe XMP Core 5.6-c111 79.158366, 2015/09/25-01:12:00        ">
   <rdf:RDF xmlns:rdf="http://www.w3.org/1999/02/22-rdf-syntax-ns#">
      <rdf:Description rdf:about=""/>
   </rdf:RDF>
</x:xmpmeta>
                                                                                                    
                                                                                                    
                                                                                                    
                                                                                                    
                                                                                                    
                                                                                                    
                                                                                                    
                                                                                                    
                                                                                                    
                                                                                                    
                                                                                                    
                                                                                                    
                                                                                                    
                                                                                                    
                                                                                                    
                                                                                                    
                                                                                                    
                                                                                                    
                                                                                                    
                                                                                                    
                           
<?xpacket end="w"?></metadata>
<style type="text/css">
	.st0{fill:none;}
	.st1{fill:#5B554D;}
</style>
<rect class="st0" width="64" height="64"/>
<g>
	<g>
		<g>
			<path class="st1" d="M32.1,58.6c-0.8,0-1.8-0.3-3.1-1.5L16.6,46c-0.6-0.5-1.2-1.2-1.8-2.1H5.5C3,44,1,41.9,1,39.4V24.6
				C1,22.1,3,20,5.5,20h9.2c0.6-0.8,1.2-1.5,1.8-2.1L29,6.8l0,0c2-1.8,3.5-1.5,4.1-1.2C33.8,5.9,35,6.8,35,9.5v45.1
				c0,2.7-1.2,3.6-1.9,3.9C32.9,58.5,32.5,58.6,32.1,58.6z M5.5,21.8c-1.5,0-2.8,1.2-2.8,2.8v14.9c0,1.5,1.2,2.8,2.8,2.8h9.7
				c0.3,0,0.6,0.1,0.7,0.4c0.6,0.9,1.2,1.6,1.7,2.1l12.4,11.2c0.9,0.8,1.7,1.2,2.2,0.9c0.5-0.2,0.8-1.1,0.8-2.3V9.5
				c0-1.2-0.3-2.1-0.8-2.3C31.9,7,31,7.3,30.1,8.1L17.7,19.3c-0.6,0.5-1.2,1.2-1.8,2.1c-0.2,0.2-0.4,0.4-0.7,0.4H5.5z"/>
		</g>
	</g>
	<g>
		<g>
			<path class="st1" d="M62.1,41.7c-0.2,0-0.5-0.1-0.6-0.3L43.9,23.8c-0.3-0.3-0.3-0.9,0-1.2c0.3-0.3,0.9-0.3,1.2,0l17.6,17.6
				c0.3,0.3,0.3,0.9,0,1.2C62.6,41.6,62.3,41.7,62.1,41.7z"/>
		</g>
		<g>
			<path class="st1" d="M44.5,41.7c-0.2,0-0.5-0.1-0.6-0.3c-0.3-0.3-0.3-0.9,0-1.2l17.6-17.6c0.3-0.3,0.9-0.3,1.2,0
				c0.3,0.3,0.3,0.9,0,1.2L45.2,41.4C45,41.6,44.8,41.7,44.5,41.7z"/>
		</g>
	</g>
</g>
</svg>
