<?xml version="1.0" encoding="utf-8"?>
<!-- Generator: Adobe Illustrator 19.2.1, SVG Export Plug-In . SVG Version: 6.00 Build 0)  -->
<svg version="1.1" id="Layer_1" xmlns="http://www.w3.org/2000/svg" xmlns:xlink="http://www.w3.org/1999/xlink" x="0px" y="0px"
	 viewBox="0 0 64 64" style="enable-background:new 0 0 64 64;" xml:space="preserve">
<metadata><?xpacket begin="﻿" id="W5M0MpCehiHzreSzNTczkc9d"?>
<x:xmpmeta xmlns:x="adobe:ns:meta/" x:xmptk="Adobe XMP Core 5.6-c111 79.158366, 2015/09/25-01:12:00        ">
   <rdf:RDF xmlns:rdf="http://www.w3.org/1999/02/22-rdf-syntax-ns#">
      <rdf:Description rdf:about=""/>
   </rdf:RDF>
</x:xmpmeta>
                                                                                                    
                                                                                                    
                                                                                                    
                                                                                                    
                                                                                                    
                                                                                                    
                                                                                                    
                                                                                                    
                                                                                                    
                                                                                                    
                                                                                                    
                                                                                                    
                                                                                                    
                                                                                                    
                                                                                                    
                                                                                                    
                                                                                                    
                                                                                                    
                                                                                                    
                                                                                                    
                           
<?xpacket end="w"?></metadata>
<style type="text/css">
	.st0{fill:none;}
	.st1{fill:#5B554D;}
</style>
<rect class="st0" width="64" height="64"/>
<g>
	<g>
		<path class="st1" d="M30.5,57.3c-0.7,0-1.7-0.3-2.9-1.4L15.8,45.3c-0.6-0.5-1.1-1.2-1.7-2H5.3c-2.4,0-4.3-1.9-4.3-4.3V24.9
			c0-2.4,1.9-4.3,4.3-4.3h8.8c0.6-0.8,1.1-1.4,1.7-2L27.6,8c1.9-1.7,3.3-1.5,3.9-1.2c0.7,0.3,1.8,1.2,1.8,3.7v42.8
			c0,2.5-1.1,3.4-1.8,3.7C31.3,57.2,31,57.3,30.5,57.3z M5.3,22.3c-1.5,0-2.6,1.2-2.6,2.6v14.1c0,1.4,1.2,2.6,2.6,2.6h9.2
			c0.3,0,0.5,0.1,0.7,0.4c0.6,0.8,1.1,1.5,1.7,2l11.8,10.6c0.9,0.8,1.7,1.1,2.1,0.9c0.5-0.2,0.8-1,0.8-2.2V10.6c0-1.2-0.3-2-0.8-2.2
			c-0.5-0.2-1.3,0.1-2.1,0.9c0,0,0,0,0,0L16.9,19.9c-0.5,0.5-1.1,1.2-1.7,2c-0.2,0.2-0.4,0.4-0.7,0.4H5.3z M28.1,8.7L28.1,8.7
			L28.1,8.7z"/>
	</g>
	<g>
		<path class="st1" d="M55.5,56c-0.2,0-0.3,0-0.5-0.1c-0.4-0.2-0.5-0.8-0.3-1.2c8.7-13.6,8.7-31.2,0-44.7c-0.2-0.4-0.1-0.9,0.3-1.2
			c0.4-0.3,0.9-0.1,1.2,0.3c9.1,14.1,9.1,32.4,0,46.6C56,55.9,55.8,56,55.5,56z M49.7,47.8c-0.1,0-0.3,0-0.4-0.1
			c-0.4-0.2-0.5-0.8-0.3-1.1c5.2-8.8,5.2-19.7,0-28.4c-0.2-0.4-0.1-0.9,0.3-1.1c0.4-0.2,0.9-0.1,1.1,0.3c5.5,9.3,5.5,20.8,0,30.1
			C50.3,47.7,50,47.8,49.7,47.8z M42.2,43.9c-0.1,0-0.3,0-0.4-0.1c-0.4-0.2-0.5-0.8-0.3-1.1c3.8-6.4,3.8-14.3,0-20.7
			c-0.2-0.4-0.1-0.9,0.3-1.1c0.4-0.2,0.9-0.1,1.1,0.3c4.1,6.9,4.1,15.5,0,22.4C42.8,43.8,42.5,43.9,42.2,43.9z"/>
	</g>
</g>
</svg>
