<?xml version="1.0" encoding="utf-8"?>
<!-- Generator: Adobe Illustrator 19.2.1, SVG Export Plug-In . SVG Version: 6.00 Build 0)  -->
<svg version="1.1" id="Layer_1" xmlns="http://www.w3.org/2000/svg" xmlns:xlink="http://www.w3.org/1999/xlink" x="0px" y="0px"
	 viewBox="0 0 64 64" style="enable-background:new 0 0 64 64;" xml:space="preserve">
<metadata><?xpacket begin="﻿" id="W5M0MpCehiHzreSzNTczkc9d"?>
<x:xmpmeta xmlns:x="adobe:ns:meta/" x:xmptk="Adobe XMP Core 5.6-c111 79.158366, 2015/09/25-01:12:00        ">
   <rdf:RDF xmlns:rdf="http://www.w3.org/1999/02/22-rdf-syntax-ns#">
      <rdf:Description rdf:about=""/>
   </rdf:RDF>
</x:xmpmeta>
                                                                                                    
                                                                                                    
                                                                                                    
                                                                                                    
                                                                                                    
                                                                                                    
                                                                                                    
                                                                                                    
                                                                                                    
                                                                                                    
                                                                                                    
                                                                                                    
                                                                                                    
                                                                                                    
                                                                                                    
                                                                                                    
                                                                                                    
                                                                                                    
                                                                                                    
                                                                                                    
                           
<?xpacket end="w"?></metadata>
<style type="text/css">
	.st0{fill:none;}
	.st1{fill:#5B554D;}
</style>
<rect class="st0" width="64" height="64"/>
<g>
	<g>
		<path class="st1" d="M49.8,2.7c2.3,0,4.2,1.9,4.2,4.2v50.3c0,2.3-1.9,4.2-4.2,4.2H14.2c-2.3,0-4.2-1.9-4.2-4.2V6.8
			c0-2.3,1.9-4.2,4.2-4.2H49.8 M49.8,1H14.2C11,1,8.4,3.6,8.4,6.8v50.3c0,3.2,2.6,5.8,5.8,5.8h35.6c3.2,0,5.8-2.6,5.8-5.8V6.8
			C55.6,3.6,53,1,49.8,1L49.8,1z"/>
	</g>
	<g>
		<path class="st1" d="M32,57.4c-9.2,0-16.7-7.5-16.7-16.7c0-9.2,7.5-16.7,16.7-16.7c9.2,0,16.7,7.5,16.7,16.7
			C48.7,49.9,41.2,57.4,32,57.4z M32,25.6c-8.3,0-15.1,6.8-15.1,15.1c0,8.3,6.8,15.1,15.1,15.1c8.3,0,15.1-6.8,15.1-15.1
			C47.1,32.3,40.3,25.6,32,25.6z"/>
	</g>
	<g>
		<path class="st1" d="M32,21.2c-3.9,0-7.1-3.2-7.1-7.1s3.2-7.1,7.1-7.1s7.1,3.2,7.1,7.1S35.9,21.2,32,21.2z M32,8.7
			c-3,0-5.4,2.4-5.4,5.4s2.4,5.4,5.4,5.4s5.4-2.4,5.4-5.4S35,8.7,32,8.7z"/>
	</g>
	<g>
		<path class="st1" d="M32,48.1c-4.1,0-7.5-3.4-7.5-7.5c0-4.1,3.4-7.5,7.5-7.5s7.5,3.4,7.5,7.5C39.5,44.8,36.1,48.1,32,48.1z
			 M32,34.8c-3.2,0-5.8,2.6-5.8,5.8c0,3.2,2.6,5.8,5.8,5.8s5.8-2.6,5.8-5.8C37.8,37.4,35.2,34.8,32,34.8z"/>
	</g>
</g>
</svg>
