<?xml version="1.0" encoding="utf-8"?>
<!-- Generator: Adobe Illustrator 19.2.1, SVG Export Plug-In . SVG Version: 6.00 Build 0)  -->
<svg version="1.1" id="Layer_1" xmlns="http://www.w3.org/2000/svg" xmlns:xlink="http://www.w3.org/1999/xlink" x="0px" y="0px"
	 viewBox="0 0 64 64" style="enable-background:new 0 0 64 64;" xml:space="preserve">
<metadata><?xpacket begin="﻿" id="W5M0MpCehiHzreSzNTczkc9d"?>
<x:xmpmeta xmlns:x="adobe:ns:meta/" x:xmptk="Adobe XMP Core 5.6-c111 79.158366, 2015/09/25-01:12:00        ">
   <rdf:RDF xmlns:rdf="http://www.w3.org/1999/02/22-rdf-syntax-ns#">
      <rdf:Description rdf:about=""/>
   </rdf:RDF>
</x:xmpmeta>
                                                                                                    
                                                                                                    
                                                                                                    
                                                                                                    
                                                                                                    
                                                                                                    
                                                                                                    
                                                                                                    
                                                                                                    
                                                                                                    
                                                                                                    
                                                                                                    
                                                                                                    
                                                                                                    
                                                                                                    
                                                                                                    
                                                                                                    
                                                                                                    
                                                                                                    
                                                                                                    
                           
<?xpacket end="w"?></metadata>
<style type="text/css">
	.st0{fill:none;}
	.st1{fill:#5B554D;}
</style>
<rect class="st0" width="64" height="64"/>
<g>
	<path class="st1" d="M29.1,57.4c-0.1,0-0.2,0-0.4,0c-0.3,0-0.6-0.3-0.7-0.6c-0.1-0.3,0.1-0.7,0.3-0.9c2.6-1.6,6.7-5.8,7.2-8.8
		c0.1-0.4,0.1-0.8,0-1.1c-3,1.6-9,1.7-14,0.2c-4.7-1.5-8-4.1-9.4-7.5c-4.5,1.5-7.9-0.6-9.6-3.2c-2.1-3.1-2.5-8,0.2-11.1
		c-2.5-4.8-0.6-9,1.9-11.3c2.8-2.5,6.4-3.1,9.4-1.6c0.2-2,1.8-3.5,4.4-4.3c4.9-1.5,13.3-0.3,16.3,4.2c3.5-4.3,11.2-4.3,16.9-1.4
		c4.1,2.1,6,5.3,5.1,8.4c1.9,0.2,3.5,1.2,4.5,2.9c2,3.1,2,8.2,0,11.8c-1.4,2.4-3.4,3.8-5.9,4c0.1,2-0.5,3.7-1.6,5.1
		c-1.9,2.2-5.1,3.4-9.3,3.6C41.9,50.2,34.8,57.4,29.1,57.4z M36,44c0,0,0.1,0,0.1,0c0.2,0,0.4,0.1,0.5,0.3c0.6,0.8,0.8,1.9,0.6,3.1
		c-0.5,2.5-2.9,5.6-5.3,7.8c4.4-1.7,9.5-6.8,11.7-10.5c0.1-0.2,0.4-0.4,0.7-0.4c3.8-0.1,6.9-1.2,8.5-3c1.1-1.2,1.5-2.8,1.2-4.7
		c0-0.2,0-0.5,0.2-0.6c0.2-0.2,0.3-0.3,0.6-0.3c2.9,0.1,4.5-1.7,5.3-3.2c1.7-3.1,1.8-7.5,0.1-10.1c-0.7-1.1-2-2.3-4.3-2.1
		c-0.3,0-0.6-0.1-0.7-0.3c-0.2-0.2-0.2-0.5-0.1-0.8c2-4-2.6-6.7-4-7.4C45.7,8.7,38,8.8,35.5,13.4c-0.1,0.3-0.4,0.4-0.7,0.4
		c-0.3,0-0.6-0.2-0.7-0.5c-1.6-4.2-9.8-6.1-15-4.6c-1.8,0.5-3.8,1.7-3.2,4.1c0.1,0.3-0.1,0.7-0.3,0.8c-0.3,0.2-0.6,0.2-0.9,0
		c-2.9-2.2-6.5-1.2-8.7,0.7c-2.2,1.9-3.8,5.7-1.3,9.8c0.2,0.3,0.1,0.7-0.1,1c-2.6,2.4-2.2,6.7-0.4,9.5c0.9,1.4,3.6,4.4,8.4,2.3
		c0.2-0.1,0.4-0.1,0.6,0c0.2,0.1,0.4,0.3,0.4,0.5c1.3,4.4,5.9,6.4,8.6,7.2c5.6,1.7,11.4,1.2,13.4-0.4C35.6,44.1,35.8,44,36,44z"/>
</g>
</svg>
