<?xml version="1.0" encoding="utf-8"?>
<!-- Generator: Adobe Illustrator 19.2.1, SVG Export Plug-In . SVG Version: 6.00 Build 0)  -->
<svg version="1.1" id="Layer_1" xmlns="http://www.w3.org/2000/svg" xmlns:xlink="http://www.w3.org/1999/xlink" x="0px" y="0px"
	 viewBox="0 0 64 64" style="enable-background:new 0 0 64 64;" xml:space="preserve">
<metadata><?xpacket begin="﻿" id="W5M0MpCehiHzreSzNTczkc9d"?>
<x:xmpmeta xmlns:x="adobe:ns:meta/" x:xmptk="Adobe XMP Core 5.6-c111 79.158366, 2015/09/25-01:12:00        ">
   <rdf:RDF xmlns:rdf="http://www.w3.org/1999/02/22-rdf-syntax-ns#">
      <rdf:Description rdf:about=""/>
   </rdf:RDF>
</x:xmpmeta>
                                                                                                    
                                                                                                    
                                                                                                    
                                                                                                    
                                                                                                    
                                                                                                    
                                                                                                    
                                                                                                    
                                                                                                    
                                                                                                    
                                                                                                    
                                                                                                    
                                                                                                    
                                                                                                    
                                                                                                    
                                                                                                    
                                                                                                    
                                                                                                    
                                                                                                    
                                                                                                    
                           
<?xpacket end="w"?></metadata>
<style type="text/css">
	.st0{fill:none;}
	.st1{fill:#5B554D;}
</style>
<rect class="st0" width="64" height="64"/>
<g>
	<g>
		<path class="st1" d="M58.1,50.9c-2.7,0-7.7-0.7-11.5-5.1c-0.3,0-0.6,0.1-0.9,0.2c-0.9,0.2-1.8,0.3-2.7,0.3c-2.9,0-5.7-0.5-8.1-1.4
			c-0.3-0.1-0.5-0.5-0.4-0.8c0.1-0.3,0.5-0.5,0.8-0.4c2.3,0.9,4.9,1.3,7.7,1.3c0.8,0,1.7-0.2,2.5-0.3c0.4-0.1,0.9-0.2,1.3-0.2
			c0.2,0,0.5,0.1,0.6,0.2c3.2,4,7.6,4.8,10.2,4.9c-3-2.1-3.4-4.6-3.4-5.4c0-1,0.3-1.9,0.8-2.2c4.3-2.5,6.7-6.3,6.7-10.3
			c0-7.4-8.4-13.4-18.6-13.4c-0.7,0-1.3,0-1.9,0.1c-0.3,0-0.7-0.2-0.7-0.6c0-0.4,0.2-0.7,0.6-0.7c0.7-0.1,1.4-0.1,2-0.1
			c11,0,19.9,6.6,19.9,14.7c0,4.5-2.7,8.7-7.3,11.4c-0.1,0.1-0.3,0.5-0.2,1.3c0.1,0.7,0.7,3.3,4.6,5.2c0.3,0.1,0.4,0.4,0.4,0.7
			c0,0.3-0.3,0.5-0.5,0.5C59.8,50.8,59.2,50.9,58.1,50.9z"/>
	</g>
	<g>
		<path class="st1" d="M6.3,50.3c-1.1,0-1.9-0.1-2-0.1c-0.3,0-0.5-0.3-0.5-0.5c0-0.3,0.1-0.5,0.4-0.7c4.5-2.1,5.1-5.1,5.1-5.9
			c0.1-0.8-0.2-1.3-0.3-1.3c-5.1-3-8-7.6-8-12.5c0-8.9,9.8-16.1,21.9-16.1c11.6,0,19.7,6.6,19.7,16.1c0,9.4-8.1,16-19.7,16
			c-1,0-2-0.2-2.9-0.4c-0.3-0.1-0.7-0.1-1-0.2C14.8,49.5,9.2,50.3,6.3,50.3z M22.9,14.3C11.5,14.3,2.3,21,2.3,29.1
			c0,4.5,2.7,8.7,7.4,11.4c0.6,0.4,0.9,1.2,0.9,2.4c0,0.9-0.5,3.7-3.9,6c2.8-0.1,7.9-0.9,11.5-5.5c0.1-0.2,0.4-0.3,0.6-0.2
			c0.5,0.1,0.9,0.2,1.4,0.3c0.9,0.2,1.8,0.4,2.7,0.4c10.9,0,18.4-6.1,18.4-14.7C41.3,20.4,33.7,14.3,22.9,14.3z"/>
	</g>
</g>
</svg>
