<?xml version="1.0" encoding="utf-8"?>
<!-- Generator: Adobe Illustrator 19.2.1, SVG Export Plug-In . SVG Version: 6.00 Build 0)  -->
<svg version="1.1" id="Layer_1" xmlns="http://www.w3.org/2000/svg" xmlns:xlink="http://www.w3.org/1999/xlink" x="0px" y="0px"
	 viewBox="0 0 64 64" style="enable-background:new 0 0 64 64;" xml:space="preserve">
<metadata><?xpacket begin="﻿" id="W5M0MpCehiHzreSzNTczkc9d"?>
<x:xmpmeta xmlns:x="adobe:ns:meta/" x:xmptk="Adobe XMP Core 5.6-c111 79.158366, 2015/09/25-01:12:00        ">
   <rdf:RDF xmlns:rdf="http://www.w3.org/1999/02/22-rdf-syntax-ns#">
      <rdf:Description rdf:about=""/>
   </rdf:RDF>
</x:xmpmeta>
                                                                                                    
                                                                                                    
                                                                                                    
                                                                                                    
                                                                                                    
                                                                                                    
                                                                                                    
                                                                                                    
                                                                                                    
                                                                                                    
                                                                                                    
                                                                                                    
                                                                                                    
                                                                                                    
                                                                                                    
                                                                                                    
                                                                                                    
                                                                                                    
                                                                                                    
                                                                                                    
                           
<?xpacket end="w"?></metadata>
<style type="text/css">
	.st0{fill:none;}
	.st1{fill:#5B554D;}
</style>
<rect class="st0" width="64" height="64"/>
<g>
	<g>
		<path class="st1" d="M13.4,63c-0.1,0-0.3,0-0.4-0.1c-0.3-0.1-0.5-0.5-0.5-0.8V45H5.5c-2.3-0.1-4.2-1.9-4.2-4.2V5.2
			c0-2.3,1.8-4.2,4.1-4.2l52.8,0l0,0c2.3,0,4.2,1.9,4.2,4.2v35.6c0,2.3-1.9,4.2-4.2,4.2l-24.4,0L14,62.8C13.8,62.9,13.6,63,13.4,63z
			 M13.4,43.2c0.5,0,0.9,0.4,0.9,0.9V60L33,43.4c0.2-0.2,0.4-0.2,0.6-0.2l24.7,0c1.3,0,2.4-1.1,2.4-2.4V5.2c0-1.3-1.1-2.4-2.4-2.4
			l-52.8,0c-1.3,0-2.3,1.1-2.3,2.4v35.6c0,1.3,1,2.3,2.3,2.4H13.4z"/>
	</g>
	<g>
		<circle class="st1" cx="18.1" cy="24.7" r="4.4"/>
		<circle class="st1" cx="32.4" cy="24.7" r="4.4"/>
		<circle class="st1" cx="46.7" cy="24.7" r="4.4"/>
	</g>
</g>
</svg>
