<?xml version="1.0" encoding="utf-8"?>
<!-- Generator: Adobe Illustrator 19.2.1, SVG Export Plug-In . SVG Version: 6.00 Build 0)  -->
<svg version="1.1" id="Layer_1" xmlns="http://www.w3.org/2000/svg" xmlns:xlink="http://www.w3.org/1999/xlink" x="0px" y="0px"
	 viewBox="0 0 64 64" style="enable-background:new 0 0 64 64;" xml:space="preserve">
<metadata><?xpacket begin="﻿" id="W5M0MpCehiHzreSzNTczkc9d"?>
<x:xmpmeta xmlns:x="adobe:ns:meta/" x:xmptk="Adobe XMP Core 5.6-c111 79.158366, 2015/09/25-01:12:00        ">
   <rdf:RDF xmlns:rdf="http://www.w3.org/1999/02/22-rdf-syntax-ns#">
      <rdf:Description rdf:about=""/>
   </rdf:RDF>
</x:xmpmeta>
                                                                                                    
                                                                                                    
                                                                                                    
                                                                                                    
                                                                                                    
                                                                                                    
                                                                                                    
                                                                                                    
                                                                                                    
                                                                                                    
                                                                                                    
                                                                                                    
                                                                                                    
                                                                                                    
                                                                                                    
                                                                                                    
                                                                                                    
                                                                                                    
                                                                                                    
                                                                                                    
                           
<?xpacket end="w"?></metadata>
<style type="text/css">
	.st0{fill:none;}
	.st1{fill:#5B554D;}
</style>
<rect class="st0" width="64" height="64"/>
<g>
	<g>
		<path class="st1" d="M32,61.5c-0.3,0-0.6-0.1-0.8-0.4l-10-14H5.2c-2.4-0.1-4.2-2-4.2-4.3V6.8c0-2.3,1.8-4.2,4.2-4.3l53.5,0l0,0
			c2.4,0,4.3,1.9,4.3,4.3v36.1c0,2.4-1.9,4.3-4.3,4.3h-16l-10,14C32.6,61.4,32.3,61.5,32,61.5z M21.8,45.3c0.3,0,0.6,0.1,0.8,0.4
			L32,59l9.5-13.3c0.2-0.2,0.5-0.4,0.8-0.4h16.5c1.3,0,2.4-1.1,2.4-2.4V6.8c0-1.3-1.1-2.4-2.4-2.4l-53.5,0c-1.3,0-2.3,1.1-2.3,2.4
			v36.1c0,1.3,1,2.4,2.4,2.4H21.8z"/>
	</g>
	<g>
		<circle class="st1" cx="17.5" cy="26.5" r="4.4"/>
		<circle class="st1" cx="32" cy="26.5" r="4.4"/>
		<circle class="st1" cx="46.5" cy="26.5" r="4.4"/>
	</g>
</g>
</svg>
