<?xml version="1.0" encoding="utf-8"?>
<!-- Generator: Adobe Illustrator 19.2.1, SVG Export Plug-In . SVG Version: 6.00 Build 0)  -->
<svg version="1.1" id="Layer_1" xmlns="http://www.w3.org/2000/svg" xmlns:xlink="http://www.w3.org/1999/xlink" x="0px" y="0px"
	 viewBox="0 0 64 64" style="enable-background:new 0 0 64 64;" xml:space="preserve">
<metadata><?xpacket begin="﻿" id="W5M0MpCehiHzreSzNTczkc9d"?>
<x:xmpmeta xmlns:x="adobe:ns:meta/" x:xmptk="Adobe XMP Core 5.6-c111 79.158366, 2015/09/25-01:12:00        ">
   <rdf:RDF xmlns:rdf="http://www.w3.org/1999/02/22-rdf-syntax-ns#">
      <rdf:Description rdf:about=""/>
   </rdf:RDF>
</x:xmpmeta>
                                                                                                    
                                                                                                    
                                                                                                    
                                                                                                    
                                                                                                    
                                                                                                    
                                                                                                    
                                                                                                    
                                                                                                    
                                                                                                    
                                                                                                    
                                                                                                    
                                                                                                    
                                                                                                    
                                                                                                    
                                                                                                    
                                                                                                    
                                                                                                    
                                                                                                    
                                                                                                    
                           
<?xpacket end="w"?></metadata>
<style type="text/css">
	.st0{fill:none;}
	.st1{fill:#5B554D;}
</style>
<rect class="st0" width="64" height="64"/>
<g>
	<path class="st1" d="M13.8,63c-0.5,0-1-0.1-1.4-0.4c-0.8-0.6-1.1-1.6-0.9-2.7l1.9-15.4c0.2-1.5-0.6-3.8-1.6-4.8L1.1,28.3
		c-0.8-0.9-1.1-1.9-0.8-2.8c0.3-0.9,1.1-1.5,2.3-1.7L18,20.9c1.5-0.3,3.4-1.6,4.1-3l9.1-16.4C31.4,1.2,31.7,1,32,1l0,0
		c0.3,0,0.6,0.2,0.8,0.5l9.1,16.4c0.7,1.3,2.6,2.7,4.1,3l15.4,2.9c1.6,0.3,2.1,1.2,2.3,1.8c0.2,0.5,0.3,1.6-0.9,2.8L52.2,39.6
		c-1,1.1-1.8,3.3-1.6,4.8l1.9,15.4c0.2,1.2-0.2,2.2-0.9,2.7c-0.8,0.6-1.8,0.6-2.9,0.1l-14.2-6.6c-1.4-0.6-3.7-0.6-5.1,0l-14.2,6.6
		C14.8,62.9,14.3,63,13.8,63z M32,3.8l-8.3,15c-1,1.8-3.4,3.5-5.4,3.9L2.9,25.6c-0.5,0.1-0.8,0.3-0.9,0.5C2,26.3,2.1,26.7,2.5,27
		l10.7,11.3c1.4,1.5,2.3,4.3,2.1,6.3l-1.9,15.4c-0.1,0.5,0,0.9,0.2,1c0.2,0.1,0.6,0.1,1-0.1l14.2-6.6c1.9-0.9,4.8-0.9,6.7,0L49.5,61
		c0.4,0.2,0.8,0.3,1,0.1c0.2-0.1,0.3-0.5,0.2-1l-1.9-15.4c-0.3-2,0.7-4.8,2.1-6.3L61.5,27c0,0,0,0,0,0c0.4-0.4,0.5-0.8,0.4-0.9
		c-0.1-0.2-0.3-0.4-0.9-0.5l-15.3-2.9c-2-0.4-4.4-2.1-5.4-3.9L32,3.8z"/>
</g>
</svg>
