<?xml version="1.0" encoding="utf-8"?>
<!-- Generator: Adobe Illustrator 19.2.1, SVG Export Plug-In . SVG Version: 6.00 Build 0)  -->
<svg version="1.1" id="Layer_1" xmlns="http://www.w3.org/2000/svg" xmlns:xlink="http://www.w3.org/1999/xlink" x="0px" y="0px"
	 viewBox="0 0 64 64" style="enable-background:new 0 0 64 64;" xml:space="preserve">
<metadata><?xpacket begin="﻿" id="W5M0MpCehiHzreSzNTczkc9d"?>
<x:xmpmeta xmlns:x="adobe:ns:meta/" x:xmptk="Adobe XMP Core 5.6-c111 79.158366, 2015/09/25-01:12:00        ">
   <rdf:RDF xmlns:rdf="http://www.w3.org/1999/02/22-rdf-syntax-ns#">
      <rdf:Description rdf:about=""/>
   </rdf:RDF>
</x:xmpmeta>
                                                                                                    
                                                                                                    
                                                                                                    
                                                                                                    
                                                                                                    
                                                                                                    
                                                                                                    
                                                                                                    
                                                                                                    
                                                                                                    
                                                                                                    
                                                                                                    
                                                                                                    
                                                                                                    
                                                                                                    
                                                                                                    
                                                                                                    
                                                                                                    
                                                                                                    
                                                                                                    
                           
<?xpacket end="w"?></metadata>
<style type="text/css">
	.st0{fill:none;}
	.st1{fill:#5B554D;}
</style>
<rect class="st0" width="64" height="64"/>
<g>
	<g>
		<path class="st1" d="M32,30.1c-0.5,0-0.9-0.4-0.9-0.9V17.6c0-0.5,0.4-0.9,0.9-0.9c0.5,0,0.9,0.4,0.9,0.9v11.5
			C32.9,29.6,32.5,30.1,32,30.1z"/>
	</g>
	<circle class="st1" cx="32" cy="33.3" r="3.7"/>
	<g>
		<path class="st1" d="M32,1c-1.2,0-2.2,1-2.2,2.2v2.7l4.5,0V3.2C34.2,2,33.2,1,32,1z"/>
		<g>
			<path class="st1" d="M32,63C16,63,2.9,49.9,2.9,33.9S16,4.8,32,4.8c16,0,29.1,13.1,29.1,29.1S48,63,32,63z M32,6.7
				C17,6.7,4.8,18.9,4.8,33.9S17,61.1,32,61.1s27.2-12.2,27.2-27.2S47,6.7,32,6.7z"/>
		</g>
		<g>
			<g>
				<path class="st1" d="M54.7,9.6c-0.2,0-0.5-0.1-0.7-0.3l-6.2-6.2c-0.4-0.4-0.4-1,0-1.3c0.4-0.4,1-0.4,1.3,0L55.4,8
					c0.4,0.4,0.4,1,0,1.3C55.2,9.6,55,9.6,54.7,9.6z"/>
			</g>
			<g>
				<path class="st1" d="M47.2,11c-0.2,0-0.5-0.1-0.7-0.3c-0.4-0.4-0.4-1,0-1.3L51,5c0.4-0.4,1-0.4,1.3,0c0.4,0.4,0.4,1,0,1.3
					l-4.4,4.4C47.7,10.9,47.4,11,47.2,11z"/>
			</g>
		</g>
		<g>
			<g>
				<path class="st1" d="M8.7,9.6C8.4,9.6,8.2,9.6,8,9.4C7.6,9,7.6,8.4,8,8l6.2-6.2c0.4-0.4,1-0.4,1.3,0c0.4,0.4,0.4,1,0,1.3
					L9.3,9.4C9.2,9.6,8.9,9.6,8.7,9.6z"/>
			</g>
			<g>
				<path class="st1" d="M16.4,11.2c-0.2,0-0.5-0.1-0.7-0.3l-4.7-4.7c-0.4-0.4-0.4-1,0-1.3c0.4-0.4,1-0.4,1.3,0l4.7,4.7
					c0.4,0.4,0.4,1,0,1.3C16.9,11.1,16.7,11.2,16.4,11.2z"/>
			</g>
		</g>
	</g>
</g>
</svg>
