<?xml version="1.0" encoding="utf-8"?>
<!-- Generator: Adobe Illustrator 19.2.1, SVG Export Plug-In . SVG Version: 6.00 Build 0)  -->
<svg version="1.1" id="Layer_1" xmlns="http://www.w3.org/2000/svg" xmlns:xlink="http://www.w3.org/1999/xlink" x="0px" y="0px"
	 viewBox="0 0 64 64" style="enable-background:new 0 0 64 64;" xml:space="preserve">
<metadata><?xpacket begin="﻿" id="W5M0MpCehiHzreSzNTczkc9d"?>
<x:xmpmeta xmlns:x="adobe:ns:meta/" x:xmptk="Adobe XMP Core 5.6-c111 79.158366, 2015/09/25-01:12:00        ">
   <rdf:RDF xmlns:rdf="http://www.w3.org/1999/02/22-rdf-syntax-ns#">
      <rdf:Description rdf:about=""/>
   </rdf:RDF>
</x:xmpmeta>
                                                                                                    
                                                                                                    
                                                                                                    
                                                                                                    
                                                                                                    
                                                                                                    
                                                                                                    
                                                                                                    
                                                                                                    
                                                                                                    
                                                                                                    
                                                                                                    
                                                                                                    
                                                                                                    
                                                                                                    
                                                                                                    
                                                                                                    
                                                                                                    
                                                                                                    
                                                                                                    
                           
<?xpacket end="w"?></metadata>
<style type="text/css">
	.st0{fill:none;}
	.st1{fill:#5B554D;}
</style>
<rect class="st0" width="64" height="64"/>
<g>
	<g id="Shape_6">
		<g>
			<path class="st1" d="M7.1,54c-0.4,0-0.7-0.3-0.7-0.7V27.4c0-0.4,0.3-0.7,0.7-0.7s0.7,0.3,0.7,0.7v25.8C7.8,53.7,7.5,54,7.1,54z"
				/>
		</g>
		<g>
			<path class="st1" d="M55.9,54c-0.4,0-0.7-0.3-0.7-0.7V27.5c0-0.4,0.3-0.7,0.7-0.7s0.7,0.3,0.7,0.7v25.7
				C56.6,53.7,56.3,54,55.9,54z"/>
		</g>
	</g>
	<g id="Shape_11_copy">
		<g>
			<path class="st1" d="M22.8,54.3H10.3c-0.4,0-0.7-0.3-0.7-0.7V27c0-0.4,0.3-0.7,0.7-0.7S11,26.6,11,27v25.8h11.1V27
				c0-0.4,0.3-0.7,0.7-0.7c0.4,0,0.7,0.3,0.7,0.7v26.5C23.6,54,23.2,54.3,22.8,54.3z"/>
		</g>
	</g>
	<g id="Shape_8_copy_2">
		<g>
			<path class="st1" d="M50.2,50.9H37c-0.6,0-1.1-0.5-1.1-1.1V31c0-0.6,0.5-1.1,1.1-1.1h13.2c0.6,0,1.1,0.5,1.1,1.1v18.8
				C51.3,50.4,50.8,50.9,50.2,50.9z M37.4,49.4h12.4v-18H37.4V49.4z M50.2,31.4L50.2,31.4L50.2,31.4z"/>
		</g>
	</g>
	<g id="Shape_3">
		<g>
			<path class="st1" d="M6,28.2H5.8c-2.1,0-3.8-1.7-3.8-3.8v-0.2c0-0.4,0.3-0.7,0.7-0.7H9c0.4,0,0.7,0.3,0.7,0.7v0.2
				C9.8,26.5,8.1,28.2,6,28.2z M3.5,24.9c0.2,1.1,1.2,1.8,2.3,1.8H6c1.1,0,2.1-0.8,2.3-1.8H3.5z"/>
		</g>
	</g>
	<g id="Shape_3_copy">
		<g>
			<path class="st1" d="M18.6,28.1h-0.2c-2.1,0-3.8-1.7-3.8-3.8V24c0-0.4,0.3-0.7,0.7-0.7h6.3c0.4,0,0.7,0.3,0.7,0.7v0.2
				C22.5,26.4,20.7,28.1,18.6,28.1z M16.2,24.8c0.2,1.1,1.2,1.8,2.3,1.8h0.2c1.1,0,2.1-0.8,2.3-1.8H16.2z"/>
		</g>
	</g>
	<g id="Shape_3_copy_2">
		<g>
			<path class="st1" d="M31.3,28.2h-0.2c-2.1,0-3.8-1.7-3.8-3.8v-0.2c0-0.4,0.3-0.7,0.7-0.7h6.3c0.4,0,0.7,0.3,0.7,0.7v0.2
				C35.1,26.5,33.4,28.2,31.3,28.2z M28.9,24.9c0.2,1.1,1.2,1.8,2.3,1.8h0.2c1.1,0,2.1-0.8,2.3-1.8H28.9z"/>
		</g>
	</g>
	<g id="Shape_3_copy_3">
		<g>
			<path class="st1" d="M44,28.2h-0.2c-2.1,0-3.8-1.7-3.8-3.8v-0.2c0-0.4,0.3-0.7,0.7-0.7H47c0.4,0,0.7,0.3,0.7,0.7v0.2
				C47.8,26.5,46.1,28.2,44,28.2z M41.5,24.9c0.2,1.1,1.2,1.8,2.3,1.8H44c1.1,0,2.1-0.8,2.3-1.8H41.5z"/>
		</g>
	</g>
	<g id="Shape_3_copy_4">
		<g>
			<path class="st1" d="M56.7,28.1h-0.2c-2.1,0-3.8-1.7-3.8-3.8V24c0-0.4,0.3-0.7,0.7-0.7h6.3c0.4,0,0.7,0.3,0.7,0.7v0.2
				C60.5,26.4,58.8,28.1,56.7,28.1z M54.2,24.8c0.2,1.1,1.2,1.8,2.3,1.8h0.2c1.1,0,2.1-0.8,2.3-1.8H54.2z"/>
		</g>
	</g>
	<g id="Shape_3_copy_5">
		<g>
			<path class="st1" d="M50.3,28.1h-0.2c-2.1,0-3.8-1.7-3.8-3.8V24c0-0.4,0.3-0.7,0.7-0.7h6.3c0.4,0,0.7,0.3,0.7,0.7v0.2
				C54.1,26.4,52.4,28.1,50.3,28.1z M47.8,24.8c0.2,1.1,1.2,1.8,2.3,1.8h0.2c1.1,0,2.1-0.8,2.3-1.8H47.8z"/>
		</g>
	</g>
	<g id="Shape_3_copy_6">
		<g>
			<path class="st1" d="M37.6,28.2h-0.2c-2.1,0-3.8-1.7-3.8-3.8v-0.2c0-0.4,0.3-0.7,0.7-0.7h6.3c0.4,0,0.7,0.3,0.7,0.7v0.2
				C41.4,26.5,39.7,28.2,37.6,28.2z M35.1,24.9c0.2,1.1,1.2,1.8,2.3,1.8h0.2c1.1,0,2.1-0.8,2.3-1.8H35.1z"/>
		</g>
	</g>
	<g id="Shape_3_copy_7">
		<g>
			<path class="st1" d="M24.9,28.1h-0.2c-2.1,0-3.8-1.7-3.8-3.8V24c0-0.4,0.3-0.7,0.7-0.7H28c0.4,0,0.7,0.3,0.7,0.7v0.2
				C28.7,26.4,27,28.1,24.9,28.1z M22.5,24.8c0.2,1.1,1.2,1.8,2.3,1.8H25c1.1,0,2.1-0.8,2.3-1.8H22.5z"/>
		</g>
	</g>
	<g id="Shape_3_copy_8">
		<g>
			<path class="st1" d="M12.4,28.1h-0.2c-2.1,0-3.8-1.7-3.8-3.8V24c0-0.4,0.3-0.7,0.7-0.7h6.3c0.4,0,0.7,0.3,0.7,0.7v0.2
				C16.2,26.4,14.5,28.1,12.4,28.1z M9.9,24.8c0.2,1.1,1.2,1.8,2.3,1.8h0.2c1.1,0,2.1-0.8,2.3-1.8H9.9z"/>
		</g>
	</g>
	<g id="Shape_5">
		<g>
			<path class="st1" d="M15.4,24.9c-0.1,0-0.2,0-0.2,0c-0.4-0.1-0.6-0.6-0.5-0.9l1.5-4.5c0.1-0.4,0.6-0.6,0.9-0.5
				c0.4,0.1,0.6,0.6,0.5,0.9l-1.5,4.5C16,24.7,15.7,24.9,15.4,24.9z M47.1,24.9c-0.3,0-0.6-0.2-0.7-0.5l-1.5-4.5
				c-0.1-0.4,0.1-0.8,0.5-0.9s0.8,0.1,0.9,0.5l1.5,4.5c0.1,0.4-0.1,0.8-0.5,0.9C47.2,24.9,47.1,24.9,47.1,24.9z M53.4,24.9
				c-0.3,0-0.5-0.2-0.7-0.4L50.6,20c-0.2-0.4,0-0.8,0.4-1s0.8,0,1,0.4l2.1,4.5c0.2,0.4,0,0.8-0.4,1C53.6,24.9,53.5,24.9,53.4,24.9z
				 M9.1,24.9c-0.1,0-0.2,0-0.3-0.1c-0.4-0.2-0.5-0.6-0.4-1l2.1-4.5c0.2-0.4,0.6-0.5,1-0.4c0.4,0.2,0.5,0.6,0.4,1l-2.1,4.5
				C9.6,24.7,9.3,24.9,9.1,24.9z M21.7,24.9h-0.1c-0.4-0.1-0.7-0.5-0.6-0.9l0.9-4.5c0.1-0.4,0.5-0.7,0.9-0.6s0.7,0.5,0.6,0.9
				l-0.9,4.5C22.4,24.7,22.1,24.9,21.7,24.9z M40.7,24.9c-0.3,0-0.7-0.2-0.7-0.6l-0.9-4.5C39,19.4,39.3,19,39.7,19
				c0.4-0.1,0.8,0.2,0.9,0.6l0.9,4.5c0.1,0.4-0.2,0.8-0.6,0.9C40.8,24.9,40.8,24.9,40.7,24.9z M34.4,24.9c-0.4,0-0.7-0.3-0.7-0.7
				l-0.3-4.5c0-0.4,0.3-0.8,0.7-0.8s0.8,0.3,0.8,0.7l0.3,4.5C35.2,24.5,34.9,24.9,34.4,24.9L34.4,24.9z M28.1,24.9
				C28,24.9,28,24.9,28.1,24.9c-0.5,0-0.8-0.4-0.7-0.8l0.3-4.5c0-0.4,0.4-0.7,0.8-0.7s0.7,0.4,0.7,0.8l-0.3,4.5
				C28.8,24.6,28.4,24.9,28.1,24.9z"/>
		</g>
	</g>
	<g id="Shape_4">
		<g>
			<path class="st1" d="M15.4,24.9c-0.1,0-0.2,0-0.2,0c-0.4-0.1-0.6-0.6-0.5-0.9l1.5-4.5c0.1-0.4,0.6-0.6,0.9-0.5
				c0.4,0.1,0.6,0.6,0.5,0.9l-1.5,4.5C16,24.7,15.7,24.9,15.4,24.9z M47.1,24.9c-0.3,0-0.6-0.2-0.7-0.5L44.9,20
				c-0.1-0.4,0.1-0.8,0.5-0.9s0.8,0.1,0.9,0.5l1.5,4.5c0.1,0.4-0.1,0.8-0.5,0.9C47.2,24.9,47.1,24.9,47.1,24.9z M53.4,24.9
				c-0.3,0-0.5-0.2-0.7-0.4L50.6,20c-0.2-0.4,0-0.8,0.4-1s0.8,0,1,0.4l2.1,4.5c0.2,0.4,0,0.8-0.4,1C53.6,24.9,53.5,24.9,53.4,24.9z
				 M9,24.9c-0.1,0-0.2,0-0.3-0.1c-0.4-0.2-0.5-0.6-0.4-1l2.1-4.5c0.2-0.4,0.6-0.5,1-0.4c0.4,0.2,0.5,0.6,0.4,1l-2.1,4.5
				C9.6,24.8,9.3,24.9,9,24.9z M21.7,24.9h-0.1c-0.4-0.1-0.7-0.5-0.6-0.9l0.9-4.5c0.1-0.4,0.5-0.7,0.9-0.6s0.7,0.5,0.6,0.9l-0.9,4.5
				C22.4,24.7,22.1,24.9,21.7,24.9z M40.7,24.9c-0.3,0-0.7-0.2-0.7-0.6l-0.9-4.5c-0.1-0.4,0.2-0.8,0.6-0.9c0.4-0.1,0.8,0.2,0.9,0.6
				l0.9,4.5c0.1,0.4-0.2,0.8-0.6,0.9C40.8,24.9,40.8,24.9,40.7,24.9z M59.9,24.9c-0.3,0-0.5-0.1-0.6-0.4c-0.3-0.5-0.6-0.9-0.9-1.4
				c-0.3-0.5-0.6-0.9-0.9-1.4L56,19.2c-0.2-0.4-0.1-0.8,0.3-1c0.4-0.2,0.8-0.1,1,0.3l1.5,2.5c0.3,0.4,0.5,0.9,0.8,1.3
				c0.3,0.5,0.6,1,0.9,1.5c0.2,0.4,0.1,0.8-0.3,1C60.1,24.9,60,24.9,59.9,24.9z M2.7,24.9c-0.1,0-0.3,0-0.4-0.1
				c-0.4-0.2-0.5-0.7-0.3-1l3.2-5.2l1.3,0.8l-3.2,5.2C3.2,24.8,3,24.9,2.7,24.9z M34.4,24.9c-0.4,0-0.7-0.3-0.7-0.7l-0.3-4.5
				c0-0.4,0.3-0.8,0.7-0.8s0.8,0.3,0.8,0.7l0.3,4.5C35.2,24.5,34.8,24.9,34.4,24.9L34.4,24.9z M28.1,24.9C28,24.9,28,24.9,28.1,24.9
				c-0.5,0-0.8-0.4-0.7-0.8l0.3-4.5c0-0.4,0.4-0.7,0.8-0.7s0.7,0.4,0.7,0.8l-0.3,4.5C28.8,24.6,28.4,24.9,28.1,24.9z"/>
		</g>
	</g>
	<g id="Shape_1">
		<g>
			<path class="st1" d="M53.8,19.6c-0.2,0-0.4,0-0.6,0H53H8.7c-3.3,0-4.6-0.4-4.7-1.4v-0.1v-2.7c0-0.4,0.3-0.7,0.7-0.7
				s0.7,0.3,0.7,0.7v2.4c0.3,0.1,1,0.3,3,0.3h0.1h44.4h0.2c2.6,0,3.5-0.2,3.8-0.3v-2.4c0-0.4,0.3-0.7,0.7-0.7s0.7,0.3,0.7,0.7v2.7
				v0.1C58.3,19.2,57.1,19.6,53.8,19.6z"/>
		</g>
	</g>
	<g id="Shape_2">
		<g>
			<path class="st1" d="M54.5,16.9H8c-3.5,0-3.9-0.9-4-1.2c0-0.1-0.2-0.7,0.4-1.2l8.8-7.1c0.7-0.6,3.2-0.6,3.7-0.6h28.7
				c0.5,0,3,0,3.7,0.6l8.8,7.1c0.6,0.5,0.5,1,0.4,1.2C58.3,16,58,16.9,54.5,16.9z M57.1,15.7L57.1,15.7l0.5-0.6L57.1,15.7z
				 M5.9,15.3C6.3,15.4,7,15.4,8,15.4h46.5c1,0,1.7-0.1,2.1-0.2l-8.2-6.7c-0.2-0.1-1.3-0.3-2.8-0.3H16.9c-1.5,0-2.6,0.2-2.8,0.3
				L5.9,15.3z"/>
		</g>
	</g>
	<g id="Shape_9">
		<g>
			<path class="st1" d="M62.3,57.2H1.7c-0.3,0-0.6-0.2-0.7-0.6c-0.1-0.3,0.1-0.7,0.4-0.8l5.4-2.9c0.1-0.1,0.2-0.1,0.4-0.1l48.7-0.1
				l0,0c0.1,0,0.2,0,0.3,0.1l6.4,3c0.3,0.1,0.5,0.5,0.4,0.8C62.9,57,62.6,57.2,62.3,57.2z M4.7,55.7h54.2l-3.2-1.5L7.3,54.3
				L4.7,55.7z"/>
		</g>
	</g>
</g>
</svg>
