<?xml version="1.0" encoding="utf-8"?>
<!-- Generator: Adobe Illustrator 19.2.1, SVG Export Plug-In . SVG Version: 6.00 Build 0)  -->
<svg version="1.1" id="Layer_1" xmlns="http://www.w3.org/2000/svg" xmlns:xlink="http://www.w3.org/1999/xlink" x="0px" y="0px"
	 viewBox="0 0 64 64" style="enable-background:new 0 0 64 64;" xml:space="preserve">
<metadata><?xpacket begin="﻿" id="W5M0MpCehiHzreSzNTczkc9d"?>
<x:xmpmeta xmlns:x="adobe:ns:meta/" x:xmptk="Adobe XMP Core 5.6-c111 79.158366, 2015/09/25-01:12:00        ">
   <rdf:RDF xmlns:rdf="http://www.w3.org/1999/02/22-rdf-syntax-ns#">
      <rdf:Description rdf:about=""/>
   </rdf:RDF>
</x:xmpmeta>
                                                                                                    
                                                                                                    
                                                                                                    
                                                                                                    
                                                                                                    
                                                                                                    
                                                                                                    
                                                                                                    
                                                                                                    
                                                                                                    
                                                                                                    
                                                                                                    
                                                                                                    
                                                                                                    
                                                                                                    
                                                                                                    
                                                                                                    
                                                                                                    
                                                                                                    
                                                                                                    
                           
<?xpacket end="w"?></metadata>
<style type="text/css">
	.st0{fill:none;}
	.st1{fill:#5B554D;}
</style>
<rect class="st0" width="64" height="64"/>
<g>
	<g>
		<path class="st1" d="M42.4,15.3c-0.5,0-0.8-0.4-0.8-0.8v-3.8c0-2-1.6-3.6-3.6-3.6H26.1c-2,0-3.6,1.6-3.6,3.6v3.8
			c0,0.5-0.4,0.8-0.8,0.8c-0.5,0-0.8-0.4-0.8-0.8v-3.8c0-2.9,2.4-5.3,5.3-5.3h11.9c2.9,0,5.3,2.4,5.3,5.3v3.8
			C43.2,14.9,42.8,15.3,42.4,15.3z"/>
	</g>
	<g>
		<path class="st1" d="M59.9,58.5H4.1c-1.7,0-3.1-1.4-3.1-3.1V17.3c0-1.7,1.4-3.1,3.1-3.1h55.8c1.7,0,3.1,1.4,3.1,3.1v38.1
			C63,57.1,61.6,58.5,59.9,58.5z M4.1,15.8c-0.8,0-1.5,0.7-1.5,1.5v38.1c0,0.8,0.7,1.5,1.5,1.5h55.8c0.8,0,1.5-0.7,1.5-1.5V17.3
			c0-0.8-0.7-1.5-1.5-1.5C59.9,15.8,4.1,15.8,4.1,15.8z"/>
	</g>
	<g>
		<path class="st1" d="M14,58.5c-0.5,0-0.8-0.4-0.8-0.8V15c0-0.5,0.4-0.8,0.8-0.8c0.5,0,0.8,0.4,0.8,0.8v42.7
			C14.8,58.2,14.5,58.5,14,58.5z"/>
	</g>
	<g>
		<path class="st1" d="M8.6,58.5c-0.5,0-0.8-0.4-0.8-0.8V15c0-0.5,0.4-0.8,0.8-0.8c0.5,0,0.8,0.4,0.8,0.8v42.7
			C9.4,58.2,9,58.5,8.6,58.5z"/>
	</g>
	<g>
		<path class="st1" d="M55.4,58.5c-0.5,0-0.8-0.4-0.8-0.8V15c0-0.5,0.4-0.8,0.8-0.8c0.5,0,0.8,0.4,0.8,0.8v42.7
			C56.2,58.2,55.9,58.5,55.4,58.5z"/>
	</g>
	<g>
		<path class="st1" d="M50,58.5c-0.5,0-0.8-0.4-0.8-0.8V15c0-0.5,0.4-0.8,0.8-0.8c0.5,0,0.8,0.4,0.8,0.8v42.7
			C50.8,58.2,50.4,58.5,50,58.5z"/>
	</g>
</g>
</svg>
