<?xml version="1.0" encoding="utf-8"?>
<!-- Generator: Adobe Illustrator 19.2.1, SVG Export Plug-In . SVG Version: 6.00 Build 0)  -->
<svg version="1.1" id="Layer_1" xmlns="http://www.w3.org/2000/svg" xmlns:xlink="http://www.w3.org/1999/xlink" x="0px" y="0px"
	 viewBox="0 0 64 64" style="enable-background:new 0 0 64 64;" xml:space="preserve">
<metadata><?xpacket begin="﻿" id="W5M0MpCehiHzreSzNTczkc9d"?>
<x:xmpmeta xmlns:x="adobe:ns:meta/" x:xmptk="Adobe XMP Core 5.6-c111 79.158366, 2015/09/25-01:12:00        ">
   <rdf:RDF xmlns:rdf="http://www.w3.org/1999/02/22-rdf-syntax-ns#">
      <rdf:Description rdf:about=""/>
   </rdf:RDF>
</x:xmpmeta>
                                                                                                    
                                                                                                    
                                                                                                    
                                                                                                    
                                                                                                    
                                                                                                    
                                                                                                    
                                                                                                    
                                                                                                    
                                                                                                    
                                                                                                    
                                                                                                    
                                                                                                    
                                                                                                    
                                                                                                    
                                                                                                    
                                                                                                    
                                                                                                    
                                                                                                    
                                                                                                    
                           
<?xpacket end="w"?></metadata>
<style type="text/css">
	.st0{fill:none;}
	.st1{fill:#5C564E;}
</style>
<rect class="st0" width="64" height="64"/>
<g>
	<g>
		<g>
			<g>
				<path class="st1" d="M22.6,14.8c-0.2,0-0.4,0-0.6-0.1c-0.3-0.1-0.5-0.4-0.6-0.7s-0.1-0.6,0.1-0.9l1.1-2.2
					c0.2-0.3,0.5-0.5,0.8-0.5H24c0.3,0,0.6,0.2,0.8,0.4s0.2,0.6,0,0.9l-1.2,2.5c-0.1,0.3-0.4,0.5-0.7,0.6
					C22.9,14.8,22.7,14.8,22.6,14.8z M23.2,13.9L23.2,13.9C23.1,13.9,23.2,13.9,23.2,13.9z"/>
			</g>
			<g>
				<path class="st1" d="M22.8,14.7c-0.2,0-0.4,0-0.5-0.1c-0.2-0.1-0.4-0.3-0.5-0.6s0-0.5,0.1-0.8l1.1-2.3c0.2-0.3,0.5-0.5,0.8-0.5
					H24c0.3,0,0.6,0.2,0.8,0.4c0.2,0.3,0.2,0.6,0,0.9l-1.2,2.5c-0.1,0.2-0.3,0.4-0.6,0.5C23,14.7,22.9,14.7,22.8,14.7z"/>
			</g>
		</g>
		<g>
			<g>
				<path class="st1" d="M41.4,14.8c-0.1,0-0.3,0-0.4-0.1c-0.3-0.1-0.5-0.3-0.7-0.6L39,11.4c-0.1-0.3-0.1-0.6,0-0.9
					c0.2-0.3,0.5-0.4,0.8-0.4h0.6c0.3,0,0.7,0.2,0.8,0.5l1.2,2.4c0.1,0.3,0.2,0.6,0.1,0.9c-0.1,0.3-0.3,0.6-0.6,0.7
					C41.8,14.8,41.6,14.8,41.4,14.8z M40.9,14L40.9,14L40.9,14z"/>
			</g>
			<g>
				<path class="st1" d="M41.3,14.7c-0.1,0-0.2,0-0.3,0c-0.2-0.1-0.4-0.2-0.5-0.5l-1.3-2.6c-0.1-0.3-0.1-0.6,0-0.9
					c0.2-0.3,0.5-0.4,0.8-0.4h0.2c0.3,0,0.7,0.2,0.8,0.5l1.3,2.6c0.1,0.2,0.1,0.4,0.1,0.7c-0.1,0.3-0.3,0.5-0.5,0.6
					C41.6,14.7,41.4,14.7,41.3,14.7z"/>
			</g>
		</g>
		<g>
			<path class="st1" d="M23.5,12.4c-0.5,0-0.8-0.1-1.1-0.3c-0.3-0.2-0.4-0.5-0.4-0.9c0-2.7,5.4-3.7,10-3.8c4.6-0.1,10,0.9,10.1,3.6
				l0,0c0,0.4-0.1,0.7-0.4,0.9c-0.6,0.5-1.6,0.4-3.5,0.1c-1.6-0.3-3.8-0.6-6.2-0.6s-4.5,0.4-6.1,0.7C24.8,12.2,24.1,12.4,23.5,12.4z
				 M32.4,9.2c-0.1,0-0.2,0-0.4,0c-3.6,0-6,0.6-7.2,1.2c0.3,0,0.5-0.1,0.8-0.1c1.7-0.3,3.9-0.7,6.4-0.7s4.8,0.3,6.5,0.6
				c0.3,0,0.5,0.1,0.8,0.1C38,9.7,35.7,9.2,32.4,9.2z"/>
		</g>
	</g>
	<g>
		<g>
			<g>
				<path class="st1" d="M59.1,56.6H4.9c-2.1,0-3.9-1.7-3.9-3.9V17.3c0-2.1,1.7-3.9,3.9-3.9h54.3c2.1,0,3.9,1.7,3.9,3.9v35.5
					C63,54.9,61.3,56.6,59.1,56.6z M4.9,15.2c-1.1,0-2,0.9-2,2v35.5c0,1.1,0.9,2,2,2h54.3c1.1,0,2-0.9,2-2V17.3c0-1.1-0.9-2-2-2
					L4.9,15.2L4.9,15.2z"/>
			</g>
		</g>
		<g>
			<g>
				<path class="st1" d="M15.1,56.6H9.5c-0.5,0-0.9-0.4-0.9-0.9V14.3c0-0.5,0.4-0.9,0.9-0.9h5.6c0.5,0,0.9,0.4,0.9,0.9v41.4
					C16,56.2,15.6,56.6,15.1,56.6z M10.4,54.8h3.7V15.2h-3.7V54.8z"/>
			</g>
		</g>
		<g>
			<g>
				<path class="st1" d="M54.5,56.6h-5.6c-0.5,0-0.9-0.4-0.9-0.9V14.3c0-0.5,0.4-0.9,0.9-0.9h5.6c0.5,0,0.9,0.4,0.9,0.9v41.4
					C55.4,56.2,55,56.6,54.5,56.6z M49.8,54.8h3.7V15.2h-3.7V54.8z"/>
			</g>
		</g>
	</g>
</g>
</svg>
