<?xml version="1.0" encoding="utf-8"?>
<!-- Generator: Adobe Illustrator 19.2.1, SVG Export Plug-In . SVG Version: 6.00 Build 0)  -->
<svg version="1.1" id="Layer_1" xmlns="http://www.w3.org/2000/svg" xmlns:xlink="http://www.w3.org/1999/xlink" x="0px" y="0px"
	 viewBox="0 0 64 64" style="enable-background:new 0 0 64 64;" xml:space="preserve">
<metadata><?xpacket begin="﻿" id="W5M0MpCehiHzreSzNTczkc9d"?>
<x:xmpmeta xmlns:x="adobe:ns:meta/" x:xmptk="Adobe XMP Core 5.6-c111 79.158366, 2015/09/25-01:12:00        ">
   <rdf:RDF xmlns:rdf="http://www.w3.org/1999/02/22-rdf-syntax-ns#">
      <rdf:Description rdf:about=""/>
   </rdf:RDF>
</x:xmpmeta>
                                                                                                    
                                                                                                    
                                                                                                    
                                                                                                    
                                                                                                    
                                                                                                    
                                                                                                    
                                                                                                    
                                                                                                    
                                                                                                    
                                                                                                    
                                                                                                    
                                                                                                    
                                                                                                    
                                                                                                    
                                                                                                    
                                                                                                    
                                                                                                    
                                                                                                    
                                                                                                    
                           
<?xpacket end="w"?></metadata>
<style type="text/css">
	.st0{fill:none;}
	.st1{fill:#5B554D;}
</style>
<rect class="st0" width="64" height="64"/>
<g>
	<g>
		<g>
			<path class="st1" d="M46.4,59.3c-0.3,0-0.6-0.2-0.8-0.4L39.7,48c-0.2-0.4-0.1-0.9,0.3-1.2c0.4-0.2,0.9-0.1,1.2,0.3L47.1,58
				c0.2,0.4,0.1,0.9-0.3,1.2C46.7,59.3,46.5,59.3,46.4,59.3z"/>
		</g>
		<g>
			<path class="st1" d="M23.5,17.2c-0.3,0-0.6-0.2-0.8-0.4L16.8,5.9c-0.2-0.4-0.1-0.9,0.3-1.2C17.5,4.5,18,4.6,18.3,5l6,11
				c0.2,0.4,0.1,0.9-0.3,1.2C23.8,17.2,23.6,17.2,23.5,17.2z"/>
		</g>
	</g>
	<g>
		<path class="st1" d="M32,43.9c-6.6,0-12-5.4-12-12s5.4-12,12-12s12,5.4,12,12S38.6,43.9,32,43.9z M32,21.7
			c-5.6,0-10.2,4.6-10.2,10.2S26.4,42.1,32,42.1s10.2-4.6,10.2-10.2S37.6,21.7,32,21.7z"/>
	</g>
	<g>
		<g>
			<path class="st1" d="M32,15.1c-0.5,0-0.9-0.4-0.9-0.9V1.9C31.1,1.4,31.5,1,32,1s0.9,0.4,0.9,0.9v12.4
				C32.9,14.7,32.5,15.1,32,15.1z"/>
		</g>
		<g>
			<path class="st1" d="M32,63c-0.5,0-0.9-0.4-0.9-0.9V49.8c0-0.5,0.4-0.9,0.9-0.9s0.9,0.4,0.9,0.9v12.4C32.9,62.6,32.5,63,32,63z"
				/>
		</g>
	</g>
	<g>
		<g>
			<path class="st1" d="M62.1,32.9H49.8c-0.5,0-0.9-0.4-0.9-0.9s0.4-0.9,0.9-0.9h12.4c0.5,0,0.9,0.4,0.9,0.9S62.6,32.9,62.1,32.9z"
				/>
		</g>
		<g>
			<path class="st1" d="M14.2,32.9H1.9C1.4,32.9,1,32.5,1,32s0.4-0.9,0.9-0.9h12.4c0.5,0,0.9,0.4,0.9,0.9S14.7,32.9,14.2,32.9z"/>
		</g>
	</g>
	<g>
		<g>
			<path class="st1" d="M47.6,24.4c-0.3,0-0.6-0.2-0.8-0.4c-0.2-0.4-0.1-0.9,0.3-1.2L58,16.9c0.4-0.2,0.9-0.1,1.2,0.3
				c0.2,0.4,0.1,0.9-0.3,1.2L48,24.3C47.9,24.3,47.8,24.4,47.6,24.4z"/>
		</g>
		<g>
			<path class="st1" d="M5.5,47.3c-0.3,0-0.6-0.2-0.8-0.4C4.5,46.5,4.6,46,5,45.7l11-6c0.4-0.2,0.9-0.1,1.2,0.3
				c0.2,0.4,0.1,0.9-0.3,1.2l-11,6C5.8,47.2,5.7,47.3,5.5,47.3z"/>
		</g>
	</g>
	<g>
		<g>
			<path class="st1" d="M41.3,17.7c-0.2,0-0.3,0-0.4-0.1c-0.4-0.2-0.5-0.8-0.3-1.2L47,5.9c0.2-0.4,0.8-0.5,1.2-0.3s0.5,0.8,0.3,1.2
				L42,17.3C41.9,17.6,41.6,17.7,41.3,17.7z"/>
		</g>
		<g>
			<path class="st1" d="M16.2,58.5c-0.2,0-0.3,0-0.4-0.1c-0.4-0.2-0.5-0.8-0.3-1.2L22,46.7c0.2-0.4,0.8-0.5,1.2-0.3
				c0.4,0.2,0.5,0.8,0.3,1.2L17,58.1C16.8,58.4,16.5,58.5,16.2,58.5z"/>
		</g>
	</g>
	<g>
		<g>
			<path class="st1" d="M57.7,48.6c-0.2,0-0.3,0-0.4-0.1L46.7,42c-0.4-0.2-0.5-0.8-0.3-1.2s0.8-0.5,1.2-0.3L58.1,47
				c0.4,0.2,0.5,0.8,0.3,1.2C58.3,48.5,58,48.6,57.7,48.6z"/>
		</g>
		<g>
			<path class="st1" d="M16.8,23.6c-0.2,0-0.3,0-0.4-0.1L5.9,17c-0.4-0.2-0.5-0.8-0.3-1.2c0.2-0.4,0.8-0.5,1.2-0.3L17.3,22
				c0.4,0.2,0.5,0.8,0.3,1.2C17.4,23.4,17.1,23.6,16.8,23.6z"/>
		</g>
	</g>
</g>
</svg>
