<?xml version="1.0" encoding="utf-8"?>
<!-- Generator: Adobe Illustrator 19.2.1, SVG Export Plug-In . SVG Version: 6.00 Build 0)  -->
<svg version="1.1" id="Layer_1" xmlns="http://www.w3.org/2000/svg" xmlns:xlink="http://www.w3.org/1999/xlink" x="0px" y="0px"
	 viewBox="0 0 64 64" style="enable-background:new 0 0 64 64;" xml:space="preserve">
<metadata><?xpacket begin="﻿" id="W5M0MpCehiHzreSzNTczkc9d"?>
<x:xmpmeta xmlns:x="adobe:ns:meta/" x:xmptk="Adobe XMP Core 5.6-c111 79.158366, 2015/09/25-01:12:00        ">
   <rdf:RDF xmlns:rdf="http://www.w3.org/1999/02/22-rdf-syntax-ns#">
      <rdf:Description rdf:about=""/>
   </rdf:RDF>
</x:xmpmeta>
                                                                                                    
                                                                                                    
                                                                                                    
                                                                                                    
                                                                                                    
                                                                                                    
                                                                                                    
                                                                                                    
                                                                                                    
                                                                                                    
                                                                                                    
                                                                                                    
                                                                                                    
                                                                                                    
                                                                                                    
                                                                                                    
                                                                                                    
                                                                                                    
                                                                                                    
                                                                                                    
                           
<?xpacket end="w"?></metadata>
<style type="text/css">
	.st0{fill:none;}
	.st1{fill:#5B554D;}
</style>
<rect class="st0" width="64" height="64"/>
<g>
	<g>
		<path class="st1" d="M25.5,24.7C17.9,24.7,7,24,3,21.7c-0.3-0.2-0.5-0.6-0.4-1C8.5,4.8,27.4,1.1,27.6,1c0.1,0,0.2,0,0.3,0
			C28.1,1,47.2,3.6,54,19.2c0.2,0.4,0,0.8-0.3,1c-4.3,2.8-17.8,4.2-25.2,4.4C27.5,24.7,26.6,24.7,25.5,24.7z M4.4,20.6
			c4.2,1.8,15.2,2.7,24,2.4c8.6-0.3,19.7-1.8,23.8-3.8C45.8,5.7,29.4,2.9,27.8,2.6C26.2,3,10,6.8,4.4,20.6z"/>
	</g>
	<g>
		<path class="st1" d="M24.9,24.8c-2.6,0-5.9-0.1-9.1-0.5c-0.2,0-0.4-0.1-0.6-0.3c-0.1-0.2-0.2-0.4-0.2-0.6
			C17.9,5.3,27.2,1.3,27.5,1.1c0.2-0.1,0.4-0.1,0.6,0c0.4,0.1,9.9,3.6,13.6,21.5c0,0.2,0,0.4-0.1,0.6s-0.3,0.3-0.5,0.3
			c-4.4,0.8-9.3,1-12.6,1.1C27.5,24.7,26.3,24.8,24.9,24.8z M16.8,22.8c4.5,0.4,9.1,0.4,11.6,0.3c3.1-0.1,7.5-0.3,11.6-1
			C36.7,7.6,29.4,3.5,27.9,2.8C26.4,3.6,19.3,8.1,16.8,22.8z"/>
	</g>
	<g>
		<g>
			<g>
				<path class="st1" d="M18.4,48c-0.1,0-0.2,0-0.2,0c-0.4-0.1-0.7-0.6-0.5-1l0,0L5.8,43.2c-0.1,0.4-0.6,0.7-1,0.5
					c-0.4-0.1-0.7-0.6-0.5-1c0.1-0.4,0.4-0.8,0.8-1s0.8-0.2,1.2-0.1l11.8,3.7c0.9,0.3,1.3,1.2,1.1,2C19,47.8,18.7,48,18.4,48z"/>
			</g>
		</g>
		<g>
			<path class="st1" d="M34.5,46c-0.4,0-0.8-0.3-0.8-0.7l-0.6-5.5c-0.1-0.4,0.3-0.8,0.7-0.9c0.4,0,0.8,0.3,0.9,0.7l0.6,5.5
				C35.4,45.6,35.1,46,34.5,46C34.6,46,34.6,46,34.5,46z"/>
		</g>
	</g>
	<g>
		<g>
			<path class="st1" d="M28.8,56c-0.6,0-1.4,0-2.2-0.1c-0.4,0-0.8-0.4-0.7-0.9c0-0.4,0.4-0.8,0.9-0.7c2.3,0.2,3.9,0,4.2,0h0.1
				C43.4,53.2,55.3,36.2,58,32.1l-8-2.4c-1.6,3.7-9.8,20.2-30.5,20.6c-0.4,0-0.8-0.3-0.8-0.8c0-0.4,0.3-0.8,0.8-0.8
				c22.1-0.4,29.2-20,29.2-20.2c0.1-0.4,0.6-0.6,1-0.5l9.7,2.9c0.2,0.1,0.4,0.3,0.5,0.5s0.1,0.5-0.1,0.7c-0.6,0.9-14,22.6-28.7,23.8
				C30.9,55.9,30.1,56,28.8,56z"/>
		</g>
		<g>
			<path class="st1" d="M28.7,56.1c-3.8,0-11.4-0.8-18.3-6.6c-1.4-1.1-2.8-2.6-4.1-4.3c-0.2-0.3-0.2-0.7,0-1s0.6-0.4,0.9-0.3
				l9.7,2.9c0.2,0.1,0.3,0.2,0.4,0.3c4.9,7.4,13.6,7.1,13.7,7.1c0.4,0,0.8,0.3,0.8,0.7s-0.3,0.8-0.7,0.9
				C31,55.9,30.1,56.1,28.7,56.1z M9.4,46.3c0.7,0.7,1.4,1.4,2.1,1.9c3.4,2.8,7,4.4,10.2,5.2c-2-1.1-3.9-2.8-5.6-5.1L9.4,46.3z"/>
		</g>
	</g>
	<g>
		<g>
			<path class="st1" d="M45.1,57.2c-0.4,0-0.8-0.3-0.8-0.7l-0.8-7.3c0-0.4,0.3-0.8,0.7-0.9c0.4,0,0.8,0.3,0.9,0.7l0.8,7.3
				C45.9,56.7,45.6,57.1,45.1,57.2L45.1,57.2z"/>
		</g>
	</g>
	<g>
		<path class="st1" d="M48.9,58.3c-0.1,0-0.2,0-0.2,0l-31.4-9.6c-0.4-0.1-0.7-0.6-0.5-1c0.1-0.4,0.6-0.7,1-0.5l31.4,9.6
			c0.4,0.1,0.7,0.6,0.5,1C49.5,58.1,49.2,58.3,48.9,58.3z"/>
	</g>
	<g>
		<path class="st1" d="M17.5,48.7c-0.1,0-0.2,0-0.2,0L2.8,44.3c-0.4-0.1-0.7-0.6-0.5-1c0.1-0.4,0.6-0.7,1-0.5l14.5,4.4
			c0.4,0.1,0.7,0.6,0.5,1C18.2,48.5,17.8,48.7,17.5,48.7z"/>
	</g>
	<g>
		<path class="st1" d="M17.5,63c-0.2,0-0.5-0.1-0.7-0.3c-0.3-0.4-0.2-0.9,0.2-1.1l43.5-31.9c0.4-0.3,0.9-0.2,1.1,0.2
			c0.3,0.4,0.2,0.9-0.2,1.1L18,62.8C17.8,62.9,17.7,63,17.5,63z"/>
	</g>
	<g>
		<path class="st1" d="M6.2,58c-0.3,0-0.5-0.1-0.7-0.4c-0.3-0.4-0.2-0.9,0.2-1.1l7.8-5.3c0.4-0.3,0.9-0.2,1.1,0.2
			c0.3,0.4,0.2,0.9-0.2,1.1l-7.8,5.3C6.5,58,6.4,58,6.2,58z"/>
	</g>
	<g>
		<path class="st1" d="M18.4,50c-0.3,0-0.5-0.1-0.7-0.4c-0.2-0.4-0.1-0.9,0.2-1.1l32.9-21.7c0.4-0.2,0.9-0.1,1.1,0.2
			c0.2,0.4,0.1,0.9-0.2,1.1L18.8,49.8C18.7,49.9,18.6,50,18.4,50z"/>
	</g>
	<g>
		<path class="st1" d="M28.8,48.6c-0.4,0-0.8-0.4-0.8-0.8l-1.1-45c0-0.4,0.3-0.8,0.8-0.8l0,0c0.4,0,0.8,0.4,0.8,0.8l1.1,45
			C29.6,48.2,29.2,48.6,28.8,48.6L28.8,48.6z"/>
	</g>
</g>
</svg>
