<?xml version="1.0" encoding="utf-8"?>
<!-- Generator: Adobe Illustrator 19.2.1, SVG Export Plug-In . SVG Version: 6.00 Build 0)  -->
<svg version="1.1" id="Layer_1" xmlns="http://www.w3.org/2000/svg" xmlns:xlink="http://www.w3.org/1999/xlink" x="0px" y="0px"
	 viewBox="0 0 64 64" style="enable-background:new 0 0 64 64;" xml:space="preserve">
<metadata><?xpacket begin="﻿" id="W5M0MpCehiHzreSzNTczkc9d"?>
<x:xmpmeta xmlns:x="adobe:ns:meta/" x:xmptk="Adobe XMP Core 5.6-c111 79.158366, 2015/09/25-01:12:00        ">
   <rdf:RDF xmlns:rdf="http://www.w3.org/1999/02/22-rdf-syntax-ns#">
      <rdf:Description rdf:about=""/>
   </rdf:RDF>
</x:xmpmeta>
                                                                                                    
                                                                                                    
                                                                                                    
                                                                                                    
                                                                                                    
                                                                                                    
                                                                                                    
                                                                                                    
                                                                                                    
                                                                                                    
                                                                                                    
                                                                                                    
                                                                                                    
                                                                                                    
                                                                                                    
                                                                                                    
                                                                                                    
                                                                                                    
                                                                                                    
                                                                                                    
                           
<?xpacket end="w"?></metadata>
<style type="text/css">
	.st0{fill:none;}
	.st1{fill:#5B554D;}
</style>
<rect class="st0" width="64" height="64"/>
<g>
	<g>
		<path class="st1" d="M32,55.6C19,55.6,8.4,45,8.4,32S19,8.4,32,8.4S55.6,19,55.6,32S45,55.6,32,55.6z M32,10.1
			C19.9,10.1,10.1,20,10.1,32c0,12.1,9.8,21.9,21.9,21.9S53.9,44.1,53.9,32C53.9,20,44.1,10.1,32,10.1z"/>
	</g>
	<circle class="st1" cx="32" cy="32" r="4.6"/>
	<g>
		<path class="st1" d="M32,17.5c-0.5,0-0.8-0.4-0.8-0.8V1.8C31.2,1.4,31.5,1,32,1s0.8,0.4,0.8,0.8v14.8C32.8,17.1,32.5,17.5,32,17.5
			z"/>
	</g>
	<g>
		<path class="st1" d="M32,63c-0.5,0-0.8-0.4-0.8-0.8V47.4c0-0.5,0.4-0.8,0.8-0.8c0.5,0,0.8,0.4,0.8,0.8v14.8
			C32.8,62.6,32.5,63,32,63z"/>
	</g>
	<g>
		<path class="st1" d="M62.2,32.8H47.4c-0.5,0-0.8-0.4-0.8-0.8c0-0.5,0.4-0.8,0.8-0.8h14.8c0.5,0,0.8,0.4,0.8,0.8
			C63,32.5,62.6,32.8,62.2,32.8z"/>
	</g>
	<g>
		<path class="st1" d="M16.6,32.8H1.8C1.4,32.8,1,32.5,1,32s0.4-0.8,0.8-0.8h14.8c0.5,0,0.8,0.4,0.8,0.8
			C17.5,32.5,17.1,32.8,16.6,32.8z"/>
	</g>
</g>
</svg>
