<?xml version="1.0" encoding="utf-8"?>
<!-- Generator: Adobe Illustrator 19.2.1, SVG Export Plug-In . SVG Version: 6.00 Build 0)  -->
<svg version="1.1" id="Layer_1" xmlns="http://www.w3.org/2000/svg" xmlns:xlink="http://www.w3.org/1999/xlink" x="0px" y="0px"
	 viewBox="0 0 64 64" style="enable-background:new 0 0 64 64;" xml:space="preserve">
<metadata><?xpacket begin="﻿" id="W5M0MpCehiHzreSzNTczkc9d"?>
<x:xmpmeta xmlns:x="adobe:ns:meta/" x:xmptk="Adobe XMP Core 5.6-c111 79.158366, 2015/09/25-01:12:00        ">
   <rdf:RDF xmlns:rdf="http://www.w3.org/1999/02/22-rdf-syntax-ns#">
      <rdf:Description rdf:about=""/>
   </rdf:RDF>
</x:xmpmeta>
                                                                                                    
                                                                                                    
                                                                                                    
                                                                                                    
                                                                                                    
                                                                                                    
                                                                                                    
                                                                                                    
                                                                                                    
                                                                                                    
                                                                                                    
                                                                                                    
                                                                                                    
                                                                                                    
                                                                                                    
                                                                                                    
                                                                                                    
                                                                                                    
                                                                                                    
                                                                                                    
                           
<?xpacket end="w"?></metadata>
<style type="text/css">
	.st0{fill:none;}
	.st1{fill:#5B554D;}
</style>
<rect class="st0" width="64" height="64"/>
<g>
	<g>
		<path class="st1" d="M32,63c-4.1,0-8.3-0.8-12.3-2.5c-7.6-3.3-13.5-9.3-16.5-17c-3.1-7.7-2.9-16.1,0.4-23.7
			C10.3,4,28.6-3.2,44.3,3.5l0,0c7.6,3.3,13.5,9.3,16.5,17c3.1,7.7,2.9,16.1-0.4,23.7C55.4,56,44,63,32,63z M32,2.9
			c-11.3,0-22,6.6-26.8,17.6c-3.1,7.1-3.2,15-0.3,22.3c2.9,7.2,8.4,12.9,15.5,16c14.8,6.4,31.9-0.4,38.3-15.2
			c3.1-7.1,3.2-15.1,0.3-22.3c-2.9-7.2-8.4-12.9-15.5-16l0,0C39.8,3.6,35.9,2.9,32,2.9z"/>
	</g>
	<g>
		<path class="st1" d="M53.8,53.6c-0.3,0-0.5-0.1-0.7-0.3c-4.5-5-0.1-15.6,4.1-25.9c0.8-1.9,1.6-3.8,2.3-5.7
			c0.2-0.5,0.7-0.7,1.2-0.5c0.5,0.2,0.7,0.7,0.5,1.2c-0.7,1.9-1.5,3.8-2.3,5.7c-4,9.7-8.2,19.8-4.4,23.9c0.3,0.4,0.3,1-0.1,1.3
			C54.2,53.6,54,53.6,53.8,53.6z"/>
	</g>
	<g>
		<path class="st1" d="M12.7,55.4c-0.3,0-0.5,0-0.8,0c-0.5,0-0.9-0.5-0.9-1c0-0.5,0.4-0.9,0.9-0.9c0,0,0,0,0,0
			c3.8,0.1,6.2-0.7,7.4-2.5c2.9-4.2-0.9-13.6-4.7-22.7C12.2,22,9.7,16,9.3,11.4c0-0.5,0.3-1,0.8-1c0.5-0.1,1,0.3,1,0.8
			c0.4,4.4,2.9,10.5,5.4,16.4c3.9,9.6,8,19.4,4.5,24.5C19.5,54.3,16.8,55.4,12.7,55.4z"/>
	</g>
</g>
</svg>
