<?xml version="1.0" encoding="utf-8"?>
<!-- Generator: Adobe Illustrator 19.2.1, SVG Export Plug-In . SVG Version: 6.00 Build 0)  -->
<svg version="1.1" id="Layer_1" xmlns="http://www.w3.org/2000/svg" xmlns:xlink="http://www.w3.org/1999/xlink" x="0px" y="0px"
	 viewBox="0 0 64 64" style="enable-background:new 0 0 64 64;" xml:space="preserve">
<metadata><?xpacket begin="﻿" id="W5M0MpCehiHzreSzNTczkc9d"?>
<x:xmpmeta xmlns:x="adobe:ns:meta/" x:xmptk="Adobe XMP Core 5.6-c111 79.158366, 2015/09/25-01:12:00        ">
   <rdf:RDF xmlns:rdf="http://www.w3.org/1999/02/22-rdf-syntax-ns#">
      <rdf:Description rdf:about=""/>
   </rdf:RDF>
</x:xmpmeta>
                                                                                                    
                                                                                                    
                                                                                                    
                                                                                                    
                                                                                                    
                                                                                                    
                                                                                                    
                                                                                                    
                                                                                                    
                                                                                                    
                                                                                                    
                                                                                                    
                                                                                                    
                                                                                                    
                                                                                                    
                                                                                                    
                                                                                                    
                                                                                                    
                                                                                                    
                                                                                                    
                           
<?xpacket end="w"?></metadata>
<style type="text/css">
	.st0{fill:none;}
	.st1{fill:#5B554D;}
</style>
<rect class="st0" width="64" height="64"/>
<g>
	<g>
		<g>
			<g>
				<g>
					<g>
						<g>
							<g>
								<path class="st1" d="M61.6,53L61.6,53L61.6,53c-0.8-0.1-1.3-0.6-1.3-1.2L60,49.6c0-0.4,0.1-0.7,0.3-1s0.5-0.5,0.9-0.5
									c0,0,0.1,0,0.2,0c0.7,0,1.3,0.5,1.4,1.3l0.2,2.1c0.1,0.8-0.5,1.5-1.2,1.6C61.8,53,61.7,53,61.6,53z M61.8,51.6L61.8,51.6
									L61.8,51.6z"/>
							</g>
							<g>
								<path class="st1" d="M11.9,53c-0.1,0-0.2,0-0.2,0c-0.3,0-0.6-0.2-0.9-0.5c-0.2-0.3-0.3-0.7-0.3-1l0.2-2.1
									c0.1-0.7,0.7-1.3,1.4-1.3c0.1,0,0.2,0,0.2,0c0.3,0,0.6,0.2,0.9,0.5c0.2,0.3,0.3,0.7,0.3,1l-0.2,2.1
									c-0.1,0.7-0.6,1.2-1.2,1.2C12,53,12,53,11.9,53L11.9,53L11.9,53z M11.9,52.2L11.9,52.2L11.9,52.2z"/>
							</g>
						</g>
					</g>
					<g>
						<g>
							<path class="st1" d="M2.3,42.3c-0.1,0-0.2,0-0.2,0s0,0-0.1,0l0,0l-0.2-0.1c-0.3-0.1-0.6-0.4-0.7-0.7c-0.1-0.3-0.1-0.7,0-1
								l0.7-1.8c0.2-0.7,0.9-1,1.6-0.8c0,0,0.1,0,0.2,0.1c0.3,0.1,0.6,0.4,0.7,0.7s0.1,0.7,0,1l-0.7,1.8C3.4,42,2.9,42.3,2.3,42.3z
								 M2.6,41L2.6,41L2.6,41z M3.3,39.2L3.3,39.2L3.3,39.2z M2.8,39.1L2.8,39.1L2.8,39.1z"/>
						</g>
					</g>
				</g>
			</g>
		</g>
		<g>
			<g>
				<path class="st1" d="M61.8,49.3c-0.1,0-0.1,0-0.2,0c-3.7-1-10.8-2.2-24.1-2.2c-0.1,0-0.2,0-0.3,0h-0.3h-0.3c-0.1,0-0.2,0-0.3,0
					c-13.2,0-20.4,1.2-24.1,2.2c-0.2,0.1-0.5,0-0.7-0.1s-0.3-0.3-0.3-0.6c-0.2-2-2.5-8-8.5-9.8c-0.2-0.1-0.4-0.2-0.5-0.4
					s-0.1-0.4,0-0.7C14.4,10.3,36.8,11,37,11c0.1,0,0.2,0,0.3,0.1C37.5,11.2,59,21,62.6,48.4c0,0.3-0.1,0.5-0.3,0.7
					C62.2,49.2,62,49.3,61.8,49.3z M4.2,37.6c5.4,2,8,7.1,8.6,10c4-1,11.2-2,23.6-2c0.1,0,0.2,0,0.3,0h0.6c12.3,0,19.5,1,23.6,1.9
					c-3.7-24.5-22.3-34-24.1-34.9c-0.9,0-5.9,0.1-12,2.9C18.7,18.2,10.2,24.3,4.2,37.6z"/>
			</g>
			<g>
				<path class="st1" d="M54.6,42.1L54.6,42.1c-4.9-0.6-10.5-0.8-16.9-0.8h-1.6c-2.9,0-10.1,0.1-16.1,0.6c-0.4,0.1-0.8-0.3-0.9-0.7
					c0-0.4,0.3-0.8,0.7-0.9c6-0.6,13.4-0.7,16.2-0.7h1.6c5.9,0,11.2,0.2,15.8,0.7c-1.2-3.7-2.8-8.4-4.7-11.1
					c-0.2-0.4-0.1-0.9,0.2-1.1c0.4-0.2,0.9-0.1,1.1,0.2c2.1,3.2,4,8.8,5.2,12.7c0.1,0.3,0,0.5-0.1,0.7C55.1,42,54.9,42.1,54.6,42.1z
					"/>
			</g>
		</g>
		<g>
			<path class="st1" d="M60.9,44.1c-0.2,0-0.5-0.1-0.6-0.3L41.6,19.9c-0.3-0.3-0.2-0.8,0.1-1.1c0.4-0.3,0.8-0.2,1.1,0.1l18.6,23.9
				c0.3,0.3,0.2,0.8-0.1,1.1C61.2,44.1,61,44.1,60.9,44.1z"/>
		</g>
		<g>
			<path class="st1" d="M12.5,49c-0.2,0-0.4-0.1-0.5-0.2c-0.3-0.3-0.4-0.7-0.1-1.1l22.5-33.1c0.2-0.3,0.7-0.5,1.1-0.2l7.2,4.3
				c0.2,0.1,0.4,0.3,0.4,0.6c0,0.2-0.1,0.5-0.2,0.7L13.1,48.8C12.9,48.9,12.7,49,12.5,49z M35.3,16.2l-17.8,26l23.4-22.7L35.3,16.2z
				"/>
		</g>
	</g>
	<g>
		<path class="st1" d="M12.2,49.3h-0.1c-0.4-0.1-0.7-0.5-0.7-0.9c3.5-27.4,25-37.2,25.3-37.3c0.4-0.2,0.9,0,1,0.4
			c0.2,0.4,0,0.9-0.4,1c-0.2,0.1-20.9,9.6-24.3,36.1C12.9,49,12.6,49.3,12.2,49.3z"/>
	</g>
</g>
</svg>
