<?xml version="1.0" encoding="utf-8"?>
<!-- Generator: Adobe Illustrator 19.2.1, SVG Export Plug-In . SVG Version: 6.00 Build 0)  -->
<svg version="1.1" id="Layer_1" xmlns="http://www.w3.org/2000/svg" xmlns:xlink="http://www.w3.org/1999/xlink" x="0px" y="0px"
	 viewBox="0 0 64 64" style="enable-background:new 0 0 64 64;" xml:space="preserve">
<metadata><?xpacket begin="﻿" id="W5M0MpCehiHzreSzNTczkc9d"?>
<x:xmpmeta xmlns:x="adobe:ns:meta/" x:xmptk="Adobe XMP Core 5.6-c111 79.158366, 2015/09/25-01:12:00        ">
   <rdf:RDF xmlns:rdf="http://www.w3.org/1999/02/22-rdf-syntax-ns#">
      <rdf:Description rdf:about=""/>
   </rdf:RDF>
</x:xmpmeta>
                                                                                                    
                                                                                                    
                                                                                                    
                                                                                                    
                                                                                                    
                                                                                                    
                                                                                                    
                                                                                                    
                                                                                                    
                                                                                                    
                                                                                                    
                                                                                                    
                                                                                                    
                                                                                                    
                                                                                                    
                                                                                                    
                                                                                                    
                                                                                                    
                                                                                                    
                                                                                                    
                           
<?xpacket end="w"?></metadata>
<style type="text/css">
	.st0{fill:none;}
	.st1{fill:#5B554D;}
</style>
<rect class="st0" width="64" height="64"/>
<g>
	<g>
		<g>
			<path class="st1" d="M61.9,57.3H15c-0.6,0-1.1-0.5-1.1-1.1s0.5-1.1,1.1-1.1h46.9c0.6,0,1.1,0.5,1.1,1.1S62.5,57.3,61.9,57.3z"/>
		</g>
		<g>
			<path class="st1" d="M7.4,57.3H2.1c-0.6,0-1.1-0.5-1.1-1.1s0.5-1.1,1.1-1.1h5.3c0.6,0,1.1,0.5,1.1,1.1S8,57.3,7.4,57.3z"/>
		</g>
	</g>
	<g>
		<g>
			<path class="st1" d="M61.9,45.2H15c-0.6,0-1.1-0.5-1.1-1.1c0-0.6,0.5-1.1,1.1-1.1h46.9c0.6,0,1.1,0.5,1.1,1.1
				C63,44.7,62.5,45.2,61.9,45.2z"/>
		</g>
		<g>
			<path class="st1" d="M7.4,45.2H2.1c-0.6,0-1.1-0.5-1.1-1.1C1,43.5,1.5,43,2.1,43h5.3c0.6,0,1.1,0.5,1.1,1.1
				C8.4,44.7,8,45.2,7.4,45.2z"/>
		</g>
	</g>
	<g>
		<g>
			<path class="st1" d="M61.9,33.1H15c-0.6,0-1.1-0.5-1.1-1.1c0-0.6,0.5-1.1,1.1-1.1h46.9c0.6,0,1.1,0.5,1.1,1.1
				C63,32.6,62.5,33.1,61.9,33.1z"/>
		</g>
		<g>
			<path class="st1" d="M7.4,33.1H2.1C1.5,33.1,1,32.6,1,32c0-0.6,0.5-1.1,1.1-1.1h5.3c0.6,0,1.1,0.5,1.1,1.1
				C8.4,32.6,8,33.1,7.4,33.1z"/>
		</g>
	</g>
	<g>
		<g>
			<path class="st1" d="M61.9,21H15c-0.6,0-1.1-0.5-1.1-1.1c0-0.6,0.5-1.1,1.1-1.1h46.9c0.6,0,1.1,0.5,1.1,1.1
				C63,20.5,62.5,21,61.9,21z"/>
		</g>
		<g>
			<path class="st1" d="M7.4,21H2.1C1.5,21,1,20.5,1,19.9c0-0.6,0.5-1.1,1.1-1.1h5.3c0.6,0,1.1,0.5,1.1,1.1C8.4,20.5,8,21,7.4,21z"
				/>
		</g>
	</g>
	<g>
		<g>
			<path class="st1" d="M61.9,8.9H15c-0.6,0-1.1-0.5-1.1-1.1s0.5-1.1,1.1-1.1h46.9c0.6,0,1.1,0.5,1.1,1.1S62.5,8.9,61.9,8.9z"/>
		</g>
		<g>
			<path class="st1" d="M7.4,8.9H2.1C1.5,8.9,1,8.4,1,7.8s0.5-1.1,1.1-1.1h5.3c0.6,0,1.1,0.5,1.1,1.1S8,8.9,7.4,8.9z"/>
		</g>
	</g>
</g>
</svg>
