<?xml version="1.0" encoding="utf-8"?>
<!-- Generator: Adobe Illustrator 19.2.1, SVG Export Plug-In . SVG Version: 6.00 Build 0)  -->
<svg version="1.1" id="Layer_1" xmlns="http://www.w3.org/2000/svg" xmlns:xlink="http://www.w3.org/1999/xlink" x="0px" y="0px"
	 viewBox="0 0 64 64" style="enable-background:new 0 0 64 64;" xml:space="preserve">
<metadata><?xpacket begin="﻿" id="W5M0MpCehiHzreSzNTczkc9d"?>
<x:xmpmeta xmlns:x="adobe:ns:meta/" x:xmptk="Adobe XMP Core 5.6-c111 79.158366, 2015/09/25-01:12:00        ">
   <rdf:RDF xmlns:rdf="http://www.w3.org/1999/02/22-rdf-syntax-ns#">
      <rdf:Description rdf:about=""/>
   </rdf:RDF>
</x:xmpmeta>
                                                                                                    
                                                                                                    
                                                                                                    
                                                                                                    
                                                                                                    
                                                                                                    
                                                                                                    
                                                                                                    
                                                                                                    
                                                                                                    
                                                                                                    
                                                                                                    
                                                                                                    
                                                                                                    
                                                                                                    
                                                                                                    
                                                                                                    
                                                                                                    
                                                                                                    
                                                                                                    
                           
<?xpacket end="w"?></metadata>
<style type="text/css">
	.st0{fill:none;}
	.st1{fill:#5B554D;}
</style>
<rect class="st0" width="64" height="64"/>
<g>
	<g>
		<g>
			<path class="st1" d="M52.8,48.4H20.7c-0.4,0-0.7-0.3-0.7-0.7s0.3-0.7,0.7-0.7h32.1c0.4,0,0.7,0.3,0.7,0.7S53.2,48.4,52.8,48.4z"
				/>
		</g>
		<g>
			<path class="st1" d="M15.7,48.4h-3.5c-0.4,0-0.7-0.3-0.7-0.7s0.3-0.7,0.7-0.7h3.5c0.4,0,0.7,0.3,0.7,0.7S16.1,48.4,15.7,48.4z"/>
		</g>
	</g>
	<g>
		<g>
			<path class="st1" d="M50.8,40.4H20.7c-0.4,0-0.7-0.3-0.7-0.7s0.3-0.7,0.7-0.7h30.1c0.4,0,0.7,0.3,0.7,0.7S51.2,40.4,50.8,40.4z"
				/>
		</g>
		<g>
			<path class="st1" d="M15.7,40.4h-3.5c-0.4,0-0.7-0.3-0.7-0.7s0.3-0.7,0.7-0.7h3.5c0.4,0,0.7,0.3,0.7,0.7S16.1,40.4,15.7,40.4z"/>
		</g>
	</g>
	<g>
		<g>
			<path class="st1" d="M48.8,32.4H20.7c-0.4,0-0.7-0.3-0.7-0.7s0.3-0.7,0.7-0.7h28.1c0.4,0,0.7,0.3,0.7,0.7S49.2,32.4,48.8,32.4z"
				/>
		</g>
		<g>
			<path class="st1" d="M15.7,32.4h-3.5c-0.4,0-0.7-0.3-0.7-0.7s0.3-0.7,0.7-0.7h3.5c0.4,0,0.7,0.3,0.7,0.7S16.1,32.4,15.7,32.4z"/>
		</g>
	</g>
	<g>
		<g>
			<path class="st1" d="M44.8,24.4H20.7c-0.4,0-0.7-0.3-0.7-0.7s0.3-0.7,0.7-0.7h24.1c0.4,0,0.7,0.3,0.7,0.7S45.2,24.4,44.8,24.4z"
				/>
		</g>
		<g>
			<path class="st1" d="M15.7,24.4h-3.5c-0.4,0-0.7-0.3-0.7-0.7s0.3-0.7,0.7-0.7h3.5c0.4,0,0.7,0.3,0.7,0.7S16.1,24.4,15.7,24.4z"/>
		</g>
	</g>
	<g>
		<path class="st1" d="M52.8,16.4H20.7c-0.4,0-0.7-0.3-0.7-0.7s0.3-0.7,0.7-0.7h32.1c0.4,0,0.7,0.3,0.7,0.7S53.2,16.4,52.8,16.4z"/>
	</g>
	<g>
		<path class="st1" d="M15.7,16.4h-3.5c-0.4,0-0.7-0.3-0.7-0.7s0.3-0.7,0.7-0.7h3.5c0.4,0,0.7,0.3,0.7,0.7S16.1,16.4,15.7,16.4z"/>
	</g>
</g>
</svg>
