<?xml version="1.0" encoding="utf-8"?>
<!-- Generator: Adobe Illustrator 19.2.1, SVG Export Plug-In . SVG Version: 6.00 Build 0)  -->
<svg version="1.1" id="Layer_1" xmlns="http://www.w3.org/2000/svg" xmlns:xlink="http://www.w3.org/1999/xlink" x="0px" y="0px"
	 viewBox="0 0 64 64" style="enable-background:new 0 0 64 64;" xml:space="preserve">
<metadata><?xpacket begin="﻿" id="W5M0MpCehiHzreSzNTczkc9d"?>
<x:xmpmeta xmlns:x="adobe:ns:meta/" x:xmptk="Adobe XMP Core 5.6-c111 79.158366, 2015/09/25-01:12:00        ">
   <rdf:RDF xmlns:rdf="http://www.w3.org/1999/02/22-rdf-syntax-ns#">
      <rdf:Description rdf:about=""/>
   </rdf:RDF>
</x:xmpmeta>
                                                                                                    
                                                                                                    
                                                                                                    
                                                                                                    
                                                                                                    
                                                                                                    
                                                                                                    
                                                                                                    
                                                                                                    
                                                                                                    
                                                                                                    
                                                                                                    
                                                                                                    
                                                                                                    
                                                                                                    
                                                                                                    
                                                                                                    
                                                                                                    
                                                                                                    
                                                                                                    
                           
<?xpacket end="w"?></metadata>
<style type="text/css">
	.st0{fill:none;}
	.st1{fill:#5B554D;}
</style>
<rect class="st0" width="64" height="64"/>
<g>
	<g>
		<g>
			<path class="st1" d="M33.2,63c-8.8,0-15.9-7-15.9-15.7c0-5.1,2.6-10,6.7-13V9.7C24,4.9,27.9,1,32.7,1s8.7,3.9,8.7,8.7v24.5
				c4.7,2.6,7.3,7.3,7.3,13.1C48.7,56.1,41.9,63,33.2,63z M32.7,2.6c-3.9,0-7.1,3.2-7.1,7.1v25c0,0.3-0.1,0.5-0.4,0.7
				c-3.9,2.7-6.3,7.2-6.3,11.9c0,7.7,6.4,14,14.3,14c7.8,0,13.9-6.2,13.9-14c0-5.4-2.4-9.6-6.8-11.9c-0.3-0.1-0.4-0.4-0.4-0.7v-25
				C39.8,5.8,36.6,2.6,32.7,2.6z"/>
		</g>
	</g>
	<g>
		<path class="st1" d="M32.1,52.9c-5.3,0-9.8-0.9-13.3-1.9c-0.4-0.1-0.7-0.6-0.6-1s0.6-0.7,1-0.6c6.2,1.8,16,3.2,27.4-0.6
			c0.4-0.1,0.9,0.1,1,0.5s-0.1,0.9-0.5,1C41.7,52.2,36.6,52.9,32.1,52.9z"/>
	</g>
	<g>
		<path class="st1" d="M20.2,9.1h-4.1c-0.5,0-0.8-0.4-0.8-0.8c0-0.5,0.4-0.8,0.8-0.8h4.1c0.5,0,0.8,0.4,0.8,0.8
			C21,8.7,20.7,9.1,20.2,9.1z"/>
	</g>
	<g>
		<path class="st1" d="M20.2,13.1h-4.1c-0.5,0-0.8-0.4-0.8-0.8c0-0.5,0.4-0.8,0.8-0.8h4.1c0.5,0,0.8,0.4,0.8,0.8
			C21,12.7,20.7,13.1,20.2,13.1z"/>
	</g>
	<g>
		<path class="st1" d="M20.2,17.1h-4.1c-0.5,0-0.8-0.4-0.8-0.8c0-0.5,0.4-0.8,0.8-0.8h4.1c0.5,0,0.8,0.4,0.8,0.8
			C21,16.8,20.7,17.1,20.2,17.1z"/>
	</g>
	<g>
		<path class="st1" d="M20.2,21.2h-4.1c-0.5,0-0.8-0.4-0.8-0.8c0-0.5,0.4-0.8,0.8-0.8h4.1c0.5,0,0.8,0.4,0.8,0.8
			C21,20.8,20.7,21.2,20.2,21.2z"/>
	</g>
	<g>
		<path class="st1" d="M20.2,25.2h-4.1c-0.5,0-0.8-0.4-0.8-0.8s0.4-0.8,0.8-0.8h4.1c0.5,0,0.8,0.4,0.8,0.8S20.7,25.2,20.2,25.2z"/>
	</g>
	<g>
		<path class="st1" d="M20.2,29.2h-4.1c-0.5,0-0.8-0.4-0.8-0.8c0-0.5,0.4-0.8,0.8-0.8h4.1c0.5,0,0.8,0.4,0.8,0.8
			C21,28.9,20.7,29.2,20.2,29.2z"/>
	</g>
	<g>
		<path class="st1" d="M20.2,33.3h-4.1c-0.5,0-0.8-0.4-0.8-0.8c0-0.5,0.4-0.8,0.8-0.8h4.1c0.5,0,0.8,0.4,0.8,0.8
			C21,32.9,20.7,33.3,20.2,33.3z"/>
	</g>
	<g>
		<path class="st1" d="M37,27.4c-1.9,0-3.8-0.5-5.5-1c-2.1-0.6-4.1-1.2-6-0.6c-0.4,0.1-0.9-0.1-1-0.6c-0.1-0.4,0.1-0.9,0.6-1
			c2.3-0.7,4.6,0,6.9,0.6c2.6,0.7,5.5,1.4,8,0.3c0.4-0.2,0.9,0,1.1,0.4c0.2,0.4,0,0.9-0.4,1.1C39.4,27.1,38.2,27.4,37,27.4z"/>
	</g>
</g>
</svg>
