<?xml version="1.0" encoding="utf-8"?>
<!-- Generator: Adobe Illustrator 19.2.1, SVG Export Plug-In . SVG Version: 6.00 Build 0)  -->
<svg version="1.1" id="Layer_1" xmlns="http://www.w3.org/2000/svg" xmlns:xlink="http://www.w3.org/1999/xlink" x="0px" y="0px"
	 viewBox="0 0 64 64" style="enable-background:new 0 0 64 64;" xml:space="preserve">
<metadata><?xpacket begin="﻿" id="W5M0MpCehiHzreSzNTczkc9d"?>
<x:xmpmeta xmlns:x="adobe:ns:meta/" x:xmptk="Adobe XMP Core 5.6-c111 79.158366, 2015/09/25-01:12:00        ">
   <rdf:RDF xmlns:rdf="http://www.w3.org/1999/02/22-rdf-syntax-ns#">
      <rdf:Description rdf:about=""/>
   </rdf:RDF>
</x:xmpmeta>
                                                                                                    
                                                                                                    
                                                                                                    
                                                                                                    
                                                                                                    
                                                                                                    
                                                                                                    
                                                                                                    
                                                                                                    
                                                                                                    
                                                                                                    
                                                                                                    
                                                                                                    
                                                                                                    
                                                                                                    
                                                                                                    
                                                                                                    
                                                                                                    
                                                                                                    
                                                                                                    
                           
<?xpacket end="w"?></metadata>
<style type="text/css">
	.st0{fill:none;}
	.st1{fill:#5B554D;}
</style>
<rect class="st0" width="64" height="64"/>
<g>
	<g>
		<g>
			<path class="st1" d="M36.9,63H5.1C4,63,3,62.5,2.4,61.7c-0.6-0.8-0.8-1.9-0.5-3c0,0,0.1-0.5,0.3-1.2c1-4.3,3.7-14.2,5.6-16.9
				c3.4-4.9,9.2-4.8,9.5-4.8l6,0c0.3,0,8-0.2,10.9,5c2.1,2.8,5.2,13.3,6.1,17.2l0.1,0.7c0.3,1.1,0.1,2.2-0.5,3
				C39.1,62.5,38.1,63,36.9,63z M17.1,37.6c-0.6,0-5.3,0.1-8,4C7.6,43.8,5,52.5,3.7,58c-0.2,0.7-0.2,1.1-0.2,1.1
				c-0.2,0.7-0.1,1.2,0.2,1.6s0.8,0.6,1.4,0.6h31.8c0.6,0,1.1-0.2,1.4-0.6c0.3-0.4,0.4-0.9,0.2-1.5c0,0,0,0,0-0.1l-0.1-0.7
				c-1-4.4-4-14.3-5.8-16.6c0,0-0.1-0.1-0.1-0.1c-2.4-4.3-9.3-4.2-9.4-4.2L17.1,37.6C17.1,37.6,17.1,37.6,17.1,37.6z M21,33.1
				c-7.3,0-13.2-5.9-13.2-13.2c0-7.3,5.9-13.2,13.2-13.2c7.3,0,13.2,5.9,13.2,13.2C34.2,27.1,28.2,33.1,21,33.1z M21,8.4
				c-6.3,0-11.5,5.1-11.5,11.5c0,6.3,5.1,11.5,11.5,11.5c6.3,0,11.5-5.2,11.5-11.5C32.4,13.5,27.3,8.4,21,8.4z"/>
		</g>
	</g>
	<g>
		<path class="st1" d="M39.9,27.6c-2.1,0-3.7-1.4-3.7-3.2c0-1.8,1.7-3.2,3.7-3.2c2.1,0,3.7,1.4,3.7,3.2
			C43.6,26.2,41.9,27.6,39.9,27.6z M39.9,23c-1.1,0-2,0.7-2,1.5c0,0.8,0.9,1.5,2,1.5c1.1,0,2-0.7,2-1.5C41.9,23.6,41,23,39.9,23z
			 M50.4,20.6c-6.6,0-11.9-4.4-11.9-9.8c0-5.4,5.3-9.8,11.9-9.8c6.6,0,11.9,4.4,11.9,9.8C62.3,16.2,57,20.6,50.4,20.6z M50.4,2.7
			c-5.6,0-10.2,3.6-10.2,8.1c0,4.5,4.6,8.1,10.2,8.1c5.6,0,10.2-3.6,10.2-8.1C60.6,6.3,56,2.7,50.4,2.7z"/>
	</g>
</g>
</svg>
