<?xml version="1.0" encoding="utf-8"?>
<!-- Generator: Adobe Illustrator 19.2.1, SVG Export Plug-In . SVG Version: 6.00 Build 0)  -->
<svg version="1.1" id="Layer_1" xmlns="http://www.w3.org/2000/svg" xmlns:xlink="http://www.w3.org/1999/xlink" x="0px" y="0px"
	 viewBox="0 0 64 64" style="enable-background:new 0 0 64 64;" xml:space="preserve">
<metadata><?xpacket begin="﻿" id="W5M0MpCehiHzreSzNTczkc9d"?>
<x:xmpmeta xmlns:x="adobe:ns:meta/" x:xmptk="Adobe XMP Core 5.6-c111 79.158366, 2015/09/25-01:12:00        ">
   <rdf:RDF xmlns:rdf="http://www.w3.org/1999/02/22-rdf-syntax-ns#">
      <rdf:Description rdf:about=""/>
   </rdf:RDF>
</x:xmpmeta>
                                                                                                    
                                                                                                    
                                                                                                    
                                                                                                    
                                                                                                    
                                                                                                    
                                                                                                    
                                                                                                    
                                                                                                    
                                                                                                    
                                                                                                    
                                                                                                    
                                                                                                    
                                                                                                    
                                                                                                    
                                                                                                    
                                                                                                    
                                                                                                    
                                                                                                    
                                                                                                    
                           
<?xpacket end="w"?></metadata>
<style type="text/css">
	.st0{fill:none;}
	.st1{fill:#5B554D;}
</style>
<rect class="st0" width="64" height="64"/>
<g>
	<g>
		<path class="st1" d="M10.6,63c-2.5,0-4.5-1.7-4.5-3.8c0-2.1,2-3.8,4.5-3.8c2.5,0,4.5,1.7,4.5,3.8C15,61.3,13,63,10.6,63z
			 M10.6,57.1c-1.6,0-2.8,1-2.8,2.1s1.3,2.1,2.8,2.1c1.6,0,2.8-1,2.8-2.1S12.1,57.1,10.6,57.1z M21.9,57.1c-4,0-7.3-2.7-7.3-6
			c0-3.3,3.3-6,7.3-6c4,0,7.3,2.7,7.3,6C29.2,54.4,25.9,57.1,21.9,57.1z M21.9,46.6c-3.1,0-5.6,2-5.6,4.4c0,2.4,2.5,4.4,5.6,4.4
			c3.1,0,5.6-2,5.6-4.4C27.5,48.6,25,46.6,21.9,46.6z M32.3,42.7c-14.1,0-25.6-9.3-25.6-20.8C6.7,10.3,18.2,1,32.3,1
			c14.1,0,25.6,9.3,25.6,20.8C57.9,33.3,46.4,42.7,32.3,42.7z M32.3,2.6c-13.2,0-23.9,8.6-23.9,19.2C8.4,32.4,19.1,41,32.3,41
			c13.2,0,23.9-8.6,23.9-19.2C56.3,11.2,45.5,2.6,32.3,2.6z"/>
	</g>
</g>
</svg>
