<?xml version="1.0" encoding="utf-8"?>
<!-- Generator: Adobe Illustrator 19.2.1, SVG Export Plug-In . SVG Version: 6.00 Build 0)  -->
<svg version="1.1" id="Layer_1" xmlns="http://www.w3.org/2000/svg" xmlns:xlink="http://www.w3.org/1999/xlink" x="0px" y="0px"
	 viewBox="0 0 64 64" style="enable-background:new 0 0 64 64;" xml:space="preserve">
<metadata><?xpacket begin="﻿" id="W5M0MpCehiHzreSzNTczkc9d"?>
<x:xmpmeta xmlns:x="adobe:ns:meta/" x:xmptk="Adobe XMP Core 5.6-c111 79.158366, 2015/09/25-01:12:00        ">
   <rdf:RDF xmlns:rdf="http://www.w3.org/1999/02/22-rdf-syntax-ns#">
      <rdf:Description rdf:about=""/>
   </rdf:RDF>
</x:xmpmeta>
                                                                                                    
                                                                                                    
                                                                                                    
                                                                                                    
                                                                                                    
                                                                                                    
                                                                                                    
                                                                                                    
                                                                                                    
                                                                                                    
                                                                                                    
                                                                                                    
                                                                                                    
                                                                                                    
                                                                                                    
                                                                                                    
                                                                                                    
                                                                                                    
                                                                                                    
                                                                                                    
                           
<?xpacket end="w"?></metadata>
<style type="text/css">
	.st0{fill:none;}
	.st1{fill:#5B554D;}
</style>
<rect class="st0" width="64" height="64"/>
<g>
	<g>
		<path class="st1" d="M37.7,56.4c-4.4,0-8-3-8-6.7c0-3.7,3.6-6.7,8-6.7c4.4,0,8,3,8,6.7C45.7,53.4,42.1,56.4,37.7,56.4z M37.7,44.7
			c-3.5,0-6.4,2.3-6.4,5c0,2.8,2.9,5,6.4,5c3.5,0,6.4-2.3,6.4-5C44.1,46.9,41.2,44.7,37.7,44.7z"/>
	</g>
	<g>
		<path class="st1" d="M25,63c-2.7,0-4.9-1.8-4.9-4.1c0-2.3,2.2-4.1,4.9-4.1s4.9,1.8,4.9,4.1C29.9,61.2,27.7,63,25,63z M25,56.4
			c-1.8,0-3.3,1.1-3.3,2.5c0,1.4,1.5,2.5,3.3,2.5c1.8,0,3.3-1.1,3.3-2.5C28.3,57.5,26.8,56.4,25,56.4z"/>
	</g>
	<g>
		<g>
			<path class="st1" d="M15.8,39.7l-7-0.1c-2-0.1-3.6-1.7-3.6-3.7V4.7c0-2,1.6-3.7,3.6-3.7l46.4,0c2.1,0,3.7,1.7,3.7,3.7V36
				c0,2-1.7,3.7-3.7,3.7L15.8,39.7z M55.1,2.6l-46.4,0c-1.1,0-2,0.9-2,2.1V36c0,1.1,0.9,2.1,2,2.1l7,0.1l17.7-0.1c0,0,0,0,0,0
				l21.7,0c1.2,0,2.1-0.9,2.1-2.1V4.7C57.3,3.6,56.3,2.6,55.1,2.6z"/>
		</g>
	</g>
</g>
</svg>
