<?xml version="1.0" encoding="utf-8"?>
<!-- Generator: Adobe Illustrator 19.2.1, SVG Export Plug-In . SVG Version: 6.00 Build 0)  -->
<svg version="1.1" id="Layer_1" xmlns="http://www.w3.org/2000/svg" xmlns:xlink="http://www.w3.org/1999/xlink" x="0px" y="0px"
	 viewBox="0 0 64 64" style="enable-background:new 0 0 64 64;" xml:space="preserve">
<metadata><?xpacket begin="﻿" id="W5M0MpCehiHzreSzNTczkc9d"?>
<x:xmpmeta xmlns:x="adobe:ns:meta/" x:xmptk="Adobe XMP Core 5.6-c111 79.158366, 2015/09/25-01:12:00        ">
   <rdf:RDF xmlns:rdf="http://www.w3.org/1999/02/22-rdf-syntax-ns#">
      <rdf:Description rdf:about=""/>
   </rdf:RDF>
</x:xmpmeta>
                                                                                                    
                                                                                                    
                                                                                                    
                                                                                                    
                                                                                                    
                                                                                                    
                                                                                                    
                                                                                                    
                                                                                                    
                                                                                                    
                                                                                                    
                                                                                                    
                                                                                                    
                                                                                                    
                                                                                                    
                                                                                                    
                                                                                                    
                                                                                                    
                                                                                                    
                                                                                                    
                           
<?xpacket end="w"?></metadata>
<style type="text/css">
	.st0{fill:none;}
	.st1{fill:#5B554D;}
</style>
<rect class="st0" width="64" height="64"/>
<g>
	<g>
		<g>
			<path class="st1" d="M50.7,16.6c-0.2,0-0.4-0.1-0.6-0.2l-3.3-3.3c-0.2-0.2-0.2-0.4-0.2-0.6c0-0.2,0.1-0.4,0.3-0.6l6.9-6.3
				c0.3-0.3,0.8-0.3,1.1,0l2.7,2.7c0.3,0.3,0.3,0.8,0,1.1l-6.3,6.9C51.1,16.5,50.9,16.6,50.7,16.6C50.7,16.6,50.7,16.6,50.7,16.6z
				 M48.6,12.5l2.1,2.1l5.2-5.7l-1.6-1.6L48.6,12.5z"/>
		</g>
		<g>
			<path class="st1" d="M25.9,32.4c-0.2,0-0.4-0.1-0.6-0.2l-7.7-7.7c-4.3,1.6-8.9,0.8-11.9-2.1c-3.1-3.1-3.8-7.9-2-12.3
				c0.1-0.3,0.3-0.4,0.6-0.5c0.3-0.1,0.5,0,0.7,0.2l6.2,6.1l4-1.5l1.5-4l-6.1-6.1c-0.2-0.2-0.3-0.5-0.2-0.7c0.1-0.3,0.2-0.5,0.5-0.6
				c4.4-1.9,9.3-1.1,12.3,2c3,3,3.8,7.6,2.2,11.8l7.7,7.7c0.2,0.2,0.2,0.4,0.2,0.6s-0.1,0.4-0.2,0.6l-6.6,6.6
				C26.3,32.4,26.1,32.4,25.9,32.4z M17.8,22.7c0.2,0,0.4,0.1,0.6,0.2l7.5,7.5l5.4-5.4l-7.5-7.5c-0.2-0.2-0.3-0.6-0.2-0.9
				c1.6-3.8,1-7.9-1.6-10.5c-2.3-2.3-5.9-3.1-9.3-2l5.6,5.6c0.2,0.2,0.3,0.6,0.2,0.9l-1.8,4.9c-0.1,0.2-0.3,0.4-0.5,0.5l-4.9,1.8
				c-0.3,0.1-0.6,0-0.9-0.2l-5.6-5.6c-1,3.4-0.3,7,2,9.3c2.6,2.6,6.8,3.2,10.6,1.6C17.6,22.7,17.7,22.7,17.8,22.7z"/>
		</g>
		<g>
			<path class="st1" d="M50,62c-2.8,0-5.5-1-7.5-3c-3-3-3.8-7.6-2.2-11.8l-9.4-9.4c-0.2-0.2-0.2-0.4-0.2-0.6s0.1-0.4,0.2-0.6
				l6.6-6.6c0.3-0.3,0.8-0.3,1.2,0l9.4,9.4c4.3-1.6,8.9-0.8,11.9,2.1l0,0c3.1,3.1,3.9,7.9,2,12.3c-0.1,0.3-0.3,0.4-0.6,0.5
				c-0.3,0.1-0.5,0-0.7-0.2L54.5,48l-4,1.5l-1.5,4l6.2,6.1c0.2,0.2,0.3,0.5,0.2,0.7c-0.1,0.3-0.2,0.5-0.5,0.6
				C53.2,61.6,51.6,62,50,62z M32.7,37.2l9.2,9.2c0.2,0.2,0.3,0.6,0.2,0.9c-1.6,3.8-1,7.9,1.6,10.5c2.3,2.3,5.9,3.1,9.3,2l-5.6-5.6
				c-0.2-0.2-0.3-0.6-0.2-0.9l1.8-4.9c0.1-0.2,0.3-0.4,0.5-0.5l4.9-1.8c0.3-0.1,0.6,0,0.9,0.2l5.6,5.6c1-3.4,0.3-7-2-9.3l0,0
				c-2.6-2.6-6.8-3.2-10.6-1.6c-0.3,0.1-0.7,0.1-0.9-0.2l-9.2-9.2L32.7,37.2z"/>
		</g>
		<g>
			<path class="st1" d="M9.2,62.1c-1.5,0-3-0.6-4.1-1.7l-2.5-2.5C1.6,56.8,1,55.4,1,53.8c0-1.5,0.6-3,1.7-4.1l13.5-13.4
				c0.3-0.3,0.8-0.3,1.2,0l9.5,9.4c0.2,0.2,0.2,0.4,0.2,0.6s-0.1,0.4-0.2,0.6L13.3,60.4C12.2,61.5,10.7,62.1,9.2,62.1z M16.8,38.1
				L3.9,50.9c-0.8,0.8-1.2,1.8-1.2,2.9c0,1.1,0.4,2.1,1.2,2.9l2.5,2.5c1.6,1.6,4.2,1.6,5.8,0l12.9-12.9L16.8,38.1z"/>
		</g>
	</g>
	<g>
		<path class="st1" d="M21.5,42.4c-0.2,0-0.4-0.1-0.6-0.2c-0.3-0.3-0.3-0.8,0-1.2l27.5-27.4c0.3-0.3,0.8-0.3,1.2,0
			c0.3,0.3,0.3,0.8,0,1.2L22,42.2C21.9,42.3,21.7,42.4,21.5,42.4z"/>
	</g>
</g>
</svg>
