<?xml version="1.0" encoding="utf-8"?>
<!-- Generator: Adobe Illustrator 19.2.1, SVG Export Plug-In . SVG Version: 6.00 Build 0)  -->
<svg version="1.1" id="Layer_1" xmlns="http://www.w3.org/2000/svg" xmlns:xlink="http://www.w3.org/1999/xlink" x="0px" y="0px"
	 viewBox="0 0 64 64" style="enable-background:new 0 0 64 64;" xml:space="preserve">
<metadata><?xpacket begin="﻿" id="W5M0MpCehiHzreSzNTczkc9d"?>
<x:xmpmeta xmlns:x="adobe:ns:meta/" x:xmptk="Adobe XMP Core 5.6-c111 79.158366, 2015/09/25-01:12:00        ">
   <rdf:RDF xmlns:rdf="http://www.w3.org/1999/02/22-rdf-syntax-ns#">
      <rdf:Description rdf:about=""/>
   </rdf:RDF>
</x:xmpmeta>
                                                                                                    
                                                                                                    
                                                                                                    
                                                                                                    
                                                                                                    
                                                                                                    
                                                                                                    
                                                                                                    
                                                                                                    
                                                                                                    
                                                                                                    
                                                                                                    
                                                                                                    
                                                                                                    
                                                                                                    
                                                                                                    
                                                                                                    
                                                                                                    
                                                                                                    
                                                                                                    
                           
<?xpacket end="w"?></metadata>
<style type="text/css">
	.st0{fill:none;}
	.st1{fill:#5B554D;}
</style>
<rect class="st0" width="64" height="64"/>
<g>
	<g>
		<path class="st1" d="M33.3,4.4c15.3,0,27.8,5.3,27.8,11.8c0,1.9-1.1,3.8-3.1,5.4c-2.4-5.4-12.9-9.3-25.8-9.3
			c-11.8,0-21.5,3.3-25,8c-1.1-1.3-1.7-2.6-1.7-4C5.6,9.7,18,4.4,33.3,4.4 M28.4,25.4c13.2,0,22,4.5,22,8.7c0,2-2,4.1-5.5,5.7
			C43,35.4,34.5,32.1,24,32.1c-7.1,0-13.3,1.5-17.1,3.9c-0.4-0.6-0.6-1.2-0.6-1.8C6.4,30,15.2,25.4,28.4,25.4 M17.4,44.2
			c7.7,0,13,2.6,13,4.9c0,1.8-3,3.7-7.8,4.5c0-0.1,0-0.2,0-0.4c0-2.9-4.7-5.2-10.8-5.2c-2.9,0-5.5,0.5-7.4,1.3c0-0.1,0-0.2,0-0.3
			C4.4,46.8,9.8,44.2,17.4,44.2 M7.5,56.8c3,0,4.6,1,4.6,1.4s-1.6,1.4-4.6,1.4s-4.6-1-4.6-1.4C2.9,57.8,4.5,56.8,7.5,56.8 M33.3,2.5
			C16.4,2.5,3.7,8.4,3.7,16.2c0,1.8,0.7,3.6,2.2,5.3c0.4,0.4,0.9,0.7,1.4,0.7h0.1c0.6,0,1.1-0.3,1.4-0.8c2.6-3.6,10.9-7.2,23.4-7.2
			c13.4,0,22.2,4.1,24,8.2c0.2,0.5,0.7,0.9,1.3,1.1c0.1,0,0.3,0,0.4,0c0.4,0,0.9-0.1,1.2-0.4c2.5-2,3.8-4.4,3.8-6.8
			C63,8.4,50.2,2.5,33.3,2.5L33.3,2.5z M28.4,23.5C15,23.5,4.5,28.2,4.5,34.2c0,0.9,0.3,1.9,0.8,2.8c0.3,0.4,0.7,0.8,1.2,0.9
			C6.7,37.9,6.8,38,7,38c0.3,0,0.7-0.1,1-0.3c3.7-2.2,9.7-3.6,16.1-3.6c10.6,0,17.8,3.4,19.1,6.5c0.2,0.5,0.6,0.8,1.1,1
			c0.2,0.1,0.4,0.1,0.7,0.1s0.5-0.1,0.8-0.2c4.2-2,6.6-4.6,6.6-7.4C52.3,28.2,41.8,23.5,28.4,23.5L28.4,23.5z M17.4,42.3
			c-8.5,0-14.9,2.9-14.9,6.8c0,0.3,0,0.5,0.1,0.6c0.1,0.6,0.5,1.1,1,1.3c0.3,0.2,0.6,0.2,0.9,0.2c0.2,0,0.5,0,0.7-0.1
			c1.7-0.7,4.1-1.2,6.6-1.2c5.5,0,8.9,1.9,8.9,3.3l0,0v0.1c-0.1,0.6,0.1,1.2,0.6,1.6c0.4,0.3,0.8,0.5,1.3,0.5c0.1,0,0.2,0,0.3,0
			c5.8-1,9.4-3.4,9.4-6.4C32.3,45.3,25.9,42.3,17.4,42.3L17.4,42.3z M7.5,54.9C4.3,54.9,1,56,1,58.2s3.3,3.3,6.5,3.3
			s6.5-1.1,6.5-3.3S10.8,54.9,7.5,54.9L7.5,54.9z"/>
	</g>
	<g>
		<path class="st1" d="M32.3,14.3c13.2,0,24.3,4.5,24.3,9.7c0,2.3-2.2,4.5-5.8,6.2c-3.5-4-12-6.8-22.3-6.8c-7.7,0-14.4,1.5-18.8,4
			C8.6,26.3,8,25.2,8,24C7.9,18.7,19.1,14.3,32.3,14.3 M24.1,34.2c11.5,0,19.3,3.9,19.3,7.6c0,2.7-4.2,5.5-11,6.8
			c-0.6-3.7-6.8-6.4-14.9-6.4c-4.6,0-8.5,0.9-11.2,2.3c-0.9-0.9-1.4-1.8-1.4-2.7C4.8,38.1,12.5,34.2,24.1,34.2 M11.8,50.1
			c5.4,0,8.8,1.9,8.8,3.2c0,1.2-2.9,2.8-7.4,3.1c-1.2-1-3.5-1.6-5.7-1.6c-0.9,0-1.8,0.1-2.7,0.3C3.7,54.5,3,53.9,3,53.3
			C3,52,6.4,50.1,11.8,50.1 M32.3,12.4C19.4,12.4,6,16.7,6,24c0,1.7,0.7,3.3,2.2,4.8c0.4,0.4,0.9,0.6,1.4,0.6c0.3,0,0.6-0.1,0.9-0.2
			c4.2-2.4,10.8-3.7,17.9-3.7c9.3,0,17.7,2.5,20.9,6.1c0.4,0.4,0.9,0.7,1.4,0.7c0.3,0,0.5-0.1,0.8-0.2c5.7-2.7,6.9-5.8,6.9-7.9
			C58.5,16.7,45.1,12.4,32.3,12.4L32.3,12.4z M24.1,32.3c-11.9,0-21.2,4.2-21.2,9.5c0,1,0.3,2.5,2,4.1c0.4,0.4,0.8,0.5,1.3,0.5
			c0.3,0,0.6-0.1,0.9-0.2c2.5-1.3,6.3-2,10.4-2c7.6,0,12.7,2.5,13.1,4.8c0.1,0.5,0.4,1,0.8,1.3c0.3,0.2,0.7,0.3,1.1,0.3
			c0.1,0,0.2,0,0.4,0c7.7-1.5,12.5-4.8,12.5-8.7C45.2,36.4,35.9,32.3,24.1,32.3L24.1,32.3z M11.8,48.2c-6.1,0-10.7,2.2-10.7,5.1
			c0,0.9,0.5,2.3,2.9,3.5C4.3,56.9,4.6,57,4.9,57c0.1,0,0.2,0,0.4,0c0.7-0.1,1.5-0.2,2.3-0.2c2.2,0,3.8,0.6,4.5,1.1
			c0.3,0.3,0.8,0.5,1.2,0.5h0.1c4.4-0.3,9.2-2,9.2-5C22.5,50.4,17.9,48.2,11.8,48.2L11.8,48.2z"/>
	</g>
</g>
</svg>
