<?xml version="1.0" encoding="utf-8"?>
<!-- Generator: Adobe Illustrator 19.2.1, SVG Export Plug-In . SVG Version: 6.00 Build 0)  -->
<svg version="1.1" id="Layer_1" xmlns="http://www.w3.org/2000/svg" xmlns:xlink="http://www.w3.org/1999/xlink" x="0px" y="0px"
	 viewBox="0 0 64 64" style="enable-background:new 0 0 64 64;" xml:space="preserve">
<metadata><?xpacket begin="﻿" id="W5M0MpCehiHzreSzNTczkc9d"?>
<x:xmpmeta xmlns:x="adobe:ns:meta/" x:xmptk="Adobe XMP Core 5.6-c111 79.158366, 2015/09/25-01:12:00        ">
   <rdf:RDF xmlns:rdf="http://www.w3.org/1999/02/22-rdf-syntax-ns#">
      <rdf:Description rdf:about=""/>
   </rdf:RDF>
</x:xmpmeta>
                                                                                                    
                                                                                                    
                                                                                                    
                                                                                                    
                                                                                                    
                                                                                                    
                                                                                                    
                                                                                                    
                                                                                                    
                                                                                                    
                                                                                                    
                                                                                                    
                                                                                                    
                                                                                                    
                                                                                                    
                                                                                                    
                                                                                                    
                                                                                                    
                                                                                                    
                                                                                                    
                           
<?xpacket end="w"?></metadata>
<style type="text/css">
	.st0{fill:none;}
	.st1{fill:#5B554D;}
</style>
<rect class="st0" width="64" height="64"/>
<g>
	<g>
		<g>
			<g>
				<path class="st1" d="M49.8,63c-0.2,0-0.5-0.1-0.6-0.3L40.8,48c-0.2-0.3-0.1-0.8,0.3-0.9c0.3-0.2,0.8-0.1,0.9,0.3L50.4,62
					c0.2,0.3,0.1,0.8-0.3,0.9C50,63,49.9,63,49.8,63z M14,63c-0.1,0-0.2,0-0.3-0.1c-0.3-0.2-0.4-0.6-0.2-0.9L22,47.3
					c0.2-0.3,0.6-0.4,0.9-0.2s0.4,0.6,0.2,0.9l-8.5,14.7C14.5,62.9,14.3,63,14,63z"/>
			</g>
		</g>
		<g>
			<g>
				<path class="st1" d="M49.7,43.6H14.3c-0.2,0-0.5-0.1-0.6-0.3c-2-3.5-3.1-7.6-3.1-11.7v-9.3l0,0l0,0c0-0.1,0-0.2,0.1-0.3l0,0
					c0.1-0.9,0.2-2.4,0.4-3.6c0,0,0,0,0-0.1c0-0.3,0.1-0.5,0.2-0.7C11.8,15.9,14.8,6.4,15,6c0.6-1.8,1.8-3,3.7-3.7
					C21.8,1.2,28.4,1,32,1c4.4,0,10.4,0.2,13.4,1.3C47.3,3,48.5,4.2,49.1,6c0.1,0.4,3.2,9.9,3.7,11.6c0.3,1.2,0.5,3.3,0.6,4.4l0,0
					c0,0.1,0.1,0.2,0.1,0.3v9.3c0,4.1-1.1,8.2-3.1,11.7C50.2,43.4,49.9,43.6,49.7,43.6z M14.7,42.2h34.6C51.1,39,52,35.3,52,31.6v-9
					c0-0.2,0-0.3-0.1-0.5c-0.1-0.9-0.2-3-0.5-4.1l0,0C51,16.3,47.8,6.5,47.8,6.4C47.3,5,46.4,4.1,45,3.6c-3-1.1-9.4-1.2-13-1.2
					s-9.9,0.2-13,1.2c-1.5,0.5-2.4,1.4-2.8,2.8c0,0.1-3.2,9.9-3.7,11.6c-0.1,0.2-0.1,0.4-0.1,0.6l0,0l0,0c-0.2,1.1-0.3,2.6-0.4,3.4
					c0,0.2,0,0.4-0.1,0.5v9C12,35.3,12.9,38.9,14.7,42.2z"/>
			</g>
		</g>
		<g>
			<path class="st1" d="M18.6,31.3c-1.4,0-2.5,1.1-2.5,2.5s1.1,2.5,2.5,2.5s2.5-1.1,2.5-2.5C21.1,32.4,20,31.3,18.6,31.3z
				 M45.4,31.3c-1.4,0-2.5,1.1-2.5,2.5s1.1,2.5,2.5,2.5s2.5-1.1,2.5-2.5C47.8,32.4,46.7,31.3,45.4,31.3z"/>
		</g>
		<g>
			<path class="st1" d="M29.9,5.2V15H16.4c0.9-3,2.1-6.6,2.4-7.5l0.1-0.2c0.2-0.5,0.4-0.8,1.1-1C21.6,5.7,25.3,5.3,29.9,5.2
				 M34.1,5.2c4.7,0.1,8.3,0.5,10,1.1c0.7,0.3,0.9,0.6,1.1,1c0,0,1.4,4.3,2.5,7.7H34.1V5.2 M32.7,3.8v12.6h16.8
				c-1.1-3.4-3-9.5-3-9.5c-0.3-0.9-0.9-1.5-2-1.9C42.5,4.2,38.2,3.8,32.7,3.8L32.7,3.8z M31.3,3.8c-5.5,0-9.8,0.4-11.8,1.2
				c-1.1,0.4-1.6,0.9-2,1.9c0,0.1-2,6.1-3,9.5h16.8V3.8L31.3,3.8z"/>
		</g>
	</g>
	<g>
		<path class="st1" d="M41.7,49.8H21.9c-0.4,0-0.7-0.3-0.7-0.7s0.3-0.7,0.7-0.7h19.8c0.4,0,0.7,0.3,0.7,0.7
			C42.4,49.5,42.1,49.8,41.7,49.8z"/>
	</g>
	<g>
		<path class="st1" d="M44.9,54.7h-26c-0.4,0-0.7-0.3-0.7-0.7s0.3-0.7,0.7-0.7H45c0.4,0,0.7,0.3,0.7,0.7
			C45.6,54.4,45.3,54.7,44.9,54.7z"/>
	</g>
	<g>
		<path class="st1" d="M47.6,59.6H16c-0.4,0-0.7-0.3-0.7-0.7s0.3-0.7,0.7-0.7h31.5c0.4,0,0.7,0.3,0.7,0.7S47.9,59.6,47.6,59.6z"/>
	</g>
	<g>
		<path class="st1" d="M41,34.6H23.2c-0.4,0-0.7-0.3-0.7-0.7s0.3-0.7,0.7-0.7H41c0.4,0,0.7,0.3,0.7,0.7S41.4,34.6,41,34.6z"/>
	</g>
</g>
</svg>
