<?xml version="1.0" encoding="utf-8"?>
<!-- Generator: Adobe Illustrator 19.2.1, SVG Export Plug-In . SVG Version: 6.00 Build 0)  -->
<svg version="1.1" id="Layer_1" xmlns="http://www.w3.org/2000/svg" xmlns:xlink="http://www.w3.org/1999/xlink" x="0px" y="0px"
	 viewBox="0 0 64 64" style="enable-background:new 0 0 64 64;" xml:space="preserve">
<metadata><?xpacket begin="﻿" id="W5M0MpCehiHzreSzNTczkc9d"?>
<x:xmpmeta xmlns:x="adobe:ns:meta/" x:xmptk="Adobe XMP Core 5.6-c111 79.158366, 2015/09/25-01:12:00        ">
   <rdf:RDF xmlns:rdf="http://www.w3.org/1999/02/22-rdf-syntax-ns#">
      <rdf:Description rdf:about=""/>
   </rdf:RDF>
</x:xmpmeta>
                                                                                                    
                                                                                                    
                                                                                                    
                                                                                                    
                                                                                                    
                                                                                                    
                                                                                                    
                                                                                                    
                                                                                                    
                                                                                                    
                                                                                                    
                                                                                                    
                                                                                                    
                                                                                                    
                                                                                                    
                                                                                                    
                                                                                                    
                                                                                                    
                                                                                                    
                                                                                                    
                           
<?xpacket end="w"?></metadata>
<style type="text/css">
	.st0{fill:none;}
	.st1{fill:#5C564E;}
</style>
<rect class="st0" width="64" height="64"/>
<g>
	<g>
		<g>
			<path class="st1" d="M44.7,62.5H19.1c-4.4,0-8.1-3.6-8.1-8.1L9.4,11.7c0-0.5,0.4-1,0.9-1c0.5,0,1,0.4,1,0.9L13,54.4
				c0,3.4,2.8,6.2,6.1,6.2h25.6c3.4,0,6.1-2.8,6.1-6.2l1.7-42.9c0-0.5,0.4-1,1-0.9c0.5,0,0.9,0.5,0.9,1l-1.7,42.8
				C52.7,58.9,49.1,62.5,44.7,62.5z"/>
		</g>
	</g>
	<g>
		<g>
			<path class="st1" d="M23.2,46.4c-0.5,0-1-0.4-1-1V24.9c0-0.5,0.4-1,1-1c0.5,0,1,0.4,1,1v20.6C24.1,46,23.7,46.4,23.2,46.4z"/>
		</g>
		<g>
			<path class="st1" d="M40.6,46.4c-0.5,0-1-0.4-1-1V24.9c0-0.5,0.4-1,1-1c0.5,0,1,0.4,1,1v20.6C41.6,46,41.1,46.4,40.6,46.4z"/>
		</g>
		<g>
			<path class="st1" d="M31.9,52c-0.5,0-1-0.4-1-1V19.4c0-0.5,0.4-1,1-1c0.5,0,1,0.4,1,1V51C32.9,51.5,32.4,52,31.9,52z"/>
		</g>
	</g>
	<g>
		<path class="st1" d="M61.9,9.8H2.1c-0.5,0-1-0.4-1-1s0.4-1,1-1h59.7c0.5,0,1,0.4,1,1S62.4,9.8,61.9,9.8z"/>
	</g>
	<g>
		<path class="st1" d="M41.6,8.6c-0.5,0-1-0.4-1-1V4.2c0-1-0.8-1.8-1.8-1.8H25.1c-1,0-1.8,0.8-1.8,1.8v3.5c0,0.5-0.4,1-1,1
			c-0.5,0-1-0.4-1-1V4.2c0-2,1.7-3.7,3.7-3.7h13.7c2,0,3.7,1.6,3.7,3.7v3.5C42.5,8.2,42.1,8.6,41.6,8.6z"/>
	</g>
</g>
</svg>
