<?xml version="1.0" encoding="utf-8"?>
<!-- Generator: Adobe Illustrator 19.2.1, SVG Export Plug-In . SVG Version: 6.00 Build 0)  -->
<svg version="1.1" id="Layer_1" xmlns="http://www.w3.org/2000/svg" xmlns:xlink="http://www.w3.org/1999/xlink" x="0px" y="0px"
	 viewBox="0 0 64 64" style="enable-background:new 0 0 64 64;" xml:space="preserve">
<metadata><?xpacket begin="﻿" id="W5M0MpCehiHzreSzNTczkc9d"?>
<x:xmpmeta xmlns:x="adobe:ns:meta/" x:xmptk="Adobe XMP Core 5.6-c111 79.158366, 2015/09/25-01:12:00        ">
   <rdf:RDF xmlns:rdf="http://www.w3.org/1999/02/22-rdf-syntax-ns#">
      <rdf:Description rdf:about=""/>
   </rdf:RDF>
</x:xmpmeta>
                                                                                                    
                                                                                                    
                                                                                                    
                                                                                                    
                                                                                                    
                                                                                                    
                                                                                                    
                                                                                                    
                                                                                                    
                                                                                                    
                                                                                                    
                                                                                                    
                                                                                                    
                                                                                                    
                                                                                                    
                                                                                                    
                                                                                                    
                                                                                                    
                                                                                                    
                                                                                                    
                           
<?xpacket end="w"?></metadata>
<style type="text/css">
	.st0{fill:none;}
	.st1{fill:#5B554D;}
</style>
<rect class="st0" width="64" height="64"/>
<g>
	<g>
		<path class="st1" d="M58.4,53.6H5.6C3,53.6,1,51.5,1,49V15c0-2.5,2-4.6,4.6-4.6h52.9c2.5,0,4.6,2,4.6,4.6v34
			C63,51.5,61,53.6,58.4,53.6z M5.6,12.2c-1.5,0-2.8,1.3-2.8,2.8v34c0,1.5,1.2,2.8,2.8,2.8h52.9c1.5,0,2.8-1.3,2.8-2.8V15
			c0-1.5-1.2-2.8-2.8-2.8H5.6z"/>
	</g>
	<g>
		<path class="st1" d="M26.2,48.3c-8.8,0-15.9-7.1-15.9-15.9s7.1-15.9,15.9-15.9c4.9,0,9.5,2.2,12.5,6.1c0.3,0.4,0.2,0.9-0.1,1.2
			c-0.4,0.3-0.9,0.2-1.2-0.1c-2.7-3.4-6.8-5.4-11.1-5.4c-7.8,0-14.2,6.3-14.2,14.2s6.3,14.2,14.2,14.2c7.8,0,14.1-6.3,14.1-14.2
			c0-0.6,0-1.1-0.1-1.7c-0.1-0.5,0.3-0.9,0.8-1c0.5-0.1,0.9,0.3,1,0.8c0.1,0.6,0.1,1.3,0.1,1.9C42.1,41.2,35,48.3,26.2,48.3z"/>
	</g>
	<path class="st1" d="M26.2,28c2.2,0,4.1,1.7,4.4,3.9c0.3,2.4-1.5,4.6-3.9,4.8c-0.2,0-0.3,0-0.5,0c-2.2,0-4.1-1.7-4.4-3.9
		c-0.3-2.4,1.5-4.6,3.9-4.8C25.9,28,26,28,26.2,28 M26.2,26.2C26.2,26.2,26.2,26.2,26.2,26.2c-0.2,0-0.5,0-0.7,0
		c-3.4,0.4-5.8,3.4-5.4,6.8c0.3,3.1,3,5.5,6.1,5.5c0.2,0,0.5,0,0.7,0c1.6-0.2,3.1-1,4.1-2.3c1-1.3,1.5-2.9,1.3-4.5
		C31.9,28.6,29.3,26.2,26.2,26.2L26.2,26.2z"/>
	<g>
		<path class="st1" d="M43.6,24.2c-0.2,0-0.4,0-0.5,0c-1.2-0.1-2.2-0.7-2.9-1.6c-0.7-0.9-1-2.1-0.9-3.2c0.1-1.2,0.7-2.2,1.6-2.9
			c0.9-0.7,2.1-1,3.2-0.9c2.4,0.3,4.1,2.5,3.8,4.9c0,0,0,0,0,0C47.6,22.6,45.8,24.2,43.6,24.2z M43.6,17.3c-0.6,0-1.1,0.2-1.6,0.5
			c-0.5,0.4-0.9,1-1,1.7c-0.1,0.7,0.1,1.4,0.5,1.9c0.4,0.5,1,0.9,1.7,1c1.4,0.2,2.7-0.8,2.9-2.2s-0.8-2.7-2.2-2.9
			C43.8,17.3,43.7,17.3,43.6,17.3z M47,20.3L47,20.3L47,20.3z"/>
	</g>
	<g>
		<path class="st1" d="M51.2,50.7c-0.5,0-0.9-0.4-0.9-0.9V14.5c0-0.5,0.4-0.9,0.9-0.9s0.9,0.4,0.9,0.9v35.4
			C52.1,50.3,51.7,50.7,51.2,50.7z"/>
	</g>
	<g>
		<g>
			<path class="st1" d="M29.5,41.5c-0.3,0-0.5-0.1-0.7-0.3c-0.3-0.4-0.2-0.9,0.1-1.2l5.7-4.6c0.2-0.2,0.3-0.3,0.4-0.5l6.1-12.1
				c0.2-0.4,0.8-0.6,1.2-0.4c0.4,0.2,0.6,0.8,0.4,1.2l-6.1,12.1c-0.2,0.4-0.4,0.7-0.8,1l-5.7,4.6C29.9,41.4,29.7,41.5,29.5,41.5z"/>
		</g>
	</g>
	<g>
		<g>
			<path class="st1" d="M45.3,17.6c-0.1,0-0.2,0-0.4-0.1c-0.4-0.2-0.6-0.7-0.4-1.2l1.1-2.4c0.2-0.4,0.7-0.6,1.2-0.4
				c0.4,0.2,0.6,0.7,0.4,1.2l-1.1,2.4C45.9,17.4,45.6,17.6,45.3,17.6z"/>
		</g>
	</g>
	<circle class="st1" cx="56.8" cy="19.6" r="2.5"/>
	<circle class="st1" cx="56.8" cy="39.8" r="1.4"/>
	<circle class="st1" cx="56.8" cy="45.1" r="1.4"/>
</g>
</svg>
