<?xml version="1.0" encoding="utf-8"?>
<!-- Generator: Adobe Illustrator 19.2.1, SVG Export Plug-In . SVG Version: 6.00 Build 0)  -->
<svg version="1.1" id="Layer_1" xmlns="http://www.w3.org/2000/svg" xmlns:xlink="http://www.w3.org/1999/xlink" x="0px" y="0px"
	 viewBox="0 0 64 64" style="enable-background:new 0 0 64 64;" xml:space="preserve">
<metadata><?xpacket begin="﻿" id="W5M0MpCehiHzreSzNTczkc9d"?>
<x:xmpmeta xmlns:x="adobe:ns:meta/" x:xmptk="Adobe XMP Core 5.6-c111 79.158366, 2015/09/25-01:12:00        ">
   <rdf:RDF xmlns:rdf="http://www.w3.org/1999/02/22-rdf-syntax-ns#">
      <rdf:Description rdf:about=""/>
   </rdf:RDF>
</x:xmpmeta>
                                                                                                    
                                                                                                    
                                                                                                    
                                                                                                    
                                                                                                    
                                                                                                    
                                                                                                    
                                                                                                    
                                                                                                    
                                                                                                    
                                                                                                    
                                                                                                    
                                                                                                    
                                                                                                    
                                                                                                    
                                                                                                    
                                                                                                    
                                                                                                    
                                                                                                    
                                                                                                    
                           
<?xpacket end="w"?></metadata>
<style type="text/css">
	.st0{fill:none;}
	.st1{fill:#5B554D;}
</style>
<rect class="st0" width="64" height="64"/>
<g>
	<g>
		<g>
			<g>
				<path class="st1" d="M19.8,57.3c-1,0-2-0.3-2.9-0.8c-0.4-0.2-0.5-0.7-0.3-1.1s0.7-0.5,1.1-0.3c0.9,0.6,2,0.7,2.9,0.5
					c1-0.2,1.8-0.9,2.4-1.8l25.9-42.7c0.2-0.4,0.7-0.5,1.1-0.3c0.4,0.2,0.5,0.7,0.3,1.1L24.3,54.7c-0.8,1.3-2,2.2-3.4,2.5
					C20.6,57.3,20.2,57.3,19.8,57.3z"/>
			</g>
		</g>
		<g>
			<path class="st1" d="M59.4,45.6c0,0-0.1,0-0.1,0c-0.3-0.1-0.6-0.3-0.7-0.7c-0.3-2-1.5-3.7-3.2-4.7c-2-1.2-4.6-1.3-6.7-0.1
				c0,0-0.1,0-0.1,0.1c-0.3,0.1-0.6,0.1-0.8,0c-0.2-0.2-0.4-0.4-0.4-0.7c0.1-2.5-1.1-4.8-3.2-6.1c-1.6-1-4.4-1.3-6.3-0.8
				c-0.2,0.2-0.5,0.3-0.8,0.3c-0.3-0.1-0.6-0.4-0.6-0.7c-0.2-2.6-1.9-4.7-3.5-5.7c-2.1-1.3-4.7-1.3-6.8-0.1c-0.3,0.1-0.6,0.1-0.8,0
				c-0.3-0.2-0.4-0.4-0.4-0.7c0,0,0-0.1,0-0.1c0.1-2.4-1.2-4.7-3.2-5.9c-1.7-1-3.8-1.3-5.6-0.6c-0.3,0.1-0.7,0-0.9-0.3
				c-0.2-0.3-0.2-0.7,0-0.9c4.8-6.8,12.7-10.9,21.1-11c0.1,0,0.2,0,0.3,0c0.6,0,1.1,0,1.7,0.1c0.2,0,0.3,0,0.5,0l0.3,0
				c0.5,0,1,0.1,1.5,0.2C40.7,7,41,7,41.3,7.1c0.5,0.1,1.1,0.2,1.6,0.3l0.2,0c0.1,0,0.2,0,0.3,0.1c0.7,0.2,1.4,0.4,2.1,0.7
				c0.1,0,0.2,0.1,0.4,0.1L46,8.4c0.6,0.2,1.1,0.4,1.7,0.7c0.2,0.1,0.4,0.2,0.5,0.3c0.8,0.4,1.5,0.7,2.1,1.1
				c0.1,0.1,0.2,0.1,0.2,0.2c0.5,0.3,1,0.7,1.6,1.1c0.2,0.1,0.3,0.2,0.5,0.3l0.1,0.1c0.4,0.3,0.9,0.7,1.3,1.1l0.2,0.1
				c0.1,0.1,0.2,0.2,0.3,0.3c0.6,0.5,1.1,1,1.5,1.5c0.1,0.1,0.2,0.2,0.3,0.3l0.1,0.2c0.3,0.4,0.7,0.8,1,1.2c0.2,0.2,0.3,0.5,0.5,0.7
				c0.3,0.4,0.5,0.8,0.8,1.2l0.1,0.2c0.1,0.1,0.2,0.3,0.3,0.4c0.3,0.5,0.6,1.1,0.9,1.6c0,0,0,0.1,0,0.1c3.8,7.6,3.8,16.5-0.1,23.9
				C60,45.4,59.7,45.6,59.4,45.6z M52,37.6c1.5,0,3,0.4,4.3,1.2c1.5,0.9,2.6,2.2,3.3,3.7c2.7-6.6,2.4-14.2-0.9-20.7c0,0,0-0.1,0-0.1
				c-0.2-0.5-0.5-1-0.8-1.4c-0.1-0.1-0.2-0.3-0.2-0.4l-0.2-0.2c-0.2-0.4-0.5-0.8-0.8-1.1c-0.2-0.2-0.3-0.4-0.5-0.6
				c-0.3-0.4-0.6-0.8-0.9-1.1l-0.2-0.2c-0.1-0.1-0.1-0.2-0.2-0.2c-0.4-0.5-0.9-0.9-1.4-1.4c-0.1-0.1-0.2-0.2-0.3-0.3L53,14.5
				c-0.4-0.3-0.8-0.7-1.2-1l-0.1-0.1c-0.1-0.1-0.3-0.2-0.4-0.3c-0.6-0.5-1.2-0.9-1.8-1.2c-0.1-0.1-0.2-0.1-0.3-0.2
				c-0.5-0.3-1.1-0.6-1.7-0.9c-0.1-0.1-0.3-0.1-0.4-0.2c-0.6-0.3-1.1-0.5-1.6-0.7l-0.2-0.1c-0.1,0-0.2-0.1-0.3-0.1
				c-0.7-0.2-1.3-0.5-2-0.6L42.5,9c-0.5-0.1-1-0.2-1.5-0.3c-0.3,0-0.5-0.1-0.8-0.1c-0.5-0.1-0.9-0.1-1.4-0.2l-0.3,0
				c-0.1,0-0.3,0-0.4,0c-0.5,0-1.1-0.1-1.6-0.1c0,0-0.1,0-0.1,0c-7.3,0.1-14.1,3.3-18.7,8.7c1.7-0.1,3.3,0.3,4.8,1.2
				c2.2,1.3,3.6,3.6,3.9,6.2c2.4-0.9,5.1-0.7,7.3,0.6c2.1,1.3,3.6,3.5,4.1,5.8c2.3-0.4,5.3,0,7.1,1.1c2.2,1.4,3.7,3.7,4,6.2
				C49.9,37.8,50.9,37.6,52,37.6z"/>
		</g>
		<g>
			<path class="st1" d="M48.3,40.1c-0.1,0-0.3,0-0.4-0.1c-0.4-0.2-0.5-0.7-0.3-1.1c1.8-3,7.4-14,1.4-27.3c-0.2-0.4,0-0.9,0.4-1.1
				c0.4-0.2,0.9,0,1.1,0.4C56.8,25,51,36.5,49,39.8C48.9,40,48.6,40.1,48.3,40.1z"/>
		</g>
		<g>
			<path class="st1" d="M25.7,26.3c-0.1,0-0.3,0-0.4-0.1c-0.4-0.2-0.5-0.7-0.3-1.1c1.9-3.2,9.4-13.5,24.6-14.4
				c0.5,0,0.8,0.3,0.8,0.8c0,0.4-0.3,0.8-0.8,0.8C35.3,13,28.2,22.9,26.4,25.9C26.3,26.1,26,26.3,25.7,26.3z"/>
		</g>
	</g>
	<g>
		<path class="st1" d="M23.6,31.8H6.4c-0.4,0-0.8-0.4-0.8-0.8s0.4-0.8,0.8-0.8h17.2c0.4,0,0.8,0.4,0.8,0.8S24.1,31.8,23.6,31.8z"/>
	</g>
	<g>
		<path class="st1" d="M27.8,36.9H13.1c-0.4,0-0.8-0.4-0.8-0.8s0.4-0.8,0.8-0.8h14.7c0.4,0,0.8,0.4,0.8,0.8S28.2,36.9,27.8,36.9z"/>
	</g>
	<g>
		<path class="st1" d="M20.4,41.9H1.8c-0.4,0-0.8-0.4-0.8-0.8s0.4-0.8,0.8-0.8h18.6c0.4,0,0.8,0.4,0.8,0.8S20.9,41.9,20.4,41.9z"/>
	</g>
</g>
</svg>
