<?xml version="1.0" encoding="utf-8"?>
<!-- Generator: Adobe Illustrator 19.2.1, SVG Export Plug-In . SVG Version: 6.00 Build 0)  -->
<svg version="1.1" id="Layer_1" xmlns="http://www.w3.org/2000/svg" xmlns:xlink="http://www.w3.org/1999/xlink" x="0px" y="0px"
	 viewBox="0 0 64 64" style="enable-background:new 0 0 64 64;" xml:space="preserve">
<metadata><?xpacket begin="﻿" id="W5M0MpCehiHzreSzNTczkc9d"?>
<x:xmpmeta xmlns:x="adobe:ns:meta/" x:xmptk="Adobe XMP Core 5.6-c111 79.158366, 2015/09/25-01:12:00        ">
   <rdf:RDF xmlns:rdf="http://www.w3.org/1999/02/22-rdf-syntax-ns#">
      <rdf:Description rdf:about=""/>
   </rdf:RDF>
</x:xmpmeta>
                                                                                                    
                                                                                                    
                                                                                                    
                                                                                                    
                                                                                                    
                                                                                                    
                                                                                                    
                                                                                                    
                                                                                                    
                                                                                                    
                                                                                                    
                                                                                                    
                                                                                                    
                                                                                                    
                                                                                                    
                                                                                                    
                                                                                                    
                                                                                                    
                                                                                                    
                                                                                                    
                           
<?xpacket end="w"?></metadata>
<style type="text/css">
	.st0{fill:none;}
	.st1{fill:#5B554D;}
</style>
<rect class="st0" width="64" height="64"/>
<g>
	<g>
		<g>
			<g>
				<path class="st1" d="M42.4,19.9c-0.7,0-1.3-0.3-1.8-0.8c-0.5-0.5-0.8-1.1-0.8-1.8c0-0.8,0.7-2,1.6-3.5l0.4-0.6
					c0.1-0.2,0.3-0.3,0.6-0.3c0,0,0,0,0,0c0.2,0,0.5,0.1,0.6,0.3l0.4,0.6c0.9,1.5,1.6,2.7,1.6,3.5C45,18.8,43.8,19.9,42.4,19.9z
					 M42.4,14.9c-0.5,0.8-1.3,2.1-1.3,2.5c0,0.3,0.1,0.6,0.4,0.9c0.2,0.2,0.5,0.4,0.9,0.4c0.7,0,1.2-0.6,1.2-1.2
					C43.6,16.9,42.8,15.6,42.4,14.9z M21.4,19.9c-1.4,0-2.6-1.2-2.6-2.6c0-0.8,0.7-2,1.6-3.5l0.4-0.6c0.1-0.2,0.3-0.3,0.6-0.3
					c0.2,0,0.5,0.1,0.6,0.3c0.1,0.2,0.2,0.4,0.4,0.6c0.9,1.4,1.6,2.7,1.6,3.5c0,0.7-0.3,1.3-0.8,1.8C22.7,19.7,22.1,19.9,21.4,19.9z
					 M21.4,14.9c-0.5,0.8-1.2,2.1-1.2,2.5c0,0.7,0.6,1.2,1.2,1.2c0.3,0,0.6-0.1,0.9-0.4c0.2-0.2,0.4-0.6,0.4-0.9
					C22.6,16.9,21.8,15.6,21.4,14.9z M36.3,16.9c-1.4,0-2.6-1.2-2.6-2.6c0-0.8,0.7-2,1.6-3.4l0.4-0.7c0.1-0.2,0.3-0.3,0.6-0.3h0
					c0.2,0,0.5,0.1,0.6,0.3l0,0.1l0.3,0.6c0.9,1.4,1.6,2.7,1.6,3.5c0,0.7-0.3,1.4-0.8,1.8C37.7,16.7,37,16.9,36.3,16.9z M36.3,11.9
					c-0.5,0.8-1.2,2.1-1.2,2.5c0,0.7,0.6,1.2,1.2,1.2c0.3,0,0.6-0.1,0.9-0.4c0.2-0.2,0.4-0.6,0.4-0.9C37.6,13.9,36.8,12.6,36.3,11.9
					z M28.9,16.9c-1.4,0-2.6-1.2-2.6-2.6c0-0.7,0.6-1.8,1.6-3.5l0.4-0.6c0.1-0.2,0.3-0.3,0.6-0.3c0.2,0,0.5,0.1,0.6,0.3
					c0.1,0.2,0.2,0.4,0.4,0.6c0.9,1.5,1.6,2.7,1.6,3.5c0,0.7-0.3,1.3-0.8,1.8C30.3,16.7,29.6,16.9,28.9,16.9z M28.9,11.9
					c-0.4,0.7-1.2,2.1-1.2,2.5c0,0.7,0.6,1.2,1.2,1.2c0.3,0,0.6-0.1,0.9-0.4c0.2-0.2,0.4-0.6,0.4-0.9C30.2,13.9,29.4,12.6,28.9,11.9
					z M32.5,8.1c-1.4,0-2.6-1.2-2.6-2.6c0-0.8,0.7-2,1.6-3.5c0.1-0.2,0.3-0.4,0.4-0.6C32,1.1,32.3,1,32.5,1c0,0,0,0,0,0
					c0.2,0,0.5,0.1,0.6,0.3L33.5,2c0.9,1.4,1.6,2.7,1.6,3.5c0,0.7-0.3,1.3-0.8,1.8C33.9,7.8,33.2,8.1,32.5,8.1z M32.5,3
					c-0.5,0.8-1.2,2.1-1.2,2.5c0,0.7,0.6,1.2,1.2,1.2c0.3,0,0.6-0.1,0.9-0.4c0.2-0.2,0.4-0.5,0.4-0.9C33.8,5.1,33,3.7,32.5,3z"/>
			</g>
		</g>
	</g>
	<g>
		<g>
			<g>
				<path class="st1" d="M28.2,63c-0.4,0-0.7-0.3-0.7-0.7c0-0.4,0.3-0.7,0.7-0.7c1.7,0,3-1.2,3-2.9V19.5c0-0.4,0.3-0.7,0.7-0.7
					c0.4,0,0.7,0.3,0.7,0.7v39.2C32.6,61.2,30.7,63,28.2,63z"/>
			</g>
		</g>
		<g>
			<path class="st1" d="M42.3,39.4C42.3,39.4,42.3,39.4,42.3,39.4c-0.3,0-0.5-0.1-0.6-0.3c-0.9-1.7-2.7-2.7-4.6-2.7
				c-1.4,0-3.4,0.9-4.5,2c0,0.3-0.2,0.5-0.5,0.5c-0.3,0.1-0.6,0-0.8-0.3c-1.2-1.6-3.1-2.3-4.6-2.3c-1.9,0-3.7,1-4.6,2.7
				c-0.1,0.2-0.3,0.4-0.6,0.4c0,0,0,0,0,0c-0.2,0-0.5-0.1-0.6-0.3c0,0-0.1-0.1-0.1-0.1c-0.9-1.6-2.7-2.6-4.5-2.6c-1.5,0-3,0.7-4,1.9
				c-0.2,0.2-0.5,0.3-0.8,0.2c-0.3-0.1-0.4-0.4-0.4-0.7c0.4-6.5,4.1-12.5,9.7-16c0,0,0.1,0,0.1-0.1c0.4-0.3,0.8-0.5,1.3-0.7
				c0.1-0.1,0.2-0.1,0.3-0.2l0.2-0.1c0.3-0.2,0.7-0.3,1.1-0.5c0.2-0.1,0.4-0.2,0.6-0.2c0.4-0.2,0.8-0.3,1.2-0.4l0.4-0.1
				c0.5-0.2,1.1-0.3,1.7-0.4c0.1,0,0.2,0,0.3-0.1l0.1,0c0.5-0.1,0.9-0.2,1.4-0.2l0.5-0.1c0.7-0.1,1.3-0.1,1.9-0.1
				c0.1,0,0.2,0,0.3,0.1c0.5,0,1,0,1.6,0.1c0.2,0,0.4,0,0.5,0.1c0.4,0.1,0.9,0.1,1.3,0.2l0.2,0c0.1,0,0.2,0,0.3,0.1
				c0.6,0.1,1.1,0.3,1.6,0.4c0.1,0,0.2,0.1,0.3,0.1l0.2,0.1c0.4,0.1,0.8,0.3,1.2,0.4c0.2,0.1,0.4,0.2,0.6,0.3c0.3,0.1,0.7,0.3,1,0.5
				l0.2,0.1c0.1,0.1,0.2,0.1,0.4,0.2c0.4,0.2,0.9,0.5,1.3,0.7c0,0,0.1,0,0.1,0.1c5.6,3.5,9.3,9.5,9.7,16.1c0,0.3-0.2,0.6-0.4,0.7
				c-0.3,0.1-0.6,0-0.8-0.2c-1-1.2-2.4-1.9-4-1.9c-1.9,0-3.6,1-4.5,2.6c0,0-0.1,0.1-0.1,0.1C42.8,39.3,42.6,39.4,42.3,39.4z
				 M37.1,35c2,0,3.9,0.9,5.2,2.5c1.2-1.6,3.1-2.5,5.2-2.5c1.3,0,2.6,0.4,3.7,1.1c-0.9-5.5-4.1-10.4-9-13.3c0,0-0.1,0-0.1-0.1
				c-0.4-0.2-0.7-0.4-1.1-0.6c-0.1-0.1-0.2-0.1-0.3-0.1l-0.2-0.1c-0.3-0.2-0.6-0.3-1-0.4c-0.2-0.1-0.4-0.2-0.6-0.2
				c-0.4-0.1-0.7-0.3-1.1-0.4l-0.2-0.1c-0.1,0-0.2-0.1-0.2-0.1c-0.5-0.1-1-0.3-1.5-0.4c-0.1,0-0.2,0-0.3-0.1l-0.2,0
				C35,20.1,34.6,20,34.2,20c-0.2,0-0.3,0-0.5-0.1c-0.6-0.1-1.1-0.1-1.7-0.1c-0.1,0-0.2,0-0.3-0.1c-0.5,0-0.9,0-1.5,0.1l-0.4,0
				c-0.4,0-0.9,0.1-1.3,0.2l-0.4,0.1c-0.6,0.1-1.1,0.2-1.6,0.4l-0.4,0.1c-0.4,0.1-0.8,0.3-1.2,0.4c-0.2,0.1-0.4,0.1-0.6,0.2
				c-0.3,0.1-0.7,0.3-1,0.4l-0.2,0.1c-0.1,0-0.2,0.1-0.3,0.1c-0.4,0.2-0.7,0.4-1.1,0.6c0,0,0,0-0.1,0.1c-4.8,3-8,7.8-8.9,13.3
				c1.1-0.7,2.3-1.1,3.6-1.1c2,0,3.9,0.9,5.1,2.5c1.2-1.6,3.1-2.5,5.2-2.5c1.9,0,3.8,0.8,5.1,2.2C33.3,35.9,35.5,35,37.1,35z"/>
		</g>
		<g>
			<path class="st1" d="M42.4,39.3c-0.4,0-0.7-0.3-0.7-0.7c0-2.8-0.7-12.4-10.1-18.8c-0.3-0.2-0.4-0.6-0.2-0.9
				c0.2-0.3,0.6-0.4,0.9-0.2c9.9,6.8,10.7,17,10.7,20C43.1,39,42.8,39.3,42.4,39.3z"/>
		</g>
		<g>
			<path class="st1" d="M21.6,39.2c-0.4,0-0.7-0.3-0.7-0.7c0-2.9,0.8-12.9,10.7-19.7c0.3-0.2,0.7-0.1,0.9,0.2
				c0.2,0.3,0.1,0.7-0.2,0.9C23,26.3,22.3,35.8,22.3,38.5C22.3,38.9,22,39.2,21.6,39.2L21.6,39.2z"/>
		</g>
	</g>
</g>
</svg>
