<?xml version="1.0" encoding="utf-8"?>
<!-- Generator: Adobe Illustrator 19.2.1, SVG Export Plug-In . SVG Version: 6.00 Build 0)  -->
<svg version="1.1" id="Layer_1" xmlns="http://www.w3.org/2000/svg" xmlns:xlink="http://www.w3.org/1999/xlink" x="0px" y="0px"
	 viewBox="0 0 64 64" style="enable-background:new 0 0 64 64;" xml:space="preserve">
<metadata><?xpacket begin="﻿" id="W5M0MpCehiHzreSzNTczkc9d"?>
<x:xmpmeta xmlns:x="adobe:ns:meta/" x:xmptk="Adobe XMP Core 5.6-c111 79.158366, 2015/09/25-01:12:00        ">
   <rdf:RDF xmlns:rdf="http://www.w3.org/1999/02/22-rdf-syntax-ns#">
      <rdf:Description rdf:about=""/>
   </rdf:RDF>
</x:xmpmeta>
                                                                                                    
                                                                                                    
                                                                                                    
                                                                                                    
                                                                                                    
                                                                                                    
                                                                                                    
                                                                                                    
                                                                                                    
                                                                                                    
                                                                                                    
                                                                                                    
                                                                                                    
                                                                                                    
                                                                                                    
                                                                                                    
                                                                                                    
                                                                                                    
                                                                                                    
                                                                                                    
                           
<?xpacket end="w"?></metadata>
<style type="text/css">
	.st0{fill:none;}
	.st1{fill:#5B554D;}
</style>
<rect class="st0" width="64" height="64"/>
<g>
	<g>
		<g>
			<g>
				<path class="st1" d="M6.8,48.1c-3.2,0-5.8-2.6-5.8-5.8c0-4.6,3.7-6,5.7-6.1l11.8,0c0.5,0,0.8,0.4,0.8,0.8s-0.4,0.8-0.8,0.8
					l-11.8,0c-0.1,0-4.1,0.2-4.1,4.4c0,2.3,1.8,4.1,4.1,4.1s4.1-1.8,4.1-4.1c0-0.5,0.4-0.8,0.8-0.8s0.8,0.4,0.8,0.8
					C12.5,45.5,9.9,48.1,6.8,48.1z M27.8,34.7H6.8c-2-0.1-5.8-1.5-5.8-6.1c0-3.2,2.6-5.8,5.8-5.8s5.8,2.6,5.8,5.8
					c0,0.5-0.4,0.8-0.8,0.8s-0.8-0.4-0.8-0.8c0-2.3-1.8-4.1-4.1-4.1s-4.1,1.8-4.1,4.1c0,4.2,4,4.4,4.1,4.4l21,0
					c0.5,0,0.8,0.4,0.8,0.8C28.7,34.3,28.3,34.7,27.8,34.7z"/>
			</g>
		</g>
	</g>
	<g>
		<g>
			<g>
				<path class="st1" d="M18.1,58.3c-1,0-2.1-0.3-3.1-0.9c-0.4-0.2-0.5-0.7-0.3-1.1c0.2-0.4,0.7-0.5,1.1-0.3c1,0.6,2,0.8,3.1,0.5
					c1-0.2,1.9-0.9,2.5-1.8l26.9-44.3c0.2-0.4,0.7-0.5,1.1-0.3c0.4,0.2,0.5,0.7,0.3,1.1L22.8,55.6c-0.8,1.3-2.1,2.2-3.5,2.6
					C18.9,58.3,18.5,58.3,18.1,58.3z"/>
			</g>
		</g>
		<g>
			<path class="st1" d="M59.3,46.1c0,0-0.1,0-0.1,0c-0.4-0.1-0.6-0.3-0.7-0.7c-0.3-2-1.5-3.8-3.3-4.9c-2.1-1.3-4.8-1.3-7-0.1
				c0,0-0.1,0-0.1,0.1c-0.3,0.1-0.6,0.1-0.9,0c-0.2-0.2-0.4-0.4-0.4-0.7c0.1-2.6-1.2-5-3.4-6.3c-1.7-1-4.6-1.4-6.5-0.9
				c-0.2,0.2-0.5,0.4-0.8,0.3c-0.4-0.1-0.6-0.4-0.6-0.7c-0.2-2.7-2-4.9-3.6-5.9c-2.2-1.3-4.9-1.3-7.1-0.1c-0.3,0.2-0.6,0.1-0.9,0
				s-0.4-0.5-0.4-0.8c0,0,0-0.1,0-0.1c0.1-2.5-1.2-4.9-3.3-6.1c-1.8-1.1-3.9-1.3-5.8-0.6c-0.3,0.1-0.7,0-0.9-0.3
				c-0.2-0.3-0.2-0.7,0-1c5-7.1,13.2-11.4,21.9-11.5c0.1,0,0.2,0,0.3,0c0.6,0,1.2,0,1.7,0.1c0.2,0,0.3,0,0.5,0l0.3,0
				c0.5,0,1,0.1,1.5,0.2c0.3,0,0.6,0.1,0.8,0.1c0.6,0.1,1.1,0.2,1.7,0.4l0.2,0c0.1,0,0.2,0,0.3,0.1c0.7,0.2,1.4,0.4,2.2,0.7
				c0.1,0,0.2,0.1,0.4,0.1l0.2,0.1C46,7.7,46.5,8,47.1,8.2c0.2,0.1,0.4,0.2,0.6,0.3c0.8,0.4,1.5,0.8,2.1,1.2
				c0.1,0.1,0.2,0.1,0.3,0.2c0.5,0.3,1.1,0.7,1.7,1.2c0.2,0.1,0.3,0.2,0.5,0.4l0.1,0.1c0.5,0.4,0.9,0.7,1.3,1.1l0.2,0.1
				c0.1,0.1,0.2,0.2,0.4,0.3c0.6,0.5,1.1,1.1,1.6,1.6c0.1,0.1,0.2,0.2,0.3,0.3l0.1,0.2c0.4,0.4,0.7,0.8,1,1.3
				c0.2,0.2,0.4,0.5,0.5,0.7c0.3,0.4,0.6,0.8,0.8,1.2l0.1,0.2c0.1,0.1,0.2,0.3,0.3,0.4c0.3,0.5,0.6,1.1,0.9,1.7c0,0,0,0.1,0,0.1
				c4,7.8,3.9,17.1-0.1,24.8C59.8,45.9,59.6,46.1,59.3,46.1z M51.5,37.8c1.6,0,3.1,0.4,4.5,1.2c1.5,0.9,2.7,2.3,3.4,3.9
				c2.8-6.8,2.5-14.7-0.9-21.5c0,0,0-0.1,0-0.1c-0.3-0.5-0.5-1-0.8-1.5c-0.1-0.1-0.2-0.3-0.3-0.4l-0.2-0.2c-0.3-0.4-0.5-0.8-0.8-1.2
				c-0.2-0.2-0.3-0.4-0.5-0.7c-0.3-0.4-0.6-0.8-1-1.2L54.8,16c-0.1-0.1-0.1-0.2-0.2-0.3c-0.5-0.5-0.9-1-1.5-1.5
				c-0.1-0.1-0.2-0.2-0.3-0.3l-0.2-0.1c-0.4-0.4-0.8-0.7-1.3-1l-0.1-0.1c-0.1-0.1-0.3-0.2-0.4-0.3c-0.7-0.5-1.2-0.9-1.8-1.2
				c-0.1-0.1-0.2-0.1-0.3-0.2c-0.6-0.3-1.1-0.6-1.8-1c-0.2-0.1-0.3-0.1-0.4-0.2c-0.6-0.3-1.1-0.5-1.7-0.7l-0.5-0.2
				c-0.7-0.3-1.4-0.5-2-0.6l-0.5-0.1c-0.5-0.1-1.1-0.2-1.6-0.3c-0.3,0-0.5-0.1-0.8-0.1c-0.5-0.1-1-0.1-1.4-0.2l-0.3,0
				c-0.1,0-0.3,0-0.4,0c-0.6,0-1.1-0.1-1.7-0.1c0,0-0.1,0-0.1,0c-7.5,0.1-14.6,3.4-19.4,9c1.7-0.1,3.5,0.3,5,1.2
				c2.3,1.4,3.8,3.8,4.1,6.4c2.5-1,5.3-0.7,7.6,0.7c2.1,1.3,3.7,3.6,4.3,6c2.3-0.5,5.5,0,7.4,1.2c2.3,1.4,3.8,3.8,4.1,6.5
				C49.4,38,50.5,37.8,51.5,37.8z"/>
		</g>
		<g>
			<path class="st1" d="M47.8,40.5c-0.1,0-0.3,0-0.4-0.1c-0.4-0.2-0.5-0.7-0.3-1.1c1.9-3.2,7.7-14.6,1.5-28.4
				c-0.2-0.4,0-0.9,0.4-1.1c0.4-0.2,0.9,0,1.1,0.4c6.5,14.5,0.4,26.6-1.6,29.9C48.3,40.3,48,40.5,47.8,40.5z"/>
		</g>
		<g>
			<path class="st1" d="M24.3,26c-0.1,0-0.3,0-0.4-0.1c-0.4-0.2-0.5-0.7-0.3-1.1c2-3.3,9.7-14.1,25.6-15c0.5,0,0.9,0.3,0.9,0.8
				c0,0.5-0.3,0.9-0.8,0.9C34.2,12.3,26.9,22.5,25,25.6C24.8,25.9,24.6,26,24.3,26z"/>
		</g>
	</g>
</g>
</svg>
