<?xml version="1.0" encoding="utf-8"?>
<!-- Generator: Adobe Illustrator 19.2.1, SVG Export Plug-In . SVG Version: 6.00 Build 0)  -->
<svg version="1.1" id="Layer_1" xmlns="http://www.w3.org/2000/svg" xmlns:xlink="http://www.w3.org/1999/xlink" x="0px" y="0px"
	 viewBox="0 0 64 64" style="enable-background:new 0 0 64 64;" xml:space="preserve">
<metadata><?xpacket begin="﻿" id="W5M0MpCehiHzreSzNTczkc9d"?>
<x:xmpmeta xmlns:x="adobe:ns:meta/" x:xmptk="Adobe XMP Core 5.6-c111 79.158366, 2015/09/25-01:12:00        ">
   <rdf:RDF xmlns:rdf="http://www.w3.org/1999/02/22-rdf-syntax-ns#">
      <rdf:Description rdf:about=""/>
   </rdf:RDF>
</x:xmpmeta>
                                                                                                    
                                                                                                    
                                                                                                    
                                                                                                    
                                                                                                    
                                                                                                    
                                                                                                    
                                                                                                    
                                                                                                    
                                                                                                    
                                                                                                    
                                                                                                    
                                                                                                    
                                                                                                    
                                                                                                    
                                                                                                    
                                                                                                    
                                                                                                    
                                                                                                    
                                                                                                    
                           
<?xpacket end="w"?></metadata>
<style type="text/css">
	.st0{fill:none;}
	.st1{fill:#5B554D;}
</style>
<rect class="st0" width="64" height="64"/>
<g>
	<g>
		<g>
			<path class="st1" d="M26.8,63c-0.5,0-0.9-0.4-0.9-0.9c0-0.5,0.4-0.9,0.9-0.9c2.5,0,4.3-1.8,4.3-4.2V2.5c0-0.5,0.4-0.9,0.9-0.9
				c0.5,0,0.9,0.4,0.9,0.9v54.6C32.8,60.5,30.2,63,26.8,63z"/>
		</g>
	</g>
	<g>
		<path class="st1" d="M46.4,30.1C46.4,30.1,46.4,30.1,46.4,30.1c-0.3,0-0.6-0.2-0.8-0.4c-1.3-2.4-3.8-3.8-6.5-3.8
			c-2,0-4.9,1.2-6.3,2.8c0,0.3-0.3,0.6-0.6,0.7c-0.4,0.1-0.8,0-1-0.3c-1.6-2.3-4.4-3.3-6.5-3.3c-2.7,0-5.1,1.5-6.4,3.8
			c-0.2,0.3-0.4,0.5-0.8,0.5c0,0,0,0,0,0c-0.3,0-0.6-0.2-0.8-0.5c0,0-0.1-0.1-0.1-0.1c-1.3-2.3-3.7-3.7-6.3-3.7
			c-2.2,0-4.2,1-5.6,2.6c-0.2,0.3-0.6,0.4-1,0.3c-0.4-0.1-0.6-0.5-0.5-0.9c0.6-9.1,5.7-17.4,13.5-22.3c0,0,0.1-0.1,0.1-0.1
			c0.6-0.4,1.2-0.7,1.8-1c0.2-0.1,0.3-0.2,0.5-0.2l0.2-0.1c0.5-0.2,1-0.5,1.5-0.7C21,3.2,21.3,3,21.6,2.9c0.6-0.2,1.1-0.4,1.7-0.6
			l0.2-0.1c0.1,0,0.2-0.1,0.3-0.1c0.7-0.2,1.5-0.4,2.3-0.6c0.1,0,0.3-0.1,0.4-0.1l0.2,0c0.6-0.1,1.3-0.2,1.9-0.3l0.6-0.1
			C30.4,1,31.2,1,31.9,1c0.1,0,0.3,0,0.4,0.1c0.7,0,1.4,0.1,2.2,0.1c0.2,0,0.4,0,0.6,0.1c0.7,0.1,1.3,0.2,1.9,0.3l0.2,0
			c0.2,0,0.3,0.1,0.5,0.1c0.8,0.2,1.6,0.4,2.3,0.6c0.1,0,0.3,0.1,0.4,0.1l0.2,0.1c0.6,0.2,1.1,0.4,1.6,0.6c0.3,0.1,0.6,0.2,0.9,0.3
			c0.5,0.2,1,0.4,1.4,0.7l0.3,0.1c0.2,0.1,0.3,0.2,0.5,0.2c0.6,0.3,1.2,0.6,1.8,1c0,0,0.1,0,0.1,0.1c7.9,4.9,12.9,13.2,13.5,22.4
			c0,0.4-0.2,0.7-0.5,0.9c-0.4,0.1-0.8,0-1-0.2c-1.4-1.7-3.4-2.6-5.6-2.6c-2.6,0-5,1.4-6.4,3.7c0,0-0.1,0.1-0.1,0.1
			C47,29.9,46.7,30.1,46.4,30.1z M39.2,24.1c2.9,0,5.5,1.3,7.2,3.6c1.7-2.2,4.4-3.6,7.2-3.6c1.9,0,3.7,0.6,5.2,1.6
			C57.6,18,53,11.1,46.2,6.9c0,0-0.1,0-0.1-0.1c-0.5-0.3-1-0.6-1.5-0.9c-0.1-0.1-0.3-0.1-0.4-0.2l-0.3-0.1C43.4,5.4,43,5.2,42.5,5
			c-0.3-0.1-0.5-0.2-0.8-0.3c-0.5-0.2-1-0.4-1.5-0.5L39.9,4c-0.1,0-0.2-0.1-0.3-0.1c-0.7-0.2-1.4-0.4-2.2-0.5
			c-0.1,0-0.3-0.1-0.4-0.1l-0.2,0C36.2,3.2,35.6,3.1,35,3c-0.3,0-0.5-0.1-0.7-0.1c-0.9-0.1-1.6-0.1-2.3-0.1c-0.1,0-0.2,0-0.4-0.1
			c-0.6,0-1.3,0-2.1,0.1l-0.6,0.1c-0.6,0.1-1.2,0.2-1.8,0.3l-0.6,0.1c-0.8,0.2-1.5,0.3-2.2,0.5c-0.1,0-0.2,0.1-0.3,0.1L23.8,4
			c-0.5,0.2-1.1,0.4-1.6,0.6c-0.3,0.1-0.5,0.2-0.8,0.3c-0.5,0.2-0.9,0.4-1.4,0.6l-0.3,0.1c-0.1,0.1-0.3,0.1-0.4,0.2
			c-0.5,0.3-1,0.6-1.6,0.9c0,0-0.1,0.1-0.1,0.1C11,11,6.4,17.9,5.2,25.5c1.5-1,3.3-1.6,5.2-1.6c2.8,0,5.5,1.3,7.2,3.6
			c1.7-2.2,4.4-3.6,7.2-3.6c2.6,0,5.3,1.2,7.1,3.1C33.8,25.4,36.8,24.1,39.2,24.1z"/>
	</g>
	<g>
		<path class="st1" d="M46.5,30c-0.5,0-0.9-0.4-0.9-0.9c0-3.9-1-17.3-14.1-26.3c-0.4-0.3-0.5-0.8-0.2-1.2C31.5,1.1,32,1,32.4,1.3
			C46.3,10.8,47.4,25,47.4,29.1C47.4,29.6,47,30,46.5,30z"/>
	</g>
	<g>
		<path class="st1" d="M17.5,29.8c-0.5,0-0.9-0.4-0.9-0.9c0-4,1.1-18,14.9-27.5c0.4-0.3,0.9-0.2,1.2,0.2c0.3,0.4,0.2,0.9-0.2,1.2
			c-13.1,9-14.1,22.2-14.1,26C18.4,29.4,18,29.8,17.5,29.8L17.5,29.8z"/>
	</g>
</g>
</svg>
