<?xml version="1.0" encoding="utf-8"?>
<!-- Generator: Adobe Illustrator 19.2.1, SVG Export Plug-In . SVG Version: 6.00 Build 0)  -->
<svg version="1.1" id="Layer_1" xmlns="http://www.w3.org/2000/svg" xmlns:xlink="http://www.w3.org/1999/xlink" x="0px" y="0px"
	 viewBox="0 0 64 64" style="enable-background:new 0 0 64 64;" xml:space="preserve">
<metadata><?xpacket begin="﻿" id="W5M0MpCehiHzreSzNTczkc9d"?>
<x:xmpmeta xmlns:x="adobe:ns:meta/" x:xmptk="Adobe XMP Core 5.6-c111 79.158366, 2015/09/25-01:12:00        ">
   <rdf:RDF xmlns:rdf="http://www.w3.org/1999/02/22-rdf-syntax-ns#">
      <rdf:Description rdf:about=""/>
   </rdf:RDF>
</x:xmpmeta>
                                                                                                    
                                                                                                    
                                                                                                    
                                                                                                    
                                                                                                    
                                                                                                    
                                                                                                    
                                                                                                    
                                                                                                    
                                                                                                    
                                                                                                    
                                                                                                    
                                                                                                    
                                                                                                    
                                                                                                    
                                                                                                    
                                                                                                    
                                                                                                    
                                                                                                    
                                                                                                    
                           
<?xpacket end="w"?></metadata>
<style type="text/css">
	.st0{fill:none;}
	.st1{fill:#5B554D;}
</style>
<rect class="st0" width="64" height="64"/>
<g>
	<g>
		<path class="st1" d="M51.1,63H12.9c-1.8,0-3.3-1.5-3.3-3.3V23.5c0-1.8,1.5-3.3,3.3-3.3h11.6c0.4,0,0.8,0.3,0.8,0.8
			c0,0.4-0.3,0.8-0.8,0.8H12.9c-1,0-1.8,0.8-1.8,1.8v36.2c0,1,0.8,1.8,1.8,1.8h38.3c1,0,1.8-0.8,1.8-1.8V23.5c0-1-0.8-1.8-1.8-1.8
			H39.5c-0.4,0-0.8-0.3-0.8-0.8c0-0.4,0.3-0.8,0.8-0.8h11.7c1.8,0,3.3,1.5,3.3,3.3v36.2C54.4,61.5,53,63,51.1,63z"/>
	</g>
	<g>
		<g>
			<path class="st1" d="M31.7,48.4c-0.4,0-0.8-0.3-0.8-0.8V11.1c0-1.7,1.4-3,3.1-3h18.1c0.4,0,0.8,0.3,0.8,0.8
				c0,0.4-0.3,0.8-0.8,0.8H34c-0.9,0-1.5,0.7-1.5,1.5v36.5C32.5,48.1,32.1,48.4,31.7,48.4z"/>
		</g>
		<g>
			<path class="st1" d="M47.2,16.6c-0.2,0-0.4-0.1-0.5-0.2c-0.3-0.3-0.3-0.8,0-1.1l5.6-5.7c0.4-0.4,0.4-1.1,0-1.5l-5.6-5.7
				c-0.3-0.3-0.3-0.8,0-1.1s0.8-0.3,1.1,0L53.4,7c1,1,1,2.7,0,3.7l-5.6,5.7C47.6,16.5,47.4,16.6,47.2,16.6z"/>
		</g>
	</g>
</g>
</svg>
