<?xml version="1.0" encoding="utf-8"?>
<!-- Generator: Adobe Illustrator 19.2.1, SVG Export Plug-In . SVG Version: 6.00 Build 0)  -->
<svg version="1.1" id="Layer_1" xmlns="http://www.w3.org/2000/svg" xmlns:xlink="http://www.w3.org/1999/xlink" x="0px" y="0px"
	 viewBox="0 0 64 64" style="enable-background:new 0 0 64 64;" xml:space="preserve">
<metadata><?xpacket begin="﻿" id="W5M0MpCehiHzreSzNTczkc9d"?>
<x:xmpmeta xmlns:x="adobe:ns:meta/" x:xmptk="Adobe XMP Core 5.6-c111 79.158366, 2015/09/25-01:12:00        ">
   <rdf:RDF xmlns:rdf="http://www.w3.org/1999/02/22-rdf-syntax-ns#">
      <rdf:Description rdf:about=""/>
   </rdf:RDF>
</x:xmpmeta>
                                                                                                    
                                                                                                    
                                                                                                    
                                                                                                    
                                                                                                    
                                                                                                    
                                                                                                    
                                                                                                    
                                                                                                    
                                                                                                    
                                                                                                    
                                                                                                    
                                                                                                    
                                                                                                    
                                                                                                    
                                                                                                    
                                                                                                    
                                                                                                    
                                                                                                    
                                                                                                    
                           
<?xpacket end="w"?></metadata>
<style type="text/css">
	.st0{fill:none;}
	.st1{fill:#5B554D;}
</style>
<rect class="st0" width="64" height="64"/>
<g>
	<g>
		<g>
			<path class="st1" d="M19.6,14c-0.2,0-0.5-0.1-0.6-0.3c-0.3-0.4-0.3-0.9,0-1.3L29.6,2c1.3-1.3,3.5-1.3,4.8,0L45,12.5
				c0.4,0.3,0.4,0.9,0,1.3c-0.3,0.4-0.9,0.4-1.3,0L33.1,3.2c-0.6-0.6-1.7-0.6-2.3,0L20.2,13.8C20.1,13.9,19.8,14,19.6,14z"/>
		</g>
		<g>
			<path class="st1" d="M32,30c-0.5,0-0.9-0.4-0.9-0.9V2c0-0.5,0.4-0.9,0.9-0.9s0.9,0.4,0.9,0.9v27.1C32.9,29.6,32.5,30,32,30z"/>
		</g>
	</g>
	<g>
		<path class="st1" d="M57,63H7c-1.5,0-2.7-1.3-2.7-2.8V34.4c0-0.1,0-0.1,0-0.2c0-0.5,0.2-0.9,0.4-1.3l8.6-14.7
			c0.5-0.8,1.4-1.4,2.4-1.4H27c0.5,0,0.9,0.4,0.9,0.9s-0.4,0.9-0.9,0.9H15.6c-0.3,0-0.6,0.2-0.8,0.5L6.2,33.8
			c-0.1,0.1-0.1,0.2-0.1,0.4c0,0.1,0,0.1,0,0.2c0,0.1,0,0.2-0.1,0.3v25.5c0,0.6,0.4,1.1,1,1.1h50c0.5,0,1-0.5,1-1.1V34.7
			c0-0.1,0-0.2,0-0.3s0-0.1,0-0.2c0-0.1-0.1-0.2-0.1-0.3l-8.6-14.7c-0.2-0.3-0.5-0.5-0.8-0.5H37c-0.5,0-0.9-0.4-0.9-0.9
			s0.4-0.9,0.9-0.9h11.4c1,0,1.9,0.5,2.4,1.4L59.4,33c0.2,0.4,0.4,0.9,0.4,1.3v0.1v25.8C59.7,61.7,58.5,63,57,63z"/>
	</g>
	<g>
		<path class="st1" d="M37.2,42.6H26.8c-1.4,0-2.7-1.1-3.1-2.5l-0.9-3.6c-0.2-0.6-0.6-1.3-1-1.3H9.2c-0.3,0-0.6-0.2-0.8-0.5
			s-0.2-0.6,0-0.9l7.5-12.7c0.2-0.3,0.5-0.4,0.8-0.4H27c0.5,0,0.9,0.4,0.9,0.9s-0.4,0.9-0.9,0.9h-9.8l-6.4,11h11.1
			c1.3,0,2.4,1.1,2.8,2.7l0.9,3.6c0.1,0.6,0.8,1.1,1.3,1.1h10.4c0.6,0,1.2-0.5,1.4-1.1l0.9-3.6c0.4-1.6,1.5-2.7,2.8-2.7h11.1
			l-6.4-11H37c-0.5,0-0.9-0.4-0.9-0.9s0.4-0.9,0.9-0.9h10.4c0.3,0,0.6,0.2,0.8,0.4l7.4,12.7c0.2,0.3,0.2,0.6,0,0.9
			c-0.2,0.3-0.5,0.4-0.8,0.4H42.2c-0.4,0-0.9,0.7-1,1.3L40.3,40C39.9,41.5,38.6,42.6,37.2,42.6z"/>
	</g>
</g>
</svg>
