<?xml version="1.0" encoding="utf-8"?>
<!-- Generator: Adobe Illustrator 19.2.1, SVG Export Plug-In . SVG Version: 6.00 Build 0)  -->
<svg version="1.1" id="Layer_1" xmlns="http://www.w3.org/2000/svg" xmlns:xlink="http://www.w3.org/1999/xlink" x="0px" y="0px"
	 viewBox="0 0 64 64" style="enable-background:new 0 0 64 64;" xml:space="preserve">
<metadata><?xpacket begin="﻿" id="W5M0MpCehiHzreSzNTczkc9d"?>
<x:xmpmeta xmlns:x="adobe:ns:meta/" x:xmptk="Adobe XMP Core 5.6-c111 79.158366, 2015/09/25-01:12:00        ">
   <rdf:RDF xmlns:rdf="http://www.w3.org/1999/02/22-rdf-syntax-ns#">
      <rdf:Description rdf:about=""/>
   </rdf:RDF>
</x:xmpmeta>
                                                                                                    
                                                                                                    
                                                                                                    
                                                                                                    
                                                                                                    
                                                                                                    
                                                                                                    
                                                                                                    
                                                                                                    
                                                                                                    
                                                                                                    
                                                                                                    
                                                                                                    
                                                                                                    
                                                                                                    
                                                                                                    
                                                                                                    
                                                                                                    
                                                                                                    
                                                                                                    
                           
<?xpacket end="w"?></metadata>
<style type="text/css">
	.st0{fill:none;}
	.st1{fill:#5B554D;}
</style>
<rect class="st0" width="64" height="64"/>
<g>
	<g>
		<path class="st1" d="M58.9,58.5H5.1c-2.2,0-4.1-1.8-4.1-4V32.2c0-2.2,1.8-4,4.1-4c2.2,0,4,1.8,4,4v1.7H55v-1.7c0-2.2,1.8-4,4.1-4
			c2.2,0,4.1,1.8,4.1,4v22.3C63,56.7,61.2,58.5,58.9,58.5z M5.1,30c-1.3,0-2.3,1-2.3,2.2v22.3c0,1.2,1,2.2,2.3,2.2H59
			c1.3,0,2.3-1,2.3-2.2V32.2c0-1.2-1-2.2-2.3-2.2s-2.3,1-2.3,2.2v2.6c0,0.5-0.4,0.9-0.9,0.9H8.1c-0.5,0-0.9-0.4-0.9-0.9v-2.6
			C7.2,30.9,6.3,30,5.1,30z"/>
	</g>
	<g>
		<g>
			<path class="st1" d="M40.9,15.4c-0.2,0-0.5-0.1-0.6-0.3l-7.7-7.6c-0.3-0.3-0.9-0.3-1.3,0l-7.7,7.6c-0.4,0.3-0.9,0.3-1.3,0
				c-0.3-0.4-0.3-0.9,0-1.3L30,6.2c1-1,2.8-1,3.8,0l7.7,7.6c0.3,0.3,0.4,0.9,0,1.3C41.4,15.3,41.2,15.4,40.9,15.4z"/>
		</g>
		<g>
			<path class="st1" d="M32,29.3c-0.5,0-0.9-0.4-0.9-0.9V7.7c0-0.5,0.4-0.9,0.9-0.9s0.9,0.4,0.9,0.9v20.7
				C32.9,28.9,32.5,29.3,32,29.3z"/>
		</g>
	</g>
</g>
</svg>
