<?xml version="1.0" encoding="utf-8"?>
<!-- Generator: Adobe Illustrator 19.2.1, SVG Export Plug-In . SVG Version: 6.00 Build 0)  -->
<svg version="1.1" id="Layer_1" xmlns="http://www.w3.org/2000/svg" xmlns:xlink="http://www.w3.org/1999/xlink" x="0px" y="0px"
	 viewBox="0 0 64 64" style="enable-background:new 0 0 64 64;" xml:space="preserve">
<metadata><?xpacket begin="﻿" id="W5M0MpCehiHzreSzNTczkc9d"?>
<x:xmpmeta xmlns:x="adobe:ns:meta/" x:xmptk="Adobe XMP Core 5.6-c111 79.158366, 2015/09/25-01:12:00        ">
   <rdf:RDF xmlns:rdf="http://www.w3.org/1999/02/22-rdf-syntax-ns#">
      <rdf:Description rdf:about=""/>
   </rdf:RDF>
</x:xmpmeta>
                                                                                                    
                                                                                                    
                                                                                                    
                                                                                                    
                                                                                                    
                                                                                                    
                                                                                                    
                                                                                                    
                                                                                                    
                                                                                                    
                                                                                                    
                                                                                                    
                                                                                                    
                                                                                                    
                                                                                                    
                                                                                                    
                                                                                                    
                                                                                                    
                                                                                                    
                                                                                                    
                           
<?xpacket end="w"?></metadata>
<style type="text/css">
	.st0{fill:none;}
	.st1{fill:#5B554D;}
</style>
<rect class="st0" width="64" height="64"/>
<g>
	<g>
		<path class="st1" d="M32,63c-1.6,0-3.1-0.1-4.7-0.4l-0.9-0.2c0,0,0,0,0,0c-6.1-1.1-11.5-3.9-15.9-8.2l-1.2-1.3
			c-3.9-4.2-6.4-9.1-7.6-14.7l-0.3-1.8c-1.5-9.8,1.7-19.5,8.7-26.5c2.4-2.4,5-4.3,7.9-5.8l1.4-0.6C25,1.2,31.2,0.4,37.2,1.5l0.9,0.2
			c5.8,1.2,11.1,4,15.4,8.2l1.1,1.1c8.8,9.4,10.8,23.1,5.1,34.8L59,47.2c-0.4,0.8-3.1,4.7-5.1,6.8c-2.3,2.3-4.8,4.1-7.6,5.6
			l-1.4,0.7C40.8,62.1,36.5,63,32,63z M26.8,60.6l0.9,0.2c5.6,0.9,11.3,0.1,16.4-2.3l1.4-0.7c2.6-1.3,5-3.1,7.1-5.2
			c1.9-1.9,4.5-5.7,4.8-6.3l0.8-1.5c5.3-11,3.4-23.8-4.8-32.6l-1.1-1.1c-4-3.9-9-6.6-14.5-7.7l-0.9-0.2c-5.7-1-11.5-0.3-16.7,2.1
			L18.8,6c-2.7,1.4-5.1,3.1-7.4,5.4C4.8,18,1.8,27.1,3.2,36.3L3.6,38c1.1,5.2,3.5,9.8,7.1,13.7l1.2,1.2C16,57,21,59.6,26.8,60.6z"/>
	</g>
	<g>
		<path class="st1" d="M60,43.8c-0.5,0-0.9-0.4-0.9-0.9c-0.5-8.9-8.9-18.5-16.4-22.3c-19-9.5-33.1-5.4-38.6,3
			c-0.3,0.4-0.9,0.6-1.3,0.3c-0.4-0.3-0.6-0.9-0.3-1.3c8.3-12.5,26.6-10.8,41-3.6c8,4,16.9,14.3,17.4,23.9
			C61,43.3,60.6,43.8,60,43.8C60,43.8,60,43.8,60,43.8z"/>
	</g>
	<g>
		<path class="st1" d="M31.3,63c-0.1,0-0.3,0-0.4-0.1c-4.4-2.2-8.4-5.9-11.2-10.5c-3.2-5.2-5.1-11.5-5.5-18.2
			c-1-15.6,6.1-29.5,17.1-33.1c0.5-0.2,1,0.1,1.2,0.6c0.2,0.5-0.1,1-0.6,1.2C21.8,6.2,15.1,19.3,16.1,34c0.4,6.4,2.2,12.4,5.2,17.4
			c2.6,4.3,6.3,7.8,10.4,9.8c0.5,0.2,0.7,0.8,0.4,1.3C32,62.8,31.7,63,31.3,63z"/>
	</g>
	<g>
		<path class="st1" d="M49.5,57.4c-0.3,0-0.5-0.1-0.7-0.3C32.1,38.6,25.5,24.7,29.3,15.7c3.4-7.9,14.1-9.6,18.6-10
			c0.5,0,1,0.3,1,0.9c0,0.5-0.3,1-0.9,1c-4.1,0.3-14,1.9-17,8.9c-3.5,8.3,2.9,21.5,19.2,39.4c0.3,0.4,0.3,1-0.1,1.3
			C50,57.3,49.7,57.4,49.5,57.4z"/>
	</g>
</g>
</svg>
