<?xml version="1.0" encoding="utf-8"?>
<!-- Generator: Adobe Illustrator 19.2.1, SVG Export Plug-In . SVG Version: 6.00 Build 0)  -->
<svg version="1.1" id="Layer_1" xmlns="http://www.w3.org/2000/svg" xmlns:xlink="http://www.w3.org/1999/xlink" x="0px" y="0px"
	 viewBox="0 0 64 64" style="enable-background:new 0 0 64 64;" xml:space="preserve">
<metadata><?xpacket begin="﻿" id="W5M0MpCehiHzreSzNTczkc9d"?>
<x:xmpmeta xmlns:x="adobe:ns:meta/" x:xmptk="Adobe XMP Core 5.6-c111 79.158366, 2015/09/25-01:12:00        ">
   <rdf:RDF xmlns:rdf="http://www.w3.org/1999/02/22-rdf-syntax-ns#">
      <rdf:Description rdf:about=""/>
   </rdf:RDF>
</x:xmpmeta>
                                                                                                    
                                                                                                    
                                                                                                    
                                                                                                    
                                                                                                    
                                                                                                    
                                                                                                    
                                                                                                    
                                                                                                    
                                                                                                    
                                                                                                    
                                                                                                    
                                                                                                    
                                                                                                    
                                                                                                    
                                                                                                    
                                                                                                    
                                                                                                    
                                                                                                    
                                                                                                    
                           
<?xpacket end="w"?></metadata>
<style type="text/css">
	.st0{fill:none;}
	.st1{fill:#5B554D;}
</style>
<rect class="st0" width="64" height="64"/>
<g>
	<g>
		<g>
			<g>
				<path class="st1" d="M45.1,36.3c-0.2,0-17.3-1.4-31.7-2.6C7.6,33,2.9,27.9,2.9,22.1v-1.6C2.9,14.7,7.6,9.6,13.3,9
					C27.7,7.8,44.8,6.4,45,6.4c3.6,0,7.5,10.1,8.6,13.1c0,0.1,0,0.2,0,0.3v4.8c0,0.1,0,0.2-0.1,0.3C52.8,26.8,48.9,36.3,45.1,36.3z
					 M45.1,8.1c-0.9,0.1-21,1.7-31.6,2.6c-4.9,0.5-8.9,4.9-8.9,9.8v1.6c0,4.9,4,9.3,8.9,9.8c10.7,0.9,31.1,2.6,31.6,2.6
					c1.9,0,5.1-5.9,6.8-10.2v-4.5C49.9,14.2,46.7,8.1,45.1,8.1z M44.4,30.1c-0.1,0-0.2,0-0.3,0c-0.3-0.1-0.5-0.3-0.6-0.6
					c-0.5-2.3-0.8-5.1-0.8-8.2c0-4.3,0.6-7.3,1.1-9.1c0.1-0.3,0.3-0.5,0.6-0.6s0.6,0,0.8,0.2l4.1,4.1c0.1,0.1,0.2,0.3,0.2,0.5
					c0.2,1.5,0.3,3.1,0.3,4.8c0,1.6-0.1,3.1-0.2,4.6c0,0.2-0.1,0.4-0.3,0.6l-4.4,3.5C44.8,30.1,44.6,30.1,44.4,30.1z M45.1,14.2
					c-0.3,1.7-0.6,4-0.6,7.1c0,2.7,0.2,4.9,0.5,6.4l3-2.4c0.1-1.3,0.2-2.6,0.2-4c0-1.5-0.1-2.9-0.2-4.3L45.1,14.2z M48.7,25.8
					L48.7,25.8L48.7,25.8z"/>
			</g>
		</g>
		<g>
			<g>
				<path class="st1" d="M53.5,9.6c-2.4,0-4.3-1.9-4.3-4.3S51.1,1,53.5,1c2.4,0,4.3,1.9,4.3,4.3C57.8,7.6,55.9,9.6,53.5,9.6z
					 M53.5,2.7c-1.4,0-2.6,1.2-2.6,2.6s1.1,2.6,2.6,2.6c1.4,0,2.6-1.1,2.6-2.6C56.1,3.9,54.9,2.7,53.5,2.7z"/>
			</g>
		</g>
		<g>
			<g>
				<path class="st1" d="M42.1,33.9c-0.3,0-0.6-0.2-0.8-0.5c-1.3-2.6-2.1-7.1-2.1-12.1s0.8-9.5,2.1-12.1c0.2-0.4,0.7-0.6,1.2-0.4
					C43,9,43.1,9.6,42.9,10c-1.2,2.4-1.9,6.6-1.9,11.3s0.7,8.9,1.9,11.3c0.2,0.4,0,0.9-0.4,1.2C42.4,33.8,42.3,33.9,42.1,33.9z
					 M28.2,32.7c-0.3,0-0.7-0.2-0.8-0.5c-2.2-5.1-3.9-13,0.2-21.8c0.2-0.4,0.7-0.6,1.1-0.4c0.4,0.2,0.6,0.7,0.4,1.1
					c-3.8,8.2-2.2,15.7-0.1,20.4c0.2,0.4,0,0.9-0.5,1.1C28.4,32.7,28.3,32.7,28.2,32.7z M17,31.8c-0.3,0-0.6-0.2-0.8-0.5
					c-2.2-4.7-3.9-11.9,0-20c0.2-0.4,0.7-0.6,1.1-0.4c0.4,0.2,0.6,0.7,0.4,1.1c-3.7,7.5-2,14.2,0,18.5c0.2,0.4,0,0.9-0.4,1.1
					C17.3,31.8,17.2,31.8,17,31.8z"/>
			</g>
		</g>
	</g>
	<g>
		<path class="st1" d="M53.5,62.4c-0.5,0-0.9-0.4-0.9-0.9V8.7c0-0.5,0.4-0.9,0.9-0.9s0.9,0.4,0.9,0.9v52.9
			C54.4,62.1,54,62.4,53.5,62.4z"/>
	</g>
	<g>
		<path class="st1" d="M60.2,63H46.8c-0.5,0-0.9-0.4-0.9-0.9s0.4-0.9,0.9-0.9h13.4c0.5,0,0.9,0.4,0.9,0.9S60.7,63,60.2,63z"/>
	</g>
</g>
</svg>
