<?xml version="1.0" encoding="utf-8"?>
<!-- Generator: Adobe Illustrator 19.2.1, SVG Export Plug-In . SVG Version: 6.00 Build 0)  -->
<svg version="1.1" id="Layer_1" xmlns="http://www.w3.org/2000/svg" xmlns:xlink="http://www.w3.org/1999/xlink" x="0px" y="0px"
	 viewBox="0 0 64 64" style="enable-background:new 0 0 64 64;" xml:space="preserve">
<metadata><?xpacket begin="﻿" id="W5M0MpCehiHzreSzNTczkc9d"?>
<x:xmpmeta xmlns:x="adobe:ns:meta/" x:xmptk="Adobe XMP Core 5.6-c111 79.158366, 2015/09/25-01:12:00        ">
   <rdf:RDF xmlns:rdf="http://www.w3.org/1999/02/22-rdf-syntax-ns#">
      <rdf:Description rdf:about=""/>
   </rdf:RDF>
</x:xmpmeta>
                                                                                                    
                                                                                                    
                                                                                                    
                                                                                                    
                                                                                                    
                                                                                                    
                                                                                                    
                                                                                                    
                                                                                                    
                                                                                                    
                                                                                                    
                                                                                                    
                                                                                                    
                                                                                                    
                                                                                                    
                                                                                                    
                                                                                                    
                                                                                                    
                                                                                                    
                                                                                                    
                           
<?xpacket end="w"?></metadata>
<style type="text/css">
	.st0{fill:none;}
	.st1{fill:#5B554D;}
</style>
<rect class="st0" width="64" height="64"/>
<g>
	<g>
		<g>
			<path class="st1" d="M49.2,58.8c-0.1,0-0.3,0-0.4-0.1c-0.3-0.1-0.5-0.4-0.5-0.8v-4h-13c-0.5,0-0.9-0.4-0.9-0.9v-3.7
				c0-0.5,0.4-0.9,0.9-0.9h13.1v-4c0-0.3,0.2-0.6,0.5-0.8c0.3-0.1,0.6-0.1,0.9,0l10,6.7c0.2,0.2,0.4,0.4,0.4,0.7s-0.2,0.8-0.5,1
				l-10,6.7C49.5,58.8,49.4,58.8,49.2,58.8z M36.1,52.2h13.1c0.5,0,0.9,0.4,0.9,0.9v3.3l7.6-5.1l-7.6-5.1v3.3c0,0.5-0.4,0.9-0.9,0.9
				H36.1V52.2z M11.2,57.6H4.7c-0.3,0-0.6-0.2-0.7-0.4c-0.2-0.3-0.2-0.6,0-0.9l3-5.1l-3-5.1c-0.2-0.3-0.2-0.6,0-0.9
				c0.2-0.3,0.4-0.4,0.7-0.4h6.5c0.3,0,0.6,0.2,0.7,0.4l1.9,3.2h13.1c0.5,0,0.9,0.4,0.9,0.9V53c0,0.5-0.4,0.9-0.9,0.9H13.8l-1.9,3.2
				C11.8,57.4,11.5,57.6,11.2,57.6z M6.2,55.9h4.5l1.9-3.2c0.2-0.3,0.4-0.4,0.7-0.4H26v-1.9H13.4c-0.3,0-0.6-0.2-0.7-0.4l-1.9-3.2
				H6.2L8.7,51c0.2,0.3,0.2,0.6,0,0.9L6.2,55.9z"/>
		</g>
	</g>
	<g>
		<g>
			<path class="st1" d="M31.1,63c-1.6,0-2.9-1.3-2.9-3V42c0-0.2,0.1-0.5,0.3-0.6c0.2-0.2,0.4-0.2,0.7-0.2c0.8,0.1,1.7,0.1,1.7,0.1h1
				c0.5,0,0.9,0,1.4,0c0.2,0,0.5,0.1,0.6,0.2c0.2,0.2,0.3,0.4,0.3,0.6V60C34.1,61.7,32.8,63,31.1,63z M29.9,42.9V60
				c0,0.7,0.6,1.2,1.2,1.2c0.7,0,1.2-0.6,1.2-1.2V43c-0.2,0-0.4,0-0.6,0l0,0h-1C30.7,43,30.4,43,29.9,42.9z"/>
		</g>
	</g>
	<g>
		<g>
			<path class="st1" d="M31.7,41.8h-1c-0.3,0-2.7-0.2-3.6-0.4c-3.7-1-6.3-3.5-8.5-5.7c-0.2,0.4-0.5,1-0.8,2
				c-0.6,1.6-1.2,3.2-2.9,3.2c-1.6,0-2.9-1.7-3.8-3.7l-0.2,1.1c-0.1,0.3-0.3,0.6-0.6,0.7c-0.3,0.1-0.6,0-0.9-0.2
				c-0.1-0.1-8.9-9.3,1-19.7c1.6-1.7,3.2-2.5,5.2-2.5c2.2,0,4.4,0.9,6.8,1.8s4.9,1.9,7.1,1.9c4,0,5.3-4.5,5.7-6.3
				c-0.4-0.5-1.1-0.9-1.5-1.2c-0.1-0.1-0.3-0.2-0.4-0.2c-1.2-0.6-2.9-1.6-2.5-3c0.1-0.4,0.3-0.8,2.7-0.9c-0.4-0.6-0.6-1.2-0.4-1.8
				c0.4-1,1.4-1,2.2-1c0,0,0-0.1-0.1-0.1c-0.6-1.2-1.3-2.8-0.4-3.7c0.5-0.5,1.2-0.8,1.9-0.8c1.2,0,3.2,1.8,4,2.7
				c0.2-1.2,0.6-2.8,2-2.8c0.6,0,1.2,0.3,1.7,0.8c0.3,0.3,0.6,0.9,0.8,1.6c0.4-0.3,1-0.8,1.6-0.8c0.4,0,0.7,0.2,0.9,0.4
				C48,3.5,48,4,47.6,5.6c1-0.1,2,0.3,2.5,1.2c0.9,1.4,0,3.1-0.8,4.7c0.8,0.6,1.5,1.3,2,1.7l2,2.1c0.2,0.3,0.3,0.6,0.2,0.9
				s-0.4,0.5-0.8,0.5h-4.5c2.2,2.1,1.9,4.1,1.6,4.9c-0.4,1.3-1.6,2.3-2.9,2.3c-0.7,0-1.3-0.2-1.8-0.7C44.3,39.5,37.9,41.8,31.7,41.8
				z M18.4,33.6c0.3,0,0.7,0.2,1.1,0.6c2.3,2.3,4.7,4.7,8.1,5.6c0.6,0.1,2.3,0.3,3.3,0.4h1c5.5,0,11.4-1.5,11.6-18.9
				c0-0.2,0.1-0.4,0.3-0.6s0.4-0.3,0.6-0.2c0.7,0,1.2,0.4,1.5,1.1c0.3,0.5,0.7,0.8,1.1,0.8c0.6,0,1.1-0.4,1.3-1.1
				c0.2-0.6,0.3-2-1.7-3.6c-0.1-0.1-0.2-0.3-0.3-0.4c-0.1-0.2-0.1-0.4-0.1-0.6c0-0.1,0-0.2,0-0.2c-0.1-0.1-0.1-0.2-0.1-0.4
				c0-0.5,0.4-0.9,0.9-0.9h4l-0.6-0.7c-0.5-0.5-1.4-1.4-2.2-1.8c-0.4-0.2-0.6-0.7-0.4-1.1l0.1-0.3c0.1-0.1,0.1-0.2,0.2-0.3
				c0.6-1.2,1.3-2.5,0.9-3.1c-0.3-0.5-1.1-0.4-1.7-0.1c-0.2,0.1-0.5,0.1-0.8,0c-0.2-0.1-0.4-0.3-0.5-0.6c0-0.3,0-0.5,0.2-1.5
				c0-0.1,0-0.2,0.1-0.3C45.7,5.6,45.4,6,44.9,6l0,0c-0.3,0-0.6-0.2-0.7-0.4c-0.1-0.2-0.2-0.5-0.4-1.1c-0.1-0.4-0.4-1.3-0.6-1.5
				c-0.1-0.1-0.3-0.3-0.5-0.3c0,0-0.2,0.4-0.4,2c0,0.1,0,0.3,0,0.3c0,0.3-0.2,1-0.7,1.3c-0.1,0.1-0.2,0.1-0.4,0.1
				c-0.9,0-1.3-0.7-1.7-1.3c-0.3-0.5-2.3-2.1-2.9-2.2c-0.2,0-0.4,0.1-0.6,0.3c0,0.2,0.5,1.3,0.7,1.8c0.3,0.7,0.6,1.2,0.6,1.6
				S37,7.4,36.6,7.5s-0.9,0.1-1.3,0.1c-0.2,0-0.4,0-0.6,0c0.1,0.2,0.3,0.6,0.4,0.7c0.2,0.3,0.4,0.6,0.5,0.9c0.1,0.3,0.1,0.5-0.1,0.8
				c-0.2,0.2-0.4,0.4-0.7,0.4c-0.2,0-0.4,0-0.5,0c-0.4,0-1,0-1.4,0.1c0.4,0.3,0.9,0.5,1.1,0.6c0.2,0.1,0.4,0.2,0.5,0.3
				c0.6,0.4,1.7,1.1,2.3,2c0.1,0.2,0.2,0.4,0.1,0.6c-0.4,1.7-1.9,8-7.5,8c-2.6,0-5.2-1-7.7-2c-2.3-0.9-4.4-1.7-6.2-1.7
				c-1.4,0-2.6,0.6-3.9,1.9c-6.6,7-3.9,13.2-2.1,15.9l0.5-2.6c0.1-0.4,0.4-0.7,0.8-0.7l0,0c0.4,0,0.8,0.3,0.8,0.7
				c0.5,3,2.1,5.7,3.1,5.7c0.5,0,0.8-0.6,1.3-2.1c1-2.6,1.5-3.2,2.1-3.4C18.2,33.6,18.3,33.6,18.4,33.6z M46.2,3.8L46.2,3.8
				L46.2,3.8z"/>
		</g>
	</g>
</g>
</svg>
