<?xml version="1.0" encoding="utf-8"?>
<!-- Generator: Adobe Illustrator 19.2.1, SVG Export Plug-In . SVG Version: 6.00 Build 0)  -->
<svg version="1.1" id="Layer_1" xmlns="http://www.w3.org/2000/svg" xmlns:xlink="http://www.w3.org/1999/xlink" x="0px" y="0px"
	 viewBox="0 0 64 64" style="enable-background:new 0 0 64 64;" xml:space="preserve">
<metadata><?xpacket begin="﻿" id="W5M0MpCehiHzreSzNTczkc9d"?>
<x:xmpmeta xmlns:x="adobe:ns:meta/" x:xmptk="Adobe XMP Core 5.6-c111 79.158366, 2015/09/25-01:12:00        ">
   <rdf:RDF xmlns:rdf="http://www.w3.org/1999/02/22-rdf-syntax-ns#">
      <rdf:Description rdf:about=""/>
   </rdf:RDF>
</x:xmpmeta>
                                                                                                    
                                                                                                    
                                                                                                    
                                                                                                    
                                                                                                    
                                                                                                    
                                                                                                    
                                                                                                    
                                                                                                    
                                                                                                    
                                                                                                    
                                                                                                    
                                                                                                    
                                                                                                    
                                                                                                    
                                                                                                    
                                                                                                    
                                                                                                    
                                                                                                    
                                                                                                    
                           
<?xpacket end="w"?></metadata>
<style type="text/css">
	.st0{fill:none;}
	.st1{fill:#5B554D;}
</style>
<rect class="st0" width="64" height="64"/>
<g>
	<g>
		<g>
			<g>
				<path class="st1" d="M831.1,541.3c-0.1,0-0.1,0-0.2,0c-0.4-0.1-0.6-0.5-0.5-0.8l2.5-11.3c0.1-0.4,0.5-0.6,0.8-0.5
					c0.4,0.1,0.6,0.5,0.5,0.8l-2.5,11.3C831.7,541.1,831.4,541.3,831.1,541.3z"/>
			</g>
			<g>
				<path class="st1" d="M832.4,540.5c-0.2,0-0.5-0.1-0.6-0.3l-0.9-1.4c-0.2-0.3-0.1-0.8,0.2-1c0.3-0.2,0.8-0.1,1,0.2l0.9,1.4
					c0.2,0.3,0.1,0.8-0.2,1C832.7,540.5,832.5,540.5,832.4,540.5z"/>
			</g>
			<g>
				<path class="st1" d="M830.1,540c-0.2,0-0.5-0.1-0.6-0.3c-0.2-0.3-0.1-0.8,0.2-1l1.4-0.9c0.3-0.2,0.8-0.1,1,0.2
					c0.2,0.3,0.1,0.8-0.2,1l-1.4,0.9C830.4,540,830.3,540,830.1,540z"/>
			</g>
			<g>
				<path class="st1" d="M833.2,538.7c-0.2,0-0.5-0.1-0.6-0.3l-1.2-1.9c-0.2-0.3-0.1-0.8,0.2-1c0.3-0.2,0.8-0.1,1,0.2l1.2,1.9
					c0.2,0.3,0.1,0.8-0.2,1C833.5,538.7,833.4,538.7,833.2,538.7z"/>
			</g>
			<g>
				<path class="st1" d="M830.2,538c-0.2,0-0.5-0.1-0.6-0.3c-0.2-0.3-0.1-0.8,0.2-1l1.9-1.2c0.3-0.2,0.8-0.1,1,0.2
					c0.2,0.3,0.1,0.8-0.2,1l-1.9,1.2C830.4,538,830.3,538,830.2,538z"/>
			</g>
			<g>
				<path class="st1" d="M833.1,532.1c-0.2,0-0.5-0.1-0.6-0.3l-0.9-1.4c-0.2-0.3-0.1-0.8,0.2-1c0.3-0.2,0.8-0.1,1,0.2l0.9,1.4
					c0.2,0.3,0.1,0.8-0.2,1C833.3,532.1,833.2,532.1,833.1,532.1z"/>
			</g>
			<g>
				<path class="st1" d="M833.1,532.1c-0.2,0-0.5-0.1-0.6-0.3c-0.2-0.3-0.1-0.8,0.2-1l1.4-0.9c0.3-0.2,0.8-0.1,1,0.2
					c0.2,0.3,0.1,0.8-0.2,1l-1.4,0.9C833.3,532.1,833.2,532.1,833.1,532.1z"/>
			</g>
			<g>
				<path class="st1" d="M832.6,534.5c-0.2,0-0.5-0.1-0.6-0.3l-1.2-1.9c-0.2-0.3-0.1-0.8,0.2-1c0.3-0.2,0.8-0.1,1,0.2l1.2,1.9
					c0.2,0.3,0.1,0.8-0.2,1C832.8,534.4,832.7,534.5,832.6,534.5z"/>
			</g>
			<g>
				<path class="st1" d="M832.6,534.5c-0.2,0-0.5-0.1-0.6-0.3c-0.2-0.3-0.1-0.8,0.2-1l1.9-1.2c0.3-0.2,0.8-0.1,1,0.2
					c0.2,0.3,0.1,0.8-0.2,1l-1.9,1.2C832.8,534.4,832.7,534.5,832.6,534.5z"/>
			</g>
		</g>
		<g>
			<g>
				<path class="st1" d="M838,536.9c-0.1,0-0.1,0-0.2,0l-11.3-2.5c-0.4-0.1-0.6-0.5-0.5-0.8c0.1-0.4,0.5-0.6,0.8-0.5l11.3,2.5
					c0.4,0.1,0.6,0.5,0.5,0.8C838.6,536.7,838.3,536.9,838,536.9z"/>
			</g>
			<g>
				<path class="st1" d="M827.4,535.8c-0.2,0-0.5-0.1-0.6-0.3c-0.2-0.3-0.1-0.8,0.2-1l1.4-0.9c0.3-0.2,0.8-0.1,1,0.2
					c0.2,0.3,0.1,0.8-0.2,1l-1.4,0.9C827.7,535.8,827.5,535.8,827.4,535.8z"/>
			</g>
			<g>
				<path class="st1" d="M828.8,534.9c-0.2,0-0.5-0.1-0.6-0.3l-0.9-1.4c-0.2-0.3-0.1-0.8,0.2-1c0.3-0.2,0.8-0.1,1,0.2l0.9,1.4
					c0.2,0.3,0.1,0.8-0.2,1C829.1,534.9,828.9,534.9,828.8,534.9z"/>
			</g>
			<g>
				<path class="st1" d="M829.3,536.6c-0.2,0-0.5-0.1-0.6-0.3c-0.2-0.3-0.1-0.8,0.2-1l1.9-1.2c0.3-0.2,0.8-0.1,1,0.2
					c0.2,0.3,0.1,0.8-0.2,1l-1.9,1.2C829.5,536.6,829.4,536.6,829.3,536.6z"/>
			</g>
			<g>
				<path class="st1" d="M831.1,535.4c-0.2,0-0.5-0.1-0.6-0.3l-1.2-1.9c-0.2-0.3-0.1-0.8,0.2-1c0.3-0.2,0.8-0.1,1,0.2l1.2,1.9
					c0.2,0.3,0.1,0.8-0.2,1C831.4,535.4,831.3,535.4,831.1,535.4z"/>
			</g>
			<g>
				<path class="st1" d="M835.8,536.4c-0.2,0-0.5-0.1-0.6-0.3c-0.2-0.3-0.1-0.8,0.2-1l1.4-0.9c0.3-0.2,0.8-0.1,1,0.2
					c0.2,0.3,0.1,0.8-0.2,1l-1.4,0.9C836.1,536.4,836,536.4,835.8,536.4z"/>
			</g>
			<g>
				<path class="st1" d="M836.7,537.8c-0.2,0-0.5-0.1-0.6-0.3l-0.9-1.4c-0.2-0.3-0.1-0.8,0.2-1c0.3-0.2,0.8-0.1,1,0.2l0.9,1.4
					c0.2,0.3,0.1,0.8-0.2,1C837,537.8,836.9,537.8,836.7,537.8z"/>
			</g>
			<g>
				<path class="st1" d="M833.5,535.9c-0.2,0-0.5-0.1-0.6-0.3c-0.2-0.3-0.1-0.8,0.2-1l1.9-1.2c0.3-0.2,0.8-0.1,1,0.2
					c0.2,0.3,0.1,0.8-0.2,1l-1.9,1.2C833.8,535.9,833.6,535.9,833.5,535.9z"/>
			</g>
			<g>
				<path class="st1" d="M834.7,537.8c-0.2,0-0.5-0.1-0.6-0.3l-1.2-1.9c-0.2-0.3-0.1-0.8,0.2-1c0.3-0.2,0.8-0.1,1,0.2l1.2,1.9
					c0.2,0.3,0.1,0.8-0.2,1C835,537.8,834.8,537.8,834.7,537.8z"/>
			</g>
		</g>
	</g>
	<g>
		<g>
			<g>
				<path class="st1" d="M839.4,532.4C839.3,532.4,839.3,532.4,839.4,532.4c-0.3-0.1-0.5-0.3-0.4-0.5l1.5-6.7c0-0.2,0.3-0.4,0.5-0.3
					c0.2,0,0.4,0.3,0.3,0.5l-1.5,6.7C839.7,532.3,839.6,532.4,839.4,532.4z"/>
			</g>
			<g>
				<path class="st1" d="M840.2,532c-0.1,0-0.3-0.1-0.4-0.2l-0.5-0.8c-0.1-0.2-0.1-0.5,0.1-0.6c0.2-0.1,0.5-0.1,0.6,0.1l0.5,0.8
					c0.1,0.2,0.1,0.5-0.1,0.6C840.3,531.9,840.3,532,840.2,532z"/>
			</g>
			<g>
				<path class="st1" d="M838.8,531.7c-0.1,0-0.3-0.1-0.4-0.2c-0.1-0.2-0.1-0.5,0.1-0.6l0.8-0.5c0.2-0.1,0.5-0.1,0.6,0.1
					c0.1,0.2,0.1,0.5-0.1,0.6l-0.8,0.5C839,531.6,838.9,531.7,838.8,531.7z"/>
			</g>
			<g>
				<path class="st1" d="M840.7,530.9c-0.1,0-0.3-0.1-0.4-0.2l-0.7-1.1c-0.1-0.2-0.1-0.5,0.1-0.6c0.2-0.1,0.5-0.1,0.6,0.1l0.7,1.1
					c0.1,0.2,0.1,0.5-0.1,0.6C840.8,530.8,840.7,530.9,840.7,530.9z"/>
			</g>
			<g>
				<path class="st1" d="M838.8,530.5c-0.1,0-0.3-0.1-0.4-0.2c-0.1-0.2-0.1-0.5,0.1-0.6l1.1-0.7c0.2-0.1,0.5-0.1,0.6,0.1
					c0.1,0.2,0.1,0.5-0.1,0.6l-1.1,0.7C839,530.4,838.9,530.5,838.8,530.5z"/>
			</g>
			<g>
				<path class="st1" d="M840.6,527c-0.1,0-0.3-0.1-0.4-0.2l-0.5-0.8c-0.1-0.2-0.1-0.5,0.1-0.6c0.2-0.1,0.5-0.1,0.6,0.1l0.5,0.8
					c0.1,0.2,0.1,0.5-0.1,0.6C840.7,527,840.6,527,840.6,527z"/>
			</g>
			<g>
				<path class="st1" d="M840.6,527c-0.1,0-0.3-0.1-0.4-0.2c-0.1-0.2-0.1-0.5,0.1-0.6l0.8-0.5c0.2-0.1,0.5-0.1,0.6,0.1
					c0.1,0.2,0.1,0.5-0.1,0.6l-0.8,0.5C840.7,527,840.6,527,840.6,527z"/>
			</g>
			<g>
				<path class="st1" d="M840.3,528.4c-0.1,0-0.3-0.1-0.4-0.2l-0.7-1.1c-0.1-0.2-0.1-0.5,0.1-0.6c0.2-0.1,0.5-0.1,0.6,0.1l0.7,1.1
					c0.1,0.2,0.1,0.5-0.1,0.6C840.4,528.3,840.3,528.4,840.3,528.4z"/>
			</g>
			<g>
				<path class="st1" d="M840.3,528.4c-0.1,0-0.3-0.1-0.4-0.2c-0.1-0.2-0.1-0.5,0.1-0.6l1.1-0.7c0.2-0.1,0.5-0.1,0.6,0.1
					c0.1,0.2,0.1,0.5-0.1,0.6l-1.1,0.7C840.4,528.3,840.3,528.4,840.3,528.4z"/>
			</g>
		</g>
		<g>
			<g>
				<path class="st1" d="M843.4,529.8C843.4,529.8,843.4,529.8,843.4,529.8l-6.8-1.5c-0.2,0-0.4-0.3-0.3-0.5c0-0.2,0.3-0.4,0.5-0.3
					l6.7,1.5c0.2,0,0.4,0.3,0.3,0.5C843.8,529.7,843.6,529.8,843.4,529.8z"/>
			</g>
			<g>
				<path class="st1" d="M837.2,529.1c-0.1,0-0.3-0.1-0.4-0.2c-0.1-0.2-0.1-0.5,0.1-0.6l0.8-0.5c0.2-0.1,0.5-0.1,0.6,0.1
					c0.1,0.2,0.1,0.5-0.1,0.6l-0.8,0.5C837.4,529.1,837.3,529.1,837.2,529.1z"/>
			</g>
			<g>
				<path class="st1" d="M838,528.6c-0.1,0-0.3-0.1-0.4-0.2l-0.5-0.8c-0.1-0.2-0.1-0.5,0.1-0.6c0.2-0.1,0.5-0.1,0.6,0.1l0.5,0.8
					c0.1,0.2,0.1,0.5-0.1,0.6C838.2,528.6,838.1,528.6,838,528.6z"/>
			</g>
			<g>
				<path class="st1" d="M838.3,529.6c-0.1,0-0.3-0.1-0.4-0.2c-0.1-0.2-0.1-0.5,0.1-0.6l1.1-0.7c0.2-0.1,0.5-0.1,0.6,0.1
					c0.1,0.2,0.1,0.5-0.1,0.6l-1.1,0.7C838.5,529.6,838.4,529.6,838.3,529.6z"/>
			</g>
			<g>
				<path class="st1" d="M839.4,528.9c-0.1,0-0.3-0.1-0.4-0.2l-0.7-1.1c-0.1-0.2-0.1-0.5,0.1-0.6c0.2-0.1,0.5-0.1,0.6,0.1l0.7,1.1
					c0.1,0.2,0.1,0.5-0.1,0.6C839.6,528.9,839.5,528.9,839.4,528.9z"/>
			</g>
			<g>
				<path class="st1" d="M842.2,529.5c-0.1,0-0.3-0.1-0.4-0.2c-0.1-0.2-0.1-0.5,0.1-0.6l0.8-0.5c0.2-0.1,0.5-0.1,0.6,0.1
					c0.1,0.2,0.1,0.5-0.1,0.6l-0.8,0.5C842.4,529.5,842.3,529.5,842.2,529.5z"/>
			</g>
			<g>
				<path class="st1" d="M842.7,530.4c-0.1,0-0.3-0.1-0.4-0.2l-0.5-0.8c-0.1-0.2-0.1-0.5,0.1-0.6c0.2-0.1,0.5-0.1,0.6,0.1l0.5,0.8
					c0.1,0.2,0.1,0.5-0.1,0.6C842.9,530.3,842.8,530.4,842.7,530.4z"/>
			</g>
			<g>
				<path class="st1" d="M840.8,529.2c-0.1,0-0.3-0.1-0.4-0.2c-0.1-0.2-0.1-0.5,0.1-0.6l1.1-0.7c0.2-0.1,0.5-0.1,0.6,0.1
					c0.1,0.2,0.1,0.5-0.1,0.6l-1.1,0.7C841,529.2,840.9,529.2,840.8,529.2z"/>
			</g>
			<g>
				<path class="st1" d="M841.5,530.3c-0.1,0-0.3-0.1-0.4-0.2l-0.7-1.1c-0.1-0.2-0.1-0.5,0.1-0.6c0.2-0.1,0.5-0.1,0.6,0.1l0.7,1.1
					c0.1,0.2,0.1,0.5-0.1,0.6C841.7,530.3,841.6,530.3,841.5,530.3z"/>
			</g>
		</g>
	</g>
	<g>
		<g>
			<g>
				<path class="st1" d="M827.1,529.7C827.1,529.7,827.1,529.7,827.1,529.7c-0.3-0.1-0.5-0.3-0.4-0.5l1.5-6.7c0-0.2,0.3-0.4,0.5-0.3
					c0.2,0,0.4,0.3,0.3,0.5l-1.5,6.7C827.5,529.6,827.3,529.7,827.1,529.7z"/>
			</g>
			<g>
				<path class="st1" d="M828,529.3c-0.1,0-0.3-0.1-0.4-0.2l-0.5-0.8c-0.1-0.2-0.1-0.5,0.1-0.6c0.2-0.1,0.5-0.1,0.6,0.1l0.5,0.8
					c0.1,0.2,0.1,0.5-0.1,0.6C828.1,529.3,828,529.3,828,529.3z"/>
			</g>
			<g>
				<path class="st1" d="M826.6,529c-0.1,0-0.3-0.1-0.4-0.2c-0.1-0.2-0.1-0.5,0.1-0.6l0.8-0.5c0.2-0.1,0.5-0.1,0.6,0.1
					c0.1,0.2,0.1,0.5-0.1,0.6l-0.8,0.5C826.8,529,826.7,529,826.6,529z"/>
			</g>
			<g>
				<path class="st1" d="M828.4,528.2c-0.1,0-0.3-0.1-0.4-0.2l-0.7-1.1c-0.1-0.2-0.1-0.5,0.1-0.6c0.2-0.1,0.5-0.1,0.6,0.1l0.7,1.1
					c0.1,0.2,0.1,0.5-0.1,0.6C828.6,528.2,828.5,528.2,828.4,528.2z"/>
			</g>
			<g>
				<path class="st1" d="M826.6,527.8c-0.1,0-0.3-0.1-0.4-0.2c-0.1-0.2-0.1-0.5,0.1-0.6l1.1-0.7c0.2-0.1,0.5-0.1,0.6,0.1
					c0.1,0.2,0.1,0.5-0.1,0.6l-1.1,0.7C826.8,527.8,826.7,527.8,826.6,527.8z"/>
			</g>
			<g>
				<path class="st1" d="M828.3,524.3c-0.1,0-0.3-0.1-0.4-0.2l-0.5-0.8c-0.1-0.2-0.1-0.5,0.1-0.6c0.2-0.1,0.5-0.1,0.6,0.1l0.5,0.8
					c0.1,0.2,0.1,0.5-0.1,0.6C828.5,524.3,828.4,524.3,828.3,524.3z"/>
			</g>
			<g>
				<path class="st1" d="M828.3,524.3c-0.1,0-0.3-0.1-0.4-0.2c-0.1-0.2-0.1-0.5,0.1-0.6l0.8-0.5c0.2-0.1,0.5-0.1,0.6,0.1
					c0.1,0.2,0.1,0.5-0.1,0.6l-0.8,0.5C828.5,524.3,828.4,524.3,828.3,524.3z"/>
			</g>
			<g>
				<path class="st1" d="M828,525.7c-0.1,0-0.3-0.1-0.4-0.2l-0.7-1.1c-0.1-0.2-0.1-0.5,0.1-0.6c0.2-0.1,0.5-0.1,0.6,0.1l0.7,1.1
					c0.1,0.2,0.1,0.5-0.1,0.6C828.2,525.7,828.1,525.7,828,525.7z"/>
			</g>
			<g>
				<path class="st1" d="M828,525.7c-0.1,0-0.3-0.1-0.4-0.2c-0.1-0.2-0.1-0.5,0.1-0.6l1.1-0.7c0.2-0.1,0.5-0.1,0.6,0.1
					c0.1,0.2,0.1,0.5-0.1,0.6l-1.1,0.7C828.2,525.7,828.1,525.7,828,525.7z"/>
			</g>
		</g>
		<g>
			<g>
				<path class="st1" d="M831.2,527.1C831.2,527.1,831.2,527.1,831.2,527.1l-6.8-1.5c-0.2,0-0.4-0.3-0.3-0.5c0-0.2,0.3-0.4,0.5-0.3
					l6.7,1.5c0.2,0,0.4,0.3,0.3,0.5C831.6,527,831.4,527.1,831.2,527.1z"/>
			</g>
			<g>
				<path class="st1" d="M825,526.5c-0.1,0-0.3-0.1-0.4-0.2c-0.1-0.2-0.1-0.5,0.1-0.6l0.8-0.5c0.2-0.1,0.5-0.1,0.6,0.1
					c0.1,0.2,0.1,0.5-0.1,0.6l-0.8,0.5C825.2,526.4,825.1,526.5,825,526.5z"/>
			</g>
			<g>
				<path class="st1" d="M825.8,525.9c-0.1,0-0.3-0.1-0.4-0.2l-0.5-0.8c-0.1-0.2-0.1-0.5,0.1-0.6c0.2-0.1,0.5-0.1,0.6,0.1l0.5,0.8
					c0.1,0.2,0.1,0.5-0.1,0.6C826,525.9,825.9,525.9,825.8,525.9z"/>
			</g>
			<g>
				<path class="st1" d="M826.1,527c-0.1,0-0.3-0.1-0.4-0.2c-0.1-0.2-0.1-0.5,0.1-0.6l1.1-0.7c0.2-0.1,0.5-0.1,0.6,0.1
					c0.1,0.2,0.1,0.5-0.1,0.6l-1.1,0.7C826.2,526.9,826.2,527,826.1,527z"/>
			</g>
			<g>
				<path class="st1" d="M827.2,526.2c-0.1,0-0.3-0.1-0.4-0.2l-0.7-1.1c-0.1-0.2-0.1-0.5,0.1-0.6c0.2-0.1,0.5-0.1,0.6,0.1l0.7,1.1
					c0.1,0.2,0.1,0.5-0.1,0.6C827.4,526.2,827.3,526.2,827.2,526.2z"/>
			</g>
			<g>
				<path class="st1" d="M830,526.9c-0.1,0-0.3-0.1-0.4-0.2c-0.1-0.2-0.1-0.5,0.1-0.6l0.8-0.5c0.2-0.1,0.5-0.1,0.6,0.1
					c0.1,0.2,0.1,0.5-0.1,0.6l-0.8,0.5C830.1,526.8,830.1,526.9,830,526.9z"/>
			</g>
			<g>
				<path class="st1" d="M830.5,527.7c-0.1,0-0.3-0.1-0.4-0.2l-0.5-0.8c-0.1-0.2-0.1-0.5,0.1-0.6c0.2-0.1,0.5-0.1,0.6,0.1l0.5,0.8
					c0.1,0.2,0.1,0.5-0.1,0.6C830.7,527.7,830.6,527.7,830.5,527.7z"/>
			</g>
			<g>
				<path class="st1" d="M828.6,526.6c-0.1,0-0.3-0.1-0.4-0.2c-0.1-0.2-0.1-0.5,0.1-0.6l1.1-0.7c0.2-0.1,0.5-0.1,0.6,0.1
					c0.1,0.2,0.1,0.5-0.1,0.6l-1.1,0.7C828.8,526.5,828.7,526.6,828.6,526.6z"/>
			</g>
			<g>
				<path class="st1" d="M829.3,527.7c-0.1,0-0.3-0.1-0.4-0.2l-0.7-1.1c-0.1-0.2-0.1-0.5,0.1-0.6c0.2-0.1,0.5-0.1,0.6,0.1l0.7,1.1
					c0.1,0.2,0.1,0.5-0.1,0.6C829.5,527.6,829.4,527.7,829.3,527.7z"/>
			</g>
		</g>
	</g>
	<g>
		<g>
			<g>
				<path class="st1" d="M834.2,526.6C834.2,526.6,834.2,526.6,834.2,526.6c-0.3-0.1-0.5-0.3-0.4-0.5l1.5-6.7c0-0.2,0.3-0.4,0.5-0.3
					c0.2,0,0.4,0.3,0.3,0.5l-1.5,6.7C834.6,526.4,834.4,526.6,834.2,526.6z"/>
			</g>
			<g>
				<path class="st1" d="M835.1,526.1c-0.1,0-0.3-0.1-0.4-0.2l-0.5-0.8c-0.1-0.2-0.1-0.5,0.1-0.6c0.2-0.1,0.5-0.1,0.6,0.1l0.5,0.8
					c0.1,0.2,0.1,0.5-0.1,0.6C835.2,526.1,835.1,526.1,835.1,526.1z"/>
			</g>
			<g>
				<path class="st1" d="M833.7,525.8c-0.1,0-0.3-0.1-0.4-0.2c-0.1-0.2-0.1-0.5,0.1-0.6l0.8-0.5c0.2-0.1,0.5-0.1,0.6,0.1
					c0.1,0.2,0.1,0.5-0.1,0.6l-0.8,0.5C833.9,525.8,833.8,525.8,833.7,525.8z"/>
			</g>
			<g>
				<path class="st1" d="M835.5,525c-0.1,0-0.3-0.1-0.4-0.2l-0.7-1.1c-0.1-0.2-0.1-0.5,0.1-0.6c0.2-0.1,0.5-0.1,0.6,0.1l0.7,1.1
					c0.1,0.2,0.1,0.5-0.1,0.6C835.7,525,835.6,525,835.5,525z"/>
			</g>
			<g>
				<path class="st1" d="M833.7,524.6c-0.1,0-0.3-0.1-0.4-0.2c-0.1-0.2-0.1-0.5,0.1-0.6l1.1-0.7c0.2-0.1,0.5-0.1,0.6,0.1
					c0.1,0.2,0.1,0.5-0.1,0.6l-1.1,0.7C833.9,524.6,833.8,524.6,833.7,524.6z"/>
			</g>
			<g>
				<path class="st1" d="M835.4,521.1c-0.1,0-0.3-0.1-0.4-0.2l-0.5-0.8c-0.1-0.2-0.1-0.5,0.1-0.6c0.2-0.1,0.5-0.1,0.6,0.1l0.5,0.8
					c0.1,0.2,0.1,0.5-0.1,0.6C835.6,521.1,835.5,521.1,835.4,521.1z"/>
			</g>
			<g>
				<path class="st1" d="M835.4,521.1c-0.1,0-0.3-0.1-0.4-0.2c-0.1-0.2-0.1-0.5,0.1-0.6l0.8-0.5c0.2-0.1,0.5-0.1,0.6,0.1
					c0.1,0.2,0.1,0.5-0.1,0.6l-0.8,0.5C835.6,521.1,835.5,521.1,835.4,521.1z"/>
			</g>
			<g>
				<path class="st1" d="M835.1,522.5c-0.1,0-0.3-0.1-0.4-0.2l-0.7-1.1c-0.1-0.2-0.1-0.5,0.1-0.6c0.2-0.1,0.5-0.1,0.6,0.1l0.7,1.1
					c0.1,0.2,0.1,0.5-0.1,0.6C835.3,522.5,835.2,522.5,835.1,522.5z"/>
			</g>
			<g>
				<path class="st1" d="M835.1,522.5c-0.1,0-0.3-0.1-0.4-0.2c-0.1-0.2-0.1-0.5,0.1-0.6l1.1-0.7c0.2-0.1,0.5-0.1,0.6,0.1
					c0.1,0.2,0.1,0.5-0.1,0.6l-1.1,0.7C835.3,522.5,835.2,522.5,835.1,522.5z"/>
			</g>
		</g>
		<g>
			<g>
				<path class="st1" d="M838.3,523.9C838.3,523.9,838.3,523.9,838.3,523.9l-6.8-1.5c-0.2,0-0.4-0.3-0.3-0.5c0-0.2,0.3-0.4,0.5-0.3
					l6.7,1.5c0.2,0,0.4,0.3,0.3,0.5C838.7,523.8,838.5,523.9,838.3,523.9z"/>
			</g>
			<g>
				<path class="st1" d="M832.1,523.3c-0.1,0-0.3-0.1-0.4-0.2c-0.1-0.2-0.1-0.5,0.1-0.6l0.8-0.5c0.2-0.1,0.5-0.1,0.6,0.1
					c0.1,0.2,0.1,0.5-0.1,0.6l-0.8,0.5C832.3,523.3,832.2,523.3,832.1,523.3z"/>
			</g>
			<g>
				<path class="st1" d="M832.9,522.8c-0.1,0-0.3-0.1-0.4-0.2l-0.5-0.8c-0.1-0.2-0.1-0.5,0.1-0.6c0.2-0.1,0.5-0.1,0.6,0.1l0.5,0.8
					c0.1,0.2,0.1,0.5-0.1,0.6C833.1,522.7,833,522.8,832.9,522.8z"/>
			</g>
			<g>
				<path class="st1" d="M833.2,523.8c-0.1,0-0.3-0.1-0.4-0.2c-0.1-0.2-0.1-0.5,0.1-0.6l1.1-0.7c0.2-0.1,0.5-0.1,0.6,0.1
					c0.1,0.2,0.1,0.5-0.1,0.6l-1.1,0.7C833.4,523.7,833.3,523.8,833.2,523.8z"/>
			</g>
			<g>
				<path class="st1" d="M834.3,523.1c-0.1,0-0.3-0.1-0.4-0.2l-0.7-1.1c-0.1-0.2-0.1-0.5,0.1-0.6c0.2-0.1,0.5-0.1,0.6,0.1l0.7,1.1
					c0.1,0.2,0.1,0.5-0.1,0.6C834.5,523,834.4,523.1,834.3,523.1z"/>
			</g>
			<g>
				<path class="st1" d="M837.1,523.7c-0.1,0-0.3-0.1-0.4-0.2c-0.1-0.2-0.1-0.5,0.1-0.6l0.8-0.5c0.2-0.1,0.5-0.1,0.6,0.1
					c0.1,0.2,0.1,0.5-0.1,0.6l-0.8,0.5C837.2,523.6,837.2,523.7,837.1,523.7z"/>
			</g>
			<g>
				<path class="st1" d="M837.6,524.5c-0.1,0-0.3-0.1-0.4-0.2l-0.5-0.8c-0.1-0.2-0.1-0.5,0.1-0.6c0.2-0.1,0.5-0.1,0.6,0.1l0.5,0.8
					c0.1,0.2,0.1,0.5-0.1,0.6C837.8,524.5,837.7,524.5,837.6,524.5z"/>
			</g>
			<g>
				<path class="st1" d="M835.7,523.4c-0.1,0-0.3-0.1-0.4-0.2c-0.1-0.2-0.1-0.5,0.1-0.6l1.1-0.7c0.2-0.1,0.5-0.1,0.6,0.1
					c0.1,0.2,0.1,0.5-0.1,0.6l-1.1,0.7C835.9,523.3,835.8,523.4,835.7,523.4z"/>
			</g>
			<g>
				<path class="st1" d="M836.4,524.5c-0.1,0-0.3-0.1-0.4-0.2l-0.7-1.1c-0.1-0.2-0.1-0.5,0.1-0.6c0.2-0.1,0.5-0.1,0.6,0.1l0.7,1.1
					c0.1,0.2,0.1,0.5-0.1,0.6C836.6,524.5,836.5,524.5,836.4,524.5z"/>
			</g>
		</g>
	</g>
</g>
<g>
	<g>
		<g>
			<g>
				<path class="st1" d="M850.9,524.2c-3.2,0-5.9-2.6-5.9-5.9c0-0.4,0.3-0.7,0.7-0.7s0.7,0.3,0.7,0.7c0,2.5,2,4.5,4.5,4.5
					s4.5-2,4.5-4.5c0-3.7-2.9-4.7-4.4-4.8l-31.3,0c-0.4,0-0.7-0.3-0.7-0.7s0.3-0.7,0.7-0.7l0,0l31.3,0c2,0.1,5.8,1.5,5.8,6.2
					C856.8,521.6,854.2,524.2,850.9,524.2z M809.9,510.2c-0.4,0-0.7-0.3-0.7-0.7s0.3-0.7,0.7-0.7h41.1c0.2,0,4.5-0.2,4.5-4.8
					c0-2.5-2-4.5-4.5-4.5s-4.5,2-4.5,4.5c0,0.4-0.3,0.7-0.7,0.7s-0.7-0.3-0.7-0.7c0-3.2,2.6-5.9,5.9-5.9c3.2,0,5.9,2.6,5.9,5.9
					c0,4.7-3.8,6.1-5.9,6.2L809.9,510.2z"/>
			</g>
		</g>
	</g>
	<g>
		<path class="st1" d="M839.4,506.3h-25.6c-0.4,0-0.7-0.3-0.7-0.7s0.3-0.7,0.7-0.7h25.6c0.4,0,0.7,0.3,0.7,0.7
			S839.8,506.3,839.4,506.3z"/>
	</g>
	<g>
		<path class="st1" d="M842.6,517.7H828c-0.4,0-0.7-0.3-0.7-0.7s0.3-0.7,0.7-0.7h14.7c0.4,0,0.7,0.3,0.7,0.7S843,517.7,842.6,517.7z
			"/>
	</g>
</g>
<g>
	<g>
		<g>
			<g>
				<g>
					<path class="st1" d="M29.5,60.1c-0.1,0-0.1,0-0.2,0c-0.5-0.1-0.8-0.6-0.7-1.1l3.2-14.8c0.1-0.5,0.6-0.8,1.1-0.7
						c0.5,0.1,0.8,0.6,0.7,1.1l-3.2,14.8C30.3,59.8,29.9,60.1,29.5,60.1z"/>
				</g>
				<g>
					<path class="st1" d="M31.3,59.1c-0.3,0-0.6-0.1-0.8-0.4l-1.2-1.8c-0.3-0.4-0.1-1,0.3-1.3c0.4-0.3,1-0.1,1.3,0.3l1.2,1.8
						c0.3,0.4,0.1,1-0.3,1.3C31.6,59,31.4,59.1,31.3,59.1z"/>
				</g>
				<g>
					<path class="st1" d="M28.3,58.4c-0.3,0-0.6-0.1-0.8-0.4c-0.3-0.4-0.1-1,0.3-1.3l1.8-1.2c0.4-0.3,1-0.2,1.3,0.3
						c0.3,0.4,0.1,1-0.3,1.3l-1.8,1.2C28.6,58.4,28.5,58.4,28.3,58.4z"/>
				</g>
				<g>
					<path class="st1" d="M32.3,56.7c-0.3,0-0.6-0.1-0.8-0.4L30,53.8c-0.3-0.4-0.1-1,0.3-1.3c0.4-0.3,1-0.2,1.3,0.3l1.6,2.4
						c0.3,0.4,0.1,1-0.3,1.3C32.7,56.6,32.5,56.7,32.3,56.7z"/>
				</g>
				<g>
					<path class="st1" d="M28.3,55.8c-0.3,0-0.6-0.1-0.8-0.4c-0.3-0.4-0.1-1,0.3-1.3l2.4-1.6c0.4-0.3,1-0.1,1.3,0.3
						c0.3,0.4,0.1,1-0.3,1.3l-2.4,1.6C28.7,55.7,28.5,55.8,28.3,55.8z"/>
				</g>
				<g>
					<path class="st1" d="M32.1,48.1c-0.3,0-0.6-0.1-0.8-0.4l-1.2-1.8c-0.3-0.4-0.1-1,0.3-1.3c0.4-0.3,1-0.2,1.3,0.3l1.2,1.8
						c0.3,0.4,0.1,1-0.3,1.3C32.5,48.1,32.3,48.1,32.1,48.1z"/>
				</g>
				<g>
					<path class="st1" d="M32.1,48.1c-0.3,0-0.6-0.1-0.8-0.4c-0.3-0.4-0.1-1,0.3-1.3l1.8-1.2c0.4-0.3,1-0.2,1.3,0.3
						c0.3,0.4,0.1,1-0.3,1.3L32.6,48C32.5,48.1,32.3,48.1,32.1,48.1z"/>
				</g>
				<g>
					<path class="st1" d="M31.4,51.2c-0.3,0-0.6-0.1-0.8-0.4l-1.6-2.4c-0.3-0.4-0.1-1,0.3-1.3c0.4-0.3,1-0.2,1.3,0.3l1.6,2.4
						c0.3,0.4,0.1,1-0.3,1.3C31.8,51.1,31.6,51.2,31.4,51.2z"/>
				</g>
				<g>
					<path class="st1" d="M31.4,51.2c-0.3,0-0.6-0.1-0.8-0.4c-0.3-0.4-0.1-1,0.3-1.3l2.4-1.6c0.4-0.3,1-0.1,1.3,0.3
						c0.3,0.4,0.1,1-0.3,1.3L31.9,51C31.8,51.1,31.6,51.2,31.4,51.2z"/>
				</g>
			</g>
			<g>
				<g>
					<path class="st1" d="M38.5,54.4c-0.1,0-0.1,0-0.2,0l-14.8-3.2C23,51,22.7,50.5,22.8,50c0.1-0.5,0.6-0.8,1.1-0.7l14.8,3.2
						c0.5,0.1,0.8,0.6,0.7,1.1C39.3,54.1,38.9,54.4,38.5,54.4z"/>
				</g>
				<g>
					<path class="st1" d="M24.8,52.9c-0.3,0-0.6-0.1-0.8-0.4c-0.3-0.4-0.1-1,0.3-1.3l1.8-1.2c0.4-0.3,1-0.1,1.3,0.3
						c0.3,0.4,0.1,1-0.3,1.3l-1.8,1.2C25.1,52.8,24.9,52.9,24.8,52.9z"/>
				</g>
				<g>
					<path class="st1" d="M26.6,51.7c-0.3,0-0.6-0.1-0.8-0.4l-1.2-1.8c-0.3-0.4-0.1-1,0.3-1.3c0.4-0.3,1-0.2,1.3,0.3l1.2,1.8
						c0.3,0.4,0.1,1-0.3,1.3C26.9,51.7,26.7,51.7,26.6,51.7z"/>
				</g>
				<g>
					<path class="st1" d="M27.2,54c-0.3,0-0.6-0.1-0.8-0.4c-0.3-0.4-0.1-1,0.3-1.3l2.4-1.6c0.4-0.3,1-0.2,1.3,0.3
						c0.3,0.4,0.1,1-0.3,1.3l-2.4,1.6C27.5,53.9,27.3,54,27.2,54z"/>
				</g>
				<g>
					<path class="st1" d="M29.6,52.4c-0.3,0-0.6-0.1-0.8-0.4l-1.6-2.4c-0.3-0.4-0.1-1,0.3-1.3c0.4-0.3,1-0.1,1.3,0.3l1.6,2.4
						c0.3,0.4,0.1,1-0.3,1.3C29.9,52.4,29.8,52.4,29.6,52.4z"/>
				</g>
				<g>
					<path class="st1" d="M35.7,53.7c-0.3,0-0.6-0.1-0.8-0.4c-0.3-0.4-0.1-1,0.3-1.3l1.8-1.2c0.4-0.3,1-0.2,1.3,0.3
						c0.3,0.4,0.1,1-0.3,1.3l-1.8,1.2C36.1,53.7,35.9,53.7,35.7,53.7z"/>
				</g>
				<g>
					<path class="st1" d="M36.9,55.6c-0.3,0-0.6-0.1-0.8-0.4l-1.2-1.8c-0.3-0.4-0.1-1,0.3-1.3c0.4-0.3,1-0.2,1.3,0.3l1.2,1.8
						c0.3,0.4,0.1,1-0.3,1.3C37.2,55.5,37,55.6,36.9,55.6z"/>
				</g>
				<g>
					<path class="st1" d="M32.7,53.1c-0.3,0-0.6-0.1-0.8-0.4c-0.3-0.4-0.1-1,0.3-1.3l2.4-1.6c0.4-0.3,1-0.1,1.3,0.3
						c0.3,0.4,0.1,1-0.3,1.3l-2.4,1.6C33,53,32.8,53.1,32.7,53.1z"/>
				</g>
				<g>
					<path class="st1" d="M34.2,55.5c-0.3,0-0.6-0.1-0.8-0.4l-1.6-2.4c-0.3-0.4-0.1-1,0.3-1.3c0.4-0.3,1-0.1,1.3,0.3l1.6,2.4
						c0.3,0.4,0.1,1-0.3,1.3C34.6,55.5,34.4,55.5,34.2,55.5z"/>
				</g>
			</g>
		</g>
		<g>
			<g>
				<g>
					<path class="st1" d="M40.3,48.5c0,0-0.1,0-0.1,0c-0.3-0.1-0.5-0.4-0.4-0.7l1.9-8.7c0.1-0.3,0.4-0.5,0.7-0.4
						c0.3,0.1,0.5,0.4,0.4,0.7l-1.9,8.7C40.8,48.3,40.6,48.5,40.3,48.5z"/>
				</g>
				<g>
					<path class="st1" d="M41.3,47.9c-0.2,0-0.4-0.1-0.5-0.3l-0.7-1.1c-0.2-0.3-0.1-0.6,0.2-0.8c0.3-0.2,0.6-0.1,0.8,0.2l0.7,1.1
						c0.2,0.3,0.1,0.6-0.2,0.8C41.6,47.9,41.5,47.9,41.3,47.9z"/>
				</g>
				<g>
					<path class="st1" d="M39.6,47.5c-0.2,0-0.4-0.1-0.5-0.3C39,47,39,46.7,39.3,46.5l1.1-0.7c0.3-0.2,0.6-0.1,0.8,0.2
						c0.2,0.3,0.1,0.6-0.2,0.8l-1.1,0.7C39.8,47.5,39.7,47.5,39.6,47.5z"/>
				</g>
				<g>
					<path class="st1" d="M42,46.5c-0.2,0-0.4-0.1-0.5-0.3l-0.9-1.4c-0.2-0.3-0.1-0.6,0.2-0.8c0.3-0.2,0.6-0.1,0.8,0.2l0.9,1.4
						c0.2,0.3,0.1,0.6-0.2,0.8C42.2,46.5,42.1,46.5,42,46.5z"/>
				</g>
				<g>
					<path class="st1" d="M39.6,46c-0.2,0-0.4-0.1-0.5-0.3c-0.2-0.3-0.1-0.6,0.2-0.8l1.4-0.9c0.3-0.2,0.6-0.1,0.8,0.2
						c0.2,0.3,0.1,0.6-0.2,0.8l-1.4,0.9C39.8,45.9,39.7,46,39.6,46z"/>
				</g>
				<g>
					<path class="st1" d="M41.9,41.4c-0.2,0-0.4-0.1-0.5-0.3l-0.7-1.1c-0.2-0.3-0.1-0.6,0.2-0.8c0.3-0.2,0.6-0.1,0.8,0.2l0.7,1.1
						c0.2,0.3,0.1,0.6-0.2,0.8C42.1,41.4,42,41.4,41.9,41.4z"/>
				</g>
				<g>
					<path class="st1" d="M41.9,41.4c-0.2,0-0.4-0.1-0.5-0.3c-0.2-0.3-0.1-0.6,0.2-0.8l1.1-0.7c0.3-0.2,0.6-0.1,0.8,0.2
						c0.2,0.3,0.1,0.6-0.2,0.8l-1.1,0.7C42.1,41.4,42,41.4,41.9,41.4z"/>
				</g>
				<g>
					<path class="st1" d="M41.5,43.2c-0.2,0-0.4-0.1-0.5-0.3l-0.9-1.4c-0.2-0.3-0.1-0.6,0.2-0.8c0.3-0.2,0.6-0.1,0.8,0.2l0.9,1.4
						c0.2,0.3,0.1,0.6-0.2,0.8C41.7,43.2,41.6,43.2,41.5,43.2z"/>
				</g>
				<g>
					<path class="st1" d="M41.5,43.2c-0.2,0-0.4-0.1-0.5-0.3c-0.2-0.3-0.1-0.6,0.2-0.8l1.4-0.9c0.3-0.2,0.6-0.1,0.8,0.2
						c0.2,0.3,0.1,0.6-0.2,0.8l-1.4,0.9C41.7,43.2,41.6,43.2,41.5,43.2z"/>
				</g>
			</g>
			<g>
				<g>
					<path class="st1" d="M45.6,45.1c0,0-0.1,0-0.1,0l-8.7-1.9c-0.3-0.1-0.5-0.4-0.4-0.7c0.1-0.3,0.4-0.5,0.7-0.4l8.7,1.9
						c0.3,0.1,0.5,0.4,0.4,0.7C46.1,44.9,45.9,45.1,45.6,45.1z"/>
				</g>
				<g>
					<path class="st1" d="M37.5,44.3c-0.2,0-0.4-0.1-0.5-0.3c-0.2-0.3-0.1-0.6,0.2-0.8l1.1-0.7c0.3-0.2,0.6-0.1,0.8,0.2
						c0.2,0.3,0.1,0.6-0.2,0.8l-1.1,0.7C37.7,44.2,37.6,44.3,37.5,44.3z"/>
				</g>
				<g>
					<path class="st1" d="M38.6,43.6c-0.2,0-0.4-0.1-0.5-0.3l-0.7-1.1c-0.2-0.3-0.1-0.6,0.2-0.8c0.3-0.2,0.6-0.1,0.8,0.2l0.7,1.1
						c0.2,0.3,0.1,0.6-0.2,0.8C38.8,43.5,38.7,43.6,38.6,43.6z"/>
				</g>
				<g>
					<path class="st1" d="M38.9,44.9c-0.2,0-0.4-0.1-0.5-0.3c-0.2-0.3-0.1-0.6,0.2-0.8l1.4-0.9c0.3-0.2,0.6-0.1,0.8,0.2
						c0.2,0.3,0.1,0.6-0.2,0.8l-1.4,0.9C39.1,44.9,39,44.9,38.9,44.9z"/>
				</g>
				<g>
					<path class="st1" d="M40.4,44c-0.2,0-0.4-0.1-0.5-0.3L39,42.3c-0.2-0.3-0.1-0.6,0.2-0.8c0.3-0.2,0.6-0.1,0.8,0.2l0.9,1.4
						c0.2,0.3,0.1,0.6-0.2,0.8C40.6,43.9,40.5,44,40.4,44z"/>
				</g>
				<g>
					<path class="st1" d="M44,44.8c-0.2,0-0.4-0.1-0.5-0.3c-0.2-0.3-0.1-0.6,0.2-0.8l1.1-0.7c0.3-0.2,0.6-0.1,0.8,0.2
						c0.2,0.3,0.1,0.6-0.2,0.8l-1.1,0.7C44.2,44.7,44.1,44.8,44,44.8z"/>
				</g>
				<g>
					<path class="st1" d="M44.7,45.8c-0.2,0-0.4-0.1-0.5-0.3l-0.7-1.1c-0.2-0.3-0.1-0.6,0.2-0.8c0.3-0.2,0.6-0.1,0.8,0.2l0.7,1.1
						c0.2,0.3,0.1,0.6-0.2,0.8C44.9,45.8,44.8,45.8,44.7,45.8z"/>
				</g>
				<g>
					<path class="st1" d="M42.2,44.4c-0.2,0-0.4-0.1-0.5-0.3c-0.2-0.3-0.1-0.6,0.2-0.8l1.4-0.9c0.3-0.2,0.6-0.1,0.8,0.2
						c0.2,0.3,0.1,0.6-0.2,0.8l-1.4,0.9C42.4,44.3,42.3,44.4,42.2,44.4z"/>
				</g>
				<g>
					<path class="st1" d="M43.1,45.8c-0.2,0-0.4-0.1-0.5-0.3l-0.9-1.4c-0.2-0.3-0.1-0.6,0.2-0.8c0.3-0.2,0.6-0.1,0.8,0.2l0.9,1.4
						c0.2,0.3,0.1,0.6-0.2,0.8C43.3,45.8,43.2,45.8,43.1,45.8z"/>
				</g>
			</g>
		</g>
		<g>
			<g>
				<g>
					<path class="st1" d="M24.4,45c0,0-0.1,0-0.1,0c-0.3-0.1-0.5-0.4-0.4-0.7l1.9-8.7c0.1-0.3,0.4-0.5,0.7-0.4
						c0.3,0.1,0.5,0.4,0.4,0.7l-1.9,8.7C24.9,44.8,24.7,45,24.4,45z"/>
				</g>
				<g>
					<path class="st1" d="M25.5,44.4c-0.2,0-0.4-0.1-0.5-0.3l-0.7-1.1c-0.2-0.3-0.1-0.6,0.2-0.8c0.3-0.2,0.6-0.1,0.8,0.2l0.7,1.1
						c0.2,0.3,0.1,0.6-0.2,0.8C25.7,44.4,25.6,44.4,25.5,44.4z"/>
				</g>
				<g>
					<path class="st1" d="M23.7,44c-0.2,0-0.4-0.1-0.5-0.3c-0.2-0.3-0.1-0.6,0.2-0.8l1.1-0.7c0.3-0.2,0.6-0.1,0.8,0.2
						c0.2,0.3,0.1,0.6-0.2,0.8L24,43.9C23.9,44,23.8,44,23.7,44z"/>
				</g>
				<g>
					<path class="st1" d="M26.1,43c-0.2,0-0.4-0.1-0.5-0.3l-0.9-1.4c-0.2-0.3-0.1-0.6,0.2-0.8c0.3-0.2,0.6-0.1,0.8,0.2l0.9,1.4
						c0.2,0.3,0.1,0.6-0.2,0.8C26.3,43,26.2,43,26.1,43z"/>
				</g>
				<g>
					<path class="st1" d="M23.7,42.5c-0.2,0-0.4-0.1-0.5-0.3c-0.2-0.3-0.1-0.6,0.2-0.8l1.4-0.9c0.3-0.2,0.6-0.1,0.8,0.2
						c0.2,0.3,0.1,0.6-0.2,0.8L24,42.4C23.9,42.4,23.8,42.5,23.7,42.5z"/>
				</g>
				<g>
					<path class="st1" d="M26,37.9c-0.2,0-0.4-0.1-0.5-0.3l-0.7-1.1c-0.2-0.3-0.1-0.6,0.2-0.8c0.3-0.2,0.6-0.1,0.8,0.2l0.7,1.1
						c0.2,0.3,0.1,0.6-0.2,0.8C26.2,37.9,26.1,37.9,26,37.9z"/>
				</g>
				<g>
					<path class="st1" d="M26,37.9c-0.2,0-0.4-0.1-0.5-0.3c-0.2-0.3-0.1-0.6,0.2-0.8l1.1-0.7c0.3-0.2,0.6-0.1,0.8,0.2
						c0.2,0.3,0.1,0.6-0.2,0.8l-1.1,0.7C26.2,37.9,26.1,37.9,26,37.9z"/>
				</g>
				<g>
					<path class="st1" d="M25.6,39.7c-0.2,0-0.4-0.1-0.5-0.3L24.2,38c-0.2-0.3-0.1-0.6,0.2-0.8c0.3-0.2,0.6-0.1,0.8,0.2l0.9,1.4
						c0.2,0.3,0.1,0.6-0.2,0.8C25.8,39.7,25.7,39.7,25.6,39.7z"/>
				</g>
				<g>
					<path class="st1" d="M25.6,39.7c-0.2,0-0.4-0.1-0.5-0.3c-0.2-0.3-0.1-0.6,0.2-0.8l1.4-0.9c0.3-0.2,0.6-0.1,0.8,0.2
						c0.2,0.3,0.1,0.6-0.2,0.8l-1.4,0.9C25.8,39.7,25.7,39.7,25.6,39.7z"/>
				</g>
			</g>
			<g>
				<g>
					<path class="st1" d="M29.7,41.6c0,0-0.1,0-0.1,0l-8.7-1.9c-0.3-0.1-0.5-0.4-0.4-0.7c0.1-0.3,0.4-0.5,0.7-0.4l8.7,1.9
						c0.3,0.1,0.5,0.4,0.4,0.7C30.2,41.4,30,41.6,29.7,41.6z"/>
				</g>
				<g>
					<path class="st1" d="M21.6,40.8c-0.2,0-0.4-0.1-0.5-0.3c-0.2-0.3-0.1-0.6,0.2-0.8l1.1-0.7c0.3-0.2,0.6-0.1,0.8,0.2
						c0.2,0.3,0.1,0.6-0.2,0.8l-1.1,0.7C21.8,40.7,21.7,40.8,21.6,40.8z"/>
				</g>
				<g>
					<path class="st1" d="M22.7,40.1c-0.2,0-0.4-0.1-0.5-0.3l-0.7-1.1c-0.2-0.3-0.1-0.6,0.2-0.8c0.3-0.2,0.6-0.1,0.8,0.2l0.7,1.1
						c0.2,0.3,0.1,0.6-0.2,0.8C22.9,40.1,22.8,40.1,22.7,40.1z"/>
				</g>
				<g>
					<path class="st1" d="M23,41.4c-0.2,0-0.4-0.1-0.5-0.3c-0.2-0.3-0.1-0.6,0.2-0.8l1.4-0.9c0.3-0.2,0.6-0.1,0.8,0.2
						c0.2,0.3,0.1,0.6-0.2,0.8l-1.4,0.9C23.2,41.4,23.1,41.4,23,41.4z"/>
				</g>
				<g>
					<path class="st1" d="M24.5,40.5c-0.2,0-0.4-0.1-0.5-0.3l-0.9-1.4c-0.2-0.3-0.1-0.6,0.2-0.8c0.3-0.2,0.6-0.1,0.8,0.2l0.9,1.4
						c0.2,0.3,0.1,0.6-0.2,0.8C24.7,40.4,24.6,40.5,24.5,40.5z"/>
				</g>
				<g>
					<path class="st1" d="M28.1,41.3c-0.2,0-0.4-0.1-0.5-0.3c-0.2-0.3-0.1-0.6,0.2-0.8l1.1-0.7c0.3-0.2,0.6-0.1,0.8,0.2
						c0.2,0.3,0.1,0.6-0.2,0.8l-1.1,0.7C28.3,41.2,28.2,41.3,28.1,41.3z"/>
				</g>
				<g>
					<path class="st1" d="M28.8,42.3c-0.2,0-0.4-0.1-0.5-0.3L27.6,41c-0.2-0.3-0.1-0.6,0.2-0.8c0.3-0.2,0.6-0.1,0.8,0.2l0.7,1.1
						c0.2,0.3,0.1,0.6-0.2,0.8C29,42.3,28.9,42.3,28.8,42.3z"/>
				</g>
				<g>
					<path class="st1" d="M26.3,40.9c-0.2,0-0.4-0.1-0.5-0.3c-0.2-0.3-0.1-0.6,0.2-0.8l1.4-0.9c0.3-0.2,0.6-0.1,0.8,0.2
						c0.2,0.3,0.1,0.6-0.2,0.8l-1.4,0.9C26.5,40.8,26.4,40.9,26.3,40.9z"/>
				</g>
				<g>
					<path class="st1" d="M27.2,42.3c-0.2,0-0.4-0.1-0.5-0.3l-0.9-1.4c-0.2-0.3-0.1-0.6,0.2-0.8c0.3-0.2,0.6-0.1,0.8,0.2l0.9,1.4
						c0.2,0.3,0.1,0.6-0.2,0.8C27.4,42.3,27.3,42.3,27.2,42.3z"/>
				</g>
			</g>
		</g>
		<g>
			<g>
				<g>
					<path class="st1" d="M33.6,40.9c0,0-0.1,0-0.1,0c-0.3-0.1-0.5-0.4-0.4-0.7l1.9-8.7c0.1-0.3,0.4-0.5,0.7-0.4
						c0.3,0.1,0.5,0.4,0.4,0.7l-1.9,8.7C34.1,40.7,33.9,40.9,33.6,40.9z"/>
				</g>
				<g>
					<path class="st1" d="M34.7,40.3c-0.2,0-0.4-0.1-0.5-0.3L33.5,39c-0.2-0.3-0.1-0.6,0.2-0.8c0.3-0.2,0.6-0.1,0.8,0.2l0.7,1.1
						c0.2,0.3,0.1,0.6-0.2,0.8C34.9,40.2,34.8,40.3,34.7,40.3z"/>
				</g>
				<g>
					<path class="st1" d="M32.9,39.9c-0.2,0-0.4-0.1-0.5-0.3c-0.2-0.3-0.1-0.6,0.2-0.8l1.1-0.7c0.3-0.2,0.6-0.1,0.8,0.2
						c0.2,0.3,0.1,0.6-0.2,0.8l-1.1,0.7C33.1,39.9,33,39.9,32.9,39.9z"/>
				</g>
				<g>
					<path class="st1" d="M35.3,38.9c-0.2,0-0.4-0.1-0.5-0.3l-0.9-1.4c-0.2-0.3-0.1-0.6,0.2-0.8c0.3-0.2,0.6-0.1,0.8,0.2l0.9,1.4
						c0.2,0.3,0.1,0.6-0.2,0.8C35.5,38.8,35.4,38.9,35.3,38.9z"/>
				</g>
				<g>
					<path class="st1" d="M33,38.3c-0.2,0-0.4-0.1-0.5-0.3c-0.2-0.3-0.1-0.6,0.2-0.8l1.4-0.9c0.3-0.2,0.6-0.1,0.8,0.2
						c0.2,0.3,0.1,0.6-0.2,0.8l-1.4,0.9C33.2,38.3,33.1,38.3,33,38.3z"/>
				</g>
				<g>
					<path class="st1" d="M35.2,33.8c-0.2,0-0.4-0.1-0.5-0.3L34,32.5c-0.2-0.3-0.1-0.6,0.2-0.8c0.3-0.2,0.6-0.1,0.8,0.2l0.7,1.1
						c0.2,0.3,0.1,0.6-0.2,0.8C35.4,33.8,35.3,33.8,35.2,33.8z"/>
				</g>
				<g>
					<path class="st1" d="M35.2,33.8c-0.2,0-0.4-0.1-0.5-0.3c-0.2-0.3-0.1-0.6,0.2-0.8l1.1-0.7c0.3-0.2,0.6-0.1,0.8,0.2
						c0.2,0.3,0.1,0.6-0.2,0.8l-1.1,0.7C35.4,33.8,35.3,33.8,35.2,33.8z"/>
				</g>
				<g>
					<path class="st1" d="M34.8,35.6c-0.2,0-0.4-0.1-0.5-0.3l-0.9-1.4c-0.2-0.3-0.1-0.6,0.2-0.8c0.3-0.2,0.6-0.1,0.8,0.2l0.9,1.4
						c0.2,0.3,0.1,0.6-0.2,0.8C35,35.6,34.9,35.6,34.8,35.6z"/>
				</g>
				<g>
					<path class="st1" d="M34.8,35.6c-0.2,0-0.4-0.1-0.5-0.3c-0.2-0.3-0.1-0.6,0.2-0.8l1.4-0.9c0.3-0.2,0.6-0.1,0.8,0.2
						c0.2,0.3,0.1,0.6-0.2,0.8l-1.4,0.9C35,35.6,34.9,35.6,34.8,35.6z"/>
				</g>
			</g>
			<g>
				<g>
					<path class="st1" d="M38.9,37.5c0,0-0.1,0-0.1,0l-8.7-1.9c-0.3-0.1-0.5-0.4-0.4-0.7c0.1-0.3,0.4-0.5,0.7-0.4l8.7,1.9
						c0.3,0.1,0.5,0.4,0.4,0.7C39.4,37.3,39.2,37.5,38.9,37.5z"/>
				</g>
				<g>
					<path class="st1" d="M30.9,36.6c-0.2,0-0.4-0.1-0.5-0.3c-0.2-0.3-0.1-0.6,0.2-0.8l1.1-0.7c0.3-0.2,0.6-0.1,0.8,0.2
						c0.2,0.3,0.1,0.6-0.2,0.8l-1.1,0.7C31.1,36.6,31,36.6,30.9,36.6z"/>
				</g>
				<g>
					<path class="st1" d="M31.9,35.9c-0.2,0-0.4-0.1-0.5-0.3l-0.7-1.1c-0.2-0.3-0.1-0.6,0.2-0.8c0.3-0.2,0.6-0.1,0.8,0.2l0.7,1.1
						c0.2,0.3,0.1,0.6-0.2,0.8C32.1,35.9,32,35.9,31.9,35.9z"/>
				</g>
				<g>
					<path class="st1" d="M32.3,37.3c-0.2,0-0.4-0.1-0.5-0.3c-0.2-0.3-0.1-0.6,0.2-0.8l1.4-0.9c0.3-0.2,0.6-0.1,0.8,0.2
						c0.2,0.3,0.1,0.6-0.2,0.8l-1.4,0.9C32.5,37.2,32.4,37.3,32.3,37.3z"/>
				</g>
				<g>
					<path class="st1" d="M33.7,36.3c-0.2,0-0.4-0.1-0.5-0.3l-0.9-1.4c-0.2-0.3-0.1-0.6,0.2-0.8c0.3-0.2,0.6-0.1,0.8,0.2l0.9,1.4
						c0.2,0.3,0.1,0.6-0.2,0.8C33.9,36.3,33.8,36.3,33.7,36.3z"/>
				</g>
				<g>
					<path class="st1" d="M37.3,37.1c-0.2,0-0.4-0.1-0.5-0.3c-0.2-0.3-0.1-0.6,0.2-0.8l1.1-0.7c0.3-0.2,0.6-0.1,0.8,0.2
						c0.2,0.3,0.1,0.6-0.2,0.8L37.6,37C37.5,37.1,37.4,37.1,37.3,37.1z"/>
				</g>
				<g>
					<path class="st1" d="M38,38.2c-0.2,0-0.4-0.1-0.5-0.3l-0.7-1.1c-0.2-0.3-0.1-0.6,0.2-0.8c0.3-0.2,0.6-0.1,0.8,0.2l0.7,1.1
						c0.2,0.3,0.1,0.6-0.2,0.8C38.2,38.2,38.1,38.2,38,38.2z"/>
				</g>
				<g>
					<path class="st1" d="M35.5,36.7c-0.2,0-0.4-0.1-0.5-0.3c-0.2-0.3-0.1-0.6,0.2-0.8l1.4-0.9c0.3-0.2,0.6-0.1,0.8,0.2
						c0.2,0.3,0.1,0.6-0.2,0.8l-1.4,0.9C35.7,36.7,35.6,36.7,35.5,36.7z"/>
				</g>
				<g>
					<path class="st1" d="M36.4,38.2c-0.2,0-0.4-0.1-0.5-0.3l-0.9-1.4c-0.2-0.3-0.1-0.6,0.2-0.8c0.3-0.2,0.6-0.1,0.8,0.2l0.9,1.4
						c0.2,0.3,0.1,0.6-0.2,0.8C36.7,38.1,36.6,38.2,36.4,38.2z"/>
				</g>
			</g>
		</g>
	</g>
	<g>
		<g>
			<g>
				<g>
					<path class="st1" d="M55.3,37.9c-4.2,0-7.7-3.4-7.7-7.7c0-0.5,0.4-0.9,0.9-0.9s0.9,0.4,0.9,0.9c0,3.2,2.6,5.8,5.8,5.8
						c3.2,0,5.8-2.6,5.8-5.8c0-4.7-3.8-6.2-5.8-6.2l-40.7,0c-0.5,0-0.9-0.4-0.9-0.9s0.4-0.9,0.9-0.9l0,0l40.7,0
						c2.7,0.1,7.6,1.9,7.6,8.1C63,34.4,59.6,37.9,55.3,37.9z M1.9,19.6c-0.5,0-0.9-0.4-0.9-0.9s0.4-0.9,0.9-0.9h53.4
						c0.2,0,5.8-0.3,5.8-6.2c0-3.2-2.6-5.8-5.8-5.8c-3.2,0-5.8,2.6-5.8,5.8c0,0.5-0.4,0.9-0.9,0.9s-0.9-0.4-0.9-0.9
						c0-4.2,3.4-7.7,7.7-7.7c4.2,0,7.7,3.4,7.7,7.7c0,6.1-5,8-7.6,8.1L1.9,19.6z"/>
				</g>
			</g>
		</g>
		<g>
			<path class="st1" d="M40.3,14.5H7c-0.5,0-0.9-0.4-0.9-0.9s0.4-0.9,0.9-0.9h33.3c0.5,0,0.9,0.4,0.9,0.9S40.9,14.5,40.3,14.5z"/>
		</g>
		<g>
			<path class="st1" d="M44.6,29.3H25.5c-0.5,0-0.9-0.4-0.9-0.9s0.4-0.9,0.9-0.9h19.1c0.5,0,0.9,0.4,0.9,0.9S45.1,29.3,44.6,29.3z"
				/>
		</g>
	</g>
</g>
</svg>
