<?xml version="1.0" encoding="utf-8"?>
<!-- Generator: Adobe Illustrator 19.2.1, SVG Export Plug-In . SVG Version: 6.00 Build 0)  -->
<svg version="1.1" id="Layer_1" xmlns="http://www.w3.org/2000/svg" xmlns:xlink="http://www.w3.org/1999/xlink" x="0px" y="0px"
	 viewBox="0 0 64 64" style="enable-background:new 0 0 64 64;" xml:space="preserve">
<metadata><?xpacket begin="﻿" id="W5M0MpCehiHzreSzNTczkc9d"?>
<x:xmpmeta xmlns:x="adobe:ns:meta/" x:xmptk="Adobe XMP Core 5.6-c111 79.158366, 2015/09/25-01:12:00        ">
   <rdf:RDF xmlns:rdf="http://www.w3.org/1999/02/22-rdf-syntax-ns#">
      <rdf:Description rdf:about=""/>
   </rdf:RDF>
</x:xmpmeta>
                                                                                                    
                                                                                                    
                                                                                                    
                                                                                                    
                                                                                                    
                                                                                                    
                                                                                                    
                                                                                                    
                                                                                                    
                                                                                                    
                                                                                                    
                                                                                                    
                                                                                                    
                                                                                                    
                                                                                                    
                                                                                                    
                                                                                                    
                                                                                                    
                                                                                                    
                                                                                                    
                           
<?xpacket end="w"?></metadata>
<style type="text/css">
	.st0{fill:none;}
	.st1{fill:#5B554D;}
</style>
<rect class="st0" width="64" height="64"/>
<g>
	<g>
		<g>
			<g>
				<path class="st1" d="M55.3,49c-4.2,0-7.7-3.4-7.7-7.7c0-0.5,0.4-0.9,0.9-0.9s0.9,0.4,0.9,0.9c0,3.2,2.6,5.8,5.8,5.8
					s5.8-2.6,5.8-5.8c0-4.7-3.8-6.2-5.8-6.2l-40.7,0c-0.5,0-0.9-0.4-0.9-0.9s0.4-0.9,0.9-0.9l0,0l40.7,0c2.7,0.1,7.6,1.9,7.6,8.1
					C63,45.6,59.6,49,55.3,49z M1.9,30.8c-0.5,0-0.9-0.4-0.9-0.9c0-0.5,0.4-0.9,0.9-0.9h53.4c0.2,0,5.8-0.3,5.8-6.2
					c0-3.2-2.6-5.8-5.8-5.8s-5.8,2.6-5.8,5.8c0,0.5-0.4,0.9-0.9,0.9s-0.9-0.4-0.9-0.9c0-4.2,3.4-7.7,7.7-7.7c4.2,0,7.7,3.4,7.7,7.7
					c0,6.1-5,8-7.6,8.1L1.9,30.8z"/>
			</g>
		</g>
	</g>
	<g>
		<path class="st1" d="M40.3,25.6H7c-0.5,0-0.9-0.4-0.9-0.9c0-0.5,0.4-0.9,0.9-0.9h33.3c0.5,0,0.9,0.4,0.9,0.9
			C41.3,25.2,40.9,25.6,40.3,25.6z"/>
	</g>
	<g>
		<path class="st1" d="M44.6,40.5H25.5c-0.5,0-0.9-0.4-0.9-0.9c0-0.5,0.4-0.9,0.9-0.9h19.1c0.5,0,0.9,0.4,0.9,0.9
			C45.5,40.1,45.1,40.5,44.6,40.5z"/>
	</g>
</g>
</svg>
