<?xml version="1.0" encoding="utf-8"?>
<!-- Generator: Adobe Illustrator 19.2.1, SVG Export Plug-In . SVG Version: 6.00 Build 0)  -->
<svg version="1.1" id="Layer_1" xmlns="http://www.w3.org/2000/svg" xmlns:xlink="http://www.w3.org/1999/xlink" x="0px" y="0px"
	 viewBox="0 0 64 64" style="enable-background:new 0 0 64 64;" xml:space="preserve">
<metadata><?xpacket begin="﻿" id="W5M0MpCehiHzreSzNTczkc9d"?>
<x:xmpmeta xmlns:x="adobe:ns:meta/" x:xmptk="Adobe XMP Core 5.6-c111 79.158366, 2015/09/25-01:12:00        ">
   <rdf:RDF xmlns:rdf="http://www.w3.org/1999/02/22-rdf-syntax-ns#">
      <rdf:Description rdf:about=""/>
   </rdf:RDF>
</x:xmpmeta>
                                                                                                    
                                                                                                    
                                                                                                    
                                                                                                    
                                                                                                    
                                                                                                    
                                                                                                    
                                                                                                    
                                                                                                    
                                                                                                    
                                                                                                    
                                                                                                    
                                                                                                    
                                                                                                    
                                                                                                    
                                                                                                    
                                                                                                    
                                                                                                    
                                                                                                    
                                                                                                    
                           
<?xpacket end="w"?></metadata>
<style type="text/css">
	.st0{fill:none;}
	.st1{fill:#5B554D;}
</style>
<rect class="st0" width="64" height="64"/>
<g>
	<g>
		<g>
			<g>
				<path class="st1" d="M27.8,57c-0.7,0-1.4-0.1-2-0.4c-3-1.1-4.5-4.5-3.4-7.4c0.6-1.7,3.1-3.7,5.6-5.6c0.8-0.7,1.4-1.1,2-1.6
					c0.4-0.3,0.9-0.4,1.3-0.2c0.5,0.2,0.8,0.6,0.8,1c0.1,0.7,0.3,1.5,0.5,2.5c0.4,2,0.8,4,0.8,5.7c0.3-0.7,1.1-1.4,2.2-2.2l0.7,0.6
					l-0.6-0.7l0.2-0.2c0.4-0.3,0.9-0.4,1.3-0.2c0.4,0.2,0.8,0.5,0.8,1c0,0,0,0,0,0l0.1,0.5c0.3,1.4,0.5,2.5,0.2,3.2
					c-0.3,0.7-0.8,1.2-1.4,1.5c-0.2,0.1-0.5,0.2-0.8,0.2c-0.4,0.1-0.9,0-1.3-0.2c-0.8-0.3-1.4-1-1.7-1.9c0,0.2-0.1,0.4-0.2,0.5
					c-0.5,1.4-1.6,2.6-3,3.2c-0.5,0.2-1.1,0.4-1.6,0.5C28.2,56.9,28,57,27.8,57z M30.4,44c-0.4,0.3-0.8,0.6-1.3,1
					c-2,1.6-4.5,3.6-5,4.8c-0.8,2,0.3,4.3,2.3,5.1c0.6,0.2,1.2,0.3,1.9,0.2c0.4-0.1,0.7-0.2,1.1-0.3c0.9-0.4,1.7-1.2,2-2.2
					c0.5-1.2-0.2-4.5-0.7-7C30.6,45,30.5,44.5,30.4,44z M36.4,50.4c-0.5,0.4-1.3,1-1.4,1.3c-0.2,0.4,0.1,1,0.5,1.1
					c0.1,0,0.3,0.1,0.4,0c0.1,0,0.2,0,0.2-0.1c0.2-0.1,0.4-0.3,0.4-0.5C36.7,52,36.6,51,36.4,50.4z M37.1,49.8L37.1,49.8
					C37.1,49.8,37.1,49.8,37.1,49.8z M20.9,47.4c-0.3,0-0.6-0.1-1-0.2c-1.4-0.5-2.1-2.1-1.6-3.5c0.3-0.7,1.1-1.4,2.2-2.3l0.4-0.3
					c0.4-0.3,0.9-0.4,1.3-0.2c0.4,0.2,0.7,0.5,0.8,1l0.1,0.5c0.3,1.4,0.5,2.5,0.2,3.2c-0.3,0.7-0.8,1.2-1.4,1.5
					c-0.2,0.1-0.5,0.2-0.8,0.2C21.2,47.4,21.1,47.4,20.9,47.4z M21.5,43.1c-0.5,0.4-1.3,1-1.4,1.3c-0.2,0.4,0.1,1,0.5,1.1
					c0.1,0,0.3,0.1,0.4,0c0.1,0,0.2,0,0.2-0.1c0.2-0.1,0.4-0.3,0.5-0.5C21.8,44.8,21.6,43.7,21.5,43.1z M21.4,42.3
					C21.4,42.3,21.4,42.3,21.4,42.3C21.4,42.3,21.4,42.3,21.4,42.3z M37.2,47.3c-0.5,0-0.9-0.1-1.3-0.2c-1.9-0.7-2.9-2.9-2.2-4.9
					c0.4-1,1.8-2.2,3.6-3.6c0.3-0.2,0.5-0.4,0.8-0.6c0.4-0.3,0.9-0.4,1.3-0.2c0.4,0.2,0.7,0.5,0.8,1l0.2,0.9c0,0,0,0,0,0
					c0.4,2.3,0.8,4.1,0.4,5.2c-0.4,1-1.1,1.7-2,2.1c-0.3,0.2-0.7,0.3-1.1,0.3C37.5,47.3,37.4,47.3,37.2,47.3z M38.5,40
					C38.5,40,38.4,40,38.5,40c-1,0.8-2.9,2.3-3.1,2.9c-0.4,1,0.1,2.1,1.1,2.5c0.3,0.1,0.6,0.1,0.9,0.1c0.2,0,0.4-0.1,0.5-0.2
					c0.5-0.2,0.8-0.6,1-1.1c0.2-0.6-0.2-3-0.5-4.2L38.5,40z M27,42.7c-0.4,0-0.8-0.1-1.1-0.2c0,0,0,0,0,0c-0.8-0.3-1.4-0.9-1.8-1.7
					c-0.4-0.8-0.4-1.7-0.1-2.5c0.3-0.9,1.4-1.8,2.9-2.9l0.6-0.5c0.4-0.3,0.9-0.4,1.3-0.2c0.4,0.2,0.7,0.5,0.8,1l0.1,0.7
					c0.4,2.1,0.6,3.3,0.3,4.1c-0.3,0.8-0.9,1.5-1.7,1.8c-0.3,0.1-0.6,0.2-0.9,0.3C27.2,42.7,27.1,42.7,27,42.7z M26.5,40.8
					c0.2,0.1,0.4,0.1,0.7,0.1c0.1,0,0.3-0.1,0.4-0.1c0.3-0.1,0.6-0.4,0.7-0.8c0.2-0.4-0.2-2.2-0.3-3c-0.8,0.6-2,1.6-2.2,2
					c-0.1,0.3-0.1,0.7,0,1.1C25.9,40.4,26.1,40.7,26.5,40.8z M28.6,36.4L28.6,36.4C28.6,36.4,28.6,36.4,28.6,36.4z"/>
			</g>
		</g>
	</g>
	<g>
		<g>
			<g>
				<g>
					<path class="st1" d="M55.3,41c-4.2,0-7.7-3.4-7.7-7.7c0-0.5,0.4-0.9,0.9-0.9s0.9,0.4,0.9,0.9c0,3.2,2.6,5.8,5.8,5.8
						c3.2,0,5.8-2.6,5.8-5.8c0-4.7-3.8-6.2-5.8-6.2l-40.7,0c-0.5,0-0.9-0.4-0.9-0.9c0-0.5,0.4-0.9,0.9-0.9l0,0l40.7,0
						c2.7,0.1,7.6,1.9,7.6,8.1C63,37.6,59.6,41,55.3,41z M1.9,22.8c-0.5,0-0.9-0.4-0.9-0.9s0.4-0.9,0.9-0.9h53.4
						c0.2,0,5.8-0.3,5.8-6.2c0-3.2-2.6-5.8-5.8-5.8c-3.2,0-5.8,2.6-5.8,5.8c0,0.5-0.4,0.9-0.9,0.9s-0.9-0.4-0.9-0.9
						c0-4.2,3.4-7.7,7.7-7.7c4.2,0,7.7,3.4,7.7,7.7c0,6.1-5,8-7.6,8.1L1.9,22.8z"/>
				</g>
			</g>
		</g>
		<g>
			<path class="st1" d="M40.3,17.6H7c-0.5,0-0.9-0.4-0.9-0.9c0-0.5,0.4-0.9,0.9-0.9h33.3c0.5,0,0.9,0.4,0.9,0.9
				C41.3,17.2,40.9,17.6,40.3,17.6z"/>
		</g>
		<g>
			<path class="st1" d="M44.6,32.5H25.5c-0.5,0-0.9-0.4-0.9-0.9c0-0.5,0.4-0.9,0.9-0.9h19.1c0.5,0,0.9,0.4,0.9,0.9
				C45.5,32.1,45.1,32.5,44.6,32.5z"/>
		</g>
	</g>
</g>
</svg>
