<?xml version="1.0" encoding="utf-8"?>
<!-- Generator: Adobe Illustrator 19.2.1, SVG Export Plug-In . SVG Version: 6.00 Build 0)  -->
<svg version="1.1" id="Layer_1" xmlns="http://www.w3.org/2000/svg" xmlns:xlink="http://www.w3.org/1999/xlink" x="0px" y="0px"
	 viewBox="0 0 64 64" style="enable-background:new 0 0 64 64;" xml:space="preserve">
<metadata><?xpacket begin="﻿" id="W5M0MpCehiHzreSzNTczkc9d"?>
<x:xmpmeta xmlns:x="adobe:ns:meta/" x:xmptk="Adobe XMP Core 5.6-c111 79.158366, 2015/09/25-01:12:00        ">
   <rdf:RDF xmlns:rdf="http://www.w3.org/1999/02/22-rdf-syntax-ns#">
      <rdf:Description rdf:about=""/>
   </rdf:RDF>
</x:xmpmeta>
                                                                                                    
                                                                                                    
                                                                                                    
                                                                                                    
                                                                                                    
                                                                                                    
                                                                                                    
                                                                                                    
                                                                                                    
                                                                                                    
                                                                                                    
                                                                                                    
                                                                                                    
                                                                                                    
                                                                                                    
                                                                                                    
                                                                                                    
                                                                                                    
                                                                                                    
                                                                                                    
                           
<?xpacket end="w"?></metadata>
<style type="text/css">
	.st0{fill:none;}
	.st1{fill:#5B554D;}
</style>
<rect class="st0" width="64" height="64"/>
<g>
	<g>
		<g>
			<path class="st1" d="M30.1,58.5c-0.1,0-0.2,0-0.3-0.1c-0.5-0.2-0.7-0.7-0.5-1.2L33,47.1h-4.1c-0.3,0-0.6-0.2-0.8-0.5
				c-0.2-0.3-0.2-0.6,0-0.9L34.4,35c0.3-0.4,0.8-0.6,1.3-0.3c0.4,0.3,0.6,0.8,0.3,1.3l-5.5,9.4h3.8c0.3,0,0.6,0.1,0.8,0.4
				c0.2,0.2,0.2,0.6,0.1,0.8L31,57.9C30.9,58.3,30.5,58.5,30.1,58.5z"/>
		</g>
	</g>
	<g>
		<g>
			<g>
				<g>
					<path class="st1" d="M55.3,39.5c-4.2,0-7.7-3.4-7.7-7.7c0-0.5,0.4-0.9,0.9-0.9s0.9,0.4,0.9,0.9c0,3.2,2.6,5.8,5.8,5.8
						s5.8-2.6,5.8-5.8c0-4.7-3.8-6.2-5.8-6.2l-40.7,0c-0.5,0-0.9-0.4-0.9-0.9c0-0.5,0.4-0.9,0.9-0.9l0,0l40.7,0
						c2.7,0.1,7.6,1.9,7.6,8.1C63,36,59.6,39.5,55.3,39.5z M1.9,21.2c-0.5,0-0.9-0.4-0.9-0.9s0.4-0.9,0.9-0.9h53.4
						c0.2,0,5.8-0.3,5.8-6.2c0-3.2-2.6-5.8-5.8-5.8s-5.8,2.6-5.8,5.8c0,0.5-0.4,0.9-0.9,0.9s-0.9-0.4-0.9-0.9c0-4.2,3.4-7.7,7.7-7.7
						S63,8.9,63,13.1c0,6.1-5,8-7.6,8.1L1.9,21.2z"/>
				</g>
			</g>
		</g>
		<g>
			<path class="st1" d="M40.3,16.1H7c-0.5,0-0.9-0.4-0.9-0.9c0-0.5,0.4-0.9,0.9-0.9h33.3c0.5,0,0.9,0.4,0.9,0.9
				C41.3,15.7,40.9,16.1,40.3,16.1z"/>
		</g>
		<g>
			<path class="st1" d="M44.6,30.9H25.5c-0.5,0-0.9-0.4-0.9-0.9s0.4-0.9,0.9-0.9h19.1c0.5,0,0.9,0.4,0.9,0.9S45.1,30.9,44.6,30.9z"
				/>
		</g>
	</g>
	<g>
		<path class="st1" d="M23.6,47.1c-0.2,0-0.3,0-0.5-0.1c-0.4-0.3-0.6-0.8-0.3-1.3L29.2,35c0.3-0.4,0.8-0.6,1.3-0.3
			c0.4,0.3,0.6,0.8,0.3,1.3l-6.4,10.7C24.2,47,23.9,47.1,23.6,47.1z"/>
	</g>
	<g>
		<path class="st1" d="M36.8,47.1c-0.2,0-0.3,0-0.5-0.1c-0.4-0.3-0.6-0.8-0.3-1.3L42.4,35c0.3-0.4,0.8-0.6,1.3-0.3
			c0.4,0.3,0.6,0.8,0.3,1.3l-6.4,10.7C37.4,47,37.1,47.1,36.8,47.1z"/>
	</g>
</g>
</svg>
