<?xml version="1.0" encoding="utf-8"?>
<!-- Generator: Adobe Illustrator 19.2.1, SVG Export Plug-In . SVG Version: 6.00 Build 0)  -->
<svg version="1.1" id="Layer_1" xmlns="http://www.w3.org/2000/svg" xmlns:xlink="http://www.w3.org/1999/xlink" x="0px" y="0px"
	 viewBox="0 0 64 64" style="enable-background:new 0 0 64 64;" xml:space="preserve">
<metadata><?xpacket begin="﻿" id="W5M0MpCehiHzreSzNTczkc9d"?>
<x:xmpmeta xmlns:x="adobe:ns:meta/" x:xmptk="Adobe XMP Core 5.6-c111 79.158366, 2015/09/25-01:12:00        ">
   <rdf:RDF xmlns:rdf="http://www.w3.org/1999/02/22-rdf-syntax-ns#">
      <rdf:Description rdf:about=""/>
   </rdf:RDF>
</x:xmpmeta>
                                                                                                    
                                                                                                    
                                                                                                    
                                                                                                    
                                                                                                    
                                                                                                    
                                                                                                    
                                                                                                    
                                                                                                    
                                                                                                    
                                                                                                    
                                                                                                    
                                                                                                    
                                                                                                    
                                                                                                    
                                                                                                    
                                                                                                    
                                                                                                    
                                                                                                    
                                                                                                    
                           
<?xpacket end="w"?></metadata>
<style type="text/css">
	.st0{fill:none;}
	.st1{fill:#5B554D;}
</style>
<rect class="st0" width="64" height="64"/>
<g>
	<g>
		<g>
			<path class="st1" d="M55.4,63.6c-2.1,0-4.1-0.8-5.5-2.3L35.3,46.1c-0.4-0.4-0.4-1.1,0-1.5c0.4-0.4,1.1-0.4,1.5,0l14.5,15.1
				c1.1,1.1,2.5,1.7,4,1.7c1.4,0,2.8-0.6,3.9-1.6c1.1-1,1.7-2.4,1.7-3.9s-0.5-2.9-1.5-4L44.8,36.8c-0.4-0.4-0.4-1.1,0-1.5
				c0.4-0.4,1.1-0.4,1.5,0l14.6,15.2c1.4,1.5,2.2,3.4,2.1,5.4c0,2-0.9,3.9-2.3,5.4C59.2,62.8,57.3,63.6,55.4,63.6z"/>
		</g>
		<g>
			<g>
				<path class="st1" d="M22.8,44.1C10.8,44.1,1,34.3,1,22.3c0-12,9.8-21.8,21.8-21.8s21.8,9.8,21.8,21.8
					C44.7,34.3,34.9,44.1,22.8,44.1z M22.8,2.5c-10.9,0-19.8,8.9-19.8,19.8C3.1,33.2,11.9,42,22.8,42s19.8-8.9,19.8-19.8
					C42.6,11.4,33.7,2.5,22.8,2.5z"/>
			</g>
		</g>
	</g>
	<g>
		<g>
			<path class="st1" d="M33.1,23.3H12.3c-0.6,0-1-0.5-1-1c0-0.6,0.5-1,1-1h20.8c0.6,0,1,0.5,1,1C34.1,22.8,33.7,23.3,33.1,23.3z"/>
		</g>
	</g>
</g>
</svg>
