<?xml version="1.0" encoding="utf-8"?>
<!-- Generator: Adobe Illustrator 19.2.1, SVG Export Plug-In . SVG Version: 6.00 Build 0)  -->
<svg version="1.1" id="Layer_1" xmlns="http://www.w3.org/2000/svg" xmlns:xlink="http://www.w3.org/1999/xlink" x="0px" y="0px"
	 viewBox="0 0 64 64" style="enable-background:new 0 0 64 64;" xml:space="preserve">
<metadata><?xpacket begin="﻿" id="W5M0MpCehiHzreSzNTczkc9d"?>
<x:xmpmeta xmlns:x="adobe:ns:meta/" x:xmptk="Adobe XMP Core 5.6-c111 79.158366, 2015/09/25-01:12:00        ">
   <rdf:RDF xmlns:rdf="http://www.w3.org/1999/02/22-rdf-syntax-ns#">
      <rdf:Description rdf:about=""/>
   </rdf:RDF>
</x:xmpmeta>
                                                                                                    
                                                                                                    
                                                                                                    
                                                                                                    
                                                                                                    
                                                                                                    
                                                                                                    
                                                                                                    
                                                                                                    
                                                                                                    
                                                                                                    
                                                                                                    
                                                                                                    
                                                                                                    
                                                                                                    
                                                                                                    
                                                                                                    
                                                                                                    
                                                                                                    
                                                                                                    
                           
<?xpacket end="w"?></metadata>
<style type="text/css">
	.st0{fill:none;}
	.st1{fill:#5B554D;}
</style>
<rect class="st0" width="64" height="64"/>
<g>
	<g>
		<g>
			<path class="st1" d="M29.6,45.9c-1.8,0-3.7-0.2-5.5-0.7c-5.8-1.5-10.7-5.1-13.8-10.2c-3.1-5.1-4-11.2-2.5-17
				C9.2,12.2,12.8,7.3,18,4.2c5.1-3.1,11.2-4,17-2.5c5.8,1.5,10.7,5.1,13.8,10.2c6.4,10.6,2.9,24.5-7.7,30.8l-0.5-0.9l0.5,0.9
				C37.5,44.9,33.6,45.9,29.6,45.9z M29.5,3.1c-3.6,0-7.2,1-10.4,2.9c-4.7,2.8-7.9,7.2-9.3,12.5c-1.3,5.3-0.5,10.7,2.3,15.4
				c2.8,4.7,7.2,7.9,12.5,9.3c5.3,1.3,10.7,0.5,15.4-2.3c9.6-5.8,12.8-18.3,7-27.9c-2.8-4.7-7.2-7.9-12.5-9.3
				C32.8,3.3,31.1,3.1,29.5,3.1z"/>
		</g>
		<g>
			<path class="st1" d="M55.9,63c-0.3,0-0.6-0.1-0.9-0.4L40.5,43.3c-0.4-0.5-0.3-1.1,0.2-1.5c0.5-0.4,1.1-0.3,1.5,0.2l14.5,19.3
				c0.4,0.5,0.3,1.1-0.2,1.5C56.3,62.9,56.1,63,55.9,63z"/>
		</g>
	</g>
	<g>
		<path class="st1" d="M40.2,24.4H17.6c-0.6,0-1.1-0.5-1.1-1.1c0-0.6,0.5-1.1,1.1-1.1h22.6c0.6,0,1.1,0.5,1.1,1.1
			C41.2,23.9,40.8,24.4,40.2,24.4z"/>
	</g>
</g>
</svg>
