<?xml version="1.0" encoding="utf-8"?>
<!-- Generator: Adobe Illustrator 19.1.0, SVG Export Plug-In . SVG Version: 6.00 Build 0)  -->
<svg version="1.1" id="Layer_1" xmlns="http://www.w3.org/2000/svg" xmlns:xlink="http://www.w3.org/1999/xlink" x="0px" y="0px"
	 viewBox="0 0 64 64" enable-background="new 0 0 64 64" xml:space="preserve">
<g>
	<g>
		
			<path fill="#8CAEDC" stroke="#4766B0" stroke-width="3" stroke-linecap="round" stroke-linejoin="round" stroke-miterlimit="10" d="
			M39.343,20.588v7.142c0,0.38,0.08,0.755,0.236,1.102l13.016,29.054c0.799,1.784-0.506,3.798-2.46,3.798H32H13.866
			c-1.954,0-3.259-2.015-2.46-3.798l13.016-29.054c0.155-0.347,0.236-0.722,0.236-1.102v-7.142c0-1.489,1.207-2.696,2.696-2.696
			h9.294C38.136,17.892,39.343,19.099,39.343,20.588z"/>
		
			<circle fill="#5981C1" stroke="#4766B0" stroke-width="2" stroke-linecap="round" stroke-linejoin="round" stroke-miterlimit="10" cx="35.778" cy="45.185" r="2.954"/>
		
			<path fill="#5981C1" stroke="#4766B0" stroke-width="3" stroke-linecap="round" stroke-linejoin="round" stroke-miterlimit="10" d="
			M18.109,46.818h27.782c1.062,0,2.025,0.624,2.459,1.593l4.245,9.475c0.799,1.783-0.506,3.797-2.459,3.797H13.864
			c-1.954,0-3.258-2.014-2.459-3.797l4.245-9.475C16.084,47.442,17.047,46.818,18.109,46.818z"/>
		
			<circle fill="#8CAEDC" stroke="#4766B0" stroke-linecap="round" stroke-linejoin="round" stroke-miterlimit="10" cx="33.602" cy="54.251" r="1.302"/>
		
			<circle fill="#8CAEDC" stroke="#4766B0" stroke-linecap="round" stroke-linejoin="round" stroke-miterlimit="10" cx="37.858" cy="51.405" r="1.918"/>
		
			<path fill="#8CAEDC" stroke="#4766B0" stroke-width="3" stroke-linecap="round" stroke-linejoin="round" stroke-miterlimit="10" d="
			M39.499,20.393H24.501c-1.375,0-2.501-1.125-2.501-2.501v0c0-1.375,1.125-2.501,2.501-2.501l14.999,0
			c1.375,0,2.501,1.125,2.501,2.501v0C42,19.267,40.875,20.393,39.499,20.393z"/>
		
			<polyline fill="#8CAEDC" stroke="#4766B0" stroke-width="2" stroke-linecap="round" stroke-linejoin="round" stroke-miterlimit="10" points="
			25.908,35.386 28.77,28.996 28.77,24.067 		"/>
	</g>
	
		<circle fill="#8CAEDC" stroke="#4766B0" stroke-linecap="round" stroke-linejoin="round" stroke-miterlimit="10" cx="32.906" cy="9.31" r="1.606"/>
	
		<circle fill="#8CAEDC" stroke="#4766B0" stroke-linecap="round" stroke-linejoin="round" stroke-miterlimit="10" cx="37.209" cy="4.684" r="2.367"/>
</g>
</svg>
