<?xml version="1.0" encoding="utf-8"?>
<!-- Generator: Adobe Illustrator 19.1.0, SVG Export Plug-In . SVG Version: 6.00 Build 0)  -->
<svg version="1.1" id="Layer_1" xmlns="http://www.w3.org/2000/svg" xmlns:xlink="http://www.w3.org/1999/xlink" x="0px" y="0px"
	 viewBox="0 0 64 64" enable-background="new 0 0 64 64" xml:space="preserve">
<polygon fill="#8CAEDC" stroke="#4766B0" stroke-width="3" stroke-linecap="round" stroke-linejoin="round" stroke-miterlimit="10" points="
	8.198,20.517 4.204,23.152 4.204,59.835 59.796,59.835 59.796,23.152 55.813,20.524 "/>
<polygon fill="#5981C1" stroke="#4766B0" stroke-width="3" stroke-linecap="round" stroke-linejoin="round" stroke-miterlimit="10" points="
	59.796,28.927 32,47.269 4.204,28.927 4.204,59.835 59.796,59.835 "/>
<polygon fill="#4A72B8" stroke="#4766B0" stroke-width="2" stroke-linecap="round" stroke-linejoin="round" stroke-miterlimit="10" points="
	27.624,44.381 4.204,59.835 59.796,59.835 36.376,44.381 32,47.269 "/>
<polygon fill="#8CAEDC" stroke="#4766B0" stroke-width="3" stroke-linecap="round" stroke-linejoin="round" stroke-miterlimit="10" points="
	55.802,31.562 55.802,4.165 8.198,4.165 8.198,31.562 32,47.269 "/>
<g>
	
		<line fill="#5981C1" stroke="#4766B0" stroke-width="2" stroke-linecap="round" stroke-linejoin="round" stroke-miterlimit="10" x1="15.293" y1="13.405" x2="48.707" y2="13.405"/>
	
		<line fill="#5981C1" stroke="#4766B0" stroke-width="2" stroke-linecap="round" stroke-linejoin="round" stroke-miterlimit="10" x1="15.293" y1="18.847" x2="44.75" y2="18.847"/>
	
		<line fill="#5981C1" stroke="#4766B0" stroke-width="2" stroke-linecap="round" stroke-linejoin="round" stroke-miterlimit="10" x1="15.293" y1="24.289" x2="40.134" y2="24.289"/>
	
		<line fill="#5981C1" stroke="#4766B0" stroke-width="2" stroke-linecap="round" stroke-linejoin="round" stroke-miterlimit="10" x1="15.293" y1="29.731" x2="30.022" y2="29.731"/>
</g>
</svg>
