<?xml version="1.0" encoding="utf-8"?>
<!-- Generator: Adobe Illustrator 19.1.0, SVG Export Plug-In . SVG Version: 6.00 Build 0)  -->
<svg version="1.1" id="Layer_1" xmlns="http://www.w3.org/2000/svg" xmlns:xlink="http://www.w3.org/1999/xlink" x="0px" y="0px"
	 viewBox="0 0 64 64" enable-background="new 0 0 64 64" xml:space="preserve">
<g>
	
		<path fill="#5981C1" stroke="#4766B0" stroke-width="3" stroke-linecap="round" stroke-linejoin="round" stroke-miterlimit="10" d="
		M51.782,31.255v-8.042h-0.063c0.031-0.205,0.063-0.411,0.063-0.625c0-2.278-1.847-4.125-4.125-4.125H9.049
		c-2.278,0-4.125,1.847-4.125,4.125c0,0.214,0.032,0.42,0.063,0.625H4.924v19.008h51.345h2.722v-8.217L51.782,31.255z"/>
	
		<circle fill="#4A72B8" stroke="#4766B0" stroke-width="2" stroke-linecap="round" stroke-linejoin="round" stroke-miterlimit="10" cx="18.546" cy="42.221" r="3.316"/>
	
		<circle fill="#4A72B8" stroke="#4766B0" stroke-width="2" stroke-linecap="round" stroke-linejoin="round" stroke-miterlimit="10" cx="51.522" cy="42.221" r="3.316"/>
	
		<line fill="#4A72B8" stroke="#4766B0" stroke-width="3" stroke-linecap="round" stroke-linejoin="round" stroke-miterlimit="10" x1="3.092" y1="42.221" x2="6.925" y2="42.221"/>
	
		<line fill="#4A72B8" stroke="#4766B0" stroke-width="3" stroke-linecap="round" stroke-linejoin="round" stroke-miterlimit="10" x1="57.075" y1="42.221" x2="60.908" y2="42.221"/>
</g>
<rect x="5.009" y="22.9" fill="#8CAEDC" stroke="#4766B0" stroke-width="2" stroke-linecap="round" stroke-linejoin="round" stroke-miterlimit="10" width="5.657" height="7.442"/>
<rect x="10.665" y="22.9" fill="#8CAEDC" stroke="#4766B0" stroke-width="2" stroke-linecap="round" stroke-linejoin="round" stroke-miterlimit="10" width="8.865" height="7.442"/>
<rect x="19.53" y="22.9" fill="#8CAEDC" stroke="#4766B0" stroke-width="2" stroke-linecap="round" stroke-linejoin="round" stroke-miterlimit="10" width="8.865" height="7.442"/>
<rect x="28.395" y="22.9" fill="#8CAEDC" stroke="#4766B0" stroke-width="2" stroke-linecap="round" stroke-linejoin="round" stroke-miterlimit="10" width="8.865" height="7.442"/>
<rect x="37.26" y="22.9" fill="#8CAEDC" stroke="#4766B0" stroke-width="2" stroke-linecap="round" stroke-linejoin="round" stroke-miterlimit="10" width="8.865" height="7.442"/>
<rect x="46.214" y="22.9" fill="#8CAEDC" stroke="#4766B0" stroke-width="2" stroke-linecap="round" stroke-linejoin="round" stroke-miterlimit="10" width="5.463" height="7.442"/>
<line fill="#8CAEDC" stroke="#4766B0" stroke-width="2" stroke-linecap="round" stroke-linejoin="round" stroke-miterlimit="10" x1="5.009" y1="34.688" x2="40.937" y2="34.688"/>
</svg>
