<?xml version="1.0" encoding="utf-8"?>
<!-- Generator: Adobe Illustrator 19.1.0, SVG Export Plug-In . SVG Version: 6.00 Build 0)  -->
<svg version="1.1" id="Layer_1" xmlns="http://www.w3.org/2000/svg" xmlns:xlink="http://www.w3.org/1999/xlink" x="0px" y="0px"
	 viewBox="0 0 64 64" enable-background="new 0 0 64 64" xml:space="preserve">
<path fill="#8CAEDC" stroke="#4766B0" stroke-width="2" stroke-linecap="round" stroke-linejoin="round" stroke-miterlimit="10" d="
	M47.992,37.519H12.13c-1.329,0-2.417-1.088-2.417-2.417v0c0-1.329,1.088-2.417,2.417-2.417h35.861c1.329,0,2.417,1.088,2.417,2.417
	v0C50.408,36.432,49.321,37.519,47.992,37.519z"/>
<path fill="#5981C1" stroke="#4766B0" stroke-width="3" stroke-linecap="round" stroke-linejoin="round" stroke-miterlimit="10" d="
	M55.575,60.667H8.931c-1.707,0-3.091-1.384-3.091-3.092v0c0-1.707,1.384-3.091,3.091-3.091h46.644c1.707,0,3.092,1.384,3.092,3.091
	v0C58.667,59.283,57.283,60.667,55.575,60.667z"/>
<polyline fill="#5981C1" stroke="#4766B0" stroke-width="3" stroke-linecap="round" stroke-linejoin="round" stroke-miterlimit="10" points="
	46.024,15.362 24.44,15.362 24.44,7.605 54.287,7.605 54.287,46.221 46.024,54.484 31.297,54.484 31.297,38.52 46.024,38.52 
	46.024,15.362 "/>
<circle fill="#8CAEDC" stroke="#4766B0" stroke-width="2" stroke-linecap="round" stroke-linejoin="round" stroke-miterlimit="10" cx="40.291" cy="46.528" r="3.822"/>
<rect x="15.222" y="3.333" fill="#8CAEDC" stroke="#4766B0" stroke-width="2" stroke-linecap="round" stroke-linejoin="round" stroke-miterlimit="10" width="9.218" height="17.537"/>
<rect x="16.908" y="20.871" fill="#8CAEDC" stroke="#4766B0" stroke-width="2" stroke-linecap="round" stroke-linejoin="round" stroke-miterlimit="10" width="5.846" height="4.722"/>
<line fill="#5981C1" stroke="#4766B0" stroke-linecap="round" stroke-linejoin="round" stroke-miterlimit="10" x1="50.458" y1="18.292" x2="50.458" y2="30.167"/>
<rect x="15.222" y="9.75" fill="#5981C1" stroke="#4766B0" stroke-linecap="round" stroke-linejoin="round" stroke-miterlimit="10" width="9.218" height="3.467"/>
</svg>
