<?xml version="1.0" encoding="utf-8"?>
<!-- Generator: Adobe Illustrator 19.1.0, SVG Export Plug-In . SVG Version: 6.00 Build 0)  -->
<svg version="1.1" id="Layer_1" xmlns="http://www.w3.org/2000/svg" xmlns:xlink="http://www.w3.org/1999/xlink" x="0px" y="0px"
	 viewBox="0 0 64 64" enable-background="new 0 0 64 64" xml:space="preserve">
<g>
	<g>
		
			<path fill="#8CAEDC" stroke="#4766B0" stroke-width="3" stroke-linecap="round" stroke-linejoin="round" stroke-miterlimit="10" d="
			M40.957,10.099c-3.6,3.6-3.6,9.438,0,13.038s9.438,3.6,13.038,0L40.957,10.099z"/>
		
			<path fill="#5981C1" stroke="#4766B0" stroke-width="3" stroke-linecap="round" stroke-linejoin="round" stroke-miterlimit="10" d="
			M16.826,47.268c3.6,3.6,9.438,3.6,13.038,0l-0.019-0.019l17.613-17.613L34.438,16.618L16.826,34.23
			C13.225,37.831,13.225,43.668,16.826,47.268z"/>
		
			<line fill="#5981C1" stroke="#4766B0" stroke-width="3" stroke-linecap="round" stroke-linejoin="round" stroke-miterlimit="10" x1="22.372" y1="28.683" x2="19.234" y2="25.545"/>
		
			<rect x="7.782" y="9.338" transform="matrix(-0.7071 0.7071 -0.7071 -0.7071 34.3614 23.1581)" fill="#4A72B8" stroke="#4766B0" stroke-width="2" stroke-linecap="round" stroke-linejoin="round" stroke-miterlimit="10" width="9.206" height="18.715"/>
		
			<line fill="#5981C1" stroke="#4766B0" stroke-width="3" stroke-linecap="round" stroke-linejoin="round" stroke-miterlimit="10" x1="35.41" y1="41.721" x2="38.549" y2="44.86"/>
		
			<rect x="40.679" y="42.235" transform="matrix(0.7071 -0.7071 0.7071 0.7071 -23.2189 47.1304)" fill="#4A72B8" stroke="#4766B0" stroke-width="2" stroke-linecap="round" stroke-linejoin="round" stroke-miterlimit="10" width="9.206" height="18.715"/>
		
			<line fill="#5981C1" stroke="#4766B0" stroke-width="2" stroke-linecap="round" stroke-linejoin="round" stroke-miterlimit="10" x1="51.869" y1="51.671" x2="45.36" y2="58.18"/>
		
			<line fill="#5981C1" stroke="#4766B0" stroke-width="2" stroke-linecap="round" stroke-linejoin="round" stroke-miterlimit="10" x1="48.586" y1="48.387" x2="42.076" y2="54.897"/>
		
			<line fill="#5981C1" stroke="#4766B0" stroke-width="2" stroke-linecap="round" stroke-linejoin="round" stroke-miterlimit="10" x1="45.302" y1="45.103" x2="38.792" y2="51.613"/>
		
			<line fill="#5981C1" stroke="#4766B0" stroke-width="2" stroke-linecap="round" stroke-linejoin="round" stroke-miterlimit="10" x1="18.992" y1="18.754" x2="12.482" y2="25.264"/>
		
			<line fill="#5981C1" stroke="#4766B0" stroke-width="2" stroke-linecap="round" stroke-linejoin="round" stroke-miterlimit="10" x1="15.708" y1="15.47" x2="9.198" y2="21.98"/>
		
			<line fill="#5981C1" stroke="#4766B0" stroke-width="2" stroke-linecap="round" stroke-linejoin="round" stroke-miterlimit="10" x1="12.424" y1="12.186" x2="5.914" y2="18.696"/>
		
			<line fill="#5981C1" stroke="#4766B0" stroke-width="2" stroke-linecap="round" stroke-linejoin="round" stroke-miterlimit="10" x1="20.618" y1="43.496" x2="23.661" y2="40.453"/>
		
			<line fill="#5981C1" stroke="#4766B0" stroke-width="2" stroke-linecap="round" stroke-linejoin="round" stroke-miterlimit="10" x1="27.478" y1="36.636" x2="30.52" y2="33.594"/>
		
			<line fill="#8CAEDC" stroke="#4766B0" stroke-width="3" stroke-linecap="round" stroke-linejoin="round" stroke-miterlimit="10" x1="47.476" y1="16.618" x2="50.885" y2="13.209"/>
		
			<circle fill="#8CAEDC" stroke="#4766B0" stroke-linecap="round" stroke-linejoin="round" stroke-miterlimit="10" cx="20.618" cy="43.496" r="1.521"/>
		
			<circle fill="#8CAEDC" stroke="#4766B0" stroke-linecap="round" stroke-linejoin="round" stroke-miterlimit="10" cx="23.661" cy="40.453" r="1.521"/>
		
			<line fill="#5981C1" stroke="#4766B0" stroke-width="2" stroke-linecap="round" stroke-linejoin="round" stroke-miterlimit="10" x1="30.921" y1="20.135" x2="43.94" y2="33.155"/>
	</g>
	<path fill="none" stroke="#4766B0" stroke-width="3" stroke-linecap="round" stroke-linejoin="round" stroke-miterlimit="10" d="
		M55.734,15.264c0.471-1.894-0.034-3.98-1.514-5.461c-1.481-1.481-3.568-1.985-5.462-1.514"/>
	<path fill="none" stroke="#4766B0" stroke-width="3" stroke-linecap="round" stroke-linejoin="round" stroke-miterlimit="10" d="
		M61.385,13.421c0.424-2.87-0.469-5.896-2.677-8.105c-2.209-2.209-5.235-3.101-8.105-2.677"/>
</g>
</svg>
