<?xml version="1.0" encoding="utf-8"?>
<!-- Generator: Adobe Illustrator 19.1.0, SVG Export Plug-In . SVG Version: 6.00 Build 0)  -->
<svg version="1.1" id="Layer_1" xmlns="http://www.w3.org/2000/svg" xmlns:xlink="http://www.w3.org/1999/xlink" x="0px" y="0px"
	 viewBox="0 0 64 64" enable-background="new 0 0 64 64" xml:space="preserve">
<g>
	
		<polygon fill="#8CAEDC" stroke="#4766B0" stroke-width="3" stroke-linecap="round" stroke-linejoin="round" stroke-miterlimit="10" points="
		32,5.402 5.127,23.134 5.127,58.598 58.873,58.598 58.873,23.134 	"/>
	<g>
		<g>
			<g>
				
					<rect x="13.221" y="19.324" transform="matrix(0.9078 -0.4193 0.4193 0.9078 -9.6818 16.8502)" fill="#8CAEDC" stroke="#4766B0" stroke-width="3" stroke-linecap="round" stroke-linejoin="round" stroke-miterlimit="10" width="40.539" height="22.251"/>
				
					<ellipse transform="matrix(0.9078 -0.4193 0.4193 0.9078 -9.6818 16.8502)" fill="#5981C1" stroke="#4766B0" stroke-width="2" stroke-linecap="round" stroke-linejoin="round" stroke-miterlimit="10" cx="33.49" cy="30.449" rx="9.748" ry="6.93"/>
				<path fill="none" stroke="#4766B0" stroke-width="2" stroke-miterlimit="10" d="M40.906,14.768
					c0.747,1.618,2.111,2.951,3.916,3.615c1.804,0.664,3.707,0.534,5.324-0.213"/>
				<path fill="none" stroke="#4766B0" stroke-width="2" stroke-miterlimit="10" d="M53.56,25.559
					c-1.618,0.747-2.951,2.111-3.615,3.916c-0.664,1.804-0.534,3.707,0.213,5.324"/>
				<path fill="none" stroke="#4766B0" stroke-width="2" stroke-miterlimit="10" d="M25.996,45.959
					c-0.747-1.618-2.111-2.951-3.916-3.615c-1.804-0.664-3.707-0.534-5.324,0.213"/>
				<path fill="none" stroke="#4766B0" stroke-width="2" stroke-miterlimit="10" d="M13.342,35.168
					c1.618-0.747,2.951-2.111,3.615-3.916c0.664-1.804,0.534-3.707-0.213-5.324"/>
			</g>
			<g>
				
					<rect x="12.059" y="27.218" transform="matrix(1 0.0014 -0.0014 1 0.0547 -0.0461)" fill="#8CAEDC" stroke="#4766B0" stroke-width="3" stroke-linecap="round" stroke-linejoin="round" stroke-miterlimit="10" width="40.539" height="22.251"/>
				
					<ellipse transform="matrix(1 0.0014 -0.0014 1 0.0547 -0.0461)" fill="#5981C1" stroke="#4766B0" stroke-width="2" stroke-linecap="round" stroke-linejoin="round" stroke-miterlimit="10" cx="32.328" cy="38.343" rx="9.748" ry="6.93"/>
				<path fill="none" stroke="#4766B0" stroke-width="2" stroke-miterlimit="10" d="M45.652,27.236
					c-0.003,1.782,0.674,3.565,2.032,4.927c1.357,1.361,3.138,2.044,4.92,2.046"/>
				<path fill="none" stroke="#4766B0" stroke-width="2" stroke-miterlimit="10" d="M52.593,42.348
					c-1.782-0.003-3.565,0.674-4.927,2.032c-1.361,1.357-2.044,3.138-2.046,4.92"/>
				<path fill="none" stroke="#4766B0" stroke-width="2" stroke-miterlimit="10" d="M19.006,49.262
					c0.003-1.782-0.674-3.565-2.032-4.927c-1.357-1.361-3.138-2.044-4.92-2.046"/>
				<path fill="none" stroke="#4766B0" stroke-width="2" stroke-miterlimit="10" d="M12.065,34.15
					c1.782,0.003,3.565-0.674,4.927-2.032c1.361-1.357,2.044-3.138,2.046-4.92"/>
			</g>
		</g>
		<path fill="#4766B0" d="M33.887,37.977c-0.16-0.132-0.339-0.229-0.536-0.293c-0.198-0.064-0.462-0.132-0.793-0.205l-0.085-1.644
			c0.338,0.091,0.558,0.299,0.663,0.624c0.091,0.275,0.265,0.406,0.524,0.393c0.137-0.007,0.251-0.061,0.342-0.162
			c0.091-0.101,0.133-0.218,0.127-0.349c-0.006-0.119-0.045-0.247-0.117-0.386c-0.072-0.139-0.171-0.273-0.296-0.401
			c-0.159-0.169-0.342-0.291-0.548-0.368c-0.206-0.076-0.451-0.122-0.734-0.136l-0.022-0.427c-0.011-0.216-0.101-0.32-0.27-0.311
			c-0.166,0.009-0.243,0.124-0.232,0.345l0.022,0.419c-0.543,0.076-0.951,0.266-1.225,0.571c-0.274,0.305-0.398,0.684-0.375,1.137
			c0.018,0.348,0.107,0.629,0.266,0.842c0.159,0.214,0.36,0.374,0.604,0.482s0.544,0.201,0.902,0.28l0.095,1.838
			c-0.179-0.041-0.325-0.106-0.436-0.195c-0.112-0.089-0.197-0.19-0.255-0.302c-0.059-0.112-0.129-0.274-0.212-0.486
			c-0.037-0.098-0.097-0.173-0.182-0.224c-0.085-0.051-0.186-0.074-0.305-0.067c-0.148,0.008-0.268,0.065-0.362,0.171
			c-0.094,0.107-0.137,0.223-0.13,0.35c0.009,0.171,0.055,0.344,0.138,0.518c0.083,0.174,0.206,0.339,0.369,0.496
			c0.163,0.157,0.362,0.284,0.599,0.383c0.236,0.099,0.509,0.157,0.82,0.175l0.055,1.067c0.006,0.121,0.03,0.21,0.071,0.266
			c0.041,0.056,0.109,0.081,0.204,0.077c0.103-0.005,0.167-0.044,0.194-0.117s0.036-0.187,0.028-0.342l-0.051-0.984
			c0.375-0.051,0.695-0.167,0.961-0.347c0.265-0.18,0.462-0.405,0.589-0.675c0.127-0.27,0.183-0.554,0.168-0.855
			c-0.012-0.24-0.068-0.458-0.167-0.655C34.193,38.281,34.058,38.114,33.887,37.977z M32.048,37.36
			c-0.242-0.075-0.423-0.162-0.545-0.263c-0.121-0.101-0.188-0.255-0.198-0.463c-0.011-0.219,0.042-0.385,0.16-0.5
			c0.118-0.114,0.286-0.21,0.504-0.288L32.048,37.36z M33.301,39.886c-0.137,0.168-0.337,0.286-0.6,0.352l-0.09-1.731
			c0.279,0.073,0.492,0.168,0.639,0.286c0.147,0.118,0.227,0.291,0.239,0.521C33.5,39.527,33.437,39.718,33.301,39.886z"/>
	</g>
	
		<polygon fill="#5981C1" stroke="#4766B0" stroke-width="3" stroke-linecap="round" stroke-linejoin="round" stroke-miterlimit="10" points="
		58.873,28.717 32,46.449 5.127,28.717 5.127,58.598 58.873,58.598 	"/>
	
		<polygon fill="#4A72B8" stroke="#4766B0" stroke-width="2" stroke-linecap="round" stroke-linejoin="round" stroke-miterlimit="10" points="
		27.769,43.658 5.127,58.598 58.873,58.598 36.231,43.658 32,46.449 	"/>
</g>
</svg>
