<?xml version="1.0" encoding="utf-8"?>
<!-- Generator: Adobe Illustrator 19.1.0, SVG Export Plug-In . SVG Version: 6.00 Build 0)  -->
<svg version="1.1" id="Layer_1" xmlns="http://www.w3.org/2000/svg" xmlns:xlink="http://www.w3.org/1999/xlink" x="0px" y="0px"
	 viewBox="0 0 64 64" enable-background="new 0 0 64 64" xml:space="preserve">
<g>
	
		<rect x="7.861" y="3.935" fill="#8CAEDC" stroke="#4766B0" stroke-width="3" stroke-linecap="round" stroke-linejoin="round" stroke-miterlimit="10" width="48.278" height="56.129"/>
	
		<path fill="#5981C1" stroke="#4766B0" stroke-width="3" stroke-linecap="round" stroke-linejoin="round" stroke-miterlimit="10" d="
		M56.139,58.157v-1.608c0-2.149-1.758-3.908-3.908-3.908H11.769c-2.149,0-3.908,1.758-3.908,3.908v1.608v1.907h48.278L56.139,58.157
		z"/>
	
		<path fill="#8CAEDC" stroke="#4766B0" stroke-width="3" stroke-linecap="round" stroke-linejoin="round" stroke-miterlimit="10" d="
		M56.139,13.025v1.608c0,2.149-1.758,3.908-3.908,3.908H11.769c-2.149,0-3.908-1.758-3.908-3.908v-1.608"/>
	
		<line fill="#8CAEDC" stroke="#4766B0" stroke-width="2" stroke-linecap="round" stroke-linejoin="round" stroke-miterlimit="10" x1="32" y1="13.023" x2="32" y2="52.641"/>
	
		<circle fill="#5981C1" stroke="#4766B0" stroke-width="2" stroke-linecap="round" stroke-linejoin="round" stroke-miterlimit="10" cx="32" cy="11.117" r="1.906"/>
	
		<circle fill="#5981C1" stroke="#4766B0" stroke-width="2" stroke-linecap="round" stroke-linejoin="round" stroke-miterlimit="10" cx="32" cy="25.6" r="1.906"/>
	<path fill="none" stroke="#4766B0" stroke-width="2" stroke-linecap="round" stroke-linejoin="round" stroke-miterlimit="10" d="
		M33.906,25.6c0,0,1.151,4.057-9.013,2.152"/>
</g>
</svg>
