<?xml version="1.0" encoding="utf-8"?>
<!-- Generator: Adobe Illustrator 19.1.0, SVG Export Plug-In . SVG Version: 6.00 Build 0)  -->
<svg version="1.1" id="Layer_1" xmlns="http://www.w3.org/2000/svg" xmlns:xlink="http://www.w3.org/1999/xlink" x="0px" y="0px"
	 viewBox="0 0 64 64" enable-background="new 0 0 64 64" xml:space="preserve">
<g>
	<g>
		
			<rect x="6.125" y="8.75" fill="#8CAEDC" stroke="#4766B0" stroke-width="3" stroke-linecap="round" stroke-linejoin="round" stroke-miterlimit="10" width="17.25" height="46.5"/>
		
			<path fill="#5981C1" stroke="#4766B0" stroke-width="2" stroke-linecap="round" stroke-linejoin="round" stroke-miterlimit="10" d="
			M14.75,42.396L14.75,42.396c-2.131,0-3.875,1.744-3.875,3.875v0c0,2.131,1.744,3.875,3.875,3.875h0
			c2.131,0,3.875-1.744,3.875-3.875v0C18.625,44.14,16.881,42.396,14.75,42.396z"/>
		<g>
			
				<rect x="10.875" y="14.417" fill="#5981C1" stroke="#4766B0" stroke-width="2" stroke-linecap="round" stroke-linejoin="round" stroke-miterlimit="10" width="7.75" height="20.75"/>
			
				<line fill="#5981C1" stroke="#4766B0" stroke-width="2" stroke-linecap="round" stroke-linejoin="round" stroke-miterlimit="10" x1="14.75" y1="18.46" x2="14.75" y2="31.124"/>
		</g>
	</g>
	<g>
		
			<rect x="23.375" y="8.75" fill="#5981C1" stroke="#4766B0" stroke-width="3" stroke-linecap="round" stroke-linejoin="round" stroke-miterlimit="10" width="17.25" height="46.5"/>
		
			<path fill="#8CAEDC" stroke="#4766B0" stroke-width="2" stroke-linecap="round" stroke-linejoin="round" stroke-miterlimit="10" d="
			M32,42.396L32,42.396c-2.131,0-3.875,1.744-3.875,3.875v0c0,2.131,1.744,3.875,3.875,3.875h0c2.131,0,3.875-1.744,3.875-3.875v0
			C35.875,44.14,34.131,42.396,32,42.396z"/>
		<g>
			
				<rect x="28.125" y="14.417" fill="#8CAEDC" stroke="#4766B0" stroke-width="2" stroke-linecap="round" stroke-linejoin="round" stroke-miterlimit="10" width="7.75" height="20.75"/>
			
				<line fill="#8CAEDC" stroke="#4766B0" stroke-width="2" stroke-linecap="round" stroke-linejoin="round" stroke-miterlimit="10" x1="32" y1="18.46" x2="32" y2="31.124"/>
		</g>
	</g>
	<g>
		
			<rect x="40.625" y="8.75" fill="#8CAEDC" stroke="#4766B0" stroke-width="3" stroke-linecap="round" stroke-linejoin="round" stroke-miterlimit="10" width="17.25" height="46.5"/>
		
			<path fill="#5981C1" stroke="#4766B0" stroke-width="2" stroke-linecap="round" stroke-linejoin="round" stroke-miterlimit="10" d="
			M49.25,42.396L49.25,42.396c-2.131,0-3.875,1.744-3.875,3.875v0c0,2.131,1.744,3.875,3.875,3.875h0
			c2.131,0,3.875-1.744,3.875-3.875v0C53.125,44.14,51.381,42.396,49.25,42.396z"/>
		<g>
			
				<rect x="45.375" y="14.417" fill="#5981C1" stroke="#4766B0" stroke-width="2" stroke-linecap="round" stroke-linejoin="round" stroke-miterlimit="10" width="7.75" height="20.75"/>
			
				<line fill="#5981C1" stroke="#4766B0" stroke-width="2" stroke-linecap="round" stroke-linejoin="round" stroke-miterlimit="10" x1="49.25" y1="18.46" x2="49.25" y2="31.124"/>
		</g>
	</g>
</g>
</svg>
