<?xml version="1.0" encoding="utf-8"?>
<!-- Generator: Adobe Illustrator 19.1.0, SVG Export Plug-In . SVG Version: 6.00 Build 0)  -->
<svg version="1.1" id="Layer_1" xmlns="http://www.w3.org/2000/svg" xmlns:xlink="http://www.w3.org/1999/xlink" x="0px" y="0px"
	 viewBox="0 0 64 64" enable-background="new 0 0 64 64" xml:space="preserve">
<g>
	
		<circle fill="#8CAEDC" stroke="#4766B0" stroke-width="3" stroke-linecap="round" stroke-linejoin="round" stroke-miterlimit="10" cx="36.504" cy="28.007" r="21.937"/>
	<g>
		<g>
			<g>
				
					<path fill="#5981C1" stroke="#4766B0" stroke-width="3" stroke-linecap="round" stroke-linejoin="round" stroke-miterlimit="10" d="
					M34.373,57.93c-3.884,0.013-11.079-2.594-18.573-9.983c-4.192-4.135-7.41-8.773-9.061-13.058
					c-1.625-4.221-1.569-7.64,0.155-9.385c0.196-0.2,0.397-0.415,0.604-0.634c1.326-1.415,2.977-3.177,5.29-3.185
					c1.707-0.006,3.31,0.939,4.897,2.888c4.202,5.147,2.615,7.474,0.104,9.983l-0.284,0.285c0.021,0.33,0.381,1.956,4.898,6.411
					c4.46,4.395,6.111,4.783,6.478,4.806l0.279-0.286c1.157-1.191,2.469-2.54,4.518-2.547c1.565-0.005,3.302,0.793,5.468,2.51
					c1.903,1.508,2.868,3.041,2.949,4.688c0.116,2.396-1.668,4.119-3.101,5.502c-0.218,0.21-0.432,0.416-0.63,0.617
					C37.475,57.443,36.095,57.924,34.373,57.93z"/>
			</g>
		</g>
		
			<path fill="#8CAEDC" stroke="#4766B0" stroke-width="3" stroke-linecap="round" stroke-linejoin="round" stroke-miterlimit="10" d="
			M20.26,30.253l-8.47-8.47c-0.97-0.97-0.97-2.559,0-3.529l0,0c0.97-0.97,2.559-0.97,3.529,0l8.47,8.47
			c0.97,0.97,0.97,2.559,0,3.529l0,0C22.818,31.223,21.23,31.223,20.26,30.253z"/>
		
			<path fill="#8CAEDC" stroke="#4766B0" stroke-width="3" stroke-linecap="round" stroke-linejoin="round" stroke-miterlimit="10" d="
			M41.973,51.966l-8.47-8.47c-0.97-0.97-0.97-2.559,0-3.529h0c0.97-0.97,2.559-0.97,3.529,0l8.47,8.47c0.97,0.97,0.97,2.559,0,3.529
			l0,0C44.532,52.937,42.944,52.937,41.973,51.966z"/>
	</g>
	
		<line fill="#8CAEDC" stroke="#4766B0" stroke-width="3" stroke-linecap="round" stroke-linejoin="round" stroke-miterlimit="10" x1="36.504" y1="6.07" x2="36.504" y2="10.583"/>
	
		<line fill="#8CAEDC" stroke="#4766B0" stroke-width="3" stroke-linecap="round" stroke-linejoin="round" stroke-miterlimit="10" x1="20.983" y1="12.499" x2="24.175" y2="15.69"/>
	
		<line fill="#8CAEDC" stroke="#4766B0" stroke-width="3" stroke-linecap="round" stroke-linejoin="round" stroke-miterlimit="10" x1="48.833" y1="40.348" x2="52.024" y2="43.54"/>
	
		<line fill="#8CAEDC" stroke="#4766B0" stroke-width="3" stroke-linecap="round" stroke-linejoin="round" stroke-miterlimit="10" x1="53.939" y1="28.019" x2="58.453" y2="28.019"/>
	
		<line fill="#8CAEDC" stroke="#4766B0" stroke-width="3" stroke-linecap="round" stroke-linejoin="round" stroke-miterlimit="10" x1="48.833" y1="15.69" x2="52.024" y2="12.499"/>
	
		<text transform="matrix(1 0 0 1 30.7148 31.4997)" fill="#4766B0" stroke="#4766B0" stroke-linecap="round" stroke-linejoin="round" stroke-miterlimit="10" font-family="'Helvetica'" font-size="12px">24</text>
</g>
</svg>
