<?xml version="1.0" encoding="utf-8"?>
<!-- Generator: Adobe Illustrator 19.1.0, SVG Export Plug-In . SVG Version: 6.00 Build 0)  -->
<svg version="1.1" id="Layer_1" xmlns="http://www.w3.org/2000/svg" xmlns:xlink="http://www.w3.org/1999/xlink" x="0px" y="0px"
	 viewBox="0 0 64 64" enable-background="new 0 0 64 64" xml:space="preserve">
<g>
	<g>
		
			<rect x="24.872" y="46.534" fill="#5981C1" stroke="#4766B0" stroke-width="3" stroke-linecap="round" stroke-linejoin="round" stroke-miterlimit="10" width="14.255" height="11.989"/>
		
			<line fill="#5981C1" stroke="#4766B0" stroke-width="3" stroke-linecap="round" stroke-linejoin="round" stroke-miterlimit="10" x1="21.058" y1="58.523" x2="42.941" y2="58.523"/>
		
			<line fill="#5981C1" stroke="#4766B0" stroke-width="3" stroke-linecap="round" stroke-linejoin="round" stroke-miterlimit="10" x1="24.872" y1="52.647" x2="30.103" y2="52.647"/>
		
			<rect x="2.407" y="5.477" fill="#8CAEDC" stroke="#4766B0" stroke-width="3" stroke-linecap="round" stroke-linejoin="round" stroke-miterlimit="10" width="59.187" height="28.998"/>
		
			<rect x="2.407" y="34.475" fill="#5981C1" stroke="#4766B0" stroke-width="3" stroke-linecap="round" stroke-linejoin="round" stroke-miterlimit="10" width="59.187" height="12.442"/>
		
			<circle fill="#8CAEDC" stroke="#4766B0" stroke-linecap="round" stroke-linejoin="round" stroke-miterlimit="10" cx="31.989" cy="40.696" r="2.583"/>
	</g>
	<g>
		<g>
			<polygon fill="#5981C1" stroke="#4766B0" stroke-linecap="round" stroke-linejoin="round" stroke-miterlimit="10" points="
				54.867,21.347 49.513,21.347 44.159,21.347 46.079,26.229 53.828,27.06 			"/>
			
				<line fill="#5981C1" stroke="#4766B0" stroke-linecap="round" stroke-linejoin="round" stroke-miterlimit="10" x1="54.514" y1="23.288" x2="44.923" y2="23.288"/>
			
				<line fill="#5981C1" stroke="#4766B0" stroke-linecap="round" stroke-linejoin="round" stroke-miterlimit="10" x1="54.161" y1="25.23" x2="45.686" y2="25.23"/>
			
				<line fill="#5981C1" stroke="#4766B0" stroke-linecap="round" stroke-linejoin="round" stroke-miterlimit="10" x1="49.513" y1="21.347" x2="49.513" y2="26.597"/>
		</g>
		
			<circle fill="#8CAEDC" stroke="#4766B0" stroke-linecap="round" stroke-linejoin="round" stroke-miterlimit="10" cx="54.161" cy="29.503" r="1.212"/>
		
			<circle fill="#8CAEDC" stroke="#4766B0" stroke-linecap="round" stroke-linejoin="round" stroke-miterlimit="10" cx="46.079" cy="29.503" r="1.212"/>
		<polyline fill="none" stroke="#4766B0" stroke-linecap="round" stroke-linejoin="round" stroke-miterlimit="10" points="
			54.332,24.284 55.373,18.67 58.048,18.367 		"/>
	</g>
	
		<rect x="2.5" y="5.524" fill="#5981C1" stroke="#4766B0" stroke-width="3" stroke-linecap="round" stroke-linejoin="round" stroke-miterlimit="10" width="59.093" height="6.023"/>
	<g>
		
			<circle fill="#8CAEDC" stroke="#4766B0" stroke-linecap="round" stroke-linejoin="round" stroke-miterlimit="10" cx="6.476" cy="8.536" r="0.683"/>
		
			<circle fill="#8CAEDC" stroke="#4766B0" stroke-linecap="round" stroke-linejoin="round" stroke-miterlimit="10" cx="9.056" cy="8.536" r="0.683"/>
		
			<circle fill="#8CAEDC" stroke="#4766B0" stroke-linecap="round" stroke-linejoin="round" stroke-miterlimit="10" cx="11.635" cy="8.536" r="0.683"/>
	</g>
	
		<rect x="6.476" y="14.984" fill="#5981C1" stroke="#4766B0" stroke-linecap="round" stroke-linejoin="round" stroke-miterlimit="10" width="27.076" height="7.813"/>
	
		<line fill="#5981C1" stroke="#4766B0" stroke-linecap="round" stroke-linejoin="round" stroke-miterlimit="10" x1="6.476" y1="25.23" x2="18.135" y2="25.23"/>
	
		<line fill="#5981C1" stroke="#4766B0" stroke-linecap="round" stroke-linejoin="round" stroke-miterlimit="10" x1="6.476" y1="27.29" x2="18.135" y2="27.29"/>
	
		<line fill="#5981C1" stroke="#4766B0" stroke-linecap="round" stroke-linejoin="round" stroke-miterlimit="10" x1="6.476" y1="29.292" x2="18.135" y2="29.292"/>
	
		<line fill="#5981C1" stroke="#4766B0" stroke-linecap="round" stroke-linejoin="round" stroke-miterlimit="10" x1="6.476" y1="31.352" x2="18.135" y2="31.352"/>
	
		<line fill="#5981C1" stroke="#4766B0" stroke-linecap="round" stroke-linejoin="round" stroke-miterlimit="10" x1="6.476" y1="14.984" x2="33.552" y2="22.797"/>
	
		<line fill="#5981C1" stroke="#4766B0" stroke-linecap="round" stroke-linejoin="round" stroke-miterlimit="10" x1="21.893" y1="25.23" x2="33.552" y2="25.23"/>
	
		<line fill="#5981C1" stroke="#4766B0" stroke-linecap="round" stroke-linejoin="round" stroke-miterlimit="10" x1="21.893" y1="27.29" x2="31.795" y2="27.29"/>
	<path fill="#5981C1" stroke="#4766B0" stroke-linecap="round" stroke-linejoin="round" stroke-miterlimit="10" d="M32.34,31.716
		h-9.235c-0.667,0-1.212-0.545-1.212-1.212v0c0-0.667,0.545-1.212,1.212-1.212h9.235c0.667,0,1.212,0.545,1.212,1.212v0
		C33.552,31.171,33.007,31.716,32.34,31.716z"/>
	<g>
		<g>
			
				<line fill="none" stroke="#5981C1" stroke-linecap="round" stroke-linejoin="round" x1="32.083" y1="30.504" x2="32.583" y2="30.504"/>
			
				<line fill="none" stroke="#5981C1" stroke-linecap="round" stroke-linejoin="round" stroke-dasharray="0.9188,1.8377" x1="34.421" y1="30.504" x2="36.258" y2="30.504"/>
			<polyline fill="none" stroke="#5981C1" stroke-linecap="round" stroke-linejoin="round" points="37.177,30.504 37.677,30.504 
				37.677,30.004 			"/>
			
				<line fill="none" stroke="#5981C1" stroke-linecap="round" stroke-linejoin="round" stroke-dasharray="0.8898,1.7796" x1="37.677" y1="28.224" x2="37.677" y2="18.437"/>
			<polyline fill="none" stroke="#5981C1" stroke-linecap="round" stroke-linejoin="round" points="37.677,17.547 37.677,17.047 
				38.177,17.047 			"/>
			
				<line fill="none" stroke="#5981C1" stroke-linecap="round" stroke-linejoin="round" stroke-dasharray="1.0037,2.0075" x1="40.185" y1="17.047" x2="48.214" y2="17.047"/>
			<polyline fill="none" stroke="#5981C1" stroke-linecap="round" stroke-linejoin="round" points="49.218,17.047 49.718,17.047 
				49.718,17.547 			"/>
			
				<line fill="none" stroke="#5981C1" stroke-linecap="round" stroke-linejoin="round" x1="49.718" y1="18.63" x2="49.718" y2="19.13"/>
		</g>
	</g>
	
		<line fill="none" stroke="#5981C1" stroke-linecap="round" stroke-linejoin="round" stroke-miterlimit="10" x1="49.718" y1="17.047" x2="49.718" y2="21.347"/>
	<polyline fill="none" stroke="#5981C1" stroke-linecap="round" stroke-linejoin="round" stroke-miterlimit="10" points="
		50.818,20.113 50.268,20.73 49.718,21.347 49.168,20.73 48.619,20.113 	"/>
</g>
</svg>
