<?xml version="1.0" encoding="utf-8"?>
<!-- Generator: Adobe Illustrator 19.1.0, SVG Export Plug-In . SVG Version: 6.00 Build 0)  -->
<svg version="1.1" id="Layer_1" xmlns="http://www.w3.org/2000/svg" xmlns:xlink="http://www.w3.org/1999/xlink" x="0px" y="0px"
	 viewBox="0 0 64 64" enable-background="new 0 0 64 64" xml:space="preserve">
<g>
	
		<rect x="25.523" y="47.335" fill="#8CAEDC" stroke="#4766B0" stroke-width="2" stroke-linecap="round" stroke-linejoin="round" stroke-miterlimit="10" width="3.33" height="8.663"/>
	<g>
		<g>
			
				<circle fill="#8CAEDC" stroke="#4766B0" stroke-width="3" stroke-linecap="round" stroke-linejoin="round" stroke-miterlimit="10" cx="27.188" cy="25.379" r="23.377"/>
			
				<line fill="none" stroke="#4766B0" stroke-width="2" stroke-linecap="round" stroke-linejoin="round" stroke-miterlimit="10" x1="3.811" y1="25.379" x2="50.566" y2="25.379"/>
			
				<line fill="none" stroke="#4766B0" stroke-width="2" stroke-linecap="round" stroke-linejoin="round" stroke-miterlimit="10" x1="7.163" y1="13.69" x2="47.214" y2="13.69"/>
			
				<line fill="none" stroke="#4766B0" stroke-width="2" stroke-linecap="round" stroke-linejoin="round" stroke-miterlimit="10" x1="7.163" y1="37.068" x2="47.214" y2="37.068"/>
			
				<ellipse fill="none" stroke="#4766B0" stroke-width="2" stroke-linecap="round" stroke-linejoin="round" stroke-miterlimit="10" cx="27.188" cy="25.379" rx="9.024" ry="23.377"/>
		</g>
		<g>
			
				<path fill="#5981C1" stroke="#4766B0" stroke-width="3" stroke-linecap="round" stroke-linejoin="round" stroke-miterlimit="10" d="
				M56.999,52.933H42.793c-1.762,0-3.19-1.428-3.19-3.19V39.081c0-1.762,1.428-3.19,3.19-3.19h14.206c1.762,0,3.19,1.428,3.19,3.19
				v10.662C60.189,51.505,58.761,52.933,56.999,52.933z"/>
			<g>
				<g>
					<g>
						<g>
							<g>
								<g>
									<path fill="#4766B0" d="M52.239,43.241c0-1.294-1.049-2.344-2.343-2.344c-1.294,0-2.344,1.05-2.344,2.344
										c0,0.746,0.355,1.403,0.899,1.832l-0.429,4.074c-0.009,0.087,0.02,0.175,0.078,0.241c0.06,0.066,0.144,0.104,0.233,0.104
										h3.126c0.005,0.001,0.01,0,0.012,0c0.172,0,0.313-0.14,0.313-0.313c0-0.042-0.009-0.082-0.023-0.118l-0.42-3.988
										C51.884,44.645,52.239,43.987,52.239,43.241z"/>
								</g>
							</g>
						</g>
					</g>
				</g>
			</g>
			<path fill="none" stroke="#4766B0" stroke-width="3" stroke-linecap="round" stroke-linejoin="round" stroke-miterlimit="10" d="
				M58.708,35.892c0-4.867-3.945-8.812-8.812-8.812s-8.812,3.945-8.812,8.812H58.708z"/>
		</g>
	</g>
	
		<rect x="6.825" y="57.333" fill="#8CAEDC" stroke="#4766B0" stroke-width="2" stroke-linecap="round" stroke-linejoin="round" stroke-miterlimit="10" width="40.728" height="3.33"/>
	
		<rect x="18.164" y="55.998" fill="#5981C1" stroke="#4766B0" stroke-width="3" stroke-linecap="round" stroke-linejoin="round" stroke-miterlimit="10" width="18.049" height="6"/>
</g>
</svg>
