<?xml version="1.0" encoding="utf-8"?>
<!-- Generator: Adobe Illustrator 19.1.0, SVG Export Plug-In . SVG Version: 6.00 Build 0)  -->
<svg version="1.1" id="Layer_1" xmlns="http://www.w3.org/2000/svg" xmlns:xlink="http://www.w3.org/1999/xlink" x="0px" y="0px"
	 viewBox="0 0 64 64" enable-background="new 0 0 64 64" xml:space="preserve">
<g>
	
		<rect x="21.499" y="21.5" transform="matrix(0.7071 0.7071 -0.7071 0.7071 31.9995 -13.2543)" fill="#5981C1" stroke="#4766B0" stroke-width="3" stroke-linecap="round" stroke-linejoin="round" stroke-miterlimit="10" width="21" height="21"/>
	<g>
		
			<rect x="42.255" y="5.368" transform="matrix(0.7071 0.7071 -0.7071 0.7071 25.6283 -28.6357)" fill="#5981C1" stroke="#4766B0" stroke-width="3" stroke-linecap="round" stroke-linejoin="round" stroke-miterlimit="10" width="10.25" height="22.5"/>
		
			<line fill="none" stroke="#4766B0" stroke-width="3" stroke-linecap="round" stroke-linejoin="round" stroke-miterlimit="10" x1="47.734" y1="9.017" x2="54.982" y2="16.265"/>
		
			<line fill="none" stroke="#4766B0" stroke-width="3" stroke-linecap="round" stroke-linejoin="round" stroke-miterlimit="10" x1="43.757" y1="12.994" x2="51.004" y2="20.242"/>
		
			<line fill="none" stroke="#4766B0" stroke-width="3" stroke-linecap="round" stroke-linejoin="round" stroke-miterlimit="10" x1="39.779" y1="16.972" x2="47.027" y2="24.22"/>
	</g>
	<g>
		
			<rect x="11.495" y="36.129" transform="matrix(0.7071 0.7071 -0.7071 0.7071 38.3699 2.1253)" fill="#5981C1" stroke="#4766B0" stroke-width="3" stroke-linecap="round" stroke-linejoin="round" stroke-miterlimit="10" width="10.25" height="22.5"/>
		
			<line fill="none" stroke="#4766B0" stroke-width="3" stroke-linecap="round" stroke-linejoin="round" stroke-miterlimit="10" x1="16.973" y1="39.778" x2="24.221" y2="47.026"/>
		
			<line fill="none" stroke="#4766B0" stroke-width="3" stroke-linecap="round" stroke-linejoin="round" stroke-miterlimit="10" x1="12.996" y1="43.755" x2="20.243" y2="51.003"/>
		
			<line fill="none" stroke="#4766B0" stroke-width="3" stroke-linecap="round" stroke-linejoin="round" stroke-miterlimit="10" x1="9.018" y1="47.733" x2="16.266" y2="54.981"/>
	</g>
	
		<rect x="21.499" y="27" transform="matrix(0.7071 0.7071 -0.7071 0.7071 31.9995 -13.2543)" fill="#8CAEDC" stroke="#4766B0" stroke-width="2" stroke-linecap="round" stroke-linejoin="round" stroke-miterlimit="10" width="21" height="10"/>
	
		<text transform="matrix(0.7071 0.7071 -0.7071 0.7071 24.9247 27.5454)" fill="#4667B0" font-family="'AnonymousPro-Bold'" font-size="6px">00:00</text>
</g>
</svg>
