<?xml version="1.0" encoding="utf-8"?>
<!-- Generator: Adobe Illustrator 19.1.0, SVG Export Plug-In . SVG Version: 6.00 Build 0)  -->
<svg version="1.1" id="Layer_1" xmlns="http://www.w3.org/2000/svg" xmlns:xlink="http://www.w3.org/1999/xlink" x="0px" y="0px"
	 viewBox="0 0 64 64" enable-background="new 0 0 64 64" xml:space="preserve">
<g>
	
		<path fill="#5981C1" stroke="#4766B0" stroke-width="3" stroke-linecap="round" stroke-linejoin="round" stroke-miterlimit="10" d="
		M55.095,4.74l-46.189,0c-2.019,0-3.655,1.637-3.655,3.655v0c0,2.019,1.637,3.655,3.655,3.655h46.189
		c2.019,0,3.655-1.637,3.655-3.655v0C58.75,6.377,57.113,4.74,55.095,4.74z"/>
	
		<rect x="9.174" y="12.051" fill="#8CAEDC" stroke="#4766B0" stroke-width="3" stroke-linecap="round" stroke-linejoin="round" stroke-miterlimit="10" width="45.653" height="36.457"/>
	
		<line fill="none" stroke="#4766B0" stroke-width="3" stroke-linecap="round" stroke-linejoin="round" stroke-miterlimit="10" x1="32" y1="48.508" x2="32" y2="54.87"/>
	
		<polyline fill="none" stroke="#4766B0" stroke-width="3" stroke-linecap="round" stroke-linejoin="round" stroke-miterlimit="10" points="
		20.966,59.26 26.483,57.065 32,54.87 37.517,57.065 43.034,59.26 	"/>
	<g>
		
			<rect x="16.591" y="18.842" transform="matrix(0.9354 -0.3535 0.3535 0.9354 -7.3805 9.6732)" fill="#5981C1" stroke="#4766B0" stroke-width="2" stroke-linecap="round" stroke-linejoin="round" stroke-miterlimit="10" width="12.393" height="12.393"/>
		
			<polygon fill="#5981C1" stroke="#4766B0" stroke-width="2" stroke-linecap="round" stroke-linejoin="round" stroke-miterlimit="10" points="
			44.012,22.343 46.606,29.38 49.2,36.418 41.808,35.145 34.416,33.873 39.214,28.108 		"/>
		
			<circle fill="#5981C1" stroke="#4766B0" stroke-width="2" stroke-linecap="round" stroke-linejoin="round" stroke-miterlimit="10" cx="25.785" cy="39.223" r="4.274"/>
		
			<line fill="#5981C1" stroke="#4766B0" stroke-width="2" stroke-linecap="round" stroke-linejoin="round" stroke-miterlimit="10" x1="34.416" y1="38.561" x2="46.794" y2="43.497"/>
	</g>
</g>
</svg>
