<?xml version="1.0" encoding="utf-8"?>
<!-- Generator: Adobe Illustrator 19.1.0, SVG Export Plug-In . SVG Version: 6.00 Build 0)  -->
<svg version="1.1" id="Layer_1" xmlns="http://www.w3.org/2000/svg" xmlns:xlink="http://www.w3.org/1999/xlink" x="0px" y="0px"
	 viewBox="0 0 64 64" enable-background="new 0 0 64 64" xml:space="preserve">
<g>
	
		<path fill="#5981C1" stroke="#4766B0" stroke-width="3" stroke-linecap="round" stroke-linejoin="round" stroke-miterlimit="10" d="
		M55.095,4.74l-46.189,0c-2.019,0-3.655,1.637-3.655,3.655v0c0,2.019,1.637,3.655,3.655,3.655h46.189
		c2.019,0,3.655-1.637,3.655-3.655v0C58.75,6.377,57.113,4.74,55.095,4.74z"/>
	
		<line fill="none" stroke="#4766B0" stroke-width="3" stroke-linecap="round" stroke-linejoin="round" stroke-miterlimit="10" x1="32" y1="48.508" x2="32" y2="54.87"/>
	
		<polyline fill="none" stroke="#4766B0" stroke-width="3" stroke-linecap="round" stroke-linejoin="round" stroke-miterlimit="10" points="
		20.966,59.26 26.483,57.065 32,54.87 37.517,57.065 43.034,59.26 	"/>
	<g>
		<g>
			
				<rect x="9.069" y="12.051" fill="#8CAEDC" stroke="#4766B0" stroke-width="3" stroke-linecap="round" stroke-linejoin="round" stroke-miterlimit="10" width="45.653" height="36.457"/>
		</g>
		<g>
			<g>
				<g>
					<g>
						
							<rect x="13.354" y="16.086" fill="#5981C1" stroke="#4766B0" stroke-linecap="round" stroke-linejoin="round" stroke-miterlimit="10" width="13.94" height="7.18"/>
						<g>
							
								<line fill="none" stroke="#4766B0" stroke-linecap="round" stroke-linejoin="round" stroke-miterlimit="10" x1="15.539" y1="18.755" x2="25.108" y2="18.755"/>
							
								<line fill="none" stroke="#4766B0" stroke-linecap="round" stroke-linejoin="round" stroke-miterlimit="10" x1="17.045" y1="20.597" x2="23.602" y2="20.597"/>
						</g>
					</g>
					<g>
						
							<rect x="33.663" y="16.086" fill="#5981C1" stroke="#4766B0" stroke-linecap="round" stroke-linejoin="round" stroke-miterlimit="10" width="13.94" height="7.18"/>
						<g>
							
								<line fill="none" stroke="#4766B0" stroke-linecap="round" stroke-linejoin="round" stroke-miterlimit="10" x1="35.849" y1="18.755" x2="45.418" y2="18.755"/>
							
								<line fill="none" stroke="#4766B0" stroke-linecap="round" stroke-linejoin="round" stroke-miterlimit="10" x1="37.355" y1="20.597" x2="43.912" y2="20.597"/>
						</g>
					</g>
					
						<line fill="none" stroke="#4766B0" stroke-linecap="round" stroke-linejoin="round" stroke-miterlimit="10" x1="27.294" y1="19.676" x2="33.663" y2="19.676"/>
				</g>
				<g>
					
						<rect x="33.663" y="26.69" fill="#5981C1" stroke="#4766B0" stroke-linecap="round" stroke-linejoin="round" stroke-miterlimit="10" width="13.94" height="7.18"/>
					<g>
						
							<line fill="none" stroke="#4766B0" stroke-linecap="round" stroke-linejoin="round" stroke-miterlimit="10" x1="35.849" y1="29.359" x2="45.418" y2="29.359"/>
						
							<line fill="none" stroke="#4766B0" stroke-linecap="round" stroke-linejoin="round" stroke-miterlimit="10" x1="37.355" y1="31.201" x2="43.912" y2="31.201"/>
					</g>
				</g>
				<polyline fill="none" stroke="#4766B0" stroke-linecap="round" stroke-linejoin="round" stroke-miterlimit="10" points="
					47.604,19.676 50.438,19.676 50.438,30.28 47.604,30.28 				"/>
			</g>
			<g>
				
					<line fill="#8CAEDC" stroke="#4766B0" stroke-linecap="round" stroke-linejoin="round" stroke-miterlimit="10" x1="13.354" y1="27.405" x2="27.294" y2="27.405"/>
				
					<line fill="#8CAEDC" stroke="#4766B0" stroke-linecap="round" stroke-linejoin="round" stroke-miterlimit="10" x1="13.354" y1="30.819" x2="27.294" y2="30.819"/>
				
					<line fill="#8CAEDC" stroke="#4766B0" stroke-linecap="round" stroke-linejoin="round" stroke-miterlimit="10" x1="13.354" y1="34.232" x2="27.294" y2="34.232"/>
				
					<line fill="#8CAEDC" stroke="#4766B0" stroke-linecap="round" stroke-linejoin="round" stroke-miterlimit="10" x1="13.354" y1="37.646" x2="27.294" y2="37.646"/>
				
					<line fill="#8CAEDC" stroke="#4766B0" stroke-linecap="round" stroke-linejoin="round" stroke-miterlimit="10" x1="13.354" y1="41.06" x2="24" y2="41.06"/>
			</g>
			<g>
				
					<rect x="33.663" y="37.294" fill="#8CAEDC" stroke="#4766B0" stroke-linecap="round" stroke-linejoin="round" stroke-miterlimit="10" width="13.94" height="7.18"/>
				<g>
					
						<line fill="none" stroke="#4766B0" stroke-linecap="round" stroke-linejoin="round" stroke-miterlimit="10" x1="35.849" y1="39.963" x2="45.418" y2="39.963"/>
					
						<line fill="none" stroke="#4766B0" stroke-linecap="round" stroke-linejoin="round" stroke-miterlimit="10" x1="37.355" y1="41.805" x2="43.912" y2="41.805"/>
				</g>
			</g>
		</g>
	</g>
</g>
</svg>
