<?xml version="1.0" encoding="utf-8"?>
<!-- Generator: Adobe Illustrator 19.1.0, SVG Export Plug-In . SVG Version: 6.00 Build 0)  -->
<svg version="1.1" id="Layer_1" xmlns="http://www.w3.org/2000/svg" xmlns:xlink="http://www.w3.org/1999/xlink" x="0px" y="0px"
	 viewBox="0 0 64 64" enable-background="new 0 0 64 64" xml:space="preserve">
<g>
	<g>
		<g>
			
				<rect x="3.022" y="14.076" fill="#8CAEDC" stroke="#4766B0" stroke-width="3" stroke-linecap="round" stroke-linejoin="round" stroke-miterlimit="10" width="22.251" height="40.539"/>
			
				<ellipse fill="#5981C1" stroke="#4766B0" stroke-width="2" stroke-linecap="round" stroke-linejoin="round" stroke-miterlimit="10" cx="14.147" cy="34.345" rx="6.93" ry="9.748"/>
			<path fill="none" stroke="#4766B0" stroke-width="2" stroke-miterlimit="10" d="M3.02,21.038c1.782,0,3.564-0.679,4.924-2.039
				c1.359-1.359,2.039-3.141,2.039-4.923"/>
			<path fill="none" stroke="#4766B0" stroke-width="2" stroke-miterlimit="10" d="M18.123,14.075c0,1.782,0.679,3.564,2.039,4.924
				c1.359,1.359,3.141,2.039,4.923,2.039"/>
			<path fill="none" stroke="#4766B0" stroke-width="2" stroke-miterlimit="10" d="M25.085,47.652c-1.782,0-3.564,0.679-4.924,2.039
				c-1.359,1.359-2.039,3.141-2.039,4.923"/>
			<path fill="none" stroke="#4766B0" stroke-width="2" stroke-miterlimit="10" d="M9.982,54.615c0-1.782-0.679-3.564-2.039-4.924
				c-1.359-1.359-3.141-2.039-4.923-2.039"/>
		</g>
		<g>
			
				<rect x="0.187" y="20.875" transform="matrix(0.288 -0.9576 0.9576 0.288 -16.0793 42.373)" fill="#8CAEDC" stroke="#4766B0" stroke-width="3" stroke-linecap="round" stroke-linejoin="round" stroke-miterlimit="10" width="40.539" height="22.251"/>
			
				<ellipse transform="matrix(0.288 -0.9576 0.9576 0.288 -16.0793 42.373)" fill="#5981C1" stroke="#4766B0" stroke-width="2" stroke-linecap="round" stroke-linejoin="round" stroke-miterlimit="10" cx="20.457" cy="32" rx="9.748" ry="6.93"/>
			<path fill="none" stroke="#4766B0" stroke-width="2" stroke-miterlimit="10" d="M13.634,16.052
				c1.707,0.514,3.609,0.376,5.303-0.534c1.693-0.91,2.857-2.421,3.371-4.127"/>
			<path fill="none" stroke="#4766B0" stroke-width="2" stroke-miterlimit="10" d="M30.102,13.734
				c-0.514,1.707-0.376,3.609,0.534,5.303c0.91,1.693,2.421,2.857,4.127,3.371"/>
			<path fill="none" stroke="#4766B0" stroke-width="2" stroke-miterlimit="10" d="M27.098,47.893
				c-1.707-0.514-3.609-0.376-5.303,0.534c-1.693,0.91-2.857,2.421-3.371,4.127"/>
			<path fill="none" stroke="#4766B0" stroke-width="2" stroke-miterlimit="10" d="M10.63,50.211
				c0.514-1.707,0.376-3.609-0.534-5.303c-0.91-1.693-2.421-2.857-4.127-3.371"/>
		</g>
		<g>
			
				<rect x="11.469" y="21.29" transform="matrix(0.7071 -0.7071 0.7071 0.7071 -13.6252 31.9367)" fill="#8CAEDC" stroke="#4766B0" stroke-width="3" stroke-linecap="round" stroke-linejoin="round" stroke-miterlimit="10" width="40.539" height="22.251"/>
			
				<ellipse transform="matrix(0.7071 -0.7071 0.7071 0.7071 -13.6252 31.9367)" fill="#5981C1" stroke="#4766B0" stroke-width="2" stroke-linecap="round" stroke-linejoin="round" stroke-miterlimit="10" cx="31.738" cy="32.415" rx="9.748" ry="6.93"/>
			<path fill="none" stroke="#4766B0" stroke-width="2" stroke-miterlimit="10" d="M33.281,15.138c1.26,1.26,3.001,2.04,4.924,2.04
				c1.923,0,3.663-0.779,4.923-2.039"/>
			<path fill="none" stroke="#4766B0" stroke-width="2" stroke-miterlimit="10" d="M48.883,20.893c-1.26,1.26-2.04,3.001-2.04,4.924
				c0,1.923,0.779,3.663,2.039,4.923"/>
			<path fill="none" stroke="#4766B0" stroke-width="2" stroke-miterlimit="10" d="M30.063,49.559c-1.26-1.26-3.001-2.04-4.924-2.04
				c-1.923,0-3.663,0.779-4.923,2.039"/>
			<path fill="none" stroke="#4766B0" stroke-width="2" stroke-miterlimit="10" d="M14.461,43.803c1.26-1.26,2.04-3.001,2.04-4.924
				c0-1.923-0.779-3.663-2.039-4.923"/>
		</g>
		<g>
			
				<rect x="17.589" y="24.093" transform="matrix(0.8808 -0.4735 0.4735 0.8808 -12.1627 22.1231)" fill="#8CAEDC" stroke="#4766B0" stroke-width="3" stroke-linecap="round" stroke-linejoin="round" stroke-miterlimit="10" width="40.539" height="22.251"/>
			
				<ellipse transform="matrix(0.8808 -0.4735 0.4735 0.8808 -12.1627 22.1231)" fill="#5981C1" stroke="#4766B0" stroke-width="2" stroke-linecap="round" stroke-linejoin="round" stroke-miterlimit="10" cx="37.858" cy="35.218" rx="9.748" ry="6.93"/>
			<path fill="none" stroke="#4766B0" stroke-width="2" stroke-miterlimit="10" d="M44.312,19.117
				c0.844,1.57,2.286,2.818,4.128,3.372c1.841,0.554,3.732,0.309,5.302-0.535"/>
			<path fill="none" stroke="#4766B0" stroke-width="2" stroke-miterlimit="10" d="M57.595,29.123
				c-1.57,0.844-2.818,2.286-3.372,4.128c-0.554,1.841-0.309,3.732,0.535,5.302"/>
			<path fill="none" stroke="#4766B0" stroke-width="2" stroke-miterlimit="10" d="M31.316,51.153
				c-0.844-1.57-2.286-2.818-4.128-3.372c-1.841-0.554-3.732-0.309-5.302,0.535"/>
			<path fill="none" stroke="#4766B0" stroke-width="2" stroke-miterlimit="10" d="M18.033,41.147
				c1.57-0.844,2.818-2.286,3.372-4.128c0.554-1.841,0.309-3.732-0.535-5.302"/>
		</g>
	</g>
	<path fill="#4766B0" d="M39.057,34.156c-0.203-0.04-0.407-0.041-0.611-0.003c-0.204,0.038-0.469,0.103-0.795,0.197l-0.856-1.407
		c0.34-0.08,0.633-0.002,0.879,0.234c0.211,0.199,0.427,0.232,0.647,0.097c0.117-0.071,0.192-0.173,0.224-0.305
		c0.032-0.132,0.014-0.255-0.055-0.368c-0.062-0.101-0.157-0.196-0.287-0.284c-0.129-0.088-0.28-0.159-0.451-0.212
		c-0.22-0.073-0.439-0.094-0.657-0.064c-0.218,0.031-0.455,0.107-0.711,0.229l-0.222-0.365c-0.112-0.185-0.241-0.233-0.385-0.146
		c-0.142,0.086-0.155,0.224-0.04,0.414l0.218,0.358c-0.442,0.324-0.711,0.686-0.807,1.084c-0.096,0.398-0.026,0.791,0.21,1.179
		c0.181,0.298,0.392,0.503,0.634,0.615c0.241,0.113,0.495,0.158,0.76,0.138c0.265-0.021,0.574-0.081,0.927-0.182l0.956,1.572
		c-0.177,0.049-0.336,0.061-0.477,0.035c-0.141-0.026-0.263-0.074-0.368-0.144c-0.105-0.071-0.244-0.18-0.417-0.328
		c-0.079-0.069-0.168-0.106-0.267-0.111c-0.099-0.005-0.199,0.024-0.3,0.085c-0.126,0.077-0.205,0.184-0.237,0.323
		s-0.015,0.261,0.051,0.37c0.089,0.146,0.212,0.277,0.367,0.39s0.342,0.201,0.56,0.262c0.218,0.061,0.454,0.078,0.709,0.053
		c0.255-0.025,0.523-0.104,0.805-0.235l0.555,0.913c0.063,0.104,0.126,0.17,0.189,0.2c0.063,0.03,0.135,0.02,0.216-0.03
		c0.088-0.053,0.126-0.119,0.115-0.195c-0.011-0.077-0.057-0.181-0.138-0.314l-0.512-0.842c0.306-0.223,0.533-0.477,0.681-0.762
		c0.148-0.285,0.214-0.576,0.198-0.873c-0.016-0.298-0.102-0.575-0.258-0.832c-0.125-0.205-0.277-0.371-0.458-0.497
		C39.47,34.278,39.272,34.195,39.057,34.156z M37.145,34.486c-0.248,0.049-0.45,0.058-0.604,0.027
		c-0.155-0.031-0.286-0.135-0.395-0.314C36.032,34.012,36,33.84,36.05,33.683c0.05-0.157,0.152-0.321,0.307-0.493L37.145,34.486z
		 M39.447,36.115c-0.04,0.213-0.161,0.411-0.361,0.595l-0.901-1.481c0.28-0.068,0.512-0.085,0.698-0.052
		c0.186,0.034,0.338,0.149,0.458,0.345C39.452,35.704,39.487,35.902,39.447,36.115z"/>
</g>
</svg>
