<?xml version="1.0" encoding="utf-8"?>
<!-- Generator: Adobe Illustrator 19.1.0, SVG Export Plug-In . SVG Version: 6.00 Build 0)  -->
<svg version="1.1" id="Layer_1" xmlns="http://www.w3.org/2000/svg" xmlns:xlink="http://www.w3.org/1999/xlink" x="0px" y="0px"
	 viewBox="0 0 64 64" enable-background="new 0 0 64 64" xml:space="preserve">
<g>
	
		<circle fill="none" stroke="#4766B0" stroke-width="3" stroke-linecap="round" stroke-linejoin="round" stroke-miterlimit="10" cx="32" cy="18.045" r="14.386"/>
	
		<polygon fill="#8CAEDC" stroke="#4766B0" stroke-width="3" stroke-linecap="round" stroke-linejoin="round" stroke-miterlimit="10" points="
		50.923,18.045 32,18.045 13.077,18.045 4.333,60.341 32,60.341 59.667,60.341 	"/>
	
		<line fill="none" stroke="#4766B0" stroke-width="3" stroke-linecap="round" stroke-linejoin="round" stroke-miterlimit="10" x1="17.614" y1="26.499" x2="46.386" y2="26.499"/>
	
		<ellipse transform="matrix(1 -0.0015 0.0015 1 -0.0638 0.0474)" fill="#5981C1" stroke="#4766B0" stroke-width="2" stroke-linecap="round" stroke-linejoin="round" stroke-miterlimit="10" cx="32" cy="43.155" rx="11.901" ry="8.46"/>
	<path fill="#4766B0" d="M34.27,42.685c-0.222-0.203-0.473-0.357-0.754-0.464c-0.281-0.107-0.658-0.226-1.132-0.355V39.48
		c0.482,0.157,0.785,0.474,0.912,0.952c0.111,0.405,0.353,0.608,0.728,0.608c0.199,0,0.368-0.07,0.507-0.209
		s0.209-0.305,0.209-0.496c0-0.172-0.047-0.361-0.141-0.568c-0.094-0.206-0.226-0.407-0.398-0.602
		c-0.218-0.256-0.473-0.447-0.765-0.573c-0.292-0.126-0.643-0.21-1.052-0.252V37.72c0-0.313-0.122-0.47-0.367-0.47
		c-0.241,0-0.361,0.161-0.361,0.482v0.608c-0.791,0.069-1.396,0.313-1.815,0.734c-0.419,0.42-0.628,0.959-0.628,1.617
		c0,0.505,0.107,0.917,0.321,1.238c0.214,0.321,0.493,0.568,0.837,0.742c0.344,0.174,0.772,0.332,1.284,0.473v2.666
		c-0.256-0.073-0.462-0.178-0.616-0.315c-0.155-0.138-0.27-0.29-0.347-0.456c-0.077-0.166-0.166-0.406-0.27-0.72
		c-0.046-0.145-0.128-0.258-0.246-0.338c-0.119-0.08-0.264-0.12-0.436-0.12c-0.214,0-0.393,0.074-0.536,0.221
		c-0.143,0.147-0.215,0.312-0.215,0.496c0,0.248,0.053,0.502,0.16,0.76c0.107,0.258,0.272,0.506,0.496,0.745
		c0.224,0.239,0.503,0.439,0.837,0.599c0.334,0.161,0.725,0.266,1.172,0.315v1.548c0,0.176,0.028,0.306,0.083,0.39
		c0.055,0.084,0.152,0.126,0.29,0.126c0.149,0,0.246-0.052,0.289-0.155s0.066-0.268,0.066-0.493v-1.428
		c0.547-0.046,1.019-0.189,1.416-0.43c0.398-0.241,0.699-0.551,0.903-0.932c0.205-0.38,0.307-0.788,0.307-1.224
		c0-0.348-0.064-0.668-0.192-0.96C34.69,43.146,34.507,42.895,34.27,42.685z M31.656,41.653c-0.344-0.126-0.6-0.267-0.768-0.421
		c-0.168-0.155-0.252-0.383-0.252-0.685c0-0.317,0.09-0.554,0.269-0.711c0.18-0.157,0.43-0.283,0.751-0.378V41.653z M33.278,45.402
		c-0.21,0.233-0.508,0.388-0.894,0.464v-2.511c0.398,0.126,0.698,0.28,0.903,0.462c0.205,0.182,0.307,0.439,0.307,0.771
		C33.594,44.898,33.489,45.169,33.278,45.402z"/>
</g>
</svg>
