<?xml version="1.0" encoding="utf-8"?>
<!-- Generator: Adobe Illustrator 19.1.0, SVG Export Plug-In . SVG Version: 6.00 Build 0)  -->
<svg version="1.1" id="Layer_1" xmlns="http://www.w3.org/2000/svg" xmlns:xlink="http://www.w3.org/1999/xlink" x="0px" y="0px"
	 viewBox="0 0 64 64" enable-background="new 0 0 64 64" xml:space="preserve">
<g>
	
		<rect x="11.719" y="17.48" transform="matrix(0.7071 0.7071 -0.7071 0.7071 34.2037 -7.9347)" fill="#4A72B8" stroke="#4766B0" stroke-width="3" stroke-linecap="round" stroke-linejoin="round" stroke-miterlimit="10" width="29.922" height="39.68"/>
	
		<rect x="36.131" y="7.255" transform="matrix(0.7071 0.7071 -0.7071 0.7071 25.6412 -28.6064)" fill="#8CAEDC" stroke="#4766B0" stroke-width="3" stroke-linecap="round" stroke-linejoin="round" stroke-miterlimit="10" width="22.442" height="18.788"/>
	<g>
		
			<rect x="42.479" y="11.776" transform="matrix(0.7071 0.7071 -0.7071 0.7071 22.6869 -27.3827)" fill="#5981C1" stroke="#4766B0" stroke-width="2" stroke-linecap="round" stroke-linejoin="round" stroke-miterlimit="10" width="3.837" height="3.837"/>
		
			<rect x="48.387" y="17.684" transform="matrix(0.7071 0.7071 -0.7071 0.7071 28.5955 -29.8301)" fill="#5981C1" stroke="#4766B0" stroke-width="2" stroke-linecap="round" stroke-linejoin="round" stroke-miterlimit="10" width="3.837" height="3.837"/>
	</g>
	
		<rect x="1.214" y="42.841" transform="matrix(0.7071 0.7071 -0.7071 0.7071 38.5549 2.5701)" fill="#5981C1" stroke="#4766B0" stroke-width="3" stroke-linecap="round" stroke-linejoin="round" stroke-miterlimit="10" width="29.922" height="9.968"/>
	
		<line fill="none" stroke="#4766B0" stroke-width="3" stroke-linecap="round" stroke-linejoin="round" stroke-miterlimit="10" x1="30.698" y1="22.342" x2="41.658" y2="33.302"/>
	
		<line fill="none" stroke="#4766B0" stroke-width="3" stroke-linecap="round" stroke-linejoin="round" stroke-miterlimit="10" x1="28.958" y1="29.032" x2="34.968" y2="35.042"/>
</g>
</svg>
