<?xml version="1.0" encoding="utf-8"?>
<!-- Generator: Adobe Illustrator 19.1.0, SVG Export Plug-In . SVG Version: 6.00 Build 0)  -->
<svg version="1.1" id="Layer_1" xmlns="http://www.w3.org/2000/svg" xmlns:xlink="http://www.w3.org/1999/xlink" x="0px" y="0px"
	 viewBox="0 0 64 64" enable-background="new 0 0 64 64" xml:space="preserve">
<g>
	
		<rect x="3" y="8.74" fill="#5981C1" stroke="#4766B0" stroke-width="3" stroke-linecap="round" stroke-linejoin="round" stroke-miterlimit="10" width="58" height="52.833"/>
	
		<rect x="3" y="20.193" fill="#8CAEDC" stroke="#4766B0" stroke-width="3" stroke-linecap="round" stroke-linejoin="round" stroke-miterlimit="10" width="58" height="41.38"/>
	<g>
		<g>
			
				<rect x="11.333" y="29.591" fill="#8CAEDC" stroke="#4766B0" stroke-width="2" stroke-linecap="round" stroke-linejoin="round" stroke-miterlimit="10" width="5" height="5"/>
			
				<rect x="20.417" y="29.591" fill="#5981C1" stroke="#4766B0" stroke-width="2" stroke-linecap="round" stroke-linejoin="round" stroke-miterlimit="10" width="5" height="5"/>
			
				<rect x="29.5" y="29.591" fill="#5981C1" stroke="#4766B0" stroke-width="2" stroke-linecap="round" stroke-linejoin="round" stroke-miterlimit="10" width="5" height="5"/>
			
				<rect x="38.583" y="29.591" fill="#8CAEDC" stroke="#4766B0" stroke-width="2" stroke-linecap="round" stroke-linejoin="round" stroke-miterlimit="10" width="5" height="5"/>
			
				<rect x="47.667" y="29.591" fill="#8CAEDC" stroke="#4766B0" stroke-width="2" stroke-linecap="round" stroke-linejoin="round" stroke-miterlimit="10" width="5" height="5"/>
		</g>
		<g>
			
				<rect x="11.333" y="38.383" fill="#5981C1" stroke="#4766B0" stroke-width="2" stroke-linecap="round" stroke-linejoin="round" stroke-miterlimit="10" width="5" height="5"/>
			
				<rect x="20.417" y="38.383" fill="#8CAEDC" stroke="#4766B0" stroke-width="2" stroke-linecap="round" stroke-linejoin="round" stroke-miterlimit="10" width="5" height="5"/>
			
				<rect x="29.5" y="38.383" fill="#8CAEDC" stroke="#4766B0" stroke-width="2" stroke-linecap="round" stroke-linejoin="round" stroke-miterlimit="10" width="5" height="5"/>
			
				<rect x="38.583" y="38.383" fill="#8CAEDC" stroke="#4766B0" stroke-width="2" stroke-linecap="round" stroke-linejoin="round" stroke-miterlimit="10" width="5" height="5"/>
			
				<rect x="47.667" y="38.383" fill="#5981C1" stroke="#4766B0" stroke-width="2" stroke-linecap="round" stroke-linejoin="round" stroke-miterlimit="10" width="5" height="5"/>
		</g>
		<g>
			
				<rect x="11.333" y="47.175" fill="#8CAEDC" stroke="#4766B0" stroke-width="2" stroke-linecap="round" stroke-linejoin="round" stroke-miterlimit="10" width="5" height="5"/>
			
				<rect x="20.417" y="47.175" fill="#8CAEDC" stroke="#4766B0" stroke-width="2" stroke-linecap="round" stroke-linejoin="round" stroke-miterlimit="10" width="5" height="5"/>
			
				<rect x="29.5" y="47.175" fill="#5981C1" stroke="#4766B0" stroke-width="2" stroke-linecap="round" stroke-linejoin="round" stroke-miterlimit="10" width="5" height="5"/>
			
				<rect x="38.583" y="47.175" fill="#8CAEDC" stroke="#4766B0" stroke-width="2" stroke-linecap="round" stroke-linejoin="round" stroke-miterlimit="10" width="5" height="5"/>
			
				<rect x="47.667" y="47.175" fill="#8CAEDC" stroke="#4766B0" stroke-width="2" stroke-linecap="round" stroke-linejoin="round" stroke-miterlimit="10" width="5" height="5"/>
		</g>
	</g>
	<g>
		
			<path fill="#8CAEDC" stroke="#4766B0" stroke-width="2" stroke-linecap="round" stroke-linejoin="round" stroke-miterlimit="10" d="
			M14.75,15.052L14.75,15.052c-1.375,0-2.5-1.125-2.5-2.5V4.927c0-1.375,1.125-2.5,2.5-2.5h0c1.375,0,2.5,1.125,2.5,2.5v7.625
			C17.25,13.927,16.125,15.052,14.75,15.052z"/>
		
			<path fill="#8CAEDC" stroke="#4766B0" stroke-width="2" stroke-linecap="round" stroke-linejoin="round" stroke-miterlimit="10" d="
			M49.25,15.052L49.25,15.052c-1.375,0-2.5-1.125-2.5-2.5V4.927c0-1.375,1.125-2.5,2.5-2.5h0c1.375,0,2.5,1.125,2.5,2.5v7.625
			C51.75,13.927,50.625,15.052,49.25,15.052z"/>
	</g>
	
		<line fill="#5981C1" stroke="#4766B0" stroke-width="3" stroke-linecap="round" stroke-linejoin="round" stroke-miterlimit="10" x1="24.896" y1="14.612" x2="39.104" y2="14.612"/>
</g>
</svg>
