<?xml version="1.0" encoding="utf-8"?>
<!-- Generator: Adobe Illustrator 19.1.0, SVG Export Plug-In . SVG Version: 6.00 Build 0)  -->
<svg version="1.1" id="Layer_1" xmlns="http://www.w3.org/2000/svg" xmlns:xlink="http://www.w3.org/1999/xlink" x="0px" y="0px"
	 viewBox="0 0 64 64" enable-background="new 0 0 64 64" xml:space="preserve">
<g>
	<polygon fill="none" stroke="#455B65" stroke-linecap="round" stroke-linejoin="round" stroke-miterlimit="10" points="
		9.001,50.392 6.946,54.618 4.89,58.843 9.115,56.787 13.34,54.732 24.147,43.925 19.808,39.586 	"/>
	
		<polygon fill="none" stroke="#455B65" stroke-width="2" stroke-linecap="round" stroke-linejoin="round" stroke-miterlimit="10" points="
		38.658,5.156 36.344,11.645 44.101,19.402 51.857,27.159 58.346,24.844 	"/>
	
		<polygon fill="#5981C1" stroke="#4766B0" stroke-width="3" stroke-linecap="round" stroke-linejoin="round" stroke-miterlimit="10" points="
		9.001,50.392 6.946,54.618 4.89,58.843 9.115,56.787 13.34,54.732 24.147,43.925 19.808,39.586 	"/>
	
		<polygon fill="#5981C1" stroke="#4766B0" stroke-width="3" stroke-linecap="round" stroke-linejoin="round" stroke-miterlimit="10" points="
		38.658,5.156 36.344,11.645 44.101,19.402 51.857,27.159 58.346,24.844 	"/>
	
		<polyline fill="#8CAEDC" stroke="#4766B0" stroke-width="3" stroke-linecap="round" stroke-linejoin="round" stroke-miterlimit="10" points="
		34.747,45.354 50.255,25.556 37.946,13.248 18.148,28.755 	"/>
	
		<path fill="#8CAEDC" stroke="#4766B0" stroke-width="3" stroke-linecap="round" stroke-linejoin="round" stroke-miterlimit="10" d="
		M34.56,54.337L34.56,54.337c2.869-2.869,2.568-7.865-0.669-11.102L20.498,29.843c-3.237-3.237-8.233-3.539-11.102-0.669l0,0
		L34.56,54.337z"/>
	
		<line fill="#8CAEDC" stroke="#4766B0" stroke-width="3" stroke-linecap="round" stroke-linejoin="round" stroke-miterlimit="10" x1="27.111" y1="28.644" x2="36.732" y2="21.108"/>
</g>
</svg>
