<?xml version="1.0" encoding="utf-8"?>
<!-- Generator: Adobe Illustrator 19.1.0, SVG Export Plug-In . SVG Version: 6.00 Build 0)  -->
<svg version="1.1" id="Layer_1" xmlns="http://www.w3.org/2000/svg" xmlns:xlink="http://www.w3.org/1999/xlink" x="0px" y="0px"
	 viewBox="0 0 64 64" enable-background="new 0 0 64 64" xml:space="preserve">
<g>
	
		<line fill="#4A72B8" stroke="#4766B0" stroke-width="2" stroke-linecap="round" stroke-linejoin="round" stroke-miterlimit="10" x1="3.312" y1="51.25" x2="60.687" y2="51.25"/>
	<g>
		
			<circle fill="#4A72B8" stroke="#4766B0" stroke-width="2" stroke-linecap="round" stroke-linejoin="round" stroke-miterlimit="10" cx="13.833" cy="47.031" r="4.219"/>
		
			<circle fill="#4A72B8" stroke="#4766B0" stroke-width="2" stroke-linecap="round" stroke-linejoin="round" stroke-miterlimit="10" cx="50.167" cy="47.031" r="4.219"/>
	</g>
	
		<path fill="#4A72B8" stroke="#4766B0" stroke-width="3" stroke-linecap="round" stroke-linejoin="round" stroke-miterlimit="10" d="
		M51.469,18.125H12.531c-5.091,0-9.219,4.127-9.219,9.219v9.281v0.823v9.219h9.219h38.938h9.219v-9.219v-0.823v-9.281
		C60.687,22.252,56.56,18.125,51.469,18.125z"/>
	<path fill="none" stroke="#4766B0" stroke-width="2" stroke-linecap="round" stroke-linejoin="round" stroke-miterlimit="10" d="
		M41.75,18.125c0,0-8.75-8.625-26.625-10"/>
	
		<rect x="23.152" y="26.357" fill="#8CAEDC" stroke="#4766B0" stroke-linecap="round" stroke-linejoin="round" stroke-miterlimit="10" width="9.007" height="7.442"/>
	
		<rect x="32.159" y="26.357" fill="#8CAEDC" stroke="#4766B0" stroke-linecap="round" stroke-linejoin="round" stroke-miterlimit="10" width="9.007" height="7.442"/>
	<path fill="#8CAEDC" stroke="#4766B0" stroke-linecap="round" stroke-linejoin="round" stroke-miterlimit="10" d="M58.202,26.357
		h-0.981h-0.981c-1.307,0-2.366,1.059-2.366,2.366v2.71c0,1.307,1.059,2.366,2.366,2.366h0.981h0.981h2.485v-7.442H58.202z"/>
	<path fill="#8CAEDC" stroke="#4766B0" stroke-linecap="round" stroke-linejoin="round" stroke-miterlimit="10" d="M4.173,33.799
		h0.981h0.981c1.307,0,2.366-1.059,2.366-2.366v-2.71c0-1.307-1.059-2.366-2.366-2.366H5.153H4.173h-0.86v7.442H4.173z"/>
	
		<rect x="3.312" y="36.625" fill="#5981C1" stroke="#4766B0" stroke-width="2" stroke-linecap="round" stroke-linejoin="round" stroke-miterlimit="10" width="57.375" height="10.042"/>
	<path fill="#4A72B8" stroke="#4766B0" stroke-linecap="round" stroke-linejoin="round" stroke-miterlimit="10" d="M17.387,26.357
		h-3.123c-1.472,0-2.665,1.193-2.665,2.665v5.29v9.689v2.665h2.665h3.123h2.665v-2.665v-9.689v-5.29
		C20.053,27.55,18.859,26.357,17.387,26.357z"/>
	<path fill="#4A72B8" stroke="#4766B0" stroke-linecap="round" stroke-linejoin="round" stroke-miterlimit="10" d="M49.082,26.357
		h-3.123c-1.472,0-2.665,1.193-2.665,2.665v5.29v9.689v2.665h2.665h3.123h2.665v-2.665v-9.689v-5.29
		C51.747,27.55,50.554,26.357,49.082,26.357z"/>
	
		<line fill="#8CAEDC" stroke="#4766B0" stroke-linecap="round" stroke-linejoin="round" stroke-miterlimit="10" x1="16.963" y1="36.625" x2="18.312" y2="36.625"/>
	
		<line fill="#8CAEDC" stroke="#4766B0" stroke-linecap="round" stroke-linejoin="round" stroke-miterlimit="10" x1="48.657" y1="36.625" x2="50.007" y2="36.625"/>
	
		<circle fill="#4A72B8" stroke="#4766B0" stroke-linecap="round" stroke-linejoin="round" stroke-miterlimit="10" cx="15.826" cy="30.684" r="1.811"/>
	
		<circle fill="#4A72B8" stroke="#4766B0" stroke-linecap="round" stroke-linejoin="round" stroke-miterlimit="10" cx="47.521" cy="30.684" r="1.811"/>
</g>
</svg>
