<?xml version="1.0" encoding="utf-8"?>
<!-- Generator: Adobe Illustrator 19.1.0, SVG Export Plug-In . SVG Version: 6.00 Build 0)  -->
<svg version="1.1" id="Layer_1" xmlns="http://www.w3.org/2000/svg" xmlns:xlink="http://www.w3.org/1999/xlink" x="0px" y="0px"
	 viewBox="0 0 64 64" enable-background="new 0 0 64 64" xml:space="preserve">
<g>
	
		<path fill="#5981C1" stroke="#4766B0" stroke-width="3" stroke-linecap="round" stroke-linejoin="round" stroke-miterlimit="10" d="
		M50.668,29.21c-3.732,0-6.232-1.125-7.864-2.887h-1.337c-1.632,1.762-4.132,2.887-7.864,2.887s-6.232-1.125-7.864-2.887h-1.337
		c-1.632,1.762-4.132,2.887-7.864,2.887c-3.096,0-5.336-0.782-6.946-2.05v31.046h48.317V26.933
		C56.283,28.34,53.951,29.21,50.668,29.21z"/>
	
		<rect x="15.511" y="40.641" fill="#8CAEDC" stroke="#4766B0" stroke-width="2" stroke-linecap="round" stroke-linejoin="round" stroke-miterlimit="10" width="13.487" height="17.565"/>
	
		<rect x="33.95" y="34.184" fill="#8CAEDC" stroke="#4766B0" stroke-width="2" stroke-linecap="round" stroke-linejoin="round" stroke-miterlimit="10" width="17.744" height="17.744"/>
	
		<line fill="#8CAEDC" stroke="#4766B0" stroke-width="2" stroke-linecap="round" stroke-linejoin="round" stroke-miterlimit="10" x1="25.662" y1="49.294" x2="25.662" y2="52.353"/>
	
		<path fill="#8CAEDC" stroke="#4766B0" stroke-width="3" stroke-linecap="round" stroke-linejoin="round" stroke-miterlimit="10" d="
		M33.603,4.91h8.16c0,0,9.215,24.3-8.16,24.3s-8.16-24.3-8.16-24.3H33.603z"/>
	
		<path fill="#5981C1" stroke="#4766B0" stroke-width="3" stroke-linecap="round" stroke-linejoin="round" stroke-miterlimit="10" d="
		M25.07,5.989c-0.224-0.684-0.373-1.079-0.373-1.079h-8.16h-8.16c0,0-9.215,24.3,8.16,24.3c4.283,0,6.945-1.48,8.533-3.706
		C21.035,19.848,23.966,9.364,25.07,5.989z"/>
	
		<path fill="#5981C1" stroke="#4766B0" stroke-width="3" stroke-linecap="round" stroke-linejoin="round" stroke-miterlimit="10" d="
		M58.828,4.91h-8.16h-8.16c0,0-0.149,0.395-0.373,1.079c1.104,3.375,4.035,13.86,0,19.516c1.588,2.225,4.25,3.706,8.533,3.706
		C68.043,29.21,58.828,4.91,58.828,4.91z"/>
	
		<line fill="#8CAEDC" stroke="#4766B0" stroke-width="2" stroke-linecap="round" stroke-linejoin="round" stroke-miterlimit="10" x1="42.822" y1="34.184" x2="42.822" y2="51.928"/>
	
		<line fill="#8CAEDC" stroke="#4766B0" stroke-width="2" stroke-linecap="round" stroke-linejoin="round" stroke-miterlimit="10" x1="33.95" y1="43.056" x2="51.694" y2="43.056"/>
	
		<rect x="15.511" y="34.184" fill="#4A72B8" stroke="#4766B0" stroke-width="2" stroke-linecap="round" stroke-linejoin="round" stroke-miterlimit="10" width="13.487" height="2.957"/>
</g>
</svg>
