<?xml version="1.0" encoding="utf-8"?>
<!-- Generator: Adobe Illustrator 19.1.0, SVG Export Plug-In . SVG Version: 6.00 Build 0)  -->
<svg version="1.1" id="Layer_1" xmlns="http://www.w3.org/2000/svg" xmlns:xlink="http://www.w3.org/1999/xlink" x="0px" y="0px"
	 viewBox="0 0 64 64" enable-background="new 0 0 64 64" xml:space="preserve">
<g>
	<g>
		
			<rect x="23.992" y="2.06" transform="matrix(0.7071 0.7071 -0.7071 0.7071 32 -13.2548)" fill="#8CAEDC" stroke="#4766B0" stroke-width="3" stroke-linecap="round" stroke-linejoin="round" stroke-miterlimit="10" width="16.017" height="59.879"/>
		
			<line fill="#5981C1" stroke="#4766B0" stroke-width="2" stroke-linecap="round" stroke-linejoin="round" stroke-miterlimit="10" x1="42.211" y1="10.463" x2="47.874" y2="16.126"/>
		
			<line fill="#5981C1" stroke="#4766B0" stroke-width="2" stroke-linecap="round" stroke-linejoin="round" stroke-miterlimit="10" x1="36.915" y1="15.76" x2="40.172" y2="19.017"/>
		
			<line fill="#5981C1" stroke="#4766B0" stroke-width="2" stroke-linecap="round" stroke-linejoin="round" stroke-miterlimit="10" x1="31.618" y1="21.056" x2="37.281" y2="26.719"/>
		
			<line fill="#5981C1" stroke="#4766B0" stroke-width="2" stroke-linecap="round" stroke-linejoin="round" stroke-miterlimit="10" x1="26.321" y1="26.353" x2="29.578" y2="29.61"/>
		
			<line fill="#5981C1" stroke="#4766B0" stroke-width="2" stroke-linecap="round" stroke-linejoin="round" stroke-miterlimit="10" x1="21.025" y1="31.65" x2="26.688" y2="37.312"/>
		
			<line fill="#5981C1" stroke="#4766B0" stroke-width="2" stroke-linecap="round" stroke-linejoin="round" stroke-miterlimit="10" x1="15.728" y1="36.946" x2="18.985" y2="40.203"/>
		
			<line fill="#5981C1" stroke="#4766B0" stroke-width="2" stroke-linecap="round" stroke-linejoin="round" stroke-miterlimit="10" x1="10.432" y1="42.243" x2="16.095" y2="47.905"/>
	</g>
	<g>
		
			<polygon fill="#8CAEDC" stroke="#4766B0" stroke-width="3" stroke-linecap="round" stroke-linejoin="round" stroke-miterlimit="10" points="
			8.349,8.349 11.981,21.901 45.73,55.651 55.651,45.73 21.901,11.981 		"/>
		
			<polyline fill="#8CAEDC" stroke="#4766B0" stroke-width="2" stroke-linecap="round" stroke-linejoin="round" stroke-miterlimit="10" points="
			11.981,21.901 16.359,21.499 16.479,18.152 21.021,17.794 21.901,11.981 		"/>
		
			<line fill="#8CAEDC" stroke="#4766B0" stroke-width="2" stroke-linecap="round" stroke-linejoin="round" stroke-miterlimit="10" x1="16.479" y1="18.152" x2="44.45" y2="46.124"/>
		
			<polygon fill="#4A72B8" stroke="#4766B0" stroke-width="2" stroke-linecap="round" stroke-linejoin="round" stroke-miterlimit="10" points="
			16.082,10.421 10.421,16.082 8.349,8.349 		"/>
		
			<rect x="40.854" y="43.879" transform="matrix(0.7071 -0.7071 0.7071 0.7071 -19.828 47.869)" fill="#5981C1" stroke="#4766B0" stroke-width="3" stroke-linecap="round" stroke-linejoin="round" stroke-miterlimit="10" width="14.03" height="7.98"/>
	</g>
</g>
</svg>
