<?xml version="1.0" encoding="utf-8"?>
<!-- Generator: Adobe Illustrator 19.1.0, SVG Export Plug-In . SVG Version: 6.00 Build 0)  -->
<svg version="1.1" id="Layer_1" xmlns="http://www.w3.org/2000/svg" xmlns:xlink="http://www.w3.org/1999/xlink" x="0px" y="0px"
	 viewBox="0 0 64 64" enable-background="new 0 0 64 64" xml:space="preserve">
<g>
	
		<path fill="#5981C1" stroke="#4766B0" stroke-width="3" stroke-linecap="round" stroke-linejoin="round" stroke-miterlimit="10" d="
		M25.594,58.371L3.067,35.844l22.527-22.527l20.134-0.07c1.617-0.006,2.919,1.325,2.879,2.941L48.12,35.844L25.594,58.371z"/>
	<g>
		
			<path fill="#8CAEDC" stroke="#4766B0" stroke-width="3" stroke-linecap="round" stroke-linejoin="round" stroke-miterlimit="10" d="
			M44.283,39.681l3.837-3.837l0.486-19.656c0.04-1.616-1.262-2.947-2.879-2.941l-20.134,0.07l-3.837,3.837"/>
	</g>
	
		<circle fill="#8CAEDC" stroke="#4766B0" stroke-width="2" stroke-linecap="round" stroke-linejoin="round" stroke-miterlimit="10" cx="39.163" cy="22.274" r="3.276"/>
	
		<line fill="#5981C1" stroke="#4766B0" stroke-width="2" stroke-linecap="round" stroke-linejoin="round" stroke-miterlimit="10" x1="21.756" y1="17.155" x2="44.283" y2="39.682"/>
	<path fill="#4766B0" d="M26.201,39.353c-0.019-0.422-0.115-0.826-0.288-1.212c-0.173-0.386-0.43-0.879-0.773-1.48l2.372-2.372
		c0.323,0.635,0.31,1.253-0.04,1.853c-0.293,0.513-0.253,0.956,0.12,1.328c0.198,0.198,0.435,0.297,0.713,0.297
		s0.511-0.095,0.701-0.285c0.171-0.171,0.313-0.406,0.425-0.704c0.112-0.298,0.18-0.63,0.202-0.995
		c0.038-0.471-0.026-0.915-0.191-1.331c-0.165-0.416-0.43-0.849-0.795-1.297l0.616-0.616c0.312-0.312,0.346-0.589,0.103-0.833
		c-0.239-0.239-0.519-0.199-0.838,0.12l-0.604,0.604c-0.855-0.718-1.7-1.077-2.535-1.075c-0.834,0.002-1.578,0.33-2.232,0.983
		c-0.502,0.502-0.806,1.019-0.912,1.551c-0.106,0.532-0.075,1.056,0.094,1.571c0.169,0.515,0.438,1.098,0.807,1.748l-2.651,2.651
		c-0.183-0.327-0.282-0.636-0.299-0.926c-0.017-0.291,0.019-0.557,0.108-0.798c0.089-0.241,0.239-0.569,0.448-0.984
		c0.099-0.19,0.129-0.384,0.091-0.582c-0.038-0.198-0.143-0.382-0.314-0.553c-0.213-0.213-0.464-0.317-0.753-0.314
		c-0.289,0.004-0.524,0.097-0.707,0.28c-0.247,0.247-0.446,0.552-0.596,0.915c-0.15,0.363-0.233,0.774-0.248,1.234
		c-0.015,0.46,0.064,0.936,0.237,1.428c0.173,0.492,0.457,0.985,0.852,1.48l-1.54,1.54c-0.175,0.175-0.276,0.332-0.305,0.47
		c-0.029,0.139,0.026,0.277,0.163,0.413c0.148,0.148,0.296,0.193,0.442,0.134c0.146-0.059,0.332-0.201,0.556-0.425l1.42-1.42
		c0.589,0.498,1.201,0.825,1.836,0.981s1.243,0.146,1.825-0.029c0.582-0.175,1.089-0.479,1.522-0.912
		c0.346-0.346,0.601-0.728,0.764-1.146C26.159,40.23,26.227,39.798,26.201,39.353z M24.627,35.727
		c-0.217-0.467-0.332-0.862-0.345-1.183c-0.013-0.321,0.13-0.632,0.43-0.932c0.316-0.316,0.64-0.462,0.975-0.439
		c0.334,0.023,0.709,0.146,1.123,0.371L24.627,35.727z M22.511,41.07c-0.441,0.023-0.891-0.12-1.351-0.428l2.497-2.497
		c0.27,0.521,0.416,0.973,0.439,1.357c0.023,0.384-0.131,0.741-0.462,1.072C23.327,40.882,22.952,41.047,22.511,41.07z"/>
	<g>
		<path fill="#5981C1" d="M59.352,13.653c1.703-2.579,2.043-4.854,0.958-6.403c-1.085-1.548-3.338-2.008-6.345-1.29
			c-2.59,0.619-5.573,2.049-8.399,4.028c-5.555,3.891-9.955,9.578-7.615,12.919c0.046,0.066,0.097,0.127,0.153,0.183
			c0.457,0.456,1.188,0.533,1.735,0.151c0.613-0.43,0.762-1.275,0.333-1.888c-0.8-1.142,1.565-5.371,6.95-9.143
			c2.553-1.788,5.208-3.071,7.474-3.612c1.981-0.473,3.182-0.231,3.494,0.207c0.311,0.445,0.123,1.654-0.999,3.355
			c-1.284,1.944-3.397,4-5.951,5.787c-0.411,0.288-0.828,0.551-1.244,0.813l-0.075,3.185c0.966-0.532,1.93-1.115,2.875-1.776
			C55.52,18.189,57.884,15.875,59.352,13.653z"/>
	</g>
</g>
</svg>
