<?xml version="1.0" encoding="utf-8"?>
<!-- Generator: Adobe Illustrator 19.1.0, SVG Export Plug-In . SVG Version: 6.00 Build 0)  -->
<svg version="1.1" id="Layer_1" xmlns="http://www.w3.org/2000/svg" xmlns:xlink="http://www.w3.org/1999/xlink" x="0px" y="0px"
	 viewBox="0 0 64 64" enable-background="new 0 0 64 64" xml:space="preserve">
<g>
	
		<circle fill="#4A72B8" stroke="#4766B0" stroke-width="2" stroke-linecap="round" stroke-linejoin="round" stroke-miterlimit="10" cx="51.854" cy="22.925" r="2.512"/>
	
		<polyline fill="#5981C1" stroke="#4766B0" stroke-width="3" stroke-linecap="round" stroke-linejoin="round" stroke-miterlimit="10" points="
		10.111,51.554 4.714,51.554 4.714,33.691 44.847,33.691 44.847,51.554 17.614,51.554 	"/>
	
		<polyline fill="#4A72B8" stroke="#4766B0" stroke-width="3" stroke-linecap="round" stroke-linejoin="round" stroke-miterlimit="10" points="
		52.951,51.554 49.476,51.554 49.476,24.31 58.428,24.31 62.375,37.932 62.375,51.554 58.988,51.554 	"/>
	
		<polygon fill="#8CAEDC" stroke="#4766B0" stroke-width="2" stroke-linecap="round" stroke-linejoin="round" stroke-miterlimit="10" points="
		49.476,37.932 49.476,24.31 58.428,24.31 62.375,37.932 	"/>
	
		<circle fill="#4A72B8" stroke="#4766B0" stroke-width="3" stroke-linecap="round" stroke-linejoin="round" stroke-miterlimit="10" cx="13.482" cy="51.554" r="4.131"/>
	
		<circle fill="#4A72B8" stroke="#4766B0" stroke-width="3" stroke-linecap="round" stroke-linejoin="round" stroke-miterlimit="10" cx="53.607" cy="51.554" r="4.131"/>
	
		<line fill="#8CAEDC" stroke="#4766B0" stroke-width="2" stroke-linecap="round" stroke-linejoin="round" stroke-miterlimit="10" x1="52.372" y1="41.136" x2="54.302" y2="41.136"/>
	
		<line fill="#5981C1" stroke="#4766B0" stroke-width="3" stroke-linecap="round" stroke-linejoin="round" stroke-miterlimit="10" x1="36.788" y1="51.554" x2="45.738" y2="51.554"/>
	
		<rect x="36.232" y="24.31" fill="#4A72B8" stroke="#4766B0" stroke-width="3" stroke-linecap="round" stroke-linejoin="round" stroke-miterlimit="10" width="13.243" height="27.244"/>
	
		<rect x="38.977" y="27.198" fill="#8CAEDC" stroke="#4766B0" stroke-linecap="round" stroke-linejoin="round" stroke-miterlimit="10" width="7.754" height="6.493"/>
	<g>
		
			<rect x="1.693" y="16.482" transform="matrix(0.9496 -0.3133 0.3133 0.9496 -5.1465 9.9826)" fill="#5981C1" stroke="#4766B0" stroke-linecap="round" stroke-linejoin="round" stroke-miterlimit="10" width="53.583" height="9.043"/>
		<polyline fill="#5981C1" stroke="#4766B0" stroke-linecap="round" stroke-linejoin="round" stroke-miterlimit="10" points="
			1.625,25.104 13.005,30.838 18.738,19.459 30.079,25.172 35.76,13.896 47.015,19.567 52.579,8.524 		"/>
		<polyline fill="none" stroke="#4766B0" stroke-linecap="round" stroke-linejoin="round" stroke-miterlimit="10" points="
			55.333,16.872 43.953,11.138 38.22,22.517 26.88,16.803 21.199,28.079 9.943,22.408 4.379,33.451 		"/>
	</g>
	
		<rect x="9.605" y="37.375" fill="#4A72B8" stroke="#4766B0" stroke-linecap="round" stroke-linejoin="round" stroke-miterlimit="10" width="7.754" height="2.514"/>
</g>
</svg>
