<?xml version="1.0" encoding="utf-8"?>
<!-- Generator: Adobe Illustrator 19.1.0, SVG Export Plug-In . SVG Version: 6.00 Build 0)  -->
<svg version="1.1" id="Layer_1" xmlns="http://www.w3.org/2000/svg" xmlns:xlink="http://www.w3.org/1999/xlink" x="0px" y="0px"
	 viewBox="0 0 64 64" enable-background="new 0 0 64 64" xml:space="preserve">
<g>
	<g>
		<path fill="none" stroke="#4766B0" stroke-width="3" stroke-linecap="round" stroke-linejoin="round" stroke-miterlimit="10" d="
			M16.512,25.084v11.647c0,8.518,6.969,15.488,15.488,15.488s15.488-6.969,15.488-15.488V25.084"/>
	</g>
	
		<path fill="#4A72B8" stroke="#4766B0" stroke-width="3" stroke-linecap="round" stroke-linejoin="round" stroke-miterlimit="10" d="
		M41.031,61.25c0-4.988-4.043-9.031-9.031-9.031s-9.031,4.043-9.031,9.031H41.031z"/>
	<g>
		
			<path fill="#8CAEDC" stroke="#4766B0" stroke-width="3" stroke-linecap="round" stroke-linejoin="round" stroke-miterlimit="10" d="
			M32,2.75L32,2.75c-5.042,0-9.167,4.125-9.167,9.167V35.76c0,5.042,4.125,9.167,9.167,9.167h0c5.042,0,9.167-4.125,9.167-9.167
			V11.917C41.167,6.875,37.042,2.75,32,2.75z"/>
		<g>
			
				<line fill="#8CAEDC" stroke="#4766B0" stroke-width="3" stroke-linecap="round" stroke-linejoin="round" stroke-miterlimit="10" x1="29.062" y1="13.834" x2="22.833" y2="13.834"/>
			
				<line fill="#8CAEDC" stroke="#4766B0" stroke-width="3" stroke-linecap="round" stroke-linejoin="round" stroke-miterlimit="10" x1="29.062" y1="20.271" x2="22.833" y2="20.271"/>
			
				<line fill="#8CAEDC" stroke="#4766B0" stroke-width="3" stroke-linecap="round" stroke-linejoin="round" stroke-miterlimit="10" x1="29.062" y1="26.709" x2="22.833" y2="26.709"/>
			
				<line fill="#8CAEDC" stroke="#4766B0" stroke-width="3" stroke-linecap="round" stroke-linejoin="round" stroke-miterlimit="10" x1="41.167" y1="13.834" x2="34.937" y2="13.834"/>
			
				<line fill="#8CAEDC" stroke="#4766B0" stroke-width="3" stroke-linecap="round" stroke-linejoin="round" stroke-miterlimit="10" x1="41.167" y1="20.271" x2="34.937" y2="20.271"/>
			
				<line fill="#8CAEDC" stroke="#4766B0" stroke-width="3" stroke-linecap="round" stroke-linejoin="round" stroke-miterlimit="10" x1="41.167" y1="26.709" x2="34.937" y2="26.709"/>
		</g>
		
			<path fill="#5981C1" stroke="#4766B0" stroke-width="3" stroke-linecap="round" stroke-linejoin="round" stroke-miterlimit="10" d="
			M22.833,33.646v2.114c0,5.042,4.125,9.167,9.167,9.167s9.167-4.125,9.167-9.167v-2.114H22.833z"/>
	</g>
</g>
</svg>
