<?xml version="1.0" encoding="utf-8"?>
<!-- Generator: Adobe Illustrator 19.1.0, SVG Export Plug-In . SVG Version: 6.00 Build 0)  -->
<svg version="1.1" id="Layer_1" xmlns="http://www.w3.org/2000/svg" xmlns:xlink="http://www.w3.org/1999/xlink" x="0px" y="0px"
	 viewBox="0 0 64 64" enable-background="new 0 0 64 64" xml:space="preserve">
<g>
	<g>
		<g>
			<g>
				<g>
					<g>
						<g>
							
								<path fill="#5981C1" stroke="#4766B0" stroke-width="3" stroke-linecap="round" stroke-linejoin="round" stroke-miterlimit="10" d="
								M32,3.238c-16.474,0-29.875,10.427-29.875,23.244c0,6.344,3.268,12.284,9.205,16.728c0.558,0.42,0.885,1.077,0.883,1.775
								c-0.035,8.449,5.123,13.294,9.125,15.778c-1.286-6.165,2.003-9.619,3.776-10.984c0.47-0.36,1.06-0.523,1.65-0.435
								c1.863,0.259,3.576,0.383,5.235,0.383c16.473,0,29.875-10.426,29.875-23.244C61.875,13.664,48.473,3.238,32,3.238z"/>
						</g>
					</g>
				</g>
			</g>
		</g>
	</g>
	<g>
		<g>
			<g>
				<g>
					<g>
						
							<path fill="#8CAEDC" stroke="#4766B0" stroke-width="2" stroke-linecap="round" stroke-linejoin="round" stroke-miterlimit="10" d="
							M36.999,34.554h-9.998c-0.757,0-1.376,0.619-1.376,1.376l0,0c0,0.757,0.619,1.376,1.376,1.376h9.998
							c0.757,0,1.376-0.619,1.376-1.376l0,0C38.375,35.173,37.756,34.554,36.999,34.554z"/>
						
							<path fill="#8CAEDC" stroke="#4766B0" stroke-width="2" stroke-linecap="round" stroke-linejoin="round" stroke-miterlimit="10" d="
							M36.124,37.306h-8.248c-0.757,0-1.376,0.619-1.376,1.376v0c0,0.757,0.619,1.376,1.376,1.376h8.248
							c0.757,0,1.376-0.619,1.376-1.376v0C37.5,37.925,36.881,37.306,36.124,37.306z"/>
						
							<path fill="#8CAEDC" stroke="#4766B0" stroke-width="2" stroke-linecap="round" stroke-linejoin="round" stroke-miterlimit="10" d="
							M41,26.305c0-5.316-4.029-9.625-9-9.625s-9,4.309-9,9.625c0,3.507,1.76,6.567,4.381,8.249h9.239
							C39.24,32.872,41,29.812,41,26.305z"/>
						
							<polygon fill="#8CAEDC" stroke="#4766B0" stroke-width="2" stroke-linecap="round" stroke-linejoin="round" stroke-miterlimit="10" points="
							29.515,42.359 34.485,42.359 35.814,40.057 28.186,40.057 						"/>
						
							<polygon fill="#8CAEDC" stroke="#4766B0" stroke-width="2" stroke-linecap="round" stroke-linejoin="round" stroke-miterlimit="10" points="
							31.139,43.258 32.861,43.258 33.321,42.461 30.679,42.461 						"/>
					</g>
					<path fill="#8CAEDC" stroke="#4766B0" stroke-linecap="round" stroke-linejoin="round" stroke-miterlimit="10" d="
						M38.375,26.104c0-3.765-2.854-6.818-6.375-6.818"/>
					<path fill="#8CAEDC" stroke="#4766B0" stroke-linecap="round" stroke-linejoin="round" stroke-miterlimit="10" d="
						M25.625,26.104c0,2.484,1.246,4.651,3.103,5.843"/>
				</g>
				
					<circle fill="none" stroke="#4766B0" stroke-linecap="round" stroke-linejoin="round" stroke-miterlimit="10" cx="32" cy="25.617" r="2.027"/>
				
					<line fill="none" stroke="#4766B0" stroke-linecap="round" stroke-linejoin="round" stroke-miterlimit="10" x1="32" y1="34.554" x2="32" y2="27.644"/>
			</g>
			<g>
				
					<line fill="#8CAEDC" stroke="#4766B0" stroke-linecap="round" stroke-linejoin="round" stroke-miterlimit="10" x1="16.292" y1="25.617" x2="19.125" y2="25.617"/>
				
					<line fill="#8CAEDC" stroke="#4766B0" stroke-linecap="round" stroke-linejoin="round" stroke-miterlimit="10" x1="44.875" y1="25.617" x2="47.708" y2="25.617"/>
			</g>
			<g>
				
					<line fill="#8CAEDC" stroke="#4766B0" stroke-linecap="round" stroke-linejoin="round" stroke-miterlimit="10" x1="20.893" y1="36.725" x2="22.896" y2="34.721"/>
				
					<line fill="#8CAEDC" stroke="#4766B0" stroke-linecap="round" stroke-linejoin="round" stroke-miterlimit="10" x1="41.104" y1="16.513" x2="43.107" y2="14.51"/>
			</g>
			<g>
				
					<line fill="#8CAEDC" stroke="#4766B0" stroke-linecap="round" stroke-linejoin="round" stroke-miterlimit="10" x1="32" y1="12.742" x2="32" y2="9.909"/>
			</g>
			<g>
				
					<line fill="#8CAEDC" stroke="#4766B0" stroke-linecap="round" stroke-linejoin="round" stroke-miterlimit="10" x1="43.107" y1="36.725" x2="41.104" y2="34.721"/>
				
					<line fill="#8CAEDC" stroke="#4766B0" stroke-linecap="round" stroke-linejoin="round" stroke-miterlimit="10" x1="22.896" y1="16.513" x2="20.893" y2="14.51"/>
			</g>
		</g>
	</g>
</g>
</svg>
