<?xml version="1.0" encoding="utf-8"?>
<!-- Generator: Adobe Illustrator 19.1.0, SVG Export Plug-In . SVG Version: 6.00 Build 0)  -->
<svg version="1.1" id="Layer_1" xmlns="http://www.w3.org/2000/svg" xmlns:xlink="http://www.w3.org/1999/xlink" x="0px" y="0px"
	 viewBox="0 0 64 64" enable-background="new 0 0 64 64" xml:space="preserve">
<g>
	
		<line fill="#8CAEDC" stroke="#4766B0" stroke-width="3" stroke-linecap="round" stroke-linejoin="round" stroke-miterlimit="10" x1="3.542" y1="59.792" x2="60.458" y2="59.792"/>
	
		<rect x="28.125" y="4.208" fill="#8CAEDC" stroke="#4766B0" stroke-width="2" stroke-linecap="round" stroke-linejoin="round" stroke-miterlimit="10" width="7.75" height="55.583"/>
	
		<polygon fill="#5981C1" stroke="#4766B0" stroke-width="2" stroke-linecap="round" stroke-linejoin="round" stroke-miterlimit="10" points="
		14.25,38.125 9.75,32 14.25,25.875 49.75,25.875 49.75,38.125 	"/>
	
		<polygon fill="#8CAEDC" stroke="#4766B0" stroke-width="2" stroke-linecap="round" stroke-linejoin="round" stroke-miterlimit="10" points="
		49.75,8.375 54.25,14.5 49.75,20.625 14.25,20.625 14.25,8.375 	"/>
	
		<polyline fill="none" stroke="#4766B0" stroke-width="2" stroke-linecap="round" stroke-linejoin="round" stroke-miterlimit="10" points="
		39.255,56 37.565,57.896 35.875,59.792 34.185,57.896 32.495,56 	"/>
	
		<polyline fill="none" stroke="#4766B0" stroke-width="2" stroke-linecap="round" stroke-linejoin="round" stroke-miterlimit="10" points="
		18.261,56 16.571,57.896 14.881,59.792 13.191,57.896 11.501,56 	"/>
	
		<polyline fill="none" stroke="#4766B0" stroke-width="2" stroke-linecap="round" stroke-linejoin="round" stroke-miterlimit="10" points="
		54.413,56 52.723,57.896 51.032,59.792 49.342,57.896 47.652,56 	"/>
	
		<line fill="#8CAEDC" stroke="#4766B0" stroke-width="2" stroke-linecap="round" stroke-linejoin="round" stroke-miterlimit="10" x1="18.562" y1="12.782" x2="30.812" y2="12.782"/>
	
		<line fill="#8CAEDC" stroke="#4766B0" stroke-width="2" stroke-linecap="round" stroke-linejoin="round" stroke-miterlimit="10" x1="18.562" y1="16.218" x2="40.25" y2="16.218"/>
	
		<line fill="#8CAEDC" stroke="#4766B0" stroke-width="2" stroke-linecap="round" stroke-linejoin="round" stroke-miterlimit="10" x1="18.562" y1="30.282" x2="30.812" y2="30.282"/>
	
		<line fill="#8CAEDC" stroke="#4766B0" stroke-width="2" stroke-linecap="round" stroke-linejoin="round" stroke-miterlimit="10" x1="18.562" y1="33.718" x2="40.25" y2="33.718"/>
	
		<line fill="#8CAEDC" stroke="#4766B0" stroke-width="2" stroke-linecap="round" stroke-linejoin="round" stroke-miterlimit="10" x1="34.25" y1="30.282" x2="43.125" y2="30.282"/>
</g>
</svg>
