<?xml version="1.0" encoding="utf-8"?>
<!-- Generator: Adobe Illustrator 19.1.0, SVG Export Plug-In . SVG Version: 6.00 Build 0)  -->
<svg version="1.1" id="Layer_1" xmlns="http://www.w3.org/2000/svg" xmlns:xlink="http://www.w3.org/1999/xlink" x="0px" y="0px"
	 viewBox="0 0 64 64" enable-background="new 0 0 64 64" xml:space="preserve">
<g>
	<g>
		<g>
			<g>
				<g>
					<g>
						<g>
							
								<path fill="#5981C1" stroke="#4766B0" stroke-width="3" stroke-linecap="round" stroke-linejoin="round" stroke-miterlimit="10" d="
								M32,3.238c-16.474,0-29.875,10.427-29.875,23.244c0,6.344,3.268,12.284,9.205,16.728c0.558,0.42,0.885,1.077,0.883,1.775
								c-0.035,8.449,5.123,13.294,9.125,15.778c-1.286-6.165,2.003-9.619,3.776-10.984c0.47-0.36,1.06-0.523,1.65-0.435
								c1.863,0.259,3.576,0.383,5.235,0.383c16.473,0,29.875-10.426,29.875-23.244C61.875,13.664,48.473,3.238,32,3.238z"/>
						</g>
					</g>
				</g>
			</g>
		</g>
	</g>
	<g>
		
			<circle fill="#8CAEDC" stroke="#4766B0" stroke-width="2" stroke-linecap="round" stroke-linejoin="round" stroke-miterlimit="10" cx="33.145" cy="26.604" r="3.916"/>
		
			<line fill="#8CAEDC" stroke="#4766B0" stroke-width="2" stroke-linecap="round" stroke-linejoin="round" stroke-miterlimit="10" x1="29.282" y1="27.237" x2="22.213" y2="28.395"/>
		
			<line fill="#8CAEDC" stroke="#4766B0" stroke-width="2" stroke-linecap="round" stroke-linejoin="round" stroke-miterlimit="10" x1="24.992" y1="18.504" x2="30.367" y2="23.844"/>
		
			<line fill="#8CAEDC" stroke="#4766B0" stroke-width="2" stroke-linecap="round" stroke-linejoin="round" stroke-miterlimit="10" x1="42.373" y1="17.329" x2="35.923" y2="23.844"/>
		
			<line fill="#8CAEDC" stroke="#4766B0" stroke-width="2" stroke-linecap="round" stroke-linejoin="round" stroke-miterlimit="10" x1="35.603" y1="29.652" x2="39.408" y2="34.368"/>
		
			<line fill="#8CAEDC" stroke="#4766B0" stroke-width="2" stroke-linecap="round" stroke-linejoin="round" stroke-miterlimit="10" x1="30.471" y1="29.462" x2="25.437" y2="34.84"/>
		
			<circle fill="#8CAEDC" stroke="#4766B0" stroke-linecap="round" stroke-linejoin="round" stroke-miterlimit="10" cx="23.52" cy="17.042" r="2.075"/>
		
			<circle fill="#8CAEDC" stroke="#4766B0" stroke-linecap="round" stroke-linejoin="round" stroke-miterlimit="10" cx="43.833" cy="15.854" r="2.075"/>
		
			<circle fill="#8CAEDC" stroke="#4766B0" stroke-linecap="round" stroke-linejoin="round" stroke-miterlimit="10" cx="40.708" cy="35.979" r="2.075"/>
		
			<circle fill="#8CAEDC" stroke="#4766B0" stroke-linecap="round" stroke-linejoin="round" stroke-miterlimit="10" cx="24.02" cy="36.354" r="2.075"/>
		
			<circle fill="#8CAEDC" stroke="#4766B0" stroke-linecap="round" stroke-linejoin="round" stroke-miterlimit="10" cx="20.167" cy="28.729" r="2.075"/>
	</g>
</g>
</svg>
