<?xml version="1.0" encoding="utf-8"?>
<!-- Generator: Adobe Illustrator 19.1.0, SVG Export Plug-In . SVG Version: 6.00 Build 0)  -->
<svg version="1.1" id="Layer_1" xmlns="http://www.w3.org/2000/svg" xmlns:xlink="http://www.w3.org/1999/xlink" x="0px" y="0px"
	 viewBox="0 0 64 64" enable-background="new 0 0 64 64" xml:space="preserve">
<g>
	
		<rect x="11.057" y="15.579" transform="matrix(0.7071 -0.7071 0.7071 0.7071 -10.1068 33.6119)" fill="#8CAEDC" stroke="#4766B0" stroke-width="3" stroke-linecap="round" stroke-linejoin="round" stroke-miterlimit="10" width="48.926" height="26.854"/>
	
		<ellipse transform="matrix(0.7071 -0.7071 0.7071 0.7071 -10.1068 33.6119)" fill="#5981C1" stroke="#4766B0" stroke-width="2" stroke-linecap="round" stroke-linejoin="round" stroke-miterlimit="10" cx="35.52" cy="29.006" rx="11.765" ry="8.363"/>
	
		<rect x="1.688" y="26.88" fill="#8CAEDC" stroke="#4766B0" stroke-width="3" stroke-linecap="round" stroke-linejoin="round" stroke-miterlimit="10" width="48.926" height="34.906"/>
	
		<rect x="1.688" y="32.703" fill="none" stroke="#4766B0" stroke-width="2" stroke-linecap="round" stroke-linejoin="round" stroke-miterlimit="10" stroke-dasharray="4,5" width="48.926" height="23.26"/>
	
		<rect x="42.609" y="38.622" fill="#5981C1" stroke="#4766B0" stroke-width="3" stroke-linecap="round" stroke-linejoin="round" stroke-miterlimit="10" width="16.01" height="11.422"/>
	
		<circle fill="#8CAEDC" stroke="#4766B0" stroke-linecap="round" stroke-linejoin="round" stroke-miterlimit="10" cx="47.021" cy="44.333" r="1.333"/>
	<path fill="none" stroke="#4766B0" stroke-width="2" stroke-miterlimit="10" d="M37.381,8.154c1.521,1.521,3.622,2.462,5.942,2.462
		c2.32,0,4.421-0.94,5.941-2.461"/>
	<path fill="none" stroke="#4766B0" stroke-width="2" stroke-miterlimit="10" d="M56.211,15.1c-1.521,1.521-2.462,3.622-2.462,5.942
		c0,2.32,0.94,4.421,2.461,5.941"/>
</g>
<line fill="#8CAEDC" stroke="#4766B0" stroke-width="2" stroke-linecap="round" stroke-linejoin="round" stroke-miterlimit="10" x1="38.25" y1="47.375" x2="38.25" y2="41.292"/>
</svg>
