<?xml version="1.0" encoding="utf-8"?>
<!-- Generator: Adobe Illustrator 19.1.0, SVG Export Plug-In . SVG Version: 6.00 Build 0)  -->
<svg version="1.1" id="Layer_1" xmlns="http://www.w3.org/2000/svg" xmlns:xlink="http://www.w3.org/1999/xlink" x="0px" y="0px"
	 viewBox="0 0 64 64" enable-background="new 0 0 64 64" xml:space="preserve">
<g>
	
		<path fill="#8CAEDC" stroke="#4766B0" stroke-width="3" stroke-linecap="round" stroke-linejoin="round" stroke-miterlimit="10" d="
		M37.004,54.26l2.166,2.166c4.765,4.765,12.491,4.765,17.256,0s4.765-12.491,0-17.256l-2.166-2.166L26.996,9.74L24.83,7.574
		c-4.765-4.765-12.491-4.765-17.256,0c-4.765,4.765-4.765,12.491,0,17.256l2.166,2.166L37.004,54.26z"/>
	
		<path fill="#5981C1" stroke="#4766B0" stroke-width="3" stroke-linecap="round" stroke-linejoin="round" stroke-miterlimit="10" d="
		M7.574,56.426L7.574,56.426c-4.765-4.765-4.765-12.491,0-17.256L39.17,7.574c4.765-4.765,12.491-4.765,17.256,0l0,0
		c4.765,4.765,4.765,12.491,0,17.256L24.83,56.426C20.065,61.192,12.339,61.192,7.574,56.426z"/>
	<g>
		<circle fill="#4766B0" cx="31.939" cy="24" r="1.679"/>
		<circle fill="#4766B0" cx="35.97" cy="28.03" r="1.679"/>
		<circle fill="#4766B0" cx="40" cy="32.061" r="1.679"/>
	</g>
	<g>
		<circle fill="#4766B0" cx="27.969" cy="27.969" r="1.679"/>
		<circle fill="#4766B0" cx="32" cy="32" r="1.679"/>
		<circle fill="#4766B0" cx="36.031" cy="36.031" r="1.679"/>
	</g>
	<g>
		<circle fill="#4766B0" cx="24" cy="31.939" r="1.679"/>
		<circle fill="#4766B0" cx="28.03" cy="35.97" r="1.679"/>
		<circle fill="#4766B0" cx="32.061" cy="40" r="1.679"/>
	</g>
</g>
</svg>
