<?xml version="1.0" encoding="utf-8"?>
<!-- Generator: Adobe Illustrator 19.1.0, SVG Export Plug-In . SVG Version: 6.00 Build 0)  -->
<svg version="1.1" id="Layer_1" xmlns="http://www.w3.org/2000/svg" xmlns:xlink="http://www.w3.org/1999/xlink" x="0px" y="0px"
	 viewBox="0 0 64 64" enable-background="new 0 0 64 64" xml:space="preserve">
<g>
	
		<path fill="#5981C1" stroke="#4766B0" stroke-width="3" stroke-linecap="round" stroke-linejoin="round" stroke-miterlimit="10" d="
		M34.444,4.327c1.151,0,2.084,12.39,2.084,27.673s-0.933,27.673-2.084,27.673"/>
	
		<path fill="#4A72B8" stroke="#4766B0" stroke-width="3" stroke-linecap="round" stroke-linejoin="round" stroke-miterlimit="10" d="
		M12.489,19.379h-2.69c-2.605,0-4.737,2.132-4.737,4.737v15.767c0,2.605,2.132,4.737,4.737,4.737h2.69"/>
	<path fill="none" stroke="#4766B0" stroke-width="3" stroke-linecap="round" stroke-linejoin="round" stroke-miterlimit="10" d="
		M43.1,43.964c4.056-2.44,6.769-6.885,6.769-11.964c0-5.079-2.714-9.525-6.772-11.965"/>
	
		<path fill="#5981C1" stroke="#4766B0" stroke-width="3" stroke-linecap="round" stroke-linejoin="round" stroke-miterlimit="10" d="
		M36.528,32c0-15.271-0.932-27.651-2.081-27.671c-9.577,0.014-17.86,6.13-21.957,15.051c-0.147,3.787-0.231,8.07-0.231,12.621
		s0.084,8.834,0.231,12.621c4.097,8.921,12.38,15.037,21.957,15.051C35.596,59.651,36.528,47.271,36.528,32z"/>
	<path fill="none" stroke="#4766B0" stroke-width="3" stroke-linecap="round" stroke-linejoin="round" stroke-miterlimit="10" d="
		M49.628,50.494c5.649-4.195,9.31-10.917,9.31-18.494s-3.661-14.299-9.31-18.494"/>
</g>
</svg>
