<?xml version="1.0" encoding="utf-8"?>
<!-- Generator: Adobe Illustrator 19.1.0, SVG Export Plug-In . SVG Version: 6.00 Build 0)  -->
<svg version="1.1" id="Layer_1" xmlns="http://www.w3.org/2000/svg" xmlns:xlink="http://www.w3.org/1999/xlink" x="0px" y="0px"
	 viewBox="0 0 64 64" enable-background="new 0 0 64 64" xml:space="preserve">
<g>
	<g>
		
			<path fill="#5981C1" stroke="#4766B0" stroke-width="3" stroke-linecap="round" stroke-linejoin="round" stroke-miterlimit="10" d="
			M24.392,15.552L9.044,30.9c-6.871,6.871-7.26,17.621-0.87,24.011c6.39,6.39,17.14,6.001,24.011-0.87l15.348-15.348L24.392,15.552z
			"/>
		
			<path fill="#4A72B8" stroke="#4766B0" stroke-width="3" stroke-linecap="round" stroke-linejoin="round" stroke-miterlimit="10" d="
			M47.621,38.605c6.871-6.871,7.26-17.621,0.87-24.011l0,0c-6.39-6.39-17.14-6.001-24.011,0.87l-0.088,0.088l23.141,23.141
			L47.621,38.605z"/>
	</g>
	<path fill="#8CAEDC" stroke="#4766B0" stroke-linecap="round" stroke-linejoin="round" stroke-miterlimit="10" d="M33.743,29.342
		L33.743,29.342c-0.759-0.759-0.759-2,0-2.758l3.342-3.342c0.759-0.759,2-0.759,2.758,0l0,0c0.759,0.759,0.759,2,0,2.758
		l-3.342,3.342C35.743,30.1,34.502,30.1,33.743,29.342z"/>
	
		<line fill="#8CAEDC" stroke="#4766B0" stroke-linecap="round" stroke-linejoin="round" stroke-miterlimit="10" x1="48.49" y1="14.594" x2="39.843" y2="23.242"/>
	<path fill="none" stroke="#4766B0" stroke-width="3" stroke-linecap="round" stroke-linejoin="round" stroke-miterlimit="10" d="
		M49.157,13.927c0,0,6.713-1.516,5.456-5.456c-1.574-4.938,5.761-3.823,5.761-3.823"/>
</g>
</svg>
