<?xml version="1.0" encoding="utf-8"?>
<!-- Generator: Adobe Illustrator 19.1.0, SVG Export Plug-In . SVG Version: 6.00 Build 0)  -->
<svg version="1.1" id="Layer_1" xmlns="http://www.w3.org/2000/svg" xmlns:xlink="http://www.w3.org/1999/xlink" x="0px" y="0px"
	 viewBox="0 0 64 64" enable-background="new 0 0 64 64" xml:space="preserve">
<g>
	
		<path fill="#8CAEDC" stroke="#4766B0" stroke-width="3" stroke-linecap="round" stroke-linejoin="round" stroke-miterlimit="10" d="
		M16.133,37.518c-5.811,0-10.522,4.711-10.522,10.522s4.711,10.522,10.522,10.522V37.518z"/>
	<path fill="none" stroke="#4766B0" stroke-width="3" stroke-linecap="round" stroke-linejoin="round" stroke-miterlimit="10" d="
		M5.5,48.04V31.938c0-14.636,11.864-26.5,26.5-26.5s26.5,11.864,26.5,26.5V48.04"/>
	
		<path fill="#4A72B8" stroke="#4766B0" stroke-width="2" stroke-linecap="round" stroke-linejoin="round" stroke-miterlimit="10" d="
		M58.5,34.421c0-12.379-11.864-22.414-26.5-22.414S5.5,22.042,5.5,34.421v-2.483c0-14.636,11.864-26.5,26.5-26.5
		s26.5,11.864,26.5,26.5V34.421z"/>
	
		<line fill="none" stroke="#4766B0" stroke-width="3" stroke-linecap="round" stroke-linejoin="round" stroke-miterlimit="10" x1="20.435" y1="37.518" x2="20.435" y2="58.562"/>
	
		<path fill="#8CAEDC" stroke="#4766B0" stroke-width="3" stroke-linecap="round" stroke-linejoin="round" stroke-miterlimit="10" d="
		M47.978,58.562c5.811,0,10.522-4.711,10.522-10.522s-4.711-10.522-10.522-10.522V58.562z"/>
	
		<line fill="none" stroke="#4766B0" stroke-width="3" stroke-linecap="round" stroke-linejoin="round" stroke-miterlimit="10" x1="43.676" y1="58.562" x2="43.676" y2="37.518"/>
</g>
</svg>
