<?xml version="1.0" encoding="utf-8"?>
<!-- Generator: Adobe Illustrator 19.1.0, SVG Export Plug-In . SVG Version: 6.00 Build 0)  -->
<svg version="1.1" id="Layer_1" xmlns="http://www.w3.org/2000/svg" xmlns:xlink="http://www.w3.org/1999/xlink" x="0px" y="0px"
	 viewBox="0 0 64 64" enable-background="new 0 0 64 64" xml:space="preserve">
<g>
	
		<path fill="#4A72B8" stroke="#4766B0" stroke-width="3" stroke-linecap="round" stroke-linejoin="round" stroke-miterlimit="10" d="
		M10.548,19.379h-2.69c-2.605,0-4.737,2.132-4.737,4.737v15.767c0,2.605,2.132,4.737,4.737,4.737h2.69"/>
	
		<path fill="#5981C1" stroke="#4766B0" stroke-width="3" stroke-linecap="round" stroke-linejoin="round" stroke-miterlimit="10" d="
		M34.587,32c0-15.271-0.932-27.651-2.081-27.671c-9.577,0.014-17.86,6.13-21.957,15.051c-0.147,3.787-0.231,8.07-0.231,12.621
		s0.084,8.834,0.231,12.621c4.097,8.921,12.38,15.037,21.957,15.051C33.655,59.651,34.587,47.271,34.587,32z"/>
	<g>
		
			<circle fill="none" stroke="#4766B0" stroke-width="3" stroke-linecap="round" stroke-linejoin="round" stroke-miterlimit="10" cx="51.598" cy="32" r="9.281"/>
		
			<line fill="none" stroke="#4766B0" stroke-width="3" stroke-linecap="round" stroke-linejoin="round" stroke-miterlimit="10" x1="44.935" y1="38.209" x2="58.383" y2="25.667"/>
	</g>
</g>
</svg>
