<?xml version="1.0" encoding="utf-8"?>
<!-- Generator: Adobe Illustrator 19.1.0, SVG Export Plug-In . SVG Version: 6.00 Build 0)  -->
<svg version="1.1" id="Layer_1" xmlns="http://www.w3.org/2000/svg" xmlns:xlink="http://www.w3.org/1999/xlink" x="0px" y="0px"
	 viewBox="0 0 64 64" enable-background="new 0 0 64 64" xml:space="preserve">
<g>
	<g>
		
			<path fill="#5981C1" stroke="#4766B0" stroke-width="3" stroke-linecap="round" stroke-linejoin="round" stroke-miterlimit="10" d="
			M52.823,41.017h0.227c4.501,0,8.183-3.682,8.183-8.183c0,0,2.945-4.908-23.149-4.908H4.221H2.667v4.908
			c0,4.386,3.497,7.995,7.84,8.176l8.437,0.007h25.439"/>
		
			<circle fill="#4A72B8" stroke="#4766B0" stroke-width="3" stroke-linecap="round" stroke-linejoin="round" stroke-miterlimit="10" cx="48.602" cy="41.017" r="4.219"/>
		
			<line fill="#8CAEDC" stroke="#4766B0" stroke-width="2" stroke-linecap="round" stroke-linejoin="round" stroke-miterlimit="10" x1="35.713" y1="32.341" x2="38.412" y2="32.341"/>
		
			<circle fill="#4A72B8" stroke="#4766B0" stroke-width="3" stroke-linecap="round" stroke-linejoin="round" stroke-miterlimit="10" cx="14.725" cy="41.017" r="4.219"/>
		
			<line fill="#8CAEDC" stroke="#4766B0" stroke-width="2" stroke-linecap="round" stroke-linejoin="round" stroke-miterlimit="10" x1="20.253" y1="32.341" x2="17.554" y2="32.341"/>
		
			<path fill="#8CAEDC" stroke="#4766B0" stroke-width="3" stroke-linecap="round" stroke-linejoin="round" stroke-miterlimit="10" d="
			M2.667,27.926v-0.978c0-4.501,3.682-8.183,8.183-8.183h0.227h23.899l9.155,9.155L2.667,27.926z"/>
	</g>
	
		<line fill="#5981C1" stroke="#4766B0" stroke-width="3" stroke-linecap="round" stroke-linejoin="round" stroke-miterlimit="10" x1="8.257" y1="40.592" x2="2.667" y2="40.592"/>
	
		<line fill="#5981C1" stroke="#4766B0" stroke-width="3" stroke-linecap="round" stroke-linejoin="round" stroke-miterlimit="10" x1="53.288" y1="41.017" x2="61.333" y2="41.017"/>
</g>
</svg>
