<?xml version="1.0" encoding="utf-8"?>
<!-- Generator: Adobe Illustrator 19.1.0, SVG Export Plug-In . SVG Version: 6.00 Build 0)  -->
<svg version="1.1" id="Layer_1" xmlns="http://www.w3.org/2000/svg" xmlns:xlink="http://www.w3.org/1999/xlink" x="0px" y="0px"
	 viewBox="0 0 64 64" enable-background="new 0 0 64 64" xml:space="preserve">
<g>
	<g>
		
			<path fill="#4A72B8" stroke="#4766B0" stroke-width="2" stroke-linecap="round" stroke-linejoin="round" stroke-miterlimit="10" d="
			M1.825,31.456L1.825,31.456c1.513,0,2.75,1.237,2.75,2.75v17.667c0,1.513-1.237,2.75-2.75,2.75h0V31.456z"/>
		
			<rect x="10.65" y="35.997" transform="matrix(0.7071 -0.7071 0.7071 0.7071 -21.0097 24.6052)" fill="#5981C1" stroke="#4766B0" stroke-linecap="round" stroke-linejoin="round" stroke-miterlimit="10" width="17.092" height="3.333"/>
		
			<rect x="4.575" y="42.261" fill="#5981C1" stroke="#4766B0" stroke-linecap="round" stroke-linejoin="round" stroke-miterlimit="10" width="8.332" height="3.333"/>
		
			<circle fill="#8CAEDC" stroke="#4766B0" stroke-linecap="round" stroke-linejoin="round" stroke-miterlimit="10" cx="12.907" cy="43.928" r="2.417"/>
		<g>
			
				<rect x="50.215" y="27.112" transform="matrix(0.9501 0.3119 -0.3119 0.9501 12.9244 -14.7107)" fill="#4A72B8" stroke="#4766B0" stroke-width="3" stroke-linecap="round" stroke-linejoin="round" stroke-miterlimit="10" width="4.473" height="11.874"/>
			
				<rect x="10.006" y="19.189" transform="matrix(0.9501 0.3119 -0.3119 0.9501 9.809 -8.2377)" fill="#8CAEDC" stroke="#4766B0" stroke-width="2" stroke-linecap="round" stroke-linejoin="round" stroke-miterlimit="10" width="41.303" height="14.715"/>
			<g>
				
					<polygon fill="#5981C1" stroke="#4766B0" stroke-width="3" stroke-linecap="round" stroke-linejoin="round" stroke-miterlimit="10" points="
					62.175,25.009 14.558,9.377 12.644,15.206 11.839,17.66 10.831,20.728 33.948,28.317 37.723,26.158 53.919,31.474 				"/>
				<g>
					
						<circle fill="#8CAEDC" stroke="#4766B0" stroke-linecap="round" stroke-linejoin="round" stroke-miterlimit="10" cx="17.643" cy="16.677" r="1.42"/>
					
						<circle fill="#8CAEDC" stroke="#4766B0" stroke-linecap="round" stroke-linejoin="round" stroke-miterlimit="10" cx="22.159" cy="18.16" r="1.42"/>
					
						<circle fill="#8CAEDC" stroke="#4766B0" stroke-linecap="round" stroke-linejoin="round" stroke-miterlimit="10" cx="26.675" cy="19.642" r="1.42"/>
				</g>
			</g>
			
				<line fill="#5981C1" stroke="#4766B0" stroke-linecap="round" stroke-linejoin="round" stroke-miterlimit="10" x1="38.947" y1="33.408" x2="45.591" y2="35.589"/>
		</g>
	</g>
	<path fill="none" stroke="#4766B0" stroke-linecap="round" stroke-linejoin="round" stroke-miterlimit="10" d="M11.839,17.66
		c-3.144-2.55-6.974,0.704-7.727,3.942c-0.64,2.752,0.685,5.116,2.335,7.203c1.621,2.049,4.887,5.301,1.127,7.174
		c-0.928,0.462-1.979,0.603-3.007,0.737"/>
</g>
</svg>
