<?xml version="1.0" encoding="utf-8"?>
<!-- Generator: Adobe Illustrator 19.1.0, SVG Export Plug-In . SVG Version: 6.00 Build 0)  -->
<svg version="1.1" id="Layer_1" xmlns="http://www.w3.org/2000/svg" xmlns:xlink="http://www.w3.org/1999/xlink" x="0px" y="0px"
	 viewBox="0 0 64 64" enable-background="new 0 0 64 64" xml:space="preserve">
<g>
	
		<circle fill="none" stroke="#4766B0" stroke-width="3" stroke-linecap="round" stroke-linejoin="round" stroke-miterlimit="10" cx="32" cy="19.521" r="14.12"/>
	
		<polygon fill="#8CAEDC" stroke="#4766B0" stroke-width="3" stroke-linecap="round" stroke-linejoin="round" stroke-miterlimit="10" points="
		5.009,22.833 5.009,22.138 4.846,22.138 7.707,34.292 7.707,34.292 	"/>
	
		<polygon fill="#8CAEDC" stroke="#4766B0" stroke-width="3" stroke-linecap="round" stroke-linejoin="round" stroke-miterlimit="10" points="
		41.106,34.292 41.106,22.138 32,22.138 23.058,22.138 23.058,34.292 	"/>
	
		<polygon fill="#5981C1" stroke="#4766B0" stroke-width="3" stroke-linecap="round" stroke-linejoin="round" stroke-miterlimit="10" points="
		10.567,46.445 13.428,58.598 10.567,46.445 	"/>
	
		<polygon fill="#5981C1" stroke="#4766B0" stroke-width="3" stroke-linecap="round" stroke-linejoin="round" stroke-miterlimit="10" points="
		23.058,46.445 23.058,58.598 32,58.598 41.106,58.598 41.106,46.445 	"/>
	
		<polygon fill="#8CAEDC" stroke="#4766B0" stroke-width="3" stroke-linecap="round" stroke-linejoin="round" stroke-miterlimit="10" points="
		7.707,34.292 23.058,34.292 23.058,22.138 5.009,22.138 5.009,22.833 	"/>
	
		<polygon fill="#5981C1" stroke="#4766B0" stroke-width="3" stroke-linecap="round" stroke-linejoin="round" stroke-miterlimit="10" points="
		10.567,46.445 13.428,58.598 23.058,58.598 23.058,46.445 	"/>
	
		<polygon fill="#8CAEDC" stroke="#4766B0" stroke-width="3" stroke-linecap="round" stroke-linejoin="round" stroke-miterlimit="10" points="
		41.106,22.138 41.106,34.292 56.293,34.292 59.154,22.138 	"/>
	
		<polygon fill="#5981C1" stroke="#4766B0" stroke-width="3" stroke-linecap="round" stroke-linejoin="round" stroke-miterlimit="10" points="
		41.106,58.598 50.572,58.598 53.433,46.445 41.106,46.445 	"/>
	
		<rect x="9.137" y="34.126" fill="#5981C1" stroke="#4766B0" stroke-width="3" stroke-linecap="round" stroke-linejoin="round" stroke-miterlimit="10" width="0" height="12.485"/>
	
		<rect x="23.058" y="34.292" fill="#5981C1" stroke="#4766B0" stroke-width="3" stroke-linecap="round" stroke-linejoin="round" stroke-miterlimit="10" width="18.048" height="12.153"/>
	
		<polygon fill="#5981C1" stroke="#4766B0" stroke-width="3" stroke-linecap="round" stroke-linejoin="round" stroke-miterlimit="10" points="
		7.707,34.292 10.567,46.445 23.058,46.445 23.058,34.292 	"/>
	
		<polygon fill="#5981C1" stroke="#4766B0" stroke-width="3" stroke-linecap="round" stroke-linejoin="round" stroke-miterlimit="10" points="
		41.106,46.445 53.433,46.445 56.293,34.292 41.106,34.292 	"/>
	
		<path fill="#8CAEDC" stroke="#4766B0" stroke-width="3" stroke-linecap="round" stroke-linejoin="round" stroke-miterlimit="10" d="
		M59.236,24.756H4.764c-1.44,0-2.617-1.178-2.617-2.617v0c0-1.44,1.178-2.617,2.617-2.617h54.472c1.44,0,2.617,1.178,2.617,2.617v0
		C61.853,23.578,60.675,24.756,59.236,24.756z"/>
</g>
</svg>
