<?xml version="1.0" encoding="utf-8"?>
<!-- Generator: Adobe Illustrator 19.1.0, SVG Export Plug-In . SVG Version: 6.00 Build 0)  -->
<svg version="1.1" id="Layer_1" xmlns="http://www.w3.org/2000/svg" xmlns:xlink="http://www.w3.org/1999/xlink" x="0px" y="0px"
	 viewBox="0 0 64 64" enable-background="new 0 0 64 64" xml:space="preserve">
<g>
	
		<rect x="3.5" y="13.194" fill="#8CAEDC" stroke="#4766B0" stroke-width="3" stroke-linecap="round" stroke-linejoin="round" stroke-miterlimit="10" width="57" height="37.612"/>
	
		<rect x="49.165" y="17.895" fill="#5981C1" stroke="#4766B0" stroke-width="2" stroke-linecap="round" stroke-linejoin="round" stroke-miterlimit="10" width="6.985" height="6.985"/>
	<g>
		
			<line fill="#8CAEDC" stroke="#4766B0" stroke-width="2" stroke-linecap="round" stroke-linejoin="round" stroke-miterlimit="10" x1="32.083" y1="17.895" x2="32.083" y2="46.105"/>
		
			<line fill="#8CAEDC" stroke="#4766B0" stroke-width="2" stroke-linecap="round" stroke-linejoin="round" stroke-miterlimit="10" x1="9.142" y1="21.724" x2="27.447" y2="21.724"/>
		
			<line fill="#8CAEDC" stroke="#4766B0" stroke-width="2" stroke-linecap="round" stroke-linejoin="round" stroke-miterlimit="10" x1="36.553" y1="32.883" x2="54.858" y2="32.883"/>
		
			<line fill="#8CAEDC" stroke="#4766B0" stroke-width="2" stroke-linecap="round" stroke-linejoin="round" stroke-miterlimit="10" x1="36.553" y1="38.463" x2="54.858" y2="38.463"/>
		
			<line fill="#8CAEDC" stroke="#4766B0" stroke-width="2" stroke-linecap="round" stroke-linejoin="round" stroke-miterlimit="10" x1="36.553" y1="44.043" x2="54.858" y2="44.043"/>
		
			<line fill="#8CAEDC" stroke="#4766B0" stroke-width="2" stroke-linecap="round" stroke-linejoin="round" stroke-miterlimit="10" x1="9.142" y1="27.303" x2="25.279" y2="27.303"/>
		
			<line fill="#8CAEDC" stroke="#4766B0" stroke-width="2" stroke-linecap="round" stroke-linejoin="round" stroke-miterlimit="10" x1="9.142" y1="32.883" x2="22.75" y2="32.883"/>
		
			<line fill="#8CAEDC" stroke="#4766B0" stroke-width="2" stroke-linecap="round" stroke-linejoin="round" stroke-miterlimit="10" x1="9.142" y1="38.463" x2="17.211" y2="38.463"/>
	</g>
	<g>
		<g>
			<path fill="none" d="M42.532,19.902c1.686,0,1.686,0.894,3.371,0.894c1.688,0,1.688-0.894,3.377-0.894
				c1.688,0,1.688,0.894,3.377,0.894"/>
			<path fill="none" stroke="#4766B0" stroke-linecap="round" stroke-linejoin="round" stroke-miterlimit="10" d="M42.532,19.902
				c1.686,0,1.686,0.894,3.371,0.894c1.688,0,1.688-0.894,3.377-0.894c1.688,0,1.688,0.894,3.377,0.894"/>
		</g>
		<g>
			<path fill="none" d="M42.532,21.391c1.686,0,1.686,0.894,3.371,0.894c1.688,0,1.688-0.894,3.377-0.894
				c1.688,0,1.688,0.894,3.377,0.894"/>
			<path fill="none" stroke="#4766B0" stroke-linecap="round" stroke-linejoin="round" stroke-miterlimit="10" d="M42.532,21.391
				c1.686,0,1.686,0.894,3.371,0.894c1.688,0,1.688-0.894,3.377-0.894c1.688,0,1.688,0.894,3.377,0.894"/>
		</g>
	</g>
</g>
</svg>
