<?xml version="1.0" encoding="utf-8"?>
<!-- Generator: Adobe Illustrator 19.1.0, SVG Export Plug-In . SVG Version: 6.00 Build 0)  -->
<svg version="1.1" id="Layer_1" xmlns="http://www.w3.org/2000/svg" xmlns:xlink="http://www.w3.org/1999/xlink" x="0px" y="0px"
	 viewBox="0 0 64 64" enable-background="new 0 0 64 64" xml:space="preserve">
<g>
	
		<rect x="4" y="13.643" fill="#8CAEDC" stroke="#4766B0" stroke-width="3" stroke-linecap="round" stroke-linejoin="round" stroke-miterlimit="10" width="56" height="45.805"/>
	
		<rect x="4" y="4.552" fill="#5981C1" stroke="#4766B0" stroke-width="3" stroke-linecap="round" stroke-linejoin="round" stroke-miterlimit="10" width="56" height="9.091"/>
	<g>
		
			<circle fill="#8CAEDC" stroke="#4766B0" stroke-linecap="round" stroke-linejoin="round" stroke-miterlimit="10" cx="9.284" cy="9.098" r="1.003"/>
		
			<circle fill="#8CAEDC" stroke="#4766B0" stroke-linecap="round" stroke-linejoin="round" stroke-miterlimit="10" cx="13.07" cy="9.098" r="1.003"/>
		
			<circle fill="#8CAEDC" stroke="#4766B0" stroke-linecap="round" stroke-linejoin="round" stroke-miterlimit="10" cx="16.856" cy="9.098" r="1.003"/>
	</g>
	<g>
		
			<circle fill="#5981C1" stroke="#4766B0" stroke-width="2" stroke-linecap="round" stroke-linejoin="round" stroke-miterlimit="10" cx="32" cy="41.304" r="12.907"/>
		<g>
			
				<circle fill="#8CAEDC" stroke="#4766B0" stroke-linecap="round" stroke-linejoin="round" stroke-miterlimit="10" cx="32" cy="41.304" r="10.083"/>
		</g>
		<path fill="none" stroke="#4766B0" stroke-linecap="round" stroke-linejoin="round" stroke-miterlimit="10" d="M40.32,41.304
			c0-4.595-3.725-8.32-8.32-8.32s-8.32,3.725-8.32,8.32"/>
		
			<line fill="none" stroke="#4766B0" stroke-linecap="round" stroke-linejoin="round" stroke-miterlimit="10" x1="39.179" y1="41.304" x2="40.286" y2="41.304"/>
		
			<line fill="none" stroke="#4766B0" stroke-linecap="round" stroke-linejoin="round" stroke-miterlimit="10" x1="23.68" y1="41.304" x2="24.786" y2="41.304"/>
		
			<line fill="none" stroke="#4766B0" stroke-linecap="round" stroke-linejoin="round" stroke-miterlimit="10" x1="31.983" y1="33.001" x2="31.983" y2="34.108"/>
		
			<line fill="none" stroke="#4766B0" stroke-linecap="round" stroke-linejoin="round" stroke-miterlimit="10" x1="37.071" y1="46.392" x2="37.854" y2="47.175"/>
		
			<line fill="none" stroke="#4766B0" stroke-linecap="round" stroke-linejoin="round" stroke-miterlimit="10" x1="26.111" y1="35.433" x2="26.894" y2="36.215"/>
		
			<line fill="none" stroke="#4766B0" stroke-linecap="round" stroke-linejoin="round" stroke-miterlimit="10" x1="37.071" y1="36.215" x2="37.854" y2="35.433"/>
		
			<line fill="none" stroke="#4766B0" stroke-linecap="round" stroke-linejoin="round" stroke-miterlimit="10" x1="26.117" y1="47.187" x2="26.899" y2="46.405"/>
		<path fill="none" stroke="#4766B0" stroke-linecap="round" stroke-linejoin="round" stroke-miterlimit="10" d="M37.883,47.188
			c1.506-1.506,2.438-3.586,2.438-5.884c0-4.595-3.725-8.32-8.32-8.32s-8.32,3.725-8.32,8.32c0,2.298,0.931,4.378,2.437,5.883"/>
		<g>
			<g>
				<polygon fill="#8CAEDC" stroke="#4766B0" stroke-linecap="round" stroke-linejoin="round" stroke-miterlimit="10" points="
					32,36.215 32.687,39.542 33.374,42.869 32,42.869 30.626,42.869 31.313,39.542 				"/>
			</g>
			
				<circle fill="#5981C1" stroke="#4766B0" stroke-linecap="round" stroke-linejoin="round" stroke-miterlimit="10" cx="32" cy="43.125" r="1.421"/>
		</g>
		<g>
			<path fill="none" stroke="#4766B0" stroke-linecap="round" stroke-linejoin="round" stroke-miterlimit="10" d="M32,47.922
				c-1.001,0-1.957-0.185-2.845-0.508l-0.605,1.464c1.051,0.48,2.219,0.747,3.45,0.747c1.23,0,2.398-0.267,3.449-0.746l-0.605-1.464
				C33.956,47.737,33.001,47.922,32,47.922z"/>
		</g>
	</g>
	
		<rect x="9.75" y="18" fill="#5981C1" stroke="#4766B0" stroke-width="2" stroke-linecap="round" stroke-linejoin="round" stroke-miterlimit="10" width="44.5" height="6.254"/>
	<g>
		
			<line fill="#5981C1" stroke="#4766B0" stroke-width="2" stroke-linecap="round" stroke-linejoin="round" stroke-miterlimit="10" x1="43.25" y1="24.254" x2="49.46" y2="18.044"/>
		
			<line fill="#5981C1" stroke="#4766B0" stroke-width="2" stroke-linecap="round" stroke-linejoin="round" stroke-miterlimit="10" x1="34.929" y1="24.254" x2="41.139" y2="18.044"/>
		
			<line fill="#5981C1" stroke="#4766B0" stroke-width="2" stroke-linecap="round" stroke-linejoin="round" stroke-miterlimit="10" x1="32.818" y1="18.044" x2="26.607" y2="24.254"/>
		
			<line fill="#5981C1" stroke="#4766B0" stroke-width="2" stroke-linecap="round" stroke-linejoin="round" stroke-miterlimit="10" x1="18.286" y1="24.254" x2="24.496" y2="18.044"/>
		
			<line fill="#5981C1" stroke="#4766B0" stroke-width="2" stroke-linecap="round" stroke-linejoin="round" stroke-miterlimit="10" x1="9.965" y1="24.254" x2="16.175" y2="18.044"/>
	</g>
</g>
</svg>
