<?xml version="1.0" encoding="utf-8"?>
<!-- Generator: Adobe Illustrator 19.1.0, SVG Export Plug-In . SVG Version: 6.00 Build 0)  -->
<svg version="1.1" id="Layer_1" xmlns="http://www.w3.org/2000/svg" xmlns:xlink="http://www.w3.org/1999/xlink" x="0px" y="0px"
	 viewBox="0 0 64 64" enable-background="new 0 0 64 64" xml:space="preserve">
<g>
	
		<rect x="40.703" y="14.085" fill="#4A72B8" stroke="#4766B0" stroke-width="3" stroke-linecap="round" stroke-linejoin="round" stroke-miterlimit="10" width="10.382" height="3.576"/>
	
		<line fill="#5981C1" stroke="#4766B0" stroke-width="3" stroke-linecap="round" stroke-linejoin="round" stroke-miterlimit="10" x1="22.879" y1="45.683" x2="18.433" y2="45.683"/>
	
		<polyline fill="#5981C1" stroke="#4766B0" stroke-width="3" stroke-linecap="round" stroke-linejoin="round" stroke-miterlimit="10" points="
		9.968,45.683 5.218,45.683 5.218,36.601 40.54,36.601 40.54,45.683 31.344,45.683 	"/>
	
		<path fill="#5981C1" stroke="#4766B0" stroke-width="3" stroke-linecap="round" stroke-linejoin="round" stroke-miterlimit="10" d="
		M53.818,45.683h4.813V29.617v-5.744v-2.478c0-2.002-1.623-3.625-3.625-3.625H44.165c-2.002,0-3.625,1.623-3.625,3.625v2.478v5.744
		v16.065h4.814"/>
	
		<circle fill="#4A72B8" stroke="#4766B0" stroke-width="3" stroke-linecap="round" stroke-linejoin="round" stroke-miterlimit="10" cx="14.201" cy="45.683" r="4.233"/>
	
		<circle fill="#4A72B8" stroke="#4766B0" stroke-width="3" stroke-linecap="round" stroke-linejoin="round" stroke-miterlimit="10" cx="27.112" cy="45.683" r="4.233"/>
	
		<circle fill="#4A72B8" stroke="#4766B0" stroke-width="3" stroke-linecap="round" stroke-linejoin="round" stroke-miterlimit="10" cx="49.586" cy="45.683" r="4.233"/>
	
		<line fill="#8CAEDC" stroke="#4766B0" stroke-width="2" stroke-linecap="round" stroke-linejoin="round" stroke-miterlimit="10" x1="44.54" y1="36.428" x2="47.248" y2="36.428"/>
	
		<line fill="#5981C1" stroke="#4766B0" stroke-width="3" stroke-linecap="round" stroke-linejoin="round" stroke-miterlimit="10" x1="55.139" y1="45.683" x2="61.375" y2="45.683"/>
	
		<line fill="#5981C1" stroke="#4766B0" stroke-width="3" stroke-linecap="round" stroke-linejoin="round" stroke-miterlimit="10" x1="2.625" y1="45.683" x2="9.969" y2="45.683"/>
	
		<rect x="44.54" y="22.458" fill="#8CAEDC" stroke="#4766B0" stroke-width="2" stroke-linecap="round" stroke-linejoin="round" stroke-miterlimit="10" width="10.123" height="10.123"/>
	
		<rect x="15.594" y="33.114" fill="#4A72B8" stroke="#4766B0" stroke-width="2" stroke-linecap="round" stroke-linejoin="round" stroke-miterlimit="10" width="10.123" height="3.487"/>
	
		<line fill="#4A72B8" stroke="#4766B0" stroke-width="3" stroke-linecap="round" stroke-linejoin="round" stroke-miterlimit="10" x1="40.54" y1="23.874" x2="40.54" y2="14.085"/>
</g>
</svg>
