<?xml version="1.0" encoding="utf-8"?>
<!-- Generator: Adobe Illustrator 19.1.0, SVG Export Plug-In . SVG Version: 6.00 Build 0)  -->
<svg version="1.1" id="Layer_1" xmlns="http://www.w3.org/2000/svg" xmlns:xlink="http://www.w3.org/1999/xlink" x="0px" y="0px"
	 viewBox="0 0 64 64" enable-background="new 0 0 64 64" xml:space="preserve">
<g>
	<g>
		
			<polygon fill="#4A72B8" stroke="#4766B0" stroke-width="3" stroke-linecap="round" stroke-linejoin="round" stroke-miterlimit="10" points="
			51.86,4.5 4.5,4.5 4.5,59.5 59.5,59.5 59.5,12.14 		"/>
	</g>
	
		<path fill="#8CAEDC" stroke="#4766B0" stroke-width="3" stroke-linecap="round" stroke-linejoin="round" stroke-miterlimit="10" d="
		M12.209,59.5V35.759c0-2.919,2.367-5.286,5.286-5.286h29.01c2.919,0,5.286,2.367,5.286,5.286V59.5H12.209z"/>
	
		<path fill="#5981C1" stroke="#4766B0" stroke-width="3" stroke-linecap="round" stroke-linejoin="round" stroke-miterlimit="10" d="
		M44.247,4.5v13.343c0,2.363-1.916,4.279-4.279,4.279H16.487c-2.363,0-4.279-1.916-4.279-4.279V4.5H44.247z"/>
	
		<path fill="#8CAEDC" stroke="#4766B0" stroke-width="3" stroke-linecap="round" stroke-linejoin="round" stroke-miterlimit="10" d="
		M44.247,4.5v13.343c0,2.363-1.916,4.279-4.279,4.279H24.031c-2.363,0-4.279-1.916-4.279-4.279V4.5H44.247z"/>
	
		<line fill="#8CAEDC" stroke="#4766B0" stroke-width="3" stroke-linecap="round" stroke-linejoin="round" stroke-miterlimit="10" x1="36.783" y1="9.544" x2="36.783" y2="16.141"/>
	<g>
		
			<line fill="#5981C1" stroke="#4766B0" stroke-width="2" stroke-linecap="round" stroke-linejoin="round" stroke-miterlimit="10" x1="18.312" y1="44.927" x2="45.687" y2="44.927"/>
		
			<line fill="#5981C1" stroke="#4766B0" stroke-width="2" stroke-linecap="round" stroke-linejoin="round" stroke-miterlimit="10" x1="18.312" y1="52.751" x2="45.687" y2="52.751"/>
		
			<line fill="#5981C1" stroke="#4766B0" stroke-width="2" stroke-linecap="round" stroke-linejoin="round" stroke-miterlimit="10" x1="18.312" y1="37.103" x2="45.687" y2="37.103"/>
	</g>
</g>
</svg>
