<?xml version="1.0" encoding="utf-8"?>
<!-- Generator: Adobe Illustrator 19.1.0, SVG Export Plug-In . SVG Version: 6.00 Build 0)  -->
<svg version="1.1" id="Layer_1" xmlns="http://www.w3.org/2000/svg" xmlns:xlink="http://www.w3.org/1999/xlink" x="0px" y="0px"
	 viewBox="0 0 64 64" enable-background="new 0 0 64 64" xml:space="preserve">
<g>
	
		<path fill="#8CAEDC" stroke="#4766B0" stroke-width="3" stroke-linecap="round" stroke-linejoin="round" stroke-miterlimit="10" d="
		M19.979,28.912c-4.784,0-8.663,3.878-8.663,8.663s3.878,8.663,8.663,8.663V28.912z"/>
	<path fill="none" stroke="#4766B0" stroke-width="3" stroke-linecap="round" stroke-linejoin="round" stroke-miterlimit="10" d="
		M11.225,37.575V24.318c0-12.05,9.768-21.818,21.818-21.818S54.86,12.268,54.86,24.318v13.258"/>
	
		<path fill="#4A72B8" stroke="#4766B0" stroke-width="2" stroke-linecap="round" stroke-linejoin="round" stroke-miterlimit="10" d="
		M54.86,26.362c0-10.191-9.768-18.453-21.818-18.453S11.225,16.17,11.225,26.362v-2.044c0-12.05,9.768-21.818,21.818-21.818
		S54.86,12.268,54.86,24.318V26.362z"/>
	
		<line fill="none" stroke="#4766B0" stroke-width="2" stroke-linecap="round" stroke-linejoin="round" stroke-miterlimit="10" x1="23.521" y1="28.912" x2="23.521" y2="46.238"/>
	
		<path fill="#8CAEDC" stroke="#4766B0" stroke-width="3" stroke-linecap="round" stroke-linejoin="round" stroke-miterlimit="10" d="
		M46.197,46.238c4.784,0,8.663-3.878,8.663-8.663s-3.878-8.663-8.663-8.663V46.238z"/>
	
		<line fill="none" stroke="#4766B0" stroke-width="2" stroke-linecap="round" stroke-linejoin="round" stroke-miterlimit="10" x1="42.655" y1="46.238" x2="42.655" y2="28.912"/>
	<path fill="none" stroke="#4766B0" stroke-width="3" stroke-linecap="round" stroke-linejoin="round" stroke-miterlimit="10" d="
		M9.145,32.624v17.967c0,0-0.917,8.984,21.818,8.984"/>
	
		<path fill="#8CAEDC" stroke="#4766B0" stroke-width="2" stroke-linecap="round" stroke-linejoin="round" stroke-miterlimit="10" d="
		M36.609,61.5h-7.134c-0.962,0-1.75-0.787-1.75-1.75V59.4c0-0.962,0.788-1.75,1.75-1.75h7.134c0.962,0,1.75,0.787,1.75,1.75v0.35
		C38.359,60.713,37.572,61.5,36.609,61.5z"/>
</g>
</svg>
