<?xml version="1.0" encoding="utf-8"?>
<!-- Generator: Adobe Illustrator 19.1.0, SVG Export Plug-In . SVG Version: 6.00 Build 0)  -->
<svg version="1.1" id="Layer_1" xmlns="http://www.w3.org/2000/svg" xmlns:xlink="http://www.w3.org/1999/xlink" x="0px" y="0px"
	 viewBox="0 0 64 64" enable-background="new 0 0 64 64" xml:space="preserve">
<path fill="#5981C1" stroke="#4766B0" stroke-width="3" stroke-linecap="round" stroke-linejoin="round" stroke-miterlimit="10" d="
	M33.565,40.184c0-6.349-5.147-11.496-11.496-11.496s-11.496,5.147-11.496,11.496H33.565z"/>
<circle fill="#4A72B8" stroke="#4766B0" stroke-width="3" stroke-linecap="round" stroke-linejoin="round" stroke-miterlimit="10" cx="49.208" cy="39.367" r="4.219"/>
<circle fill="#4A72B8" stroke="#4766B0" stroke-width="3" stroke-linecap="round" stroke-linejoin="round" stroke-miterlimit="10" cx="20.46" cy="39.367" r="4.219"/>
<path fill="#8CAEDC" stroke="#4766B0" stroke-width="2" stroke-linecap="round" stroke-linejoin="round" stroke-miterlimit="10" d="
	M26.711,30.684H13.666c-1.127,0-2.041-0.914-2.041-2.041v0c0-1.127,0.914-2.041,2.041-2.041h13.046c1.127,0,2.041,0.914,2.041,2.041
	v0C28.752,29.771,27.839,30.684,26.711,30.684z"/>
<path fill="none" stroke="#4766B0" stroke-width="3" stroke-linecap="round" stroke-linejoin="round" stroke-miterlimit="10" d="
	M50.208,30.078c-5.582,0-10.106,4.525-10.106,10.106H31.94"/>
<path fill="none" stroke="#4766B0" stroke-width="3" stroke-linecap="round" stroke-linejoin="round" stroke-miterlimit="10" d="
	M37.034,21.031h4.041c2.55,2.689,4.115,6.322,4.115,10.321"/>
<path fill="#4A72B8" stroke="#4766B0" stroke-width="2" stroke-linecap="round" stroke-linejoin="round" stroke-miterlimit="10" d="
	M45.19,20.414c-1.381,0-2.5,1.119-2.5,2.5s1.119,2.5,2.5,2.5V20.414z"/>
</svg>
