<?xml version="1.0" encoding="utf-8"?>
<!-- Generator: Adobe Illustrator 19.1.0, SVG Export Plug-In . SVG Version: 6.00 Build 0)  -->
<svg version="1.1" id="Layer_1" xmlns="http://www.w3.org/2000/svg" xmlns:xlink="http://www.w3.org/1999/xlink" x="0px" y="0px"
	 viewBox="0 0 64 64" enable-background="new 0 0 64 64" xml:space="preserve">
<g>
	<g>
		<g>
			
				<path fill="#5981C1" stroke="#4766B0" stroke-width="3" stroke-linecap="round" stroke-linejoin="round" stroke-miterlimit="10" d="
				M44.033,60.672c-5.513,0.018-15.724-3.681-26.36-14.169C11.723,40.635,7.156,34.052,4.812,27.97
				c-2.307-5.99-2.226-10.843,0.221-13.32c0.278-0.283,0.564-0.589,0.857-0.9c1.883-2.009,4.225-4.51,7.509-4.52
				c2.423-0.008,4.697,1.333,6.95,4.099c5.964,7.305,3.712,10.609,0.148,14.168l-0.403,0.404c0.03,0.468,0.541,2.776,6.952,9.099
				c6.331,6.238,8.674,6.788,9.195,6.822l0.396-0.406c1.643-1.691,3.505-3.606,6.413-3.615c2.221-0.007,4.687,1.125,7.761,3.562
				c2.701,2.141,4.071,4.317,4.185,6.654c0.165,3.401-2.367,5.846-4.402,7.809c-0.31,0.299-0.613,0.591-0.895,0.876
				C48.436,59.982,46.477,60.664,44.033,60.672z"/>
		</g>
	</g>
	
		<path fill="#8CAEDC" stroke="#4766B0" stroke-width="3" stroke-linecap="round" stroke-linejoin="round" stroke-miterlimit="10" d="
		M24.002,21.39L11.981,9.369c-1.377-1.377-1.377-3.631,0-5.009l0,0c1.377-1.377,3.631-1.377,5.009,0l12.021,12.021
		c1.377,1.377,1.377,3.631,0,5.009l0,0C27.633,22.767,25.379,22.767,24.002,21.39z"/>
	
		<path fill="#8CAEDC" stroke="#4766B0" stroke-width="3" stroke-linecap="round" stroke-linejoin="round" stroke-miterlimit="10" d="
		M54.82,52.208L42.799,40.187c-1.377-1.377-1.377-3.631,0-5.009l0,0c1.377-1.377,3.631-1.377,5.009,0l12.021,12.021
		c1.377,1.377,1.377,3.631,0,5.009l0,0C58.451,53.585,56.197,53.585,54.82,52.208z"/>
	<g>
		
			<path fill="#8CAEDC" stroke="#4766B0" stroke-width="2" stroke-linecap="round" stroke-linejoin="round" stroke-miterlimit="10" d="
			M48.59,24.908c-0.269,0.269-0.592,0.403-0.968,0.403h-2.744c-0.377,0-0.7-0.134-0.968-0.403c-0.269-0.269-0.403-0.591-0.403-0.968
			v-5.932h-5.932c-0.377,0-0.7-0.134-0.968-0.403s-0.403-0.591-0.403-0.968v-2.744c0-0.377,0.134-0.7,0.403-0.968
			s0.591-0.403,0.968-0.403h5.932V6.589c0-0.377,0.134-0.7,0.403-0.968s0.591-0.403,0.968-0.403h2.744
			c0.377,0,0.7,0.134,0.968,0.403c0.269,0.269,0.403,0.591,0.403,0.968v5.932h5.932c0.377,0,0.7,0.134,0.968,0.403
			c0.269,0.269,0.403,0.591,0.403,0.968v2.744c0,0.377-0.134,0.7-0.403,0.968c-0.269,0.269-0.591,0.403-0.968,0.403h-5.932v5.932
			C48.993,24.316,48.859,24.639,48.59,24.908z"/>
	</g>
</g>
</svg>
